<?xml version="1.0" encoding="utf-8"?>
<!-- Generator: Adobe Illustrator 22.1.0, SVG Export Plug-In . SVG Version: 6.00 Build 0)  -->
<svg version="1.1" id="Todos" xmlns="http://www.w3.org/2000/svg" xmlns:xlink="http://www.w3.org/1999/xlink" x="0px" y="0px"
	 viewBox="0 0 1174 464.2" style="enable-background:new 0 0 1174 464.2;" xml:space="preserve">
<style type="text/css">
	.st0{display:none;fill:#847979;stroke:#FFFFFF;stroke-miterlimit:10;}
	.st1{display:none;stroke:#FFFFFF;stroke-miterlimit:10;}
	.st2{fill:none;stroke:#FFFFFF;stroke-width:8.5;stroke-miterlimit:10;}
	.st3{fill:#FFFFFF;}
	.st4{fill:none;stroke:#FFFFFF;stroke-width:8;stroke-miterlimit:10;}
</style>
<rect x="-13" y="-7" class="st0" width="1185" height="472"/>
<rect x="1.5" y="1.7" class="st1" width="1172.4" height="461.8"/>
<title>Preparacinn</title>
<g id="Granjero">
	<path class="st2" d="M45.2,430.3C55,434.9,70,431,76,419.4l34.6-66.9c1.9-3.6,0.9-8.1-2.4-10.5l-33.6-25.2c-2.7-2-6.4-1.5-8.4,1.2
		c-0.3,0.4-0.6,0.8-0.8,1.3L32.6,399C27.7,413.4,34.8,425.3,45.2,430.3z"/>
	<path class="st2" d="M304.3,418.4c-5.7,0-11.3,1.8-16,5c-1.3,0.9-3.1,0.9-4.4,0c-6.3-4.2-14-5.8-21.5-4.3c-8.4,1.7-17,1.6-25.4-0.1
		c-1.8-0.4-3.7-0.5-5.5-0.6c-8.8,0-17,4.3-23.1,11.4c-3.1,3.5-5.5,7.6-7.1,12c-0.3,0.9-0.2,2,0.4,2.8c0.8,1,2.1,1.5,3.3,1.3h126.5
		c0.8,0,1.6-0.3,2.2-0.8c1-0.8,1.3-2.2,0.8-3.4C329.1,427.6,317.3,418.4,304.3,418.4z"/>
	<path class="st2" d="M63.5,177.3l32.7,28.9c-8,13.4-14.9,25.3-18,31.5c-7.3,14.5-10,28.2-8.1,36.2c3.7,15.4,16.7,23.9,24.9,30.6
		c17.8,14.4,55.4,38.5,55.4,38.5l-9.8,81.8c-1.2,7.6,1.5,23.1,21.6,25.8c10.7,1.5,24.9-2.8,26.7-14.7l15.4-102.7
		c1.4-5.5-0.2-12.8-3.9-16.8l-59.6-56l31.8-39.5l3.2,37.2c1.1,7.1,4.1,10.5,10,15.8c18.4,16.5,52.2,44.6,52.2,44.6
		c6.1,4.9,17.5,2.8,23.7-5.7c9-12.2-0.2-22.2-0.2-22.2L220.6,242c0,0-3.4-57.5-5.8-78.5c-1.7-12.3-5-24.8-20.6-33.6
		c-17.5-9.9-68.5-42.4-68.5-42.4c-8.5-5.1-21.4-3.8-28.1,3.4L42,148.6c-8,8.5-9,19-0.9,27.4C46.7,182,56.4,182,63.5,177.3z
		 M116.5,135.5l15.1,12.5c-4.9,8-14.4,23.5-24.2,39.7L80.6,164C95.9,151.7,116.5,135.5,116.5,135.5z"/>
	<path class="st2" d="M276.8,323.8c-2.8,3.9-6.2,7.2-10.2,9.8c-1.7,1.1-2.1,3.4-1,5c0.2,0.3,0.4,0.5,0.6,0.7l62.3,56.2
		c2,1.8,4.5,2.8,7.1,2.8c0.9,0,1.7-0.1,2.6-0.4l9.4,7.7c1.5,1.2,3.4,1.6,5.3,1.2c0.6-0.1,13.1-3,19,5.3l-23.3,23.2
		c-2.4,2.4-2.4,6.2,0,8.6s6.2,2.4,8.6,0l0,0l26.5-26.3c1.7-1.7,2.3-4.2,1.4-6.5c-6-16.1-22.1-18.1-32-16.8l-7-5.7
		c0.4-3.4-0.9-6.8-3.5-9l-62.4-56.2c-1-0.9-2.5-0.8-3.4,0.2C276.9,323.6,276.9,323.7,276.8,323.8L276.8,323.8z"/>
	<path class="st2" d="M182.7,33.8c0.5,0.4,16.1,13.3,23,19.3c-20.1,14.5-24.5,42.6-10,62.7s42.6,24.5,62.7,10
		c7.3-5.3,12.9-12.7,15.9-21.2c5.6,5.6,13.7,14.6,14.7,15.6c0,0,4.3,4.4,4.7,4.7c5.1,4.7,3.8,4.7,9.5-0.9c4.7-4.7,4.7-2.8-1.9-10.4
		c-6.4-7.3-9.5-10.4-19.9-21.8c7.6-9.5,13.3-17.1,16.1-20.9c6.5-8.7,6.9-6.9,0.9-12.3c-19.9-18-19.9-18-46.5-40.8
		c-8.1-7-5.2-8-16.1,5.7l-17.1,21.4c-11.4-9-18.3-14.4-21.8-17.6c-9.5-8.5-6.6-7.6-13.3-0.9C179.9,30,178,30,182.7,33.8z"/>
</g>
<g id="Mano">
	<path class="st3" d="M695.5,213.6c-1.3-14.2-16-25.8-37.4-24.7c-6.9-19.9-27.6-31-48.4-30.8c-16.2,0.2-33.2,7.5-42.5,20.8
		c-21.3-1.7-37.5,9.8-42.1,24c-0.6,1.9-2.4,3.1-4.4,3.1l-4.6-0.1c-2.3-0.1-4.1-2-4.1-4.3c0-0.4,0.1-0.7,0.2-1.1
		c5.5-18.3,24.9-32,48.2-32.8c11.7-12.8,29.8-20.5,49.1-20.7c24.9-0.3,47.5,12,57.6,30.8c21.4,1.5,42.2,17.1,41.6,38.7
		c-0.1,1.9-1.7,3.4-3.6,3.3c-0.4,0-0.9-0.1-1.3-0.3c-1.5-0.6-3-1.1-4.5-1.5C697.2,217.7,695.7,215.8,695.5,213.6z"/>
	<path class="st4" d="M664.5,305.7c-2.4,2.4-5.6,3.7-8.9,3.6l-81.5,1.1c-6.2-0.1-12.3-0.7-18.4-1.6c-9.2-1.8-41.6-9.8-65.6-10.3
		l-24.8,1.2c-5.8,0.3-9.8,0.2-12.6-5.6L437.1,253c-2.7-4.6,0.1-8.3,4.3-10.2l33.7-17.3c9.8-5.4,17.7-7.2,25.2-7.3l127.4,3.9
		c10.1,0.3,18.2,7.6,17.9,17.5c-0.2,9.7-8.2,16.3-18,16.4l-60.7-0.5c6.9,3,14.1,5.4,21.4,7.3l61.7,2.7l32.4-32.2
		c5.4-5.1,13.9-4.9,18.9,0.5c0.1,0.1,0.2,0.3,0.3,0.4c0.8,0.9,2,1.5,3.3,1.5c14.1,0.2,16.1,12.2,12.3,16.2
		C704,265.9,664.5,305.7,664.5,305.7z"/>
</g>
<g id="Paquete">
	<path class="st3" d="M852.9,162.4c-5.4,3.2-15.2,7.2-15.2,23.2c0,0.1,0,1.1,0,0.8l0.5,87.5c0,11.1,7.2,23.7,16.9,29.3l146.4,84.5
		c2.9,1.8,6.2,2.7,9.5,2.8c2.6,0,5.1-0.6,7.3-1.9v0.1l120.6-70c4.8-2.8,7.5-8.2,7.6-14.9l0.5-83.7v-16.8c0-12-8-19.2-15.2-23.2
		c-9.6-4.8-20-10.4-20-10.4c-11.2-6.4-20-11.2-25.6-14.4L983.5,96.2c-5.9-3.4-12.1-3.7-16.9-0.9L877.7,148 M1041,358.4l-29.1,16.8
		c-0.5,0.3-1.1,0.3-1.6,0l-147.8-84.9c-5-2.9-9.5-10.7-9.5-16.4l0.3-91.2c0-2.7,1.5-5.2,3.8-6.6l18.7-10.9c0.5-0.3,1.1-0.3,1.6,0
		l153.8,88.7c5.8,3.4,10.9,12.2,10.9,18.9l-0.3,84.2C1041.8,357.6,1041.5,358.1,1041,358.4z M1096.6,326.1l-40,23.3
		c-0.8,0.4-1.7,0.2-2.2-0.6c-0.1-0.2-0.2-0.5-0.2-0.8l0.2-75.1c0-11.1-7.5-24.1-17.1-29.6l-146-84.3c-0.8-0.4-1-1.4-0.6-2.2
		c0.1-0.2,0.3-0.4,0.6-0.6l37.8-21.9c0.5-0.3,1.1-0.3,1.6,0l156.1,90.3c5.8,3.4,10.9,12.2,10.9,18.9l-0.3,81.2
		C1097.4,325.3,1097.1,325.8,1096.6,326.1L1096.6,326.1z M1131.8,304.9c0,0.6-0.3,1.1-0.8,1.4l-18.8,10.8c-0.8,0.4-1.7,0.2-2.2-0.6
		c-0.1-0.2-0.2-0.5-0.2-0.8l0.2-72.2c0-11.1-7.5-24.1-17.1-29.7L944.6,128c-0.8-0.4-1-1.4-0.6-2.2c0.1-0.2,0.3-0.5,0.6-0.6
		l29.5-16.7c0.5-0.3,1.1-0.3,1.6,0l147.4,85c8.8,6.4,9,10.7,9,16.4L1131.8,304.9z"/>
</g>
</svg>
