<svg id="Capa_1" data-name="Capa 1" xmlns="http://www.w3.org/2000/svg" viewBox="0 0 888.19 396.53"><defs><style>.cls-1{isolation:isolate;font-size:95px;font-family:Noah-Heavy, Noah;}.cls-1,.cls-7{fill:#5d9e9b;}.cls-2{letter-spacing:-0.02em;}.cls-3{letter-spacing:-0.03em;}.cls-4{letter-spacing:-0.02em;}.cls-5{letter-spacing:0em;}.cls-6{letter-spacing:-0.03em;}</style></defs><title>Logo_Final_Horizontal</title><text class="cls-1" transform="translate(282 224.1)">C<tspan class="cls-2" x="65.26" y="0">r</tspan><tspan class="cls-3" x="101.37" y="0">o</tspan><tspan class="cls-4" x="151.43" y="0">w</tspan><tspan class="cls-5" x="215.08" y="0">d</tspan><tspan class="cls-6" x="269.23" y="0">F</tspan><tspan x="317.77" y="0">arming</tspan></text><g id="Capa_2" data-name="Capa 2"><g id="Capa_1-2" data-name="Capa 1-2"><g id="Capa_4" data-name="Capa 4"><g id="Hoja"><path class="cls-7" d="M173,382.9A222.2,222.2,0,0,1,98,281.7l12.2-4.5a209.22,209.22,0,0,0,70.6,95.3Z" transform="translate(0 0.03)"/><path id="_Trazado_" data-name=" Trazado " class="cls-7" d="M179.3,382.2l-4.8-9a1.37,1.37,0,0,1,.6-1.9,153.8,153.8,0,0,0,61.8-208.5,149.57,149.57,0,0,0-22.4-31.2L191.7,107a1.39,1.39,0,0,1,0-1.9,1.35,1.35,0,0,1,1.7-.2l9.1,5.2a1.36,1.36,0,0,0,1.9-.5,1.67,1.67,0,0,0,.1-1.2A131.33,131.33,0,0,1,195,59.2a135.69,135.69,0,0,1,3.5-30.4,1.3,1.3,0,0,0-1-1.6,1.16,1.16,0,0,0-1,.2,211.21,211.21,0,0,0-59.3,55.3A207.72,207.72,0,0,0,97.5,205.3c0,2.2,0,4.5.1,6.8,0,.9.1,1.8.1,2.7v1.9c0,.9-.7-.3-1.7-.5l-8.2-1.8c-.2,0-.3-.1-.5-.2l-1.3-.9c0-.9-1.4-.2-1.4-1.2-.1-2.4-.1-4.4-.1-6.8A221,221,0,0,1,126.6,75,223.88,223.88,0,0,1,207.7,6.1l12.1-6a1.32,1.32,0,0,1,1.8.6,1.27,1.27,0,0,1,0,1.2l-5.1,12.5A119.83,119.83,0,0,0,228,125.6l7.6,11.3a165.74,165.74,0,0,1,32.7,99.2c0,61.3-32.1,117-86,146.2C181.9,382.6,179.7,383,179.3,382.2Z" transform="translate(0 0.03)"/></g><g id="Brazos"><g id="_Grupo_" data-name=" Grupo "><path id="_Trazado_2" data-name=" Trazado 2" class="cls-7" d="M80.7,209.9l.9.5c.6.3,1.6.7,2.8,1.3a109,109,0,0,0,10.9,3.9,80,80,0,0,0,17.5,2.9,66.49,66.49,0,0,0,10.9-.3c1-.1,1.9-.3,2.9-.4a29.31,29.31,0,0,0,2.9-.5l3-.6c1-.2,2-.4,3-.7a75.61,75.61,0,0,0,24-10.9,74.68,74.68,0,0,0,11.1-9.1c1.7-1.7,3.4-3.5,5-5.4s3.1-3.9,4.5-5.9,2.8-4.3,4.1-6.4c.6-1.1,1.2-2.2,1.9-3.3a9.82,9.82,0,0,0,.8-1.8l.4-.8a7,7,0,0,1,4.2-3.3,6,6,0,0,1,7,3.7c.6,1.7.2.6.3.9v.1l.1.5a91.33,91.33,0,0,1,2.8,17.9c.1,1.6.1,3,.1,4.6v2.1l-.1,2.4a71.62,71.62,0,0,1-.9,9.2,93.25,93.25,0,0,1-4.6,18c-.6,1.5-1.1,2.9-1.8,4.4l-1.9,4.1-.5,1-.3.5-.3.6-1.2,2.1-1.2,2.1a8.79,8.79,0,0,1-.6,1l-.6.9-2.6,3.9c-.9,1.3-1.9,2.4-2.8,3.7-.5.6-.9,1.2-1.5,1.8l-1.6,1.8-1.6,1.7c-.5.6-1,1.1-1.6,1.7a96.21,96.21,0,0,1-14,11.5,94.2,94.2,0,0,1-15.8,8.1c-1.4.5-2.8.9-4.1,1.4a15.19,15.19,0,0,1-2,.6l-2,.6c-1.4.4-2.8.6-4.1,1-1.4.2-2.8.5-4.2.6a11.8,11.8,0,0,0-2,.4c-.6.1-1.4.1-2,.2-1.4.1-2.7.3-4.1.4s-2.7,0-4.1.1h-3.2l-.9-.1-3.7-.3c-.6,0-1.3-.2-1.9-.2l-1.9-.3c-2.6-.3-5.1-.9-7.5-1.4a20.14,20.14,0,0,1-3.5-1c-1.1-.4-2.3-.6-3.4-1l-3.3-1.2c-.5-.2-1.1-.4-1.6-.6a11.11,11.11,0,0,0-1.6-.7,79.69,79.69,0,0,1-20.5-13.4,81.77,81.77,0,0,1-12.3-14c-1.3-1.9-2.5-3.8-3.6-5.8-.9-1.8-1.8-3.2-2.3-4.5-1.1-2.5-1.8-3.8-1.8-3.8s.8,1.2,2.4,3.4a107.65,107.65,0,0,0,7.3,9.1,87.14,87.14,0,0,0,13.4,11.7,84.87,84.87,0,0,0,20.1,10.3c.5.2.9.4,1.5.6s1,.3,1.5.5l3.1.8a16.47,16.47,0,0,0,3.2.6,30.28,30.28,0,0,0,3.2.6c2.2.3,4.5.6,6.6.7.6,0,1.1.1,1.7.1s1.1.1,1.7.1h5.4c.6,0,1.2-.1,1.8-.1l3.5-.3,3.5-.6,1.8-.3c.6-.1,1.2-.3,1.8-.4,1.2-.3,2.4-.6,3.5-.8s2.3-.7,3.5-1l1.8-.6,1.8-.6c1.1-.5,2.3-.9,3.5-1.4,2.2-1.1,4.5-2,6.8-3.4l1.7-.9.8-.5.8-.6c1.1-.7,2.1-1.4,3.2-2.1s2-1.6,3.1-2.3l1.6-1.2,1.5-1.3,2.9-2.6,2.8-2.8a9.34,9.34,0,0,0,1.3-1.5l1.3-1.5,1.3-1.5a6.1,6.1,0,0,0,1.2-1.6c.7-1,1.6-2.1,2.3-3.2l2.1-3.3.6-.8a5.58,5.58,0,0,1,.5-.8l.9-1.7.9-1.7.3-.4.2-.5.5-1,1.8-3.7c.6-1.2,1-2.5,1.5-3.7a83.32,83.32,0,0,0,5.1-31.3,81.23,81.23,0,0,0-2-15.5l-.1-.5v-.1c.1.3-.3-.9.3.6a5.91,5.91,0,0,0,6.9,3.5c3.2-.7,4.8-4.6,4-3.2l-.6,1c-.4.6-.6,1.3-1,1.9-.7,1.3-1.5,2.6-2.2,3.8-1.6,2.5-3.2,4.9-5,7.2A85.88,85.88,0,0,1,177.9,204a95.5,95.5,0,0,1-13.2,9.4,78.16,78.16,0,0,1-27.6,9.9c-1.1.2-2.2.3-3.3.5s-2.2.2-3.2.3-2.1.2-3.2.2h-3.2a73.36,73.36,0,0,1-11.5-1,75.39,75.39,0,0,1-28.3-11.2c-1.1-.7-1.9-1.4-2.6-1.8A1,1,0,0,1,80.7,209.9Z" transform="translate(0 0.03)"/></g></g><path class="cls-7" d="M88.7,161.6c-13.2-10.2-23.5-26.8-28.4-45.4-5-19.1-3.5-38,4.1-51.9,8.3-15.3,31.2-37.9,90.5-17l-4.3,12.2c-37.2-13.1-63.8-9.2-74.8,11-12.5,23-2.2,63.1,20.8,81Z" transform="translate(0 0.03)"/><g id="Cuerpo"><path class="cls-7" d="M1.1,290.1c0-1.3-.1-2.6-.1-4-.6-21.4-1.7-57.3,29.9-95.2.9-1,1.7-2,2.4-2.9,1.1-1.4,2.2-2.7,3.3-4,28.5-34.6,29.5-39.9,30.7-46.1a49,49,0,0,1,1.3-5.5l12.5,3.7c-.4,1.4-.7,2.8-1,4.3-1.8,9.4-4.2,16.5-33.4,52l-.1.1c-1,1.2-2.1,2.5-3.2,3.8-.8,1-1.6,2-2.5,3-28.4,34-27.5,65.6-26.9,86.4,0,1.4.1,2.8.1,4.1Z" transform="translate(0 0.03)"/><path class="cls-7" d="M124.6,396.5C55.9,396.5,0,340.5,0,271.8c0-23.6,7.4-47.4,21.5-68.6l10.8,7.2C19.7,229.5,13,250.7,13,271.8A111.65,111.65,0,0,0,168.1,374.7c2.9-1.3,5.8-2.6,8.3-4l6,11.5c-2.8,1.5-5.9,2.9-9.2,4.3A121.18,121.18,0,0,1,124.6,396.5Z" transform="translate(0 0.03)"/></g></g></g></g></svg>