<?xml version="1.0" encoding="utf-8"?>
<!-- Generator: Adobe Illustrator 22.1.0, SVG Export Plug-In . SVG Version: 6.00 Build 0)  -->
<svg version="1.1" id="Capa_1" xmlns="http://www.w3.org/2000/svg" xmlns:xlink="http://www.w3.org/1999/xlink" x="0px" y="0px"
	 viewBox="0 0 200 200" style="enable-background:new 0 0 200 200;" xml:space="preserve">
<style type="text/css">
	.st0{fill:#0BA0CC;}
</style>
<g>
	<g>
		<g>
			<path class="st0" d="M67.9,112.9c-0.4,0-0.8-0.2-1.1-0.5c-0.5-0.7-0.4-1.2-0.2-1.7c0.2-0.5,0.5-0.9,0.8-1.3
				c0.3-0.4,0.6-0.9,1-1.2c0.1-0.1,0.3-0.2,0.4-0.4c0.2-0.3,0.3-0.6,0.3-0.9c0-0.4,0-0.8,0-1.1c0-0.4-0.1-0.8-0.1-1.2
				c0-0.7-0.1-1.6,0-2.2c0.1-0.4,0.2-0.8,0.2-1.1c0-0.2,0.1-0.3,0.1-0.4c0,0,0-0.1,0-0.1c0,0-0.1,0-0.1,0c-0.1,0-0.2,0-0.3-0.1
				c-0.1,0-0.2,0-0.3-0.1c-0.2-0.1-0.5-0.1-0.5-0.3c0-0.1,0-0.3,0.2-0.7c0.1-0.3,0.1-0.5,0.3-0.7c0.2-0.3,0.3-0.5,0.4-0.8
				c0.2-0.5,0.2-1,0.4-1.4c0.1-0.3,0.4-0.6,0.6-0.8c0.3-0.4,0.4-0.8,0.6-1.3c0.1-0.4,0.3-0.8,0.4-1.2c0.2-0.5,0.3-0.7,0.4-0.9
				c0-0.1,0.1-0.2,0.1-0.3c0.1-0.2,0.1-0.3,0.1-0.5c0-0.1,0-0.2,0.1-0.3c0.1-0.1,0.1-0.3,0.2-0.4c0-0.1,0.1-0.2,0.1-0.2
				c0,0,0,0-0.1,0c-0.1,0-0.1,0-0.2,0c-0.1,0-0.2,0-0.2-0.1c0-0.1,0-0.2,0.1-0.3c-0.1,0.1-0.1,0.1-0.2,0.1c0,0-0.1-0.1-0.1-0.1
				c0-0.1,0-0.1,0.1-0.1c0,0,0.1-0.1,0.2-0.3c0.1-0.1,0.1-0.3,0.2-0.4c0.1-0.1,0.2-0.2,0.3-0.4c0.2-0.3,0.3-0.7,0.4-1
				c0-0.1,0.1-0.3,0.1-0.4c0-0.2-0.1-0.3-0.2-0.5c-0.2-0.5,0-1,0.2-1.4c0.2-0.4,0.1-0.8-0.1-1.2c-0.3-0.5-0.8-0.8-1-1.3
				c0-0.1-0.1-0.3-0.2-0.3c0,0-0.1,0-0.1,0c-0.3,0.1-0.6,0.2-0.9,0.3c-0.1,0-0.1,0.1-0.2,0.1c-0.2,0-0.3,0-0.5-0.1
				c-0.1,0-0.1-0.1-0.1-0.1c-0.1,0-0.1,0-0.2,0.1L69,83c-0.4,0.1-1.4,0.5-2,0.6c-0.3,0.1-0.8,0.1-1.3,0.2c0,0-0.1,0-0.1,0
				c-1.1,0.2-2.2,0.4-3.4,0.6c0,0-0.1,0-0.1,0c0,0-0.1,0-0.1,0.1c0,0,0,0,0,0c0,0-0.1,0-0.1,0c-0.1,0-0.1,0-0.2,0c0,0,0,0-0.1,0
				c-0.1,0-0.2,0-0.2,0.1c-0.1,0-0.2,0-0.3,0c-0.2,0-0.4,0-0.6,0c-0.4,0-0.8,0.2-1.1,0.2c-0.1,0-0.3-0.1-0.2-0.3
				c0-0.1,0.2-0.2,0.3-0.2c0,0,0,0,0.1,0c-0.1,0-0.1,0-0.3,0l-0.1,0c-0.2,0-0.3,0-0.5-0.1c-0.1,0-0.2-0.1-0.3-0.1
				c-0.3-0.1-0.4-0.2-0.4-0.3c0-0.1-0.1-0.1-0.2-0.1c-0.3-0.1-0.5-0.1-0.6-0.3c0-0.1,0-0.2,0.1-0.3c0.1-0.1,0.2-0.1,0.2-0.1
				c0.1,0,0.2,0,0.4,0.1c0.1,0,0.2,0.1,0.3,0.1c0.5,0.1,1,0.2,1.5,0.2c0.2,0,0.5,0,0.7,0c0.1,0,0.2,0,0.4,0c0.1,0,0.3,0,0.3-0.1
				c0,0,0-0.1,0.1-0.1c0,0,0.1,0,0.2,0s0.1,0.1,0.2,0.1c0.1,0,0.2,0,0.3,0c0.2-0.1,0.4-0.1,0.5-0.2c0.2-0.1,0.4-0.2,0.6-0.2
				c0.2-0.1,0.4-0.1,0.5-0.2c0.2-0.1,0.3-0.1,0.4-0.2c0.1,0,0.2-0.1,0.3-0.1c0.1,0,0.2-0.1,0.3-0.1c1.2-0.5,1.9-0.8,2.4-0.9l0.6-0.1
				c0.4-0.1,0.8-0.1,0.9-0.2c0,0,0-0.1,0-0.1c-0.1-0.3,0.4-0.4,0.6-0.5c0.1,0,0.1-0.1,0.2-0.1c0.1,0,0.2-0.1,0.3-0.1
				c0.2-0.1,0.4-0.2,0.6-0.3c0.2-0.1,0.3-0.2,0.5-0.3c0.4-0.2,0.8-0.4,1.2-0.5c0.2-0.1,0.4-0.1,0.6-0.1c0.2,0,0.4,0,0.6,0
				c0.1,0,0.1,0,0.2,0c0.2,0,0.3-0.1,0.4-0.4c0.2-0.4,0.8-0.5,1.2-0.4c0,0,0.1,0,0.1,0c0,0,0,0,0-0.1c-0.1-0.2-0.2-0.3-0.3-0.4
				c-0.1-0.1-0.2-0.1-0.2-0.2c-0.1-0.1-0.1-0.2-0.2-0.3c-0.1,0-0.2,0.1-0.3-0.1c0,0,0-0.1,0-0.1c0-0.1,0-0.2-0.2-0.3
				c-0.2-0.2-0.3-0.4-0.2-0.7c0-0.1,0.1-0.2,0-0.4c0-0.1-0.1-0.3-0.1-0.4c-0.1-0.1-0.1-0.3,0-0.4c-0.1,0-0.1,0-0.1-0.1
				c0,0,0-0.1,0-0.1c0.2-0.4,0.3-0.7,0.5-1.1c0.1-0.2,0.2-0.3,0.3-0.5c0.6-0.9,1.5-1.2,2-1.3c0.3-0.1,0.6-0.1,0.9-0.1
				c0,0,0-0.1,0-0.1c0-0.1,0.1-0.1,0.2-0.1c0.1,0,0.3,0.2,0.5,0.3c-0.1-0.1-0.1-0.2-0.1-0.2c0,0,0-0.1,0-0.1c0,0,0.1,0,0.1,0
				c0.1,0.1,0.2,0.1,0.3,0.2c0.1,0.1,0.2,0.2,0.3,0.3c0.2,0.2,0.4,0.4,0.5,0.7c0.1,0.2,0.1,0.4,0.1,0.5c0.1,0.2,0.2,0.3,0.3,0.5
				c0.1,0.2,0.1,0.3,0.1,0.5c0,0.1,0,0.2,0.1,0.2c0.1,0,0.1,0.1,0.1,0.1c0,0.1-0.1,0.2-0.2,0.2c0,0,0.1,0,0.1,0c0,0,0.1,0,0.1,0.1
				c0,0,0,0.1,0,0.1c0,0-0.1,0.1-0.3,0.1c0,0,0,0,0,0.1c0,0,0,0.1,0,0.1c0,0.1,0,0.2,0,0.2c0,0.1,0,0.2,0,0.2c0.1,0.2,0.1,0.5,0,0.7
				c0,0.1-0.1,0.1-0.1,0.2c0,0.1-0.1,0.1-0.1,0.2c0,0.1,0,0.2,0,0.2s0,0.2-0.1,0.2c0,0-0.1,0-0.1,0c-0.1,0-0.1,0.1-0.1,0.2
				c-0.1,0.2-0.2,0.4-0.2,0.6c0,0.1,0,0.1,0.1,0.1c0.1,0,0.2,0,0.3,0c0.1,0,0.2,0,0.4-0.1c0.2-0.1,0.4-0.1,0.6-0.1
				c0.1,0,0.2,0,0.3,0c0.1,0.1-0.1,0.4-0.1,0.5c0,0.1-0.1,0.2,0,0.2c0.3,0,0.7-0.1,1,0.1c0.1,0.1,0.2,0.1,0.2,0.2
				c0.1,0.1,0.2,0.1,0.4,0.2c0.1,0,0.2,0.1,0.3,0.2c0.1,0.1,0.3,0.1,0.4,0.1c0.2,0.1,0.5,0.1,0.7,0.1c0.2,0,0.4,0.1,0.6,0.2
				c0.1,0.1,0.3,0.2,0.4,0.3c0.1,0.1,0.2,0.1,0.4,0.1c0.1,0,0.2,0,0.3,0c0.3,0,0.5,0,0.8,0c0.6,0,1,0.2,1.5,0.5
				c0.2,0.1,0.4,0.2,0.6,0.3c0.3,0.1,0.7,0.3,1.1,0.4c0.4,0.1,0.8,0.3,1.1,0.5c0.1,0.1,0.3,0.2,0.4,0.2c0.2,0,0.7-0.5,0.9-0.3
				c0.1,0,0.1,0.1,0.1,0.2c0.1,0,0.2-0.1,0.3-0.2c0.2-0.1,0.3-0.1,0.3,0c0.1,0.1,0.1,0.2,0,0.3c0,0.1-0.1,0.1-0.1,0.2
				c0,0-0.1,0-0.1,0.1c0,0,0,0,0.1,0c0,0,0.1,0,0.1,0c0.1,0,0.1,0,0.2-0.1c0.1,0,0.3,0,0.4,0c0,0,0.1,0.1,0.1,0.2
				c0,0.1-0.1,0.2-0.2,0.3c0.1,0,0.2,0,0.3,0.1c0,0,0.1,0.1,0,0.2c0,0.1-0.1,0.2-0.5,0.3c-0.3,0.1-0.6,0.1-0.8,0.1
				c-0.1,0-0.1,0-0.2,0c-0.2,0-0.4,0-0.6,0c-0.2,0-0.3-0.1-0.5-0.2c-0.4-0.2-0.8-0.3-1.3-0.4c-0.9-0.2-1.8-0.3-2.7-0.4
				c-0.2,0-0.5,0-0.8-0.1c-0.2,0-0.4-0.2-0.6-0.2c-0.4-0.1-0.7-0.2-1.1-0.2c-0.1,0-0.1,0-0.2,0.1c0,0-0.1,0.1-0.1,0.1
				c0,0.1,0,0.1-0.1,0.1c0,0.1-0.1,0.1-0.2,0.1c-0.1,0.1-0.1,0.1-0.2,0.1c0,0-0.1,0-0.1,0c-0.1,0-0.2-0.1-0.3-0.1
				c-0.1,0-0.2-0.1-0.3-0.1c-0.2-0.1-0.3-0.1-0.5-0.1c-0.1,0-0.2,0-0.3,0c0,0-0.1,0-0.1,0c0,0,0,0.1,0,0.1c0,0,0,0.1,0.1,0.1
				c0.1,0.2,0.1,0.3,0.1,0.4c0,0.1,0.1,0.2,0.1,0.3c0.7,1.5,0.9,3.4,0.6,5c0,0.3-0.1,0.5-0.1,0.8c0,0.3,0.1,0.6,0.2,0.9
				c0.1,0.2,0.1,0.5,0,0.8c0,0.1,0,0.2,0,0.3c0,0.1,0,0.1-0.1,0.2c-0.1,0.1-0.2,0.1-0.3,0.1c0,0,0.1,0.3,0.1,0.4
				c0,0.2,0.1,0.4,0.1,0.6c0.1,1,0.4,2,0.8,2.9c0.1,0.2,0.2,0.5,0.3,0.7c0.1,0.2,0.2,0.4,0.2,0.7c0.1,0.4,0.2,0.9,0.5,1.3
				c0.2,0.4,0.4,0.9,0.4,1.3c0,0.2,0,0.4-0.1,0.6c-0.1,0.4-0.2,0.7,0.1,1.2c0.1,0.2,0.2,0.3,0.3,0.5c0.3,0.3,0.5,0.6,0.7,0.9
				c0.5,0.7,0.6,0.9,0.6,1.7c0,0.4-0.1,0.8-0.4,1.1c-0.4,0.3-1.1,0.2-1.5,0c-0.9-0.4-1.2-1.4-1.4-2.2c0-0.1-0.1-0.2-0.1-0.3
				c-0.1-0.1-0.5,0-0.7,0c-0.2,0-0.8,0.1-1.5-0.1c-0.6-0.1-0.6-0.3-0.7-0.6c0,0,0-0.1,0-0.1c0-0.1-0.1-0.2-0.2-0.3
				c-0.1-0.1-0.1-0.1-0.2-0.2c-0.2-0.2-0.1-0.5,0-0.7c0,0,0-0.1,0-0.1c0.1-0.2,0.1-0.2-0.2-0.9c-0.1-0.1-0.1-0.3-0.2-0.4
				c-0.2-0.6-0.5-1.2-0.7-1.9l-0.1-0.4c-0.1-0.4-0.3-0.9-0.4-1.3c0-0.1-0.1-0.1-0.1-0.2c-0.1,0-0.1,0-0.2,0c-0.3,0-0.5,0.2-0.7,0.4
				c-0.2,0.2-0.3,0.5-0.3,0.8c0,0.3-0.2,0.6-0.3,0.8c-0.2,0.5-0.5,1-0.7,1.5c-0.2,0.4-0.4,0.7-0.7,1c-0.3,0.3-0.6,0.6-0.9,1
				c0,0.2-0.1,0.5-0.2,0.7c-0.1,0.2-0.3,0.4-0.4,0.6c-0.3,0.5-0.5,1-0.6,1.5c-0.1,0.3-0.1,0.5-0.2,0.8c-0.1,0.3-0.2,0.6-0.3,0.9
				c-0.2,0.5-0.4,1.1-0.4,1.3c-0.1,0.8-0.1,1.1-0.1,1.3c0,0.1,0.1,0.3,0,0.4c-0.1,0.1-0.1,0.3-0.2,0.4c-0.1,0.4-0.3,0.7-0.4,1
				c-0.2,0.5-0.5,1-0.7,1.6c-0.1,0.2-0.1,0.5-0.2,0.7c-0.1,0.2-0.3,0.4-0.5,0.6C68.7,112.8,68.3,112.9,67.9,112.9z"/>
		</g>
		<g>
			<path class="st0" d="M47.1,106.9c-5.1,0-8.9-1.3-11.7-4c-2.7-2.6-4.2-6.6-4.2-11.1c0-9.3,6.7-15.6,16.7-15.6
				c3.7,0,6.6,0.8,7.9,1.4l0.3,0.2L54.7,83l-0.5-0.2c-1.4-0.6-3.2-1.2-6.4-1.2c-6.3,0-10.1,3.7-10.1,10c0,6.2,3.7,10.1,9.6,10.1
				c1.7,0,2.9-0.2,3.6-0.4v-6.5h-5.1v-5.1h11.2v15.5l-0.3,0.1C54.4,106,50.8,106.9,47.1,106.9z"/>
		</g>
		<g>
			<path class="st0" d="M101.9,107c-3.4,0-6.6-1-8.1-1.9l-0.3-0.2l1.4-5.3l0.5,0.3c2,1.1,4.5,1.8,6.8,1.8c3,0,4.8-1.3,4.8-3.5
				c0-2-1.3-3.1-4.9-4.4c-5.5-2-8.2-4.9-8.2-8.9c0-5.2,4.4-8.8,10.7-8.8c3.5,0,5.9,0.8,7.2,1.5l0.3,0.2l-1.6,5.2l-0.5-0.3
				c-0.9-0.5-2.9-1.3-5.6-1.3c-3,0-4.4,1.5-4.4,3c0,1.8,1.1,2.8,5.3,4.4c5.4,2,7.8,4.8,7.8,9.1C113.4,102.1,110.4,107,101.9,107z"/>
		</g>
		<g>
			<path class="st0" d="M132.1,107c-8.3,0-13.9-6.1-13.9-15.3c0-9.3,5.9-15.7,14.3-15.7c8.4,0,14,6.1,14,15.2
				C146.6,100.8,140.9,107,132.1,107z M132.4,81.3c-5.6,0-7.6,5.6-7.6,10.4c0,5.1,2.4,10.2,7.6,10.2c4.5,0,7.6-4.2,7.6-10.4
				C140,86.5,137.6,81.3,132.4,81.3z"/>
		</g>
		<g>
			<path class="st0" d="M171.3,106.6H153V76.5h6.2v24.7h12V106.6z"/>
		</g>
	</g>
	<g>
		<path d="M31.7,114.8h7.9v2.4h-5v3h4.7v2.4h-4.7v5.2h-2.9V114.8z"/>
		<path d="M56.4,121.2c0,4.3-2.6,6.8-6.4,6.8c-3.8,0-6.1-2.9-6.1-6.6c0-3.9,2.5-6.8,6.3-6.8C54.3,114.6,56.4,117.6,56.4,121.2z
			 M47.1,121.3c0,2.5,1.2,4.3,3.2,4.3c2,0,3.1-1.9,3.1-4.4c0-2.3-1.1-4.3-3.1-4.3C48.2,116.9,47.1,118.8,47.1,121.3z"/>
		<path d="M64,114.8v7.5c0,2.2,0.8,3.4,2.3,3.4c1.5,0,2.4-1.1,2.4-3.4v-7.5h2.9v7.3c0,4-2,5.9-5.4,5.9c-3.3,0-5.2-1.8-5.2-5.9v-7.2
			H64z"/>
		<path d="M76.9,127.8v-13h3.4l2.7,4.7c0.8,1.4,1.5,3,2.1,4.4h0.1c-0.2-1.7-0.3-3.5-0.3-5.4v-3.8h2.7v13h-3.1l-2.8-5
			c-0.8-1.4-1.6-3.1-2.2-4.6l-0.1,0c0.1,1.7,0.1,3.5,0.1,5.7v3.9H76.9z"/>
		<path d="M92.9,115c1.1-0.2,2.5-0.3,4-0.3c2.5,0,4.1,0.4,5.3,1.4c1.3,1,2.2,2.6,2.2,4.9c0,2.5-0.9,4.2-2.2,5.3
			c-1.4,1.1-3.4,1.7-6,1.7c-1.5,0-2.6-0.1-3.3-0.2V115z M95.9,125.6c0.3,0.1,0.7,0.1,1,0.1c2.7,0,4.4-1.4,4.4-4.5
			c0-2.7-1.6-4.1-4.1-4.1c-0.7,0-1.1,0.1-1.3,0.1V125.6z"/>
		<path d="M111.8,124.5l-0.9,3.3h-3l4-13h3.8l4,13h-3.2l-1-3.3H111.8z M115.1,122.3l-0.8-2.8c-0.2-0.8-0.5-1.7-0.7-2.5h0
			c-0.2,0.8-0.4,1.8-0.6,2.5l-0.8,2.8H115.1z"/>
		<path d="M125,117.3h-3.5v-2.5h10v2.5H128v10.5H125V117.3z"/>
		<path d="M138.7,114.8v13h-2.9v-13H138.7z"/>
		<path d="M155.9,121.2c0,4.3-2.6,6.8-6.4,6.8c-3.8,0-6.1-2.9-6.1-6.6c0-3.9,2.5-6.8,6.3-6.8C153.7,114.6,155.9,117.6,155.9,121.2z
			 M146.5,121.3c0,2.5,1.2,4.3,3.2,4.3c2,0,3.1-1.9,3.1-4.4c0-2.3-1.1-4.3-3.1-4.3C147.7,116.9,146.5,118.8,146.5,121.3z"/>
		<path d="M160.5,127.8v-13h3.4l2.7,4.7c0.8,1.4,1.5,3,2.1,4.4h0.1c-0.2-1.7-0.3-3.5-0.3-5.4v-3.8h2.7v13h-3.1l-2.8-5
			c-0.8-1.4-1.6-3.1-2.2-4.6l-0.1,0c0.1,1.7,0.1,3.5,0.1,5.7v3.9H160.5z"/>
	</g>
</g>
</svg>
