<svg xmlns="http://www.w3.org/2000/svg" xmlns:xlink="http://www.w3.org/1999/xlink" width="16" height="16" viewBox="0 0 16 16">
    <defs>
        <path id="rp3q51x3ua" d="M14.667 12.667c0 .368-.298.666-.667.666-.369 0-.667-.298-.667-.666 0-1.103-.897-2-2-2-.455 0-.888.156-1.237.432.363.664.57 1.426.57 2.234 0 .368-.297.667-.666.667-.369 0-.667-.299-.667-.667C9.333 11.495 7.838 10 6 10s-3.333 1.495-3.333 3.333c0 .368-.298.667-.667.667-.369 0-.667-.299-.667-.667 0-2.573 2.094-4.666 4.667-4.666 1.285 0 2.449.522 3.293 1.364.58-.448 1.293-.698 2.04-.698 1.838 0 3.334 1.496 3.334 3.334M11.333 6c.368 0 .667.3.667.667 0 .367-.299.666-.667.666-.368 0-.666-.299-.666-.666 0-.368.298-.667.666-.667m0 2.667c1.103 0 2-.898 2-2 0-1.103-.897-2-2-2-1.102 0-2 .897-2 2 0 1.102.898 2 2 2M6 3.333c.735 0 1.333.598 1.333 1.334C7.333 5.402 6.735 6 6 6s-1.333-.598-1.333-1.333c0-.736.598-1.334 1.333-1.334m0 4c1.47 0 2.667-1.196 2.667-2.666C8.667 3.196 7.47 2 6 2 4.53 2 3.333 3.196 3.333 4.667c0 1.47 1.196 2.666 2.667 2.666"/>
    </defs>
    <g fill="none" fill-rule="evenodd">
        <g>
            <g>
                <g>
                    <g>
                        <g>
                            <g transform="translate(-16.000000, -1002.000000) translate(0.000000, 732.000000) translate(16.000000, 168.000000) translate(0.000000, 68.000000) translate(0.000000, 34.000000) translate(0.000000, 0.000000)">
                                <mask id="b0s4lcnheb" fill="#fff">
                                    <use xlink:href="#rp3q51x3ua"/>
                                </mask>
                                <g fill="#FFF" mask="url(#b0s4lcnheb)">
                                    <path d="M0 0H16V16H0z"/>
                                </g>
                            </g>
                        </g>
                    </g>
                </g>
            </g>
        </g>
    </g>
</svg>
