<svg xmlns="http://www.w3.org/2000/svg" viewBox="0 0 48.5 55.63"><defs><style>.cls-1{fill:#333;}</style></defs><title>Recurso 2</title><g id="Capa_2" data-name="Capa 2"><g id="Capa_1-2" data-name="Capa 1"><path class="cls-1" d="M47.18,7.19h-6.4V1.32A1.07,1.07,0,0,0,39.71.25H10.42a1.06,1.06,0,0,0-.78.34L.54,10.35a1.05,1.05,0,0,0-.29.73v36.3a1.07,1.07,0,0,0,1.07,1.07h6.4v5.87a1.06,1.06,0,0,0,1.07,1.06H47.18a1.06,1.06,0,0,0,1.07-1.06V8.25A1.06,1.06,0,0,0,47.18,7.19ZM9.46,3.92v6.29H3.59ZM8,17.29a1,1,0,0,0-.28.72v28.3H2.38v-34h8.14a1.06,1.06,0,0,0,1.07-1.06V2.38H38.65V7.19H17.89a1.07,1.07,0,0,0-.78.33Zm8.93-6.44v6.29H11.06Zm29.19,42.4H9.85v-34H18a1.07,1.07,0,0,0,1.07-1.07V16.8H41.5a1.07,1.07,0,1,0,0-2.13H19.06V9.32H46.12Z"/><path class="cls-1" d="M47.18,55.63H8.79a1.32,1.32,0,0,1-1.32-1.31V48.7H1.32A1.32,1.32,0,0,1,0,47.38V11.08a1.33,1.33,0,0,1,.35-.9L9.46.42a1.31,1.31,0,0,1,1-.42H39.71A1.32,1.32,0,0,1,41,1.32V6.94h6.15A1.32,1.32,0,0,1,48.5,8.25V54.32A1.32,1.32,0,0,1,47.18,55.63ZM10.42.5a.83.83,0,0,0-.6.26L.72,10.52a.82.82,0,0,0-.22.56v36.3a.82.82,0,0,0,.82.82H8v6.12a.81.81,0,0,0,.82.81H47.18a.82.82,0,0,0,.82-.81V8.25a.82.82,0,0,0-.82-.81H40.53V1.32A.82.82,0,0,0,39.71.5Zm35.95,53H9.6V19H18a.82.82,0,0,0,.82-.82V16.55H41.5a.82.82,0,0,0,.82-.82.82.82,0,0,0-.82-.81H18.81V9.07H46.37ZM10.1,53H45.87V9.57H19.31v4.85H41.5a1.32,1.32,0,1,1,0,2.63H19.31v1.16A1.32,1.32,0,0,1,18,19.53H10.1ZM8,46.56H2.13V12.09h8.39a.82.82,0,0,0,.82-.81V2.13H38.9V7.44h-21a.86.86,0,0,0-.6.25l-9.1,9.77A.82.82,0,0,0,8,18Zm-5.34-.5H7.47V18a1.32,1.32,0,0,1,.35-.9h0l9.11-9.76a1.34,1.34,0,0,1,1-.41H38.4V2.63H11.84v8.65a1.32,1.32,0,0,1-1.32,1.31H2.63ZM17.18,17.39h-6.7l6.7-7.17Zm-5.55-.5h5v-5.4ZM9.71,10.46H3l6.7-7.18ZM4.16,10H9.21V4.55Z"/><path class="cls-1" d="M13.09,23.28H41.5a1.07,1.07,0,1,0,0-2.13H13.09a1.07,1.07,0,1,0,0,2.13Z"/><path class="cls-1" d="M41.5,23.53H13.09a1.32,1.32,0,1,1,0-2.63H41.5a1.32,1.32,0,1,1,0,2.63ZM13.09,21.4a.82.82,0,0,0-.82.81.82.82,0,0,0,.82.82H41.5a.82.82,0,0,0,.82-.82.82.82,0,0,0-.82-.81Z"/><path class="cls-1" d="M13.09,29.76H41.5a1.07,1.07,0,1,0,0-2.13H13.09a1.07,1.07,0,1,0,0,2.13Z"/><path class="cls-1" d="M41.5,30H13.09a1.32,1.32,0,1,1,0-2.63H41.5a1.32,1.32,0,1,1,0,2.63ZM13.09,27.88a.82.82,0,0,0-.82.81.82.82,0,0,0,.82.82H41.5a.82.82,0,0,0,.82-.82.82.82,0,0,0-.82-.81Z"/><path class="cls-1" d="M13.09,36.24H41.5a1.07,1.07,0,1,0,0-2.13H13.09a1.07,1.07,0,1,0,0,2.13Z"/><path class="cls-1" d="M41.5,36.49H13.09a1.32,1.32,0,1,1,0-2.63H41.5a1.32,1.32,0,1,1,0,2.63ZM13.09,34.36a.82.82,0,1,0,0,1.63H41.5a.82.82,0,1,0,0-1.63Z"/><path class="cls-1" d="M41.51,40.59H13.09a1.07,1.07,0,1,0,0,2.13H41.51a1.07,1.07,0,1,0,0-2.13Z"/><path class="cls-1" d="M41.51,43H13.09a1.32,1.32,0,1,1,0-2.63H41.51a1.32,1.32,0,1,1,0,2.63ZM13.09,40.84a.82.82,0,0,0-.82.82.82.82,0,0,0,.82.81H41.51a.82.82,0,0,0,.82-.81.82.82,0,0,0-.82-.82Z"/><path class="cls-1" d="M41.51,47H13.09A1.07,1.07,0,0,0,12,48.06a1,1,0,0,0,.08.39,1.06,1.06,0,0,0,1,.67H41.51a1.07,1.07,0,1,0,0-2.13Z"/><path class="cls-1" d="M41.51,49.38H13.09a1.31,1.31,0,0,1-1.23-.84,1.36,1.36,0,0,1-.09-.48,1.32,1.32,0,0,1,1.32-1.32H41.51a1.32,1.32,0,1,1,0,2.64ZM13.09,47.24a.82.82,0,0,0-.82.82.8.8,0,0,0,.06.3.81.81,0,0,0,.76.52H41.51a.82.82,0,1,0,0-1.64Z"/></g></g></svg>