<svg xmlns="http://www.w3.org/2000/svg" viewBox="0 0 46.39 55.45"><defs><style>.cls-1{fill:#333;}</style></defs><title>Recurso 2</title><g id="Capa_2" data-name="Capa 2"><g id="Capa_1-2" data-name="Capa 1"><path class="cls-1" d="M31.38,0H13a1.31,1.31,0,0,0-1.41,1.18V3.25H5.05c-2.79,0-5,1.89-5,4.2v43.8c0,2.31,2.26,4.2,5.05,4.2h36.3c2.78,0,5-1.89,5-4.2V7.45c0-2.31-2.26-4.2-5-4.2H35V1.18A1.32,1.32,0,0,0,33.53,0h-3.3M14.37,5.61V2.36H32.12v5H14.37ZM43.56,51.25a2.06,2.06,0,0,1-2.21,1.84H5.05a2.07,2.07,0,0,1-2.22-1.84V7.45A2.06,2.06,0,0,1,5.05,5.61h6.49v2.9A1.3,1.3,0,0,0,13,9.68H33.53A1.31,1.31,0,0,0,35,8.51V5.61h6.4a2,2,0,0,1,2.21,1.84Z"/><path class="cls-1" d="M37.76,15.08l-4.6,6.68L30,17.87a1.42,1.42,0,1,0-2.2,1.8L32.17,25a1.41,1.41,0,0,0,1.09.52h.06a1.43,1.43,0,0,0,1.11-.61l5.66-8.23a1.42,1.42,0,1,0-2.33-1.61Z"/><path class="cls-1" d="M22.05,22.43H8.74a1.42,1.42,0,1,0,0,2.83H22.05a1.42,1.42,0,0,0,0-2.83Z"/><path class="cls-1" d="M22.05,16.19H8.74a1.42,1.42,0,1,0,0,2.84H22.05a1.42,1.42,0,0,0,0-2.84Z"/><path class="cls-1" d="M37.76,31.78l-4.6,6.68L30,34.57a1.42,1.42,0,0,0-2.2,1.79l4.39,5.35a1.41,1.41,0,0,0,1.09.52h.06a1.41,1.41,0,0,0,1.11-.62l5.66-8.23a1.41,1.41,0,1,0-2.33-1.6Z"/><path class="cls-1" d="M22.05,39.12H8.74a1.42,1.42,0,0,0,0,2.84H22.05a1.42,1.42,0,0,0,0-2.84Z"/><path class="cls-1" d="M22.05,32.89H8.74a1.42,1.42,0,1,0,0,2.83H22.05a1.42,1.42,0,0,0,0-2.83Z"/></g></g></svg>