<?xml version="1.0" encoding="UTF-8"?>
<svg width="544px" height="592px" viewBox="0 0 544 592" version="1.1" xmlns="http://www.w3.org/2000/svg" xmlns:xlink="http://www.w3.org/1999/xlink">
    <!-- Generator: Sketch 63.1 (92452) - https://sketch.com -->
    <title>11.faq.illustration</title>
    <desc>Created with Sketch.</desc>
    <defs>
        <rect id="path-1" x="0" y="0" width="544" height="592"></rect>
    </defs>
    <g id="11.faq.illustration" stroke="none" stroke-width="1" fill="none" fill-rule="evenodd">
        <g id="sobre" transform="translate(0.000000, 1.000000)">
            <mask id="mask-2" fill="white">
                <use xlink:href="#path-1"></use>
            </mask>
            <g id="Mask"></g>
            <g id="Faq" mask="url(#mask-2)">
                <path d="M452.115705,338.338243 L452.115705,577.449512 C452.115705,585.433895 445.60213,591.947471 437.617746,591.947471 L51.9510204,591.947471 C43.9666371,591.947471 37.4530612,585.433895 37.4530612,577.449512 L37.4530612,338.338243" id="Path" fill="#FCECD0" fill-rule="nonzero"></path>
                <path d="M452.115705,338.338243 L452.115705,577.449512 C452.115705,585.433895 445.60213,591.947471 437.617746,591.947471 L51.9510204,591.947471 C43.9666371,591.947471 37.4530612,585.433895 37.4530612,577.449512 L37.4530612,338.338243" id="Path"></path>
                <path d="M452.115705,338.338243 L452.115705,577.449512 C452.115705,585.433895 445.60213,591.947471 437.617746,591.947471 L51.9510204,591.947471 C43.9666371,591.947471 37.4530612,585.433895 37.4530612,577.449512 L37.4530612,338.338243 L53.0015972,338.338243 L245.152085,438.878438 L435.516593,338.338243" id="Path"></path>
                <polygon id="Path" fill="#F2C681" fill-rule="nonzero" points="53.0015972 338.338243 245.204614 438.878438 435.569122 338.338243"></polygon>
                <path d="M271.206389,176.70701 L252.190949,124.545874 L252.190949,124.545874 C256.866016,113.88252 259.492458,102.063531 259.492458,89.614197 L259.492458,89.614197 C259.492458,41.5503106 220.51606,2.57391304 172.452174,2.57391304 L108.839752,2.57391304 C60.7758651,2.57391304 21.7994676,41.5503106 21.7994676,89.614197 L21.7994676,89.614197 C21.7994676,137.678083 60.7758651,176.654481 108.839752,176.654481 L172.452174,176.654481 C188.8937,176.654481 204.232121,172.084472 217.36433,164.205146 L271.206389,176.70701 Z" id="Path" fill="#F2F2F2" fill-rule="nonzero"></path>
                <polygon id="Path" fill="#F2C681" fill-rule="nonzero" points="37.4530612 338.338243 249.564508 194.881988 452.115705 338.338243"></polygon>
                <path d="M249.406921,386.82236 L230.391482,334.661224 L230.391482,334.661224 C235.066548,323.99787 237.69299,312.178882 237.69299,299.729547 L237.69299,299.729547 C237.69299,251.665661 198.716593,212.689264 150.652706,212.689264 L87.0402839,212.689264 C38.9763975,212.741792 0,251.665661 0,299.782076 L0,299.782076 C0,347.845963 38.9763975,386.82236 87.0402839,386.82236 L150.652706,386.82236 C167.094232,386.82236 182.432653,382.252351 195.564862,374.373026 L249.406921,386.82236 Z" id="Path" fill="#F2F2F2" fill-rule="nonzero"></path>
                <g id="Group" transform="translate(280.503993, 117.139308)">
                    <circle id="Oval" fill="#F2F2F2" fill-rule="nonzero" cx="108.734694" cy="101.748358" r="101.275599"></circle>
                    <text id="?" fill="#CED2D6" font-family="Helvetica" font-size="65.909561" font-weight="normal">
                        <tspan x="160.727002" y="126.927394">?</tspan>
                    </text>
                    <g transform="translate(46.225377, 40.447205)">
                        <g>
                            <circle id="Oval" fill="#EFA53A" fill-rule="nonzero" transform="translate(59.883957, 67.966149) rotate(-75.321759) translate(-59.883957, -67.966149) " cx="59.883957" cy="67.966149" r="48.8011035"></circle>
                            <line x1="65.5559894" y1="32.4102928" x2="70.5987578" y2="0.367701863" id="Path" stroke="#725F58" stroke-width="4.14914783" stroke-linecap="square"></line>
                        </g>
                        <path d="M105.635492,14.1302573 C105.635492,14.1302573 86.0947649,33.5133984 69.1279503,11.7139308 C69.1804791,11.7139308 85.9897072,-5.41047028 105.635492,14.1302573 Z" id="Path" fill="#2E998E" fill-rule="nonzero"></path>
                    </g>
                    <polygon id="Path" fill="#F2F2F2" fill-rule="nonzero" points="0.420230701 177.862644 45.7526176 175.34126 21.3267081 139.359006"></polygon>
                    <g transform="translate(22.587400, 1.050577)" id="Path" stroke="#212121" stroke-linecap="round" stroke-width="1.87685537">
                        <path d="M86.1472937,201.973381 C123.547826,201.973381 156.220763,181.64472 173.712866,151.493168"></path>
                        <path d="M139.989352,15.7586513 C92.7133984,-14.0777285 30.1515528,0.0525288376 0.315173026,47.3284827"></path>
                    </g>
                </g>
                <g id="Group" transform="translate(57.256433, 233.228039)">
                    <polygon id="Rectangle-Copy-4_3_" fill="#6E4F49" points="26.9472937 30.72937 115.458385 32.4102928 116.14126 83.5733807 22.1671695 83.4157941"></polygon>
                    <polygon id="Path" fill="#8D6E63" points="0.735403727 51.9510204 26.9472937 30.72937 115.458385 32.4102928 95.8125998 51.9510204"></polygon>
                    <polygon id="Rectangle_2_" fill="#8D6E63" points="0.735403727 51.9510204 96.5480035 51.7934339 96.5480035 104.532387 0.420230701 104.532387"></polygon>
                    <polygon id="Rectangle-Copy_9_" fill="#8D6E63" points="95.1297249 52.2661934 115.458385 32.4102928 116.351375 83.8885537 96.5480035 104.532387"></polygon>
                    <polygon id="Rectangle-Copy_4_" fill="#FFFFFF" opacity="0.2" points="102.798935 44.649512 110.25803 37.9258208 110.25803 90.6647737 102.798935 98.5440994"></polygon>
                    <polygon id="Path" fill="#FFFFFF" opacity="0.2" points="110.100444 37.9258208 15.9687666 36.875244 8.56220053 43.7565217 102.956522 44.7545697"></polygon>
                    <line x1="96.5480035" y1="51.7934339" x2="114.985626" y2="32.7779947" id="Path" stroke="#1A1A1A" stroke-width="1.32004969" stroke-linecap="round" stroke-linejoin="round"></line>
                    <line x1="1.6809228" y1="51.9510204" x2="96.5480035" y2="51.7934339" id="Path" stroke="#1A1A1A" stroke-width="1.32004969" stroke-linecap="round" stroke-linejoin="round"></line>
                    <line x1="96.5480035" y1="103.586868" x2="96.5480035" y2="51.7934339" id="Path" stroke="#1A1A1A" stroke-width="1.32004969" stroke-linecap="round" stroke-linejoin="round"></line>
                    <line x1="65.9762201" y1="9.40266193" x2="17.807276" y2="9.40266193" id="Path" stroke="#212121" stroke-width="1.80231695" stroke-linecap="round"></line>
                    <polyline id="Path" stroke="#212121" stroke-width="1.80231695" stroke-linecap="round" points="54.3673469 0.262644188 66.8166815 9.40266193 56.7311446 17.8598048"></polyline>
                    <line x1="104.900089" y1="124.335759" x2="40.6047915" y2="124.335759" id="Path" stroke="#212121" stroke-width="1.80231695" stroke-linecap="round"></line>
                    <polyline id="Path" stroke="#212121" stroke-width="1.80231695" stroke-linecap="round" points="93.2912156 115.195741 105.74055 124.335759 95.6550133 132.792902"></polyline>
                </g>
                <path d="M0,299.782076 C0,347.845963 38.9763975,386.82236 87.0402839,386.82236" id="Path" stroke="#212121" stroke-width="1.87685537" stroke-linecap="round"></path>
                <path d="M237.69299,299.782076 L237.69299,299.782076 C237.69299,251.71819 198.716593,212.741792 150.652706,212.741792 L87.0402839,212.741792" id="Path" stroke="#212121" stroke-width="1.87685537" stroke-linecap="round"></path>
                <path d="M18.3325643,87.355457 C18.3325643,135.419343 57.3089618,174.395741 105.372848,174.395741" id="Path" stroke="#212121" stroke-width="1.87685537" stroke-linecap="round"></path>
                <path d="M256.078083,87.355457 L256.078083,87.355457 C256.078083,39.2915705 217.101686,0.315173026 169.037799,0.315173026 L105.372848,0.315173026" id="Path" stroke="#212121" stroke-width="1.87685537" stroke-linecap="round"></path>
                <line x1="143.036025" y1="147.34339" x2="143.036025" y2="100.014907" id="Path" stroke="#5D4037" stroke-width="6.90843514" stroke-linecap="square"></line>
                <path d="M180.594144,63.8750665 C181.066903,61.6163265 181.382076,59.2525288 181.382076,56.8362023 C181.382076,38.6612245 166.674002,23.95315 148.499024,23.95315 C133.31819,23.95315 120.553682,34.2488021 116.771606,48.2214729 C99.962378,53.4218279 87.7756877,69.0228926 87.7756877,87.5130435 C87.7756877,110.205501 106.21331,128.643123 128.905768,128.643123 C136.890151,128.643123 144.401775,126.331854 150.705235,122.392192 C155.117657,124.598403 160.160426,125.911624 165.465839,125.911624 C183.640816,125.911624 198.348891,111.203549 198.348891,93.0285714 C198.296362,80.3691216 191.099911,69.3380657 180.594144,63.8750665 Z" id="Path" fill="#2E998E" fill-rule="nonzero"></path>
                <path d="M180.594144,63.8750665 C181.066903,61.6163265 181.382076,59.2525288 181.382076,56.8362023 C181.382076,38.6612245 166.674002,23.95315 148.499024,23.95315 C133.31819,23.95315 120.553682,34.2488021 116.771606,48.2214729 C99.962378,53.4218279 87.7756877,69.0228926 87.7756877,87.5130435 C87.7756877,110.205501 106.21331,128.643123 128.905768,128.643123 C136.890151,128.643123 144.401775,126.331854 150.705235,122.392192 C155.117657,124.598403 160.160426,125.911624 165.465839,125.911624 C183.640816,125.911624 198.348891,111.203549 198.348891,93.0285714 C198.296362,80.3691216 191.099911,69.3380657 180.594144,63.8750665 Z" id="Path"></path>
                <path d="M180.594144,63.8750665 C181.066903,61.6163265 181.382076,59.2525288 181.382076,56.8362023 C181.382076,38.6612245 166.674002,23.95315 148.499024,23.95315 C133.31819,23.95315 120.553682,34.2488021 116.771606,48.2214729 C99.962378,53.4218279 87.7756877,69.0228926 87.7756877,87.5130435 C87.7756877,110.205501 106.21331,128.643123 128.905768,128.643123 C136.890151,128.643123 144.401775,126.331854 150.705235,122.392192 C155.117657,124.598403 160.160426,125.911624 165.465839,125.911624 C183.640816,125.911624 198.348891,111.203549 198.348891,93.0285714 C198.296362,80.3691216 191.099911,69.3380657 180.594144,63.8750665 Z" id="Path"></path>
                <circle id="Oval" fill="#F2A75C" fill-rule="nonzero" cx="124.493345" cy="106.686069" r="6.77622005"></circle>
                <circle id="Oval" fill="#F2A75C" fill-rule="nonzero" cx="169.878261" cy="107.579059" r="6.77622005"></circle>
                <circle id="Oval" fill="#F2A75C" fill-rule="nonzero" cx="163.102041" cy="76.3244011" r="6.77622005"></circle>
                <path d="M171.191482,33.0406389 C165.308252,27.4200532 157.323869,23.95315 148.499024,23.95315 C133.31819,23.95315 120.553682,34.2488021 116.771606,48.2214729 C99.962378,53.4218279 87.7756877,69.0228926 87.7756877,87.5130435 C87.7756877,91.2425909 88.300976,94.8670807 89.1939663,98.333984 C98.1763975,99.5421473 109.522626,98.4915705 121.971961,91.2425909 C125.701508,89.0889086 128.590594,88.0383319 135.419343,80.3691216 C142.248092,72.6999113 150.337533,75.1162378 156.588465,71.3866903 C169.405501,63.8225377 172.18953,50.5327418 172.767347,42.9685892 C172.977462,41.1300799 172.662289,37.2954747 171.191482,33.0406389 Z" id="Path" fill="#46A498" fill-rule="nonzero"></path>
                <circle id="Oval" fill="#F2A75C" fill-rule="nonzero" cx="110.993434" cy="74.9586513" r="6.77622005"></circle>
                <circle id="Oval" fill="#F2A75C" fill-rule="nonzero" cx="139.726708" cy="46.3829636" r="6.77622005"></circle>
                <path d="M40.9199645,586.799645 L263.327063,425.378527 L261.856256,423.382431 L39.4491571,584.803549 C39.9219166,585.538953 40.3946761,586.221828 40.9199645,586.799645 Z" id="Path" fill="#F2C681" fill-rule="nonzero"></path>
                <path d="M449.751908,585.066193 L235.224135,427.637267 L233.753327,429.633363 L448.176043,587.062289 C448.75386,586.431943 449.279148,585.801597 449.751908,585.066193 Z" id="Path" fill="#F2C681" fill-rule="nonzero"></path>
            </g>
        </g>
    </g>
</svg>