<?xml version="1.0" encoding="utf-8"?>
<!-- Generator: Adobe Illustrator 25.2.3, SVG Export Plug-In . SVG Version: 6.00 Build 0)  -->
<svg version="1.1" id="Capa_1" xmlns="http://www.w3.org/2000/svg" xmlns:xlink="http://www.w3.org/1999/xlink" x="0px" y="0px"
	 viewBox="0 0 176 176" style="enable-background:new 0 0 176 176;" xml:space="preserve">
<style type="text/css">
	.st0{fill:#F6EFE4;}
	.st1{fill:#EDDBC5;}
	.st2{fill:#FFDAC6;}
	.st3{fill:#333333;}
	.st4{fill:#FFFFFF;}
	.st5{fill:#5D9E9B;}
	.st6{fill:#E59F2C;}
	.st7{fill:#CF8013;}
	.st8{fill:#6D5235;}
	.st9{fill:#5D9A97;}
	.st10{fill:#365B56;}
	.st11{fill:#AB754E;}
	.st12{fill:#93623E;}
	.st13{fill:none;}
	.st14{clip-path:url(#SVGID_2_);fill:#FFDECB;}
	.st15{fill:#FFDECB;}
	.st16{fill:#FAF3E8;}
	.st17{fill:#F1A74A;}
	.st18{fill:none;stroke:#333333;stroke-width:0.7472;stroke-linecap:round;stroke-miterlimit:10;}
	.st19{fill:none;stroke:#333333;stroke-width:2;stroke-linecap:round;stroke-miterlimit:10;}
	.st20{fill:none;stroke:#333333;stroke-width:0.6863;stroke-linecap:round;stroke-miterlimit:10;}
	.st21{clip-path:url(#SVGID_4_);fill:#FFFFFF;}
	.st22{clip-path:url(#SVGID_4_);fill:#5D9E9B;}
	.st23{clip-path:url(#SVGID_6_);}
	.st24{fill:none;stroke:#5D9E9B;stroke-linecap:round;stroke-miterlimit:10;}
	.st25{fill:#CE7A15;}
	.st26{fill:#EAA42C;}
	.st27{fill:#FFDC6F;}
	.st28{fill:none;stroke:#5D9E9B;stroke-width:2.2394;stroke-linecap:round;stroke-miterlimit:10;}
	.st29{fill:#F3E4D1;}
	.st30{fill:#BCD6D4;}
	.st31{fill:#E6A02C;}
	.st32{fill:#468080;}
	.st33{clip-path:url(#SVGID_18_);}
	.st34{fill:#FFD86F;}
	.st35{clip-path:url(#SVGID_28_);}
	.st36{clip-path:url(#SVGID_32_);}
	.st37{clip-path:url(#SVGID_36_);}
	.st38{clip-path:url(#SVGID_40_);}
	.st39{fill:none;stroke:#FFFFFF;stroke-width:2;stroke-miterlimit:10;}
	.st40{fill:#DDE8E7;}
	.st41{fill:#FFEAB0;}
	.st42{fill:#7C7C7C;}
	.st43{fill:#3A3A3A;}
	.st44{fill:#444444;}
	.st45{fill:#F7B82B;}
	.st46{fill:#E9A32C;}
	.st47{fill:#D38013;}
	.st48{fill:#915B36;}
	.st49{fill:#AF754E;}
	.st50{fill:#E0BA94;}
	.st51{fill:none;stroke:#0C0C0C;stroke-miterlimit:10;}
	.st52{fill:#5B997A;}
	.st53{fill:#D6852D;}
	.st54{fill:none;stroke:#D6852D;stroke-miterlimit:10;}
	.st55{clip-path:url(#SVGID_44_);fill:#FFDC6F;}
	.st56{fill:none;stroke:#5D9E9B;stroke-width:0.8735;stroke-linecap:round;stroke-miterlimit:10;}
	.st57{fill:none;stroke:#FFFFFF;stroke-width:3;stroke-linecap:round;stroke-miterlimit:10;}
	.st58{fill:none;stroke:#5D9E9B;stroke-width:2.2394;stroke-linecap:round;stroke-linejoin:round;stroke-miterlimit:10;}
	.st59{clip-path:url(#SVGID_46_);fill:#E59F2C;}
	.st60{clip-path:url(#SVGID_46_);fill:none;stroke:#5D9E9B;stroke-width:2.2394;stroke-linecap:round;stroke-miterlimit:10;}
	.st61{fill:none;stroke:#5D4037;stroke-width:4.0297;stroke-linecap:round;stroke-miterlimit:10;}
	.st62{fill:#AFB9B8;}
	.st63{fill:#728080;}
	.st64{fill:#637572;}
	.st65{clip-path:url(#SVGID_48_);fill:none;stroke:#5D9E9B;stroke-width:2.2394;stroke-linecap:round;stroke-miterlimit:10;}
	.st66{fill:none;stroke:#5D9E9B;stroke-width:2.2394;stroke-linecap:round;stroke-miterlimit:10;stroke-dasharray:10.7308,10.7308;}
	.st67{clip-path:url(#SVGID_50_);}
	.st68{fill:none;stroke:#333333;stroke-width:1.8066;stroke-linecap:round;stroke-miterlimit:10;}
	.st69{clip-path:url(#SVGID_54_);}
	.st70{fill:none;stroke:#6CBCB6;stroke-width:2;stroke-miterlimit:10;}
	.st71{fill:#FFD255;}
	.st72{fill:#FCCDAC;}
	.st73{fill:none;stroke:#467C75;stroke-width:1.3913;stroke-miterlimit:10;}
	.st74{fill:#222222;}
	.st75{fill:#E59945;}
	.st76{fill:none;stroke:#333333;stroke-linecap:round;stroke-miterlimit:10;}
	.st77{fill:none;stroke:#222222;stroke-width:3;stroke-linecap:round;stroke-miterlimit:10;}
	.st78{fill:#5D9D9A;}
	.st79{fill:none;stroke:#333333;stroke-width:0.9054;stroke-linecap:round;stroke-miterlimit:10;}
	.st80{fill:#467C75;}
	.st81{fill:none;stroke:#333333;stroke-width:0.9913;stroke-linecap:round;stroke-miterlimit:10;}
	.st82{fill:#E8991B;}
	.st83{clip-path:url(#SVGID_58_);}
	.st84{clip-path:url(#SVGID_60_);}
	.st85{fill:none;stroke:#333333;stroke-width:0.8927;stroke-linecap:round;stroke-miterlimit:10;}
	.st86{clip-path:url(#SVGID_62_);fill:#FFDECB;}
	.st87{fill:none;stroke:#3B706D;stroke-width:2;stroke-miterlimit:10;}
	.st88{fill:none;stroke:#3B706D;stroke-width:1.5478;stroke-miterlimit:10;}
	.st89{clip-path:url(#SVGID_64_);fill:none;stroke:#3B706D;stroke-width:2;stroke-miterlimit:10;}
	.st90{fill:none;stroke:#BB8A69;stroke-width:1.6306;stroke-miterlimit:10;}
	.st91{fill:#3B706D;}
	.st92{fill:#BB8A69;}
	.st93{clip-path:url(#SVGID_66_);}
	.st94{clip-path:url(#SVGID_68_);}
	.st95{clip-path:url(#SVGID_70_);fill:#3B706D;}
	.st96{fill:none;stroke:#3B706D;stroke-width:1.7061;stroke-miterlimit:10;}
	.st97{fill:none;stroke:#3B706D;stroke-width:1.3204;stroke-miterlimit:10;}
	.st98{fill:none;stroke:#BB8A69;stroke-width:1.391;stroke-miterlimit:10;}
	.st99{fill:none;stroke:#333333;stroke-width:1.5388;stroke-linecap:round;stroke-miterlimit:10;}
	.st100{fill:none;stroke:#333333;stroke-width:1.3767;stroke-linecap:round;stroke-miterlimit:10;}
	.st101{fill:none;stroke:#333333;stroke-width:4.1302;stroke-linecap:round;stroke-miterlimit:10;}
	.st102{fill:none;stroke:#333333;stroke-width:1.2465;stroke-linecap:round;stroke-miterlimit:10;}
	.st103{fill:none;stroke:#333333;stroke-width:1.1783;stroke-linecap:round;stroke-miterlimit:10;}
	.st104{fill:none;stroke:#333333;stroke-width:1.1885;stroke-linecap:round;stroke-miterlimit:10;}
	.st105{fill:none;stroke:#FFFFFF;stroke-width:1.2465;stroke-linecap:round;stroke-miterlimit:10;}
	.st106{clip-path:url(#SVGID_72_);fill:none;stroke:#3B706D;stroke-width:1.7061;stroke-miterlimit:10;}
	.st107{clip-path:url(#SVGID_74_);fill:#FFFFFF;}
	.st108{clip-path:url(#SVGID_74_);fill:#5D9E9B;}
	.st109{fill:none;stroke:#333333;stroke-width:0.9144;stroke-miterlimit:10;}
	.st110{fill:none;stroke:#3B706D;stroke-width:1.4819;stroke-miterlimit:10;}
	.st111{fill:none;stroke:#BB8A69;stroke-width:1.1897;stroke-miterlimit:10;}
	.st112{clip-path:url(#SVGID_76_);}
	.st113{clip-path:url(#SVGID_78_);fill:#3B706D;}
	.st114{clip-path:url(#SVGID_80_);fill:none;stroke:#3B706D;stroke-width:1.444;stroke-miterlimit:10;}
	.st115{fill:none;stroke:#CF8013;stroke-width:0.5;stroke-linecap:round;stroke-miterlimit:10;}
	.st116{fill:none;stroke:#3B706D;stroke-width:1.5476;stroke-miterlimit:10;}
	.st117{fill:none;stroke:#BB8A69;stroke-width:1.2425;stroke-miterlimit:10;}
	.st118{clip-path:url(#SVGID_82_);}
	.st119{clip-path:url(#SVGID_84_);fill:none;stroke:#3B706D;stroke-width:1.5081;stroke-miterlimit:10;}
	.st120{fill:none;stroke:#CF8013;stroke-width:0.5222;stroke-linecap:round;stroke-miterlimit:10;}
	.st121{fill:none;stroke:#FFDC6F;stroke-linejoin:round;stroke-miterlimit:10;}
	.st122{fill:none;stroke:#333333;stroke-width:0.75;stroke-linecap:round;stroke-miterlimit:10;}
	.st123{clip-path:url(#SVGID_86_);}
	.st124{clip-path:url(#SVGID_88_);fill:none;stroke:#333333;stroke-width:0.56;stroke-linecap:round;stroke-miterlimit:10;}
	.st125{clip-path:url(#SVGID_88_);fill:#FFDC6F;}
	.st126{fill:none;stroke:#EAA42C;stroke-width:1.5;stroke-linecap:round;stroke-miterlimit:10;}
	.st127{fill:none;stroke:#333333;stroke-width:0.56;stroke-linecap:round;stroke-miterlimit:10;}
	.st128{clip-path:url(#SVGID_90_);fill:none;stroke:#5D9E9B;stroke-linecap:round;stroke-miterlimit:10;}
	.st129{clip-path:url(#SVGID_90_);fill:none;stroke:#EAA42C;stroke-miterlimit:10;}
	.st130{clip-path:url(#SVGID_90_);fill:#EAA42C;}
	.st131{clip-path:url(#SVGID_92_);fill:#5D9A97;}
	.st132{fill:none;stroke:#EAA42C;stroke-miterlimit:10;}
	.st133{clip-path:url(#SVGID_94_);}
	.st134{clip-path:url(#SVGID_96_);}
	.st135{fill:none;stroke:#333333;stroke-width:1.4796;stroke-linecap:round;stroke-miterlimit:10;}
	.st136{fill:none;stroke:#222222;stroke-width:4.4389;stroke-linecap:round;stroke-miterlimit:10;}
	.st137{fill:none;stroke:#333333;stroke-width:1.3397;stroke-linecap:round;stroke-miterlimit:10;}
	.st138{clip-path:url(#SVGID_98_);fill:#F4E7D4;}
	.st139{clip-path:url(#SVGID_100_);fill:none;stroke:#333333;stroke-width:1.3397;stroke-linecap:round;stroke-miterlimit:10;}
	.st140{fill:none;stroke:#467C75;stroke-width:2.0585;stroke-miterlimit:10;}
	.st141{clip-path:url(#SVGID_102_);fill:#FCCDAC;}
	.st142{clip-path:url(#SVGID_104_);}
	.st143{clip-path:url(#SVGID_106_);fill:none;stroke:#3B706D;stroke-width:1.5081;stroke-miterlimit:10;}
	.st144{fill:#FF0303;}
	.st145{fill:#F4E7D4;}
</style>
<g>
	<g>
		<circle class="st0" cx="88" cy="88" r="88"/>
	</g>
</g>
<g>
	<path class="st1" d="M51,28v69.9H32.1V55.8c0-2,0.1-4,0.2-5.9c-0.6,0.3-1.4,0.6-2.1,1.1l-8.7,4.5l-7.1-13.2L37.3,28H51z"/>
</g>
<g>
	<g>
		<path class="st2" d="M25.1,71.6c0,0,16.6,64.1,48.3,41.4L92.7,135c0,0-53.2,40.1-74.9-19.3c-4-10.9-8.3-24.6-11-40.5"/>
	</g>
	<g>
		<path class="st2" d="M20.7,61.4c1.3-0.2,2.6,0.6,2.8,1.8l2.8,14.1L20.7,78l-2.1-14C18.4,62.7,19.3,61.6,20.7,61.4z"/>
	</g>
	<g>
		<path class="st2" d="M14.8,61.6c1.3-0.5,2.8,0.2,3.2,1.5l5.1,14.3l-4.8,1.7l-5.1-14.3C12.8,63.6,13.4,62.1,14.8,61.6z"/>
	</g>
	<g>
		<path class="st2" d="M10.3,63.6c1.3-0.4,2.6,0.2,3.1,1.5l4.9,13.6l-5.3,1.9L8.8,66.6C8.4,65.4,9,64,10.3,63.6z"/>
	</g>
	<g>
		<path class="st2" d="M7.3,68.7c1.2-0.3,2.4,0.4,2.7,1.5L13.5,83l-4.2,1.7L5.7,71.4C5.4,70.2,6.1,69,7.3,68.7z"/>
	</g>
	<g>
		<path class="st3" d="M21,76.6c-0.2,0-0.3-0.1-0.4-0.3l-2.6-12.7c0-0.2,0.1-0.4,0.3-0.4c0.2,0,0.4,0.1,0.4,0.3l2.6,12.7
			C21.4,76.4,21.3,76.6,21,76.6C21.1,76.6,21.1,76.6,21,76.6z"/>
	</g>
	<g>
		<path class="st3" d="M16.3,78.1c-0.2,0-0.3-0.1-0.4-0.3L12.9,65c0-0.2,0.1-0.4,0.3-0.5c0.2,0,0.4,0.1,0.5,0.3l3.1,12.8
			C16.7,77.8,16.6,78,16.3,78.1C16.4,78.1,16.3,78.1,16.3,78.1z"/>
	</g>
	<g>
		<path class="st3" d="M12.1,79.8c-0.2,0-0.3-0.1-0.4-0.3l-2.5-9.9c0-0.2,0.1-0.4,0.3-0.5c0.2-0.1,0.4,0.1,0.5,0.3l2.5,9.9
			C12.5,79.6,12.4,79.8,12.1,79.8C12.2,79.8,12.2,79.8,12.1,79.8z"/>
	</g>
	<g>
		<path class="st2" d="M30.7,70.3c1.3,0.1,1.6,1.2,1.8,2.4c0.8,5-0.4,18.7-0.4,18.7l-5.7-8.7l1.9-9.7C28.8,71.1,29.2,70.2,30.7,70.3
			z"/>
	</g>
</g>
<g>
	<path class="st4" d="M88,176c37.9,0,70.3-24,82.6-57.7c-13.4-17.1-40.6-19.5-40.6-19.5c-3.9,5.3-10.4,6.2-14.3,6
		c-7-0.2-11.8-5.8-11.8-5.8c-27,5.7-48.7,15.6-48.7,15.6l1,37.7l22.9-2.5l-2.2,25.4C80.6,175.8,84.3,176,88,176z"/>
</g>
<g>
	<polygon class="st3" points="124.8,93.2 147.6,93.2 140.3,52.8 123.9,49.5 	"/>
</g>
<g>
	<polyline class="st3" points="104,93.2 85,93.2 91.5,50.6 	"/>
</g>
<g>
	<path class="st15" d="M92.4,54.4c0,0-3.5,29.7,8,35.6c5.8,3,4,12.1,4,12.1c11.9,6.5,25.6-0.9,25.6-0.9L126.8,56
		c0,0-1.2-6.5-20.1-9.6C106.7,46.3,93.5,46,92.4,54.4"/>
</g>
<g>
	<circle class="st3" cx="97.6" cy="62.7" r="1.6"/>
</g>
<g>
	<circle class="st3" cx="114.7" cy="62.7" r="1.6"/>
</g>
<g>
	<path class="st15" d="M132.2,63.1c3.4,0,6.1,2.7,6.1,6.1s-2.7,6.1-6.1,6.1"/>
</g>
<g>
	<path class="st3" d="M94.1,61.6c-0.2,0-0.4-0.1-0.6-0.2c-0.4-0.3-0.6-0.9-0.2-1.4c0.1-0.1,1.4-2,3.8-2.3c1.6-0.2,3.2,0.4,4.8,1.8
		c0.4,0.4,0.5,1,0.1,1.4c-0.4,0.4-1,0.5-1.4,0.1c-1.1-1-2.2-1.4-3.3-1.3c-1.5,0.2-2.4,1.4-2.4,1.5C94.7,61.4,94.4,61.6,94.1,61.6z"
		/>
</g>
<g>
	<path class="st3" d="M110.9,61.6c-0.2,0-0.4-0.1-0.6-0.2c-0.4-0.3-0.6-0.9-0.2-1.4c0.1-0.1,1.4-2,3.8-2.3c1.6-0.2,3.2,0.4,4.8,1.8
		c0.4,0.4,0.5,1,0.1,1.4c-0.4,0.4-1,0.5-1.4,0.1c-1.1-1-2.2-1.4-3.3-1.3c-1.5,0.2-2.4,1.4-2.4,1.5C111.5,61.4,111.2,61.6,110.9,61.6
		z"/>
</g>
<g>
	<path class="st3" d="M105.5,73.2c-1.5,0-2.5-0.3-3-1c-0.5-0.7-0.3-1.4-0.3-1.4l2.3-10.3c0-0.2,0.2-0.3,0.4-0.3
		c0.2,0,0.3,0.2,0.3,0.4L102.9,71c0,0-0.1,0.4,0.2,0.8c0.2,0.3,0.9,0.7,2.4,0.7c0.2,0,0.4,0.2,0.4,0.4S105.7,73.2,105.5,73.2z"/>
</g>
<g>
	<path class="st3" d="M107,78.2c-1.5,0-2.8-1.1-2.9-2.6c0-0.2,0.1-0.4,0.3-0.4c0.2,0,0.4,0.1,0.4,0.3c0.1,1.1,1.2,2,2.4,1.9
		c1.2-0.1,2.2-1,2.1-2.2c0-0.2,0.1-0.4,0.3-0.4c0.2,0,0.4,0.1,0.4,0.3c0.1,1.5-1.2,2.8-2.8,2.9C107.1,78.2,107,78.2,107,78.2z"/>
</g>
<g>
	<path class="st3" d="M106.7,46.3c0,0,10.2,13.9,22.6,15l0.8-10.7L106.7,46.3z"/>
</g>
<g>
	<path class="st3" d="M104.7,46.3c0,0-2.1,11.7-14.5,12.8l1.5-10.4L104.7,46.3z"/>
</g>
<g>
	<path class="st5" d="M91.7,43.5c0,0,1.2-12.4,24.1-12.6c0,0,23.8,0.4,25.2,14.4v9.8l-50.3-6.9L91.7,43.5z"/>
</g>
<g>
	<polygon class="st5" points="87.4,102.3 85.8,149.1 97,149.1 97,99.8 	"/>
</g>
<g>
	<polygon class="st5" points="149,102.3 150.6,149.1 139.4,149.1 139.4,99.8 	"/>
</g>
<g>
	<path class="st5" d="M131.7,53.9c0,0-30.5-13.5-46.5-11.8s-15.8,5.8-15.8,5.8s-1.6,6,11.6,6C96.2,53.8,131.7,53.9,131.7,53.9z"/>
</g>
<g>
	<path class="st17" d="M97.2,68.5l-3,0c-0.8,0-1.5-0.7-1.5-1.5v0c0-0.8,0.7-1.5,1.5-1.5l3,0c0.8,0,1.5,0.7,1.5,1.5l0,0
		C98.7,67.8,98,68.5,97.2,68.5z"/>
</g>
<g>
	<path class="st17" d="M119.6,68.5l-3,0c-0.8,0-1.5-0.7-1.5-1.5v0c0-0.8,0.7-1.5,1.5-1.5l3,0c0.8,0,1.5,0.7,1.5,1.5l0,0
		C121.1,67.8,120.4,68.5,119.6,68.5z"/>
</g>
<g>
	<path class="st144" d="M600.8,183.6H-17.5V-14h618.3V183.6z M-16.3,183.1h615.9V-13.5H-16.3V183.1z"/>
</g>
<g>
	<path class="st5" d="M149.9,129l-63.3-1.6l-2.7,48.5c1.4,0.1,2.7,0.1,4.1,0.1c25.2,0,47.9-10.6,64-27.6
		C149.4,138.9,149.9,129,149.9,129z"/>
</g>
</svg>
