<?xml version="1.0" encoding="utf-8"?>
<!-- Generator: Adobe Illustrator 25.2.3, SVG Export Plug-In . SVG Version: 6.00 Build 0)  -->
<svg version="1.1" id="Capa_1" xmlns="http://www.w3.org/2000/svg" xmlns:xlink="http://www.w3.org/1999/xlink" x="0px" y="0px"
	 viewBox="0 0 176 176" style="enable-background:new 0 0 176 176;" xml:space="preserve">
<style type="text/css">
	.st0{fill:#F6EFE4;}
	.st1{fill:#EDDBC5;}
	.st2{fill:#FFDAC6;}
	.st3{fill:#333333;}
	.st4{fill:#FFFFFF;}
	.st5{fill:#5D9E9B;}
	.st6{fill:#E59F2C;}
	.st7{fill:#CF8013;}
	.st8{fill:#6D5235;}
	.st9{fill:#5D9A97;}
	.st10{fill:#365B56;}
	.st11{fill:#AB754E;}
	.st12{fill:#93623E;}
	.st13{fill:none;}
	.st14{clip-path:url(#SVGID_2_);fill:#FFDECB;}
	.st15{fill:#FFDECB;}
	.st16{fill:#FAF3E8;}
	.st17{fill:#F1A74A;}
	.st18{fill:none;stroke:#333333;stroke-width:0.7472;stroke-linecap:round;stroke-miterlimit:10;}
	.st19{fill:none;stroke:#333333;stroke-width:2;stroke-linecap:round;stroke-miterlimit:10;}
	.st20{fill:none;stroke:#333333;stroke-width:0.6863;stroke-linecap:round;stroke-miterlimit:10;}
	.st21{clip-path:url(#SVGID_4_);fill:#FFFFFF;}
	.st22{clip-path:url(#SVGID_4_);fill:#5D9E9B;}
	.st23{clip-path:url(#SVGID_6_);}
	.st24{fill:none;stroke:#5D9E9B;stroke-linecap:round;stroke-miterlimit:10;}
	.st25{fill:#CE7A15;}
	.st26{fill:#EAA42C;}
	.st27{fill:#FFDC6F;}
	.st28{fill:none;stroke:#5D9E9B;stroke-width:2.2394;stroke-linecap:round;stroke-miterlimit:10;}
	.st29{fill:#F3E4D1;}
	.st30{fill:#BCD6D4;}
	.st31{fill:#E6A02C;}
	.st32{fill:#468080;}
	.st33{clip-path:url(#SVGID_18_);}
	.st34{fill:#FFD86F;}
	.st35{clip-path:url(#SVGID_28_);}
	.st36{clip-path:url(#SVGID_32_);}
	.st37{clip-path:url(#SVGID_36_);}
	.st38{clip-path:url(#SVGID_40_);}
	.st39{fill:none;stroke:#FFFFFF;stroke-width:2;stroke-miterlimit:10;}
	.st40{fill:#DDE8E7;}
	.st41{fill:#FFEAB0;}
	.st42{fill:#7C7C7C;}
	.st43{fill:#3A3A3A;}
	.st44{fill:#444444;}
	.st45{fill:#F7B82B;}
	.st46{fill:#E9A32C;}
	.st47{fill:#D38013;}
	.st48{fill:#915B36;}
	.st49{fill:#AF754E;}
	.st50{fill:#E0BA94;}
	.st51{fill:none;stroke:#0C0C0C;stroke-miterlimit:10;}
	.st52{fill:#5B997A;}
	.st53{fill:#D6852D;}
	.st54{fill:none;stroke:#D6852D;stroke-miterlimit:10;}
	.st55{clip-path:url(#SVGID_44_);fill:#FFDC6F;}
	.st56{fill:none;stroke:#5D9E9B;stroke-width:0.8735;stroke-linecap:round;stroke-miterlimit:10;}
	.st57{fill:none;stroke:#FFFFFF;stroke-width:3;stroke-linecap:round;stroke-miterlimit:10;}
	.st58{fill:none;stroke:#5D9E9B;stroke-width:2.2394;stroke-linecap:round;stroke-linejoin:round;stroke-miterlimit:10;}
	.st59{clip-path:url(#SVGID_46_);fill:#E59F2C;}
	.st60{clip-path:url(#SVGID_46_);fill:none;stroke:#5D9E9B;stroke-width:2.2394;stroke-linecap:round;stroke-miterlimit:10;}
	.st61{fill:none;stroke:#5D4037;stroke-width:4.0297;stroke-linecap:round;stroke-miterlimit:10;}
	.st62{fill:#AFB9B8;}
	.st63{fill:#728080;}
	.st64{fill:#637572;}
	.st65{clip-path:url(#SVGID_48_);fill:none;stroke:#5D9E9B;stroke-width:2.2394;stroke-linecap:round;stroke-miterlimit:10;}
	.st66{fill:none;stroke:#5D9E9B;stroke-width:2.2394;stroke-linecap:round;stroke-miterlimit:10;stroke-dasharray:10.7308,10.7308;}
	.st67{clip-path:url(#SVGID_50_);}
	.st68{fill:none;stroke:#333333;stroke-width:1.8066;stroke-linecap:round;stroke-miterlimit:10;}
	.st69{clip-path:url(#SVGID_54_);}
	.st70{fill:none;stroke:#6CBCB6;stroke-width:2;stroke-miterlimit:10;}
	.st71{fill:#FFD255;}
	.st72{fill:#FCCDAC;}
	.st73{fill:none;stroke:#467C75;stroke-width:1.3913;stroke-miterlimit:10;}
	.st74{fill:#222222;}
	.st75{fill:#E59945;}
	.st76{fill:none;stroke:#333333;stroke-linecap:round;stroke-miterlimit:10;}
	.st77{fill:none;stroke:#222222;stroke-width:3;stroke-linecap:round;stroke-miterlimit:10;}
	.st78{fill:#5D9D9A;}
	.st79{fill:none;stroke:#333333;stroke-width:0.9054;stroke-linecap:round;stroke-miterlimit:10;}
	.st80{fill:#467C75;}
	.st81{fill:none;stroke:#333333;stroke-width:0.9913;stroke-linecap:round;stroke-miterlimit:10;}
	.st82{fill:#E8991B;}
	.st83{clip-path:url(#SVGID_58_);}
	.st84{clip-path:url(#SVGID_60_);}
	.st85{fill:none;stroke:#333333;stroke-width:0.8927;stroke-linecap:round;stroke-miterlimit:10;}
	.st86{clip-path:url(#SVGID_62_);fill:#FFDECB;}
	.st87{fill:none;stroke:#3B706D;stroke-width:2;stroke-miterlimit:10;}
	.st88{fill:none;stroke:#3B706D;stroke-width:1.5478;stroke-miterlimit:10;}
	.st89{clip-path:url(#SVGID_64_);fill:none;stroke:#3B706D;stroke-width:2;stroke-miterlimit:10;}
	.st90{fill:none;stroke:#BB8A69;stroke-width:1.6306;stroke-miterlimit:10;}
	.st91{fill:#3B706D;}
	.st92{fill:#BB8A69;}
	.st93{clip-path:url(#SVGID_66_);}
	.st94{clip-path:url(#SVGID_68_);}
	.st95{clip-path:url(#SVGID_70_);fill:#3B706D;}
	.st96{fill:none;stroke:#3B706D;stroke-width:1.7061;stroke-miterlimit:10;}
	.st97{fill:none;stroke:#3B706D;stroke-width:1.3204;stroke-miterlimit:10;}
	.st98{fill:none;stroke:#BB8A69;stroke-width:1.391;stroke-miterlimit:10;}
	.st99{fill:none;stroke:#333333;stroke-width:1.5388;stroke-linecap:round;stroke-miterlimit:10;}
	.st100{fill:none;stroke:#333333;stroke-width:1.3767;stroke-linecap:round;stroke-miterlimit:10;}
	.st101{fill:none;stroke:#333333;stroke-width:4.1302;stroke-linecap:round;stroke-miterlimit:10;}
	.st102{fill:none;stroke:#333333;stroke-width:1.2465;stroke-linecap:round;stroke-miterlimit:10;}
	.st103{fill:none;stroke:#333333;stroke-width:1.1783;stroke-linecap:round;stroke-miterlimit:10;}
	.st104{fill:none;stroke:#333333;stroke-width:1.1885;stroke-linecap:round;stroke-miterlimit:10;}
	.st105{fill:none;stroke:#FFFFFF;stroke-width:1.2465;stroke-linecap:round;stroke-miterlimit:10;}
	.st106{clip-path:url(#SVGID_72_);fill:none;stroke:#3B706D;stroke-width:1.7061;stroke-miterlimit:10;}
	.st107{clip-path:url(#SVGID_74_);fill:#FFFFFF;}
	.st108{clip-path:url(#SVGID_74_);fill:#5D9E9B;}
	.st109{fill:none;stroke:#333333;stroke-width:0.9144;stroke-miterlimit:10;}
	.st110{fill:none;stroke:#3B706D;stroke-width:1.4819;stroke-miterlimit:10;}
	.st111{fill:none;stroke:#BB8A69;stroke-width:1.1897;stroke-miterlimit:10;}
	.st112{clip-path:url(#SVGID_76_);}
	.st113{clip-path:url(#SVGID_78_);fill:#3B706D;}
	.st114{clip-path:url(#SVGID_80_);fill:none;stroke:#3B706D;stroke-width:1.444;stroke-miterlimit:10;}
	.st115{fill:none;stroke:#CF8013;stroke-width:0.5;stroke-linecap:round;stroke-miterlimit:10;}
	.st116{fill:none;stroke:#3B706D;stroke-width:1.5476;stroke-miterlimit:10;}
	.st117{fill:none;stroke:#BB8A69;stroke-width:1.2425;stroke-miterlimit:10;}
	.st118{clip-path:url(#SVGID_82_);}
	.st119{clip-path:url(#SVGID_84_);fill:none;stroke:#3B706D;stroke-width:1.5081;stroke-miterlimit:10;}
	.st120{fill:none;stroke:#CF8013;stroke-width:0.5222;stroke-linecap:round;stroke-miterlimit:10;}
	.st121{fill:none;stroke:#FFDC6F;stroke-linejoin:round;stroke-miterlimit:10;}
	.st122{fill:none;stroke:#333333;stroke-width:0.75;stroke-linecap:round;stroke-miterlimit:10;}
	.st123{clip-path:url(#SVGID_86_);}
	.st124{clip-path:url(#SVGID_88_);fill:none;stroke:#333333;stroke-width:0.56;stroke-linecap:round;stroke-miterlimit:10;}
	.st125{clip-path:url(#SVGID_88_);fill:#FFDC6F;}
	.st126{fill:none;stroke:#EAA42C;stroke-width:1.5;stroke-linecap:round;stroke-miterlimit:10;}
	.st127{fill:none;stroke:#333333;stroke-width:0.56;stroke-linecap:round;stroke-miterlimit:10;}
	.st128{clip-path:url(#SVGID_90_);fill:none;stroke:#5D9E9B;stroke-linecap:round;stroke-miterlimit:10;}
	.st129{clip-path:url(#SVGID_90_);fill:none;stroke:#EAA42C;stroke-miterlimit:10;}
	.st130{clip-path:url(#SVGID_90_);fill:#EAA42C;}
	.st131{clip-path:url(#SVGID_92_);fill:#5D9A97;}
	.st132{fill:none;stroke:#EAA42C;stroke-miterlimit:10;}
	.st133{clip-path:url(#SVGID_94_);}
	.st134{clip-path:url(#SVGID_96_);}
	.st135{fill:none;stroke:#333333;stroke-width:1.4796;stroke-linecap:round;stroke-miterlimit:10;}
	.st136{fill:none;stroke:#222222;stroke-width:4.4389;stroke-linecap:round;stroke-miterlimit:10;}
	.st137{fill:none;stroke:#333333;stroke-width:1.3397;stroke-linecap:round;stroke-miterlimit:10;}
	.st138{clip-path:url(#SVGID_98_);fill:#F4E7D4;}
	.st139{clip-path:url(#SVGID_100_);fill:none;stroke:#333333;stroke-width:1.3397;stroke-linecap:round;stroke-miterlimit:10;}
	.st140{fill:none;stroke:#467C75;stroke-width:2.0585;stroke-miterlimit:10;}
	.st141{clip-path:url(#SVGID_102_);fill:#FCCDAC;}
	.st142{clip-path:url(#SVGID_104_);}
	.st143{clip-path:url(#SVGID_106_);fill:none;stroke:#3B706D;stroke-width:1.5081;stroke-miterlimit:10;}
	.st144{fill:#FF0303;}
	.st145{fill:#F4E7D4;}
</style>
<g>
	<g>
		<circle class="st0" cx="88" cy="88" r="88"/>
	</g>
</g>
<g>
	<g>
		<path class="st1" d="M15.4,89.3l9.3-11.6c4,3.7,8.4,6.1,14.8,6.1c6.3,0,10.3-3.1,10.3-7.4c0-4.7-4.4-7-9.8-7h-9.5V55.2h7.6
			c6.2,0,9.7-3.1,9.7-6.9c0-3.6-3.3-6.2-8.2-6.2c-5.4,0-9.4,2-13.4,6l-9.8-9.6c8.4-9.4,16.2-11.9,25.8-11.9c13.7,0,23.5,8.1,23.5,19
			c0,6.2-3.3,12-9.1,15.3c8,3.7,12,9.8,12,17.5c0,12.2-11.5,21.1-27.7,21.1C31.3,99.5,22.9,95.9,15.4,89.3z"/>
	</g>
	<g>
		<g>
			<g>
				<g>
					<g>
						<g>
							
								<ellipse transform="matrix(0.3616 -0.9323 0.9323 0.3616 -34.9134 116.6152)" class="st6" cx="67.7" cy="83.8" rx="16.4" ry="17.3"/>
						</g>
					</g>
				</g>
				<g>
					<g>
						<g>
							
								<ellipse transform="matrix(0.3616 -0.9323 0.9323 0.3616 -20.9875 122.7516)" class="st7" cx="79.1" cy="76.7" rx="0.6" ry="0.6"/>
						</g>
					</g>
				</g>
				<g>
					<g>
						<g>
							
								<ellipse transform="matrix(0.3616 -0.9323 0.9323 0.3616 -22.7473 127.5111)" class="st7" cx="81.7" cy="80.4" rx="0.6" ry="0.6"/>
						</g>
					</g>
				</g>
				<g>
					<g>
						<g>
							
								<ellipse transform="matrix(0.3616 -0.9323 0.9323 0.3616 -25.0462 123.8734)" class="st7" cx="77.9" cy="80.2" rx="0.6" ry="0.6"/>
						</g>
					</g>
				</g>
				<g>
					<g>
						<g>
							
								<ellipse transform="matrix(0.3616 -0.9323 0.9323 0.3616 -23.6257 118.5769)" class="st7" cx="74.8" cy="76.5" rx="0.6" ry="0.6"/>
						</g>
					</g>
				</g>
				<g>
					<g>
						<g>
							
								<ellipse transform="matrix(0.3616 -0.9323 0.9323 0.3616 -27.4502 120.0691)" class="st7" cx="74" cy="80.1" rx="0.6" ry="0.6"/>
						</g>
					</g>
				</g>
				<g>
					<g>
						<g>
							
								<ellipse transform="matrix(0.3616 -0.9323 0.9323 0.3616 -26.7416 130.9904)" class="st7" cx="82.3" cy="85" rx="0.6" ry="0.6"/>
						</g>
					</g>
				</g>
				<g>
					<g>
						<g>
							
								<ellipse transform="matrix(0.3616 -0.9323 0.9323 0.3616 -29.3956 126.7907)" class="st7" cx="77.9" cy="84.9" rx="0.6" ry="0.6"/>
						</g>
					</g>
				</g>
				<g>
					<g>
						<g>
							
								<ellipse transform="matrix(0.3616 -0.9323 0.9323 0.3616 -31.7154 131.9258)" class="st7" cx="80.5" cy="89.1" rx="0.6" ry="0.6"/>
						</g>
					</g>
				</g>
				<g>
					<g>
						<g>
							<path class="st8" d="M67.8,69.2c-0.6,0-1.2-0.2-1.1-0.6c0-0.1,0-0.2,0.1-0.2c0.2-0.2,0.6-0.3,1-0.3c0.6,0,1.2,0.2,1.1,0.6
								c0,0.1,0,0.2-0.1,0.2C68.8,69,68.7,69,68.6,69C68.4,69.1,68.1,69.2,67.8,69.2z M66.9,68.5C66.9,68.5,66.9,68.5,66.9,68.5
								L66.9,68.5c-0.1,0.2,0.3,0.4,0.9,0.5c0.4,0,0.8-0.1,0.9-0.2c0,0,0-0.1,0-0.1c0-0.1-0.4-0.3-0.9-0.4c-0.3,0-0.6,0-0.7,0.1
								C67,68.4,67,68.4,66.9,68.5z"/>
						</g>
					</g>
				</g>
			</g>
			<g>
				<g>
					<g>
						<path class="st9" d="M67.6,63.7c10.4-8,20-0.1,20-0.1S78,72.2,67.6,63.7z"/>
					</g>
				</g>
			</g>
		</g>
		<g>
			<g>
				<polygon class="st10" points="67.6,68.6 67.5,59.2 67.9,59.2 68,68.6 				"/>
			</g>
		</g>
	</g>
	<g>
		<g>
			<g>
				<g>
					<g>
						<g>
							
								<ellipse transform="matrix(0.3616 -0.9323 0.9323 0.3616 -12.78 148.9395)" class="st6" cx="102.4" cy="83.8" rx="16.4" ry="17.3"/>
						</g>
					</g>
				</g>
				<g>
					<g>
						<g>
							
								<ellipse transform="matrix(0.3616 -0.9323 0.9323 0.3616 1.1459 155.0759)" class="st7" cx="113.8" cy="76.7" rx="0.6" ry="0.6"/>
						</g>
					</g>
				</g>
				<g>
					<g>
						<g>
							
								<ellipse transform="matrix(0.3616 -0.9323 0.9323 0.3616 -0.6139 159.8354)" class="st7" cx="116.4" cy="80.4" rx="0.6" ry="0.6"/>
						</g>
					</g>
				</g>
				<g>
					<g>
						<g>
							
								<ellipse transform="matrix(0.3616 -0.9323 0.9323 0.3616 -2.9127 156.1977)" class="st7" cx="112.6" cy="80.2" rx="0.6" ry="0.6"/>
						</g>
					</g>
				</g>
				<g>
					<g>
						<g>
							
								<ellipse transform="matrix(0.3616 -0.9323 0.9323 0.3616 -1.4923 150.9012)" class="st7" cx="109.4" cy="76.5" rx="0.6" ry="0.6"/>
						</g>
					</g>
				</g>
				<g>
					<g>
						<g>
							
								<ellipse transform="matrix(0.3616 -0.9323 0.9323 0.3616 -5.3168 152.3934)" class="st7" cx="108.6" cy="80.1" rx="0.6" ry="0.6"/>
						</g>
					</g>
				</g>
				<g>
					<g>
						<g>
							
								<ellipse transform="matrix(0.3616 -0.9323 0.9323 0.3616 -4.6082 163.3147)" class="st7" cx="117" cy="85" rx="0.6" ry="0.6"/>
						</g>
					</g>
				</g>
				<g>
					<g>
						<g>
							
								<ellipse transform="matrix(0.3616 -0.9323 0.9323 0.3616 -7.2622 159.115)" class="st7" cx="112.6" cy="84.9" rx="0.6" ry="0.6"/>
						</g>
					</g>
				</g>
				<g>
					<g>
						<g>
							
								<ellipse transform="matrix(0.3616 -0.9323 0.9323 0.3616 -9.582 164.2501)" class="st7" cx="115.1" cy="89.1" rx="0.6" ry="0.6"/>
						</g>
					</g>
				</g>
				<g>
					<g>
						<g>
							<path class="st8" d="M102.5,69.2c-0.6,0-1.2-0.2-1.1-0.6c0-0.1,0-0.2,0.1-0.2c0.2-0.2,0.6-0.3,1-0.3c0.6,0,1.2,0.2,1.1,0.6
								c0,0.1,0,0.2-0.1,0.2c-0.1,0.1-0.1,0.1-0.2,0.1C103.1,69.1,102.8,69.2,102.5,69.2z M101.6,68.5
								C101.6,68.5,101.5,68.5,101.6,68.5L101.6,68.5c-0.1,0.2,0.3,0.4,0.9,0.5c0.4,0,0.8-0.1,0.9-0.2c0,0,0-0.1,0-0.1
								c0-0.1-0.4-0.3-0.9-0.4c-0.3,0-0.6,0-0.7,0.1C101.7,68.4,101.6,68.4,101.6,68.5z"/>
						</g>
					</g>
				</g>
			</g>
			<g>
				<g>
					<g>
						<path class="st9" d="M102.3,63.7c10.4-8,20-0.1,20-0.1S112.7,72.2,102.3,63.7z"/>
					</g>
				</g>
			</g>
		</g>
		<g>
			<g>
				<polygon class="st10" points="102.3,68.6 102.2,59.2 102.6,59.2 102.7,68.6 				"/>
			</g>
		</g>
	</g>
	<g>
		<g>
			<g>
				<g>
					<g>
						<g>
							
								<ellipse transform="matrix(0.3616 -0.9323 0.9323 0.3616 9.1742 182.9374)" class="st6" cx="138.2" cy="84.8" rx="16.4" ry="17.3"/>
						</g>
					</g>
				</g>
				<g>
					<g>
						<g>
							
								<ellipse transform="matrix(0.3616 -0.9323 0.9323 0.3616 23.1001 189.0738)" class="st7" cx="149.6" cy="77.7" rx="0.6" ry="0.6"/>
						</g>
					</g>
				</g>
				<g>
					<g>
						<g>
							
								<ellipse transform="matrix(0.3616 -0.9323 0.9323 0.3616 21.3403 193.8333)" class="st7" cx="152.2" cy="81.3" rx="0.6" ry="0.6"/>
						</g>
					</g>
				</g>
				<g>
					<g>
						<g>
							
								<ellipse transform="matrix(0.3616 -0.9323 0.9323 0.3616 19.0415 190.1956)" class="st7" cx="148.4" cy="81.2" rx="0.6" ry="0.6"/>
						</g>
					</g>
				</g>
				<g>
					<g>
						<g>
							
								<ellipse transform="matrix(0.3616 -0.9323 0.9323 0.3616 20.4619 184.8991)" class="st7" cx="145.2" cy="77.5" rx="0.6" ry="0.6"/>
						</g>
					</g>
				</g>
				<g>
					<g>
						<g>
							
								<ellipse transform="matrix(0.3616 -0.9323 0.9323 0.3616 16.6374 186.3913)" class="st7" cx="144.4" cy="81" rx="0.6" ry="0.6"/>
						</g>
					</g>
				</g>
				<g>
					<g>
						<g>
							
								<ellipse transform="matrix(0.3616 -0.9323 0.9323 0.3616 17.346 197.3126)" class="st7" cx="152.8" cy="86" rx="0.6" ry="0.6"/>
						</g>
					</g>
				</g>
				<g>
					<g>
						<g>
							
								<ellipse transform="matrix(0.3616 -0.9323 0.9323 0.3616 14.692 193.1129)" class="st7" cx="148.4" cy="85.8" rx="0.6" ry="0.6"/>
						</g>
					</g>
				</g>
				<g>
					<g>
						<g>
							
								<ellipse transform="matrix(0.3616 -0.9323 0.9323 0.3616 12.3722 198.2479)" class="st7" cx="150.9" cy="90.1" rx="0.6" ry="0.6"/>
						</g>
					</g>
				</g>
				<g>
					<g>
						<g>
							<path class="st8" d="M138.3,70.1c-0.6,0-1.2-0.2-1.1-0.6c0-0.1,0-0.2,0.1-0.2c0.2-0.2,0.6-0.3,1-0.3c0.6,0,1.2,0.2,1.1,0.6
								c0,0.1,0,0.2-0.1,0.2c-0.1,0.1-0.1,0.1-0.2,0.1C138.9,70.1,138.6,70.1,138.3,70.1z M137.4,69.4
								C137.4,69.5,137.3,69.5,137.4,69.4L137.4,69.4c-0.1,0.2,0.3,0.4,0.9,0.5c0.4,0,0.8-0.1,0.9-0.2c0,0,0-0.1,0-0.1
								c0-0.1-0.4-0.3-0.9-0.4c-0.3,0-0.6,0-0.7,0.1C137.5,69.4,137.4,69.4,137.4,69.4z"/>
						</g>
					</g>
				</g>
			</g>
			<g>
				<g>
					<g>
						<path class="st9" d="M138.1,64.6c10.4-8,20-0.1,20-0.1S148.5,73.2,138.1,64.6z"/>
					</g>
				</g>
			</g>
		</g>
		<g>
			<g>
				<polygon class="st10" points="138.1,69.6 138,60.1 138.4,60.1 138.5,69.6 				"/>
			</g>
		</g>
	</g>
	<g>
		<g>
			<rect x="46" y="80.3" class="st11" width="84.1" height="56.6"/>
		</g>
	</g>
	<g>
		<g>
			<rect x="129.4" y="80.3" class="st12" width="29.8" height="56.6"/>
		</g>
	</g>
	<g>
		<g>
			<circle class="st6" cx="137.1" cy="90.1" r="3.7"/>
		</g>
	</g>
	<g>
		<g>
			<circle class="st6" cx="151.9" cy="90.1" r="3.7"/>
		</g>
	</g>
</g>
<g>
	<g>
		<path class="st3" d="M118.7,52c0,0-0.1,0-0.1,0c-0.1-0.1-0.2-0.2-0.1-0.4l9.7-18.9c0.1-0.1,0.2-0.2,0.4-0.1
			c0.1,0.1,0.2,0.2,0.1,0.4L119,51.9C118.9,52,118.8,52,118.7,52z"/>
	</g>
</g>
<g>
	<g>
		<path class="st3" d="M88.6,52c-0.1,0-0.2-0.1-0.3-0.2l-9.7-18.9c-0.1-0.1,0-0.3,0.1-0.4c0.1-0.1,0.3,0,0.4,0.1l9.7,18.9
			c0.1,0.1,0,0.3-0.1,0.4C88.6,52,88.6,52,88.6,52z"/>
	</g>
</g>
<g>
	<g>
		<path class="st3" d="M102.4,50.6L102.4,50.6c-0.2,0-0.3-0.1-0.3-0.3l0.1-20.1c0-0.2,0.1-0.3,0.3-0.3h0c0.2,0,0.3,0.1,0.3,0.3
			l-0.1,20.1C102.6,50.4,102.5,50.6,102.4,50.6z"/>
	</g>
</g>
<g>
	<g>
		<circle class="st13" cx="88" cy="88" r="88"/>
	</g>
</g>
<g>
	<path class="st144" d="M185.1,183.6h-618.3V-14h618.3V183.6z M-432,183.1h615.9V-13.5H-432V183.1z"/>
</g>
<g>
	<path class="st15" d="M105.8,121.6L87.7,130l-0.4,0.2c-0.3,0.1-0.6,0.1-0.9-0.4c-0.3-0.5,0-1,0.2-1.2l16.9-13
		c1-0.8,1.3-2.2,0.6-3.3c-0.7-1.1-2.3-1.5-3.4-0.7l-17.1,11.1l0,0c0,0-0.8,0.5-1.4-0.4c-0.3-0.5,0-0.9,0.2-1.2l13.1-11.3
		c0.9-0.8,1.1-2.3,0.4-3.3c-0.8-1.1-2.3-1.3-3.4-0.6l-24.6,16.6l0,0c0,0,0,0,0,0l-0.2,0.1c-0.3,0.2-1,0.5-1.5,0.4
		c-0.8-0.3-0.3-1.3-0.3-1.3l5.1-8.5c0.7-1.1,0.4-2.6-0.7-3.4c-1.2-0.8-2.8-0.6-3.6,0.6c0,0-8.8,11.5-13.1,17.4l-32.9,17
		c8.9,10.5,20.2,19,33.1,24.4l17-13.4c10.4-6.4,17.3-10,18.2-10.6l4.3-2.1c0,0,0.1,0,0.1-0.1l11.6-5.3c1-0.5,1.5-1.7,1.2-2.8
		c-0.4-1.2-1.7-1.8-2.9-1.4l-11.4,4h0c0,0-0.9,0.3-1.3-0.6c-0.3-0.7,0.3-1,0.3-1.1l17.2-9.9c1.1-0.6,1.6-2,1-3.2
		C108.5,121.5,107,121,105.8,121.6z"/>
</g>
</svg>
