<svg width="32" height="30" viewBox="0 0 32 30" fill="none" xmlns="http://www.w3.org/2000/svg">
<path d="M14.2448 0.102519C14.2448 0.102519 1.55439 -1.59775 0.174457 8.85028C-1.20547 19.2983 5.66954 28.9085 18.36 29.2535C31.0504 29.5985 43.0508 2.17241 14.2448 0.102519Z" fill="#2E9E93"/>
<path d="M20.2582 19.0514V22.0823H9.58835V20.5546L15.0834 13.3346C15.9705 12.1271 16.3155 11.3879 16.3155 10.6733C16.3155 9.71225 15.6255 8.99764 14.5906 8.99764C13.531 8.99764 12.6439 9.66297 11.8307 10.7226L9.53906 8.99764C10.8451 6.92775 12.5946 5.76959 14.9849 5.76959C18.0404 5.76959 19.9378 7.81484 19.9378 10.279C19.9378 11.8807 19.3464 13.0389 17.7447 15.1088L15.5023 18.0657C15.2559 18.3861 14.9356 18.7557 14.6399 19.1007C15.2066 19.0514 15.6748 19.0514 16.1184 19.0514H20.2582Z" fill="white"/>
</svg>
