<?xml version="1.0" encoding="utf-8"?>
<!-- Generator: Adobe Illustrator 26.0.2, SVG Export Plug-In . SVG Version: 6.00 Build 0)  -->
<svg version="1.1" id="Capa_1" xmlns="http://www.w3.org/2000/svg" xmlns:xlink="http://www.w3.org/1999/xlink" x="0px" y="0px"
	 viewBox="0 0 264 198" style="enable-background:new 0 0 264 198;" xml:space="preserve">
<style type="text/css">
	.st0{clip-path:url(#SVGID_00000111177250306955109840000011022228677833734290_);fill:#FAF3E8;}
	.st1{clip-path:url(#SVGID_00000111177250306955109840000011022228677833734290_);}
	.st2{fill:#FFFFFF;}
	.st3{fill:#333333;}
	.st4{fill:#FCCDAC;}
	.st5{fill:#F1A74A;}
	.st6{fill:none;stroke:#333333;stroke-width:1.3803;stroke-linecap:round;stroke-miterlimit:10;}
	.st7{fill:none;stroke:#333333;stroke-width:4.1408;stroke-linecap:round;stroke-miterlimit:10;}
	.st8{fill:none;stroke:#FFFFFF;stroke-width:1.2497;stroke-linecap:round;stroke-miterlimit:10;}
	.st9{fill:#222222;}
	.st10{fill:#FFDAC6;}
	.st11{fill:#FFDC6F;}
	.st12{fill:none;stroke:#333333;stroke-width:0.9187;stroke-linecap:round;stroke-miterlimit:10;}
	.st13{fill:#EAA42C;}
	.st14{fill:none;stroke:#333333;stroke-width:1.261;stroke-linecap:round;stroke-miterlimit:10;}
	.st15{fill:none;stroke:#333333;stroke-width:1.0764;stroke-linecap:round;stroke-miterlimit:10;}
	.st16{fill:#FBCDAD;}
	.st17{fill:#E16F50;}
	.st18{fill:#F1A84C;}
	.st19{fill:#343434;}
	.st20{fill:#FAF3E8;}
	.st21{clip-path:url(#SVGID_00000091016653045443687140000016843868006362961794_);}
	.st22{fill:#FFCEA9;}
	.st23{clip-path:url(#SVGID_00000091016653045443687140000016843868006362961794_);fill:#FFDEC9;}
	.st24{clip-path:url(#SVGID_00000039856571521796935510000006936197347983880124_);fill:#FFCBAE;}
	.st25{fill:#E9A32C;}
	.st26{fill:#D48112;}
	.st27{fill:#6E5336;}
	.st28{fill:#FFD7B6;}
	.st29{fill:#FFCBAE;}
	.st30{fill:#FFC6AD;}
	.st31{clip-path:url(#SVGID_00000114759171602893239150000014900746031494003615_);fill:#FAF3E8;}
	.st32{clip-path:url(#SVGID_00000114759171602893239150000014900746031494003615_);}
	.st33{fill:#AF754E;}
	.st34{fill:#FFCF4A;}
	.st35{fill:none;stroke:#F7B82B;stroke-width:0.2588;stroke-linecap:round;stroke-linejoin:round;stroke-miterlimit:10;}
	.st36{fill:#D89E68;}
	.st37{fill:#EABA8B;}
	.st38{fill:none;stroke:#EABA8B;stroke-width:0.8384;stroke-miterlimit:10;}
	.st39{fill:#FAF2E7;}
	.st40{fill:#5D9E9B;}
	
		.st41{clip-path:url(#SVGID_00000114759171602893239150000014900746031494003615_);fill:none;stroke:#365B56;stroke-width:0.2758;stroke-miterlimit:10;}
	.st42{clip-path:url(#SVGID_00000096750985534202857860000002674589258982117799_);fill:#FAF3E8;}
	.st43{clip-path:url(#SVGID_00000096750985534202857860000002674589258982117799_);}
	.st44{fill:none;stroke:#333333;stroke-width:1.1791;stroke-linecap:round;stroke-miterlimit:10;}
	.st45{fill:none;stroke:#333333;stroke-width:3.5374;stroke-linecap:round;stroke-miterlimit:10;}
	.st46{fill:none;stroke:#FFFFFF;stroke-width:1.0676;stroke-linecap:round;stroke-miterlimit:10;}
	.st47{fill:none;stroke:#333333;stroke-width:0.7848;stroke-linecap:round;stroke-miterlimit:10;}
	.st48{fill:none;stroke:#333333;stroke-width:1.0773;stroke-linecap:round;stroke-miterlimit:10;}
	.st49{fill:none;stroke:#333333;stroke-width:0.9195;stroke-linecap:round;stroke-miterlimit:10;}
	.st50{fill:none;stroke:#343434;stroke-width:0.9565;stroke-linecap:round;stroke-miterlimit:10;}
	.st51{fill:none;stroke:#F1A84C;stroke-width:3.4847;stroke-linecap:round;stroke-miterlimit:10;}
	.st52{fill:none;stroke:#343434;stroke-width:1.0517;stroke-linecap:round;stroke-miterlimit:10;}
	.st53{clip-path:url(#SVGID_00000000206158894924651440000014654791424015858569_);}
	.st54{clip-path:url(#SVGID_00000000206158894924651440000014654791424015858569_);fill:#FFDEC9;}
	.st55{clip-path:url(#SVGID_00000080916656358329421230000007959968038573229715_);fill:#FFCBAE;}
	.st56{clip-path:url(#SVGID_00000183244060787429722260000002307142775714926497_);fill:#FAF3E8;}
	.st57{clip-path:url(#SVGID_00000183244060787429722260000002307142775714926497_);}
	.st58{fill:#F7B82B;}
	.st59{fill:none;stroke:#EABA8B;stroke-width:0.9847;stroke-miterlimit:10;}
	
		.st60{clip-path:url(#SVGID_00000183244060787429722260000002307142775714926497_);fill:none;stroke:#365B56;stroke-width:0.3239;stroke-miterlimit:10;}
	.st61{fill:none;stroke:#EABA8B;stroke-width:0.461;stroke-miterlimit:10;}
	.st62{fill:none;stroke:#365B56;stroke-width:0.1516;stroke-miterlimit:10;}
	.st63{fill:#C48755;}
	.st64{fill:#365B56;}
	.st65{fill:none;stroke:#365B56;stroke-width:0.2468;stroke-miterlimit:10;}
	.st66{clip-path:url(#SVGID_00000036235929342858152360000007734920028839176102_);fill:#FFCEA9;}
	.st67{clip-path:url(#SVGID_00000036235929342858152360000007734920028839176102_);}
	.st68{clip-path:url(#SVGID_00000036235929342858152360000007734920028839176102_);fill:#E9A32C;}
	.st69{fill:none;stroke:#D48112;stroke-width:0.75;stroke-miterlimit:10;}
	.st70{fill:none;stroke:#333333;stroke-width:0.4301;stroke-linecap:round;stroke-miterlimit:10;}
	.st71{clip-path:url(#SVGID_00000101094658850700631470000004532978355672069797_);}
	.st72{fill:none;stroke:#333333;stroke-width:0.6462;stroke-linecap:round;stroke-miterlimit:10;}
	.st73{fill:none;stroke:#333333;stroke-width:1.9387;stroke-linecap:round;stroke-miterlimit:10;}
	.st74{fill:none;stroke:#FFFFFF;stroke-width:0.5851;stroke-linecap:round;stroke-miterlimit:10;}
	.st75{fill:none;stroke:#333333;stroke-width:0.5904;stroke-linecap:round;stroke-miterlimit:10;}
	.st76{fill:none;stroke:#333333;stroke-width:0.5039;stroke-linecap:round;stroke-miterlimit:10;}
	.st77{fill:#FFDEC9;}
	.st78{clip-path:url(#SVGID_00000165923069268382156420000009260613098303682479_);}
	.st79{clip-path:url(#SVGID_00000110458603353930710230000009919093189261257630_);fill:#FFCBAE;}
	.st80{clip-path:url(#SVGID_00000086673805085043087750000007212588551974868864_);}
	.st81{clip-path:url(#SVGID_00000148649256658753095960000007378170559608064640_);fill:#FFCBAE;}
	.st82{clip-path:url(#SVGID_00000013915522489952124680000017284858626147884210_);}
	.st83{fill:none;stroke:#FFDC6F;stroke-miterlimit:10;}
</style>
<g>
	<path class="st20" d="M217.7,74.3c0,0-38.9-46.9-125.2-30.1C37.8,54.8,27.2,90,27.2,90S-13.8,192.4,128,186.3
		C269.8,180.2,253.1,109,217.7,74.3z"/>
</g>
<g>
	<polygon class="st33" points="60.6,63.2 135.4,41.5 199.7,60.6 122.7,85 	"/>
</g>
<g>
	<g>
		<g>
			<g>
				
					<ellipse transform="matrix(0.185 -0.9827 0.9827 0.185 36.9463 158.7759)" class="st25" cx="114.2" cy="57.1" rx="17" ry="17.8"/>
			</g>
		</g>
		<g>
			<g>
				
					<ellipse transform="matrix(0.185 -0.9827 0.9827 0.185 44.6225 141.9967)" class="st26" cx="107.9" cy="44.1" rx="0.6" ry="0.6"/>
			</g>
		</g>
		<g>
			<g>
				
					<ellipse transform="matrix(0.185 -0.9827 0.9827 0.185 38.919 139.8287)" class="st26" cx="103.8" cy="46.4" rx="0.6" ry="0.6"/>
			</g>
		</g>
		<g>
			<g>
				
					<ellipse transform="matrix(0.185 -0.9827 0.9827 0.185 39.5267 144.8222)" class="st26" cx="107.1" cy="48.6" rx="0.6" ry="0.6"/>
			</g>
		</g>
		<g>
			<g>
				
					<ellipse transform="matrix(0.185 -0.9827 0.9827 0.185 47.0743 147.175)" class="st26" cx="112.3" cy="45.2" rx="0.6" ry="0.6"/>
			</g>
		</g>
		<g>
			<g>
				<ellipse transform="matrix(0.185 -0.9827 0.9827 0.185 41.9715 149.2317)" class="st26" cx="111" cy="49.3" rx="0.6" ry="0.6"/>
			</g>
		</g>
		<g>
			<g>
				
					<ellipse transform="matrix(0.185 -0.9827 0.9827 0.185 32.7416 139.9527)" class="st26" cx="100.8" cy="50.2" rx="0.6" ry="0.6"/>
			</g>
		</g>
		<g>
			<g>
				
					<ellipse transform="matrix(0.185 -0.9827 0.9827 0.185 33.7397 145.6609)" class="st26" cx="104.7" cy="52.5" rx="0.6" ry="0.6"/>
			</g>
		</g>
		<g>
			<g>
				
					<ellipse transform="matrix(0.185 -0.9827 0.9827 0.185 27.7114 143.0423)" class="st26" cx="100.1" cy="54.8" rx="0.6" ry="0.6"/>
			</g>
		</g>
		<g>
			<g>
				<path class="st27" d="M121.5,43.7c-0.1-0.1-0.1-0.2-0.1-0.3c0-0.1,0-0.2,0-0.3c0.2-0.3,0.8-0.2,1.3,0.1c0.4,0.2,0.7,0.5,0.8,0.8
					c0,0.1,0,0.2,0,0.3c-0.2,0.3-0.8,0.2-1.3-0.1C121.8,44.1,121.6,43.9,121.5,43.7z M123.1,43.9c-0.1-0.1-0.3-0.3-0.6-0.5
					c-0.5-0.3-0.9-0.3-1-0.2c0,0,0,0.1,0,0.1c0,0.2,0.3,0.4,0.7,0.7c0.5,0.3,0.9,0.3,1,0.2l0,0c0,0,0-0.1,0-0.1
					C123.2,44,123.2,44,123.1,43.9z"/>
			</g>
		</g>
	</g>
</g>
<g>
	<path class="st40" d="M127.7,62.5c-12.7-0.4-15.1-12.3-15.1-12.3S125.2,49.6,127.7,62.5z"/>
</g>
<g>
	<polygon class="st22" points="37.3,122.3 60.9,100 60.6,127.8 70.1,129.5 56.2,143.8 	"/>
</g>
<g>
	<g>
		<g>
			<g>
				
					<ellipse transform="matrix(0.185 -0.9827 0.9827 0.185 57.067 193.9994)" class="st25" cx="145.5" cy="62.6" rx="17" ry="17.8"/>
			</g>
		</g>
		<g>
			<g>
				
					<ellipse transform="matrix(0.185 -0.9827 0.9827 0.185 64.7432 177.2202)" class="st26" cx="139.2" cy="49.6" rx="0.6" ry="0.6"/>
			</g>
		</g>
		<g>
			<g>
				
					<ellipse transform="matrix(0.185 -0.9827 0.9827 0.185 59.0397 175.0521)" class="st26" cx="135.1" cy="51.9" rx="0.6" ry="0.6"/>
			</g>
		</g>
		<g>
			<g>
				
					<ellipse transform="matrix(0.185 -0.9827 0.9827 0.185 59.6474 180.0456)" class="st26" cx="138.4" cy="54.1" rx="0.6" ry="0.6"/>
			</g>
		</g>
		<g>
			<g>
				
					<ellipse transform="matrix(0.185 -0.9827 0.9827 0.185 67.195 182.3984)" class="st26" cx="143.6" cy="50.7" rx="0.6" ry="0.6"/>
			</g>
		</g>
		<g>
			<g>
				
					<ellipse transform="matrix(0.185 -0.9827 0.9827 0.185 62.0922 184.4551)" class="st26" cx="142.3" cy="54.8" rx="0.6" ry="0.6"/>
			</g>
		</g>
		<g>
			<g>
				<ellipse transform="matrix(0.185 -0.9827 0.9827 0.185 52.8623 175.1761)" class="st26" cx="132" cy="55.7" rx="0.6" ry="0.6"/>
			</g>
		</g>
		<g>
			<g>
				<ellipse transform="matrix(0.185 -0.9827 0.9827 0.185 53.8603 180.8843)" class="st26" cx="136" cy="58" rx="0.6" ry="0.6"/>
			</g>
		</g>
		<g>
			<g>
				
					<ellipse transform="matrix(0.185 -0.9827 0.9827 0.185 47.8321 178.2657)" class="st26" cx="131.4" cy="60.3" rx="0.6" ry="0.6"/>
			</g>
		</g>
		<g>
			<g>
				<path class="st27" d="M152.8,49.2c-0.1-0.1-0.1-0.2-0.1-0.3c0-0.1,0-0.2,0-0.3c0.2-0.3,0.8-0.2,1.3,0.1c0.4,0.2,0.7,0.5,0.8,0.8
					c0,0.1,0,0.2,0,0.3c-0.2,0.3-0.8,0.2-1.3-0.1C153.1,49.5,152.9,49.4,152.8,49.2z M154.4,49.4c-0.1-0.1-0.3-0.3-0.6-0.5
					c-0.5-0.3-0.9-0.3-1-0.2c0,0,0,0.1,0,0.1c0,0.2,0.3,0.4,0.7,0.7c0.5,0.3,0.9,0.3,1,0.2l0,0c0,0,0-0.1,0-0.1
					C154.5,49.5,154.5,49.5,154.4,49.4z"/>
			</g>
		</g>
	</g>
</g>
<g>
	<g>
		<g>
			<g>
				<ellipse transform="matrix(0.185 -0.9827 0.9827 0.185 3.1302 144.8267)" class="st25" cx="88.9" cy="70.5" rx="17" ry="17.8"/>
			</g>
		</g>
		<g>
			<g>
				
					<ellipse transform="matrix(0.185 -0.9827 0.9827 0.185 10.8063 128.0475)" class="st26" cx="82.6" cy="57.5" rx="0.6" ry="0.6"/>
			</g>
		</g>
		<g>
			<g>
				<ellipse transform="matrix(0.185 -0.9827 0.9827 0.185 5.1028 125.8794)" class="st26" cx="78.4" cy="59.9" rx="0.6" ry="0.6"/>
			</g>
		</g>
		<g>
			<g>
				<ellipse transform="matrix(0.185 -0.9827 0.9827 0.185 5.7105 130.8729)" class="st26" cx="81.8" cy="62" rx="0.6" ry="0.6"/>
			</g>
		</g>
		<g>
			<g>
				<ellipse transform="matrix(0.185 -0.9827 0.9827 0.185 13.2581 133.2257)" class="st26" cx="87" cy="58.6" rx="0.6" ry="0.6"/>
			</g>
		</g>
		<g>
			<g>
				<ellipse transform="matrix(0.185 -0.9827 0.9827 0.185 8.1554 135.2824)" class="st26" cx="85.6" cy="62.7" rx="0.6" ry="0.6"/>
			</g>
		</g>
		<g>
			<g>
				
					<ellipse transform="matrix(0.185 -0.9827 0.9827 0.185 -1.0746 126.0034)" class="st26" cx="75.4" cy="63.6" rx="0.6" ry="0.6"/>
			</g>
		</g>
		<g>
			<g>
				
					<ellipse transform="matrix(0.185 -0.9827 0.9827 0.185 -7.650620e-02 131.7116)" class="st26" cx="79.4" cy="65.9" rx="0.6" ry="0.6"/>
			</g>
		</g>
		<g>
			<g>
				<ellipse transform="matrix(0.185 -0.9827 0.9827 0.185 -6.1047 129.093)" class="st26" cx="74.8" cy="68.2" rx="0.6" ry="0.6"/>
			</g>
		</g>
		<g>
			<g>
				<path class="st27" d="M96.1,57.1C96.1,57,96,56.9,96,56.8c0-0.1,0-0.2,0-0.3c0.2-0.3,0.8-0.2,1.3,0.1c0.4,0.2,0.7,0.5,0.8,0.8
					c0,0.1,0,0.2,0,0.3c-0.2,0.3-0.8,0.2-1.3-0.1C96.5,57.5,96.3,57.3,96.1,57.1z M97.8,57.3c-0.1-0.1-0.3-0.3-0.6-0.5
					c-0.5-0.3-0.9-0.3-1-0.2c0,0,0,0.1,0,0.1c0,0.2,0.3,0.4,0.7,0.7c0.5,0.3,0.9,0.3,1,0.2l0,0c0,0,0-0.1,0-0.1
					C97.9,57.5,97.9,57.4,97.8,57.3z"/>
			</g>
		</g>
	</g>
</g>
<g>
	<line class="st36" x1="122.7" y1="85" x2="198" y2="61.1"/>
</g>
<g>
	<g>
		<g>
			<g>
				<ellipse transform="matrix(0.185 -0.9827 0.9827 0.185 23.2509 180.0501)" class="st25" cx="120.2" cy="76" rx="17" ry="17.8"/>
			</g>
		</g>
		<g>
			<g>
				<ellipse transform="matrix(0.185 -0.9827 0.9827 0.185 30.927 163.2709)" class="st26" cx="113.9" cy="63" rx="0.6" ry="0.6"/>
			</g>
		</g>
		<g>
			<g>
				
					<ellipse transform="matrix(0.185 -0.9827 0.9827 0.185 25.2235 161.1028)" class="st26" cx="109.7" cy="65.3" rx="0.6" ry="0.6"/>
			</g>
		</g>
		<g>
			<g>
				
					<ellipse transform="matrix(0.185 -0.9827 0.9827 0.185 25.8312 166.0964)" class="st26" cx="113.1" cy="67.5" rx="0.6" ry="0.6"/>
			</g>
		</g>
		<g>
			<g>
				
					<ellipse transform="matrix(0.185 -0.9827 0.9827 0.185 33.3788 168.4491)" class="st26" cx="118.3" cy="64.1" rx="0.6" ry="0.6"/>
			</g>
		</g>
		<g>
			<g>
				
					<ellipse transform="matrix(0.185 -0.9827 0.9827 0.185 28.2761 170.5058)" class="st26" cx="116.9" cy="68.2" rx="0.6" ry="0.6"/>
			</g>
		</g>
		<g>
			<g>
				
					<ellipse transform="matrix(0.185 -0.9827 0.9827 0.185 19.0461 161.2268)" class="st26" cx="106.7" cy="69.1" rx="0.6" ry="0.6"/>
			</g>
		</g>
		<g>
			<g>
				
					<ellipse transform="matrix(0.185 -0.9827 0.9827 0.185 20.0442 166.935)" class="st26" cx="110.7" cy="71.4" rx="0.6" ry="0.6"/>
			</g>
		</g>
		<g>
			<g>
				
					<ellipse transform="matrix(0.185 -0.9827 0.9827 0.185 14.016 164.3164)" class="st26" cx="106.1" cy="73.7" rx="0.6" ry="0.6"/>
			</g>
		</g>
		<g>
			<g>
				<path class="st27" d="M127.4,62.6c-0.1-0.1-0.1-0.2-0.1-0.3c0-0.1,0-0.2,0-0.3c0.2-0.3,0.8-0.2,1.3,0.1c0.4,0.2,0.7,0.5,0.8,0.8
					c0,0.1,0,0.2,0,0.3c-0.2,0.3-0.8,0.2-1.3-0.1C127.8,63,127.6,62.8,127.4,62.6z M129.1,62.8c-0.1-0.1-0.3-0.3-0.6-0.5
					c-0.5-0.3-0.9-0.3-1-0.2c0,0,0,0.1,0,0.1c0,0.2,0.3,0.4,0.7,0.7c0.5,0.3,0.9,0.3,1,0.2l0,0c0,0,0-0.1,0-0.1
					C129.2,62.9,129.2,62.9,129.1,62.8z"/>
			</g>
		</g>
	</g>
</g>
<g>
	<line class="st36" x1="60.9" y1="64.8" x2="122.7" y2="85"/>
</g>
<g>
	<g>
		<g>
			<g>
				
					<ellipse transform="matrix(0.185 -0.9827 0.9827 0.185 64.9878 186.3536)" class="st25" cx="144.8" cy="54" rx="15.7" ry="16.5"/>
			</g>
		</g>
		<g>
			<g>
				<ellipse transform="matrix(0.185 -0.9827 0.9827 0.185 72.0856 170.8386)" class="st26" cx="139" cy="42" rx="0.5" ry="0.6"/>
			</g>
		</g>
		<g>
			<g>
				
					<ellipse transform="matrix(0.185 -0.9827 0.9827 0.185 66.8119 168.8339)" class="st26" cx="135.2" cy="44.1" rx="0.5" ry="0.6"/>
			</g>
		</g>
		<g>
			<g>
				
					<ellipse transform="matrix(0.185 -0.9827 0.9827 0.185 67.3737 173.4512)" class="st26" cx="138.3" cy="46.1" rx="0.5" ry="0.6"/>
			</g>
		</g>
		<g>
			<g>
				<ellipse transform="matrix(0.185 -0.9827 0.9827 0.185 74.3527 175.6267)" class="st26" cx="143.1" cy="43" rx="0.5" ry="0.6"/>
			</g>
		</g>
		<g>
			<g>
				
					<ellipse transform="matrix(0.185 -0.9827 0.9827 0.185 69.6344 177.5284)" class="st26" cx="141.9" cy="46.8" rx="0.5" ry="0.6"/>
			</g>
		</g>
		<g>
			<g>
				
					<ellipse transform="matrix(0.185 -0.9827 0.9827 0.185 61.0999 168.9486)" class="st26" cx="132.4" cy="47.6" rx="0.5" ry="0.6"/>
			</g>
		</g>
		<g>
			<g>
				
					<ellipse transform="matrix(0.185 -0.9827 0.9827 0.185 62.0227 174.2266)" class="st26" cx="136.1" cy="49.7" rx="0.5" ry="0.6"/>
			</g>
		</g>
		<g>
			<g>
				
					<ellipse transform="matrix(0.185 -0.9827 0.9827 0.185 56.4487 171.8053)" class="st26" cx="131.8" cy="51.9" rx="0.5" ry="0.6"/>
			</g>
		</g>
		<g>
			<g>
				<path class="st27" d="M151.6,41.6c-0.1-0.1-0.1-0.2-0.1-0.2c0-0.1,0-0.2,0-0.3c0.2-0.3,0.8-0.2,1.2,0.1c0.4,0.2,0.7,0.5,0.7,0.7
					c0,0.1,0,0.2,0,0.3c-0.2,0.3-0.8,0.2-1.2-0.1C151.9,41.9,151.7,41.7,151.6,41.6z M153.1,41.8c-0.1-0.1-0.3-0.3-0.5-0.4
					c-0.5-0.3-0.9-0.3-0.9-0.2c0,0,0,0.1,0,0.1c0,0.2,0.2,0.4,0.6,0.6c0.5,0.3,0.9,0.3,0.9,0.2l0,0c0,0,0-0.1,0-0.1
					C153.2,41.9,153.2,41.9,153.1,41.8z"/>
			</g>
		</g>
	</g>
</g>
<g>
	<g>
		<g>
			<g>
				
					<ellipse transform="matrix(0.7883 -0.6153 0.6153 0.7883 -3.7148 121.0071)" class="st25" cx="174" cy="65.9" rx="17.8" ry="17"/>
			</g>
		</g>
		<g>
			<g>
				
					<ellipse transform="matrix(0.7883 -0.6153 0.6153 0.7883 -4.2676 111.6191)" class="st26" cx="160.1" cy="62" rx="0.6" ry="0.6"/>
			</g>
		</g>
		<g>
			<g>
				
					<ellipse transform="matrix(0.7883 -0.6153 0.6153 0.7883 -7.2 112.4258)" class="st26" cx="159.8" cy="66.7" rx="0.6" ry="0.6"/>
			</g>
		</g>
		<g>
			<g>
				
					<ellipse transform="matrix(0.7883 -0.6153 0.6153 0.7883 -5.8421 114.2983)" class="st26" cx="163.2" cy="65.6" rx="0.6" ry="0.6"/>
			</g>
		</g>
		<g>
			<g>
				
					<ellipse transform="matrix(0.7883 -0.6153 0.6153 0.7883 -1.9267 113.3646)" class="st26" cx="163.8" cy="59.5" rx="0.6" ry="0.6"/>
			</g>
		</g>
		<g>
			<g>
				
					<ellipse transform="matrix(0.7883 -0.6153 0.6153 0.7883 -3.7326 115.5097)" class="st26" cx="166" cy="63.2" rx="0.6" ry="0.6"/>
			</g>
		</g>
		<g>
			<g>
				
					<ellipse transform="matrix(0.7883 -0.6153 0.6153 0.7883 -10.1048 113.5373)" class="st26" cx="159.9" cy="71.5" rx="0.6" ry="0.6"/>
			</g>
		</g>
		<g>
			<g>
				
					<ellipse transform="matrix(0.7883 -0.6153 0.6153 0.7883 -8.2918 115.8687)" class="st26" cx="164.2" cy="70" rx="0.6" ry="0.6"/>
			</g>
		</g>
		<g>
			<g>
				
					<ellipse transform="matrix(0.7883 -0.6153 0.6153 0.7883 -11.6313 116.13)" class="st26" cx="162.9" cy="75" rx="0.6" ry="0.6"/>
			</g>
		</g>
		<g>
			<g>
				<path class="st27" d="M168.7,51.6c-0.1,0-0.2,0-0.3-0.1c-0.1,0-0.2-0.1-0.2-0.2c-0.1-0.4,0.4-0.7,1-0.9c0.4-0.2,0.9-0.2,1.1,0
					c0.1,0,0.2,0.1,0.2,0.2c0.1,0.4-0.4,0.7-1,0.9C169.2,51.6,168.9,51.6,168.7,51.6z M170,50.5c-0.2,0-0.4,0-0.7,0.1
					c-0.6,0.2-0.9,0.5-0.8,0.6c0,0,0,0.1,0.1,0.1c0.2,0.1,0.5,0.1,0.9-0.1c0.6-0.2,0.9-0.5,0.8-0.6l0,0c0,0,0-0.1-0.1-0.1
					C170.1,50.5,170.1,50.5,170,50.5z"/>
			</g>
		</g>
	</g>
</g>
<g>
	<polygon class="st63" points="124.1,74.9 199.7,60.6 199.7,120.8 124.1,139.5 	"/>
</g>
<g>
	<polygon class="st39" points="134.2,100.6 134.5,113.9 153.6,109.9 153.6,94.8 	"/>
</g>
<g>
	<polygon class="st36" points="60.6,63.2 60.6,127.8 124.1,139.5 124.1,74.9 	"/>
</g>
<g>
	<circle class="st25" cx="113.1" cy="106.6" r="5.2"/>
</g>
<g>
	<circle class="st25" cx="71.3" cy="100" r="5.2"/>
</g>
<g>
	<polyline class="st37" points="124.1,74.9 106.7,100 48.7,84.1 60.6,63.2 	"/>
</g>
<g>
	<polygon class="st64" points="152.6,41.7 152.4,41.6 155.1,37 155.3,37.1 	"/>
</g>
<g>
	<path class="st17" d="M129.7,19c0,0-1.2-5.5-6-3.2c-4.5,2.2-1.5,10,6.1,13.4c0,0,6.9-3.1,7.5-9C137.9,14.1,130.7,13.6,129.7,19z"/>
</g>
<g>
	<path class="st22" d="M223.9,94.1c0,0-3.4-4.2-14-6.6c-8.6-1.9-10.3-1.9-10.3-1.9v5.6"/>
</g>
<g>
	<path class="st26" d="M138,72.3c-2.9-7.5-7.9-10.6-11.7-11.8c-16-5.2-23.2,9.5-23.5,10.1l-0.7-0.3c0.1-0.2,7.8-16,24.5-10.5
		c3.9,1.3,9.2,4.4,12.1,12.2L138,72.3z"/>
</g>
<g>
	<path class="st26" d="M105.3,65.8c-2.1-6.9-8.7-10.1-8.8-10.1l0.3-0.7c0.3,0.1,6.9,3.4,9.2,10.6L105.3,65.8z"/>
</g>
<g>
	<path class="st26" d="M130.5,62.3c-4-7.2-1.8-13.9-1.7-14.2l0.7,0.2c0,0.1-2.2,6.6,1.6,13.6L130.5,62.3z"/>
</g>
<g>
	<path class="st26" d="M144.9,70.1c-5,0-8.9-1.7-9-1.7l0.3-0.6c0.1,0.1,12,5.1,20.1-2.6c2.9-2.8,4.5-7.3,4.3-12.1l0.7,0
		c0.2,5-1.5,9.7-4.5,12.7C153.1,69.1,148.7,70.1,144.9,70.1z"/>
</g>
<g>
	<path class="st26" d="M157.9,68.5c-0.6-3.7,0-5.3,0-5.4l0.7,0.3c0,0-0.5,1.6,0,5L157.9,68.5z"/>
</g>
<g>
	<path class="st22" d="M57.4,115.8l8.8-6.1c0,0,2.3-2.1,4.2,0c0,0,1.3,1.8-0.8,3.9c-1.8,1.7-11.2,10.3-11.2,10.3"/>
</g>
<g>
	<path class="st40" d="M155.1,36.9c9.9,6.4,6.1,16.9,6.1,16.9S151,48.3,155.1,36.9z"/>
</g>
<g>
	<polygon class="st37" points="199.7,60.6 214.6,80 199.7,81 	"/>
</g>
<rect x="-22.8" y="-405.2" class="st83" width="903.6" height="632.8"/>
<g>
	<path class="st17" d="M64.4,139.5l-24-24.6c-6.5,4.9-12.6,9.2-18.3,13.1c1.2,12.8,6,26.5,18.3,37.5
		C55.2,152.1,64.4,139.5,64.4,139.5z"/>
</g>
<g>
	<path class="st22" d="M115,125c-0.9-0.2-2.1-0.1-2.5,2.5s-2.8,9.7-2.8,9.7s-0.1,0.8-0.8,0.6c0,0-0.6-0.2-0.3-0.9
		c0.3-0.8,4.3-14.8,4.3-14.8s0.9-2.4-1.2-3.1c-2.5-0.8-3,1.9-3,1.9l-4.3,14.3c0,0-0.3,1.2-0.8,0.9c0,0-0.5-0.1-0.1-1.2
		c0.4-1.4,4.8-17,4.8-17s0.6-2.4-1.5-3c-2.2-0.7-3,1.2-3.3,2s-5.7,16.4-5.7,16.4s-0.2,0.8-1,0.7c0,0-0.6-0.2-0.2-1.2
		c0.4-0.9,4.2-14.5,4.2-14.5s1.1-2.9-1-3.7c-1.6-0.6-2.7,0.7-3.4,2.3c-0.7,1.6-5.5,17.2-5.5,17.2l-1.9,6.2l1.3-7l-4.2-0.8l-1.9,6.5
		c-2.8,11.9-10.1,26.6-18.4,40.7c9.2,3.1,20.2,5.3,33.3,6.3c8.1-19,12.4-34.9,12.4-34.9s3.4-13.4,4.9-22.5
		C116.4,128.5,117.2,125.4,115,125z"/>
</g>
<g>
	<path class="st2" d="M61.1,177.9c10.8,4.3,24.4,7.2,41.4,8.3c5-13.8,7-24,7-24L77.4,150C71.7,160.7,66.2,170,61.1,177.9z"/>
</g>
<g>
	<path class="st22" d="M180.5,132.7l-1.9-6.7l-3.7,0.9l0.9,7.1l-1.6-6.5c0,0-5-14.5-5.7-16.1c-0.7-1.6-1.6-2.4-3.2-1.8
		c-2,0.8-1,3.3-1,3.3s3.6,12.9,4,13.8c0.5,1-0.2,1.2-0.2,1.2c-0.8,0.1-1-0.7-1-0.7s-5.4-15.6-5.7-16.4c-0.3-0.8-1.4-2.5-3.1-1.9
		c-2.2,0.7-1,3.7-1,3.7s3.7,14.9,4.2,16.3c0.4,1.1-0.1,1.2-0.1,1.2c-0.5,0.2-0.8-0.9-0.8-0.9l-4.8-14.1c0,0-0.6-2.6-2.5-2.3
		c-2.1,0.4-1.2,3.2-1.2,3.2s3.9,14,4.3,14.8s-0.3,0.9-0.3,0.9c-0.7,0.2-0.8-0.6-0.8-0.6s-2.3-7-2.8-9.7c-0.3-2.2-2.1-1.7-2.1-1.7
		c-1.6,0.4-1.3,2.6-1.3,2.6c-0.3,10.6,5.4,29.3,5.4,29.3s4,14,11.7,31.1c13-2.1,24.1-5,33.4-8.4
		C190.8,159.8,183.3,144.8,180.5,132.7z"/>
</g>
<g>
	<path class="st11" d="M186.4,142.7l-32.8,13.9l10.7,26.2c15-2.3,27.5-5.7,37.7-9.7C192.8,158.3,186.4,142.7,186.4,142.7z"/>
</g>
<g>
	<path class="st3" d="M160.8,162.7c-0.3,0-0.5,0-0.8-0.1c-0.7-0.2-1.3-0.7-1.6-1.3c-0.4-0.6-0.4-1.4-0.2-2.1c0.4-1.5,2-2.3,3.4-1.9
		c1.5,0.4,2.3,2,1.9,3.4c-0.2,0.7-0.7,1.3-1.3,1.6C161.7,162.6,161.2,162.7,160.8,162.7z M160.8,157.6c-1,0-1.9,0.7-2.2,1.7
		c-0.4,1.2,0.3,2.5,1.6,2.9c0.6,0.2,1.2,0.1,1.8-0.2c0.5-0.3,0.9-0.8,1.1-1.4v0c0.2-0.6,0.1-1.2-0.2-1.8s-0.8-0.9-1.4-1.1
		C161.2,157.7,161,157.6,160.8,157.6z"/>
</g>
<g>
	<path class="st3" d="M158.9,166.4c-0.1,0-0.2,0-0.2-0.1c0-0.1,0-0.2,0.1-0.3l30.2-13.9c0.1-0.1,0.2,0,0.3,0.1c0,0.1,0,0.2-0.1,0.3
		L158.9,166.4C159,166.4,158.9,166.4,158.9,166.4z"/>
</g>
<g>
	<path class="st22" d="M241.9,118.8c-1.1-8.6-4.3-17.1-8.9-25c-10.7-0.2-22.9-1.2-36.8-3.5c-2.8-0.5-11.1-2.7-11.1-2.7
		s-2.4-1-3.2,0.8c-0.9,1.9,0.7,2.9,1.8,3.2l10.9,3.8c0,0,0.8,0.1,0.8,0.6c0,0.5-0.8,0.1-0.8,0.1l-13.3-3.8c-1.6-0.3-2.9-0.1-3.4,1.3
		c-1,2.5,1.5,3.3,1.5,3.3l14.3,4.7c0,0,0.6,0.2,0.5,0.6c-0.1,0.4-0.8,0.2-0.8,0.2l-12.8-3.9c0,0-3-1.3-3.8,0.9
		c-0.6,1.6,0.5,2.8,1.8,3.2c0,0,12.6,4,13.6,4.3c0.8,0.3,0.5,0.7,0.5,0.7c0,0.3-0.9,0.1-0.9,0.1l-9.5-2.9c0,0-2.6-1-3.4,1.1
		c-0.7,1.9,1.9,2.7,1.9,2.7S206.6,119.2,241.9,118.8z"/>
</g>
<g>
	<path class="st25" d="M242.2,122.8c-0.6-12.8-6.3-25.6-14.3-36.6c-5.1,0.7-8.3,1-8.3,1l-4.2,33.9
		C225.2,121.9,234.1,122.5,242.2,122.8z"/>
</g>
</svg>
