<?xml version="1.0" encoding="utf-8"?>
<!-- Generator: Adobe Illustrator 26.3.1, SVG Export Plug-In . SVG Version: 6.00 Build 0)  -->
<svg version="1.1" id="Capa_1" xmlns="http://www.w3.org/2000/svg" xmlns:xlink="http://www.w3.org/1999/xlink" x="0px" y="0px"
	 viewBox="0 0 555 444" style="enable-background:new 0 0 555 444;" xml:space="preserve">
<style type="text/css">
	.st0{fill:#C7E5E1;}
	.st1{clip-path:url(#SVGID_00000070814626663203232870000006640684670135827864_);fill:#8FBCBA;}
	.st2{clip-path:url(#SVGID_00000070814626663203232870000006640684670135827864_);fill:#76ADAA;}
	.st3{clip-path:url(#SVGID_00000070814626663203232870000006640684670135827864_);fill:#D9E8E8;}
	
		.st4{clip-path:url(#SVGID_00000070814626663203232870000006640684670135827864_);fill:none;stroke:#FFFFFF;stroke-width:0.8209;stroke-miterlimit:10;}
	
		.st5{clip-path:url(#SVGID_00000070814626663203232870000006640684670135827864_);fill:none;stroke:#FFFFFF;stroke-width:0.75;stroke-miterlimit:10;}
	.st6{fill:#4C8785;}
	.st7{fill:#8FBCBA;}
	.st8{fill:#EAA42C;}
	.st9{fill:#5D9E9B;}
	.st10{fill:none;stroke:#EAA42C;stroke-width:8.9428;stroke-miterlimit:10;}
	.st11{fill:#FCCDAC;}
	.st12{fill:none;stroke:#F48D53;stroke-width:3.125;stroke-miterlimit:10;}
	.st13{fill:#497D76;}
	.st14{fill:#FFDB70;}
	.st15{fill:#FBDEBD;}
	.st16{fill:#E9A32B;}
	.st17{fill:none;stroke:#5D9E9B;stroke-width:6;stroke-linejoin:round;stroke-miterlimit:10;}
	.st18{fill:#F1F7F4;}
	.st19{fill:none;stroke:#EAA42C;stroke-width:1.8782;stroke-miterlimit:10;}
	.st20{fill:#FFFFFF;}
	.st21{fill:#E9A32C;}
	.st22{fill:#D48112;}
	.st23{fill:none;stroke:#385C57;stroke-width:2;stroke-miterlimit:10;}
	.st24{fill:#AF754E;}
	.st25{fill:#98633E;}
	.st26{fill:none;stroke:#F48D53;stroke-width:2.0298;stroke-miterlimit:10;}
	.st27{fill:none;stroke:#5D9E9B;stroke-width:5;stroke-linejoin:round;stroke-miterlimit:10;}
	.st28{fill:#6E5336;}
	.st29{fill:none;stroke:#385C57;stroke-width:0.26;stroke-miterlimit:10;}
	.st30{fill:none;stroke:#F48D53;stroke-width:0.416;stroke-miterlimit:10;}
	.st31{fill:none;stroke:#5D9E9B;stroke-width:1.3868;stroke-linejoin:round;stroke-miterlimit:10;}
	.st32{fill:none;stroke:#EAA42C;stroke-width:3.9908;stroke-miterlimit:10;}
	.st33{fill:#F9E6D2;}
	.st34{fill:#FFDC6F;}
	.st35{fill:none;stroke:#497D76;stroke-width:4;stroke-linecap:round;stroke-miterlimit:10;}
	.st36{fill:none;stroke:#EAA42C;stroke-width:4;stroke-miterlimit:10;}
	.st37{clip-path:url(#SVGID_00000102511867351190240050000004949905470091660966_);}
	.st38{fill:none;stroke:#F9CD98;stroke-width:4;stroke-linejoin:round;stroke-miterlimit:10;}
	.st39{fill:none;stroke:#EAA42C;stroke-width:0.7893;stroke-miterlimit:10;}
	.st40{fill:none;stroke:#497D76;stroke-width:0.7912;stroke-linecap:round;stroke-miterlimit:10;}
	.st41{fill:none;stroke:#EAA42C;stroke-width:0.7912;stroke-miterlimit:10;}
	.st42{clip-path:url(#SVGID_00000074435206267488980540000003358526300863146904_);}
	.st43{fill:none;stroke:#F9CD98;stroke-width:0.7912;stroke-linejoin:round;stroke-miterlimit:10;}
	.st44{fill:#385C57;}
	.st45{fill:#F48D53;}
	.st46{fill:none;}
	.st47{fill:#F9CD98;}
	.st48{fill:none;stroke:#4C8785;stroke-width:2.0284;stroke-linecap:round;stroke-miterlimit:10;}
	.st49{fill:none;stroke:#4C8785;stroke-width:2;stroke-miterlimit:10;}
	.st50{clip-path:url(#SVGID_00000078724570293929539870000009411914939868551327_);fill:#8FBCBA;}
	.st51{clip-path:url(#SVGID_00000078724570293929539870000009411914939868551327_);fill:#76ADAA;}
	.st52{clip-path:url(#SVGID_00000078724570293929539870000009411914939868551327_);fill:#D9E8E8;}
	
		.st53{clip-path:url(#SVGID_00000078724570293929539870000009411914939868551327_);fill:none;stroke:#FFFFFF;stroke-width:0.5132;stroke-miterlimit:10;}
	
		.st54{clip-path:url(#SVGID_00000078724570293929539870000009411914939868551327_);fill:none;stroke:#FFFFFF;stroke-width:0.4689;stroke-miterlimit:10;}
	.st55{fill:none;stroke:#4C8785;stroke-width:1.268;stroke-linecap:round;stroke-miterlimit:10;}
	.st56{fill:none;stroke:#4C8785;stroke-width:1.2503;stroke-miterlimit:10;}
	.st57{clip-path:url(#SVGID_00000183237909128750989660000002781474795071956877_);fill:#8FBCBA;}
	.st58{clip-path:url(#SVGID_00000183237909128750989660000002781474795071956877_);fill:#76ADAA;}
	.st59{fill:#D6925B;}
	.st60{fill:#D89E68;}
	.st61{fill:#EABA8B;}
	.st62{fill:#97623E;}
	.st63{fill:none;stroke:#97623E;stroke-width:1.3189;stroke-linecap:round;stroke-miterlimit:10;}
	.st64{fill:none;stroke:#76ADAA;stroke-width:1.9507;stroke-miterlimit:10;}
	.st65{fill:#FFD366;}
	.st66{fill:none;stroke:#4C8785;stroke-width:1.3005;stroke-miterlimit:10;}
	.st67{fill:#76ADAA;}
	.st68{clip-path:url(#SVGID_00000000211091071198135730000014631113340505683346_);fill:#8FBCBA;}
	.st69{clip-path:url(#SVGID_00000000211091071198135730000014631113340505683346_);fill:#76ADAA;}
	.st70{fill:none;stroke:#97623E;stroke-width:2.0284;stroke-linecap:round;stroke-miterlimit:10;}
	.st71{fill:none;stroke:#76ADAA;stroke-width:3;stroke-miterlimit:10;}
</style>
<g>
	<g>
		<path class="st0" d="M22.4,115.5C20.2,118.4,87.6-36.8,210.8,8.2c133.2,48.6,142.6,50,210.6,59.4c155.3,21.4,189.8,322.7-57,368.9
			C68.7,491.8-23.6,227.9,22.4,115.5z"/>
	</g>
	<g>
		<path class="st7" d="M518.6,198c0.2-1.4,6.5-40.3-35.9-40.2c-43.1,0.2-34.2,32.7-34.2,32.7s-6.4-23.2-39-22.9
			c-41.6,0.3-47.7,38.1-47.7,38.1v97.8h170.6c13.9-39.8,14.6-82.6,4.5-120.9C528.3,184.8,519.7,189.2,518.6,198z"/>
	</g>
	<g>
		<path class="st67" d="M161,323.6c-44.4-12.9-84-5.6-105.8,0.8c51.9,80.5,151.7,141.5,309.2,112.1c98.3-18.4,152-77.3,171.2-142.9
			C448.2,279.1,226.1,342.5,161,323.6z"/>
	</g>
	<g>
		<path class="st46" d="M22.4,115.5C20.2,118.4,87.6-36.8,210.8,8.2c133.2,48.6,142.6,50,210.6,59.4
			c155.3,21.4,189.8,322.7-57,368.9C68.7,491.8-23.6,227.9,22.4,115.5z"/>
	</g>
	<g>
		<g>
			<polygon class="st59" points="138.5,162.8 326.4,150 470.5,240.5 199.1,233.4 			"/>
		</g>
		<g>
			<g>
				<polygon class="st60" points="470.5,354.7 138.5,354.7 257.1,228 470.5,240.5 				"/>
			</g>
			<g>
				<polygon class="st61" points="265.2,354.7 119.3,354.7 119.3,240.8 257.1,228 				"/>
			</g>
		</g>
		<g>
			<path class="st61" d="M138.5,162.8c0,0,0,0,4.3,29.8l177.5-12.7l6.1-29.9L138.5,162.8z"/>
		</g>
	</g>
	<g>
		<g>
			<circle class="st62" cx="164" cy="265.9" r="5.2"/>
		</g>
		<g>
			<circle class="st62" cx="201.2" cy="265.9" r="5.2"/>
		</g>
		<g>
			<path class="st62" d="M175.6,278.2c-0.6,0-1-0.4-1.1-1c-0.1-3,1.3-8.9,7.5-9.4c6.2-0.5,8.8,5.5,9.4,8.7c0.1,0.6-0.3,1.1-0.9,1.2
				c-0.6,0.1-1.1-0.3-1.2-0.9c0-0.3-1.3-7.4-7.1-6.9c-5.7,0.5-5.5,6.9-5.5,7.2C176.7,277.7,176.2,278.2,175.6,278.2
				C175.6,278.2,175.6,278.2,175.6,278.2z"/>
		</g>
	</g>
	<g>
		<path class="st67" d="M85.6,330.3l-2.8-1.4c0.3-0.5,25.5-50.9,5.2-106.3c-8-21.8-17.1-49.7-16.8-72.8
			c0.2-24.6,10.6-40.4,31.6-48.3l1.1,3c-43,16.2-31.6,65.8-12.9,117.1C111.7,278.3,85.8,329.8,85.6,330.3z"/>
	</g>
	<g>
		<path class="st20" d="M106.6,105.4c-0.8-0.5-1.7,0.3-1.4,1.1c1.8,5.6,6.8,19.4,15,22.2c10.2,3.5,6.8-8.4,1.6-12.9
			C117.9,112.5,110.3,107.7,106.6,105.4z"/>
	</g>
	<g>
		<path class="st20" d="M105.2,103.1c-0.9,0.1-1.2,1.2-0.5,1.7c4.7,3.6,16.8,11.9,25,9.5c10.4-3.1,0.7-10.8-6.1-11.4
			C118.5,102.4,109.5,102.8,105.2,103.1z"/>
	</g>
	<g>
		<path class="st6" d="M348.1,405.5c-0.3-0.3-8.3-7.9-8.2-15.6c0-3,1.2-5.7,3.6-7.8c2-1.8,4-2.5,6.1-2c2.4,0.5,4.7,2.4,7,5.8
			c-0.6-4.4-0.5-9.7,1.9-13.5c1.8-2.7,4.6-4.3,8.3-4.6c3.8-0.3,6.7,0.7,8.7,3.2c5.2,6.5,2,21.3-1.5,32.5l-2-0.6
			c2.8-8.8,6.7-24.5,1.9-30.5c-1.5-1.9-3.8-2.7-6.9-2.4c-3.1,0.3-5.3,1.5-6.7,3.6c-4.2,6.4-0.1,19-0.1,19.1l-2,0.8
			c-3.9-8.6-7.1-10.9-9.1-11.3c-1.4-0.3-2.8,0.2-4.3,1.5c-2,1.8-2.9,3.8-2.9,6.3c-0.1,6.9,7.5,14,7.5,14.1L348.1,405.5z"/>
	</g>
	<g>
		<circle class="st65" cx="103.8" cy="102.9" r="5.3"/>
	</g>
	<g>
		<path class="st20" d="M149.9,393.1c-0.9,0.1-1.2,1.2-0.5,1.7c4.7,3.6,16.8,11.9,25,9.5c10.4-3.1,0.7-10.8-6.1-11.4
			C163.2,392.4,154.2,392.8,149.9,393.1z"/>
	</g>
	<g>
		<path class="st20" d="M167.1,371.8c-0.9-0.3-1.6,0.7-1.1,1.4c3.2,5,11.7,16.9,20.2,17.5c10.8,0.7,4.4-9.9-1.8-12.9
			C179.8,375.7,171.2,373,167.1,371.8z"/>
	</g>
	<g>
		<path class="st20" d="M116.5,165.6c-0.4-0.8-1.6-0.6-1.8,0.3c-1.2,5.8-3.6,20.3,2.1,26.7c7.2,8.1,10.1-4,7.7-10.4
			C122.8,177.4,118.6,169.4,116.5,165.6z"/>
	</g>
</g>
</svg>
