<svg width="265" height="198" viewBox="0 0 265 198" fill="none" xmlns="http://www.w3.org/2000/svg">
<g clip-path="url(#clip0_1524_73838)">
<path d="M71.9998 75C81.7998 77.5 81.5998 87.2 81.5998 87.2C81.5998 87.2 71.6998 85.4 71.9998 75Z" fill="#5D9E9B"/>
<path d="M175.3 24C137.8 13.9 55.3 -28.6 32.8 86.3C8.59998 209.8 204.8 214.1 251.4 146C269.1 120.1 286.3 54 175.3 24Z" fill="#FAF3E8"/>
<path d="M73.5996 77.9L119.4 63.5L158.9 75.3L111.6 90.3L73.5996 77.9Z" fill="#AF754E"/>
<path d="M120 66.4C118.3 63.8 115.3 60.6 109.2 59.8C109.2 59.8 101.6 59 99.1001 68.1C97.8001 72.7 100.8 78.5 100.8 78.5C100.6 78.7 100.5 79.1 100.7 79.4C100.9 79.9 101.3 80 101.6 80C101.1 80.7 101.9 81.1 102.6 81.3C103.8 82.9 105.5 84.2 107.4 85.1C113.3 87.6 119.5 84.8 121.9 78.6C121.9 78.7 124.4 73.1 120 66.4Z" fill="#FFCF4A"/>
<path d="M118.6 77.1C118.5 77.1 118.4 77.1 118.4 77C118.4 77 118.4 76.9 118.5 76.9C118.8 76.9 119 76.9 119.2 76.7C119.4 76.6 119.6 76.3 119.6 76.1C119.6 76 119.6 75.8 119.5 75.7C119.4 75.5 119.2 75.4 119 75.3C119 75.3 119 75.3 118.9 75.2V75.1C118.9 75.1 119 75.1 119 75C119.4 74.8 119.8 74.6 119.8 74.3C119.9 74 119.8 73.7 119.6 73.5C119.4 73.3 119.1 73.3 118.8 73.4H118.7V73.3C119 73.2 119.4 73.2 119.6 73.4C119.9 73.6 120 74 119.9 74.3C119.8 74.7 119.4 74.9 119 75.1C119.2 75.2 119.3 75.3 119.4 75.5C119.5 75.7 119.6 75.8 119.6 76C119.6 76.3 119.4 76.5 119.2 76.7C119.1 77 118.9 77.1 118.6 77.1Z" fill="#F7B82B"/>
<path d="M107.8 59.9C107.6 59.2 107 59 106.3 58.9C105.6 58.9 104.9 59.2 104.5 59.8C104.4 60 104.2 60.2 104.2 60.3C104 60.8 104.1 61.5 104.4 62" fill="#FFCF4A"/>
<path d="M109.4 63C109.3 62.2 108.6 61.9 107.8 61.7C107 61.6 106.2 61.9 105.7 62.4C105.5 62.6 105.4 62.8 105.2 63C104.9 63.6 104.9 64.3 105.2 64.9" fill="#FFCF4A"/>
<path d="M118.5 83.3C118.3 80.2 117.2 76 112.2 72.3C112.2 72.3 106 68 99.3003 74.7C95.9003 78.1 95.8003 84.6 95.8003 84.6C95.5003 84.6 95.3003 85 95.2003 85.3C95.1003 85.9 95.4003 86.1 95.7003 86.3C94.9003 86.6 95.4003 87.4 95.9003 87.9C96.2003 89.9 97.0003 91.8 98.3003 93.5C102.2 98.5 109.1 99.1 114.1 94.8C114.2 95 119.1 91.3 118.5 83.3Z" fill="#FFDC6F"/>
<path d="M112.8 92.2C112.6 92.2 112.3 92.1 112 92V91.9H112.1C112.3 92.1 112.6 92.1 112.8 92.1C113.1 92.1 113.3 92 113.4 91.8C113.5 91.7 113.5 91.5 113.5 91.4C113.5 91.2 113.4 90.9 113.2 90.8V90.7C113.2 90.7 113.2 90.7 113.3 90.7C113.4 90.7 113.4 90.7 113.5 90.7C113.9 90.7 114.3 90.8 114.6 90.5C114.8 90.3 114.9 90 114.8 89.7C114.7 89.4 114.4 89.2 114.2 89.2C114.2 89.2 114.1 89.2 114.1 89.1C114.1 89.1 114.1 89 114.2 89C114.5 89 114.8 89.3 115 89.6C115.1 89.9 115 90.3 114.8 90.5C114.5 90.8 114 90.8 113.6 90.8C113.7 91 113.8 91.2 113.8 91.3C113.8 91.5 113.8 91.7 113.7 91.8C113.4 92 113.2 92.2 112.8 92.2Z" fill="#F7B82B"/>
<path d="M111 71.8C111.2 71.1 110.8 70.6 110.1 70.2C109.5 69.8 108.7 69.8 108.1 70.1C107.9 70.2 107.7 70.3 107.5 70.4C107 70.8 106.8 71.4 106.9 72" fill="#FFDC6F"/>
<path d="M110.9 75.3C111.2 74.6 110.8 73.9 110.2 73.4C109.6 72.9 108.7 72.8 108 73C107.8 73.1 107.5 73.2 107.3 73.3C106.7 73.6 106.4 74.3 106.4 75" fill="#FFDC6F"/>
<path d="M98.0002 87.4C100 85 102.1 81.2 101 75.1C101 75.1 99.5002 67.7 90.0002 67.9C85.2002 68 80.6002 72.6 80.6002 72.6C80.4002 72.4 79.9002 72.5 79.7002 72.7C79.3002 73.1 79.3002 73.5 79.4002 73.8C78.6002 73.5 78.4002 74.4 78.5002 75.1C77.3002 76.7 76.6002 78.7 76.4002 80.8C75.8002 87.1 80.3002 92.3 86.9002 92.7C86.8002 92.9 92.9002 93.6 98.0002 87.4Z" fill="#FFDC6F"/>
<path d="M88.2998 90.2C88.0998 90.2 87.8998 90.1 87.6998 90C87.4998 89.8 87.3998 89.6 87.2998 89.3C87.2998 89.3 87.2998 89.2 87.3998 89.2C87.3998 89.2 87.4998 89.2 87.4998 89.3C87.5998 89.6 87.6998 89.8 87.8998 89.9C88.0998 90.1 88.3998 90.1 88.5998 90.1C88.6998 90.1 88.8998 90 88.9998 89.8C89.0998 89.6 89.1998 89.4 89.1998 89.2V89.1H89.2998L89.3998 89.2C89.6998 89.5 89.9998 89.8 90.2998 89.8C90.5998 89.8 90.7998 89.6 90.9998 89.3C91.0998 89 91.0998 88.7 90.8998 88.5V88.4H90.9998C91.1998 88.6 91.2998 89 91.1998 89.3C91.0998 89.6 90.7998 89.8 90.3998 89.8C89.9998 89.8 89.6998 89.5 89.3998 89.2C89.3998 89.4 89.2998 89.6 89.1998 89.7C89.0998 89.9 88.8998 90 88.7998 90C88.4998 90.2 88.3998 90.2 88.2998 90.2Z" fill="#F7B82B"/>
<path d="M100.5 73.9C101.1 73.5 101.1 72.9 101 72.2C100.8 71.5 100.3 71 99.6 70.7C99.4 70.6 99.2 70.6 99 70.5C98.4 70.4 97.8 70.7 97.5 71.2" fill="#FFDC6F"/>
<path d="M98.0004 76.3C98.7004 76 98.9004 75.2 98.7004 74.4C98.6004 73.6 98.1004 72.9 97.4004 72.6C97.2004 72.5 97.0004 72.4 96.7004 72.3C96.0004 72.2 95.3004 72.4 94.9004 72.9" fill="#FFDC6F"/>
<path d="M119.399 63.5L128.099 48L165.499 61.6L158.899 75.3" fill="#EABA8B"/>
<path d="M111.837 90.2957L111.337 90.3043L112.253 143.194L112.753 143.185L111.837 90.2957Z" fill="#EABA8B"/>
<path d="M139.9 75.8C140.1 72.7 139.7 68.4 135.3 64C135.3 64 129.8 58.8 122.2 64.5C118.3 67.4 117.2 73.8 117.2 73.8C116.9 73.8 116.6 74.1 116.5 74.5C116.4 75 116.6 75.4 116.9 75.6C116.1 75.8 116.4 76.7 116.9 77.2C116.9 79.2 117.4 81.3 118.4 83.1C121.5 88.6 128.2 90.2 133.8 86.7C134 86.7 139.3 83.7 139.9 75.8Z" fill="#FFCF4A"/>
<path d="M133.2 83.7H133.1C132.8 83.7 132.6 83.6 132.4 83.3V83.2H132.5C132.7 83.4 132.9 83.5 133.2 83.5C133.5 83.5 133.7 83.4 133.9 83.3C134 83.2 134 83 134 82.9C134 82.7 134 82.4 133.8 82.3V82.2C133.8 82.2 133.8 82.2 133.9 82.2C134 82.2 134 82.2 134.1 82.2C134.5 82.3 134.9 82.4 135.2 82.2C135.4 82 135.5 81.7 135.5 81.5C135.4 81.2 135.2 81 134.9 80.9C134.9 80.9 134.8 80.9 134.8 80.8C134.8 80.8 134.8 80.7 134.9 80.7C135.2 80.8 135.5 81 135.6 81.4C135.7 81.7 135.5 82.1 135.3 82.3C134.9 82.6 134.5 82.5 134.1 82.4C134.2 82.6 134.2 82.8 134.2 83C134.2 83.2 134.1 83.4 134 83.5C133.7 83.6 133.4 83.7 133.2 83.7Z" fill="#F7B82B"/>
<path d="M134.2 63.2C134.5 62.5 134.1 62 133.6 61.5C133.1 61.1 132.3 60.9 131.6 61.1C131.4 61.2 131.2 61.2 131 61.3C130.5 61.6 130.2 62.2 130.1 62.8" fill="#FFCF4A"/>
<path d="M133.6 66.7C134 66 133.7 65.3 133.1 64.7C132.6 64.1 131.7 63.9 131 64C130.8 64 130.5 64.1 130.3 64.2C129.7 64.5 129.2 65.1 129.2 65.7" fill="#FFCF4A"/>
<path d="M153.9 85.9C155.9 83.5 158 79.7 156.9 73.6C156.9 73.6 155.4 66.2 145.9 66.4C141.1 66.5 136.5 71.1 136.5 71.1C136.3 70.9 135.8 71 135.6 71.2C135.2 71.6 135.2 72 135.3 72.3C134.5 72 134.3 72.9 134.4 73.6C133.2 75.2 132.5 77.2 132.3 79.3C131.7 85.6 136.2 90.8 142.8 91.2C142.8 91.4 148.8 92.1 153.9 85.9Z" fill="#FFDC6F"/>
<path d="M144.3 88.7C144.1 88.7 143.9 88.6 143.7 88.5C143.5 88.3 143.4 88.1 143.3 87.8C143.3 87.8 143.3 87.7 143.4 87.7C143.4 87.7 143.5 87.7 143.5 87.8C143.6 88.1 143.7 88.3 143.9 88.4C144.1 88.6 144.4 88.6 144.6 88.6C144.7 88.6 144.9 88.5 145 88.3C145.1 88.1 145.2 87.9 145.2 87.7V87.6H145.3L145.4 87.7C145.7 88 145.9 88.3 146.3 88.3C146.6 88.3 146.8 88.1 147 87.8C147.1 87.5 147.1 87.2 146.9 87V86.9H147C147.2 87.1 147.3 87.5 147.2 87.8C147.1 88.1 146.8 88.3 146.4 88.3C146 88.3 145.7 88 145.4 87.7C145.4 87.9 145.3 88.1 145.2 88.2C145.1 88.4 144.9 88.5 144.8 88.5C144.4 88.7 144.4 88.7 144.3 88.7Z" fill="#F7B82B"/>
<path d="M156.5 72.3C157.1 71.9 157.1 71.3 157 70.6C156.8 69.9 156.3 69.4 155.6 69.1C155.4 69 155.2 69 155 68.9C154.4 68.8 153.8 69.1 153.5 69.6" fill="#FFDC6F"/>
<path d="M153.999 74.8C154.699 74.5 154.899 73.7 154.699 72.9C154.599 72.1 154.099 71.4 153.399 71.1C153.199 71 152.999 70.9 152.699 70.8C151.999 70.7 151.299 70.9 150.899 71.4" fill="#FFDC6F"/>
<path d="M132.2 77C130.5 74.4 127.5 71.2 121.4 70.4C121.4 70.4 113.8 69.6 111.3 78.7C110 83.3 113 89.1 113 89.1C112.8 89.3 112.7 89.7 112.9 90C113.1 90.5 113.5 90.6 113.8 90.6C113.3 91.3 114.1 91.7 114.8 91.9C116 93.5 117.7 94.8 119.6 95.7C125.5 98.2 131.7 95.4 134.1 89.2C134.1 89.3 136.6 83.7 132.2 77Z" fill="#FFDC6F"/>
<path d="M130.801 87.6C130.701 87.6 130.601 87.6 130.601 87.5C130.601 87.5 130.601 87.4 130.701 87.4C131.001 87.4 131.201 87.4 131.401 87.2C131.601 87.1 131.801 86.8 131.801 86.6C131.801 86.5 131.801 86.3 131.701 86.2C131.601 86 131.401 85.9 131.201 85.8C131.201 85.8 131.201 85.8 131.101 85.7V85.6C131.101 85.6 131.201 85.6 131.201 85.5C131.601 85.3 132.001 85.1 132.101 84.8C132.201 84.5 132.101 84.2 131.901 84C131.701 83.8 131.401 83.8 131.101 83.9H131.001V83.8C131.301 83.7 131.701 83.7 131.901 83.9C132.201 84.1 132.301 84.5 132.201 84.8C132.101 85.2 131.701 85.4 131.301 85.6C131.501 85.7 131.601 85.8 131.701 86C131.801 86.2 131.901 86.3 131.901 86.5C131.901 86.8 131.701 87 131.501 87.2C131.401 87.6 131.101 87.6 130.801 87.6Z" fill="#F7B82B"/>
<path d="M120 70.5C119.8 69.8 119.2 69.6 118.5 69.5C117.8 69.5 117.1 69.8 116.7 70.4C116.6 70.6 116.4 70.8 116.4 70.9C116.2 71.4 116.3 72.1 116.6 72.6" fill="#FFDC6F"/>
<path d="M121.6 73.6C121.5 72.8 120.8 72.5 120 72.3C119.2 72.2 118.4 72.5 117.9 73C117.7 73.2 117.6 73.4 117.4 73.6C117.1 74.2 117.1 74.9 117.4 75.5" fill="#FFDC6F"/>
<path d="M73.5 77.5V133.1L112.5 143.2V87.2L73.5 77.5Z" fill="#D89E68"/>
<path d="M105.099 106.8C106.867 106.8 108.299 105.367 108.299 103.6C108.299 101.833 106.867 100.4 105.099 100.4C103.332 100.4 101.899 101.833 101.899 103.6C101.899 105.367 103.332 106.8 105.099 106.8Z" fill="#AF754E"/>
<path d="M111.7 90L101.9 109.2L66.2998 93.9L73.4998 77.5" fill="#EABA8B"/>
<path d="M112.5 87.6L158.9 75.3V127.1L112.5 143.2V87.6Z" fill="#D89E68"/>
<path d="M118.7 99.9L118.9 108.1L130.6 105.6V96.3L118.7 99.9Z" fill="#FAF2E7"/>
<path d="M111.836 90.1951L111.336 90.2038L112.252 143.093L112.752 143.085L111.836 90.1951Z" fill="#EABA8B"/>
<path d="M137.3 102.6L183.1 88.3L222.6 100.1L175.2 115.1L137.3 102.6Z" fill="#AF754E"/>
<path d="M180.812 100.015C181.875 94.3703 177.896 88.8835 171.926 87.7596C165.956 86.6357 160.255 90.3003 159.193 95.9447C158.13 101.589 162.108 107.076 168.078 108.2C174.048 109.324 179.749 105.659 180.812 100.015Z" fill="#E9A32C"/>
<path d="M166.548 89.9977C166.589 89.7806 166.446 89.5715 166.229 89.5306C166.011 89.4898 165.802 89.6326 165.761 89.8497C165.721 90.0668 165.863 90.2759 166.081 90.3168C166.298 90.3577 166.507 90.2148 166.548 89.9977Z" fill="#D48112"/>
<path d="M164.036 91.498C164.077 91.2809 163.934 91.0718 163.717 91.0309C163.5 90.9901 163.291 91.1329 163.25 91.35C163.209 91.5671 163.352 91.7762 163.569 91.8171C163.786 91.858 163.995 91.7151 164.036 91.498Z" fill="#D48112"/>
<path d="M166.075 92.7432C166.116 92.5261 165.973 92.3169 165.756 92.2761C165.539 92.2352 165.33 92.3781 165.289 92.5952C165.248 92.8123 165.391 93.0214 165.608 93.0622C165.825 93.1031 166.034 92.9603 166.075 92.7432Z" fill="#D48112"/>
<path d="M169.241 90.6557C169.282 90.4386 169.139 90.2295 168.922 90.1886C168.705 90.1478 168.496 90.2906 168.455 90.5077C168.414 90.7248 168.557 90.9339 168.774 90.9748C168.991 91.0157 169.2 90.8728 169.241 90.6557Z" fill="#D48112"/>
<path d="M168.415 93.1682C168.456 92.9511 168.313 92.742 168.096 92.7011C167.879 92.6602 167.67 92.8031 167.629 93.0202C167.588 93.2373 167.731 93.4464 167.948 93.4873C168.165 93.5281 168.374 93.3853 168.415 93.1682Z" fill="#D48112"/>
<path d="M162.167 93.7686C162.208 93.5515 162.065 93.3424 161.848 93.3015C161.631 93.2606 161.422 93.4035 161.381 93.6206C161.34 93.8377 161.483 94.0468 161.7 94.0877C161.917 94.1285 162.126 93.9857 162.167 93.7686Z" fill="#D48112"/>
<path d="M164.6 95.1765C164.641 94.9594 164.498 94.7503 164.281 94.7094C164.064 94.6686 163.855 94.8114 163.814 95.0285C163.773 95.2456 163.916 95.4547 164.133 95.4956C164.35 95.5365 164.56 95.3936 164.6 95.1765Z" fill="#D48112"/>
<path d="M161.754 96.5781C161.795 96.361 161.652 96.1519 161.435 96.111C161.218 96.0701 161.008 96.213 160.968 96.4301C160.927 96.6472 161.07 96.8563 161.287 96.8972C161.504 96.938 161.713 96.7952 161.754 96.5781Z" fill="#D48112"/>
<path d="M174.499 89.7C174.499 89.6 174.399 89.6 174.399 89.5C174.399 89.4 174.399 89.4 174.399 89.3C174.499 89.1 174.899 89.2 175.199 89.4C175.499 89.5 175.599 89.7 175.699 89.9C175.699 90 175.699 90 175.699 90.1C175.599 90.3 175.199 90.2 174.899 90C174.699 89.9 174.599 89.8 174.499 89.7ZM175.499 89.8C175.399 89.7 175.299 89.6 175.099 89.5C174.799 89.3 174.499 89.3 174.499 89.4C174.499 89.4 174.499 89.4 174.499 89.5C174.499 89.6 174.699 89.8 174.899 89.9C175.199 90.1 175.499 90.1 175.499 90C175.499 90 175.499 90 175.499 89.9C175.599 89.9 175.599 89.9 175.499 89.8Z" fill="#6E5336"/>
<path d="M200.087 103.321C201.15 97.6767 197.172 92.19 191.202 91.0661C185.232 89.9422 179.531 93.6067 178.468 99.2511C177.405 104.896 181.384 110.382 187.354 111.506C193.324 112.63 199.025 108.966 200.087 103.321Z" fill="#E9A32C"/>
<path d="M185.804 93.4025C185.845 93.1854 185.703 92.9763 185.485 92.9354C185.268 92.8945 185.059 93.0374 185.018 93.2545C184.977 93.4716 185.12 93.6807 185.337 93.7216C185.555 93.7624 185.764 93.6196 185.804 93.4025Z" fill="#D48112"/>
<path d="M183.213 94.786C183.254 94.5689 183.111 94.3598 182.894 94.3189C182.677 94.2781 182.467 94.4209 182.427 94.638C182.386 94.8551 182.529 95.0642 182.746 95.1051C182.963 95.146 183.172 95.0031 183.213 94.786Z" fill="#D48112"/>
<path d="M185.332 96.1479C185.373 95.9308 185.23 95.7217 185.013 95.6808C184.796 95.64 184.587 95.7828 184.546 95.9999C184.505 96.217 184.648 96.4261 184.865 96.467C185.082 96.5079 185.291 96.365 185.332 96.1479Z" fill="#D48112"/>
<path d="M188.498 94.0605C188.539 93.8434 188.396 93.6343 188.179 93.5934C187.962 93.5525 187.753 93.6954 187.712 93.9125C187.671 94.1296 187.814 94.3387 188.031 94.3796C188.248 94.4204 188.457 94.2776 188.498 94.0605Z" fill="#D48112"/>
<path d="M187.672 96.5729C187.713 96.3558 187.57 96.1467 187.353 96.1059C187.136 96.065 186.926 96.2078 186.886 96.4249C186.845 96.642 186.988 96.8512 187.205 96.892C187.422 96.9329 187.631 96.79 187.672 96.5729Z" fill="#D48112"/>
<path d="M181.425 97.1734C181.465 96.9563 181.323 96.7471 181.106 96.7063C180.888 96.6654 180.679 96.8083 180.638 97.0254C180.598 97.2424 180.74 97.4516 180.958 97.4924C181.175 97.5333 181.384 97.3904 181.425 97.1734Z" fill="#D48112"/>
<path d="M183.857 98.5814C183.898 98.3643 183.755 98.1552 183.538 98.1143C183.321 98.0734 183.112 98.2163 183.071 98.4334C183.03 98.6505 183.173 98.8596 183.39 98.9004C183.607 98.9413 183.816 98.7985 183.857 98.5814Z" fill="#D48112"/>
<path d="M181.011 99.9828C181.051 99.7657 180.909 99.5566 180.691 99.5157C180.474 99.4749 180.265 99.6177 180.224 99.8348C180.184 100.052 180.326 100.261 180.543 100.302C180.761 100.343 180.97 100.2 181.011 99.9828Z" fill="#D48112"/>
<path d="M193.7 93C193.7 92.9 193.6 92.9 193.6 92.8C193.6 92.7 193.6 92.7 193.6 92.6C193.7 92.4 194.1 92.5 194.4 92.7C194.7 92.8 194.8 93 194.9 93.2C194.9 93.3 194.9 93.3 194.9 93.4C194.8 93.6 194.4 93.5 194.1 93.3C194 93.3 193.8 93.2 193.7 93ZM194.8 93.2C194.7 93.1 194.6 93 194.4 92.9C194.1 92.7 193.8 92.7 193.8 92.8C193.8 92.8 193.8 92.8 193.8 92.9C193.8 93 194 93.2 194.2 93.3C194.5 93.5 194.8 93.5 194.8 93.4C194.8 93.4 194.8 93.4 194.8 93.3V93.2Z" fill="#6E5336"/>
<path d="M165.322 108.211C166.384 102.566 162.406 97.0795 156.436 95.9556C150.466 94.8317 144.765 98.4963 143.702 104.141C142.64 109.785 146.618 115.272 152.588 116.396C158.558 117.52 164.259 113.855 165.322 108.211Z" fill="#E9A32C"/>
<path d="M151.039 98.2919C151.08 98.0748 150.937 97.8657 150.72 97.8249C150.503 97.784 150.294 97.9268 150.253 98.1439C150.212 98.361 150.355 98.5701 150.572 98.611C150.789 98.6519 150.998 98.509 151.039 98.2919Z" fill="#D48112"/>
<path d="M148.447 99.6755C148.488 99.4584 148.345 99.2493 148.128 99.2084C147.911 99.1675 147.702 99.3104 147.661 99.5275C147.62 99.7446 147.763 99.9537 147.98 99.9946C148.197 100.035 148.406 99.8926 148.447 99.6755Z" fill="#D48112"/>
<path d="M150.469 101.019C150.509 100.802 150.367 100.593 150.149 100.552C149.932 100.511 149.723 100.654 149.682 100.871C149.642 101.088 149.784 101.297 150.001 101.338C150.219 101.379 150.428 101.236 150.469 101.019Z" fill="#D48112"/>
<path d="M153.732 98.9499C153.773 98.7328 153.63 98.5237 153.413 98.4829C153.196 98.442 152.987 98.5848 152.946 98.8019C152.905 99.019 153.048 99.2282 153.265 99.269C153.482 99.3099 153.691 99.167 153.732 98.9499Z" fill="#D48112"/>
<path d="M152.906 101.462C152.947 101.245 152.804 101.036 152.587 100.995C152.37 100.954 152.161 101.097 152.12 101.314C152.079 101.531 152.222 101.741 152.439 101.781C152.656 101.822 152.865 101.679 152.906 101.462Z" fill="#D48112"/>
<path d="M146.56 102.044C146.601 101.827 146.458 101.618 146.241 101.577C146.024 101.536 145.815 101.679 145.774 101.896C145.733 102.113 145.876 102.323 146.093 102.363C146.31 102.404 146.519 102.261 146.56 102.044Z" fill="#D48112"/>
<path d="M148.993 103.452C149.034 103.235 148.891 103.026 148.674 102.985C148.457 102.944 148.248 103.087 148.207 103.304C148.166 103.521 148.309 103.731 148.526 103.771C148.743 103.812 148.952 103.669 148.993 103.452Z" fill="#D48112"/>
<path d="M146.245 104.872C146.286 104.655 146.143 104.446 145.926 104.405C145.709 104.364 145.5 104.507 145.459 104.724C145.418 104.941 145.561 105.151 145.778 105.191C145.995 105.232 146.204 105.089 146.245 104.872Z" fill="#D48112"/>
<path d="M158.899 97.9C158.899 97.8 158.799 97.8 158.799 97.7C158.799 97.6 158.799 97.6 158.799 97.5C158.899 97.3 159.299 97.4 159.599 97.6C159.899 97.7 159.999 97.9 160.099 98.1C160.099 98.2 160.099 98.2 160.099 98.3C159.999 98.5 159.599 98.4 159.299 98.2C159.199 98.2 158.999 98 158.899 97.9ZM159.999 98.1C159.899 98 159.799 97.9 159.599 97.8C159.299 97.6 158.999 97.6 158.999 97.7C158.999 97.7 158.999 97.7 158.999 97.8C158.999 97.9 159.199 98.1 159.399 98.2C159.699 98.4 159.999 98.4 159.999 98.3C159.999 98.3 159.999 98.3 159.999 98.2C159.999 98.1 159.999 98.1 159.999 98.1Z" fill="#6E5336"/>
<path d="M184.481 111.597C185.543 105.953 181.565 100.466 175.595 99.3419C169.625 98.218 163.924 101.883 162.861 107.527C161.799 113.171 165.777 118.658 171.747 119.782C177.717 120.906 183.418 117.241 184.481 111.597Z" fill="#E9A32C"/>
<path d="M170.217 101.58C170.257 101.363 170.115 101.154 169.898 101.113C169.68 101.072 169.471 101.215 169.43 101.432C169.39 101.649 169.532 101.858 169.75 101.899C169.967 101.94 170.176 101.797 170.217 101.58Z" fill="#D48112"/>
<path d="M167.705 103.08C167.746 102.863 167.603 102.654 167.386 102.613C167.169 102.572 166.96 102.715 166.919 102.932C166.878 103.149 167.021 103.358 167.238 103.399C167.455 103.44 167.664 103.297 167.705 103.08Z" fill="#D48112"/>
<path d="M169.725 104.424C169.766 104.207 169.623 103.998 169.406 103.957C169.189 103.916 168.98 104.059 168.939 104.276C168.898 104.493 169.041 104.702 169.258 104.743C169.475 104.784 169.685 104.641 169.725 104.424Z" fill="#D48112"/>
<path d="M172.891 102.336C172.932 102.119 172.789 101.91 172.572 101.869C172.355 101.828 172.146 101.971 172.105 102.188C172.064 102.405 172.207 102.615 172.424 102.655C172.641 102.696 172.851 102.553 172.891 102.336Z" fill="#D48112"/>
<path d="M172.065 104.849C172.106 104.632 171.963 104.422 171.746 104.382C171.529 104.341 171.32 104.484 171.279 104.701C171.238 104.918 171.381 105.127 171.598 105.168C171.815 105.209 172.024 105.066 172.065 104.849Z" fill="#D48112"/>
<path d="M165.837 105.351C165.878 105.134 165.735 104.925 165.518 104.884C165.301 104.843 165.091 104.986 165.051 105.203C165.01 105.42 165.153 105.629 165.37 105.67C165.587 105.711 165.796 105.568 165.837 105.351Z" fill="#D48112"/>
<path d="M168.269 106.759C168.31 106.542 168.167 106.333 167.95 106.292C167.733 106.251 167.524 106.394 167.483 106.611C167.442 106.828 167.585 107.037 167.802 107.078C168.019 107.119 168.228 106.976 168.269 106.759Z" fill="#D48112"/>
<path d="M165.423 108.16C165.464 107.943 165.321 107.734 165.104 107.693C164.886 107.652 164.677 107.795 164.637 108.012C164.596 108.229 164.738 108.438 164.956 108.479C165.173 108.52 165.382 108.377 165.423 108.16Z" fill="#D48112"/>
<path d="M178.2 101.3C178.2 101.2 178.1 101.2 178.1 101.1C178.1 101 178.1 101 178.1 100.9C178.2 100.7 178.6 100.8 178.9 101C179.2 101.1 179.3 101.3 179.4 101.5C179.4 101.6 179.4 101.6 179.4 101.7C179.3 101.9 178.9 101.8 178.6 101.6C178.4 101.5 178.3 101.4 178.2 101.3ZM179.2 101.4C179.1 101.3 179 101.2 178.8 101.1C178.5 100.9 178.2 100.9 178.2 101C178.2 101 178.2 101 178.2 101.1C178.2 101.2 178.4 101.4 178.6 101.5C178.9 101.7 179.2 101.7 179.2 101.6C179.2 101.6 179.2 101.6 179.2 101.5C179.3 101.5 179.2 101.5 179.2 101.4Z" fill="#6E5336"/>
<path d="M183.1 88.3L191.7 72.8L229.1 86.4L222.6 100.1" fill="#EABA8B"/>
<path d="M199.131 97.4932C200.194 91.8488 196.216 86.362 190.246 85.2381C184.276 84.1142 178.574 87.7788 177.512 93.4232C176.449 99.0676 180.428 104.554 186.398 105.678C192.368 106.802 198.069 103.138 199.131 97.4932Z" fill="#E9A32C"/>
<path d="M184.848 87.5746C184.889 87.3575 184.746 87.1483 184.529 87.1075C184.312 87.0666 184.103 87.2095 184.062 87.4266C184.021 87.6437 184.164 87.8528 184.381 87.8936C184.598 87.9345 184.808 87.7917 184.848 87.5746Z" fill="#D48112"/>
<path d="M182.257 88.958C182.298 88.7409 182.155 88.5318 181.938 88.4909C181.72 88.4501 181.511 88.5929 181.47 88.81C181.43 89.0271 181.572 89.2362 181.79 89.2771C182.007 89.318 182.216 89.1751 182.257 88.958Z" fill="#D48112"/>
<path d="M184.278 90.3015C184.319 90.0844 184.176 89.8753 183.959 89.8344C183.742 89.7936 183.533 89.9364 183.492 90.1535C183.451 90.3706 183.594 90.5797 183.811 90.6206C184.028 90.6615 184.237 90.5186 184.278 90.3015Z" fill="#D48112"/>
<path d="M187.444 88.2141C187.485 87.997 187.342 87.7879 187.125 87.747C186.908 87.7061 186.699 87.849 186.658 88.0661C186.617 88.2832 186.76 88.4923 186.977 88.5332C187.194 88.574 187.403 88.4312 187.444 88.2141Z" fill="#D48112"/>
<path d="M186.716 90.745C186.756 90.5279 186.614 90.3188 186.397 90.2779C186.179 90.2371 185.97 90.3799 185.929 90.597C185.889 90.8141 186.031 91.0232 186.249 91.0641C186.466 91.105 186.675 90.9621 186.716 90.745Z" fill="#D48112"/>
<path d="M180.37 91.3269C180.411 91.1098 180.268 90.9007 180.051 90.8599C179.834 90.819 179.625 90.9618 179.584 91.1789C179.543 91.396 179.686 91.6051 179.903 91.646C180.12 91.6869 180.329 91.544 180.37 91.3269Z" fill="#D48112"/>
<path d="M182.803 92.7349C182.843 92.5178 182.701 92.3087 182.483 92.2678C182.266 92.2269 182.057 92.3698 182.016 92.5869C181.976 92.804 182.118 93.0131 182.335 93.054C182.553 93.0948 182.762 92.952 182.803 92.7349Z" fill="#D48112"/>
<path d="M179.957 94.1364C179.998 93.9193 179.855 93.7102 179.638 93.6693C179.421 93.6285 179.212 93.7713 179.171 93.9884C179.13 94.2055 179.273 94.4146 179.49 94.4555C179.707 94.4964 179.916 94.3535 179.957 94.1364Z" fill="#D48112"/>
<path d="M192.7 87.2C192.7 87.1 192.6 87.1 192.6 87C192.6 86.9 192.6 86.9 192.6 86.8C192.7 86.6 193.1 86.7 193.4 86.9C193.7 87 193.8 87.2 193.9 87.4C193.9 87.5 193.9 87.5 193.9 87.6C193.8 87.8 193.4 87.7 193.1 87.5C193 87.4 192.8 87.3 192.7 87.2ZM193.8 87.4C193.7 87.3 193.6 87.2 193.4 87.1C193.1 86.9 192.8 86.9 192.8 87C192.8 87 192.8 87 192.8 87.1C192.8 87.2 193 87.4 193.2 87.5C193.5 87.7 193.8 87.7 193.8 87.6C193.8 87.6 193.8 87.6 193.8 87.5C193.8 87.4 193.8 87.4 193.8 87.4Z" fill="#6E5336"/>
<path d="M219.157 102.664C220.219 97.0195 216.241 91.5327 210.271 90.4088C204.301 89.2849 198.6 92.9495 197.537 98.5938C196.475 104.238 200.453 109.725 206.423 110.849C212.393 111.973 218.094 108.308 219.157 102.664Z" fill="#E9A32C"/>
<path d="M204.892 92.6468C204.933 92.4297 204.79 92.2206 204.573 92.1797C204.356 92.1389 204.147 92.2817 204.106 92.4988C204.065 92.7159 204.208 92.925 204.425 92.9659C204.642 93.0067 204.852 92.8639 204.892 92.6468Z" fill="#D48112"/>
<path d="M202.282 94.1286C202.323 93.9115 202.18 93.7024 201.963 93.6615C201.746 93.6207 201.537 93.7635 201.496 93.9806C201.455 94.1977 201.598 94.4068 201.815 94.4477C202.032 94.4886 202.241 94.3457 202.282 94.1286Z" fill="#D48112"/>
<path d="M204.322 95.3739C204.363 95.1568 204.22 94.9476 204.003 94.9068C203.786 94.8659 203.577 95.0088 203.536 95.2259C203.495 95.4429 203.638 95.6521 203.855 95.6929C204.072 95.7338 204.281 95.5909 204.322 95.3739Z" fill="#D48112"/>
<path d="M207.586 93.3049C207.627 93.0878 207.484 92.8787 207.267 92.8378C207.05 92.797 206.84 92.9398 206.8 93.1569C206.759 93.374 206.902 93.5831 207.119 93.624C207.336 93.6649 207.545 93.522 207.586 93.3049Z" fill="#D48112"/>
<path d="M206.741 95.9155C206.782 95.6984 206.639 95.4893 206.422 95.4485C206.205 95.4076 205.996 95.5504 205.955 95.7675C205.914 95.9846 206.057 96.1938 206.274 96.2346C206.491 96.2755 206.7 96.1326 206.741 95.9155Z" fill="#D48112"/>
<path d="M200.513 96.4177C200.553 96.2006 200.411 95.9915 200.193 95.9506C199.976 95.9097 199.767 96.0526 199.726 96.2697C199.685 96.4868 199.828 96.6959 200.045 96.7368C200.263 96.7776 200.472 96.6348 200.513 96.4177Z" fill="#D48112"/>
<path d="M202.846 97.8072C202.887 97.5901 202.744 97.381 202.527 97.3401C202.31 97.2993 202.101 97.4421 202.06 97.6592C202.019 97.8763 202.162 98.0854 202.379 98.1263C202.596 98.1671 202.806 98.0243 202.846 97.8072Z" fill="#D48112"/>
<path d="M200.098 99.2272C200.139 99.0101 199.996 98.8009 199.779 98.7601C199.562 98.7192 199.353 98.8621 199.312 99.0792C199.271 99.2962 199.414 99.5054 199.631 99.5462C199.848 99.5871 200.058 99.4442 200.098 99.2272Z" fill="#D48112"/>
<path d="M212.799 92.3C212.799 92.2 212.699 92.2 212.699 92.1C212.699 92 212.699 92 212.699 91.9C212.799 91.7 213.199 91.8 213.499 92C213.799 92.1 213.899 92.3 213.999 92.5C213.999 92.6 213.999 92.6 213.999 92.7C213.899 92.9 213.499 92.8 213.199 92.6C212.999 92.6 212.899 92.4 212.799 92.3ZM213.799 92.5C213.699 92.4 213.599 92.3 213.399 92.2C213.099 92 212.799 92 212.799 92.1C212.799 92.1 212.799 92.1 212.799 92.2C212.799 92.3 212.999 92.5 213.199 92.6C213.499 92.8 213.799 92.8 213.799 92.7C213.799 92.7 213.799 92.7 213.799 92.6C213.899 92.6 213.899 92.5 213.799 92.5Z" fill="#6E5336"/>
<path d="M176.199 112.4L222.599 100.1V151.9L176.199 167.9V112.4Z" fill="#D89E68"/>
<path d="M182.399 124.6L182.499 132.9L194.199 130.3V121.1L182.399 124.6Z" fill="#FAF2E7"/>
<path d="M137.1 102.3V157.9L176.2 167.9V112L137.1 102.3Z" fill="#D89E68"/>
<path d="M168.8 131.6C170.567 131.6 172 130.167 172 128.4C172 126.633 170.567 125.2 168.8 125.2C167.032 125.2 165.6 126.633 165.6 128.4C165.6 130.167 167.032 131.6 168.8 131.6Z" fill="#AF754E"/>
<path d="M175.399 114.8L165.599 134L129.899 118.7L137.099 102.3" fill="#EABA8B"/>
<path d="M175.533 115.093L175.033 115.102L175.949 167.991L176.449 167.983L175.533 115.093Z" fill="#EABA8B"/>
<path d="M109 81.4C109.3 71.3 118.8 69.4 118.8 69.4C118.8 69.4 119.3 79.4 109 81.4Z" fill="#5D9E9B"/>
<path d="M119.7 66.5C109.7 68.2 106 59.3 106 59.3C106 59.3 115.7 56.9 119.7 66.5Z" fill="#5D9E9B"/>
<path d="M146.9 75.4C136.9 73.9 136.2 64.2 136.2 64.2C136.2 64.2 146.2 65 146.9 75.4Z" fill="#5D9E9B"/>
<path d="M179.1 99.4C186.6 97 190.4 103.5 190.4 103.5C190.4 103.5 183.2 106.4 179.1 99.4Z" fill="#5D9E9B"/>
<path d="M178.7 101.5H178.6L179.1 99.1H179.3L178.7 101.5Z" fill="#365B56"/>
<path d="M193.8 85.2C201.3 82.8 205.1 89.3 205.1 89.3C205.1 89.3 197.9 92.2 193.8 85.2Z" fill="#5D9E9B"/>
<path d="M209.8 103.8C207.1 96.4 213.4 92.4 213.4 92.4C213.4 92.4 216.6 99.4 209.8 103.8Z" fill="#5D9E9B"/>
<path d="M156 109.3C153.3 101.9 159.6 97.9 159.6 97.9C159.6 97.9 162.8 104.9 156 109.3Z" fill="#5D9E9B"/>
<path d="M193.5 87.3H193.3L193.8 84.9H194L193.5 87.3Z" fill="#365B56"/>
<path d="M38.8004 9.5V81H19.5004V37.9C19.5004 35.9 19.6004 33.8 19.7004 31.9C19.1004 32.2 18.3004 32.5 17.5004 33L8.50039 37.6L1.40039 24L24.8004 9.5H38.8004Z" fill="#5D9E9B"/>
</g>
<defs>
<clipPath id="clip0_1524_73838">
<rect width="264" height="198" fill="white" transform="translate(0.5)"/>
</clipPath>
</defs>
</svg>
