<svg width="265" height="198" viewBox="0 0 265 198" fill="none" xmlns="http://www.w3.org/2000/svg">
<g clip-path="url(#clip0_1524_72948)">
<path d="M175.5 24C137.9 13.9 55.3999 -28.6 32.8999 86.3C8.79987 209.8 204.9 214.1 251.5 146C269.2 120.1 286.5 54 175.5 24Z" fill="#FAF3E8"/>
<path d="M117.5 126.8C117.5 126.8 169.1 133.1 188.4 120.9L200.6 181.7C200.6 181.7 159.2 184.7 112.7 177.7L117.5 126.8Z" fill="white"/>
<path d="M70.5998 110L62.2998 150.5C68.3998 152.1 91.4998 160.3 93.3998 160.9C100.6 163.1 107.6 164.6 114.1 162.6L114.9 156C112.1 156.1 107.9 155.1 105.1 154.1C102.5 153.1 98.9998 150.8 98.4998 148.1C98.0998 146 99.2998 143.1 100.9 141.7C102.1 140.6 104 139.1 105.5 138.5C112.4 135.7 115.3 135.3 122 141.1" fill="#FFCEA9"/>
<path d="M72.3994 110.9C99.3994 103.4 127.499 100.9 127.499 100.9C127.499 100.9 131.899 100.5 132.299 103.5C132.899 107 127.799 107.4 127.799 107.4C113.999 109.8 109.899 113 109.899 113C124.499 108.1 135.199 112.1 139.899 115.4C143.799 118.2 141.199 120.8 141.199 120.8C139.499 123.6 134.499 121 134.499 121C121.999 116.7 113.199 122.3 113.199 122.3C120.099 120.6 133.699 124.6 140.399 133C144.799 138.4 141.699 140 141.699 140C138.299 142.3 135.399 138.9 135.399 138.9C128.399 129.4 113.299 131.1 113.299 131.1C116.999 131.3 123.999 137.6 123.999 137.6C127.699 140.9 129.599 145.9 130.399 150.8C130.699 152.4 130.499 154.5 128.999 155C128.499 155.2 127.999 155.2 127.599 155C125.799 154.5 124.699 153.1 123.899 151.4C123.099 149.7 119.799 144.3 118.099 142.8C118.099 142.8 107.299 135.5 99.2994 143.8" fill="#FFCEA9"/>
<path d="M216.6 89.4L177.5 110.1C177.5 110.1 164.4 99.6 161.5 90.4C158.6 81.2 154 78.2 154 78.2L209.7 63.7L216.6 89.4Z" fill="#FFCEA9"/>
<path d="M164.1 75.6C163.7 76.5 164.1 77.5 165 77.8C165.7 78.1 166.5 78.3 166.8 77.9C167.2 77.4 167.9 76.1 168.6 75.1C169.1 74.3 168.8 73.4 168.1 72.9L167.6 72.6C166.7 72 165.5 72.4 165.1 73.3L164.1 75.6Z" fill="#FFCBAE"/>
<path d="M200.954 83.1681C203.314 70.631 194.536 58.455 181.348 55.9722C168.159 53.4894 155.555 61.64 153.194 74.1771C150.834 86.7141 159.612 98.8902 172.801 101.373C185.989 103.856 198.593 95.7051 200.954 83.1681Z" fill="#E9A32C"/>
<path d="M169.242 61.1037C169.324 60.6695 169.038 60.2513 168.604 60.1695C168.169 60.0878 167.751 60.3735 167.669 60.8077C167.588 61.2419 167.873 61.6601 168.308 61.7419C168.742 61.8236 169.16 61.5379 169.242 61.1037Z" fill="#D48112"/>
<path d="M163.655 64.3599C163.737 63.9257 163.451 63.5075 163.017 63.4257C162.583 63.344 162.164 63.6297 162.083 64.0639C162.001 64.4981 162.287 64.9163 162.721 64.9981C163.155 65.0798 163.573 64.7941 163.655 64.3599Z" fill="#D48112"/>
<path d="M168.184 67.1837C168.266 66.7495 167.98 66.3313 167.546 66.2495C167.112 66.1678 166.694 66.4535 166.612 66.8877C166.53 67.3219 166.816 67.7401 167.25 67.8218C167.684 67.9036 168.102 67.6179 168.184 67.1837Z" fill="#D48112"/>
<path d="M175.249 62.6613C175.33 62.2271 175.045 61.8089 174.61 61.7271C174.176 61.6454 173.758 61.9311 173.676 62.3653C173.595 62.7995 173.88 63.2177 174.314 63.2994C174.749 63.3812 175.167 63.0955 175.249 62.6613Z" fill="#D48112"/>
<path d="M173.48 68.1718C173.562 67.7376 173.276 67.3193 172.842 67.2376C172.408 67.1559 171.99 67.4416 171.908 67.8758C171.826 68.3099 172.112 68.7282 172.546 68.8099C172.98 68.8917 173.398 68.6059 173.48 68.1718Z" fill="#D48112"/>
<path d="M159.486 69.5016C159.568 69.0674 159.282 68.6491 158.848 68.5674C158.414 68.4857 157.995 68.7714 157.914 69.2056C157.832 69.6398 158.118 70.058 158.552 70.1397C158.986 70.2215 159.404 69.9358 159.486 69.5016Z" fill="#D48112"/>
<path d="M164.892 72.5504C164.974 72.1162 164.688 71.698 164.254 71.6162C163.82 71.5345 163.402 71.8202 163.32 72.2544C163.238 72.6886 163.524 73.1068 163.958 73.1885C164.392 73.2703 164.81 72.9846 164.892 72.5504Z" fill="#D48112"/>
<path d="M158.653 75.7635C158.735 75.3293 158.449 74.9111 158.015 74.8293C157.581 74.7476 157.162 75.0333 157.081 75.4675C156.999 75.9017 157.285 76.3199 157.719 76.4016C158.153 76.4834 158.571 76.1977 158.653 75.7635Z" fill="#D48112"/>
<path d="M187 60.4C186.9 60.3 186.9 60.2 186.8 60C186.8 59.9 186.8 59.7 186.8 59.6C187.1 59.2 187.9 59.4 188.6 59.7C189.2 60 189.6 60.4 189.7 60.8C189.7 60.9 189.7 61.1 189.7 61.2C189.4 61.6 188.6 61.4 187.9 61.1C187.5 60.9 187.1 60.6 187 60.4ZM189.3 60.7C189.2 60.5 188.9 60.3 188.5 60C187.8 59.6 187.2 59.6 187.1 59.7V59.8C187.2 60 187.5 60.4 188 60.7C188.7 61.1 189.3 61.1 189.4 61V60.9C189.4 60.9 189.3 60.8 189.3 60.7Z" fill="#6E5336"/>
<path d="M155.2 99L165 88.5C165 88.5 167.2 86.6 169.5 88.3C173.3 91.1 170.8 93.9 170.8 93.9L163.5 105.8C163.5 105.8 158.9 112.7 154 108C152 106 152 102.2 155.2 99Z" fill="#FFD7B6"/>
<path d="M167.4 101.8C165.7 105.4 165.8 109.8 170 111.2C174.3 112.7 178 109.7 178 109.7L177.5 97.6C177.5 97.6 177.7 93 174.9 92.6C174.9 92.6 170.8 91.2 169.6 95.5C168.8 98.4 167.4 101.8 167.4 101.8Z" fill="#FFD7B6"/>
<path d="M149.3 90L158.6 83.5C158.6 83.5 160.9 82.6 162.9 84.5C166.1 87.5 163 90.6 163 90.6L154.7 98C154.7 98 149.3 104.1 145.4 98.9C142.5 95.1 145.5 92.2 149.3 90Z" fill="#FFD7B6"/>
<path d="M143.6 80.6L154.9 76.8C154.9 76.8 157.6 75.9 158.9 78.3C160.8 81.8 157.6 83.9 157.6 83.9L147.3 90C147.3 90 141.6 93.1 139.6 88.3C137.9 84.2 139.7 81.6 143.6 80.6Z" fill="#FFD7B6"/>
<path d="M155.5 77.8C155.9 77.7 156.3 77.7 156.7 77.8C157.7 78 158.3 79 158.4 80C158.5 80.9 158.2 81.9 157.4 82.5C156.7 83.2 155.6 83.5 154.6 83.2C154.2 83.1 153.8 82.8 153.5 82.6C152.8 82 152 80.5 152.4 79.7C152.8 78.6 154.5 77.9 155.5 77.8Z" fill="#FFCBAE"/>
<path d="M159.2 85.2C159.5 85 159.9 84.8 160.3 84.7C161.3 84.5 162.3 85.2 162.7 86.1C163.1 86.9 163.2 87.9 162.8 88.8C162.4 89.7 161.5 90.4 160.5 90.5C160.1 90.5 159.6 90.5 159.3 90.3C158.4 90 157.2 88.9 157.1 88C157 87 158.4 85.7 159.2 85.2Z" fill="#FFCBAE"/>
<path d="M165.7 89.8C166 89.6 166.4 89.3 166.7 89.2C167.7 88.9 168.7 89.5 169.2 90.4C169.7 91.2 169.8 92.2 169.5 93.1C169.2 94 168.3 94.9 167.4 95C167 95.1 166.5 95 166.1 94.9C165.2 94.6 163.8 93.7 163.7 92.8C163.6 91.8 164.9 90.4 165.7 89.8Z" fill="#FFCBAE"/>
<path d="M171.8 94C172.1 93.8 173 93.6 173.3 93.5C174.3 93.3 175.3 94 175.7 94.9C176.1 95.7 176.2 96.7 175.8 97.6C175.4 98.5 174.5 99.2 173.5 99.3C173.1 99.3 172.6 99.3 172.3 99.1C171.4 98.8 170.2 97.7 170.1 96.8C170.1 95.8 171 94.5 171.8 94Z" fill="#FFCBAE"/>
<path d="M173.9 55.3C174 55.2 173.8 55.3 173.9 55.3C185.5 49.2 197.6 50.5 203.2 51.6C205.2 52 206.6 53.6 206.9 55.6L208.5 67.3C208.6 68.1 208.3 69 207.6 69.5C204.3 71.9 194 78.1 179.9 72C179.1 71.7 178.1 71.8 177.5 72.4L171 78C170.9 78.1 170.7 78.2 170.6 78.4C170.1 79.1 167.4 81.3 165.1 79.2C164.3 78.5 163.9 77.4 164.3 76.3L173.9 55.3Z" fill="#FFD7B6"/>
<path d="M165.8 73.7C166.1 73.3 166.5 72.9 166.9 72.7C167.3 72.5 167.9 72.5 168.4 72.7C169 73.1 169.1 73.8 169 74.5C168.9 75.8 167.5 77.8 166 77.5C164.2 77.1 165.1 74.7 165.8 73.7Z" fill="#FFC6AD"/>
<path d="M2.2998 72.1L11.5998 60.4C15.5998 64.1 20.0998 66.6 26.4998 66.6C32.8998 66.6 36.8998 63.5 36.8998 59.2C36.8998 54.4 32.3998 52.2 26.9998 52.2H17.4998V37.8H25.0998C31.3998 37.8 34.8998 34.7 34.8998 30.9C34.8998 27.3 31.5998 24.6 26.5998 24.6C21.1998 24.6 17.1998 26.6 13.0998 30.6L3.1998 21C11.6998 11.6 19.4998 9 29.1998 9C42.9998 9 52.8998 17.2 52.8998 28.1C52.8998 34.4 49.5998 40.2 43.7998 43.5C51.8998 47.2 55.8998 53.4 55.8998 61.1C55.8998 73.4 44.2998 82.3 27.9998 82.3C18.1998 82.4 9.7998 78.8 2.2998 72.1Z" fill="#5D9E9B"/>
<path d="M73.4004 107C59.1004 103.1 44.9004 99.1 31.5004 95.4C28.9004 118.7 34.6004 137.4 45.7004 151.8C55.1004 153.6 61.2004 154.4 61.2004 154.4L73.4004 107Z" fill="#FFDC6F"/>
<path d="M213.2 37.7C209 41.2 204.7 44.6 200 47.6L216.6 95C216.6 95 235.8 88.8 256.2 74.1C248.7 61.1 235.3 48.4 213.2 37.7Z" fill="#E16F50"/>
</g>
<defs>
<clipPath id="clip0_1524_72948">
<rect width="264" height="198" fill="white" transform="translate(0.5)"/>
</clipPath>
</defs>
</svg>
