<svg width="264" height="198" viewBox="0 0 264 198" fill="none" xmlns="http://www.w3.org/2000/svg">
<path d="M174.1 24C136.5 13.9 53.9995 -28.6 31.4995 86.3C7.39952 209.8 203.6 214.1 250.1 146C267.8 120.1 285.1 54 174.1 24Z" fill="#FAF3E8"/>
<path d="M199.1 179C190.8 148.6 183.7 126.7 163.4 98.8C135.9 94.8 123 104 123 104C118.5 132.9 112.6 166 108.8 187C137.5 192.4 169.4 190.3 196.5 181.6C197.4 180.8 198.3 179.9 199.1 179Z" fill="white"/>
<path d="M124.2 103.3C124.2 103.3 100.9 116 98.7998 147L119 148.1L124.2 103.3Z" fill="white"/>
<path d="M153.8 90.6C155.9 92.3 159.3 91 160.8 88.7C162.2 86.4 162.2 83.5 162.2 80.8C163.1 81.2 164.2 80.7 164.8 80C165.4 79.2 165.6 78.2 165.8 77.2C166.3 73.8 166 70.3 164.8 67.2C163.5 64 161.2 61.3 158.2 59.7C156.8 59 154.6 58.8 154 60.3" fill="#333333"/>
<path d="M153.7 61.7C155.5 89.8 157.2 101.3 157.2 101.3C144.8 109.6 136.3 104.9 136.3 104.9C135.3 96.5 132.4 96.9 129.8 96C117.4 92.1 121.1 60.7 121.1 60.7C121.1 60.7 122.1 53.5 137.4 54.5C137.5 54.5 153.4 56 153.7 61.7Z" fill="#FCCDAC"/>
<path d="M154.8 84.7C157.727 84.7 160.1 82.4167 160.1 79.6C160.1 76.7833 157.727 74.5 154.8 74.5C151.873 74.5 149.5 76.7833 149.5 79.6C149.5 82.4167 151.873 84.7 154.8 84.7Z" fill="#FCCDAC"/>
<path d="M154.8 76C156.5 76.3 158 77.7 158.4 79.4L154.8 76Z" fill="#FCCDAC"/>
<path d="M123 79.6H125.3C125.9 79.6 126.4 79.1 126.4 78.5C126.4 77.9 125.9 77.4 125.3 77.4H123C122.4 77.4 121.9 77.9 121.9 78.5C121.9 79.1 122.4 79.6 123 79.6Z" fill="#F1A74A"/>
<path d="M140.1 79.6H142.4C143 79.6 143.5 79.1 143.5 78.5C143.5 77.9 143 77.4 142.4 77.4H140.1C139.5 77.4 139 77.9 139 78.5C138.9 79.1 139.5 79.6 140.1 79.6Z" fill="#F1A74A"/>
<path d="M132.6 81.5C131.9 81.5 131.3 81.3 130.9 80.9C130.3 80.3 130.5 79.4 130.5 79.4L131.5 72.5C131.5 72.3 131.7 72.2 131.9 72.2C132.1 72.2 132.2 72.4 132.2 72.6L131.2 79.6C131.2 79.6 131.1 80.2 131.4 80.6C131.7 80.9 132.2 81 132.9 81C133.1 81 133.2 81.1 133.2 81.3C133.2 81.5 133.1 81.6 132.9 81.6C132.8 81.5 132.7 81.5 132.6 81.5Z" fill="#333333"/>
<path d="M141.2 72.4C141 72.4 140.8 72.3 140.6 72.2C138.3 70.6 136.8 71.8 136.6 72C136.2 72.3 135.6 72.3 135.2 71.9C134.8 71.5 134.9 70.9 135.3 70.5C136.3 69.6 138.9 68.5 141.7 70.6C142.1 70.9 142.2 71.5 141.9 72C141.8 72.3 141.5 72.4 141.2 72.4Z" fill="#333333"/>
<path d="M128 72.4C127.8 72.4 127.6 72.3 127.4 72.2C125.1 70.6 123.6 71.8 123.4 72C123 72.3 122.4 72.3 122 71.9C121.6 71.5 121.7 70.9 122.1 70.5C123.1 69.6 125.7 68.5 128.5 70.6C128.9 70.9 129 71.5 128.7 72C128.6 72.3 128.3 72.4 128 72.4Z" fill="#333333"/>
<path d="M155.3 76.1C156.8 76.6 158.1 77.6 158.5 79.1C158.6 79.5 159.2 79.3 159.1 78.9C158.6 77.2 157.3 75.7 155.5 75.5C155.1 75.6 155 76 155.3 76.1Z" fill="#333333"/>
<path d="M132.9 61C140.3 58.6 150.8 56.3 149.6 64.8C149.1 68.3 153.2 70.5 156.4 72C156.9 72.2 157.4 72.4 157.8 72.3C158.3 72.2 158.8 71.8 159.1 71.4C161.1 69.3 163.1 67 163.4 64.1C163.6 62.1 162.9 60.2 162.2 58.4C161.3 56 160.3 53.6 158.7 51.6C155.1 47 148.8 45.2 143 45.2C137.9 45.2 132.8 46.4 128.5 49C125.5 50.8 121.7 54 120.4 57.4C118.5 62.6 129.8 62 132.9 61Z" fill="#333333"/>
<path d="M125.9 84.7C128.5 83.3 132.9 81.9 135.9 82.2C138.9 82.6 141.3 84.7 144.2 85.7C145.6 86.2 147.4 86.4 148.6 85.4C149.3 84.8 149.7 83.8 149.9 82.9C150.5 80.7 150.6 78.5 150.7 76.2C150.8 73 150.8 69.9 150.6 66.7C151.8 67 154 65.6 155.3 65.9C155.6 73 154.9 81.8 155.2 88.9C155.3 91.4 155.4 94.2 154 96.3C152.1 99.2 148.3 100 144.9 100.6C143.1 100.9 141.3 101.2 139.4 101C137.6 100.8 135.7 100.2 134.4 98.9C133.9 98.4 133.5 97.8 133 97.4C131.7 96.3 129.8 96.1 128.2 95.4C126.1 94.4 124.5 92.5 123.6 90.3C123 88.9 121.8 84.8 121.7 83.3C121.6 82.2 124.7 85.3 125.9 84.7Z" fill="#333333"/>
<path d="M150.7 46.4C154.29 46.4 157.2 43.4899 157.2 39.9C157.2 36.3102 154.29 33.4 150.7 33.4C147.11 33.4 144.2 36.3102 144.2 39.9C144.2 43.4899 147.11 46.4 150.7 46.4Z" fill="#333333"/>
<path d="M133.6 86C131.4 86 131.2 84.2 131.2 84.1C131.2 83.9 131.3 83.8 131.5 83.8C131.7 83.8 131.8 83.9 131.8 84.1C131.8 84.2 132 85.4 133.6 85.4H133.7C134.4 85.4 135.3 85 135.3 83.6C135.3 83.4 135.4 83.3 135.6 83.3C135.8 83.3 135.9 83.4 135.9 83.6C135.9 85.7 134.4 85.9 133.7 86H133.6Z" fill="white"/>
<path d="M160.9 145.8L200.5 154.6C200.5 154.6 206 105.5 164.5 99.8" fill="white"/>
<path d="M125 75.2C125.663 75.2 126.2 74.6627 126.2 74C126.2 73.3373 125.663 72.8 125 72.8C124.337 72.8 123.8 73.3373 123.8 74C123.8 74.6627 124.337 75.2 125 75.2Z" fill="#222222"/>
<path d="M138.9 75.8C139.563 75.8 140.1 75.2627 140.1 74.6C140.1 73.9372 139.563 73.4 138.9 73.4C138.237 73.4 137.7 73.9372 137.7 74.6C137.7 75.2627 138.237 75.8 138.9 75.8Z" fill="#222222"/>
<path d="M96.4999 133C95.7999 135.5 97.2999 138.3 99.6999 139.2C102.1 140 105.1 138.7 106 136.3C106.9 133.9 105.6 130.9 103.3 130C104.7 130.9 106.7 130.6 107.8 129.4C109 128.2 109.4 126.4 109 124.8C108.7 123.2 107.7 121.7 106.5 120.6C104.4 118.5 97.6999 114.9 95.0999 116.3C94.2999 116.7 96.9999 119.5 96.3999 120.1C93.4999 122.9 88.8999 122.8 88.4999 127.2C88.1999 132.6 94.9999 137.2 96.4999 133Z" fill="#333333"/>
<path d="M88.5999 105.9C91.4999 132.7 93.6999 143.5 93.6999 143.5C82.1999 151.9 73.9999 147.8 73.9999 147.8C72.6999 139.8 69.6999 139.7 67.1999 138.9C55.1999 135.5 57.4999 106.3 57.4999 106.3C57.4999 106.3 58.0999 99.4 72.7999 99.7C72.6999 99.8 87.9999 100.5 88.5999 105.9Z" fill="#FFDAC6"/>
<path d="M80.7002 122.2H78.4002C77.8002 122.2 77.2002 121.7 77.2002 121C77.2002 120.4 77.7002 119.8 78.4002 119.8H80.7002C81.3002 119.8 81.9002 120.3 81.9002 121C81.8002 121.7 81.3002 122.2 80.7002 122.2Z" fill="#EAA42C"/>
<path d="M62.0996 122.2H59.7996C59.1996 122.2 58.5996 121.7 58.5996 121C58.5996 120.4 59.0996 119.8 59.7996 119.8H62.0996C62.6996 119.8 63.2996 120.3 63.2996 121C63.2996 121.7 62.7996 122.2 62.0996 122.2Z" fill="#EAA42C"/>
<path d="M75.2996 118.1C75.9624 118.1 76.4996 117.563 76.4996 116.9C76.4996 116.237 75.9624 115.7 75.2996 115.7C74.6369 115.7 74.0996 116.237 74.0996 116.9C74.0996 117.563 74.6369 118.1 75.2996 118.1Z" fill="#222222"/>
<path d="M61.4002 118.7C62.0629 118.7 62.6002 118.163 62.6002 117.5C62.6002 116.837 62.0629 116.3 61.4002 116.3C60.7375 116.3 60.2002 116.837 60.2002 117.5C60.2002 118.163 60.7375 118.7 61.4002 118.7Z" fill="#222222"/>
<path d="M69.4998 129.1C68.0998 129.1 67.3998 127.8 67.2998 127C67.2998 126.8 67.3998 126.7 67.4998 126.7C67.6998 126.7 67.7998 126.8 67.7998 126.9C67.7998 127 68.1998 128.7 69.7998 128.5C71.3998 128.2 71.2998 126.7 71.2998 126.6C71.2998 126.4 71.3998 126.3 71.5998 126.3C71.7998 126.3 71.8998 126.4 71.8998 126.6C71.8998 127.3 71.5998 128.8 69.8998 129.1C69.7998 129.1 69.5998 129.1 69.4998 129.1Z" fill="#333333"/>
<path d="M64.1 115.8C64.1 115.8 61.6 114.4 59.2 115.9C59.2 115.9 58.2 116.4 57.8 115.3C57.4 114.2 59.4 113.6 59.4 113.6C59.4 113.6 62.6 112.6 64.8 114.1C64.8 114.1 65.7 114.7 65.5 115.3C65.6 115.3 65.5 116.4 64.1 115.8Z" fill="#222222"/>
<path d="M78.0004 115.2C78.0004 115.2 75.5004 113.8 73.1004 115.3C73.1004 115.3 72.1004 115.8 71.7004 114.7C71.3004 113.6 73.3004 113 73.3004 113C73.3004 113 76.5004 112 78.7004 113.5C78.7004 113.5 79.6004 114.1 79.4004 114.7C79.4004 114.7 79.4004 115.8 78.0004 115.2Z" fill="#222222"/>
<path d="M68.4002 124.8C67.7002 124.8 67.2002 124.6 66.9002 124.3C66.4002 123.8 66.5002 123.2 66.6002 123.1L67.3002 115.4C67.3002 115.2 67.4002 115.1 67.6002 115.1C67.8002 115.1 67.9002 115.3 67.9002 115.4L67.2002 123.2C67.2002 123.2 67.1002 123.6 67.4002 123.9C67.6002 124.1 68.1002 124.3 69.3002 124.1C69.5002 124.1 69.6002 124.2 69.6002 124.3C69.6002 124.5 69.5002 124.6 69.4002 124.6C69.0002 124.8 68.7002 124.8 68.4002 124.8Z" fill="#333333"/>
<path d="M76.4998 125.3C71.9998 125.3 68.2998 121.6 68.2998 117.1C68.2998 112.6 71.9998 108.9 76.4998 108.9C80.9998 108.9 84.6998 112.6 84.6998 117.1C84.6998 121.6 80.9998 125.3 76.4998 125.3ZM76.4998 109.5C72.2998 109.5 68.7998 112.9 68.7998 117.2C68.7998 121.4 72.1998 124.9 76.4998 124.9C80.7998 124.9 84.1998 121.5 84.1998 117.2C84.1998 113 80.6998 109.5 76.4998 109.5Z" fill="#333333"/>
<path d="M58.7996 125.3C54.2996 125.3 50.5996 121.6 50.5996 117.1C50.5996 112.6 54.2996 108.9 58.7996 108.9C63.2996 108.9 66.9996 112.6 66.9996 117.1C66.9996 121.6 63.2996 125.3 58.7996 125.3ZM58.7996 109.5C54.5996 109.5 51.0996 112.9 51.0996 117.2C51.0996 121.4 54.4996 124.9 58.7996 124.9C63.0996 124.9 66.4996 121.5 66.4996 117.2C66.3996 113 62.9996 109.5 58.7996 109.5Z" fill="#333333"/>
<path d="M92.6003 119.2C96.3003 113.7 96.6003 112.3 97.0003 109.8C97.9003 104.4 97.6003 92.2 83.9003 92.5C81.8003 90 78.7003 88.2 75.4003 88.3C72.1003 88.3 68.8003 90.4 67.8003 93.5C66.2003 91.6 63.7003 90.3 61.4003 90.9C59.0003 91.4 57.2003 94.2 58.3003 96.4C55.1003 95.6 51.5003 97.8 50.6003 101C49.0003 107.1 57.0003 112.7 62.3003 109.7C63.2003 110.9 64.8003 111.4 66.2003 110.8C67.6003 110.3 68.6003 109 69.5003 107.8C69.7003 109.6 72.1003 110.5 73.8003 109.9C75.5003 109.3 76.6003 107.6 77.5003 106C77.4003 108.1 78.6003 110.2 80.4003 111.2C82.2003 112.2 84.6003 112.1 86.3003 110.9C87.4003 112 86.8003 112.4 88.1003 114.9C88.7003 116.2 89.4003 118.4 90.8003 118.1" fill="#333333"/>
<path d="M93.3998 125.5C96.2165 125.5 98.4998 123.306 98.4998 120.6C98.4998 117.894 96.2165 115.7 93.3998 115.7C90.5832 115.7 88.2998 117.894 88.2998 120.6C88.2998 123.306 90.5832 125.5 93.3998 125.5Z" fill="#FFDAC6"/>
<path d="M97.1998 120.1C96.7998 118.4 95.0998 117.1 93.3998 116.9C92.9998 116.8 92.8998 117.4 93.1998 117.5C94.8998 117.7 95.9998 118.9 96.5998 120.4C96.8998 120.7 97.2998 120.4 97.1998 120.1Z" fill="#333333"/>
<path d="M84.4002 117.9C84.3002 117.9 84.2002 117.8 84.2002 117.7C84.2002 117.6 84.3002 117.4 84.4002 117.4L89.5002 116.7C89.6002 116.7 89.8002 116.8 89.8002 116.9C89.8002 117 89.7002 117.2 89.6002 117.2L84.4002 117.9Z" fill="#333333"/>
<path d="M68.6002 117.1C68.5002 117.1 68.5002 117.1 68.4002 117C68.0002 116.7 67.7002 116.6 67.3002 116.7C67.0002 116.8 66.8002 117 66.8002 117C66.7002 117.1 66.6002 117.1 66.4002 117C66.3002 116.9 66.3002 116.8 66.4002 116.6C66.4002 116.6 66.8002 116.1 67.4002 116.1C67.8002 116.1 68.2002 116.2 68.6002 116.6C68.7002 116.7 68.7002 116.9 68.6002 117C68.7002 117.1 68.7002 117.1 68.6002 117.1Z" fill="#333333"/>
<path d="M98.9004 142.7L130.5 142.1C130.5 142.1 134.6 169.9 118.8 179.7L98.9004 142.7Z" fill="#FFDC6F"/>
<path d="M50.1002 64.6V80.4H1.2002V71.8L24.6002 41.4C28.3002 36.6 29.5002 33.9 29.5002 31.1C29.5002 27.9 27.1002 25.7 23.6002 25.7C19.6002 25.7 16.0002 28.2 12.3002 32.9L0.200195 24C6.2002 13.9 14.5002 8.6 25.8002 8.6C40.0002 8.6 48.7002 18.2 48.7002 29C48.7002 36.2 46.0002 41.5 38.9002 50.3L30.6002 61C29.6002 62.2 28.5002 63.5 27.3002 64.8C29.5002 64.6 31.3002 64.6 33.2002 64.6H50.1002Z" fill="#5D9E9B"/>
<path d="M122.9 189.1C117.3 174 108.6 162.1 104 148.8C80.1998 137.4 64.5998 148.8 64.5998 148.8C63.5998 155.2 62.4998 161.6 61.2998 168C78.0998 179.9 99.8998 186.7 122.9 189.1Z" fill="white"/>
<path d="M54.0996 162.2C58.8996 166.5 64.2996 170.2 70.0996 173.4L74.2996 152.1V142.6L62.9996 142.5L64.7996 148.9C64.6996 148.9 59.5996 152.3 54.0996 162.2Z" fill="#FFDC6F"/>
<path d="M69.3004 160.1C69.2004 160.1 69.2004 160.1 69.1004 160C69.0004 159.9 69.0004 159.8 69.1004 159.7C69.1004 159.7 71.3004 157.7 70.6004 154.9C69.8004 151.9 70.7004 148.3 70.8004 148.2C70.8004 148.1 71.0004 148 71.1004 148C71.2004 148 71.3004 148.1 71.3004 148.3C71.3004 148.3 70.3004 151.9 71.1004 154.8C72.0004 157.9 69.5004 160 69.5004 160C69.4004 160.1 69.4004 160.1 69.3004 160.1Z" fill="#333333"/>
<path d="M127.7 189.5C121.8 173.4 113.6 156.9 102.1 144.6V139.4C102.1 139.4 89.4996 141.2 86.2996 141.4L84.5996 180.2C97.8996 185.4 112.6 188.4 127.7 189.5Z" fill="#FFDC6F"/>
<path d="M89.4995 159.2C89.3995 159.2 89.3995 159.2 89.4995 159.2C89.2995 159.1 89.2995 159 89.2995 158.9C89.2995 158.9 90.4995 156.1 89.2995 152.9C88.0995 149.6 88.3995 147.1 88.3995 147C88.3995 146.9 88.4995 146.8 88.5995 146.8C88.6995 146.8 88.7995 146.9 88.7995 147C88.7995 147 88.4995 149.5 89.6995 152.7C90.8995 156.1 89.6995 158.9 89.6995 159C89.5995 159.2 89.5995 159.2 89.4995 159.2Z" fill="#333333"/>
<path d="M89.2004 165.3C88.2004 165.3 87.4004 164.5 87.4004 163.5C87.4004 162.5 88.2004 161.7 89.2004 161.7C90.2004 161.7 91.0004 162.5 91.0004 163.5C91.0004 164.5 90.2004 165.3 89.2004 165.3ZM89.2004 162C88.4004 162 87.8004 162.6 87.8004 163.4C87.8004 164.2 88.4004 164.8 89.2004 164.8C90.0004 164.8 90.6004 164.2 90.6004 163.4C90.6004 162.6 90.0004 162 89.2004 162Z" fill="#333333"/>
<path d="M123.4 177.9C116.4 161 102.4 145.5 102.2 145.3C102.1 145.2 102 145.2 101.9 145.3C101.8 145.4 101.8 145.5 101.9 145.6C102 145.8 116 161.2 123 178.1C123 178.1 125 182.2 126.6 187.5C126.8 188.1 127 188.8 127.2 189.5C127.4 189.5 127.5 189.5 127.7 189.5C127.5 188.8 127.3 188 127.1 187.4C125.5 182 123.4 177.9 123.4 177.9Z" fill="#FAF3E8"/>
<path d="M218.5 141.3L224.4 169.2C230.9 165.3 236.7 160.9 241.6 156C236.7 144.2 218.5 141.3 218.5 141.3Z" fill="#E16F50"/>
<path d="M158.9 189.2C164.4 188.7 170 187.9 175.4 186.9L175.7 181.2L159.5 179.6L158.9 189.2Z" fill="#FBCDAD"/>
<path d="M157.4 184.4C163 184.8 171.5 184.6 176.1 184.1L177 146.8C177.1 146.7 161.5 151.2 157.4 184.4Z" fill="#E16F50"/>
<path d="M225.7 168.5C226.2 168.2 226.7 167.8 227.3 167.5C224.5 158.9 221.5 150.1 218.5 141.4C190.3 137.3 177.1 146.8 177.1 146.8C174.2 162.4 176.6 175.8 174.9 187.1C193.7 183.6 211.4 177.3 225.7 168.5Z" fill="#E16F50"/>
<path d="M207 93.1C207 93.1 220.7 97.1 219.1 112.8C217.6 128.4 209.8 130.9 206.4 131.3C203 131.7 201 92.2 201 92.2L207 93.1Z" fill="#F1A84C"/>
<path d="M226.9 92.4C211.5 81.5 199 92.4 199 92.4H195.3C195.3 92.4 201.9 60.2 237.8 81.1L226.9 92.4Z" fill="#F1A84C"/>
<path d="M207.4 104C209.2 131.7 210.9 143 210.9 143C198.7 151.2 190.3 146.5 190.3 146.5C189.3 138.2 186.4 138.6 183.9 137.8C171.7 133.9 175.3 103 175.3 103C175.3 103 176.3 95.9 191.4 96.9C191.3 96.9 207 98.3 207.4 104Z" fill="#FBCDAD"/>
<path d="M208.8 126.6C211.671 126.6 214 124.361 214 121.6C214 118.839 211.671 116.6 208.8 116.6C205.928 116.6 203.6 118.839 203.6 121.6C203.6 124.361 205.928 126.6 208.8 126.6Z" fill="#FBCDAD"/>
<path d="M177.1 121.6H179.4C180 121.6 180.5 121.1 180.5 120.5C180.5 119.9 180 119.4 179.4 119.4H177.1C176.5 119.4 176 119.9 176 120.5C176 121.1 176.5 121.6 177.1 121.6Z" fill="#F1A84C"/>
<path d="M193.9 121.6H196.2C196.8 121.6 197.3 121.1 197.3 120.5C197.3 119.9 196.8 119.4 196.2 119.4H193.9C193.3 119.4 192.8 119.9 192.8 120.5C192.8 121.1 193.3 121.6 193.9 121.6Z" fill="#F1A84C"/>
<path d="M186.5 123.4C185.8 123.4 185.2 123.2 184.9 122.8C184.4 122.2 184.5 121.4 184.5 121.4L185.5 114.6C185.5 114.5 185.7 114.4 185.8 114.4C185.9 114.4 186 114.6 186 114.7L185 121.6C185 121.6 184.9 122.2 185.2 122.6C185.5 122.9 186 123 186.7 123C186.8 123 187 123.1 187 123.2C187 123.3 186.9 123.5 186.8 123.5C186.7 123.4 186.6 123.4 186.5 123.4Z" fill="#343434"/>
<path d="M195 114.5C194.8 114.5 194.6 114.4 194.4 114.3C192.2 112.7 190.6 113.9 190.4 114.1C190 114.4 189.4 114.4 189.1 114C188.8 113.6 188.8 113 189.2 112.7C190.2 111.8 192.7 110.7 195.5 112.8C195.9 113.1 196 113.7 195.7 114.1C195.6 114.4 195.3 114.5 195 114.5Z" fill="#F1A84C"/>
<path d="M182 114.5C181.8 114.5 181.6 114.4 181.4 114.3C179.2 112.7 177.6 113.9 177.4 114.1C177 114.4 176.4 114.4 176.1 114C175.8 113.6 175.8 113 176.2 112.7C177.2 111.8 179.7 110.7 182.5 112.8C182.9 113.1 183 113.7 182.7 114.1C182.6 114.4 182.3 114.5 182 114.5Z" fill="#F1A84C"/>
<path d="M187.5 127.3C186 127.3 185.5 126 185.5 125.9C185.4 125.7 185.5 125.6 185.7 125.5C185.9 125.4 186 125.5 186.1 125.7C186.1 125.8 186.6 127 188.2 126.6C188.9 126.4 189.7 125.9 189.4 124.5C189.4 124.3 189.5 124.2 189.6 124.2C189.8 124.2 189.9 124.3 189.9 124.4C190.3 126.4 188.9 127 188.3 127.1C188 127.2 187.8 127.3 187.5 127.3Z" fill="#343434"/>
<path d="M194.6 117.8C194.5 117.8 194.3 117.7 194.3 117.5C194.3 116.3 193.3 115.3 192.1 115.3C190.9 115.3 189.9 116.3 189.9 117.5C189.9 117.6 189.8 117.8 189.6 117.8C189.5 117.8 189.3 117.7 189.3 117.5C189.3 116 190.5 114.8 192 114.8C193.5 114.8 194.7 116 194.7 117.5C194.9 117.6 194.8 117.8 194.6 117.8Z" fill="#343434"/>
<path d="M181.8 117.8C181.7 117.8 181.5 117.7 181.5 117.5C181.5 116.3 180.5 115.3 179.3 115.3C178.1 115.3 177.1 116.3 177.1 117.5C177.1 117.6 177 117.8 176.8 117.8C176.7 117.8 176.5 117.7 176.5 117.5C176.5 116 177.7 114.8 179.2 114.8C180.7 114.8 181.9 116 181.9 117.5C182 117.6 181.9 117.8 181.8 117.8Z" fill="#343434"/>
<path d="M212.9 122.4C212.8 122.4 212.6 122.3 212.6 122.1C212.6 119.8 210.8 118.1 208.5 118.1C208.4 118.1 208.2 118 208.2 117.8C208.2 117.7 208.3 117.5 208.5 117.5C211.1 117.5 213.2 119.5 213.2 122.1C213.1 122.2 213 122.4 212.9 122.4Z" fill="#343434"/>
<path d="M206.2 93.8L208.4 109.7L172.6 108.4C171.7 83.9 207 93.1 207 93.1" fill="#F1A84C"/>
</svg>
