<?xml version="1.0" encoding="utf-8"?>
<!-- Generator: Adobe Illustrator 24.1.2, SVG Export Plug-In . SVG Version: 6.00 Build 0)  -->
<svg version="1.1" id="Capa_1" xmlns="http://www.w3.org/2000/svg" xmlns:xlink="http://www.w3.org/1999/xlink" x="0px" y="0px"
	 viewBox="0 0 290.9 291.4" style="enable-background:new 0 0 290.9 291.4;" xml:space="preserve">
<style type="text/css">
	.st0{fill:#FAF3E8;}
	.st1{fill:#FFFFFF;}
	.st2{fill:#FCCDAC;}
	.st3{fill:#EAA42C;}
	.st4{fill:#222222;}
	.st5{fill:#333333;}
	.st6{fill:#FFDC6F;}
	.st7{opacity:0.88;}
	.st8{fill:#B2D3D0;}
	.st9{fill:#468480;}
</style>
<g>
	<g>
		<path class="st0" d="M236.8,35.5c0,0-44.9-25.7-103.6,15.6S27,135.6,27,135.6s-40.1,32.3-19.9,86.3
			C30,283.1,167.7,300,258.3,181.5C258.4,181.6,337.8,82.4,236.8,35.5z"/>
	</g>
	<g>
		<path class="st1" d="M197.2,238.7c-8-29.4-17.5-65.3-26.2-100.4c0,0-40.1-19.9-87.6,3.1c-12.7,50.4-13,96.5-11,125.9
			C108.4,273.7,154,266.4,197.2,238.7z"/>
	</g>
	<g>
		<path class="st2" d="M168.9,237.5l18.8-0.9l-1.3-20.8l6.8-0.3l5.7-49.9c0,0,37.7,28.3,23.9,60.6c0,0-7.6,25.5-54.3,18.2
			c-1.9-0.1-3.3-1.7-3.1-3.6C165.5,238.8,167.1,237.4,168.9,237.5"/>
	</g>
	<g>
		<path class="st2" d="M168.9,237.5l12.4-21.6c0,0,11,0.4,12.2-4"/>
	</g>
	<g>
		<path class="st3" d="M162.6,134.3l15.3,66.6c0,0,26.3-3.4,39.3-27.6C217.2,173.2,192,141.6,162.6,134.3"/>
	</g>
	<g>
		<path class="st2" d="M78.6,65.4c15.3,41.7,24.8,72.7,24.8,72.7c23.1,4.1,32.4-6.4,32.4-6.4c-3.9-12.8-3-14.9,0.3-17.8
			c15.4-13.5-8.5-61.9-8.5-61.9s-4-3.4-25.4,7.9C102.3,59.8,75.6,57,78.6,65.4z"/>
	</g>
	<g>
		<g>
			<path class="st4" d="M97,80.5c1.2-0.9,2-2.3,3.4-3.1c1.5-0.9,3.3-1.1,5-0.7c1.8,0.5,2.9-2.3,1-2.8c-2.5-0.6-5-0.4-7.3,0.9
				c-1.8,1.1-3.6,3.1-3.2,5.3C96,80.6,96.6,80.8,97,80.5L97,80.5z"/>
		</g>
	</g>
	<g>
		<g>
			<path class="st4" d="M119.7,75.1c1.3-0.8,2.2-2.1,3.7-2.7c1.6-0.8,3.4-0.8,5.1-0.2c1.8,0.6,3.1-2,1.3-2.7c-2.4-0.9-5-0.9-7.3,0.2
				c-1.9,0.9-3.8,2.8-3.7,4.9C118.6,75.2,119.2,75.4,119.7,75.1L119.7,75.1z"/>
		</g>
	</g>
	<g>
		<circle class="st4" cx="102.7" cy="85.1" r="2"/>
	</g>
	<g>
		<circle class="st4" cx="127.5" cy="78.6" r="2"/>
	</g>
	<g>
		<path class="st4" d="M138.5,80.1c0,0-12.8-29.3-16.6-26.8c-3.7,2.5-3.4,8.8-15.4,9.1c-15.8,0.5-19.6-5.4-20.3,6.5
			c-0.7,11.9,5.5,24.3,5.5,24.3h-9c0,0-4.5-9.4-9.5-14.4S64.7,65,73.3,56.7c8.5-8.4,8.1-12.1,15.1-17.1c7.1-5,17.2-11.4,27.5,0.5
			c4.7,5.4,17-1.5,20.5,11.3c2.8,10.4,2.5,29.1,2.5,29.1L138.5,80.1z"/>
	</g>
	<g>
		<g>
			<path class="st5" d="M117.4,76.6c-1.1,3-1.6,5.6-0.6,8.7c0.5,1.6,1.1,3.2,1.7,4.7c0.2,0.6,0.9,1.6,0.9,2.2
				c-0.1,1.2-1.2,1.5-2.5,2c-0.6,0.2-0.3,1.1,0.3,0.9c1.8-0.6,3.3-0.6,3.4-2.6c0-1.7-1.4-4.1-1.9-5.7c-1.2-3.5-1.3-6.5-0.5-10.2
				C118.1,76.3,117.6,76.2,117.4,76.6L117.4,76.6z"/>
		</g>
	</g>
	<g>
		<g>
			<path class="st5" d="M119.5,98c-0.6,1.3-1.4,2.7-2.7,3.5c-1.9,1.2-3.3-0.9-3.6-2.6c-0.1-0.6-0.9-0.6-0.9,0
				c-0.1,1.8,1.6,4.1,3.6,4s3.7-3,4.2-4.7C120.1,97.9,119.6,97.6,119.5,98L119.5,98z"/>
		</g>
	</g>
	<g>
		<ellipse transform="matrix(0.8331 -0.5531 0.5531 0.8331 -40.7559 64.8463)" class="st2" cx="87.1" cy="100" rx="8.4" ry="8"/>
	</g>
	<g>
		<polygon class="st6" points="184.5,289.9 163.9,287.5 178.6,160.5 198.9,165.6 		"/>
	</g>
	<g class="st7">
		<circle class="st8" cx="206.8" cy="84.3" r="81.3"/>
	</g>
	<g>
		<path class="st1" d="M143,101c-0.5,0-0.9-0.3-1-0.8c-4.1-18.2-0.9-36.9,9.1-52.7s25.5-26.7,43.7-30.8c0.5-0.1,1.1,0.2,1.2,0.8
			c0.1,0.5-0.2,1.1-0.8,1.2c-17.7,4-32.8,14.6-42.5,29.9s-12.8,33.5-8.9,51.2C143.9,100.3,143.6,100.9,143,101
			C143.2,101,143.1,101,143,101z"/>
	</g>
	<g>
		<circle class="st1" cx="254.4" cy="62.3" r="9.7"/>
	</g>
	<g>
		
			<ellipse transform="matrix(0.3827 -0.9239 0.9239 0.3827 76.9231 275.4513)" class="st1" cx="244.6" cy="80.2" rx="6.3" ry="6.3"/>
	</g>
	<g>
		<path class="st2" d="M167.2,251.6c0,0-97.6,9.2-88.8-42.8l-37.9-1.2c0,0-16.5,66.1,71.9,79.5c13.2,2,28.8,0.9,60.8-4.9"/>
	</g>
	<g>
		<path class="st2" d="M190.3,254.6c-0.1-1.9-1.7-3.3-3.6-3.2l-21.7,0.3l0.7,7.8l21.4-1.3C189,258.1,190.4,256.5,190.3,254.6z"/>
	</g>
	<g>
		<path class="st2" d="M170.7,214.3c-1.9,0.2-3.6-1.1-3.8-2.9c-0.2-1.9,1.1-3.6,2.9-3.8h3.4l-0.8,6.8L170.7,214.3z"/>
	</g>
	<g>
		<path class="st2" d="M192.9,262.2c-0.1-2.1-1.9-3.8-4-3.7l-22.9,0.9l0.3,7.6l22.9-0.9C191.4,266.1,193,264.3,192.9,262.2z"/>
	</g>
	<g>
		<path class="st2" d="M192.7,269.8c-0.1-2-1.8-3.6-3.8-3.5l-21.8,0.8l0.3,8.5l21.8-2C191.2,273.5,192.8,271.8,192.7,269.8z"/>
	</g>
	<g>
		<path class="st2" d="M189.8,276.6c-0.2-1.8-1.9-3.2-3.7-3l-19.9,2.2l-0.3,7.5l21-3.1C188.6,280.1,190,278.5,189.8,276.6z"/>
	</g>
	<g>
		<path class="st5" d="M168.1,259.9c-0.2,0-0.4-0.2-0.4-0.4c0-0.2,0.2-0.4,0.4-0.4c0.1,0,9.5-0.1,19.6-0.9c0.3,0,0.4,0.2,0.5,0.4
			c0,0.2-0.2,0.4-0.4,0.5C177.7,259.8,168.2,259.9,168.1,259.9L168.1,259.9z"/>
	</g>
	<g>
		<path class="st5" d="M170.8,267.4c-1.7,0-2.7,0-2.7,0c-0.2,0-0.4-0.2-0.4-0.4s0.2-0.4,0.4-0.4c0.1,0,10.2,0.2,20.2-0.7
			c0.2,0,0.4,0.2,0.5,0.4c0,0.2-0.2,0.4-0.4,0.5C181.4,267.3,174.5,267.4,170.8,267.4z"/>
	</g>
	<g>
		<path class="st5" d="M168.8,275.2c-0.2,0-0.4-0.2-0.4-0.4c0-0.2,0.2-0.4,0.4-0.4c0.1,0,8-0.3,18.1-1.1c0.3,0,0.4,0.2,0.5,0.4
			c0,0.2-0.2,0.4-0.4,0.5C176.8,274.9,168.9,275.2,168.8,275.2L168.8,275.2z"/>
	</g>
	<g>
		<path class="st3" d="M34.5,217.4c6.1-66.9,48.9-76.1,48.9-76.1s0,14.5-0.4,20.6c-1,14.7-1.8,44.1-1.8,57.6L34.5,217.4z"/>
	</g>
	<g>
		<polyline class="st2" points="154,252.4 168.8,245.6 167.9,254.1 		"/>
	</g>
	<g>
		<path class="st2" d="M162.6,234.1c0,2.1,1.8,3.8,3.9,3.8l22.9-0.3l-0.1-7.6l-22.9,0.3C164.2,230.2,162.5,232,162.6,234.1z"/>
	</g>
	<g>
		<path class="st2" d="M163.2,226.5c-0.1,2,1.5,3.7,3.5,3.7l21.8,0.6l0.2-8.5l-21.9,0.6C164.9,222.9,163.2,224.5,163.2,226.5z"/>
	</g>
	<g>
		<path class="st2" d="M165,219.6c0,1.8,1.5,3.4,3.3,3.4l20.1,0.2l1.2-7.4l-21.2,0.5C166.5,216.2,165,217.7,165,219.6z"/>
	</g>
	<g>
		<path class="st5" d="M178.2,223.7c-5.4,0-10.8-0.5-10.8-0.5c-0.2,0-0.4-0.2-0.4-0.5c0-0.2,0.2-0.4,0.5-0.4c0.1,0,9.6,0.9,16,0.3
			c0.2,0,0.4,0.2,0.5,0.4c0,0.2-0.2,0.4-0.4,0.5C181.9,223.7,180,223.7,178.2,223.7z"/>
	</g>
	<g>
		<path class="st5" d="M178.1,231.1c-5.6,0-11.4-0.4-11.4-0.4c-0.2,0-0.4-0.2-0.4-0.5s0.2-0.4,0.5-0.4c0.1,0,11.2,0.7,17.6,0.2
			c0.2,0,0.4,0.2,0.5,0.4c0,0.2-0.2,0.4-0.4,0.5C182.6,231,180.4,231.1,178.1,231.1z"/>
	</g>
	<g>
		<path class="st2" d="M168.9,237.5"/>
	</g>
	<g>
		<path class="st2" d="M168.9,237.5c-1.9-0.1-3.5,1.3-3.6,3.1c-0.1,1.9,1.3,3.5,3.1,3.6c46.7,7.4,54.3-18.2,54.3-18.2l-29.6-10.6
			l-6.8,0.3l1.3,20.8L168.9,237.5"/>
	</g>
	<g>
		<path class="st5" d="M179.1,239.2c-5.4,0-10.9-0.6-10.9-0.6c-0.2,0-0.4-0.2-0.4-0.5c0-0.2,0.2-0.4,0.5-0.4
			c0.1,0,10.2,1.1,16.5,0.3c0.2,0,0.4,0.1,0.5,0.4s-0.1,0.5-0.4,0.5C183.1,239.1,181.1,239.2,179.1,239.2z"/>
	</g>
	<g>
		<path class="st9" d="M206.7,167.1c-37.8,0-72.1-26.2-80.7-64.6c-4.9-21.6-1-43.7,10.8-62.4S167,8.5,188.6,3.6
			c21.6-4.8,43.7-1,62.4,10.8s31.6,30.2,36.5,51.8l0,0c10,44.5-18.1,88.9-62.6,98.9C218.8,166.4,212.7,167.1,206.7,167.1z
			 M206.9,4.5c-5.9,0-11.8,0.7-17.7,2c-20.8,4.7-38.5,17.2-49.9,35.2s-15.1,39.4-10.4,60.2c8.3,37,41.3,62.3,77.8,62.3
			c5.8,0,11.6-0.6,17.5-2c42.9-9.6,70-52.4,60.3-95.3c-4.7-20.8-17.2-38.5-35.2-49.9C236.5,8.7,221.8,4.5,206.9,4.5z"/>
	</g>
</g>
</svg>
