<?xml version="1.0" encoding="utf-8"?>
<!-- Generator: Adobe Illustrator 24.1.2, SVG Export Plug-In . SVG Version: 6.00 Build 0)  -->
<svg version="1.1" id="Capa_1" xmlns="http://www.w3.org/2000/svg" xmlns:xlink="http://www.w3.org/1999/xlink" x="0px" y="0px"
	 viewBox="0 0 600 600" style="enable-background:new 0 0 600 600;" xml:space="preserve">
<style type="text/css">
	.st0{fill:#CED2D6;}
	.st1{fill:#FFFFFF;}
	.st2{fill:#5D9E9B;}
	.st3{fill:#3B7774;}
	.st4{fill:#EAA42C;}
	.st5{fill:#9C680E;}
</style>
<g>
	<path class="st0" d="M456.2,174.8c0,0,141.6,76.9,64.4,248.9s-339,97.3-339,97.3s-210.3-55.1-85.8-288.7S456.2,174.8,456.2,174.8z"
		/>
	<path class="st1" d="M240.9,442.1L141,503.7c22.4,12.6,40.5,17.3,40.5,17.3s60.1,17.1,131.1,16.1l90.4-89.7L240.9,442.1z"/>
	<rect x="216.7" y="69.8" class="st2" width="186.4" height="378.5"/>
	<polyline class="st2" points="216.7,69.8 234.7,62.9 415.4,65.1 417.2,438.5 403.1,448.3 	"/>
	<g>
		<path class="st3" d="M216.5,71.2c25,1.5,50,2.2,75,3.3c22.1,0.9,44.2,1.7,66.3,2.2c14.8,0.3,29.7,0.6,44.5,0.7
			c1.4,0,1.4-2.2,0-2.2c-24.8-0.3-49.5-0.8-74.3-1.6c-22.2-0.7-44.3-1.6-66.5-2.5c-15-0.6-30.1-1.2-45.1-1.3
			C215.6,69.8,215.6,71.2,216.5,71.2L216.5,71.2z"/>
	</g>
	<g>
		<path class="st3" d="M403.9,447.4c0.6-12.1,0.3-24.3,0.3-36.4c0-11.9,0-23.9-0.1-35.8c0-24.3,0-48.6-0.1-72.9
			c0-48.5-0.1-96.9-0.1-145.4c0-26.9-0.1-53.7-0.2-80.6c0-1.8-2.8-1.8-2.8,0c0.2,48.4,0.3,96.7,0.4,145.1
			c0.1,48.5,0.2,96.9,0.3,145.4c0,13.5,0.1,27,0.1,40.4c0.1,13.4-0.2,26.8,0.6,40.2C402.4,448.4,403.9,448.4,403.9,447.4
			L403.9,447.4z"/>
	</g>
	<g>
		<path class="st3" d="M402.8,77.1c4.2-3.1,8-6.5,11.9-10c1.1-1-0.6-2.7-1.7-1.7c-3.7,3.5-7.4,6.9-11.4,10.1
			C400.8,76.3,401.9,77.8,402.8,77.1L402.8,77.1z"/>
	</g>
	<circle class="st4" cx="381.1" cy="264.4" r="12"/>
	<g>
		<path class="st3" d="M231.7,378.7c0.9-16.4,0.8-32.8,1-49.2c0.2-16.4,0.4-32.8,0.6-49.2c-0.4,0.5-0.7,0.9-1.1,1.4
			c2.1-0.4,4.2-0.3,6.3-0.4c2.4-0.1,4.8-0.1,7.2-0.1c5.3-0.1,10.5,0,15.8,0c6.1,0,12.2,0.1,18.3,0.1c3.4,0,6.9,0,10.3,0
			c3.8,0,7.7,0.3,11.5-0.5c0.9-0.2,0.9-1.7,0-1.9c-3.8-0.7-7.7-0.5-11.5-0.5c-3.4,0-6.9-0.1-10.3-0.1c-6.3,0-12.6-0.1-18.9-0.1
			c-5.4,0-10.8,0-16.2,0c-4.4,0.1-9-0.3-13.3,0.6c-0.6,0.1-1.1,0.8-1.1,1.4c-0.2,16.4-0.3,32.8-0.3,49.2c0,16.4-0.3,32.8,0.1,49.2
			C230.4,379.6,231.6,379.6,231.7,378.7L231.7,378.7z"/>
	</g>
	<g>
		<path class="st3" d="M300.9,375.6c1.1-15.9,1.4-31.9,1.8-47.8c0.3-16,0-31.9,0.1-47.8c0-1.5-2.4-1.5-2.4,0
			c0.5,15.9,0,31.9-0.2,47.8c-0.3,15.9-0.8,31.9-0.6,47.8C299.6,376.5,300.8,376.5,300.9,375.6L300.9,375.6z"/>
	</g>
	<g>
		<path class="st3" d="M320.1,376.9c0.8-31.9,1.6-63.8,2.2-95.7c0-2-3-2-3.1,0c-0.4,31.9-0.9,63.8-1.1,95.7
			C318.2,378.2,320.1,378.2,320.1,376.9L320.1,376.9z"/>
	</g>
	<g>
		<path class="st3" d="M321.2,280.8c5.6,0.4,11.3,0.3,16.9,0.4c6.2,0.2,12.3,0.5,18.5,0.7c6.1,0.2,12.3,0.5,18.4,0.8
			c2.9,0.2,5.8,0.3,8.7,0.5c2.3,0.1,5.3,0.8,7.4-0.2c0.7-0.4,0.6-1.4,0-1.8c-1.9-1.3-5.2-1-7.4-1.1c-2.9-0.2-5.8-0.4-8.7-0.5
			c-6.2-0.3-12.5-0.6-18.8-0.9c-6.2-0.2-12.3-0.2-18.5-0.2c-5.6,0-11.2,0-16.8,0.7C320.2,279.5,320.5,280.7,321.2,280.8L321.2,280.8
			z"/>
	</g>
	<g>
		<path class="st3" d="M391.3,434.4c0.4-19.9-0.1-39.7-0.1-59.6c0-19.7,0.6-39.4,0.8-59.2c0.1-11.2,0-22.3-0.1-33.5
			c0-1.6-2.6-1.6-2.5,0c0.6,19.8-0.2,39.7-0.5,59.5c-0.3,19.7-0.5,39.4,0,59.1c0.3,11.2,0.6,22.5,1,33.7
			C389.9,435.3,391.3,435.3,391.3,434.4L391.3,434.4z"/>
	</g>
	<g>
		<path class="st3" d="M230.9,247.1c5.7,0.8,11.6,0.5,17.4,0.6c6,0.1,12,0.1,18,0.2c12,0.1,23.9,0.2,35.9,0.2c2.2,0,2.2-3.5,0-3.5
			c-12,0.1-23.9,0.1-35.9,0.2c-6,0.1-12,0.1-18,0.2c-5.7,0.1-11.7-0.2-17.4,0.6C230.2,245.7,230.2,247,230.9,247.1L230.9,247.1z"/>
	</g>
	<g>
		<path class="st3" d="M303.5,245.7c0.1-11-0.2-22.1-0.3-33.1c-0.1-10.8-0.1-21.5-0.3-32.3c-0.2-21.5-0.5-43.1-0.8-64.6
			c-0.2-9.2-0.6-18.4-0.2-27.6c0-1-0.8-1.7-1.7-1.7c-14.7-0.7-29.5-0.9-44.2-0.9c-7.3,0-14.5,0.1-21.8,0.2c-1.3,0-2.6-0.2-3.5,0.7
			c-0.5,0.5-1.2,1.2-1.5,1.8c-0.7,1.3-0.2,3.4-0.2,4.8c0,2.1,0,4.2,0,6.3c-0.1,31.1,0,62.2,0.3,93.3c0.2,17.5,0.4,35,0.6,52.5
			c0,2.2,3.4,2.2,3.4,0c-0.6-40.5-0.9-81-1-121.6c0-11.5,0-23,0.1-34.5c-0.2,0.4-0.3,0.8-0.5,1.2c0.5-0.5,0.9-1.1,1.4-1.6
			c-0.4,0.2-0.8,0.3-1.2,0.5c22.7-0.3,45.5-0.4,68.2,0.7c-0.6-0.6-1.2-1.2-1.7-1.7c-0.3,7.7,0,15.3,0.1,23
			c0.2,10.9,0.4,21.7,0.6,32.6c0.4,21.4,0.7,42.9,1.2,64.3c0.3,12.6,0.4,25.1,1.1,37.7C301.6,247,303.5,247,303.5,245.7L303.5,245.7
			z"/>
	</g>
	<g>
		<path class="st3" d="M318.7,248.4c5.6,0.8,11.4,0.4,17,0.4c5.7-0.1,11.4-0.1,17.2-0.2c11.6-0.2,23.2-0.5,34.7-0.4
			c2.2,0,2.2-3.5,0-3.5c-11.6,0.1-23.2,0.4-34.7,0.9c-5.7,0.2-11.4,0.5-17.2,0.7c-5.6,0.2-11.5,0-17,0.8
			C317.9,247.1,317.9,248.3,318.7,248.4L318.7,248.4z"/>
	</g>
	<g>
		<path class="st3" d="M318.7,247.8c0.4-5.1,0-10.3-0.1-15.5c-0.1-5.1-0.3-10.1-0.5-15.2c-0.4-10.3-0.7-20.7-0.9-31
			c-0.5-20.5-0.9-40.9-1-61.4c-0.1-11.6-0.1-23.3,0.1-34.9c0-1.8-2.8-1.8-2.8,0c-0.2,41.3,0,82.6,1.6,123.9
			c0.2,5.8,0.4,11.7,0.8,17.5c0.4,5.6,0.5,11.3,1.4,16.8C317.4,248.8,318.6,248.5,318.7,247.8L318.7,247.8z"/>
	</g>
	<g>
		<path class="st3" d="M314.7,90.2c5.6,1.1,11.6,0.7,17.3,0.8c6.2,0.1,12.3,0.2,18.5,0.3c6.2,0.1,12.3,0.3,18.5,0.5
			c2.9,0.1,5.8,0.2,8.8,0.3c3,0.1,6,0.5,9,0.4c1.6-0.1,2.1-2.6,0.4-2.9c-5.7-0.8-11.7-0.6-17.5-0.8c-6.3-0.2-12.6-0.4-18.9-0.5
			s-12.6-0.3-18.9-0.2c-5.7,0.1-11.7-0.3-17.3,0.9C314.2,89.3,314.1,90.1,314.7,90.2L314.7,90.2z"/>
	</g>
	<g>
		<path class="st3" d="M388.6,246.4c0.3-5.2,0.1-10.4,0.1-15.6c0-4.9,0.1-9.8,0.1-14.7c0-10.1,0-20.3,0.1-30.4
			c0-20.1,0.2-40.2,0.1-60.2c-0.1-11.4-0.2-22.8-0.4-34.2c0-2.2-3.5-2.2-3.4,0c0.9,40.3,0,80.7,0.4,121c0.1,5.6,0.2,11.1,0.3,16.7
			c0.2,5.8,0.1,11.8,0.7,17.6C386.7,247.7,388.5,247.7,388.6,246.4L388.6,246.4z"/>
	</g>
	<g>
		<path class="st3" d="M348.3,434.5c13.3,1.5,26.9,1.4,40.3,1c1.4,0,1.4-2.1,0-2.2c-13.4-0.6-27-0.6-40.3,0.6
			C347.9,434,348,434.4,348.3,434.5L348.3,434.5z"/>
	</g>
	<g>
		<g>
			<polygon class="st4" points="237.8,374.9 353.1,380.3 353.1,464.2 227,461.2 			"/>
		</g>
		<g>
			<polygon class="st4" points="230.1,464.2 237.8,374.9 206.2,396.4 206.2,484.6 			"/>
		</g>
		<g>
			<polygon class="st4" points="206.2,396.4 324.5,399.5 325.3,488.9 206.2,484.6 			"/>
		</g>
		<g>
			<polygon class="st4" points="353.1,464.2 353.1,380.3 325.3,395.2 325.3,488.9 			"/>
		</g>
		<g>
			<path class="st5" d="M325.4,489c1.2-3.3,0.6-7.3,0.6-10.8c0-3.4-0.1-6.8-0.1-10.3c-0.1-6.9-0.2-13.8-0.4-20.7
				c-0.3-15.5-0.8-31.1-0.4-46.6c0-1-1.5-1-1.5,0c0.1,15.5-0.1,31,0.2,46.6c0.1,6.9,0.3,13.8,0.4,20.7c0.1,3.4,0.1,6.8,0.2,10.3
				s-0.5,7.5,0.7,10.8C325.2,489.1,325.4,489.1,325.4,489L325.4,489z"/>
		</g>
		<g>
			<path class="st5" d="M225.5,384.1c12.3,1.7,24.8,2,37.1,2.9c8.3,0.6,16.5,1.2,24.8,1.6c10.2,0.6,20.4,1.2,30.7,1.6
				c6.8,0.3,13.7,0.5,20.6,0.5c0.7,0,0.7-1,0-1.1c-23.6-1.9-47.3-2.7-70.9-4c-13.9-0.8-28.1-2.3-42.1-2.2
				C225.2,383.4,225.1,384,225.5,384.1L225.5,384.1z"/>
		</g>
		<g>
			<path class="st5" d="M324.6,401c10.2-5.3,18.7-13.5,28.3-19.7c0.5-0.3,0.1-1.2-0.5-0.8c-9.7,6.3-19.4,12.7-28.4,19.8
				C323.7,400.7,324.2,401.3,324.6,401L324.6,401z"/>
		</g>
		<g>
			<path class="st5" d="M206.7,396.3c19,0.7,38.1,1.4,57.2,2.3c20.2,1,40.4,2.5,60.5,2.8c0.9,0,0.8-1.3,0-1.3
				c-20.2-1.5-40.4-2.1-60.5-2.9c-19-0.8-38.1-1.5-57.2-1.3C206.4,395.8,206.4,396.3,206.7,396.3L206.7,396.3z"/>
		</g>
		<g id="Capa_2_5_">
			<g id="Capa_1-2_4_">
				<g id="Capa_4_4_">
					<g id="Hoja_4_">
						<path class="st1" d="M268.8,466.2c-4.6-3.4-8.1-8.1-10-13.5l1.6-0.6c1.8,5.1,5.1,9.5,9.4,12.7L268.8,466.2z"/>
						<path id="_Trazado__4_" class="st1" d="M269.6,466.1l-0.6-1.2c0-0.1,0-0.2,0.1-0.2c10-5.4,13.7-17.9,8.3-27.9
							c-0.8-1.5-1.8-2.9-3-4.2l-3-3.3c-0.1-0.1-0.1-0.2,0-0.3c0.1-0.1,0.1-0.1,0.2,0l1.2,0.7c0.1,0,0.2,0,0.2-0.1c0,0,0-0.1,0-0.2
							c-0.8-2.1-1.3-4.3-1.3-6.6c0-1.4,0.2-2.7,0.5-4.1c0-0.1,0-0.2-0.1-0.2H272c-3.1,1.9-5.8,4.4-7.9,7.4
							c-3.5,4.8-5.3,10.5-5.3,16.4c0,0.3,0,0.6,0,0.9c0,0.1,0,0.2,0,0.4v0.2c0,0.1-0.1,0-0.2-0.1l-1.1-0.2c0,0,0,0-0.1,0l-0.2-0.1
							c0-0.1-0.2,0-0.2-0.2c0-0.3,0-0.6,0-0.9c0-6.3,2-12.4,5.6-17.4c2.8-3.9,6.5-7,10.8-9.2l1.6-0.8c0.1,0,0.2,0,0.2,0.1
							c0,0,0,0.1,0,0.2l-0.7,1.7c-2,4.9-1.4,10.5,1.5,14.9l1,1.5c2.8,3.8,4.4,8.5,4.4,13.3c0,8.2-4.3,15.6-11.5,19.5
							C269.9,466.1,269.6,466.2,269.6,466.1z"/>
					</g>
					<g id="Brazos_4_">
						<g id="_Grupo__4_">
							<path id="_Trazado_2_4_" class="st1" d="M256.4,443.1l0.1,0.1c0.1,0,0.2,0.1,0.4,0.2c0.5,0.2,1,0.4,1.5,0.5
								c0.8,0.2,1.5,0.3,2.3,0.4c0.5,0,1,0,1.4,0c0.1,0,0.2,0,0.4,0s0.2,0,0.4-0.1l0.4-0.1c0.1,0,0.3,0,0.4-0.1
								c1.1-0.3,2.2-0.8,3.2-1.4c0.5-0.4,1-0.8,1.5-1.2c0.2-0.2,0.5-0.5,0.7-0.7s0.4-0.5,0.6-0.8s0.4-0.6,0.5-0.9
								c0.1-0.1,0.2-0.3,0.2-0.4s0.1-0.1,0.1-0.2v-0.1c0.1-0.2,0.3-0.4,0.6-0.4c0.4-0.1,0.8,0.1,0.9,0.5c0.1,0.2,0,0.1,0,0.1l0,0
								v0.1c0.2,0.8,0.3,1.6,0.4,2.4c0,0.2,0,0.4,0,0.6v0.3v0.3c0,0.4-0.1,0.8-0.1,1.2c-0.1,0.8-0.3,1.6-0.6,2.4
								c-0.1,0.2-0.1,0.4-0.2,0.6l-0.3,0.5l-0.1,0.1v0.1v0.1l-0.2,0.3l-0.2,0.3c0,0,0,0.1-0.1,0.1l-0.1,0.1l-0.3,0.5
								c-0.1,0.2-0.2,0.3-0.4,0.5c-0.1,0.1-0.1,0.2-0.2,0.2l-0.2,0.2l-0.2,0.2c-0.1,0.1-0.1,0.1-0.2,0.2c-0.6,0.6-1.2,1.1-1.9,1.5
								c-0.7,0.4-1.4,0.8-2.1,1.1c-0.2,0.1-0.4,0.1-0.5,0.2c-0.1,0-0.2,0.1-0.3,0.1l-0.3,0.1c-0.2,0-0.4,0.1-0.5,0.1
								c-0.2,0-0.4,0.1-0.6,0.1c-0.1,0-0.2,0-0.3,0c-0.1,0-0.2,0-0.3,0c-0.2,0-0.4,0-0.5,0s-0.4,0-0.5,0h-0.4h-0.1h-0.5
								c-0.1,0-0.2,0-0.3,0h-0.3c-0.3,0-0.7-0.1-1-0.2c-0.2,0-0.3-0.1-0.5-0.1c-0.1,0-0.3-0.1-0.5-0.1s-0.3-0.1-0.4-0.2
								c-0.1,0-0.1,0-0.2-0.1c-0.1,0-0.1-0.1-0.2-0.1c-1-0.4-1.9-1.1-2.7-1.8c-0.6-0.6-1.2-1.2-1.6-1.9c-0.2-0.2-0.3-0.5-0.5-0.8
								c-0.1-0.2-0.2-0.4-0.3-0.6c-0.1-0.3-0.2-0.5-0.2-0.5s0.1,0.2,0.3,0.5c0.3,0.4,0.6,0.8,1,1.2c0.5,0.6,1.1,1.1,1.8,1.6
								c0.8,0.6,1.7,1,2.7,1.4c0.1,0,0.1,0,0.2,0.1c0.1,0,0.1,0,0.2,0.1l0.4,0.1c0.1,0,0.3,0.1,0.4,0.1s0.3,0.1,0.4,0.1
								c0.3,0,0.6,0.1,0.9,0.1c0.1,0,0.1,0,0.2,0s0.1,0,0.2,0h0.7c0.1,0,0.2,0,0.2,0h0.5l0.5-0.1h0.2c0.1,0,0.2,0,0.2,0
								c0.2,0,0.3-0.1,0.5-0.1s0.3-0.1,0.5-0.1l0.2-0.1l0.2-0.1c0.1-0.1,0.3-0.1,0.5-0.2c0.3-0.1,0.6-0.3,0.9-0.5l0.2-0.1l0.1-0.1
								l0.1-0.1c0.1-0.1,0.3-0.2,0.4-0.3s0.3-0.2,0.4-0.3l0.2-0.2l0.2-0.2c0.1-0.1,0.3-0.2,0.4-0.3l0.4-0.4c0.1-0.1,0.1-0.1,0.2-0.2
								l0.2-0.2l0.2-0.2c0.1-0.1,0.1-0.1,0.2-0.2s0.2-0.3,0.3-0.4l0.3-0.4l0.1-0.1c0,0,0-0.1,0.1-0.1l0.1-0.2l0.1-0.2l0,0v-0.1
								l0.1-0.1l0.2-0.5c0.1-0.2,0.1-0.3,0.2-0.5c0.5-1.3,0.7-2.8,0.7-4.2c0-0.7-0.1-1.4-0.3-2.1v-0.1l0,0c0,0,0-0.1,0,0.1
								c0.1,0.4,0.5,0.6,0.9,0.5s0.6-0.6,0.5-0.4l-0.1,0.1c0,0.1-0.1,0.2-0.1,0.3c-0.1,0.2-0.2,0.3-0.3,0.5c-0.2,0.3-0.4,0.7-0.7,1
								c-0.5,0.6-1,1.2-1.6,1.7c-0.5,0.5-1.1,0.9-1.8,1.3c-1.1,0.7-2.4,1.1-3.7,1.3c-0.1,0-0.3,0-0.4,0.1c-0.1,0-0.3,0-0.4,0
								s-0.3,0-0.4,0h-0.4c-0.5,0-1,0-1.5-0.1c-0.8-0.1-1.6-0.4-2.4-0.7c-0.5-0.2-1-0.5-1.4-0.8c-0.1-0.1-0.3-0.2-0.3-0.2
								C256.5,443.1,256.5,443.1,256.4,443.1z"/>
						</g>
					</g>
					<path class="st1" d="M257.5,436.6c-1.8-1.4-3.1-3.6-3.8-6.1c-0.7-2.6-0.5-5.1,0.5-6.9c1.1-2,4.2-5.1,12.1-2.3l-0.6,1.6
						c-5-1.7-8.5-1.2-10,1.5c-1.7,3.1-0.3,8.4,2.8,10.8L257.5,436.6z"/>
					<g id="Cuerpo_4_">
						<path class="st1" d="M245.8,453.8c0-0.2,0-0.3,0-0.5c-0.1-2.9-0.2-7.7,4-12.7c0.1-0.1,0.2-0.3,0.3-0.4
							c0.1-0.2,0.3-0.4,0.4-0.5c3.8-4.6,3.9-5.3,4.1-6.2c0-0.2,0.1-0.5,0.2-0.7l1.7,0.5c0,0.2-0.1,0.4-0.1,0.6
							c-0.2,1.3-0.6,2.2-4.5,7l0,0c-0.1,0.2-0.3,0.3-0.4,0.5c-0.1,0.1-0.2,0.3-0.3,0.4c-3.8,4.5-3.7,8.8-3.6,11.5c0,0.2,0,0.4,0,0.5
							L245.8,453.8z"/>
						<path class="st1" d="M262.3,468c-9.2,0-16.7-7.5-16.7-16.7c0-3.2,1-6.3,2.9-9.2l1.4,1c-1.7,2.6-2.6,5.4-2.6,8.2
							c0,8.3,6.7,14.9,14.9,14.9c2,0,4-0.4,5.8-1.2c0.4-0.2,0.8-0.3,1.1-0.5l0.8,1.5c-0.4,0.2-0.8,0.4-1.2,0.6
							C266.7,467.5,264.5,468,262.3,468z"/>
					</g>
				</g>
			</g>
		</g>
	</g>
</g>
</svg>
