<?xml version="1.0" encoding="UTF-8"?>
<svg width="32px" height="32px" viewBox="0 0 32 32" version="1.1" xmlns="http://www.w3.org/2000/svg" xmlns:xlink="http://www.w3.org/1999/xlink">
    <!-- Generator: Sketch 61.2 (89653) - https://sketch.com -->
    <title>Icon / Flag / x32 / Spain </title>
    <desc>Created with Sketch.</desc>
    <g id="Icon-/-Flag-/-x32-/-Spain-" stroke="none" stroke-width="1" fill="none" fill-rule="evenodd">
        <g id="Spain" transform="translate(1.000000, 6.000000)">
            <rect id="Rectangle-path" fill="#FFCE54" fill-rule="nonzero" x="0" y="5" width="30" height="11"></rect>
            <path d="M27.27,0 L2.72571429,0 C2.00280991,0 1.30951382,0.335038427 0.79834323,0.931403644 C0.287172643,1.52776886 0,2.33661367 0,3.18000144 L0,5 L30,5 L30,3.18000144 C30,2.33574665 29.71224,1.52614318 29.2001421,0.929634029 C28.6880442,0.333124877 27.9936466,-0.00132350803 27.27,0 Z" id="Shape" fill="#ED5565" fill-rule="nonzero"></path>
            <path d="M0.00428571429,17.82 C0.00428571429,18.6633884 0.291458357,19.4722339 0.802628944,20.0685995 C1.31379953,20.6649652 2.00709562,21 2.73,21 L27.2742857,21 C27.9971901,21 28.6904862,20.6649652 29.2016568,20.0685995 C29.7128274,19.4722339 30,18.6633884 30,17.82 L30,16 L0,16 L0.00428571429,17.82 Z" id="Shape" fill="#ED5565" fill-rule="nonzero"></path>
            <g id="escudo" transform="translate(4.000000, 6.500000)">
                <path d="M1.25070423,5.24366197 L1.25070423,6.45633803 C1.25070423,7.15641727 1.81823062,7.72394366 2.51830986,7.72394366 L3.23661972,7.72394366 L3.23661972,5.26056338 L1.25070423,5.24366197 Z" id="Shape" fill="#F6D660" fill-rule="nonzero"></path>
                <path d="M1.88450704,5.24366197 L1.88450704,7.53380282 C1.95180308,7.57260207 2.02252314,7.60513331 2.09577465,7.63098592 L2.09577465,5.24366197 L1.88450704,5.24366197 Z" id="Shape" fill="#ED5565" fill-rule="nonzero"></path>
                <path d="M1.42816901,5.24366197 L1.42816901,7.08169014 C1.48568789,7.18247835 1.55677441,7.27489082 1.63943662,7.35633803 L1.63943662,5.24366197 L1.42816901,5.24366197 Z" id="Shape" fill="#ED5565" fill-rule="nonzero"></path>
                <path d="M2.34507042,5.24366197 L2.34507042,7.69014085 C2.40134573,7.6939009 2.4578092,7.6939009 2.51408451,7.69014085 L2.55633803,7.69014085 L2.55633803,5.22676056 L2.34507042,5.24366197 Z" id="Shape" fill="#ED5565" fill-rule="nonzero"></path>
                <rect id="Rectangle-path" fill="#ED5565" fill-rule="nonzero" x="2.80140845" y="5.24366197" width="1" height="2.46338028"></rect>
                <rect id="Rectangle-path" fill="#ED5565" fill-rule="nonzero" x="1.25070423" y="3.00422535" width="1.98169014" height="2.23521127"></rect>
                <path d="M5.21408451,6.45633803 L5.21408451,5.25633803 L3.23239437,5.25633803 L3.23239437,7.72394366 L3.95070423,7.72394366 C4.64913283,7.72161554 5.21408451,7.15477052 5.21408451,6.45633803 Z" id="Shape" fill="#ED5565" fill-rule="nonzero"></path>
                <rect id="Rectangle-path" fill="#FFFFFF" fill-rule="nonzero" x="3.23239437" y="3.00422535" width="1.98169014" height="2.23521127"></rect>
                <circle id="Oval" stroke="#ED5565" stroke-width="0.5" fill="#4A89DC" fill-rule="nonzero" cx="3.23239437" cy="5.24366197" r="1"></circle>
                <rect id="Rectangle-path" fill="#FFFFFF" fill-rule="nonzero" x="-4.54636329e-14" y="3.00422535" width="1" height="4.1028169" rx="0.3"></rect>
                <rect id="Rectangle-path" fill="#FFFFFF" fill-rule="nonzero" x="5.86478873" y="3.00422535" width="1" height="4.1028169" rx="0.3"></rect>
                <path d="M5.14647887,1.55070423 C5.14647887,1.55070423 5.14647887,1.52957746 5.14647887,1.51690141 C5.14647887,1.17887324 4.30140845,0.904225352 3.21549296,0.904225352 C2.12957746,0.904225352 1.28450704,1.17887324 1.28450704,1.51690141 C1.28312286,1.53095189 1.28312286,1.54510445 1.28450704,1.55915493 L1.70704225,2.04507042 L1.85915493,2.0028169 C1.92111494,1.99810014 1.98219427,1.98531608 2.04084507,1.96478873 C2.12328342,1.92842848 2.20796341,1.89737915 2.2943662,1.87183099 L2.57323944,1.91830986 L2.76760563,1.78732394 L2.99577465,1.87605634 L3.21126761,1.74084507 L3.41408451,1.88028169 L3.65915493,1.77042254 C3.7308387,1.825359 3.80560893,1.8761463 3.88309859,1.92253521 C3.88309859,1.92253521 4.0943662,1.82112676 4.0943662,1.82112676 L4.24225352,1.97746479 L4.45774648,1.8971831 L4.62676056,2.08309859 L5.14647887,1.55070423 Z" id="Shape" fill="#ED5565" fill-rule="nonzero"></path>
                <path d="M4.33098592,1.97746479 L4.17887324,1.82112676 C4.17887324,1.82112676 3.97605634,1.92253521 3.95915493,1.92253521 C3.87892813,1.87618162 3.80134339,1.82539885 3.72676056,1.77042254 L3.46901408,1.88028169 L3.25352113,1.74084507 L3.02535211,1.87605634 L2.78450704,1.78732394 L2.58169014,1.91830986 L2.28591549,1.87183099 C2.19537714,1.89738059 2.10647996,1.92842404 2.01971831,1.96478873 C1.95815079,1.98526496 1.89428451,1.99803824 1.82957746,2.0028169 L1.66901408,2.04507042 L1.7915493,2.15492958 L1.96056338,2.45070423 L4.49577465,2.45070423 L4.66478873,2.15492958 L4.74929577,2.08309859 L4.57183099,1.8971831 L4.33098592,1.97746479 Z" id="Shape" fill="#FFFFFF" fill-rule="nonzero"></path>
                <ellipse id="Oval" stroke="#FFFFFF" stroke-width="0.5" stroke-linecap="round" stroke-linejoin="round" cx="3.22816901" cy="2.44647887" rx="1.14507042" ry="1"></ellipse>
                <path d="M1.82535211,2.15070423 C2.00704225,2.02394366 2.40422535,1.96056338 3.23239437,1.96056338" id="Shape" stroke="#FFFFFF" stroke-width="0.5" stroke-linecap="round" stroke-linejoin="round"></path>
                <path d="M3.22816901,1.96056338 C4.07323944,1.96056338 4.45352113,2.02394366 4.63521127,2.15070423" id="Shape" stroke="#FFFFFF" stroke-width="0.5" stroke-linecap="round" stroke-linejoin="round"></path>
                <ellipse id="Oval" stroke="#FFFFFF" stroke-width="0.5" stroke-linecap="round" stroke-linejoin="round" cx="3.22816901" cy="2.44647887" rx="1.14507042" ry="1"></ellipse>
                <ellipse id="Oval" fill="#ED5565" fill-rule="nonzero" cx="3.22816901" cy="2.44647887" rx="1.14507042" ry="1"></ellipse>
                <path d="M2.30704225,1.2084507 C2.22202585,1.12423217 2.18053703,1.00555023 2.1945671,0.886707 C2.20859721,0.767863817 2.27658241,0.662105873 2.37887324,0.6 C2.60672582,0.480184352 2.88158932,0.493119127 3.0971831,0.633802817 L3.22816901,0.718309859 L3.35915493,0.633802817" id="Shape" stroke="#FFFFFF" stroke-width="0.5" stroke-linecap="round" stroke-linejoin="round"></path>
                <path d="M1.37323944,1.51690141 C1.28692821,1.42648065 1.2427661,1.30384454 1.25161496,1.17915596 C1.26046382,1.05446738 1.32150254,0.939297127 1.41971831,0.861971831 C1.6480347,0.718500803 1.92846938,0.684414803 2.18450704,0.769014085" id="Shape" stroke="#FFFFFF" stroke-width="0.5" stroke-linecap="round" stroke-linejoin="round"></path>
                <path d="M4.15352113,1.2084507 C4.23853754,1.12423217 4.28002635,1.00555023 4.26599628,0.886707 C4.25196617,0.767863817 4.18398097,0.662105873 4.08169014,0.6 C3.85383756,0.480184352 3.57897406,0.493119127 3.36338028,0.633802817" id="Shape" stroke="#FFFFFF" stroke-width="0.5" stroke-linecap="round" stroke-linejoin="round"></path>
                <path d="M5.08309859,1.51690141 C5.16940982,1.42648065 5.21357193,1.30384454 5.20472307,1.17915596 C5.19587421,1.05446738 5.13483549,0.939297127 5.03661972,0.861971831 C4.80830332,0.718500803 4.52786865,0.684414803 4.27183099,0.769014085" id="Shape" stroke="#FFFFFF" stroke-width="0.5" stroke-linecap="round" stroke-linejoin="round"></path>
                <line x1="3.22816901" y1="1.11971831" x2="3.22816901" y2="0.722535211" id="Shape" stroke="#FFFFFF" stroke-width="0.5" stroke-linecap="round" stroke-linejoin="round"></line>
                <path d="M4.83802817,1.92676056 C4.71971831,2.12535211 4.41549296,2.06197183 4.56338028,1.80422535 C4.56338028,1.80422535 4.47042254,2.01126761 4.28450704,1.97746479 C4.17042254,1.97746479 4.11126761,1.85070423 4.14084507,1.69859155 C4.12962211,1.83065573 4.01543586,1.92986675 3.88309859,1.92253521 C3.67183099,1.92253521 3.69295775,1.63943662 3.69295775,1.63943662 C3.69295775,1.63943662 3.69295775,1.88873239 3.46056338,1.88028169 C3.39779425,1.87808003 3.33847572,1.85101306 3.29567734,1.80504444 C3.252879,1.75907586 3.23011263,1.69797756 3.23239437,1.63521127 C3.23702628,1.69939669 3.21531587,1.76270003 3.17226642,1.81053275 C3.12921701,1.85836542 3.06854235,1.886601 3.00422535,1.88873239 C2.77605634,1.88873239 2.77183099,1.64788732 2.77183099,1.64788732 C2.77183099,1.64788732 2.77183099,1.91408451 2.58169014,1.93098592 C2.44935287,1.93831745 2.33516662,1.83910644 2.32394366,1.70704225 C2.34929577,1.85915493 2.2943662,1.96478873 2.18028169,1.98591549 C1.9943662,2.01971831 1.90140845,1.81267606 1.90140845,1.81267606 C2.03661972,2.07464789 1.74507042,2.13380282 1.62676056,1.93521127" id="Shape" stroke="#FFFFFF" stroke-width="0.5" stroke-linecap="round" stroke-linejoin="round"></path>
                <circle id="Oval" fill="#4A89DC" fill-rule="nonzero" cx="3.22816901" cy="0.422535211" r="1"></circle>
            </g>
        </g>
    </g>
</svg>