<?xml version="1.0" encoding="utf-8"?>
<!-- Generator: Adobe Illustrator 24.1.2, SVG Export Plug-In . SVG Version: 6.00 Build 0)  -->
<svg version="1.1" xmlns="http://www.w3.org/2000/svg" xmlns:xlink="http://www.w3.org/1999/xlink" x="0px" y="0px"
	 viewBox="0 0 269 243" style="enable-background:new 0 0 269 243;" xml:space="preserve">
<style type="text/css">
	.st0{fill:#FBF4E9;}
	.st1{clip-path:url(#SVGID_2_);}
	.st2{fill:#478480;}
	.st3{fill:#5D9E9B;}
	.st4{fill:#ED806B;}
	.st5{fill:#FFE2CF;}
	.st6{fill:none;stroke:#1D1D1B;stroke-width:0.3554;stroke-linejoin:round;stroke-miterlimit:10;}
	.st7{fill:#FFFFFF;}
	.st8{fill:#FFD2B3;}
	.st9{fill:#333333;}
	.st10{fill:none;stroke:#1D1D1B;stroke-width:0.5645;stroke-linecap:round;stroke-miterlimit:10;}
	.st11{fill:none;stroke:#1D1D1B;stroke-width:0.5645;stroke-miterlimit:10;}
	.st12{fill:#F9CF8B;}
	.st13{fill:#EAA42C;}
	.st14{fill:none;stroke:#FFFFFF;stroke-width:0.5645;stroke-linecap:round;stroke-miterlimit:10;}
	.st15{fill:#FFBE5F;}
	.st16{fill:#5D9D9A;}
	.st17{fill:#D86252;}
</style>
<g id="_x31__Que_es_CF">
	<g>
		<path class="st0" d="M23.1,65.8c0,0-54.6,99.2,23.5,154.7s191.4-3.4,211.7-53.3c0,0,29.2-58.1-38.9-101.4S58.6,7.7,23.1,65.8z"/>
		<g>
			<defs>
				<path id="SVGID_1_" d="M23.1,65.8c0,0-54.6,99.2,23.5,154.7s191.4-3.4,211.7-53.3c0,0,29.2-58.1-38.9-101.4S58.6,7.7,23.1,65.8z
					"/>
			</defs>
			<clipPath id="SVGID_2_">
				<use xlink:href="#SVGID_1_"  style="overflow:visible;"/>
			</clipPath>
			<g class="st1">
				<path class="st2" d="M101.3,138.2l19.3-3.6c0,0-1.5-10.5-0.4-12.9c1.6-3.7,18.5-16.7,13.4-35.3c-5.2-18.6-16.1-26.7-35.9-23.5
					c-11,1.8-26.4,10.6-21,39.9L96,99.5c0,0-4.1-14.8,7-16.5c11-1.8,12.3,12.3,10.2,15.1c-3,4-5.1,7.7-9.4,12.7
					C97.8,117.5,99.3,130.5,101.3,138.2z"/>
				<path class="st3" d="M105.4,137.7l19.3-3.6c0,0-1.5-10.5-0.4-12.9c1.6-3.7,18.5-16.7,13.4-35.3s-16.1-26.7-35.9-23.5
					c-11,1.8-26.4,10.6-21,39.9l19.4-3.3c0,0-4.1-14.8,7-16.5c11-1.8,12.3,12.3,10.2,15.1c-3,4-5.1,7.7-9.4,12.7
					C102,117,103.4,130,105.4,137.7z"/>
				<path class="st4" d="M-3.3,223.5c0,0-0.9-60.3,28.5-76.7c0,0,11.4-3.4,19.9,1.9s18,10.7,23.6,24.4l-2.6,7.2l20.3,61.3
					L-3.3,223.5z"/>
				<path class="st5" d="M44.1,205c29-5.8,52.4-32.2,57.6-39.7s11.3-10.3,16.6-11c5.3-0.7,5.9-2.1,5.9-2.1s0.4-14.6,0-19
					c-0.4-4.4-5.2-3.8-14.4-1.9s-20.3,14.6-20.3,14.6c-17.5,23.2-43.9,27.4-43.9,27.4s-11,1-20,1.7s-10.7,9.4-11,13.8
					C14.2,197.2,19.7,207.9,44.1,205z"/>
				<circle class="st6" cx="144.1" cy="209.9" r="1.9"/>
				<path class="st7" d="M179,233.1c0,0-0.9-74.6,7.3-104.2l8.4,3.2c0,0,11.3,4.1,28.6-7.9c0,0,29.9,45.3,39.4,80.6
					C262.7,204.9,229.1,230.9,179,233.1z"/>
				<circle class="st3" cx="115.3" cy="170.7" r="9.7"/>
				<path class="st8" d="M193.3,135.5c0,0,3.4,6,11.5,3.9c0,0,7.7-2.5,8.4-7.9c0,0-5.7-8.5-8-27.7c0,0,0.3-14.5-11-11.2
					s-16.8,4-17.1,9.5c-0.3,5.5,2.8,19.5,6.8,23.5C188,129.5,187.9,126.8,193.3,135.5z"/>
				<path class="st3" d="M204,88.4c0,0,0.7-2.8-8.8-2.6c-9.5,0.2-20.8,1.5-22.7,7c-1.9,5.5,2.6,8.5,2.6,8.5s4.6,2.4,8.7-0.8
					c4.2-3.1,7.7-6.1,11.4-4.7c3.7,1.3,6.3-0.2,6.3-0.2s1.7,0.9,1.5,3s1.8,9.1,1.8,9.1l4.6,0.4c0,0,0.5-0.3,1.3-7.2
					c0.9-6.8,0.7-13.9-3.7-12.8C202.5,89.5,204,88.4,204,88.4z"/>
				<path class="st5" d="M25.7,148.7c0,0,11.5,5.4,19.4,0c0,0-0.8-4.4,3.3-8.4c4.2-4,8.1-10,6.5-26.9H25.7V148.7z"/>
				<circle class="st5" cx="24.5" cy="124" r="4.8"/>
				<path class="st9" d="M28,144.7l-20.7-1c0,0,4-24,6.1-32.6S25.5,98.1,33,97.5c7.5-0.6,20.9,1.2,22.3,11.9c0.1,1,0.3,4,0.3,4H28.2
					L28,144.7z"/>
				<path class="st10" d="M180.8,109.6c0,0-0.6-3.1,2-3.6c1.3-0.2,3,0.1,3,3.6"/>
				<path class="st10" d="M192.4,109.6c0,0-0.6-3.1,2-3.6c1.3-0.2,3,0.1,3,3.6"/>
				<circle class="st8" cx="208.2" cy="109.9" r="4.8"/>
				<circle class="st5" cx="25.8" cy="124.8" r="4.9"/>
				<circle class="st9" cx="39.1" cy="119.2" r="1.1"/>
				<circle class="st9" cx="51.4" cy="119.2" r="1.1"/>
				<path class="st11" d="M105.4,138.6c0,0,6.1-4.4,19-3.4"/>
				<path class="st11" d="M106.1,144.5c0,0,5.4-4.2,18.3-3.2"/>
				<path class="st11" d="M107.3,150.2c0,0,5-2.8,17.1-2.8"/>
				<path class="st9" d="M36.5,117.7c0.7-0.2,1.2-1.1,2.7-1c1.8,0.1,2.9,1.2,3,0c0.1-1.3-1.6-2.1-3.4-2.1s-3.1,0.9-3.5,1.6
					S35.1,118.2,36.5,117.7z"/>
				<path class="st9" d="M48.8,117.7c0.7-0.2,1.2-1.1,2.7-1c1.8,0.1,2.9,1.2,3,0c0.1-1.3-1.6-2.1-3.4-2.1s-3.1,0.9-3.5,1.6
					S47.4,118.2,48.8,117.7z"/>
				<circle class="st12" cx="59.6" cy="68.7" r="3.2"/>
				<circle class="st13" cx="69.9" cy="55.5" r="7.1"/>
				<circle class="st14" cx="69.9" cy="55.5" r="4.9"/>
				<circle class="st15" cx="156.5" cy="201.9" r="6"/>
				<path class="st15" d="M37.6,124.5h-1.7c-0.8,0-1.4-0.6-1.4-1.4v-0.1c0-0.8,0.6-1.4,1.4-1.4h1.7c0.8,0,1.4,0.6,1.4,1.4v0.1
					C39,123.8,38.3,124.5,37.6,124.5z"/>
				<path class="st15" d="M53.8,124.5h-1.7c-0.8,0-1.4-0.6-1.4-1.4v-0.1c0-0.8,0.6-1.4,1.4-1.4h1.7c0.8,0,1.4,0.6,1.4,1.4v0.1
					C55.2,123.8,54.6,124.5,53.8,124.5z"/>
				<path class="st16" d="M192.4,105.1c0.7-0.3,1-1.5,3.9-0.8c0.9,0.2,2.2,0.6,2.4-0.4s-1.6-1.7-2.3-1.9c-0.9-0.2-2.2-0.3-3.8,0.4
					c-1,0.5-1.6,1.2-1.6,1.7S191.3,105.6,192.4,105.1z"/>
				<path class="st16" d="M180.4,105.6c0.7-0.3,1-1.5,3.9-0.8c0.9,0.2,2.2,0.6,2.4-0.4c0.2-1.1-1.6-1.7-2.3-1.9
					c-0.9-0.2-2.2-0.3-3.8,0.4c-1,0.5-1.6,1.2-1.6,1.7C179.1,105.2,179.4,106.1,180.4,105.6z"/>
				<path class="st17" d="M45.5,213.1l0.4-39.2c0,0-23.1-9.4-30.3,0S2.3,204.3,45.5,213.1z"/>
				<path class="st4" d="M45.5,209.9l0.4-39.2c0,0-23.1-9.4-30.3,0S-1.3,203.3,45.5,209.9z"/>
				<path class="st10" d="M187.6,105.8c0.2,0.2-0.3,5.9-0.9,7.4c-0.6,1.6,0.7,1.6,1.7,1.5"/>
				<path class="st10" d="M46.5,118.4c0,0,1,4.5,1.2,6c0.1,0.7,0.1,1.7-2,1.7"/>
				<path class="st10" d="M42.5,126.8c0,0-0.2,2.4,2.4,2.1"/>
				<path class="st11" d="M187.5,116.8c0,0,0.9,1.3,2.4,0.7c0,0,1.3-0.4,0.8-1.9"/>
			</g>
		</g>
		<path class="st9" d="M38.4,98.2c0,0,4.4-11.1-1.1-13.6c-5.5-2.5-9,1.4-16.3,0l-8-1.9l-1.7,14c0,0,11.9,0.7,20.6-3.8
			c1.2-0.6,6-1.6,2.1,5.2L38.4,98.2z"/>
		<rect x="34.1" y="94.8" class="st16" width="5.9" height="2.9"/>
		<path class="st8" d="M177.2,124.8c0,0-22.8-26.2-0.2-64.8l-15.5-17c0,0-36.8,48.9-6.1,98.1"/>
		<path class="st8" d="M224.1,120.9c0,0,17.5-33.6-14-65.3l10.7-20.4c0,0,46.4,34.9,32.2,91.5"/>
		<path class="st7" d="M185.7,0.1c-22.7,0-41.2,15.2-41.2,34c0,11.1,6.4,20.9,16.3,27.1l0,0L172,81l1.7-14.5c3.8,1,7.8,1.5,12,1.5
			c22.7,0,41.2-15.2,41.2-34S208.5,0.1,185.7,0.1z"/>
		<circle class="st3" cx="160.9" cy="35.2" r="5.8"/>
		<circle class="st3" cx="183.2" cy="35.2" r="5.8"/>
		<circle class="st3" cx="206.1" cy="35.2" r="5.8"/>
		<path class="st8" d="M222.2,58.8c0,0-3.8-2.2-7.2-6.2c-3.5-4-4.9-3.2-6-1.6c-1.2,1.8,7.1,11.3,7.1,11.3"/>
		<path class="st8" d="M158.2,65.1c0,0,0.1-4.4,1.8-9.3c1.8-5,0.4-5.8-1.5-6c-2.2-0.2-6.4,11.7-6.4,11.7"/>
		<path class="st7" d="M151.6,139.4c0,0,16.8,20.4,32.4,26.4l2.3-36.9c0,0-3.6-2.2-10.8-9.8C175.5,119.2,166.1,134.1,151.6,139.4z"
			/>
		<path class="st7" d="M243.8,159.6c0,0,10.9-19.6,13.7-33.9l-31.3-12.6l-3,11.1L243.8,159.6z"/>
		<path class="st5" d="M89.6,145.9c0,0,6.8-11.2,10.5-13.4l1.2,5.7L89.6,145.9z"/>
	</g>
</g>
<g id="_x32__Adopciones">
</g>
<g id="_x33__Cuenta_de_usuario">
</g>
<g id="_x34__Pagos">
</g>
<g id="_x35__Productos_y_cosechas">
</g>
<g id="_x36__Pedidos">
</g>
<g id="_x37__Sobre_los_farmers">
</g>
<g id="Principal">
</g>
</svg>
