<svg id="Capa_1" data-name="Capa 1" xmlns="http://www.w3.org/2000/svg" viewBox="0 0 556.71 416.39"><defs><style>.cls-1{fill:#ced2d6;}.cls-2{fill:#fff;}.cls-3{fill:#dfa26f;}.cls-4{fill:#222;}.cls-5{fill:#ffdc6e;}.cls-6{fill:#5d9d9a;}</style></defs><title>Farmer boy</title><path class="cls-1" d="M139.1,415.6C124.8,385.4,96.6,348,132,282.2S296,197,298.1,195.4c4.8-3.7,39.1-5.5,59.1-53.5,19.2-46,121.9-76.1,185.9,26C613.8,280.7,576,437.5,449,489.6S166.5,473.5,139.1,415.6Z" transform="translate(-21.64 -91.82)"/><path class="cls-2" d="M422.7,243.7,368,225.4c-22.5,12.5-57.6,10.8-57.6,10.8L280,258.4,255.4,493.5c58.4,18.1,129.6,22.4,193.6-3.8,1.8-.7,3.5-1.5,5.3-2.3C444.7,412.8,422.7,243.7,422.7,243.7Z" transform="translate(-21.64 -91.82)"/><path class="cls-3" d="M527.4,433c-10.3-39.9-22.1-89.3-22.1-89.3l-65.8,42.9L454,487.5A201.71,201.71,0,0,0,527.4,433Z" transform="translate(-21.64 -91.82)"/><path class="cls-3" d="M368.6,225.9l-8.2-106.3s-39.5-11.8-80.5,8.8c0,0,2.9,55.5,8.9,67.8s21.2,22.2,23.4,40L328,241s5.4,14,7,22.7c0,0,6.9-21.4,9.4-23,0,0,16.7-4.1,23.5-11.2" transform="translate(-21.64 -91.82)"/><ellipse class="cls-3" cx="349.86" cy="76.48" rx="14.7" ry="14"/><path class="cls-4" d="M372.7,158.7c3.7,1,7.1,2.7,9.1,6.2a.81.81,0,0,0,1.4-.8,13.37,13.37,0,0,0-10.3-6.5c-.7,0-.8,1-.2,1.1Z" transform="translate(-21.64 -91.82)"/><path class="cls-4" d="M308.6,146.6a40.83,40.83,0,0,1-2.1,24.9,1.09,1.09,0,0,0,.7,1.6,10,10,0,0,0,5.4-.3c1.3-.5.7-2.6-.6-2.1a7.56,7.56,0,0,1-4.2.3,11.11,11.11,0,0,0,.7,1.6,36.49,36.49,0,0,0,1.5-26.4c-.4-.7-1.6-.4-1.4.4Z" transform="translate(-21.64 -91.82)"/><path class="cls-4" d="M287.3,149.6a12.55,12.55,0,0,0,1.7-1.3,8.17,8.17,0,0,1,2-1.2,6.66,6.66,0,0,1,.7-.3l1.1-.3,1.2-.3c.1,0,.3-.1.1,0,.2,0,.5-.1.7-.1a8.85,8.85,0,0,1,2.3,0c.4,0,.8.1,1.1.1h.2c.2,0,1,.1.6.1a14.19,14.19,0,0,1,2.2.5l1,.3c.2.1.3.1.5.2-.3-.1.2.1.2.1a2,2,0,0,0,2-3.4,15.8,15.8,0,0,0-10.6-2.2,13.55,13.55,0,0,0-5.6,1.7c-1.8,1-3.6,2.6-3.8,4.8a1.63,1.63,0,0,0,2.4,1.3Z" transform="translate(-21.64 -91.82)"/><path class="cls-4" d="M321.4,147.4a12.55,12.55,0,0,0,1.7-1.3,8.17,8.17,0,0,1,2-1.2,6.66,6.66,0,0,1,.7-.3l1.1-.3,1.2-.3c.1,0,.3-.1.1,0,.2,0,.5-.1.7-.1a8.85,8.85,0,0,1,2.3,0c.4,0,.8.1,1.1.1h.2c.2,0,1,.1.6.1a14.19,14.19,0,0,1,2.2.5l1,.3c.2.1.3.1.5.2-.3-.1.2.1.2.1a2,2,0,0,0,2-3.4,15.8,15.8,0,0,0-10.6-2.2,13.55,13.55,0,0,0-5.6,1.7c-1.8,1-3.6,2.6-3.8,4.8a1.65,1.65,0,0,0,2.4,1.3Z" transform="translate(-21.64 -91.82)"/><path class="cls-4" d="M285.2,182.3s18.7-14,57.3-1.5c3.5,1.1,9.4-.3,12.1-8.4s2.2-26.3,2.2-26.3h5.4l3.3,46.4s.5,24.4-17.3,29.1-39.2,3.7-39.2,3.7a72.35,72.35,0,0,0-11.5-16.6C290.3,201.2,285.3,190.7,285.2,182.3Z" transform="translate(-21.64 -91.82)"/><circle class="cls-4" cx="274.06" cy="61.58" r="3.2"/><circle class="cls-4" cx="306.46" cy="60.28" r="3.2"/><path class="cls-2" d="M309.4,186.2c1.3,2.2,4.4,4.5,7.1,3.6,2.9-1,4-4.7,4-7.4a1,1,0,0,0-2.1,0c0,1.8-.7,4.8-2.5,5.6s-4.4-1.2-5.7-2.4a.51.51,0,0,0-.8.6Z" transform="translate(-21.64 -91.82)"/><path class="cls-3" d="M262.2,381.9C73,474.3,54.6,267.7,54.6,267.7l63,7.3c40.8,66.1,89.4,30.9,89.4,30.9" transform="translate(-21.64 -91.82)"/><path class="cls-4" d="M285.2,133.1s-17.8,8.6-23.1-13.1c-3.6-14.7,8.6-20.7,13.6-19.2s11.4,1,19.5-2.7S309.4,88.6,325,94s13.7,11.7,21.6,9,21.3,1,21.5,10.2,0,41.5,0,41.5l-11.3,4.8-5.7-39.9s-1.7,7.3-12.1,7.4-18-5.8-22.1-6.3-8.8,2.2-15.3,4.9C294.9,128.2,285.2,133.1,285.2,133.1Z" transform="translate(-21.64 -91.82)"/><path class="cls-5" d="M124.3,306.6,75.6,329.2A9.52,9.52,0,0,1,63,324.6L28,249.2a9.52,9.52,0,0,1,4.6-12.6L81.4,214A9.52,9.52,0,0,1,94,218.6L129,294A9.47,9.47,0,0,1,124.3,306.6Z" transform="translate(-21.64 -91.82)"/><path class="cls-4" d="M83,209.5,28.2,234.9a1.83,1.83,0,0,1-2.4-.9l-4-8.5a1.83,1.83,0,0,1,.9-2.4l54.8-25.4a1.83,1.83,0,0,1,2.4.9l4,8.5A1.83,1.83,0,0,1,83,209.5Z" transform="translate(-21.64 -91.82)"/><path class="cls-4" d="M28.5,237.1c-1.5,2.5-2.8,5.2-4.2,7.7-.9,1.6-2.2,3.2-2.3,5.1s1.8,3,3.5,3.5a14.88,14.88,0,0,0,6.3.5c4.5-.7,7.3-4,9.7-7.6,1.9-2.9,3.9-6.8,7.5-7.7,4.5-1.2,8.9,2.6,13.5,1.2,4.8-1.4,5.2-7.2,8.9-9.9a9.79,9.79,0,0,1,7-1.8c2.7.4,5.2,1.7,7.9,1.1,5-1,6.9-6.4,10.7-9.2a5.44,5.44,0,0,1,2.3-1.1c.7-.1,1.4-.1,2.1-.2,1.2-.2,2.8-.8,2.3-2.3a3.24,3.24,0,0,0-2-1.8c-1.2-.4-2.4-.7-3.6-1.1-2.5-1-4.8-2.2-7.4-3a16.78,16.78,0,0,0-3.9-.7.75.75,0,1,0,0,1.5,25.26,25.26,0,0,1,7.2,2.3,57.41,57.41,0,0,0,6.9,2.6c.3.1.5.1.7.3-.1-.1.3.4.3.3v-.1c0-.1.1-.1.1-.2h-.1c-.1,0-.6.2-.7.2a3.4,3.4,0,0,1-1,.1c-.6.1-1.1.1-1.7.2a9.06,9.06,0,0,0-2.6,1.3,32.36,32.36,0,0,0-4.8,5c-1.4,1.6-3,3.4-5.1,3.9-2.5.6-4.9-.6-7.4-1a11.16,11.16,0,0,0-6.5.9,11.9,11.9,0,0,0-4.9,4.3c-1.1,1.7-1.9,3.6-3.3,5-3.4,3.4-8.5.3-12.4-.1-8.3-.9-10.4,8.4-15.1,13a9.7,9.7,0,0,1-7.2,2.7,13.33,13.33,0,0,1-2.8-.3,5.36,5.36,0,0,1-2.7-1.1c-1.2-1.2,1-4,1.7-5.1a77.09,77.09,0,0,0,3.9-8.2c.4-.3-.5-.7-.8-.2Z" transform="translate(-21.64 -91.82)"/><path class="cls-2" d="M108.1,302.1c-.4-1.3-.8-2.6-1.3-3.8s-1.1-2.4-1.6-3.7c-1.1-2.4-2.2-4.8-3.4-7.2s-2.3-4.8-3.4-7.2a53.76,53.76,0,0,0-3.9-7.1,1.11,1.11,0,0,0-2,.9c1.5,5.1,4.3,9.8,6.7,14.6,1.2,2.4,2.3,4.7,3.6,7.1.6,1.2,1.2,2.4,1.9,3.6s1.5,2.3,2.2,3.4c.3.7,1.5.3,1.2-.6Z" transform="translate(-21.64 -91.82)"/><path class="cls-2" d="M91.4,266.8a54.86,54.86,0,0,0-2.1-5.1c-.7-1.6-1.5-3.3-2.2-4.9-1.6-3.3-3-6.6-4.9-9.7-.6-1-2.3-.4-1.9.8a96.3,96.3,0,0,0,4.2,10c.7,1.6,1.5,3.2,2.3,4.8a37.54,37.54,0,0,0,2.5,4.9,1.13,1.13,0,0,0,2.1-.8Z" transform="translate(-21.64 -91.82)"/><rect class="cls-2" x="23.92" y="220.19" width="64" height="5.4" transform="translate(-110.24 -47.6) rotate(-24.88)"/><path class="cls-3" d="M116.7,267.5a35.68,35.68,0,0,1-12.1-1.2,10,10,0,0,1-7.2-7.3s-.9-4.9,5.3-5.8c4.4-.7,11.5,0,11.5,0s13.3,1.8,13.9,16.5c0,0,.1,8.3-4.1,13.4Z" transform="translate(-21.64 -91.82)"/><path class="cls-3" d="M35.1,264.2a138.71,138.71,0,0,1,18.8-7.8s10.3-4.6,13.9,1.7c0,0,4.1,9.1-6.2,12.8s-22.2,8.4-22.2,8.4-6,1.4-8.7-4C27.9,269.7,31.8,265.8,35.1,264.2Z" transform="translate(-21.64 -91.82)"/><path class="cls-3" d="M41.4,278.6a148.75,148.75,0,0,1,18.7-7.9S70.4,266,74,272.4c0,0,4.2,9.1-6.2,12.8s-22.2,8.5-22.2,8.5-5.9,1.4-8.8-4C34.2,284.2,38.1,280.3,41.4,278.6Z" transform="translate(-21.64 -91.82)"/><path class="cls-3" d="M47.8,292.6a148.75,148.75,0,0,1,18.7-7.9s10.3-4.7,13.9,1.7c0,0,4.2,9.1-6.2,12.8S52,307.7,52,307.7s-5.9,1.4-8.8-4S44.4,294.2,47.8,292.6Z" transform="translate(-21.64 -91.82)"/><path class="cls-3" d="M54.6,307.4a148.75,148.75,0,0,1,18.7-7.9s10.3-4.7,13.9,1.7c0,0,4.2,9.1-6.2,12.8s-22.2,8.5-22.2,8.5-5.9,1.4-8.8-4C47.3,313,51.2,309,54.6,307.4Z" transform="translate(-21.64 -91.82)"/><path class="cls-2" d="M260.4,262.6s-42.4,33.6-65.8,46.6c0,0,29.2,69,43.1,88.8l19.7-9.2Z" transform="translate(-21.64 -91.82)"/><path class="cls-2" d="M452.2,386.6c43.1-15.6,64.5-35.8,64.5-35.8s-22.7-87-81.2-105.1" transform="translate(-21.64 -91.82)"/><path class="cls-4" d="M51.2,308.7c2.1-.8,4.2-1.8,6.2-2.7,2.2-1,4.4-1.9,6.6-2.8,4.3-1.8,8.8-3.3,13.2-4.9.9-.3.5-1.7-.4-1.4a132.13,132.13,0,0,0-13.2,5c-2.2.9-4.3,1.9-6.4,2.9a48.3,48.3,0,0,0-6.4,3.3c-.1.2.1.8.4.6Z" transform="translate(-21.64 -91.82)"/><path class="cls-4" d="M43.6,294.2a14.68,14.68,0,0,0,3.4-1.5c1.2-.6,2.4-1.1,3.6-1.7,2.4-1.1,4.9-2.3,7.4-3.3s4.9-1.9,7.4-2.7c1.2-.4,2.4-.7,3.6-1.1a22.59,22.59,0,0,0,3.7-1.1.58.58,0,0,0-.3-1.1,17.78,17.78,0,0,0-3.9.7,22.85,22.85,0,0,0-3.7,1.2,65.2,65.2,0,0,0-7.3,2.9c-2.4,1.1-4.8,2.2-7.1,3.4-1.2.6-2.4,1.3-3.6,1.9a17.74,17.74,0,0,0-3.3,1.9c-.3.3-.1.5.1.5Z" transform="translate(-21.64 -91.82)"/><path class="cls-4" d="M38.8,280.3c2.2-.8,4.4-2,6.5-2.9,2.4-1,4.7-2.1,7.1-3,4.6-1.8,9.4-3.4,14.1-5,.8-.3.5-1.6-.4-1.3a120.7,120.7,0,0,0-14.2,5.2c-2.2.9-4.4,1.9-6.6,2.9a55.8,55.8,0,0,0-6.9,3.5c-.3.1-.1.8.4.6Z" transform="translate(-21.64 -91.82)"/><path class="cls-4" d="M340.6,503.5c-.3-15.8-.9-31.6-1.4-47.3-.5-15.1-.9-30.2-1.3-45.3-.4-14.9-.8-29.9-1.1-44.8-.3-15.1-.6-30.1-.8-45.2-.2-15.7-.4-31.4-.6-47v-6.1a.9.9,0,0,0-1.8,0c.3,15.8.6,31.6.9,47.3.3,15.1.6,30.2,1,45.3.3,14.9.7,29.9,1.2,44.8.4,15.1.9,30.1,1.4,45.2.5,15.7,1.1,31.3,1.8,47,.1,2,.2,4.1.3,6.1-.2.4.4.4.4,0Z" transform="translate(-21.64 -91.82)"/><path class="cls-4" d="M334.8,264.6a17.27,17.27,0,0,0,0-6,54.15,54.15,0,0,0-1.2-5.8,93.43,93.43,0,0,0-4.3-11.5c-.3-.8-1.5-.1-1.1.7a88.69,88.69,0,0,1,4.2,11.2,54.09,54.09,0,0,1,1.2,5.5c.3,2,.1,4,.5,6a.37.37,0,0,0,.7-.1Z" transform="translate(-21.64 -91.82)"/><path class="cls-4" d="M339.3,289.8c-.2,1.4-.2,3.1.9,4.2a2.43,2.43,0,0,0,3.7-.4c2.2-2.6-1.5-5.9-4.1-4.2-.7.4-.1,1.4.6,1.1a2.31,2.31,0,0,1,2.4.2,1.56,1.56,0,0,1,0,2.4,1.44,1.44,0,0,1-2.3-.5,5.46,5.46,0,0,1-.6-2.8c-.1-.4-.6-.4-.6,0Z" transform="translate(-21.64 -91.82)"/><path class="cls-4" d="M341.8,350.5a2.84,2.84,0,0,0-2.3,3,3,3,0,0,0,2.7,2.7,2.65,2.65,0,0,0,2.9-2.1,2.84,2.84,0,0,0-1.8-3.1.62.62,0,1,0-.3,1.2,1.55,1.55,0,0,1,.9,1.7,1.43,1.43,0,0,1-1.8,1,1.58,1.58,0,0,1-1.3-1.8,3.6,3.6,0,0,1,1.3-2.1.38.38,0,0,0-.3-.5Z" transform="translate(-21.64 -91.82)"/><path class="cls-4" d="M341.7,406.6a3.09,3.09,0,0,0-.5,4.1,2.9,2.9,0,0,0,4.4.1,2.76,2.76,0,0,0-.3-4.2c-1.2-.8-3.3-.9-3.9.7a.44.44,0,0,0,.6.5,2.49,2.49,0,0,1,2.5-.2,1.55,1.55,0,0,1,.3,2.5c-2,2-4.2-1.3-2.4-2.9a.47.47,0,0,0-.7-.6Z" transform="translate(-21.64 -91.82)"/><path class="cls-4" d="M344.3,470.7c-1.4.3-1.7,2.3-1.3,3.5a2.8,2.8,0,0,0,3.7,1.6,3,3,0,0,0,1.9-3.7,2.46,2.46,0,0,0-4.1-1,.64.64,0,0,0,.9.9c.9-1,2.3.1,2.1,1.3a1.92,1.92,0,0,1-1.8,1.5,1.63,1.63,0,0,1-1.7-1.4,2.86,2.86,0,0,1,.6-2.2c.2-.3,0-.6-.3-.5Z" transform="translate(-21.64 -91.82)"/><path class="cls-4" d="M327,241.9a18,18,0,0,0-6.5,16,5.5,5.5,0,0,0,.9-.7c-2.5-1-4.9-2.1-7.4-3.1a.77.77,0,0,0-.6,1.4c2.5,1.1,5.1,2.1,7.6,3.1.4.2.9-.2.9-.7a18.8,18.8,0,0,1,5.7-15.4c.4-.4-.2-.9-.6-.6Z" transform="translate(-21.64 -91.82)"/><path class="cls-4" d="M328.6,240.6c-1.3-.5-2.8-.8-4.1-1.2s-2.8-.9-4.1-1.4-2.7-1-4.1-1.4c-.7-.2-1.4-.5-2.1-.7a5.85,5.85,0,0,0-2.2-.5.46.46,0,0,0-.3.8,4.2,4.2,0,0,0,1.9.9c.7.3,1.4.5,2.1.8,1.5.5,2.9,1.1,4.4,1.6,2.6.9,5.7,2.2,8.5,2,.4-.1.4-.7,0-.9Z" transform="translate(-21.64 -91.82)"/><path class="cls-4" d="M335.4,264.8c.7-2,1-4.1,1.6-6.1s1.3-4.1,2-6.2a74.36,74.36,0,0,1,5.7-11.7c.5-.7-.7-1.4-1.2-.7a67.44,67.44,0,0,0-5.7,11.8,63.6,63.6,0,0,0-1.9,6.2,28.66,28.66,0,0,0-1.2,6.5c.1.6.6.6.7.2Z" transform="translate(-21.64 -91.82)"/><path class="cls-4" d="M344.3,240.9c2.6.6,5.5-.7,7.9-1.5a69,69,0,0,0,7.5-3c4-2.1,8.5-5.6,9.6-10.3.2-.7-.9-1.2-1.2-.5a15.45,15.45,0,0,1-3.6,5.5,20.28,20.28,0,0,1-5.7,4c-2.2,1.1-4.6,2-6.9,2.9-1.2.4-2.4.9-3.6,1.3s-2.6.6-4,.9a.38.38,0,0,0,0,.7Z" transform="translate(-21.64 -91.82)"/><path class="cls-4" d="M344.2,241a36.82,36.82,0,0,1,6,9.1,30.24,30.24,0,0,1,1.9,5,26.81,26.81,0,0,1,.7,2.7,26.14,26.14,0,0,0,.6,2.7.66.66,0,0,0,1.3-.2,19.29,19.29,0,0,0-1.2-5.4,34.86,34.86,0,0,0-2.2-5.3,35.24,35.24,0,0,0-6.6-9.2c-.2-.5-.8.2-.5.6Z" transform="translate(-21.64 -91.82)"/><path class="cls-4" d="M354.1,260.7a21.44,21.44,0,0,0,7.4-2,35.92,35.92,0,0,0,3.4-1.7c1-.6,2.4-1.2,3-2.2a.62.62,0,0,0-.7-.9c-1,.2-2,1.2-3,1.7s-2.2,1.2-3.3,1.7c-2.3,1.1-4.7,1.7-7,2.6-.2.2-.2.8.2.8Z" transform="translate(-21.64 -91.82)"/><path class="cls-4" d="M317.9,501.5c.1-18.5-.1-36.9-.4-55.4s-.9-37.1-1.9-55.6-2.5-36.8-4.7-55.1c-1.1-9-2.3-18-3.7-27-1.4-8.8-2.8-17.6-4.9-26.2-1-4.3-2.2-8.5-3.6-12.7-.7-2-1.4-4-2.2-5.9s-1.8-3.8-2.5-5.8a3.92,3.92,0,0,1-.1-3c.5-1,1.6-1.4,2.6-1.9a24.72,24.72,0,0,0,4.4-2.7,22.63,22.63,0,0,0,6.5-7.9,25.26,25.26,0,0,0,1.9-4.8.89.89,0,0,0-1.7-.5,22.89,22.89,0,0,1-5.3,9.5,27.86,27.86,0,0,1-4.2,3.5c-1.4.9-3.2,1.5-4.5,2.6-3,2.5-.8,6.4.5,9.2a113.1,113.1,0,0,1,4.6,12.7,208.87,208.87,0,0,1,5.8,25.8c1.6,9.2,3,18.4,4.2,27.7,2.4,18.4,4,36.8,5.2,55.3s1.8,37,2.2,55.6.5,37.1.8,55.6c0,2.3.1,4.7.1,7,.1.5.9.5.9,0Z" transform="translate(-21.64 -91.82)"/><path class="cls-6" d="M365.7,508.1c28.2-1.7,48.9-6.2,79.5-16.8a184.47,184.47,0,0,0,18.1-8.1L435.5,245.7c-24.3-20.3-67.4-20.3-67.4-20.3Z" transform="translate(-21.64 -91.82)"/><path class="cls-6" d="M253.9,494.9a329.59,329.59,0,0,0,66.7,12.5l-8.4-272.1c-23.9,6.3-51.9,27.3-51.9,27.3Z" transform="translate(-21.64 -91.82)"/></svg>