<svg id="Capa_1" data-name="Capa 1" xmlns="http://www.w3.org/2000/svg" viewBox="0 0 460.09 415.78"><defs><style>.cls-1{fill:#ced2d6;}.cls-2{fill:#ffe7d4;}.cls-3{fill:#ffd56c;}.cls-4{fill:#fff;}.cls-5{fill:#5d9d9a;}.cls-6{fill:#ffe4d2;}.cls-7{fill:#222;}.cls-8{fill:#f3a94a;}.cls-9{fill:none;stroke:#222;stroke-miterlimit:10;stroke-width:1.29px;}.cls-10{fill:#eaa42c;}.cls-11{fill:#8c7962;}</style></defs><title>Girl</title><path class="cls-1" d="M179.3,488.2c-127-52-164.7-208.8-94.1-321.5,64-102,166.6-72,185.8-26,19.9,47.9,54.2,49.7,59,53.4,2.1,1.7,130.6,21,166,86.8s-7.1,133.4-7.1,133.4C445.2,479.6,306.3,540.2,179.3,488.2Z" transform="translate(-49.99 -92.05)"/><path class="cls-2" d="M356.9,340.8l8.4,70,58.2-3.2c-1.3-10-13.2-69.1-13.2-69.1Z" transform="translate(-49.99 -92.05)"/><path class="cls-3" d="M345.9,293.7c-39.6-12.2-32.2-58.8-32.2-58.8l34.6-105.6,26.8-1.6s1.2,28.4,0,47.7,2.5,19.6,21.6,52.1.2,54.9-13.7,63.2C363.7,302.3,354.8,296.5,345.9,293.7Z" transform="translate(-49.99 -92.05)"/><path class="cls-3" d="M267.6,280.4c-31.6,25.2-66-4.6-66-4.6-20.1-37.1,3.3-56.3,16.3-66.7,8.1-6.5,18.7-13.7,41.4-43.7,17.8-23.5,20.7-44.7,20.7-44.7l44.1-2.2S299.1,255.2,267.6,280.4Z" transform="translate(-49.99 -92.05)"/><path class="cls-4" d="M384,487.8s-182.1,11.1-229.8-26.9C153.3,460.2,250,228,250,228l29.7-7.4c18.2,14.2,46.2,8,46.2,8l18.5,13.8Z" transform="translate(-49.99 -92.05)"/><path class="cls-5" d="M198.1,470.6c1.2-13.4,21.8-96.5,32.8-140.7,12-48.3,18.3-101.9,18.3-101.9l22.2-6.6c.2,12-6.3,64.3-6.3,64.3l76.1,7.5-3-56.4,12.7,6.5c1.7,13.7,37.2,230.2,37.2,230.2Z" transform="translate(-49.99 -92.05)"/><path class="cls-6" d="M352.4,116.8c-29.5-4.8-43.9,11.1-43.9,11.1l-30.9,93.8c23.3,19.2,48.3,11.1,48.3,11.1,1.2-21.3,15.1-23.9,15.1-23.9,31.6-10.3,29.5-68.6,29.5-70.4C370.5,138.5,372.7,119.9,352.4,116.8Z" transform="translate(-49.99 -92.05)"/><circle class="cls-6" cx="243.21" cy="75.45" r="13.2"/><path class="cls-5" d="M276.3,131.6l4.3-18.9c3.1-16,20-19.4,28.8-20.1a168.12,168.12,0,0,1,41.3,1.7c29.1,5.2,24.6,40.9,24.6,40.9Z" transform="translate(-49.99 -92.05)"/><path class="cls-4" d="M306.4,133.8s1.3-6.5,11.4-10.8c8.6-3.7,58.1-4.8,77.2-3.7,8,.5,23.3,6,9.4,11.8-19.2,7.9-85.7,3.3-85.7,3.3Z" transform="translate(-49.99 -92.05)"/><circle class="cls-7" cx="312.91" cy="61.85" r="3.2"/><circle class="cls-7" cx="286.51" cy="60.25" r="3.2"/><path class="cls-7" d="M335,314.7c-.1-.6-1.1-.4-1.1.2,1.3,16.8,4.6,35.2-1,51.6-2.4,7.2-7,14-13.4,18.2-7.8,5.1-17.4,4.9-26.4,4.3-1-.1-1,1.4,0,1.5,8.8.5,18.1.7,26-3.8,6.4-3.6,11.1-9.6,14-16.2,7.5-16.7,4.9-38.3,1.9-55.8Z" transform="translate(-49.99 -92.05)"/><path class="cls-7" d="M290,390.3c.6.1.9-.8.1-1-6.8-1.9-13.2-4.9-17.6-10.6s-6.2-12.9-6.6-20.1c-.7-12.8,1.2-25.9,2.7-38.6.2-1.3.4-7.3.7-7.5.7-.5,3.7,0,4.6,0,6.1,0,12.1.2,18.2.4q21.3.9,42.6,3c1.1.1,1.1-1.6,0-1.7-21.9-2.1-43.8-3.3-65.8-3.3-.5,0-.7.4-.8.8-2.2,16.4-5.4,34.2-3.4,50.7,1.9,14.7,10.8,24.8,25.3,27.9Z" transform="translate(-49.99 -92.05)"/><path class="cls-7" d="M354,148.3c.1-.6-.8-.9-1-.4a30.44,30.44,0,0,0,1,20.4c.2-.3.4-.7.6-1-1,0-2.1-.1-3.1-.2-1-.3-1.4,1.3-.4,1.6a7.73,7.73,0,0,0,4,.3.76.76,0,0,0,.6-1,34.83,34.83,0,0,1-1.7-19.7Z" transform="translate(-49.99 -92.05)"/><path class="cls-7" d="M343.3,148a1.43,1.43,0,0,0,1.4-2.3c-4.5-5-13.4-3.9-18.5-.8a1.72,1.72,0,0,0,1.7,3,17,17,0,0,1,8-1.7c2.7.1,4.8,1.2,7.4,1.8Z" transform="translate(-49.99 -92.05)"/><path class="cls-7" d="M368.8,149.1c.8.1,2-.8,1.3-1.8-3-4-9.7-3.2-13.5-.9-1.7,1-.2,3.4,1.5,2.6a11.55,11.55,0,0,1,5.5-1.1c1.9.1,3.4,1,5.2,1.2Z" transform="translate(-49.99 -92.05)"/><path class="cls-7" d="M292.1,158.5c.5-.2.4-1.1-.2-1a11.87,11.87,0,0,0-9.3,6.1.74.74,0,0,0,1.3.7c1.9-3.2,4.7-4.8,8.2-5.8Z" transform="translate(-49.99 -92.05)"/><path class="cls-7" d="M352.9,175.1c.3-.6-.4-1-.9-.7-1,.9-2.8,2.3-4.2,1.7s-1.8-2.8-1.8-4.1a1.1,1.1,0,0,0-2.2,0c.1,2.2,1,5.2,3.4,6,2.2.8,4.6-1.1,5.7-2.9Z" transform="translate(-49.99 -92.05)"/><path class="cls-8" d="M323.7,160.9h0a2.48,2.48,0,0,1,2.5-2.5h4.6a2.48,2.48,0,0,1,2.5,2.5h0a2.48,2.48,0,0,1-2.5,2.5h-4.6A2.48,2.48,0,0,1,323.7,160.9Z" transform="translate(-49.99 -92.05)"/><path class="cls-8" d="M359.7,160.9h0a2.48,2.48,0,0,1,2.5-2.5h4.6a2.48,2.48,0,0,1,2.5,2.5h0a2.48,2.48,0,0,1-2.5,2.5h-4.6A2.61,2.61,0,0,1,359.7,160.9Z" transform="translate(-49.99 -92.05)"/><path class="cls-7" d="M374.5,119.2c-.3.1-.2.6.2.6,5.1.3,10.3.2,15.5.5,2.6.2,5.1.4,7.7.7,2.4.3,6.4.2,8.5,1.8,6.9,5.2-3.2,8.5-5.6,9.1a58.63,58.63,0,0,1-7.3,1.3c-4,.5-7.9.7-11.9,1-1,.1-1,1.7,0,1.6,6.2-.4,28.9.3,28.8-9.7-.1-5.3-6.7-6.1-10.6-6.6-8.3-.9-17-1.6-25.3-.3Z" transform="translate(-49.99 -92.05)"/><ellipse class="cls-9" cx="317.81" cy="63.45" rx="13.4" ry="16.3"/><ellipse class="cls-9" cx="286.71" cy="63.45" rx="13.4" ry="16.3"/><path class="cls-7" d="M323.2,156.1c.5-.1.7-.9.1-1-7.9-1.4-16.7-1.7-24.7-1.9-.9,0-1.2,1.6-.2,1.7,7.9,1.2,16.9,2,24.8,1.2Z" transform="translate(-49.99 -92.05)"/><path class="cls-7" d="M426.4,376.4c0,.4.6.5.7.3a41.17,41.17,0,0,0,2.7-6.9c.8-2.3,2-4.7,2.2-7.1.1-.6-.7-.7-1-.3-1.4,2-1.9,4.6-2.7,6.9a35.48,35.48,0,0,0-1.9,7.1Z" transform="translate(-49.99 -92.05)"/><circle class="cls-10" cx="370.51" cy="308.45" r="26.9"/><path class="cls-5" d="M461.5,369.4c-14.2-11.4-28.4.9-28.4.9C450.2,380.4,461.5,369.3,461.5,369.4Z" transform="translate(-49.99 -92.05)"/><path class="cls-7" d="M385,376.4c0,.4.6.5.7.3a41.17,41.17,0,0,0,2.7-6.9c.8-2.3,2-4.7,2.2-7.1.1-.6-.7-.7-1-.3-1.4,2-1.9,4.6-2.7,6.9a35.48,35.48,0,0,0-1.9,7.1Z" transform="translate(-49.99 -92.05)"/><circle class="cls-10" cx="329.11" cy="308.45" r="26.9"/><path class="cls-5" d="M420.1,369.4c-14.2-11.4-28.4.9-28.4.9C408.8,380.4,420.1,369.3,420.1,369.4Z" transform="translate(-49.99 -92.05)"/><path class="cls-7" d="M341.5,376.4c0,.4.6.5.7.3a41.17,41.17,0,0,0,2.7-6.9c.8-2.3,2-4.7,2.2-7.1.1-.6-.7-.7-1-.3-1.4,2-1.9,4.6-2.7,6.9a35.48,35.48,0,0,0-1.9,7.1Z" transform="translate(-49.99 -92.05)"/><circle class="cls-10" cx="285.51" cy="308.45" r="26.9"/><path class="cls-7" d="M299.7,376.4c-.1.4.5.5.7.3a41.17,41.17,0,0,0,2.7-6.9c.8-2.3,2-4.7,2.2-7.1.1-.6-.7-.7-1-.3-1.4,2-1.9,4.6-2.7,6.9a35.48,35.48,0,0,0-1.9,7.1Z" transform="translate(-49.99 -92.05)"/><circle class="cls-10" cx="243.71" cy="308.45" r="26.9"/><rect class="cls-11" x="205.51" y="297.25" width="193.2" height="117.1"/><path class="cls-4" d="M366.1,340.8h48c-15.5-78.3-62.9-95.8-62.9-95.8Z" transform="translate(-49.99 -92.05)"/><path class="cls-6" d="M150.2,319.3l72.4,11c-37.9,110,23.2,111.3,23.2,111.3l46.4.5s4.1.2,4.2,3.9-2.6,5.1-5.9,5.2a105.86,105.86,0,0,0-11.9,1c-3.1.4-3,3.4-1.6,3.5,4.4.4,11.9,1.2,18.1,1.5h0l28.2,1.7a4.26,4.26,0,0,1-.1,8.5l-29,1.2h-1.8c-.5.1-1.3.4-1.2,1.2s1.4.9,1.4.9l2.2.2,36.6,1.5c2.9.4,5.4,2.2,5.5,4.7s-1.8,5-5.5,5l-38.1-.8h-2.2a1.33,1.33,0,0,0-1.3,1c-.2.7.9.8.9.8l.9.1,35,2.1a4.24,4.24,0,0,1,3.9,4.2,4.31,4.31,0,0,1-4.2,4.3H296l-5.9-.3s-1.2,0-1.2.6c0,0-.2.9,1.1,1l1.7.2,24,1.8c2.1.2,5.2,2,5.2,4.2s-2.8,4.7-5.1,4.7l-24.1.4s-41.7.5-63.3-2.5C84.6,483.7,150.3,319.5,150.2,319.3Z" transform="translate(-49.99 -92.05)"/><path class="cls-6" d="M454.3,501.5c-.2,5.7-4.5,5.2-4.5,5.2l-18.1-.4a4.71,4.71,0,0,1-3.9-4.4c0-2,2.3-3.7,3.9-3.9l17.3-1.6,2.1-.2S454.4,496.4,454.3,501.5Z" transform="translate(-49.99 -92.05)"/><path class="cls-6" d="M456.9,489.6a4.2,4.2,0,0,0-3.9-4.5L428.2,487c-1.7.2-3.1,2-3.1,4.2s1.5,4.3,3.4,4.3h24C454.5,495.5,456.9,493.9,456.9,489.6Z" transform="translate(-49.99 -92.05)"/><path class="cls-6" d="M457.3,479.1c0,5.9-4.2,5.6-4.2,5.6H427.3c-2.1-.1-3.7-2.4-3.6-5.1,0-2.5,1.6-4.5,3.5-4.7l25.5-1.5S457.3,472.7,457.3,479.1Z" transform="translate(-49.99 -92.05)"/><path class="cls-6" d="M456.5,467.1c0-5.6-3.9-5.6-3.9-5.6L431.1,463a4.13,4.13,0,0,0-3.4,4.1c0,2.3,1.5,4.3,3.5,4.4l20.9,1.2C453.6,472.8,456.6,472.4,456.5,467.1Z" transform="translate(-49.99 -92.05)"/><path class="cls-4" d="M225.2,338.5l-80.1-12.2c24.6-86.5,104-96.2,104-96.2Z" transform="translate(-49.99 -92.05)"/><path class="cls-7" d="M222.8,338.5c-.1.5.7.6,1,.2,2-3.9,2.8-8.8,4-13.1,2-7.3,4-14.6,5.9-22a1,1,0,0,0-1.9-.5c-2,7.3-3.8,14.6-5.7,22-1.1,4.4-2.8,8.9-3.3,13.4Z" transform="translate(-49.99 -92.05)"/><path class="cls-7" d="M353.7,156c.2.2.5.1.4-.1.4-1-.7-2-1.6-2.1s-2.5.4-2.7,1.5c0,.5.4.8.8.6.6-.3,1-.9,1.7-.9s1,.6,1.4,1Z" transform="translate(-49.99 -92.05)"/></svg>