<?xml version="1.0" encoding="utf-8"?>
<!-- Generator: Adobe Illustrator 25.2.3, SVG Export Plug-In . SVG Version: 6.00 Build 0)  -->
<svg version="1.1" id="Capa_1" xmlns="http://www.w3.org/2000/svg" xmlns:xlink="http://www.w3.org/1999/xlink" x="0px" y="0px"
	 viewBox="0 0 480 368" style="enable-background:new 0 0 480 368;" xml:space="preserve">
<style type="text/css">
	.st0{fill:#FAF3E8;}
	.st1{clip-path:url(#SVGID_2_);}
	.st2{fill:none;stroke:#5D9E9B;stroke-linecap:round;stroke-miterlimit:10;}
	.st3{fill:#5D9A97;}
	.st4{fill:#FFDC6F;}
	.st5{fill:#F6EFE4;}
	.st6{fill:none;stroke:#5D9E9B;stroke-width:2.2394;stroke-linecap:round;stroke-miterlimit:10;}
	.st7{fill:#EAA42C;}
	.st8{fill:#E59F2C;}
	.st9{fill:#CF8013;}
	.st10{fill:#6D5235;}
	.st11{fill:#365B56;}
	.st12{fill:#AB754E;}
	.st13{fill:#93623E;}
	.st14{fill:#FFDECB;}
	.st15{fill:#333333;}
	.st16{fill:#F3E4D1;}
	.st17{fill:#FFFFFF;}
	.st18{fill:#BCD6D4;}
	.st19{fill:#E6A02C;}
	.st20{fill:#468080;}
	.st21{clip-path:url(#SVGID_14_);}
	.st22{fill:#FFD86F;}
	.st23{clip-path:url(#SVGID_24_);}
	.st24{fill:none;}
	.st25{clip-path:url(#SVGID_28_);}
	.st26{clip-path:url(#SVGID_32_);}
	.st27{clip-path:url(#SVGID_36_);}
	.st28{fill:none;stroke:#FFFFFF;stroke-width:2;stroke-miterlimit:10;}
	.st29{fill:#5D9E9B;}
	.st30{fill:#DDE8E7;}
	.st31{fill:#FFEAB0;}
	.st32{fill:#7C7C7C;}
	.st33{fill:#3A3A3A;}
	.st34{fill:#444444;}
	.st35{fill:#F7B82B;}
	.st36{fill:#E9A32C;}
	.st37{fill:#D38013;}
	.st38{fill:#915B36;}
	.st39{fill:#AF754E;}
	.st40{fill:#E0BA94;}
	.st41{fill:none;stroke:#0C0C0C;stroke-miterlimit:10;}
	.st42{fill:#5B997A;}
	.st43{fill:#D6852D;}
	.st44{fill:none;stroke:#D6852D;stroke-miterlimit:10;}
	.st45{clip-path:url(#SVGID_40_);fill:#FFDC6F;}
	.st46{fill:none;stroke:#5D9E9B;stroke-width:0.8735;stroke-linecap:round;stroke-miterlimit:10;}
	.st47{fill:none;stroke:#FFFFFF;stroke-width:3;stroke-linecap:round;stroke-miterlimit:10;}
	.st48{fill:none;stroke:#5D9E9B;stroke-width:2.2394;stroke-linecap:round;stroke-linejoin:round;stroke-miterlimit:10;}
	.st49{clip-path:url(#SVGID_42_);fill:#E59F2C;}
	.st50{clip-path:url(#SVGID_42_);fill:none;stroke:#5D9E9B;stroke-width:2.2394;stroke-linecap:round;stroke-miterlimit:10;}
	.st51{fill:none;stroke:#5D4037;stroke-width:4.0297;stroke-linecap:round;stroke-miterlimit:10;}
	.st52{fill:#AFB9B8;}
	.st53{fill:#728080;}
	.st54{fill:#637572;}
	.st55{clip-path:url(#SVGID_44_);fill:none;stroke:#5D9E9B;stroke-width:2.2394;stroke-linecap:round;stroke-miterlimit:10;}
	.st56{fill:none;stroke:#5D9E9B;stroke-width:2.2394;stroke-linecap:round;stroke-miterlimit:10;stroke-dasharray:10.7308,10.7308;}
	.st57{clip-path:url(#SVGID_46_);}
	.st58{fill:none;stroke:#333333;stroke-width:1.8066;stroke-linecap:round;stroke-miterlimit:10;}
	.st59{clip-path:url(#SVGID_50_);}
	.st60{fill:none;stroke:#6CBCB6;stroke-width:2;stroke-miterlimit:10;}
	.st61{fill:#FFD255;}
	.st62{fill:#FCCDAC;}
	.st63{fill:none;stroke:#467C75;stroke-width:1.3913;stroke-miterlimit:10;}
	.st64{fill:#222222;}
	.st65{fill:#E59945;}
	.st66{fill:#F1A74A;}
	.st67{fill:none;stroke:#333333;stroke-linecap:round;stroke-miterlimit:10;}
	.st68{fill:none;stroke:#222222;stroke-width:3;stroke-linecap:round;stroke-miterlimit:10;}
	.st69{fill:#5D9D9A;}
	.st70{fill:none;stroke:#333333;stroke-width:0.9054;stroke-linecap:round;stroke-miterlimit:10;}
	.st71{fill:#467C75;}
	.st72{fill:none;stroke:#333333;stroke-width:0.9913;stroke-linecap:round;stroke-miterlimit:10;}
	.st73{fill:#E8991B;}
	.st74{clip-path:url(#SVGID_54_);}
	.st75{clip-path:url(#SVGID_56_);}
	.st76{fill:none;stroke:#333333;stroke-width:0.8927;stroke-linecap:round;stroke-miterlimit:10;}
	.st77{clip-path:url(#SVGID_58_);fill:#FFDECB;}
	.st78{fill:none;stroke:#3B706D;stroke-width:2;stroke-miterlimit:10;}
	.st79{fill:none;stroke:#3B706D;stroke-width:1.5478;stroke-miterlimit:10;}
	.st80{clip-path:url(#SVGID_60_);fill:none;stroke:#3B706D;stroke-width:2;stroke-miterlimit:10;}
	.st81{fill:none;stroke:#BB8A69;stroke-width:1.6306;stroke-miterlimit:10;}
	.st82{fill:#3B706D;}
	.st83{fill:#BB8A69;}
	.st84{clip-path:url(#SVGID_62_);}
	.st85{clip-path:url(#SVGID_64_);}
	.st86{clip-path:url(#SVGID_66_);fill:#3B706D;}
	.st87{fill:none;stroke:#3B706D;stroke-width:1.7061;stroke-miterlimit:10;}
	.st88{fill:none;stroke:#3B706D;stroke-width:1.3204;stroke-miterlimit:10;}
	.st89{fill:none;stroke:#BB8A69;stroke-width:1.391;stroke-miterlimit:10;}
	.st90{fill:none;stroke:#333333;stroke-width:1.5388;stroke-linecap:round;stroke-miterlimit:10;}
	.st91{fill:none;stroke:#333333;stroke-width:1.3767;stroke-linecap:round;stroke-miterlimit:10;}
	.st92{fill:none;stroke:#333333;stroke-width:4.1302;stroke-linecap:round;stroke-miterlimit:10;}
	.st93{fill:none;stroke:#333333;stroke-width:1.2465;stroke-linecap:round;stroke-miterlimit:10;}
	.st94{fill:none;stroke:#333333;stroke-width:1.1783;stroke-linecap:round;stroke-miterlimit:10;}
	.st95{fill:none;stroke:#333333;stroke-width:1.1885;stroke-linecap:round;stroke-miterlimit:10;}
	.st96{fill:none;stroke:#FFFFFF;stroke-width:1.2465;stroke-linecap:round;stroke-miterlimit:10;}
	.st97{clip-path:url(#SVGID_68_);fill:none;stroke:#3B706D;stroke-width:1.7061;stroke-miterlimit:10;}
	.st98{fill:#FFDAC6;}
	.st99{fill:none;stroke:#333333;stroke-width:0.7472;stroke-linecap:round;stroke-miterlimit:10;}
	.st100{fill:none;stroke:#333333;stroke-width:2;stroke-linecap:round;stroke-miterlimit:10;}
	.st101{fill:none;stroke:#333333;stroke-width:0.6863;stroke-linecap:round;stroke-miterlimit:10;}
	.st102{clip-path:url(#SVGID_70_);fill:#FFFFFF;}
	.st103{clip-path:url(#SVGID_70_);fill:#5D9E9B;}
	.st104{fill:none;stroke:#333333;stroke-width:0.9144;stroke-miterlimit:10;}
	.st105{fill:none;stroke:#333333;stroke-width:0.7352;stroke-linecap:round;stroke-miterlimit:10;}
	.st106{fill:none;stroke:#333333;stroke-width:1.9678;stroke-linecap:round;stroke-miterlimit:10;}
	.st107{fill:none;stroke:#333333;stroke-width:0.6753;stroke-linecap:round;stroke-miterlimit:10;}
	.st108{clip-path:url(#SVGID_72_);fill:#FFFFFF;}
	.st109{clip-path:url(#SVGID_72_);fill:#5D9E9B;}
	.st110{fill:none;stroke:#333333;stroke-width:0.8997;stroke-miterlimit:10;}
	.st111{fill:none;stroke:#3B706D;stroke-width:1.4819;stroke-miterlimit:10;}
	.st112{fill:none;stroke:#BB8A69;stroke-width:1.1897;stroke-miterlimit:10;}
	.st113{clip-path:url(#SVGID_74_);}
	.st114{clip-path:url(#SVGID_76_);fill:#3B706D;}
	.st115{clip-path:url(#SVGID_78_);fill:none;stroke:#3B706D;stroke-width:1.444;stroke-miterlimit:10;}
	.st116{fill:none;stroke:#CF8013;stroke-width:0.5;stroke-linecap:round;stroke-miterlimit:10;}
	.st117{fill:none;stroke:#3B706D;stroke-width:1.5023;stroke-miterlimit:10;}
	.st118{fill:none;stroke:#BB8A69;stroke-width:1.2061;stroke-miterlimit:10;}
	.st119{clip-path:url(#SVGID_80_);}
	.st120{clip-path:url(#SVGID_82_);fill:#3B706D;}
	.st121{clip-path:url(#SVGID_84_);fill:none;stroke:#3B706D;stroke-width:1.4639;stroke-miterlimit:10;}
	.st122{fill:none;stroke:#CF8013;stroke-width:0.5069;stroke-linecap:round;stroke-miterlimit:10;}
	.st123{fill:none;stroke:#FFDC6F;stroke-width:0.9432;stroke-linejoin:round;stroke-miterlimit:10;}
	.st124{clip-path:url(#SVGID_86_);}
	.st125{fill:#CE7A15;}
	.st126{fill:none;stroke:#333333;stroke-width:0.56;stroke-linecap:round;stroke-miterlimit:10;}
	.st127{clip-path:url(#SVGID_88_);fill:none;stroke:#333333;stroke-width:0.56;stroke-linecap:round;stroke-miterlimit:10;}
	.st128{clip-path:url(#SVGID_88_);fill:#FFDC6F;}
	.st129{fill:none;stroke:#EAA42C;stroke-width:1.5;stroke-linecap:round;stroke-miterlimit:10;}
	.st130{clip-path:url(#SVGID_90_);fill:none;stroke:#5D9E9B;stroke-linecap:round;stroke-miterlimit:10;}
	.st131{clip-path:url(#SVGID_90_);fill:none;stroke:#EAA42C;stroke-miterlimit:10;}
	.st132{clip-path:url(#SVGID_90_);fill:#EAA42C;}
	.st133{clip-path:url(#SVGID_92_);fill:#5D9A97;}
	.st134{fill:none;stroke:#EAA42C;stroke-miterlimit:10;}
	.st135{clip-path:url(#SVGID_94_);}
	.st136{clip-path:url(#SVGID_96_);fill:#FFDECB;}
	.st137{clip-path:url(#SVGID_98_);}
	.st138{fill:none;stroke:#333333;stroke-width:1.4796;stroke-linecap:round;stroke-miterlimit:10;}
	.st139{fill:none;stroke:#222222;stroke-width:4.4389;stroke-linecap:round;stroke-miterlimit:10;}
	.st140{fill:none;stroke:#333333;stroke-width:1.3397;stroke-linecap:round;stroke-miterlimit:10;}
	.st141{clip-path:url(#SVGID_100_);fill:#F4E7D4;}
	.st142{clip-path:url(#SVGID_102_);fill:none;stroke:#333333;stroke-width:1.3397;stroke-linecap:round;stroke-miterlimit:10;}
	.st143{fill:none;stroke:#467C75;stroke-width:2.0585;stroke-miterlimit:10;}
	.st144{clip-path:url(#SVGID_104_);fill:#FCCDAC;}
	.st145{fill:#FF0303;}
	.st146{fill:#F4E7D4;}
</style>
<g>
	<path class="st0" d="M327.8,350.6c0,0,117.2-38,124.7-122.2s-8.7-130-126.1-160.9S171.6-43,80.5,29.8S-23.2,442,327.8,350.6z"/>
</g>
<g>
	<path class="st62" d="M320.7,150.5c-33.6,96-58,38.5-58,38.5l-39.8,41.8c0,0,87.9,118.7,140.1-69.3"/>
</g>
<g>
	<path class="st17" d="M81.9,319.3c5.9-42.9,18.7-115.8,43.1-185.7c62.9-9.1,92.5,12,92.5,12c16.5,106.8,28,195.2,28,195.2
		s-29.5,11.7-96.6,15.9C121.5,348.5,99.4,335.5,81.9,319.3z"/>
</g>
<g>
	<path class="st17" d="M214.7,143.9c0,0,33.2,6.6,61.4,54.3l-49.5,48.2L214.7,143.9z"/>
</g>
<g>
	<polyline class="st64" points="225.3,61 225.3,120.6 192.7,121.9 197.3,57.9 225.3,61 	"/>
</g>
<g>
	
		<ellipse transform="matrix(0.9969 -7.881987e-02 7.881987e-02 0.9969 -2.4108 13.7231)" class="st73" cx="172.6" cy="37.4" rx="43.1" ry="36.4"/>
</g>
<g>
	<ellipse transform="matrix(0.9765 -0.2154 0.2154 0.9765 -6.414 38.4008)" class="st7" cx="173" cy="48.6" rx="80.9" ry="25.6"/>
</g>
<g>
	<path class="st62" d="M147.1,48.6c-4.1,64.4-8,90.7-8,90.7c28.4,19,47.8,8.2,47.8,8.2c2.3-19.3,9-18.4,15-20.3
		c28.3-9,19.9-80.8,19.9-80.8s-2.3-16.6-37.4-14.1C184.4,32.2,148,35.6,147.1,48.6z"/>
</g>
<g>
	<path class="st64" d="M151.4,120.3l-37.1,0.4c0,0,2-75.9,32.7-91.9L151.4,120.3z"/>
</g>
<g>
	<path class="st64" d="M147,28.7c0,0,80.2-23.5,78.3,34.4L147,66V28.7"/>
</g>
<g>
	<ellipse class="st62" cx="144.7" cy="89.6" rx="12.2" ry="11.6"/>
</g>
<g>
	<path class="st62" d="M144.7,81.5c-3.9,0.8-7.2,3.9-8.1,7.8"/>
</g>
<g>
	<path class="st66" d="M217.4,89.7l-5.3,0c-1.4,0-2.6-1.2-2.6-2.6v0c0-1.4,1.2-2.6,2.6-2.6l5.3,0c1.4,0,2.6,1.2,2.6,2.6v0
		C220.1,88.5,218.9,89.7,217.4,89.7z"/>
</g>
<g>
	<path class="st66" d="M178.4,89.7l-5.3,0c-1.4,0-2.6-1.2-2.6-2.6v0c0-1.4,1.2-2.6,2.6-2.6l5.3,0c1.4,0,2.6,1.2,2.6,2.6v0
		C181,88.5,179.8,89.7,178.4,89.7z"/>
</g>
<g>
	<path class="st7" d="M125.7,44.6c-0.7-10.3,21.1-20.3,48.7-22.1s50.6,5,51.3,15.3l-6.1,1.9c0,0-14.8-10.9-44.1-8.2
		c0,0-37.3,1.3-44.1,13.3L125.7,44.6z"/>
</g>
<g>
	<path class="st15" d="M195.6,94c-0.2,0-0.5,0-0.8,0c-0.4,0-0.7-0.4-0.7-0.8c0-0.4,0.4-0.7,0.8-0.7c1.6,0.1,2.7-0.2,3.3-0.9
		c0.8-0.9,0.5-2.2,0.5-2.2l-2.4-16c-0.1-0.4,0.2-0.8,0.6-0.8c0.4-0.1,0.8,0.2,0.8,0.6l2.4,15.9c0,0,0.4,2-0.9,3.4
		C198.6,93.5,197.3,94,195.6,94z"/>
</g>
<g>
	<path class="st64" d="M175.7,73.2c-0.7,0-1.4-0.3-1.8-0.9c-0.7-1-0.5-2.4,0.5-3.1c6.6-4.7,12.5-2.2,14.7-0.2c0.9,0.8,1,2.2,0.2,3.1
		c-0.8,0.9-2.2,1-3.1,0.2c-0.4-0.4-4-3.2-9.2,0.5C176.6,73,176.2,73.2,175.7,73.2z"/>
</g>
<g>
	<path class="st64" d="M206,73.2c-0.7,0-1.4-0.3-1.8-0.9c-0.7-1-0.5-2.4,0.5-3.1c6.6-4.7,12.5-2.2,14.7-0.2c0.9,0.8,1,2.2,0.2,3.1
		c-0.8,0.9-2.2,1-3.1,0.2c-0.4-0.4-4-3.2-9.2,0.5C206.9,73,206.5,73.2,206,73.2z"/>
</g>
<g>
	<g>
		<path class="st15" d="M143.1,80.5c-4,0.5-7.1,4-8.2,7.8c-0.2,0.8,1.1,1.2,1.3,0.4c0.9-3.6,3.7-5.9,7.2-7
			C144.3,81.5,143.9,80.4,143.1,80.5L143.1,80.5z"/>
	</g>
</g>
<g>
	<path class="st69" d="M213.3,141.7c0,0-12-5.4-16.1-6.2l3.9,62.7h17.4L213.3,141.7z"/>
</g>
<g>
	<path class="st15" d="M193.2,102.8c-0.5,0-1.1-0.1-1.8-0.2c-1.4-0.4-4.7-1.7-3.7-6.4c0.1-0.4,0.4-0.6,0.8-0.5
		c0.4,0.1,0.6,0.4,0.5,0.8c-0.7,3.2,1.1,4.4,2.7,4.8c3.8,1,4.9-1.9,5-2.1c0.1-0.3,0.5-0.5,0.9-0.4c0.3,0.1,0.5,0.5,0.4,0.8
		C197.9,99.6,196.8,102.8,193.2,102.8z"/>
</g>
<g>
	<path class="st15" d="M176,81.8c-0.4,0-0.7-0.3-0.7-0.7c0-2.8,0.7-4.9,2.2-6.3c1.7-1.5,3.7-1.5,4.4-1.4c2,0.2,3.5,1,4.5,2.2
		c1.7,2.2,1.5,5,1.5,5.1c0,0.4-0.4,0.6-0.7,0.6c-0.4,0-0.6-0.4-0.6-0.7c0-0.2,0.5-5.3-4.8-5.9c-0.6-0.1-2.1-0.1-3.4,1.1
		c-1.2,1.1-1.8,2.9-1.8,5.3C176.7,81.5,176.4,81.8,176,81.8C176,81.8,176,81.8,176,81.8z"/>
</g>
<g>
	<path class="st15" d="M206.3,81.8c-0.4,0-0.7-0.3-0.7-0.7c0-2.8,0.7-4.9,2.2-6.3c1.7-1.5,3.7-1.5,4.4-1.4c2,0.2,3.5,1,4.5,2.2
		c1.7,2.2,1.5,5,1.5,5.1c0,0.4-0.4,0.6-0.7,0.6c-0.4,0-0.6-0.4-0.6-0.7c0-0.2,0.5-5.3-4.8-5.9c-0.6-0.1-2.1-0.1-3.4,1.1
		c-1.2,1.1-1.8,2.9-1.8,5.3C207,81.5,206.7,81.8,206.3,81.8C206.3,81.8,206.3,81.8,206.3,81.8z"/>
</g>
<g>
	
		<rect x="309.6" y="99.9" transform="matrix(-0.9814 -0.1921 0.1921 -0.9814 688.7288 329.4209)" class="st4" width="101.4" height="62.8"/>
</g>
<g>
	<path class="st24" d="M327.8,350.6c0,0,117.2-38,124.7-122.2s-8.7-130-126.1-160.9S171.6-43,80.5,29.8S-23.2,442,327.8,350.6z"/>
</g>
<g>
	<defs>
		
			<rect id="SVGID_53_" x="309.6" y="99.9" transform="matrix(-0.9814 -0.1921 0.1921 -0.9814 688.7288 329.4209)" width="101.4" height="62.8"/>
	</defs>
	<clipPath id="SVGID_2_">
		<use xlink:href="#SVGID_53_"  style="overflow:visible;"/>
	</clipPath>
	<g class="st1">
		<path class="st15" d="M360.2,127.1l-0.3-0.2l-45.6-37.1c-0.3-0.2-0.3-0.7-0.1-0.9c0.2-0.3,0.7-0.3,0.9-0.1l45.3,36.9l57.7-16.7
			c0.4-0.1,0.7,0.1,0.8,0.5c0.1,0.4-0.1,0.7-0.5,0.8L360.2,127.1z"/>
	</g>
</g>
<g>
	<path class="st62" d="M319,155.3c0,0,7.6-17.4,8.8-20.3c1.7-4,3-6.4,7-5.6c3.9,0.8,2.9,6.2,2.9,6.2l-4.4,24.2"/>
</g>
<g>
	<path class="st15" d="M384.5,90.9c-0.2,0-0.3-0.1-0.4-0.2c-0.3-0.2-0.3-0.7-0.1-0.9l21.9-25.6c0.2-0.3,0.7-0.3,0.9-0.1
		c0.3,0.2,0.3,0.7,0.1,0.9l-21.9,25.6C384.9,90.8,384.7,90.9,384.5,90.9z"/>
</g>
<g>
	<path class="st15" d="M370.2,85.9C370.1,85.9,370.1,85.9,370.2,85.9c-0.4,0-0.7-0.4-0.7-0.7l3.8-33.5c0-0.4,0.4-0.6,0.7-0.6
		c0.4,0,0.6,0.4,0.6,0.7l-3.8,33.5C370.8,85.6,370.5,85.9,370.2,85.9z"/>
</g>
<g>
	<path class="st15" d="M355,85.8c-0.3,0-0.5-0.2-0.6-0.5l-10.2-32.1c-0.1-0.4,0.1-0.7,0.4-0.8c0.4-0.1,0.7,0.1,0.8,0.4l10.2,32.1
		c0.1,0.4-0.1,0.7-0.4,0.8C355.2,85.8,355.1,85.8,355,85.8z"/>
</g>
<g>
	<path class="st69" d="M249.2,364.7l-3.9-49c0,0-11,2.9-14-17.6c-3.4-22.7-13.4-105.5-13.4-105.5L116,194.5c0,0-7.6,79.3-11.2,105
		c-1,7.4-6.4,19.4-20.9,21.6C119.9,353.3,170.8,372.4,249.2,364.7z"/>
</g>
<g>
	<path class="st71" d="M169.2,271.9c-8.6,0-15.8-2.7-21.3-8.1c-8.3-8.2-11.3-21.1-12.3-30.5c-1.1-10.1-0.3-18.2-0.3-18.5l0.1-0.9
		l67.3-0.6l0.1,0.9c3.7,22.2,1.2,38.4-7.6,48.2c-8.4,9.4-19.5,9.3-20.7,9.2C172.7,271.8,170.9,271.9,169.2,271.9z M137.3,215.9
		c-0.4,5.4-1.6,32.9,12.1,46.4c6.2,6.1,14.6,8.5,25.1,7.2l0.1,0l0.1,0c0.1,0,11.2,0.5,19.2-8.6c8.2-9.2,10.6-24.5,7.2-45.6
		L137.3,215.9z"/>
</g>
<g>
	<path class="st17" d="M124.9,133.6c0,0-69.8,12.1-85.3,106.8c0,0,23.6,6.8,63.5,6.1L124.9,133.6z"/>
</g>
<g>
	<path class="st69" d="M115.8,135.2c0,0,4.8-2.2,16.3-3.3l0.4,63.1l-16.5-0.5L115.8,135.2z"/>
</g>
<g>
	<defs>
		<path id="SVGID_97_" d="M327.8,350.6c0,0,117.2-38,124.7-122.2s-8.7-130-126.1-160.9S171.6-43,80.5,29.8S-23.2,442,327.8,350.6z"
			/>
	</defs>
	<clipPath id="SVGID_4_">
		<use xlink:href="#SVGID_97_"  style="overflow:visible;"/>
	</clipPath>
	<g style="clip-path:url(#SVGID_4_);">
		<path class="st62" d="M93.6,242.8c0,0-6.5,76.5,5.8,93.8l-56.3,3c0,0-5.4-67,0.4-100.6L93.6,242.8z"/>
	</g>
</g>
<g>
	<path class="st62" d="M121.7,330.8c0,0,10.2-8,16.3,1.8s4.7,28.3,4.7,28.3s-0.4,6-5.4,6.2c0,0-4.9-0.3-5.1-6.6
		c-0.2-6.3,0-18.7-4-21"/>
</g>
<g>
	<path class="st62" d="M131.6,330.7c0,0,9.6-7.5,15.4,1.7c5.8,9.3,4.5,26.8,4.5,26.8s-0.5,5.7-5.1,5.9c-2,0.1-4.8-1.1-4.8-6.2
		c0-6,0-17.7-3.8-19.9"/>
</g>
<g>
	<path class="st62" d="M111.1,332.4c0,0,10.2-8,16.3,1.8s4.7,28.3,4.7,28.3S132,368,127,368c0,0-5.1,0.5-5.3-5.8
		c-0.2-6.3,0-18.7-4-21"/>
</g>
<g>
	<path class="st62" d="M97.1,332.1c0,0,13.6-9.3,19.8,0.5s4.7,28.3,4.7,28.3s-0.7,6-5.4,6.2c0,0-4.9-0.3-5.1-6.6
		c-0.2-6.3,0-16.4-3.2-21.4L97.1,332.1"/>
</g>
<g>
	<path class="st62" d="M72.5,304c0,0,16.2,22,23.4,27.4c7.2,5.5,46.1-3.3,46.1-3.3s-46.6-29.2-49.9-59.1"/>
</g>
<g>
	<path class="st15" d="M121.7,362.8C121.7,362.8,121.7,362.8,121.7,362.8c-0.4,0-0.7-0.4-0.7-0.7c1.8-15.6-3.3-25.5-3.4-25.6
		c-0.2-0.3,0-0.7,0.3-0.9c0.3-0.2,0.7,0,0.9,0.3c0.2,0.4,5.4,10.4,3.5,26.4C122.4,362.6,122.1,362.8,121.7,362.8z"/>
</g>
<g>
	<path class="st15" d="M132.7,362.8C132.7,362.8,132.7,362.8,132.7,362.8c-0.4,0-0.7-0.4-0.7-0.7c1.8-15.6-3.3-26.3-3.4-26.4
		c-0.2-0.3,0-0.7,0.3-0.9c0.3-0.2,0.7,0,0.9,0.3c0.2,0.5,5.4,11.2,3.5,27.2C133.4,362.6,133.1,362.8,132.7,362.8z"/>
</g>
<g>
	<path class="st15" d="M142.6,362.8C142.5,362.8,142.5,362.8,142.6,362.8c-0.4,0-0.7-0.4-0.7-0.7c1.8-15.6-3.3-26.3-3.4-26.4
		c-0.2-0.3,0-0.7,0.3-0.9c0.3-0.2,0.7,0,0.9,0.3c0.2,0.5,5.4,11.2,3.5,27.2C143.2,362.6,142.9,362.8,142.6,362.8z"/>
</g>
<g>
	<path class="st145" d="M505.6,398.1h-523V-18.5h523V398.1z M-16.3,397.1h521V-17.5h-521V397.1z"/>
</g>
<g>
	<path class="st146" d="M453.6,215c-11.5-1.6-23.8,2.5-32.3,10.6c-10.3,9.9-15.1,24.8-13.9,39.1c-9.3-8.3-24.3-9.1-34.4-1.9
		c-10.1,7.2-14.3,21.7-9.5,33.2c-13.6-10.1-34.4-6-46.1,6.2c-11.8,12.2-15.5,30.4-13.9,47.3c0.2,2.3,0.5,4.5,0.9,6.8
		c7.6-1.6,15.4-3.5,23.4-5.6c0,0,117.2-38,124.7-122.2C453,223.9,453.3,219.4,453.6,215z"/>
</g>
</svg>
