<?xml version="1.0" encoding="utf-8"?>
<!-- Generator: Adobe Illustrator 26.5.3, SVG Export Plug-In . SVG Version: 6.00 Build 0)  -->
<svg version="1.1" id="Capa_1" xmlns="http://www.w3.org/2000/svg" xmlns:xlink="http://www.w3.org/1999/xlink" x="0px" y="0px"
	 width="96px" height="96px" viewBox="0 0 96 96" enable-background="new 0 0 96 96" xml:space="preserve">
<g>
	<polygon fill="#96613C" points="87.912,38.219 32.208,22.038 5.047,35.465 54.94,48.399 	"/>
	<g>
		<path fill="#FFF8DE" d="M50.274,27.833c0,0,1.443-2.887,1.985-11.035c0,0,16.646,0.376,19.759-0.68c0,0,1.967,11.675-7.104,24.93"
			/>
		
			<line fill="none" stroke="#6A6A69" stroke-width="0.1096" stroke-miterlimit="10" x1="53.558" y1="20.12" x2="69.116" y2="20.12"/>
		
			<line fill="none" stroke="#6A6A69" stroke-width="0.1096" stroke-miterlimit="10" x1="53.456" y1="22.052" x2="69.014" y2="22.052"/>
		
			<line fill="none" stroke="#6A6A69" stroke-width="0.1096" stroke-miterlimit="10" x1="53.19" y1="23.984" x2="68.749" y2="23.984"/>
		
			<line fill="none" stroke="#6A6A69" stroke-width="0.1096" stroke-miterlimit="10" x1="53.145" y1="25.915" x2="68.704" y2="25.915"/>
		
			<line fill="none" stroke="#6A6A69" stroke-width="0.1096" stroke-miterlimit="10" x1="53.036" y1="28.044" x2="68.594" y2="28.044"/>
		
			<line fill="none" stroke="#6A6A69" stroke-width="0.1096" stroke-miterlimit="10" x1="53.036" y1="30.185" x2="68.594" y2="30.185"/>
	</g>
	<g>
		<g>
			<g>
				<g>
					
						<ellipse transform="matrix(0.3616 -0.9323 0.9323 0.3616 -18.6482 42.1288)" fill="#E9A32C" cx="21.439" cy="34.682" rx="7.914" ry="8.319"/>
				</g>
				<g>
					
						<ellipse transform="matrix(0.3616 -0.9323 0.9323 0.3616 -11.9469 45.0816)" fill="#D58213" cx="26.946" cy="31.265" rx="0.273" ry="0.284"/>
				</g>
				<g>
					
						<ellipse transform="matrix(0.3616 -0.9323 0.9323 0.3616 -12.7938 47.3719)" fill="#D58213" cx="28.195" cy="33.028" rx="0.273" ry="0.284"/>
				</g>
				<g>
					
						<ellipse transform="matrix(0.3616 -0.9323 0.9323 0.3616 -13.9 45.6215)" fill="#D58213" cx="26.363" cy="32.961" rx="0.273" ry="0.284"/>
				</g>
				<g>
					
						<ellipse transform="matrix(0.3616 -0.9323 0.9323 0.3616 -13.2164 43.0728)" fill="#D58213" cx="24.844" cy="31.187" rx="0.273" ry="0.284"/>
				</g>
				<g>
					
						<ellipse transform="matrix(0.3616 -0.9323 0.9323 0.3616 -15.0569 43.7908)" fill="#D58213" cx="24.448" cy="32.89" rx="0.273" ry="0.284"/>
				</g>
				<g>
					
						<ellipse transform="matrix(0.3616 -0.9323 0.9323 0.3616 -14.7159 49.0462)" fill="#D58213" cx="28.456" cy="35.269" rx="0.273" ry="0.284"/>
				</g>
				<g>
					
						<ellipse transform="matrix(0.3616 -0.9323 0.9323 0.3616 -15.993 47.0253)" fill="#D58213" cx="26.342" cy="35.191" rx="0.273" ry="0.284"/>
				</g>
				<g>
					
						<ellipse transform="matrix(0.3616 -0.9323 0.9323 0.3616 -17.1093 49.4963)" fill="#D58213" cx="27.588" cy="37.242" rx="0.273" ry="0.284"/>
				</g>
				<g>
					<path fill="#6F5437" d="M21.485,27.636c-0.27-0.01-0.555-0.114-0.553-0.287c0-0.043,0.02-0.085,0.057-0.12
						c0.091-0.087,0.284-0.136,0.504-0.128c0.269,0.01,0.555,0.114,0.553,0.287c0,0.043-0.02,0.085-0.057,0.12
						c-0.029,0.028-0.069,0.052-0.116,0.071C21.772,27.621,21.634,27.642,21.485,27.636z M21.063,27.307
						c-0.016,0.015-0.024,0.03-0.024,0.044l0,0c-0.001,0.066,0.174,0.168,0.45,0.178c0.215,0.008,0.369-0.044,0.426-0.099
						c0.016-0.015,0.024-0.03,0.024-0.044c0.001-0.066-0.174-0.168-0.45-0.178c-0.147-0.005-0.265,0.017-0.344,0.049
						C21.109,27.273,21.081,27.29,21.063,27.307z"/>
				</g>
			</g>
		</g>
	</g>
	<g>
		<g>
			<g>
				<g>
					
						<ellipse transform="matrix(0.3616 -0.9323 0.9323 0.3616 -6.7768 52.6322)" fill="#E9A32C" cx="35.044" cy="31.265" rx="7.914" ry="8.319"/>
				</g>
				<g>
					
						<ellipse transform="matrix(0.3616 -0.9323 0.9323 0.3616 -0.0755 55.5851)" fill="#D58213" cx="40.551" cy="27.848" rx="0.273" ry="0.284"/>
				</g>
				<g>
					
						<ellipse transform="matrix(0.3616 -0.9323 0.9323 0.3616 -0.9224 57.8754)" fill="#D58213" cx="41.8" cy="29.611" rx="0.273" ry="0.284"/>
				</g>
				<g>
					
						<ellipse transform="matrix(0.3616 -0.9323 0.9323 0.3616 -2.0286 56.1249)" fill="#D58213" cx="39.969" cy="29.544" rx="0.273" ry="0.284"/>
				</g>
				<g>
					
						<ellipse transform="matrix(0.3616 -0.9323 0.9323 0.3616 -1.3451 53.5762)" fill="#D58213" cx="38.45" cy="27.77" rx="0.273" ry="0.284"/>
				</g>
				<g>
					
						<ellipse transform="matrix(0.3616 -0.9323 0.9323 0.3616 -3.1855 54.2943)" fill="#D58213" cx="38.054" cy="29.473" rx="0.273" ry="0.284"/>
				</g>
				<g>
					
						<ellipse transform="matrix(0.3616 -0.9323 0.9323 0.3616 -2.8445 59.5497)" fill="#D58213" cx="42.062" cy="31.852" rx="0.273" ry="0.284"/>
				</g>
				<g>
					
						<ellipse transform="matrix(0.3616 -0.9323 0.9323 0.3616 -4.1216 57.5288)" fill="#D58213" cx="39.948" cy="31.774" rx="0.273" ry="0.284"/>
				</g>
				<g>
					
						<ellipse transform="matrix(0.3616 -0.9323 0.9323 0.3616 -5.2379 59.9998)" fill="#D58213" cx="41.194" cy="33.825" rx="0.273" ry="0.284"/>
				</g>
				<g>
					<path fill="#6F5437" d="M35.09,24.219c-0.27-0.01-0.555-0.114-0.553-0.287c0-0.043,0.02-0.085,0.057-0.12
						c0.091-0.087,0.284-0.136,0.504-0.128c0.269,0.01,0.555,0.114,0.553,0.287c0,0.043-0.02,0.085-0.057,0.12
						c-0.029,0.028-0.069,0.052-0.116,0.071C35.377,24.204,35.24,24.225,35.09,24.219z M34.668,23.89
						c-0.016,0.015-0.024,0.03-0.024,0.044l0,0c-0.001,0.066,0.174,0.168,0.45,0.178c0.215,0.008,0.369-0.044,0.426-0.099
						c0.016-0.015,0.024-0.03,0.024-0.044c0.001-0.066-0.174-0.168-0.45-0.178c-0.147-0.005-0.265,0.017-0.344,0.049
						C34.714,23.856,34.686,23.873,34.668,23.89z"/>
				</g>
			</g>
		</g>
	</g>
	<g>
		<g>
			<g>
				<g>
					
						<ellipse transform="matrix(0.331 -0.9436 0.9436 0.331 -2.4271 65.1245)" fill="#E9A32C" cx="44.716" cy="34.274" rx="8.319" ry="7.914"/>
				</g>
				<g>
					
						<ellipse transform="matrix(0.331 -0.9436 0.9436 0.331 0.2565 58.1248)" fill="#D58213" cx="41.121" cy="28.881" rx="0.284" ry="0.273"/>
				</g>
				<g>
					
						<ellipse transform="matrix(0.331 -0.9436 0.9436 0.331 2.6407 58.876)" fill="#D58213" cx="42.843" cy="27.576" rx="0.284" ry="0.273"/>
				</g>
				<g>
					
						<ellipse transform="matrix(0.331 -0.9436 0.9436 0.331 0.9062 60.0947)" fill="#D58213" cx="42.835" cy="29.408" rx="0.284" ry="0.273"/>
				</g>
				<g>
					
						<ellipse transform="matrix(0.331 -0.9436 0.9436 0.331 -1.7339 59.5234)" fill="#D58213" cx="41.112" cy="30.985" rx="0.284" ry="0.273"/>
				</g>
				<g>
					
						<ellipse transform="matrix(0.331 -0.9436 0.9436 0.331 -0.9076 61.3692)" fill="#D58213" cx="42.827" cy="31.325" rx="0.284" ry="0.273"/>
				</g>
				<g>
					
						<ellipse transform="matrix(0.331 -0.9436 0.9436 0.331 4.4488 60.7574)" fill="#D58213" cx="45.074" cy="27.241" rx="0.284" ry="0.273"/>
				</g>
				<g>
					
						<ellipse transform="matrix(0.331 -0.9436 0.9436 0.331 2.4464 62.1644)" fill="#D58213" cx="45.065" cy="29.357" rx="0.284" ry="0.273"/>
				</g>
				<g>
					
						<ellipse transform="matrix(0.331 -0.9436 0.9436 0.331 5.0289 63.1821)" fill="#D58213" cx="47.074" cy="28.044" rx="0.284" ry="0.273"/>
				</g>
				<g>
					<path fill="#6F5437" d="M37.673,34.458c-0.001,0.27-0.096,0.558-0.268,0.562c-0.043,0.001-0.086-0.017-0.122-0.053
						c-0.09-0.089-0.145-0.28-0.145-0.5c0.001-0.27,0.096-0.558,0.268-0.562c0.043-0.001,0.086,0.017,0.122,0.053
						c0.029,0.028,0.054,0.067,0.075,0.113C37.648,34.172,37.673,34.308,37.673,34.458z M37.357,34.891
						c0.016,0.015,0.031,0.023,0.045,0.023l0,0c0.066-0.002,0.162-0.18,0.164-0.456c0.001-0.215-0.056-0.367-0.112-0.423
						c-0.016-0.015-0.031-0.023-0.045-0.023c-0.066,0.001-0.162,0.18-0.164,0.456c-0.001,0.147,0.026,0.265,0.06,0.342
						C37.321,34.846,37.339,34.873,37.357,34.891z"/>
				</g>
			</g>
		</g>
	</g>
	<g>
		<g>
			<g>
				<g>
					
						<ellipse transform="matrix(0.9871 -0.1601 0.1601 0.9871 -6.0993 5.9202)" fill="#E9A32C" cx="33.694" cy="40.815" rx="7.914" ry="8.319"/>
				</g>
				<g>
					
						<ellipse transform="matrix(0.9871 -0.1601 0.1601 0.9871 -5.6899 4.9632)" fill="#D58213" cx="27.959" cy="37.796" rx="0.273" ry="0.284"/>
				</g>
				<g>
					
						<ellipse transform="matrix(0.9871 -0.1601 0.1601 0.9871 -5.3631 5.0801)" fill="#D58213" cx="28.848" cy="35.826" rx="0.273" ry="0.284"/>
				</g>
				<g>
					
						<ellipse transform="matrix(0.9871 -0.1601 0.1601 0.9871 -5.6102 5.24)" fill="#D58213" cx="29.717" cy="37.439" rx="0.273" ry="0.284"/>
				</g>
				<g>
					
						<ellipse transform="matrix(0.9871 -0.1601 0.1601 0.9871 -5.9735 5.1467)" fill="#D58213" cx="28.956" cy="39.647" rx="0.273" ry="0.284"/>
				</g>
				<g>
					
						<ellipse transform="matrix(0.9871 -0.1601 0.1601 0.9871 -5.8686 5.4072)" fill="#D58213" cx="30.625" cy="39.127" rx="0.273" ry="0.284"/>
				</g>
				<g>
					
						<ellipse transform="matrix(0.9871 -0.1601 0.1601 0.9871 -5.1222 5.3507)" fill="#D58213" cx="30.648" cy="34.466" rx="0.273" ry="0.284"/>
				</g>
				<g>
					
						<ellipse transform="matrix(0.9871 -0.1601 0.1601 0.9871 -5.4075 5.5353)" fill="#D58213" cx="31.651" cy="36.329" rx="0.273" ry="0.284"/>
				</g>
				<g>
					
						<ellipse transform="matrix(0.9871 -0.1601 0.1601 0.9871 -5.0546 5.6902)" fill="#D58213" cx="32.789" cy="34.216" rx="0.273" ry="0.284"/>
				</g>
				<g>
					<path fill="#6F5437" d="M27.594,44.342c0.128,0.237,0.183,0.536,0.033,0.622c-0.038,0.022-0.083,0.026-0.133,0.012
						c-0.121-0.035-0.261-0.176-0.366-0.37c-0.128-0.237-0.183-0.536-0.033-0.622c0.038-0.022,0.083-0.026,0.133-0.012
						c0.039,0.011,0.079,0.033,0.12,0.064C27.436,44.102,27.523,44.21,27.594,44.342z M27.524,44.873
						c0.021,0.006,0.038,0.006,0.05-0.001l0,0c0.057-0.033,0.057-0.236-0.074-0.478c-0.102-0.189-0.225-0.296-0.301-0.318
						c-0.021-0.006-0.038-0.005-0.05,0.001c-0.057,0.033-0.057,0.235,0.074,0.478c0.07,0.129,0.149,0.22,0.217,0.272
						C27.471,44.851,27.5,44.866,27.524,44.873z"/>
				</g>
			</g>
		</g>
	</g>
	<g>
		<g>
			<g>
				<path fill="#FFDC70" d="M57.471,35.271c-1.079,1.808-2.101,4.483-0.766,8.386c0,0,1.763,4.742,7.943,3.613
					c3.166-0.578,5.738-4.071,5.738-4.071c0.182,0.092,0.453-0.01,0.604-0.187c0.242-0.283,0.204-0.537,0.104-0.747
					c0.55,0.115,0.874-0.579,0.482-0.972c0.623-1.193,0.915-2.571,0.837-3.977c-0.234-4.231-3.744-7.154-8.13-6.77
					C64.282,30.546,60.206,30.687,57.471,35.271z"/>
			</g>
			
				<path fill="none" stroke="#F8B92D" stroke-width="0.0949" stroke-linecap="round" stroke-linejoin="round" stroke-miterlimit="10" d="
				M64.245,33.036c-0.071-0.162-0.175-0.314-0.322-0.411c-0.148-0.097-0.343-0.131-0.504-0.059
				c-0.102,0.046-0.184,0.131-0.237,0.229c-0.066,0.122-0.117,0.31-0.092,0.446c-0.241-0.189-0.495-0.432-0.796-0.375
				c-0.2,0.038-0.371,0.2-0.421,0.397c-0.05,0.198,0.024,0.421,0.182,0.55"/>
			<path fill="#FFDC70" d="M57.162,44.47c-0.356,0.309-0.319,0.737-0.131,1.182c0.177,0.418,0.601,0.733,1.043,0.832
				c0.141,0.032,0.285,0.051,0.429,0.042c0.394-0.023,0.767-0.269,0.944-0.621"/>
			<path fill="#FFDC70" d="M58.559,42.585c-0.439,0.298-0.455,0.782-0.303,1.305c0.142,0.491,0.575,0.899,1.056,1.07
				c0.153,0.054,0.312,0.095,0.474,0.105c0.444,0.027,0.894-0.199,1.138-0.57"/>
			<path fill="#FFDC70" d="M71.256,34.227c0.47-0.248,0.539-0.727,0.446-1.264c-0.087-0.503-0.472-0.957-0.932-1.18
				c-0.146-0.071-0.3-0.129-0.46-0.156c-0.438-0.075-0.91,0.099-1.194,0.44"/>
		</g>
		<g>
			
				<ellipse transform="matrix(0.5694 -0.8221 0.8221 0.5694 -9.5502 65.5792)" fill="#F8B92D" cx="57.819" cy="41.905" rx="0.24" ry="0.25"/>
		</g>
		<g>
			
				<ellipse transform="matrix(0.5694 -0.8221 0.8221 0.5694 -8.3247 64.2478)" fill="#F8B92D" cx="57.161" cy="40.07" rx="0.24" ry="0.25"/>
		</g>
		<g>
			
				<ellipse transform="matrix(0.5694 -0.8221 0.8221 0.5694 -6.5717 63.9689)" fill="#F8B92D" cx="57.771" cy="38.257" rx="0.24" ry="0.25"/>
		</g>
		<g>
			
				<ellipse transform="matrix(0.5694 -0.8221 0.8221 0.5694 -7.6842 65.5621)" fill="#F8B92D" cx="58.736" cy="40.116" rx="0.24" ry="0.25"/>
		</g>
		<g>
			
				<ellipse transform="matrix(0.5694 -0.8221 0.8221 0.5694 -5.8739 65.3062)" fill="#F8B92D" cx="59.397" cy="38.26" rx="0.24" ry="0.25"/>
		</g>
	</g>
	<g>
		<g>
			<g>
				<path fill="#FFDC70" d="M72.612,36.041c-1.941,0.815-4.352,2.362-5.593,6.296c0,0-1.395,4.863,4.25,7.622
					c2.891,1.413,7.034,0.127,7.034,0.127c0.092,0.182,0.371,0.261,0.597,0.208c0.363-0.085,0.483-0.311,0.527-0.54
					c0.374,0.419,1.047,0.052,0.965-0.496c1.209-0.59,2.262-1.526,3.034-2.705c2.322-3.545,1.231-7.98-2.528-10.274
					C80.899,36.279,77.534,33.973,72.612,36.041z"/>
			</g>
			
				<path fill="none" stroke="#F8B92D" stroke-width="0.0949" stroke-linecap="round" stroke-linejoin="round" stroke-miterlimit="10" d="
				M79.391,38.26c0.039-0.172,0.046-0.356-0.016-0.522c-0.061-0.165-0.199-0.309-0.371-0.346c-0.109-0.024-0.226-0.004-0.327,0.044
				c-0.125,0.059-0.278,0.18-0.339,0.305c-0.082-0.295-0.142-0.642-0.419-0.774c-0.184-0.088-0.417-0.06-0.575,0.07
				s-0.231,0.353-0.18,0.551"/>
			<path fill="#FFDC70" d="M66.906,43.263c-0.47,0.037-0.694,0.404-0.807,0.874c-0.106,0.441,0.049,0.946,0.346,1.289
				c0.094,0.109,0.199,0.21,0.32,0.289c0.331,0.215,0.777,0.239,1.128,0.06"/>
			<path fill="#FFDC70" d="M69.149,42.574c-0.531-0.021-0.83,0.359-1.019,0.871c-0.177,0.479-0.071,1.065,0.216,1.488
				c0.091,0.134,0.195,0.261,0.32,0.365c0.341,0.285,0.837,0.37,1.254,0.217"/>
			<path fill="#FFDC70" d="M84.329,43.379c0.525,0.079,0.865-0.265,1.109-0.753c0.229-0.457,0.188-1.051-0.05-1.503
				c-0.076-0.144-0.165-0.281-0.277-0.398c-0.308-0.321-0.791-0.461-1.223-0.354"/>
		</g>
		<g>
			
				<ellipse transform="matrix(0.9461 -0.324 0.324 0.9461 -9.7538 24.5816)" fill="#F8B92D" cx="68.957" cy="41.587" rx="0.24" ry="0.25"/>
		</g>
		<g>
			
				<ellipse transform="matrix(0.9461 -0.324 0.324 0.9461 -9.1186 24.6621)" fill="#F8B92D" cx="69.516" cy="39.72" rx="0.24" ry="0.25"/>
		</g>
		<g>
			
				<ellipse transform="matrix(0.9461 -0.324 0.324 0.9461 -8.6787 25.1104)" fill="#F8B92D" cx="71.083" cy="38.623" rx="0.24" ry="0.25"/>
		</g>
		<g>
			
				<ellipse transform="matrix(0.9461 -0.324 0.324 0.9461 -9.3663 25.1163)" fill="#F8B92D" cx="70.756" cy="40.691" rx="0.24" ry="0.25"/>
		</g>
		<g>
			
				<ellipse transform="matrix(0.9461 -0.324 0.324 0.9461 -8.9213 25.5859)" fill="#F8B92D" cx="72.389" cy="39.589" rx="0.24" ry="0.25"/>
		</g>
	</g>
	<g>
		<g>
			<g>
				<path fill="#FFDC70" d="M59.907,32.185c-1.091-1.801-2.974-3.959-7.047-4.61c0,0-5.015-0.668-6.917,5.321
					c-0.974,3.067,0.905,6.977,0.905,6.977c-0.167,0.118-0.203,0.405-0.118,0.621c0.137,0.346,0.379,0.432,0.611,0.442
					c-0.36,0.432,0.102,1.044,0.632,0.882c0.761,1.11,1.841,2.014,3.12,2.605c3.847,1.778,8.074,0.049,9.793-4.005
					C60.885,40.417,62.673,36.751,59.907,32.185z"/>
			</g>
			
				<path fill="none" stroke="#F8B92D" stroke-width="0.0949" stroke-linecap="round" stroke-linejoin="round" stroke-miterlimit="10" d="
				M58.704,39.216c0.176,0.014,0.359-0.007,0.514-0.092c0.155-0.085,0.276-0.242,0.288-0.418c0.008-0.112-0.029-0.224-0.091-0.317
				c-0.077-0.115-0.219-0.249-0.351-0.291c0.28-0.124,0.614-0.235,0.704-0.527c0.06-0.195-0.002-0.422-0.153-0.559
				c-0.151-0.137-0.383-0.176-0.571-0.097"/>
			<path fill="#FFDC70" d="M51.927,27.598c-0.106-0.459-0.501-0.627-0.983-0.67c-0.452-0.04-0.929,0.187-1.224,0.531
				c-0.094,0.109-0.179,0.228-0.239,0.359c-0.164,0.359-0.122,0.803,0.106,1.125"/>
			<path fill="#FFDC70" d="M52.937,29.716c-0.057-0.528-0.477-0.769-1.01-0.88c-0.5-0.105-1.064,0.086-1.44,0.431
				c-0.12,0.11-0.23,0.231-0.315,0.37c-0.232,0.379-0.244,0.882-0.031,1.273"/>
			<path fill="#FFDC70" d="M54.364,44.85c-0.001,0.531,0.389,0.817,0.907,0.986c0.485,0.159,1.067,0.032,1.479-0.269
				c0.131-0.096,0.254-0.204,0.354-0.333c0.272-0.351,0.34-0.85,0.171-1.261"/>
		</g>
		<g>
			
				<ellipse transform="matrix(0.8884 -0.459 0.459 0.8884 -7.4746 28.0123)" fill="#F8B92D" cx="53.885" cy="29.382" rx="0.25" ry="0.24"/>
		</g>
		<g>
			
				<ellipse transform="matrix(0.8884 -0.459 0.459 0.8884 -7.3877 28.9293)" fill="#F8B92D" cx="55.814" cy="29.661" rx="0.25" ry="0.24"/>
		</g>
		<g>
			
				<ellipse transform="matrix(0.8884 -0.459 0.459 0.8884 -7.8786 29.6877)" fill="#F8B92D" cx="57.129" cy="31.05" rx="0.25" ry="0.24"/>
		</g>
		<g>
			
				<ellipse transform="matrix(0.8884 -0.459 0.459 0.8884 -8.1031 28.7245)" fill="#F8B92D" cx="55.035" cy="31.03" rx="0.25" ry="0.24"/>
		</g>
		<g>
			
				<ellipse transform="matrix(0.8884 -0.459 0.459 0.8884 -8.6223 29.4968)" fill="#F8B92D" cx="56.364" cy="32.485" rx="0.25" ry="0.24"/>
		</g>
	</g>
	<g>
		<g>
			<g>
				<path fill="#FFDC70" d="M35.412,41.745c-1.2,2.011-2.338,4.988-0.852,9.33c0,0,1.961,5.276,8.837,4.02
					c3.522-0.643,6.384-4.53,6.384-4.53c0.203,0.102,0.504-0.012,0.672-0.208c0.269-0.315,0.227-0.598,0.115-0.831
					c0.612,0.128,0.972-0.645,0.537-1.081c0.693-1.327,1.018-2.86,0.932-4.425c-0.261-4.707-4.165-7.959-9.046-7.532
					C42.991,36.488,38.456,36.645,35.412,41.745z"/>
			</g>
			
				<path fill="none" stroke="#F8B92D" stroke-width="0.1055" stroke-linecap="round" stroke-linejoin="round" stroke-miterlimit="10" d="
				M42.949,39.258c-0.078-0.18-0.194-0.349-0.358-0.457c-0.164-0.108-0.382-0.145-0.561-0.065c-0.114,0.051-0.205,0.145-0.264,0.255
				c-0.073,0.136-0.13,0.345-0.102,0.497c-0.268-0.211-0.551-0.481-0.886-0.417c-0.223,0.043-0.413,0.222-0.469,0.442
				s0.027,0.468,0.202,0.612"/>
			<path fill="#FFDC70" d="M35.069,51.98c-0.396,0.344-0.355,0.82-0.145,1.315c0.197,0.465,0.668,0.815,1.16,0.926
				c0.156,0.035,0.317,0.057,0.477,0.047c0.438-0.026,0.853-0.299,1.05-0.691"/>
			<path fill="#FFDC70" d="M36.623,49.882c-0.489,0.332-0.506,0.87-0.338,1.452c0.158,0.546,0.639,1.001,1.175,1.19
				c0.17,0.06,0.347,0.105,0.527,0.116c0.493,0.03,0.994-0.221,1.267-0.634"/>
			<path fill="#FFDC70" d="M50.75,40.583c0.522-0.276,0.599-0.809,0.496-1.406c-0.097-0.56-0.525-1.065-1.037-1.313
				c-0.163-0.079-0.333-0.143-0.511-0.174c-0.487-0.084-1.013,0.11-1.329,0.49"/>
		</g>
		<g>
			
				<ellipse transform="matrix(0.5694 -0.8221 0.8221 0.5694 -24.969 50.587)" fill="#F8B92D" cx="35.8" cy="49.126" rx="0.267" ry="0.278"/>
		</g>
		<g>
			
				<ellipse transform="matrix(0.5694 -0.8221 0.8221 0.5694 -23.6055 49.1057)" fill="#F8B92D" cx="35.068" cy="47.084" rx="0.267" ry="0.278"/>
		</g>
		<g>
			
				<ellipse transform="matrix(0.5694 -0.8221 0.8221 0.5694 -21.6552 48.7954)" fill="#F8B92D" cx="35.747" cy="45.067" rx="0.267" ry="0.278"/>
		</g>
		<g>
			
				<ellipse transform="matrix(0.5694 -0.8221 0.8221 0.5694 -22.8929 50.5679)" fill="#F8B92D" cx="36.82" cy="47.135" rx="0.267" ry="0.278"/>
		</g>
		<g>
			
				<ellipse transform="matrix(0.5694 -0.8221 0.8221 0.5694 -20.8788 50.2832)" fill="#F8B92D" cx="37.555" cy="45.07" rx="0.267" ry="0.278"/>
		</g>
	</g>
	<g>
		<g>
			<g>
				<path fill="#FFDC70" d="M66.376,41.797c-1.193-2.016-3.263-4.438-7.787-5.21c0,0-5.571-0.801-7.757,5.839
					c-1.119,3.401,0.926,7.772,0.926,7.772c-0.187,0.129-0.231,0.449-0.138,0.69c0.148,0.387,0.416,0.485,0.675,0.499
					c-0.405,0.476,0.101,1.162,0.693,0.988c0.834,1.243,2.025,2.262,3.441,2.934c4.259,2.022,8.982,0.147,10.941-4.343
					C67.369,50.967,69.4,46.909,66.376,41.797z"/>
			</g>
			
				<path fill="none" stroke="#F8B92D" stroke-width="0.1055" stroke-linecap="round" stroke-linejoin="round" stroke-miterlimit="10" d="
				M64.957,49.605c0.196,0.017,0.4-0.004,0.573-0.096c0.173-0.093,0.31-0.266,0.325-0.461c0.01-0.124-0.03-0.25-0.098-0.354
				c-0.085-0.129-0.241-0.279-0.387-0.327c0.313-0.135,0.686-0.254,0.79-0.579c0.069-0.216,0.003-0.469-0.164-0.623
				c-0.166-0.154-0.424-0.201-0.634-0.115"/>
			<path fill="#FFDC70" d="M57.551,36.602c-0.112-0.512-0.55-0.704-1.086-0.757c-0.502-0.05-1.035,0.197-1.368,0.577
				c-0.106,0.121-0.201,0.251-0.27,0.396c-0.187,0.397-0.145,0.892,0.105,1.253"/>
			<path fill="#FFDC70" d="M58.651,38.97c-0.058-0.588-0.522-0.86-1.114-0.991c-0.555-0.122-1.185,0.083-1.607,0.463
				c-0.134,0.121-0.259,0.254-0.354,0.408c-0.262,0.419-0.281,0.979-0.049,1.415"/>
			<path fill="#FFDC70" d="M60.063,55.823c-0.008,0.591,0.424,0.913,0.998,1.108c0.538,0.183,1.186,0.048,1.649-0.283
				c0.147-0.105,0.285-0.224,0.397-0.366c0.307-0.388,0.388-0.942,0.205-1.401"/>
		</g>
		<g>
			
				<ellipse transform="matrix(0.8931 -0.4498 0.4498 0.8931 -10.9848 30.9811)" fill="#F8B92D" cx="59.708" cy="38.608" rx="0.278" ry="0.267"/>
		</g>
		<g>
			
				<ellipse transform="matrix(0.8931 -0.4498 0.4498 0.8931 -10.9057 31.9809)" fill="#F8B92D" cx="61.852" cy="38.942" rx="0.278" ry="0.267"/>
		</g>
		<g>
			
				<ellipse transform="matrix(0.8931 -0.4498 0.4498 0.8931 -11.453 32.7983)" fill="#F8B92D" cx="63.298" cy="40.502" rx="0.278" ry="0.267"/>
		</g>
		<g>
			
				<ellipse transform="matrix(0.8931 -0.4498 0.4498 0.8931 -11.6811 31.7458)" fill="#F8B92D" cx="60.969" cy="40.456" rx="0.278" ry="0.267"/>
		</g>
		<g>
			
				<ellipse transform="matrix(0.8931 -0.4498 0.4498 0.8931 -12.2594 32.5778)" fill="#F8B92D" cx="62.431" cy="42.089" rx="0.278" ry="0.267"/>
		</g>
	</g>
	<polyline fill="#BC8B6A" points="87.912,38.219 94.873,50.135 87.222,50.778 	"/>
	<path fill="none" stroke="#F8B92D" stroke-width="0.2192" stroke-miterlimit="10" d="M45.933,36.691c0,0,7.272,1.616,6.117,10.042"
		/>
	<path fill="none" stroke="#F8B92D" stroke-width="0.2192" stroke-miterlimit="10" d="M59.937,32.434c0,0-5.669,3.29-3.233,11.223
		c0,0-1.257,0.659,0.045,1.91c0,0,0.617,0.962,2.077,0.193"/>
	<path fill="none" stroke="#F8B92D" stroke-width="0.2192" stroke-miterlimit="10" d="M52.156,45.674c0,0,2.191,1.059,4.281-0.4"/>
	<path fill="none" stroke="#F8B92D" stroke-width="0.2192" stroke-miterlimit="10" d="M72.268,36.191c0,0-4.547,1.398-5.566,7.782"
		/>
	<g>
		<path fill="#4B7D76" d="M60.088,42.95c-1.379,7.292-8.446,7.567-8.446,7.567S52.449,43.255,60.088,42.95z"/>
	</g>
	<path fill="#FFDC70" d="M84.599,48.16c0,1.468-1.209,2.654-2.686,2.616c-1.365-0.035-2.506-1.17-2.548-2.535
		c-0.045-1.481,1.145-2.699,2.616-2.699C83.427,45.543,84.599,46.716,84.599,48.16"/>
	<path fill="#FFDC70" d="M65.477,53.395c0,1.469-1.21,2.655-2.687,2.616c-1.365-0.036-2.505-1.171-2.546-2.536
		c-0.044-1.48,1.144-2.697,2.616-2.697C64.305,50.778,65.477,51.951,65.477,53.395"/>
	<polygon fill="#AF754E" points="54.686,47.582 5.047,35.465 5.047,72.757 54.687,79.882 54.687,79.882 86.275,67.993 
		87.912,38.219 54.686,47.582 	"/>
	<g>
		<polygon fill="#96613C" points="54.394,79.84 54.394,47.511 54.96,47.504 54.961,79.779 54.682,79.882 		"/>
	</g>
	<path fill="none" stroke="#D58213" stroke-width="0.2192" stroke-miterlimit="10" d="M27.61,36.051c0,0,3.283-4.864,8.803-3.566
		c0,0,3.948,0.828,5.756,4.072"/>
	<path fill="none" stroke="#D58213" stroke-width="0.2192" stroke-miterlimit="10" d="M27.309,36.451c0,0-1.414,1.967-1.193,4.568"
		/>
	<polygon fill="#BC8B6A" points="54.347,47.499 47.483,60.218 1.127,51.518 5.047,35.465 	"/>
	<g>
		<path fill="#4B7D76" d="M22.314,26.723c6.729,3.131,5.256,10.048,5.256,10.048S20.73,34.202,22.314,26.723z"/>
	</g>
	<path fill="none" stroke="#D58213" stroke-width="0.2192" stroke-miterlimit="10" d="M27.086,28.97c0,0,2.141,2.016,2.427,5.127"/>
	<path fill="none" stroke="#D58213" stroke-width="0.2192" stroke-miterlimit="10" d="M37.483,32.812c0,0,0.681-3.891,4.425-6.189"
		/>
</g>
</svg>
