<?xml version="1.0" encoding="utf-8"?>
<!-- Generator: Adobe Illustrator 26.5.3, SVG Export Plug-In . SVG Version: 6.00 Build 0)  -->
<svg version="1.1" id="Capa_1" xmlns="http://www.w3.org/2000/svg" xmlns:xlink="http://www.w3.org/1999/xlink" x="0px" y="0px"
	 width="96px" height="96px" viewBox="0 0 96 96" enable-background="new 0 0 96 96" xml:space="preserve">
<g>
	<g>
		<g>
			<g>
				
					<ellipse transform="matrix(0.2508 -0.968 0.968 0.2508 -19.7977 86.7489)" fill="#F8B92D" cx="46.143" cy="56.164" rx="0.697" ry="0.727"/>
			</g>
		</g>
		<g>
			<g>
				
					<ellipse transform="matrix(0.2508 -0.968 0.968 0.2508 -14.242 88.3633)" fill="#F8B92D" cx="49.964" cy="53.382" rx="0.697" ry="0.727"/>
			</g>
		</g>
		<g>
			<g>
				
					<ellipse transform="matrix(0.2508 -0.968 0.968 0.2508 -20.0055 92.7673)" fill="#F8B92D" cx="49.927" cy="59.308" rx="0.697" ry="0.727"/>
			</g>
		</g>
		<g>
			<g>
				
					<ellipse transform="matrix(0.2508 -0.968 0.968 0.2508 -25.2237 90.0581)" fill="#F8B92D" cx="45.568" cy="61.324" rx="0.697" ry="0.727"/>
			</g>
		</g>
		<g>
			<g>
				
					<ellipse transform="matrix(0.2508 -0.968 0.968 0.2508 -25.0103 96.3034)" fill="#F8B92D" cx="49.709" cy="64.309" rx="0.697" ry="0.727"/>
			</g>
		</g>
		<g>
			<g>
				
					<ellipse transform="matrix(0.2508 -0.968 0.968 0.2508 -30.0816 94.4592)" fill="#F8B92D" cx="45.982" cy="66.663" rx="0.697" ry="0.727"/>
			</g>
		</g>
	</g>
	<g>
		<path fill="#F8B92D" d="M62.379,43.28c-0.034,0.237-0.06,0.491,0.043,0.707c0.198,0.416,0.765,0.493,1.217,0.403
			c0.864-0.172,2.295-1.526,1.122-2.327C63.953,41.511,62.495,42.46,62.379,43.28z"/>
	</g>
	<g>
		<g>
			<path fill="#E9A32C" d="M33.604,32.477c13.461-0.615,24.466,9.534,24.572,22.501c0.032,3.928-0.693,7.811-2.682,10.995
				C50.032,74.714,42.707,77.13,42.707,77.13c-0.021,0.697-0.697,1.43-1.613,1.613c-1.021,0.204-1.613-0.187-2.049-0.73
				c0.029,0.489-0.164,1.357-0.963,1.499c-0.482,0.086-1.033-0.25-1.339-0.633c0.115,0.651-0.338,1.218-0.973,1.402
				s-1.53-0.233-1.78-0.845c-13.464,0.54-24.466-9.534-24.572-22.501c-0.035-4.311,1.137-8.398,3.214-11.955
				c-0.277-1.491,0.562-2.782,2.227-2.35c-0.276-0.655-0.355-1.437,0.424-2.268c0.486-0.519,1.281-0.642,1.844-0.208
				C17.127,40.154,23.765,32.926,33.604,32.477z"/>
		</g>
	</g>
	<g>
		<g>
			<path fill="#6E5336" d="M40.176,35.61c-0.117-0.095-0.208-0.196-0.266-0.3c-0.074-0.131-0.094-0.266-0.059-0.388
				c0.143-0.489,1.038-0.538,1.807-0.336c0.627,0.165,1.13,0.469,1.314,0.793c0.074,0.131,0.094,0.266,0.059,0.388
				c-0.143,0.489-1.038,0.538-1.807,0.336C40.796,35.991,40.426,35.814,40.176,35.61z M42.506,35.325
				c-0.194-0.158-0.509-0.323-0.928-0.433c-0.787-0.207-1.368-0.068-1.423,0.119c-0.012,0.04-0.002,0.088,0.03,0.144
				c0.115,0.203,0.505,0.481,1.119,0.643c0.787,0.207,1.368,0.068,1.423-0.119l0,0c0.012-0.039,0.001-0.088-0.03-0.144
				C42.66,35.47,42.596,35.398,42.506,35.325z"/>
		</g>
	</g>
	<g>
		<path fill="#488481" d="M86.579,47.5c0,0,0.004-0.001,0.004-0.001l-0.006-0.003c-0.099-0.225-12.454-28.299-39.481-19.686
			c9.352,26.781,39.242,19.747,39.481,19.69l0.002,0.001C86.58,47.502,86.579,47.5,86.579,47.5z"/>
	</g>
	<g>
		<defs>
			<path id="SVGID_1_" d="M86.579,47.5c0,0,0.004-0.001,0.004-0.001l-0.006-0.003c-0.099-0.225-12.454-28.299-39.481-19.686
				c9.352,26.781,39.242,19.747,39.481,19.69l0.002,0.001C86.58,47.502,86.579,47.5,86.579,47.5z"/>
		</defs>
		<clipPath id="SVGID_00000103951192041928044220000000658276252326311048_">
			<use xlink:href="#SVGID_1_"  overflow="visible"/>
		</clipPath>
	</g>
	<g>
		
			<rect x="38.255" y="30.477" transform="matrix(0.3374 -0.9414 0.9414 0.3374 -0.5294 61.0012)" fill="#2F6763" width="9.628" height="0.799"/>
	</g>
	<g>
		
			<rect x="37.36" y="11.133" transform="matrix(0.4876 -0.8731 0.8731 0.4876 0.5079 44.2602)" fill="#2F6763" width="1.2" height="21.129"/>
	</g>
	<g>
		<g>
			
				<ellipse transform="matrix(0.932 -0.3626 0.3626 0.932 -22.0784 9.054)" fill="#CC7B16" cx="13.083" cy="63.349" rx="0.727" ry="0.697"/>
		</g>
	</g>
	<g>
		<g>
			
				<ellipse transform="matrix(0.932 -0.3626 0.3626 0.932 -20.3499 9.2825)" fill="#CC7B16" cx="14.556" cy="58.858" rx="0.727" ry="0.697"/>
		</g>
	</g>
	<g>
		<g>
			
				<ellipse transform="matrix(0.932 -0.3626 0.3626 0.932 -21.8668 10.8565)" fill="#CC7B16" cx="17.991" cy="63.687" rx="0.727" ry="0.697"/>
		</g>
	</g>
	<g>
		<g>
			
				<ellipse transform="matrix(0.932 -0.3626 0.3626 0.932 -23.5445 10.2864)" fill="#CC7B16" cx="15.633" cy="67.871" rx="0.727" ry="0.697"/>
		</g>
	</g>
	<g>
		<g>
			
				<ellipse transform="matrix(0.932 -0.3626 0.3626 0.932 -23.1972 12.1373)" fill="#CC7B16" cx="20.738" cy="67.871" rx="0.727" ry="0.697"/>
		</g>
	</g>
	<g>
		<g>
			
				<ellipse transform="matrix(0.932 -0.3626 0.3626 0.932 -24.7918 11.8183)" fill="#CC7B16" cx="19.091" cy="71.96" rx="0.727" ry="0.697"/>
		</g>
	</g>
	<g>
		<g>
			<path fill="#5D9E9C" d="M71.019,62.05c0,0,0.004,0.001,0.004,0.001l-0.003-0.005c0.026-0.245,3.249-30.747-24.487-36.697
				c-5.187,27.889,24.249,36.631,24.485,36.7l0.002,0.002C71.018,62.052,71.019,62.05,71.019,62.05z"/>
		</g>
		<g>
			<defs>
				<path id="SVGID_00000112629129526409827080000015369962868229308559_" d="M71.019,62.05c0,0,0.004,0.001,0.004,0.001
					l-0.003-0.005c0.026-0.245,3.249-30.747-24.487-36.697c-5.187,27.889,24.249,36.631,24.485,36.7l0.002,0.002
					C71.018,62.052,71.019,62.05,71.019,62.05z"/>
			</defs>
			<clipPath id="SVGID_00000048499268556302639050000008534213328914164660_">
				<use xlink:href="#SVGID_00000112629129526409827080000015369962868229308559_"  overflow="visible"/>
			</clipPath>
			<g clip-path="url(#SVGID_00000048499268556302639050000008534213328914164660_)">
				<polygon fill="#2F6763" points="72.645,64.569 46.381,25.45 46.682,25.249 72.946,64.368 				"/>
			</g>
		</g>
		<g>
			<defs>
				<path id="SVGID_00000169559128669389156870000011148998565126596247_" d="M71.019,62.05c0,0,0.004,0.001,0.004,0.001
					l-0.003-0.005c0.026-0.245,3.249-30.747-24.487-36.697c-5.187,27.889,24.249,36.631,24.485,36.7l0.002,0.002
					C71.018,62.052,71.019,62.05,71.019,62.05z"/>
			</defs>
			<clipPath id="SVGID_00000165222084052083649210000003664123688225953427_">
				<use xlink:href="#SVGID_00000169559128669389156870000011148998565126596247_"  overflow="visible"/>
			</clipPath>
			<g clip-path="url(#SVGID_00000165222084052083649210000003664123688225953427_)">
				<g>
					<polygon fill="#2F6763" points="50.171,30.878 50.08,30.526 57.138,28.671 57.23,29.022 					"/>
				</g>
				<g>
					<polygon fill="#2F6763" points="52.069,33.705 51.977,33.353 60.484,31.117 60.576,31.468 					"/>
				</g>
				<g>
					<polygon fill="#2F6763" points="53.973,36.525 53.881,36.174 63.59,33.622 63.682,33.973 					"/>
				</g>
			</g>
		</g>
	</g>
	<g>
		<path fill="#CC7B16" d="M39.591,71.66c-0.097,0-0.192-0.008-0.288-0.024c-0.849-0.151-1.319-0.952-1.732-1.662
			c-0.152,0.35-0.428,0.689-0.666,0.896c-0.287,0.249-0.634,0.396-0.976,0.416c-0.519,0.024-1.09-0.256-1.445-0.746
			c-0.29-0.401-0.452-0.92-0.481-1.54c-0.003-0.077,0.057-0.143,0.133-0.146c0.003,0,0.005,0,0.007,0
			c0.074,0,0.136,0.059,0.14,0.133c0.026,0.565,0.171,1.033,0.429,1.39c0.285,0.395,0.718,0.633,1.141,0.633
			c0.021,0,0.042,0,0.062-0.002c0.28-0.016,0.567-0.139,0.808-0.348c0.284-0.246,0.607-0.686,0.675-1.05
			c0.01-0.057,0.055-0.102,0.112-0.112c0.058-0.008,0.114,0.017,0.144,0.066c0.052,0.086,0.104,0.174,0.155,0.263
			c0.403,0.691,0.82,1.406,1.545,1.534c0.536,0.096,1.123-0.148,1.435-0.593c0.312-0.443,0.34-1.081,0.069-1.551
			c-0.038-0.066-0.016-0.151,0.052-0.19c0.066-0.038,0.151-0.016,0.19,0.052c0.327,0.568,0.294,1.312-0.083,1.85
			C40.694,71.385,40.146,71.66,39.591,71.66z"/>
	</g>
	<g>
		<path fill="#CC7B16" d="M20.449,49.005c-0.762,0-1.071-0.535-1.075-0.543c-0.303-0.434-0.128-0.959,0.023-1.34
			c-0.335,0.041-0.651,0.004-0.92-0.107c-0.51-0.212-0.574-0.605-0.537-0.784c0.07-0.582,0.541-0.981,0.958-1.334
			c0.059-0.049,0.16-0.054,0.209,0.005c0.05,0.059,0.056,0.136-0.003,0.186l-0.026,0.022c-0.396,0.335-0.804,0.681-0.862,1.166
			c-0.007,0.04-0.042,0.311,0.369,0.481c0.353,0.146,0.742,0.107,1.004,0.051c0.054-0.016,0.103,0.006,0.136,0.045
			s0.043,0.093,0.024,0.141l-0.054,0.135c-0.142,0.349-0.336,0.826-0.085,1.187c0.026,0.044,0.471,0.782,1.733,0.176
			c0.068-0.032,0.152-0.004,0.187,0.065c0.033,0.07,0.004,0.153-0.065,0.187C21.061,48.934,20.725,49.005,20.449,49.005z"/>
	</g>
</g>
</svg>
