<?xml version="1.0" encoding="utf-8"?>
<!-- Generator: Adobe Illustrator 26.5.3, SVG Export Plug-In . SVG Version: 6.00 Build 0)  -->
<svg version="1.1" id="Capa_1" xmlns="http://www.w3.org/2000/svg" xmlns:xlink="http://www.w3.org/1999/xlink" x="0px" y="0px"
	 width="96px" height="96px" viewBox="0 0 96 96" enable-background="new 0 0 96 96" xml:space="preserve">
<g>
	<g>
		
			<ellipse transform="matrix(0.9969 -0.0788 0.0788 0.9969 -2.3955 3.7724)" fill="#E7981A" cx="46.589" cy="32.231" rx="19.598" ry="16.534"/>
	</g>
	<g>
		
			<ellipse transform="matrix(0.9765 -0.2154 0.2154 0.9765 -6.8553 11.208)" fill="#E9A32B" cx="48" cy="37.059" rx="36.742" ry="11.65"/>
	</g>
	<g>
		<path fill="#FBCDAC" d="M36.013,38.035C32.234,70.252,30.2,73.116,30.2,73.116c9.99,7.865,23.139,7.194,23.139,7.194
			c0.808-7.466,3.792-6.423,6.524-7.286c12.875-4.07,9.057-36.728,9.057-36.728s-1.05-7.522-16.996-6.413
			C51.924,29.883,36.41,32.108,36.013,38.035z"/>
	</g>
	<g>
		<path fill="#202121" d="M62.216,38.035c0,0,0.913,3.701,5.975,4.888c0,0,6.276,1.154,7.371-5.605
			c1.512-9.335-8.262-9.553-8.262-9.553s-11.453-0.509-24.447,1.083c-11.814,1.447-13.207,9.084-13.436,12.801
			c-0.222,3.606,0.598,9.795,0.598,9.795s7.575,6.005,7.559-0.359c-0.015-6.364-0.487-10.503,4.375-9.73
			c0,0,5.344,1.059,5.872-3.319c0,0,2.161,4.075,7.9,3.47S62.216,38.035,62.216,38.035z"/>
	</g>
	<g>
		<path fill="#F1A84C" d="M66.952,55.989l-2.407-0.001c-0.654,0-1.19-0.536-1.189-1.19v0c0-0.654,0.536-1.19,1.19-1.189l2.407,0.001
			c0.654,0,1.19,0.536,1.189,1.19v0C68.142,55.454,67.607,55.989,66.952,55.989z"/>
	</g>
	<g>
		<path fill="#F1A84C" d="M47.792,55.984l-2.407-0.001c-0.654,0-1.19-0.536-1.189-1.19v0c0-0.654,0.536-1.19,1.19-1.189l2.407,0.001
			c0.654,0,1.19,0.536,1.189,1.19v0C48.982,55.449,48.446,55.984,47.792,55.984z"/>
	</g>
	<g>
		<path fill="#E9A32B" d="M27.212,38.035c-0.854-4.636,9.262-10.384,22.594-12.84s24.832-0.689,25.686,3.947l-1.648,0.649
			c0,0-8.916-3.493-23.023-0.584c0,0-18.073,2.767-20.752,8.558L27.212,38.035z"/>
	</g>
	<g>
		<path fill="#343434" d="M57.026,57.946c-0.113,0-0.231-0.005-0.352-0.014c-0.185-0.014-0.324-0.175-0.31-0.36
			c0.014-0.185,0.178-0.324,0.36-0.31c0.73,0.055,1.242-0.078,1.52-0.395c0.348-0.398,0.235-0.993,0.234-0.999l-0.004-0.02
			l-1.071-7.239c-0.027-0.184,0.1-0.355,0.283-0.382c0.187-0.027,0.355,0.1,0.382,0.283l1.07,7.232
			c0.022,0.116,0.154,0.947-0.389,1.567C58.379,57.732,57.8,57.946,57.026,57.946z"/>
	</g>
	<g>
		<path fill="#202121" d="M47.996,48.489c-0.314,0-0.623-0.146-0.82-0.421c-0.325-0.453-0.221-1.083,0.232-1.407
			c1.925-1.381,3.628-1.347,4.717-1.075c1.178,0.294,1.899,0.921,1.977,0.992c0.414,0.373,0.447,1.011,0.074,1.424
			c-0.371,0.411-1.003,0.447-1.417,0.08c-0.186-0.16-1.83-1.464-4.174,0.218C48.405,48.428,48.2,48.489,47.996,48.489z"/>
	</g>
	<g>
		<path fill="#202121" d="M61.752,48.489c-0.314,0-0.623-0.146-0.82-0.421c-0.325-0.453-0.221-1.083,0.232-1.407
			c1.925-1.381,3.628-1.347,4.717-1.075c1.178,0.294,1.899,0.921,1.977,0.992c0.414,0.373,0.447,1.011,0.074,1.424
			c-0.371,0.411-1.003,0.446-1.417,0.08c-0.187-0.16-1.831-1.463-4.174,0.218C62.161,48.428,61.956,48.489,61.752,48.489z"/>
	</g>
	<g>
		<path fill="#343434" d="M55.935,61.935c-0.248,0-0.522-0.033-0.824-0.108c-0.652-0.163-2.123-0.77-1.695-2.886
			c0.033-0.165,0.195-0.271,0.359-0.238c0.165,0.033,0.271,0.194,0.238,0.359c-0.296,1.466,0.514,1.992,1.246,2.175
			c1.74,0.434,2.232-0.884,2.252-0.94c0.056-0.158,0.23-0.241,0.388-0.186c0.158,0.055,0.242,0.227,0.188,0.385
			C58.08,60.513,57.57,61.935,55.935,61.935z"/>
	</g>
	<g>
		<path fill="#343434" d="M48.125,52.427c-0.168,0-0.304-0.135-0.304-0.303c-0.005-1.274,0.335-2.231,1.013-2.845
			c0.764-0.693,1.666-0.683,2.018-0.647c0.892,0.092,1.584,0.435,2.058,1.019c0.792,0.977,0.665,2.266,0.659,2.32
			c-0.018,0.167-0.168,0.289-0.335,0.27c-0.167-0.018-0.288-0.167-0.27-0.334l0,0c0.01-0.099,0.218-2.424-2.174-2.67
			c-0.272-0.028-0.964-0.036-1.547,0.492c-0.544,0.493-0.817,1.297-0.813,2.391c0.001,0.168-0.135,0.305-0.303,0.306
			C48.126,52.427,48.126,52.427,48.125,52.427z"/>
	</g>
	<g>
		<path fill="#343434" d="M61.892,52.427c-0.168,0-0.304-0.135-0.304-0.303c-0.005-1.274,0.335-2.231,1.013-2.845
			c0.764-0.693,1.666-0.683,2.018-0.647c0.892,0.092,1.584,0.435,2.058,1.019c0.792,0.977,0.665,2.266,0.659,2.32
			c-0.018,0.167-0.167,0.289-0.335,0.27c-0.167-0.018-0.288-0.167-0.27-0.334l0,0c0.01-0.099,0.218-2.424-2.174-2.67
			c-0.272-0.028-0.964-0.036-1.547,0.492c-0.544,0.493-0.817,1.297-0.813,2.391c0.001,0.168-0.135,0.305-0.303,0.306
			C61.893,52.427,61.893,52.427,61.892,52.427z"/>
	</g>
	<g>
		<ellipse fill="#FBCDAC" cx="32.05" cy="54.799" rx="5.524" ry="5.284"/>
	</g>
	<path fill="none" stroke="#343434" stroke-width="0.6246" stroke-linecap="round" stroke-miterlimit="10" d="M31.217,51.322
		c0,0-3.313,0.473-2.994,4.477"/>
</g>
</svg>
