<?xml version="1.0" encoding="UTF-8"?>
<svg width="544px" height="592px" viewBox="0 0 544 592" version="1.1" xmlns="http://www.w3.org/2000/svg" xmlns:xlink="http://www.w3.org/1999/xlink">
    <!-- Generator: Sketch 64 (93537) - https://sketch.com -->
    <title>08.future.illustration00</title>
    <desc>Created with Sketch.</desc>
    <defs>
        <rect id="path-1" x="0" y="0" width="544" height="592"></rect>
    </defs>
    <g id="08.future.illustration00" stroke="none" stroke-width="1" fill="none" fill-rule="evenodd">
        <g id="3-years">
            <mask id="mask-2" fill="white">
                <use xlink:href="#path-1"></use>
            </mask>
            <g id="Mask"></g>
            <g mask="url(#mask-2)">
                <path d="M253.928058,326.860432 C253.928058,326.860432 403.2,304.805755 308.489209,124.592806 C308.489209,124.592806 298.866187,94.9870504 310.146763,87.5741007 C310.146763,87.5741007 320.276259,81.8647482 324.834532,90.8892086 C324.834532,90.8892086 325.018705,79.1021583 333.858993,75.6028777 C333.858993,75.6028777 345.047482,73.2546763 348.36259,84.3971223 C348.36259,84.3971223 349.329496,76.523741 357.709353,74.8201439 C357.709353,74.8201439 367.194245,70.676259 369.726619,81.0359712 C369.726619,81.0359712 371.660432,73.8532374 379.856115,72.9323741 C379.856115,72.9323741 390.768345,70.2618705 393.899281,82.1870504 C397.030216,94.1122302 572.684892,353.197122 273.266187,479.723741" id="Path" fill="#FFD8C5" fill-rule="nonzero"></path>
                <path d="M0.368345324,611.499281 C0.368345324,611.499281 212.857554,685.81295 380.869065,601.139568 C380.869065,601.139568 345.139568,402.693525 283.671942,272.943885 C283.671942,272.943885 200.241727,214.883453 133.847482,243.384173 C133.847482,243.384173 4.18992806,266.221583 0.368345324,611.499281 Z" id="Path" fill="#DD674F" fill-rule="nonzero"></path>
                <path d="M133.709353,243.384173 C133.709353,243.384173 148.581295,192.184173 150.607194,172.201439 C152.633094,152.218705 149.08777,109.214388 147.522302,94.342446 C145.956835,79.4705036 147.522302,52.857554 162.900719,44.1553957 C178.279137,35.4532374 249.461871,19.5683453 257.657554,19.0618705 C265.853237,18.5553957 275.061871,15.9769784 285.329496,52.857554 C295.551079,89.7381295 304.299281,152.72518 256.644604,205.997122 C256.644604,205.997122 231.044604,232.103597 231.044604,248.494964 C231.044604,248.494964 195.683453,270.503597 133.709353,243.384173 Z" id="Path" fill="#FFD8C5" fill-rule="nonzero"></path>
                <path d="M243.798561,221.145324 C250.198561,212.535252 256.644604,205.997122 256.644604,205.997122 C257.703597,204.846043 258.670504,203.694964 259.683453,202.497842 L177.542446,191.539568 L156.316547,180.120863 C156.316547,180.120863 153.738129,195.821583 169.715108,209.680576 C184.126619,222.158273 214.97554,240.621583 243.798561,221.145324 Z" id="Path" fill="#F4C7BA" fill-rule="nonzero"></path>
                <path d="M202.451799,108.063309 C202.451799,108.063309 212.719424,91.1194245 231.643165,99.5453237" id="Path" stroke="#5E4F49" stroke-width="5.51095252" stroke-linecap="round"></path>
                <path d="M260.65036,98.5323741 C260.65036,98.5323741 271.056115,82.923741 286.158273,94.618705" id="Path" stroke="#5E4F49" stroke-width="5.51095252" stroke-linecap="round"></path>
                <circle id="Oval" fill="#212121" fill-rule="nonzero" cx="220.684892" cy="110.319424" r="4.37410072"></circle>
                <circle id="Oval" fill="#212121" fill-rule="nonzero" cx="275.890647" cy="103.735252" r="4.37410072"></circle>
                <path d="M248.402878,98.1640288 C248.402878,98.1640288 250.520863,123.119424 256.828777,133.018705 C263.090647,142.917986 258.440288,142.365468 249.415827,144.57554" id="Path" stroke="#212121" stroke-width="2.26265324" stroke-linecap="round"></path>
                <path d="M160.322302,125.421583 L180.120863,120.863309 C180.120863,120.863309 180.120863,151.71223 191.033094,157.191367 C201.945324,162.670504 211.522302,163.315108 226.210072,155.48777 C240.897842,147.614388 263.41295,137.392806 291.084892,154.797122 C291.084892,154.797122 279.113669,197.156835 246.008633,214.192806 C212.903597,231.228777 180.443165,213.271942 164.420144,200.195683 C159.723741,196.374101 155.211511,190.802878 155.533813,177.588489 C155.856115,164.328058 160.322302,125.421583 160.322302,125.421583 Z" id="Path" fill="#5E4F49" fill-rule="nonzero"></path>
                <path d="M260.65036,156.316547 C260.65036,156.316547 249.646043,158.848921 240.805755,153.968345" id="Path" stroke="#FFFFFF" stroke-width="2.86439137" stroke-linecap="round"></path>
                <g id="Group" transform="translate(269.352518, 81.496403)" fill-rule="nonzero">
                    <g transform="translate(5.525180, 0.000000)">
                        <ellipse id="Oval" fill="#E89C4B" cx="124.22446" cy="25.323741" rx="13.076259" ry="25.0935252"></ellipse>
                        <polygon id="Path" fill="#E89C4B" points="0.276258993 34.1640288 123.533813 50.4172662 123.533813 0.230215827 1.88776978 5.29496403"></polygon>
                        <ellipse id="Oval" fill="#CED2D6" cx="123.533813" cy="25.323741" rx="10.9582734" ry="21.0877698"></ellipse>
                    </g>
                    <path d="M13.4446043,20.0748201 C13.4446043,27.9942446 10.4978417,34.3942446 6.81438849,34.3942446 C3.13093525,34.3942446 0.184172662,27.9942446 0.184172662,20.0748201 C0.184172662,12.1553957 3.7294964,5.29496403 7.36690647,5.29496403 C11.0503597,5.29496403 13.4446043,12.1553957 13.4446043,20.0748201 Z" id="Path" fill="#E89C4B"></path>
                </g>
                <g id="Group" transform="translate(216.863309, 96.230216)" fill-rule="nonzero">
                    <g transform="translate(6.446043, 0.000000)">
                        <ellipse id="Oval" fill="#E89C4B" cx="136.610072" cy="25.1395683" rx="14.4115108" ry="25.0935252"></ellipse>
                        <polygon id="Path" fill="#E89C4B" points="0 33.9798561 135.873381 50.2330935 135.873381 0.0460431655 1.74964029 5.11079137"></polygon>
                        <ellipse id="Oval" fill="#CED2D6" cx="135.873381" cy="25.1395683" rx="12.1093525" ry="21.0877698"></ellipse>
                    </g>
                    <path d="M14.8719424,19.8906475 C14.8719424,27.8100719 11.6028777,34.2100719 7.55107914,34.2100719 C3.49928058,34.2100719 0.230215827,27.8100719 0.230215827,19.8906475 C0.230215827,11.971223 4.14388489,5.11079137 8.14964029,5.11079137 C12.247482,5.11079137 14.8719424,11.971223 14.8719424,19.8906475 Z" id="Path" fill="#E89C4B"></path>
                </g>
                <path d="M371.430216,77.9510791 C371.430216,77.9510791 363.188489,90.7971223 371.153957,94.3884892 C371.153957,94.3884892 380.869065,97.657554 385.427338,90.5208633 C389.985612,83.3841727 387.407194,74.9582734 384.230216,74.2215827 C381.007194,73.4848921 373.916547,72.9784173 371.430216,77.9510791 Z" id="Path" fill="#FFD8C5" fill-rule="nonzero"></path>
                <path d="M350.894964,76.8920863 C350.894964,76.8920863 341.317986,89.2316547 349.974101,93.3294964 C349.974101,93.3294964 360.610072,97.1510791 365.951079,90.2906475 C371.246043,83.4302158 368.713669,74.8201439 365.214388,73.8992806 C361.715108,72.9784173 353.841727,72.057554 350.894964,76.8920863 Z" id="Path" fill="#FFD8C5" fill-rule="nonzero"></path>
                <path d="M328.14964,80.9438849 C328.14964,80.9438849 320,92.4086331 329.300719,94.9870504 C329.300719,94.9870504 340.535252,97.105036 345.047482,90.7510791 C349.559712,84.3971223 345.876259,77.352518 342.238849,76.9381295 C338.555396,76.4776978 330.497842,76.523741 328.14964,80.9438849 Z" id="Path" fill="#FFD8C5" fill-rule="nonzero"></path>
                <path d="M311.205755,80.6676259 C311.205755,80.6676259 303.976978,92.1323741 312.218705,94.7107914 C312.218705,94.7107914 322.164029,96.828777 326.169784,90.4748201 C330.129496,84.1208633 326.906475,77.076259 323.683453,76.6618705 C320.414388,76.2014388 313.277698,76.247482 311.205755,80.6676259 Z" id="Path" fill="#FFD8C5" fill-rule="nonzero"></path>
                <ellipse id="Oval" fill="#CC5744" fill-rule="nonzero" cx="188.823022" cy="410.106475" rx="18.0489209" ry="85.7784173"></ellipse>
                <path d="M178.693525,339.061871 C178.693525,339.061871 324.282014,320.322302 243.2,133.617266 C243.2,133.617266 235.78705,103.366906 247.574101,96.828777 C247.574101,96.828777 258.117986,91.9021583 261.985612,101.202878 C261.985612,101.202878 262.446043,91.5338129 271.470504,88.6791367 C271.470504,88.6791367 283.395683,85.1338129 285.928058,96.4604317 C285.928058,96.4604317 288.138129,86.4690647 296.656115,86.7913669 C300.892086,86.9755396 306.463309,86.4230216 308.258993,96.9669065 C308.258993,96.9669065 310.791367,86.3309353 318.98705,86.0086331 C318.98705,86.0086331 327.965468,83.752518 333.444604,102.584173 C336.897842,114.417266 488.241727,381.605755 180.258993,485.61729 C180.305036,485.663309 149.225899,418.808633 178.693525,339.061871 Z" id="Path" fill="#FFD8C5" fill-rule="nonzero"></path>
                <path d="M117.271942,316.869065 C117.271942,316.869065 144.43741,334.273381 188.823022,324.282014" id="Path" stroke="#212121" stroke-width="2.18856978" stroke-linecap="round"></path>
                <path d="M308.258993,413.651799 C308.258993,413.651799 406.238849,338.969784 355.038849,156.592806" id="Path" stroke="#212121" stroke-width="2.18856978" stroke-linecap="round"></path>
                <path d="M110.54964,490.635971 C110.54964,490.635971 142.641727,512 188.823022,495.838849" id="Path" stroke="#212121" stroke-width="2.18856978" stroke-linecap="round"></path>
                <path d="M266.91223,127.861871 C266.91223,127.861871 262.031655,113.082014 261.985612,101.202878" id="Path" stroke="#212121" stroke-width="2.18856978" stroke-linecap="round"></path>
                <path d="M291.130935,123.671942 C291.130935,123.671942 286.25036,108.892086 286.204317,97.0129496" id="Path" stroke="#212121" stroke-width="2.18856978" stroke-linecap="round"></path>
                <path d="M313.231655,123.671942 C313.231655,123.671942 308.351079,108.892086 308.305036,97.0129496" id="Path" stroke="#212121" stroke-width="2.18856978" stroke-linecap="round"></path>
                <path d="M284.684892,50.6014388 C282.290647,42.2676259 279.942446,36.0978417 277.640288,31.4935252 L194.164029,36.9726619 L176.57554,50.8316547 L177.772662,66.3942446 L187.395683,67.3151079 C187.395683,67.3151079 186.336691,62.1122302 187.395683,57.6 C188.454676,53.0877698 189.191367,52.3971223 193.703597,57.6 C198.215827,62.8028777 207.838849,75.8791367 226.76259,68.742446 C245.686331,61.6057554 244.535252,55.2517986 258.394245,53.9165468 C267.879137,53.0877698 278.054676,52.6733813 284.684892,50.6014388 Z" id="Path" fill="#F4C7BA" fill-rule="nonzero"></path>
                <path d="M180.443165,146.048921 L183.021583,82.5553957 C183.021583,82.5553957 191.033094,71.781295 185.6,61.0532374 C182.146763,54.2848921 187.119424,47.7467626 192.782734,51.8446043 C198.446043,55.942446 206.595683,68.742446 217.876259,66.7165468 C229.156835,64.6906475 240.391367,54.8834532 251.165468,50.5553957 C261.939568,46.2273381 275.246043,49.818705 283.948201,45.2143885 C292.65036,40.6100719 297.761151,23.2057554 290.071942,9.34676259 C282.382734,-4.46618705 274.18705,1.65755396 259.361151,1.65755396 C244.489209,1.65755396 210.693525,-2.94676259 192.276259,12.4316547 C173.858993,27.8100719 168.794245,27.257554 160,29.8359712 C142.595683,34.9467626 118.008633,48.8057554 122.106475,91.8100719 L126.710791,135.320863 L180.443165,146.048921 Z" id="Path" fill="#5E4F49" fill-rule="nonzero"></path>
                <circle id="Oval" fill="#FFD8C5" fill-rule="nonzero" cx="138.91223" cy="149.179856" r="28.3625899"></circle>
                <path d="M117.317986,152.633094 C117.317986,152.633094 115.798561,135.873381 131.591367,128.460432" id="Path" stroke="#212121" stroke-width="2.18856978" stroke-linecap="round"></path>
                <path d="M178.693525,339.061871 C149.225899,418.808633 180.258993,485.709353 180.258993,485.709353 C184.679137,484.235971 186.705036,483.545324 190.941007,481.979856 C184.909353,465.45036 166.031655,404.489209 188.270504,337.035971 C182.423022,338.555396 178.693525,339.061871 178.693525,339.061871 Z" id="Path" fill="#F4C7BA" fill-rule="nonzero"></path>
            </g>
        </g>
    </g>
</svg>