<?xml version="1.0" encoding="UTF-8"?>
<svg width="80px" height="80px" viewBox="0 0 80 80" version="1.1" xmlns="http://www.w3.org/2000/svg" xmlns:xlink="http://www.w3.org/1999/xlink">
    <!-- Generator: Sketch 63.1 (92452) - https://sketch.com -->
    <title>08.future.illustration01</title>
    <desc>Created with Sketch.</desc>
    <g id="08.future.illustration01" stroke="none" stroke-width="1" fill="none" fill-rule="evenodd">
        <g id="enginyeer">
            <circle id="Oval" fill="#CED2D6" fill-rule="nonzero" cx="40" cy="40" r="39.7983193"></circle>
            <rect id="Rectangle" fill="#5D4037" fill-rule="nonzero" x="31.2941176" y="44.5714286" width="2.8907563" height="22.6218487"></rect>
            <path d="M48.4033613,30.9243697 C48.605042,29.9831933 48.7394958,28.9747899 48.7394958,27.9663866 C48.7394958,20.4033613 42.5882353,14.2521008 35.0252101,14.2521008 C28.6722689,14.2521008 23.3613445,18.5546218 21.7815126,24.4033613 C14.789916,26.5546218 9.68067227,33.1092437 9.68067227,40.8067227 C9.68067227,50.2857143 17.3781513,57.9831933 26.8571429,57.9831933 C30.1848739,57.9831933 33.3109244,57.0084034 35.9663866,55.3613445 C37.8151261,56.302521 39.8991597,56.8067227 42.1176471,56.8067227 C49.6806723,56.8067227 55.8319328,50.6554622 55.8319328,43.092437 C55.7983193,37.7815126 52.7731092,33.210084 48.4033613,30.9243697 Z" id="Path" fill="#2E998E" fill-rule="nonzero"></path>
            <path d="M48.4033613,30.9243697 C48.605042,29.9831933 48.7394958,28.9747899 48.7394958,27.9663866 C48.7394958,20.4033613 42.5882353,14.2521008 35.0252101,14.2521008 C28.6722689,14.2521008 23.3613445,18.5546218 21.7815126,24.4033613 C14.789916,26.5546218 9.68067227,33.1092437 9.68067227,40.8067227 C9.68067227,50.2857143 17.3781513,57.9831933 26.8571429,57.9831933 C30.1848739,57.9831933 33.3109244,57.0084034 35.9663866,55.3613445 C37.8151261,56.302521 39.8991597,56.8067227 42.1176471,56.8067227 C49.6806723,56.8067227 55.8319328,50.6554622 55.8319328,43.092437 C55.7983193,37.7815126 52.7731092,33.210084 48.4033613,30.9243697 Z" id="Path"></path>
            <path d="M48.4033613,30.9243697 C48.605042,29.9831933 48.7394958,28.9747899 48.7394958,27.9663866 C48.7394958,20.4033613 42.5882353,14.2521008 35.0252101,14.2521008 C28.6722689,14.2521008 23.3613445,18.5546218 21.7815126,24.4033613 C14.789916,26.5546218 9.68067227,33.1092437 9.68067227,40.8067227 C9.68067227,50.2857143 17.3781513,57.9831933 26.8571429,57.9831933 C30.1848739,57.9831933 33.3109244,57.0084034 35.9663866,55.3613445 C37.8151261,56.302521 39.8991597,56.8067227 42.1176471,56.8067227 C49.6806723,56.8067227 55.8319328,50.6554622 55.8319328,43.092437 C55.7983193,37.7815126 52.7731092,33.210084 48.4033613,30.9243697 Z" id="Path"></path>
            <circle id="Oval" fill="#F2A75C" fill-rule="nonzero" cx="24.9747899" cy="48.8067227" r="2.82352941"></circle>
            <circle id="Oval" fill="#F2A75C" fill-rule="nonzero" cx="43.9327731" cy="49.1428571" r="2.82352941"></circle>
            <circle id="Oval" fill="#F2A75C" fill-rule="nonzero" cx="41.1092437" cy="36.1008403" r="2.82352941"></circle>
            <path d="M44.4705882,18.0504202 C42.0168067,15.697479 38.6554622,14.2521008 34.9915966,14.2521008 C28.6386555,14.2521008 23.3277311,18.5546218 21.7478992,24.4033613 C14.7563025,26.5546218 9.64705882,33.1092437 9.64705882,40.8067227 C9.64705882,42.3529412 9.8487395,43.8655462 10.2521008,45.3109244 C14.0168067,45.8151261 18.7226891,45.3781513 23.9327731,42.3529412 C25.4789916,41.4453782 26.6890756,41.0084034 29.5462185,37.8151261 C32.4033613,34.6218487 35.7647059,35.6302521 38.3865546,34.0840336 C43.7310924,30.9243697 44.8739496,25.3781513 45.1428571,22.2184874 C45.210084,21.4117647 45.0756303,19.8319328 44.4705882,18.0504202 Z" id="Path" fill="#46A498" fill-rule="nonzero"></path>
            <circle id="Oval" fill="#F2A75C" fill-rule="nonzero" cx="19.3277311" cy="35.5630252" r="2.82352941"></circle>
            <circle id="Oval" fill="#F2A75C" fill-rule="nonzero" cx="31.3277311" cy="23.6302521" r="2.82352941"></circle>
            <g id="Group" transform="translate(39.327731, 14.789916)" fill="#5D4037" fill-rule="nonzero">
                <path d="M11.4285714,24.0336134 C8.7394958,24.0336134 6.1512605,23.0252101 4.10084034,21.210084 C1.91596639,19.2605042 0.638655462,16.5714286 0.504201681,13.6470588 L0.0336134454,2.21848739 C-4.77395901e-15,1.68067227 0.43697479,1.21008403 0.974789916,1.17647059 C1.51260504,1.17647059 1.98319328,1.57983193 2.01680672,2.11764706 L2.48739496,13.5462185 C2.62184874,15.8991597 3.66386555,18.1176471 5.41176471,19.7310924 C7.19327731,21.3445378 9.4789916,22.1512605 11.8655462,22.0504202 L12.8739496,22.0168067 C15.2605042,21.8823529 17.4453782,20.8403361 19.0588235,19.092437 C20.6722689,17.3109244 21.4789916,15.0252101 21.3781513,12.6386555 L20.907563,1.21008403 C20.8739496,0.672268908 21.3109244,0.201680672 21.8487395,0.168067227 C22.3865546,0.134453782 22.8571429,0.571428571 22.8907563,1.1092437 L23.3613445,12.5378151 C23.4957983,15.4285714 22.5210084,18.2184874 20.5378151,20.4033613 C18.5546218,22.5882353 15.8991597,23.8655462 12.9747899,24 L11.9663866,24.0336134 C11.7983193,24.0336134 11.5966387,24.0336134 11.4285714,24.0336134 Z" id="Path"></path>
                <path d="M13.9159664,54.0840336 C13.3781513,54.0840336 12.9411765,53.6806723 12.907563,53.1428571 L10.3529412,1.71428571 C10.3193277,1.17647059 10.7563025,0.705882353 11.2941176,0.672268908 C11.8319328,0.638655462 12.302521,1.07563025 12.3361345,1.61344538 L14.8907563,53.0420168 C14.9243697,53.5798319 14.487395,54.0504202 13.9495798,54.0840336 C13.9495798,54.0840336 13.9495798,54.0840336 13.9159664,54.0840336 Z" id="Path"></path>
            </g>
        </g>
    </g>
</svg>