<?xml version="1.0" encoding="UTF-8"?>
<svg width="80px" height="80px" viewBox="0 0 80 80" version="1.1" xmlns="http://www.w3.org/2000/svg" xmlns:xlink="http://www.w3.org/1999/xlink">
    <!-- Generator: Sketch 63.1 (92452) - https://sketch.com -->
    <title>08.future.illustration03</title>
    <desc>Created with Sketch.</desc>
    <g id="08.future.illustration03" stroke="none" stroke-width="1" fill="none" fill-rule="evenodd">
        <g id="technology" fill-rule="nonzero">
            <circle id="Oval" fill="#CED2D6" cx="40.0336134" cy="40" r="39.7983193"></circle>
            <path d="M47.4621849,11.394958 C47.4621849,11.394958 8.03361345,33.4117647 33.5798319,56.3697479 C67.5966387,51.8319328 47.4621849,11.394958 47.4621849,11.394958 Z" id="Path" fill="#2E998E"></path>
            <path d="M10.6554622,26.5882353 C10.6554622,26.5882353 7.49579832,59.6302521 32.0336134,53.7815126 C43.4957983,31.3277311 10.6554622,26.5882353 10.6554622,26.5882353 Z" id="Path" fill="#2E998E"></path>
            <path d="M64.0336134,45.0084034 L63.1260504,39.7983193 C63.0588235,39.3613445 62.6218487,39.0588235 62.1848739,39.1596639 L57.6134454,39.9663866 C57.0756303,38.7226891 56.3697479,37.5798319 55.5294118,36.5378151 L58.3865546,33.1428571 C58.6890756,32.8067227 58.6218487,32.302521 58.2857143,32 L54.2521008,28.605042 C53.9159664,28.302521 53.4117647,28.3697479 53.1092437,28.7058824 L50.1848739,32.2016807 C48.9747899,31.5966387 47.697479,31.1596639 46.3529412,30.8907563 L46.3529412,26.5210084 C46.3529412,26.0840336 45.9831933,25.7142857 45.5462185,25.7142857 L40.2689076,25.7142857 C39.8319328,25.7142857 39.4621849,26.0840336 39.4621849,26.5210084 L39.4621849,31.0252101 C38.1176471,31.3613445 36.8403361,31.8655462 35.6638655,32.5042017 L32.8067227,29.2436975 C32.5042017,28.907563 32,28.8739496 31.6638655,29.1428571 L27.6302521,32.5378151 C27.2941176,32.8403361 27.2605042,33.3445378 27.5294118,33.6806723 L30.4201681,37.1428571 C29.6134454,38.2521008 28.9747899,39.4621849 28.4705882,40.7394958 L24.2016807,40 C23.7647059,39.9327731 23.3613445,40.2016807 23.2605042,40.6386555 L22.3529412,45.8487395 C22.2857143,46.2857143 22.5546218,46.6890756 22.9915966,46.789916 L27.4621849,47.5630252 C27.5630252,48.9411765 27.8655462,50.2857143 28.302521,51.5294118 L24.5378151,53.7142857 C24.1680672,53.9495798 24.0336134,54.4201681 24.2352941,54.8235294 L26.8907563,59.394958 C27.1260504,59.7647059 27.5966387,59.8991597 28,59.697479 L32,57.3781513 C32.9411765,58.3193277 34.0168067,59.1596639 35.1596639,59.8655462 L33.6470588,64.0672269 C33.4789916,64.4705882 33.7142857,64.9411765 34.1176471,65.1092437 L39.092437,66.9243697 C39.4957983,67.092437 39.9663866,66.8571429 40.1344538,66.4537815 L41.7478992,62.0504202 C42.2521008,62.0840336 42.7226891,62.1176471 43.2605042,62.1176471 C44.1008403,62.1176471 44.9411765,62.0504202 45.7478992,61.9159664 L47.2941176,66.1512605 C47.4621849,66.5546218 47.8991597,66.789916 48.3361345,66.6218487 L53.3109244,64.8067227 C53.7142857,64.6386555 53.9495798,64.2016807 53.7815126,63.7647059 L52.1680672,59.3277311 C53.2773109,58.5882353 54.2521008,57.6806723 55.1260504,56.7058824 L59.0588235,58.9579832 C59.4285714,59.1932773 59.9327731,59.0588235 60.1680672,58.6554622 L62.8235294,54.0840336 C63.0588235,53.7142857 62.9243697,53.210084 62.5210084,52.9747899 L58.4537815,50.6218487 C58.8235294,49.3781513 59.0252101,48.0672269 59.0588235,46.6890756 L63.4957983,45.9159664 C63.7983193,45.8823529 64.1008403,45.4453782 64.0336134,45.0084034 Z M43.1932773,56.4369748 C37.6134454,56.4369748 33.1092437,51.9327731 33.1092437,46.3529412 C33.1092437,40.7731092 37.6134454,36.2689076 43.1932773,36.2689076 C48.7731092,36.2689076 53.2773109,40.7731092 53.2773109,46.3529412 C53.2773109,51.9327731 48.7731092,56.4369748 43.1932773,56.4369748 Z" id="Shape" fill="#EFA53A"></path>
        </g>
    </g>
</svg>