<?xml version="1.0" encoding="UTF-8"?>
<svg width="80px" height="80px" viewBox="0 0 80 80" version="1.1" xmlns="http://www.w3.org/2000/svg" xmlns:xlink="http://www.w3.org/1999/xlink">
    <!-- Generator: Sketch 64 (93537) - https://sketch.com -->
    <title>08.future.illustration02</title>
    <desc>Created with Sketch.</desc>
    <defs>
        <circle id="path-1" cx="40" cy="40" r="39.7983193"></circle>
    </defs>
    <g id="08.future.illustration02" stroke="none" stroke-width="1" fill="none" fill-rule="evenodd">
        <g id="family">
            <mask id="mask-2" fill="white">
                <use xlink:href="#path-1"></use>
            </mask>
            <use id="Mask" fill="#CED2D6" fill-rule="nonzero" xlink:href="#path-1"></use>
            <g mask="url(#mask-2)">
                <circle id="Oval" fill="#CED2D6" fill-rule="nonzero" cx="40" cy="40" r="39.7983193"></circle>
                <text id="+" fill="#EFA53A" font-family="Helvetica" font-size="29.5323361" font-weight="normal">
                    <tspan x="54.2058151" y="47.8198992">+</tspan>
                </text>
                <path d="M30.9579832,25.210084 C30.9579832,25.210084 28.2016807,25.3109244 26.6554622,27.4285714 C25.3781513,29.210084 30.2857143,39.092437 32.4033613,46.5882353 C33.7142857,51.2605042 32.5378151,55.092437 32.5378151,55.092437 L18.6218487,61.3445378 C18.6218487,61.3445378 15.5966387,55.5294118 18.3865546,50.2521008 C20.1680672,46.9243697 21.9159664,44.5042017 20.4033613,41.210084 C18.7563025,37.5798319 20.6386555,34.4537815 22.0504202,33.1764706 C22.7226891,32.5714286 23.6638655,31.8655462 23.5294118,29.4453782 C23.2605042,24.907563 26.6554622,22.9243697 27.3613445,22.2521008 C28.5042017,21.1764706 29.6470588,18.7563025 33.5798319,19.5294118" id="Path" fill="#F47658" fill-rule="nonzero"></path>
                <path d="M49.5462185,28.9747899 C49.7815126,31.394958 50.1848739,32.3697479 50.8571429,33.0420168 C53.3445378,35.5630252 54.5210084,37.7478992 53.8487395,40.907563 C53.0084034,44.7731092 54.5882353,44.2352941 56.907563,47.7310924 C59.2268908,51.2268908 59.193304,59.092437 59.193304,59.092437 L34.487395,55.0588235 C34.487395,55.0588235 44.5714286,29.512605 41.3445378,26.5882353 C38.9579832,24.4705882 30.9915966,25.1764706 30.9915966,25.1764706 L33.6134454,19.4957983 C33.6134454,19.4957983 39.1260504,16.9747899 42.9579832,21.1764706 C42.9579832,21.1764706 44.4369748,22.8907563 45.3781513,23.2605042 C46.3193277,23.6302521 49.1764706,25.3445378 49.5462185,28.9747899 Z" id="Path" fill="#F27658" fill-rule="nonzero"></path>
                <path d="M44.7731092,55.3613445 L32.2016807,55.5294118 C32.2016807,55.5294118 32.9747899,48.6386555 30.9243697,47.7310924 C27.8319328,46.3529412 26.6218487,44.5714286 26.4201681,43.1596639 C25.1764706,34.6218487 26.5210084,24.8403361 26.5210084,24.8403361 C26.5210084,24.8403361 34.4537815,22.2521008 42.5546218,26.0840336 L44.8067227,55.1932773" id="Path" fill="#FFDFC8" fill-rule="nonzero"></path>
                <circle id="Oval" fill="#2E968B" fill-rule="nonzero" cx="28.1008403" cy="33.4117647" r="1"></circle>
                <circle id="Oval" fill="#2E968B" fill-rule="nonzero" cx="35.8991597" cy="33.4453782" r="1"></circle>
                <path d="M34.0840336,31.8655462 C34.0840336,31.8655462 35.697479,30.1176471 37.7142857,31.8655462" id="Path" stroke="#F27658" stroke-width="0.808436975" stroke-linecap="round"></path>
                <path d="M26.6554622,32.1008403 C26.6554622,32.1008403 28.2689076,30.3529412 30.2857143,32.1008403" id="Path" stroke="#F27658" stroke-width="0.808436975" stroke-linecap="round"></path>
                <path d="M30.9243697,40.9747899 C30.9243697,40.9747899 32.4705882,42.3529412 33.9831933,40.2352941" id="Path" stroke="#5D4037" stroke-width="0.504201681" stroke-linecap="round"></path>
                <path d="M30.9579832,22.8571429 C30.9579832,22.8571429 39.0588235,33.4453782 43.6302521,34.6218487 L43.6638655,25.2773109 L30.9579832,22.8571429 Z" id="Path" fill="#F27658" fill-rule="nonzero"></path>
                <path d="M31.5630252,33.210084 C31.5630252,33.210084 31.1260504,36.302521 30.4537815,37.4453782 C29.7815126,38.5882353 31.2941176,38.6218487 32,38.4537815" id="Path" stroke="#5D4037" stroke-width="0.504201681" stroke-linecap="round"></path>
                <circle id="Oval" fill="#FFDFC8" fill-rule="nonzero" cx="44.3697479" cy="38.4201681" r="4.26890756"></circle>
                <path d="M44.1344538,35.2605042 C46.0168067,35.2605042 47.5294118,36.7731092 47.5294118,38.6554622" id="Path" stroke="#5D4037" stroke-width="0.504201681" stroke-linecap="round"></path>
                <path d="M10.4201681,73.4117647 C10.4201681,73.4117647 14.8571429,51.9327731 38.5210084,51.1596639 C38.5210084,51.1596639 68.2352941,48.605042 69.9495798,73.4117647 C69.9495798,73.4117647 64.5042017,88.2689076 37.8487395,88.5378151 C11.1932773,88.8403361 10.4201681,73.4117647 10.4201681,73.4117647 Z" id="Path" fill="#2E998E" fill-rule="nonzero"></path>
                <path d="M24.605042,30.0168067 C24.605042,30.0168067 31.4285714,25.8151261 33.512605,22.8571429 L25.3445378,24.5714286 L24.605042,30.0168067 Z" id="Path" fill="#F27658" fill-rule="nonzero"></path>
                <path d="M44.4369748,51.4285714 C44.605042,52.907563 41.8151261,54.2521008 38.487395,54.3865546 C35.1596639,54.5210084 32.3697479,53.4453782 32.302521,51.9327731 C32.2352941,50.4201681 34.9243697,49.1764706 38.2521008,48.9747899 C41.6134454,48.7731092 43.3613445,41.8487395 44.4369748,51.4285714 Z" id="Path" fill="#FFDFC8" fill-rule="nonzero"></path>
            </g>
        </g>
    </g>
</svg>