<?xml version="1.0" encoding="UTF-8"?>
<svg width="1440px" height="96px" viewBox="0 0 1440 96" version="1.1" xmlns="http://www.w3.org/2000/svg" xmlns:xlink="http://www.w3.org/1999/xlink">
    <title>Ground 2</title>
    <g id="Ground-2" stroke="none" stroke-width="1" fill="none" fill-rule="evenodd">
        <g id="ground-2">
            <path d="M1440,16.1197874 C1376.134,12.872847 1344.138,43.0567194 1275.684,27.4513034 C1237.619,18.7738589 1194.353,40.948903 1117.875,38.9925814 C1075.893,37.919008 1037.701,62.3941504 988.679,46.8382615 C955.427,36.2875261 901.952,47.5913652 887.866,39.9190301 C818.39,2.07738928 633.617,52.7232499 597.265,33.3843622 C565.725,29.1847529 526.42,12.7228089 486.498,14.2770868 C460.141,15.3040464 438.98,33.4805031 418.362,28.7462922 C393.776,7.75698576 277.874,35.3843843 223.912,0.0205567017 C223.912,0.0205567017 51.492,-1.24675516 0,16.1197874 L0,96 L1440,96 L1440,16.1197874 Z" id="Fill-1" fill="#CFE5E3" transform="translate(720.000000, 48.000000) scale(-1, 1) translate(-720.000000, -48.000000) "></path>
            <path d="M164.9986,64.9982 C164.9986,66.3782 163.8796,67.4972 162.4986,67.4972 C161.1186,67.4972 159.9996,66.3782 159.9996,64.9982 C159.9996,63.6182 161.1186,62.4992 162.4986,62.4992 C163.8796,62.4992 164.9986,63.6182 164.9986,64.9982" id="Fill-1" fill="#B2D3D0"></path>
            <path d="M413.4151,62.4992 C413.4151,63.8792 412.2961,64.9982 410.9161,64.9982 C409.5361,64.9982 408.4171,63.8792 408.4171,62.4992 C408.4171,61.1192 409.5361,59.9992 410.9161,59.9992 C412.2961,59.9992 413.4151,61.1192 413.4151,62.4992" id="Fill-4" fill="#B2D3D0"></path>
            <path d="M170.8878,69.0979 C170.8878,69.0979 167.9978,69.2569 168.1358,72.4959 C168.2728,75.7349 172.8148,76.5609 175.1548,74.7719 C177.4938,72.9819 175.7828,68.4409 170.8878,69.0979" id="Fill-7" fill="#B2D3D0"></path>
            <path d="M345.1241,89.9558 C345.1241,89.9558 343.8791,90.0238 343.9391,91.4188 C343.9981,92.8128 345.9541,93.1688 346.9601,92.3978 C347.9681,91.6278 347.2311,89.6728 345.1241,89.9558" id="Fill-9" fill="#B2D3D0"></path>
            <path d="M215.88,81.3991 C215.88,81.3991 214.884,78.7811 219.13,78.0631 C220.083,77.9021 222.544,77.9001 222.544,80.7251 C222.544,83.5491 216.532,84.1641 215.88,81.3991" id="Fill-11" fill="#B2D3D0"></path>
            <path d="M280.7179,72.3654 C280.7179,72.3654 277.8009,72.9824 278.3849,75.6984 C278.9679,78.4124 282.4809,77.6994 283.1209,76.4544 C283.5299,75.6584 283.9739,71.9784 280.7179,72.3654" id="Fill-13" fill="#B2D3D0"></path>
            <path d="M46.9122,80.2146 C46.9122,80.2146 43.9952,80.8316 44.5782,83.5466 C45.1622,86.2616 48.6742,85.5486 49.3142,84.3026 C49.7232,83.5076 50.1672,79.8266 46.9122,80.2146" id="Fill-15" fill="#B2D3D0"></path>
            <path d="M479.9928,72.3596 C479.9928,72.3596 477.6938,72.8456 478.1538,74.9856 C478.6138,77.1256 481.3818,76.5636 481.8868,75.5816 C482.2078,74.9546 482.5578,72.0546 479.9928,72.3596" id="Fill-18" fill="#B2D3D0"></path>
            <path d="M418.0655,78.0392 C419.8605,75.7542 420.3505,74.6122 422.6355,74.9382 C424.9205,75.2652 424.2135,78.7652 423.1255,80.2972 C422.3425,81.3992 419.8475,83.2262 418.0655,81.7932 C418.0655,81.7932 416.2705,80.3242 418.0655,78.0392 Z" id="Fill-20" fill="#B2D3D0"></path>
            <path d="M524.3332,70.3835 C526.3572,73.1865 529.1602,73.4985 531.8072,71.6295 C534.4542,69.7605 529.2252,63.7975 525.8902,65.8835 C525.8902,65.8835 522.3082,67.5805 524.3332,70.3835 Z" id="Fill-22" fill="#B2D3D0"></path>
            <path d="M625.2994,64.9982 C625.2994,66.3782 624.1804,67.4972 622.8004,67.4972 C621.4204,67.4972 620.3004,66.3782 620.3004,64.9982 C620.3004,63.6182 621.4204,62.4992 622.8004,62.4992 C624.1804,62.4992 625.2994,63.6182 625.2994,64.9982" id="Fill-24" fill="#B2D3D0"></path>
            <path d="M873.7164,62.4992 C873.7164,63.8792 872.5974,64.9982 871.2174,64.9982 C869.8364,64.9982 868.7184,63.8792 868.7184,62.4992 C868.7184,61.1192 869.8364,59.9992 871.2174,59.9992 C872.5974,59.9992 873.7164,61.1192 873.7164,62.4992" id="Fill-26" fill="#B2D3D0"></path>
            <path d="M677.1891,44.0979 C677.1891,44.0979 674.2981,44.2569 674.4361,47.4959 C674.5741,50.7349 679.1161,51.5609 681.4551,49.7719 C683.7951,47.9819 682.0831,43.4409 677.1891,44.0979" id="Fill-29" fill="#B2D3D0"></path>
            <path d="M784.4254,57.9558 C784.4254,57.9558 783.1814,58.0238 783.2394,59.4188 C783.2994,60.8128 785.2544,61.1688 786.2624,60.3978 C787.2694,59.6278 786.5314,57.6728 784.4254,57.9558" id="Fill-31" fill="#B2D3D0"></path>
            <path d="M88.1813,58.3991 C88.1813,58.3991 87.1853,55.7811 91.4313,55.0631 C92.3843,54.9021 94.8453,54.9001 94.8453,57.7251 C94.8453,60.5491 88.8333,61.1641 88.1813,58.3991" id="Fill-33" fill="#B2D3D0"></path>
            <path d="M741.0192,57.3654 C741.0192,57.3654 738.1022,57.9824 738.6852,60.6984 C739.2692,63.4124 742.7822,62.6994 743.4212,61.4544 C743.8312,60.6584 744.2752,56.9784 741.0192,57.3654" id="Fill-35" fill="#B2D3D0"></path>
            <path d="M1203.8033,41.9982 C1203.8033,43.3782 1204.9223,44.4972 1206.3033,44.4972 C1207.6833,44.4972 1208.8023,43.3782 1208.8023,41.9982 C1208.8023,40.6182 1207.6833,39.4992 1206.3033,39.4992 C1204.9223,39.4992 1203.8033,40.6182 1203.8033,41.9982" id="Fill-37" fill="#B2D3D0"></path>
            <path d="M1197.9147,46.0979 C1197.9147,46.0979 1200.8047,46.2569 1200.6667,49.4959 C1200.5297,52.7349 1195.9877,53.5609 1193.6477,51.7719 C1191.3087,49.9819 1193.0197,45.4409 1197.9147,46.0979" id="Fill-40" fill="#B2D3D0"></path>
            <path d="M1146.9225,56.3991 C1146.9225,56.3991 1147.9175,53.7811 1143.6725,53.0631 C1142.7195,52.9021 1140.2585,52.9001 1140.2585,55.7251 C1140.2585,58.5491 1146.2705,59.1641 1146.9225,56.3991" id="Fill-42" fill="#B2D3D0"></path>
            <path d="M1080.0846,71.3654 C1080.0846,71.3654 1083.0016,71.9824 1082.4176,74.6984 C1081.8346,77.4124 1078.3216,76.6994 1077.6816,75.4544 C1077.2726,74.6584 1076.8286,70.9784 1080.0846,71.3654" id="Fill-44" fill="#B2D3D0"></path>
            <path d="M1346.0846,54.3654 C1346.0846,54.3654 1349.0016,54.9824 1348.4176,57.6984 C1347.8346,60.4124 1344.3216,59.6994 1343.6816,58.4544 C1343.2726,57.6584 1342.8286,53.9784 1346.0846,54.3654" id="Fill-44-Copy" fill="#B2D3D0"></path>
            <path d="M826.2135,63.2146 C826.2135,63.2146 823.2955,63.8316 823.8795,66.5466 C824.4625,69.2616 827.9755,68.5486 828.6155,67.3026 C829.0245,66.5076 829.4685,62.8266 826.2135,63.2146" id="Fill-46" fill="#B2D3D0"></path>
            <path d="M939.2936,42.3596 C939.2936,42.3596 936.9946,42.8456 937.4546,44.9856 C937.9146,47.1256 940.6836,46.5636 941.1876,45.5816 C941.5096,44.9546 941.8596,42.0546 939.2936,42.3596" id="Fill-49" fill="#B2D3D0"></path>
            <path d="M874.3668,72.7932 C874.3668,72.7932 872.5708,71.3242 874.3668,69.0392 C876.1618,66.7542 876.6518,65.6122 878.9368,65.9382 C881.2218,66.2652 880.5138,69.7652 879.4268,71.2972 C878.6428,72.3992 876.1488,74.2262 874.3668,72.7932" id="Fill-51" fill="#B2D3D0"></path>
            <path d="M1386.3668,51.7932 C1386.3668,51.7932 1384.5708,50.3242 1386.3668,48.0392 C1388.1618,45.7542 1388.6518,44.6122 1390.9368,44.9382 C1393.2218,45.2652 1392.5138,48.7652 1391.4268,50.2972 C1390.6428,51.3992 1388.1488,53.2262 1386.3668,51.7932" id="Fill-51-Copy" fill="#B2D3D0"></path>
            <path d="M986.191,65.8835 C986.191,65.8835 982.61,67.5805 984.634,70.3835 C986.659,73.1865 989.462,73.4985 992.109,71.6295 C994.756,69.7605 989.526,63.7975 986.191,65.8835" id="Fill-53" fill="#B2D3D0"></path>
            <path d="M1252.191,48.8835 C1252.191,48.8835 1248.61,50.5805 1250.634,53.3835 C1252.659,56.1865 1255.462,56.4985 1258.109,54.6295 C1260.756,52.7605 1255.526,46.7975 1252.191,48.8835" id="Fill-53-Copy" fill="#B2D3D0"></path>
        </g>
    </g>
</svg>