<?xml version="1.0" encoding="UTF-8"?>
<svg width="1440px" height="96px" viewBox="0 0 1440 96" version="1.1" xmlns="http://www.w3.org/2000/svg" xmlns:xlink="http://www.w3.org/1999/xlink">
    <title>ground 1</title>
    <defs>
        <filter color-interpolation-filters="auto" id="filter-1">
            <feColorMatrix in="SourceGraphic" type="matrix" values="0 0 0 0 0.929412 0 0 0 0 0.858824 0 0 0 0 0.768627 0 0 0 1.000000 0"></feColorMatrix>
        </filter>
        <polygon id="path-2" points="0 0 4.9986 0 4.9986 4.998 0 4.998"></polygon>
        <polygon id="path-4" points="0 -7.10542736e-15 4.998 -7.10542736e-15 4.998 4.9982 0 4.9982"></polygon>
        <polygon id="path-6" points="0 3.55271368e-15 5.09560202 3.55271368e-15 5.09560202 5.22395234 0 5.22395234"></polygon>
        <polygon id="path-8" points="0 -7.10542736e-15 4.998 -7.10542736e-15 4.998 4.9982 0 4.9982"></polygon>
        <polygon id="path-10" points="0 0 4.9987 0 4.9987 4.998 0 4.998"></polygon>
        <polygon id="path-12" points="0 0 5.09582742 0 5.09582742 5.22395234 0 5.22395234"></polygon>
    </defs>
    <g id="Page-1" stroke="none" stroke-width="1" fill="none" fill-rule="evenodd">
        <g id="Landing-app-promotion-desktop" transform="translate(0.000000, -680.000000)">
            <g id="1.-Intro" transform="translate(0.000000, 72.000000)">
                <g id="ground-1" transform="translate(0.000000, 608.000000)">
                    <path d="M0,25.4625803 C63.865,23.3155836 7.917,27.0022918 76.37,16.6880428 C114.435,10.9527697 124.214,27.8784205 200.692,26.5863714 C242.674,25.8768034 246.007,39.5559641 284.501,36.4298215 C319.06,33.6223586 357.238,41.8858888 390.049,30.0725933 C406.176,14.885721 439.946,34.0219118 445.656,31.8999474 C505.335,9.72233847 631.202,33.1900709 671.434,26.056843 C688.461,23.0385316 713.285,24.6916227 732.599,26.7692993 C773.157,31.9991136 897.714,19.4069301 937.637,20.434215 C963.993,21.1120113 1001.02,31.8729896 1021.639,28.7439586 C1048.965,25.5937464 1080.182,19.3173917 1209.071,1.05925512 C1252.363,-5.07268285 1281.498,17.470782 1326.201,16.2971547 C1326.201,16.2971547 1363.338,14.3792994 1370.233,11.9155485 C1399.855,1.33075873 1404.139,19.0918732 1440,25.4625803 L1440,96 L0,96 L0,25.4625803 Z" id="Fill-1-Copy" fill="#FAF3E8"></path>
                    <g filter="url(#filter-1)" id="Group-55">
                        <g transform="translate(44.501156, 14.499200)">
                            <g id="Group-3" transform="translate(115.498844, 23.000000)">
                                <mask id="mask-3" fill="white">
                                    <use xlink:href="#path-2"></use>
                                </mask>
                                <g id="Clip-2"></g>
                                <path d="M4.9986,2.499 C4.9986,3.879 3.8796,4.998 2.4986,4.998 C1.1186,4.998 -0.0004,3.879 -0.0004,2.499 C-0.0004,1.119 1.1186,0 2.4986,0 C3.8796,0 4.9986,1.119 4.9986,2.499" id="Fill-1" fill="#DAB888" mask="url(#mask-3)"></path>
                            </g>
                            <g id="Group-6" transform="translate(363.915944, 20.500800)">
                                <mask id="mask-5" fill="white">
                                    <use xlink:href="#path-4"></use>
                                </mask>
                                <g id="Clip-5"></g>
                                <path d="M4.998,2.4992 C4.998,3.8792 3.879,4.9982 2.499,4.9982 C1.119,4.9982 0,3.8792 0,2.4992 C0,1.1192 1.119,-0.0008 2.499,-0.0008 C3.879,-0.0008 4.998,1.1192 4.998,2.4992" id="Fill-4" fill="#DAB888" mask="url(#mask-5)"></path>
                            </g>
                            <path d="M126.386644,29.5987 C126.386644,29.5987 123.496644,29.7577 123.634644,32.9967 C123.771644,36.2357 128.313644,37.0617 130.653644,35.2727 C132.992644,33.4827 131.281644,28.9417 126.386644,29.5987" id="Fill-7" fill="#DAB888"></path>
                            <path d="M300.622944,50.4566 C300.622944,50.4566 299.377944,50.5246 299.437944,51.9196 C299.496944,53.3136 301.452944,53.6696 302.458944,52.8986 C303.466944,52.1286 302.729944,50.1736 300.622944,50.4566" id="Fill-9" fill="#DAB888"></path>
                            <path d="M171.378844,41.8999 C171.378844,41.8999 170.382844,39.2819 174.628844,38.5639 C175.581844,38.4029 178.042844,38.4009 178.042844,41.2259 C178.042844,44.0499 172.030844,44.6649 171.378844,41.8999" id="Fill-11" fill="#DAB888"></path>
                            <path d="M236.216744,32.8662 C236.216744,32.8662 233.299744,33.4832 233.883744,36.1992 C234.466744,38.9132 237.979744,38.2002 238.619744,36.9552 C239.028744,36.1592 239.472744,32.4792 236.216744,32.8662" id="Fill-13" fill="#DAB888"></path>
                            <g id="Group-17" transform="translate(0.000000, 40.686848)">
                                <mask id="mask-7" fill="white">
                                    <use xlink:href="#path-6"></use>
                                </mask>
                                <g id="Clip-16"></g>
                                <path d="M2.41104436,0.028552336 C2.41104436,0.028552336 -0.505955644,0.645552336 0.0770443557,3.36055234 C0.661044356,6.07555234 4.17304436,5.36255234 4.81304436,4.11655234 C5.22204436,3.32155234 5.66604436,-0.359447664 2.41104436,0.028552336" id="Fill-15" fill="#DAB888" mask="url(#mask-7)"></path>
                            </g>
                            <path d="M435.491644,32.8604 C435.491644,32.8604 433.192644,33.3464 433.652644,35.4864 C434.112644,37.6264 436.880644,37.0644 437.385644,36.0824 C437.706644,35.4554 438.056644,32.5554 435.491644,32.8604" id="Fill-18" fill="#DAB888"></path>
                            <path d="M373.564344,38.54 C375.359344,36.255 375.849344,35.113 378.134344,35.439 C380.419344,35.766 379.712344,39.266 378.624344,40.798 C377.841344,41.9 375.346344,43.727 373.564344,42.294 C373.564344,42.294 371.769344,40.825 373.564344,38.54 Z" id="Fill-20" fill="#DAB888"></path>
                            <path d="M479.832044,30.8843 C481.856044,33.6873 484.659044,33.9993 487.306044,32.1303 C489.953044,30.2613 484.724044,24.2983 481.389044,26.3843 C481.389044,26.3843 477.807044,28.0813 479.832044,30.8843 Z" id="Fill-22" fill="#DAB888"></path>
                            <path d="M580.798244,25.499 C580.798244,26.879 579.679244,27.998 578.299244,27.998 C576.919244,27.998 575.799244,26.879 575.799244,25.499 C575.799244,24.119 576.919244,23 578.299244,23 C579.679244,23 580.798244,24.119 580.798244,25.499" id="Fill-24" fill="#DAB888"></path>
                            <g id="Group-28" transform="translate(824.217244, 20.500800)">
                                <mask id="mask-9" fill="white">
                                    <use xlink:href="#path-8"></use>
                                </mask>
                                <g id="Clip-27"></g>
                                <path d="M4.998,2.4992 C4.998,3.8792 3.879,4.9982 2.499,4.9982 C1.118,4.9982 0,3.8792 0,2.4992 C0,1.1192 1.118,-0.0008 2.499,-0.0008 C3.879,-0.0008 4.998,1.1192 4.998,2.4992" id="Fill-26" fill="#DAB888" mask="url(#mask-9)"></path>
                            </g>
                            <path d="M632.687944,34.5987 C632.687944,34.5987 629.796944,34.7577 629.934944,37.9967 C630.072944,41.2357 634.614944,42.0617 636.953944,40.2727 C639.293944,38.4827 637.581944,33.9417 632.687944,34.5987" id="Fill-29" fill="#DAB888"></path>
                            <path d="M739.924244,48.4566 C739.924244,48.4566 738.680244,48.5246 738.738244,49.9196 C738.798244,51.3136 740.753244,51.6696 741.761244,50.8986 C742.768244,50.1286 742.030244,48.1736 739.924244,48.4566" id="Fill-31" fill="#DAB888"></path>
                            <path d="M43.6801444,18.8999 C43.6801444,18.8999 42.6841444,16.2819 46.9301444,15.5639 C47.8831444,15.4029 50.3441444,15.4009 50.3441444,18.2259 C50.3441444,21.0499 44.3321444,21.6649 43.6801444,18.8999" id="Fill-33" fill="#DAB888"></path>
                            <path d="M696.518044,47.8662 C696.518044,47.8662 693.601044,48.4832 694.184044,51.1992 C694.768044,53.9132 698.281044,53.2002 698.920044,51.9552 C699.330044,51.1592 699.774044,47.4792 696.518044,47.8662" id="Fill-35" fill="#DAB888"></path>
                            <g id="Group-39" transform="translate(1159.302144, 0.000000)">
                                <mask id="mask-11" fill="white">
                                    <use xlink:href="#path-10"></use>
                                </mask>
                                <g id="Clip-38"></g>
                                <path d="M0,2.499 C0,3.879 1.119,4.998 2.5,4.998 C3.88,4.998 4.999,3.879 4.999,2.499 C4.999,1.119 3.88,0 2.5,0 C1.119,0 0,1.119 0,2.499" id="Fill-37" fill="#DAB888" mask="url(#mask-11)"></path>
                            </g>
                            <path d="M1153.41354,6.5987 C1153.41354,6.5987 1156.30354,6.7577 1156.16554,9.9967 C1156.02854,13.2357 1151.48654,14.0617 1149.14654,12.2727 C1146.80754,10.4827 1148.51854,5.9417 1153.41354,6.5987" id="Fill-40" fill="#DAB888"></path>
                            <path d="M1102.42134,16.8999 C1102.42134,16.8999 1103.41634,14.2819 1099.17134,13.5639 C1098.21834,13.4029 1095.75734,13.4009 1095.75734,16.2259 C1095.75734,19.0499 1101.76934,19.6649 1102.42134,16.8999" id="Fill-42" fill="#DAB888"></path>
                            <path d="M1035.58344,31.8662 C1035.58344,31.8662 1038.50044,32.4832 1037.91644,35.1992 C1037.33344,37.9132 1033.82044,37.2002 1033.18044,35.9552 C1032.77144,35.1592 1032.32744,31.4792 1035.58344,31.8662" id="Fill-44" fill="#DAB888"></path>
                            <path d="M1301.58344,14.8662 C1301.58344,14.8662 1304.50044,15.4832 1303.91644,18.1992 C1303.33344,20.9132 1299.82044,20.2002 1299.18044,18.9552 C1298.77144,18.1592 1298.32744,14.4792 1301.58344,14.8662" id="Fill-44-Copy" fill="#DAB888"></path>
                            <g id="Group-48" transform="translate(779.301075, 23.686848)">
                                <mask id="mask-13" fill="white">
                                    <use xlink:href="#path-12"></use>
                                </mask>
                                <g id="Clip-47"></g>
                                <path d="M2.41126975,0.028552336 C2.41126975,0.028552336 -0.50673025,0.645552336 0.0772697501,3.36055234 C0.66026975,6.07555234 4.17326975,5.36255234 4.81326975,4.11655234 C5.22226975,3.32155234 5.66626975,-0.359447664 2.41126975,0.028552336" id="Fill-46" fill="#DAB888" mask="url(#mask-13)"></path>
                            </g>
                            <path d="M895.792444,32.8604 C895.792444,32.8604 893.493444,33.3464 893.953444,35.4864 C894.413444,37.6264 897.182444,37.0644 897.686444,36.0824 C898.008444,35.4554 898.358444,32.5554 895.792444,32.8604" id="Fill-49" fill="#DAB888"></path>
                            <path d="M829.865644,33.294 C829.865644,33.294 828.069644,31.825 829.865644,29.54 C831.660644,27.255 832.150644,26.113 834.435644,26.439 C836.720644,26.766 836.012644,30.266 834.925644,31.798 C834.141644,32.9 831.647644,34.727 829.865644,33.294" id="Fill-51" fill="#DAB888"></path>
                            <path d="M1341.86564,12.294 C1341.86564,12.294 1340.06964,10.825 1341.86564,8.54 C1343.66064,6.255 1344.15064,5.113 1346.43564,5.439 C1348.72064,5.766 1348.01264,9.266 1346.92564,10.798 C1346.14164,11.9 1343.64764,13.727 1341.86564,12.294" id="Fill-51-Copy" fill="#DAB888"></path>
                            <path d="M941.689844,26.3843 C941.689844,26.3843 938.108844,28.0813 940.132844,30.8843 C942.157844,33.6873 944.960844,33.9993 947.607844,32.1303 C950.254844,30.2613 945.024844,24.2983 941.689844,26.3843" id="Fill-53" fill="#DAB888"></path>
                            <path d="M1207.68984,9.3843 C1207.68984,9.3843 1204.10884,11.0813 1206.13284,13.8843 C1208.15784,16.6873 1210.96084,16.9993 1213.60784,15.1303 C1216.25484,13.2613 1211.02484,7.2983 1207.68984,9.3843" id="Fill-53-Copy" fill="#DAB888"></path>
                        </g>
                    </g>
                </g>
            </g>
        </g>
    </g>
</svg>