<?xml version="1.0" encoding="UTF-8"?>
<svg width="1440px" height="96px" viewBox="0 0 1440 96" version="1.1" xmlns="http://www.w3.org/2000/svg" xmlns:xlink="http://www.w3.org/1999/xlink">
    <title>Ground 3</title>
    <g id="Ground-3" stroke="none" stroke-width="1" fill="none" fill-rule="evenodd">
        <path d="M0,18.4082323 C41.533,16.8594079 87.755,-9.31393783 122.879,3.53916805 C140.081,9.83487204 194.796,11.2480408 203.465,13.8917237 C235.801,23.7529282 266.59,15.5452272 306.829,16.4350001 C359.349,17.5971525 362.064,32.4487759 401.502,25.7792177 C435.459,20.0368179 491.208,41.7470628 524.019,28.6408043 C547.727,15.8923775 546.083,23.2914854 551.793,20.9372723 C611.472,-3.66874008 781.745,67.5494085 822.223,29.5583492 C834.977,17.5875391 956.04,23.5232749 1007.89,14.7943145 C1035.216,11.2993122 1087.763,28.7796644 1206.591,14.7943145 C1250.286,9.65114943 1332.524,31.0847423 1332.524,31.0847423 C1378.032,29.9941563 1404.139,11.3402524 1440,18.4082323 L1440,96 L0,96 L0,18.4082323 Z" id="Fill-1" fill="#FAF3E8"></path>
        <path d="M166.497444,32.499 C166.497444,33.879 165.378444,34.998 163.997444,34.998 C162.617444,34.998 161.498444,33.879 161.498444,32.499 C161.498444,31.119 162.617444,30 163.997444,30 C165.378444,30 166.497444,31.119 166.497444,32.499" id="Fill-1" fill="#EDDBC4"></path>
        <path d="M414.913944,48 C414.913944,49.38 413.794944,50.499 412.414944,50.499 C411.034944,50.499 409.915944,49.38 409.915944,48 C409.915944,46.62 411.034944,45.5 412.414944,45.5 C413.794944,45.5 414.913944,46.62 414.913944,48" id="Fill-4" fill="#EDDBC4"></path>
        <path d="M172.386644,36.5987 C172.386644,36.5987 169.496644,36.7577 169.634644,39.9967 C169.771644,43.2357 174.313644,44.0617 176.653644,42.2727 C178.992644,40.4827 177.281644,35.9417 172.386644,36.5987" id="Fill-7" fill="#EDDBC4"></path>
        <path d="M346.622944,41.4566 C346.622944,41.4566 345.377944,41.5246 345.437944,42.9196 C345.496944,44.3136 347.452944,44.6696 348.458944,43.8986 C349.466944,43.1286 348.729944,41.1736 346.622944,41.4566" id="Fill-9" fill="#EDDBC4"></path>
        <path d="M217.378844,48.8999 C217.378844,48.8999 216.382844,46.2819 220.628844,45.5639 C221.581844,45.4029 224.042844,45.4009 224.042844,48.2259 C224.042844,51.0499 218.030844,51.6649 217.378844,48.8999" id="Fill-11" fill="#EDDBC4"></path>
        <path d="M281.216744,35.8662 C281.216744,35.8662 278.299744,36.4832 278.883744,39.1992 C279.466744,41.9132 282.979744,41.2002 283.619744,39.9552 C284.028744,39.1592 284.472744,35.4792 281.216744,35.8662" id="Fill-13" fill="#EDDBC4"></path>
        <path d="M33.4110444,40.7154 C33.4110444,40.7154 30.4940444,41.3324 31.0770444,44.0474 C31.6610444,46.7624 35.1730444,46.0494 35.8130444,44.8034 C36.2220444,44.0084 36.6660444,40.3274 33.4110444,40.7154" id="Fill-15" fill="#EDDBC4"></path>
        <path d="M481.491644,57.8604 C481.491644,57.8604 479.192644,58.3464 479.652644,60.4864 C480.112644,62.6264 482.880644,62.0644 483.385644,61.0824 C483.706644,60.4554 484.056644,57.5554 481.491644,57.8604" id="Fill-18" fill="#EDDBC4"></path>
        <path d="M419.564344,63.54 C421.359344,61.255 421.849344,60.113 424.134344,60.439 C426.419344,60.766 425.712344,64.266 424.624344,65.798 C423.841344,66.9 421.346344,68.727 419.564344,67.294 C419.564344,67.294 417.769344,65.825 419.564344,63.54 Z" id="Fill-20" fill="#EDDBC4"></path>
        <path d="M525.832044,55.8843 C527.856044,58.6873 530.659044,58.9993 533.306044,57.1303 C535.953044,55.2613 530.724044,49.2983 527.389044,51.3843 C527.389044,51.3843 523.807044,53.0813 525.832044,55.8843 Z" id="Fill-22" fill="#EDDBC4"></path>
        <path d="M626.798244,50.499 C626.798244,51.879 625.679244,52.998 624.299244,52.998 C622.919244,52.998 621.799244,51.879 621.799244,50.499 C621.799244,49.119 622.919244,48 624.299244,48 C625.679244,48 626.798244,49.119 626.798244,50.499" id="Fill-24" fill="#EDDBC4"></path>
        <path d="M875.215244,48 C875.215244,49.38 874.096244,50.499 872.716244,50.499 C871.335244,50.499 870.217244,49.38 870.217244,48 C870.217244,46.62 871.335244,45.5 872.716244,45.5 C874.096244,45.5 875.215244,46.62 875.215244,48" id="Fill-26" fill="#EDDBC4"></path>
        <path d="M678.687944,59.5987 C678.687944,59.5987 675.796944,59.7577 675.934944,62.9967 C676.072944,66.2357 680.614944,67.0617 682.953944,65.2727 C685.293944,63.4827 683.581944,58.9417 678.687944,59.5987" id="Fill-29" fill="#EDDBC4"></path>
        <path d="M785.924244,73.4566 C785.924244,73.4566 784.680244,73.5246 784.738244,74.9196 C784.798244,76.3136 786.753244,76.6696 787.761244,75.8986 C788.768244,75.1286 788.030244,73.1736 785.924244,73.4566" id="Fill-31" fill="#EDDBC4"></path>
        <path d="M89.6801444,25.8999 C89.6801444,25.8999 88.6841444,23.2819 92.9301444,22.5639 C93.8831444,22.4029 96.3441444,22.4009 96.3441444,25.2259 C96.3441444,28.0499 90.3321444,28.6649 89.6801444,25.8999" id="Fill-33" fill="#EDDBC4"></path>
        <path d="M742.518044,72.8662 C742.518044,72.8662 739.601044,73.4832 740.184044,76.1992 C740.768044,78.9132 744.281044,78.2002 744.920044,76.9552 C745.330044,76.1592 745.774044,72.4792 742.518044,72.8662" id="Fill-35" fill="#EDDBC4"></path>
        <path d="M1205.30214,27.499 C1205.30214,28.879 1206.42114,29.998 1207.80214,29.998 C1209.18214,29.998 1210.30114,28.879 1210.30114,27.499 C1210.30114,26.119 1209.18214,25 1207.80214,25 C1206.42114,25 1205.30214,26.119 1205.30214,27.499" id="Fill-37" fill="#EDDBC4"></path>
        <path d="M1199.41354,31.5987 C1199.41354,31.5987 1202.30354,31.7577 1202.16554,34.9967 C1202.02854,38.2357 1197.48654,39.0617 1195.14654,37.2727 C1192.80754,35.4827 1194.51854,30.9417 1199.41354,31.5987" id="Fill-40" fill="#EDDBC4"></path>
        <path d="M1148.42134,41.8999 C1148.42134,41.8999 1149.41634,39.2819 1145.17134,38.5639 C1144.21834,38.4029 1141.75734,38.4009 1141.75734,41.2259 C1141.75734,44.0499 1147.76934,44.6649 1148.42134,41.8999" id="Fill-42" fill="#EDDBC4"></path>
        <path d="M1081.58344,34.8662 C1081.58344,34.8662 1084.50044,35.4832 1083.91644,38.1992 C1083.33344,40.9132 1079.82044,40.2002 1079.18044,38.9552 C1078.77144,38.1592 1078.32744,34.4792 1081.58344,34.8662" id="Fill-44" fill="#EDDBC4"></path>
        <path d="M1347.58344,39.8662 C1347.58344,39.8662 1350.50044,40.4832 1349.91644,43.1992 C1349.33344,45.9132 1345.82044,45.2002 1345.18044,43.9552 C1344.77144,43.1592 1344.32744,39.4792 1347.58344,39.8662" id="Fill-44-Copy" fill="#EDDBC4"></path>
        <path d="M827.712344,48.7154 C827.712344,48.7154 824.794344,49.3324 825.378344,52.0474 C825.961344,54.7624 829.474344,54.0494 830.114344,52.8034 C830.523344,52.0084 830.967344,48.3274 827.712344,48.7154" id="Fill-46" fill="#EDDBC4"></path>
        <path d="M941.792444,57.8604 C941.792444,57.8604 939.493444,58.3464 939.953444,60.4864 C940.413444,62.6264 943.182444,62.0644 943.686444,61.0824 C944.008444,60.4554 944.358444,57.5554 941.792444,57.8604" id="Fill-49" fill="#EDDBC4"></path>
        <path d="M875.865644,58.294 C875.865644,58.294 874.069644,56.825 875.865644,54.54 C877.660644,52.255 878.150644,51.113 880.435644,51.439 C882.720644,51.766 882.012644,55.266 880.925644,56.798 C880.141644,57.9 877.647644,59.727 875.865644,58.294" id="Fill-51" fill="#EDDBC4"></path>
        <path d="M1387.86564,37.294 C1387.86564,37.294 1386.06964,35.825 1387.86564,33.54 C1389.66064,31.255 1390.15064,30.113 1392.43564,30.439 C1394.72064,30.766 1394.01264,34.266 1392.92564,35.798 C1392.14164,36.9 1389.64764,38.727 1387.86564,37.294" id="Fill-51-Copy" fill="#EDDBC4"></path>
        <path d="M987.689844,29.3843 C987.689844,29.3843 984.108844,31.0813 986.132844,33.8843 C988.157844,36.6873 990.960844,36.9993 993.607844,35.1303 C996.254844,33.2613 991.024844,27.2983 987.689844,29.3843" id="Fill-53" fill="#EDDBC4"></path>
        <path d="M1253.68984,34.3843 C1253.68984,34.3843 1250.10884,36.0813 1252.13284,38.8843 C1254.15784,41.6873 1256.96084,41.9993 1259.60784,40.1303 C1262.25484,38.2613 1257.02484,32.2983 1253.68984,34.3843" id="Fill-53-Copy" fill="#EDDBC4"></path>
    </g>
</svg>