<?xml version="1.0" encoding="utf-8"?>
<!-- Generator: Adobe Illustrator 24.1.2, SVG Export Plug-In . SVG Version: 6.00 Build 0)  -->
<svg version="1.1" id="Capa_1" xmlns="http://www.w3.org/2000/svg" xmlns:xlink="http://www.w3.org/1999/xlink" x="0px" y="0px"
	 viewBox="0 0 108 108" style="enable-background:new 0 0 108 108;" xml:space="preserve">
<style type="text/css">
	.st0{fill:#F3E4D1;}
	.st1{fill:#FFFFFF;}
	.st2{fill:#333333;}
	.st3{fill:#BCD6D4;}
	.st4{fill:#E6A02C;}
	.st5{fill:#5D9A97;}
	.st6{fill:#468080;}
	.st7{fill:#F6EFE4;}
</style>
<g>
	<path class="st0" d="M103.6,107.8H26.3c-2.3,0-4.2-1.9-4.2-4.2V15c0-2.3,1.9-4.2,4.2-4.2h77.3c2.3,0,4.2,1.9,4.2,4.2v88.6
		C107.8,105.9,105.9,107.8,103.6,107.8z"/>
	<path class="st1" d="M100.3,103.5H23c-2.3,0-4.2-1.9-4.2-4.2V10.7c0-2.3,1.9-4.2,4.2-4.2h77.3c2.3,0,4.2,1.9,4.2,4.2v88.6
		C104.4,101.7,102.6,103.5,100.3,103.5z"/>
	<path class="st2" d="M100.1,92.4H23.9c-0.2,0-0.2-0.1-0.2-0.2c0-0.2,0.1-0.2,0.2-0.2h76.3c0.2,0,0.2,0.1,0.2,0.2
		C100.4,92.3,100.3,92.4,100.1,92.4z"/>
	<path class="st2" d="M100.1,97H23.9c-0.2,0-0.2-0.1-0.2-0.2c0-0.2,0.1-0.2,0.2-0.2h76.3c0.2,0,0.2,0.1,0.2,0.2
		C100.4,96.9,100.3,97,100.1,97z"/>
	<path class="st3" d="M99.6,12.6H23.8v73.3h75.9V12.6z"/>
	<path class="st4" d="M66.2,66.1H54v14h12.2V66.1z"/>
	<path class="st5" d="M72.7,26.3c9.4-4,14.6,2.1,14.6,2.1c4.3,4.5,3.8,11.5-2,15.9c0,0,8.7,1.2,6.7,12.1c0,0-3.3,12.2-13.9,8.6
		c0,0,0.9,8.6-7.9,10.7c0,0-7.6,2.3-12-5.7c0,0-2.9,6.7-10.8,4.3c-7.9-2.4-7.8-8.9-7.6-11.1c0,0-8.1,1.9-10.3-7.3
		c-0.8-3.4-0.7-11.4,7.3-12.8c0,0-7.6-5.8-1-14.9c6.1-8.1,14.9-1.5,14.9-1.5s1.5-8.9,12-8.4C71.8,19,72.7,26.3,72.7,26.3z"/>
	<path class="st5" d="M43.1,70.8c0.4,6-4.8,6-4.8,6S37.2,71.7,43.1,70.8z"/>
	<path class="st6" d="M39,36.9c-0.1,0-0.1,0-0.2-0.1c-0.6-0.5-1.4-1.8-0.5-3c0.7-1,1.6-1.1,2.1-1.1c-0.1-0.7-0.1-2.1,1.6-2.9
		c2-0.9,3.4,0.7,3.4,0.7c0.1,0.1,0.1,0.2,0,0.3c-0.1,0.1-0.2,0.1-0.3,0c-0.1-0.1-1.2-1.2-2.9-0.5c-1.8,0.8-1.3,2.5-1.3,2.6
		c0,0.1,0,0.2-0.1,0.2c-0.1,0.1-0.2,0.1-0.2,0.1s-1.1-0.2-2,0.9c-0.8,1.1,0.4,2.3,0.5,2.4c0.1,0.1,0.1,0.2,0,0.3
		C39.1,36.9,39.1,36.9,39,36.9z"/>
	<path class="st6" d="M80.8,60.2c-0.4,0-0.8-0.1-1.3-0.4c-0.1-0.1-0.2-0.2-0.1-0.3c0.1-0.1,0.2-0.2,0.3-0.1c1.3,0.8,2.5-0.2,2.5-0.2
		c1.2-1.2,0.4-2.5,0.3-2.5c-0.1-0.1-0.1-0.2,0.1-0.3c0.1-0.1,0.2-0.1,0.3,0.1c0,0,1.1,1.6-0.4,3.1C82.5,59.6,81.8,60.2,80.8,60.2z"
		/>
	<path class="st5" d="M95,26.9c-2,5.7-6.7,3.7-6.7,3.7S89,25.4,95,26.9z"/>
	<g>
		<path class="st7" d="M2.1,9.5L7.7,34L21,31l6.3,4.6l3.3-6.8l13.3-3L38.3,1.2L2.1,9.5z"/>
		<path class="st4" d="M25,9.9c0,0-4.1,0.1-3.6,4c-1.2-3.7-5-2.1-5-2.1c-4.1,1.9-2.2,6.7-2.2,6.7c1.6,6.9,9.9,6.9,9.9,6.9
			s7.6-3.9,6-11C30,14.4,29.5,9.4,25,9.9z"/>
	</g>
</g>
</svg>
