<svg xmlns="http://www.w3.org/2000/svg" viewBox="0 0 316.84 193.01">
    <defs>
        <style>.cls-21{fill:#333;}.cls-22{fill:#fdddca;}.cls-23{fill:#64b2ae;}.cls-24{fill:#edb65f;}.cls-25{fill:#fff;}</style>
    </defs>
    <title>Recurso 1</title>
    <g id="Capa_2" data-name="Capa 2">
        <g id="Capa_1-2" data-name="Capa 1">
            <g id="Capa_2-2" data-name="Capa 2">
                <g id="Capa_1-2-2" data-name="Capa 1-2">
                    <g id="Adopta">
                        <g id="Capa_1-2-2-2" data-name="Capa 1-2-2">
                            <g id="Adopta-2">
                                <path class="cls-21" d="M249.36,183.76c-15.17,0-27.88-1.1-41.08-2.23-22.36-1.9-45.5-3.91-84.26-1.21a1.78,1.78,0,0,1-.32-3.55h.06C162.82,174,186.1,176,208.61,178c19.33,1.66,37.58,3.22,64,1.37a1.78,1.78,0,0,1,.4,3.54h-.14C264.29,183.51,256.55,183.76,249.36,183.76Z"/>
                                <g id="Manos">
                                    <path class="cls-22" d="M28,79.18C28.5,66.34,41.67,51,56.5,50.68l9.34,4h11L86.53,51l14,2.33L119.87,58s11.58,3.87,11.91,4.87-3.62,6-3.62,6l.37,3.46L139.87,75l3.66,3.67-1,3.66-1.66,3,5,3.34.33,7-5.33,1.66h-3.34V101l-3,3.67-3.66,1.66-6.46-.72-.88,2.72-1.33,3.34L116.53,114l-14.33-2.33L89.82,106.2l-2.95-.36,2,3.8-.3,3.7,3.34,3s5.33,2,4.66,3A17.61,17.61,0,0,0,95.2,123l-1.67,2.33-4.66,1.34v7.66l-7,3.67-6.67-.33,1.41,5L73.2,147l-9,2.33-32.33-.66L19.2,149l-5-2.67-4-3.33-6.33-.67c-3.27-4.19-6.61-17.91-.34-36.66C8.37,106.84,22.47,95.41,27,94.51c16.31-3.2,35.85.38,25.17-7.17C48.77,84.92,27.93,81.72,28,79.18Z"/>
                                    <path class="cls-21" d="M84.14,140H51.32a1.78,1.78,0,0,1-.21-3.55h33A2.78,2.78,0,0,0,87,133.79v-2.27a2.77,2.77,0,0,0-2.86-2.68,1.78,1.78,0,0,1-.21-3.55.74.74,0,0,1,.21,0,6.37,6.37,0,0,1,6.53,6.22h0v2.23A6.38,6.38,0,0,1,84.18,140Z"/>
                                    <path class="cls-21" d="M91.18,128.84H53.67a1.78,1.78,0,0,1-.37-3.54h.15a.81.81,0,0,1,.22,0H91.18A2.79,2.79,0,0,0,94,122.62v-2.23a2.78,2.78,0,0,0-2.86-2.68H51.32a1.78,1.78,0,0,1-.37-3.54H91.18a6.38,6.38,0,0,1,6.53,6.23v2.23A6.4,6.4,0,0,1,91.18,128.84Z"/>
                                    <path class="cls-21" d="M9.14,106.56H4.42A1.78,1.78,0,0,1,4.21,103H9.13c2.91,0,5.57-2.41,7.93-4.53l.75-.68c.7-.63,1.3-1.27,1.9-1.85,1.93-2,3.92-4.08,8.15-4.08h35.2c3.68,0,6,.68,7.4,2.19a6.47,6.47,0,0,1,1.46,5.31c-.49,5.49-11.82,7.2-15.89,7.2a1.79,1.79,0,0,1-1.88-1.68A1.77,1.77,0,0,1,55.82,103H56c5.1,0,12.09-2.25,12.24-4,.17-1.89-.35-2.41-.51-2.59-.63-.69-2.24-1-4.7-1H27.87c-2.64,0-3.64,1.06-5.47,3a26.84,26.84,0,0,1-2.08,2l-.74.63C16.85,103.52,13.48,106.56,9.14,106.56Z"/>
                                    <path class="cls-21" d="M68.91,151.13H19.65c-2.7,0-5.19-1.9-7.58-3.73-1.9-1.46-3.87-3-5.31-3H4.42a1.79,1.79,0,0,1-1.88-1.68,1.77,1.77,0,0,1,1.67-1.88H6.77c2.7,0,5.17,1.9,7.58,3.72,1.9,1.46,3.89,3,5.33,3H68.92c2.45,0,4-1.05,4-2.68v-2.23A2.78,2.78,0,0,0,70.09,140a1.78,1.78,0,0,1-.37-3.54h.37a6.38,6.38,0,0,1,6.52,6.23v2.23C76.6,148.56,73.44,151.13,68.91,151.13Z"/>
                                    <path class="cls-21" d="M84.14,117.7A1.79,1.79,0,0,1,82.26,116a1.77,1.77,0,0,1,1.67-1.88h.21A2.77,2.77,0,0,0,87,111.46h0v-2.23a2.76,2.76,0,0,0-2.86-2.67H41.94a1.79,1.79,0,0,1-1.88-1.68A1.77,1.77,0,0,1,41.73,103H84.14a6.37,6.37,0,0,1,6.53,6.22h0v2.23a6.38,6.38,0,0,1-6.51,6.24Z"/>
                                    <path class="cls-21" d="M131.75,108.76a6.6,6.6,0,0,1-1.59-.2L101.72,101a1.79,1.79,0,0,1-1.27-2.17h0a1.83,1.83,0,0,1,2.25-1.26l28.44,7.52a4.62,4.62,0,0,0,4.87-2.7,3.5,3.5,0,0,0-.48-2.71,4.09,4.09,0,0,0-2.2-1.93,1.78,1.78,0,0,1-1.28-2.16h0a1.84,1.84,0,0,1,2.26-1.26A7.59,7.59,0,0,1,138.73,98a6.93,6.93,0,0,1,.81,5.44C138.53,106.74,134.85,108.76,131.75,108.76Z"/>
                                    <path class="cls-21" d="M141.06,99.56a8.27,8.27,0,0,1-2.09-.27l-32.23-8.52a1.8,1.8,0,0,1-1.27-2.17h0a1.83,1.83,0,0,1,2.25-1.26L140,95.84c1.26.34,4.18.14,5-2.66a3.44,3.44,0,0,0-.28-2.77,4.24,4.24,0,0,0-2.53-1.89l-30.33-8a1.75,1.75,0,0,1-1.27-2.12v0h0A1.84,1.84,0,0,1,112.8,77l30.34,8a8,8,0,0,1,4.76,3.6,6.79,6.79,0,0,1,.64,5.48A7.53,7.53,0,0,1,141.06,99.56Z"/>
                                    <path class="cls-21" d="M139.52,87.67a5.68,5.68,0,0,1-1.23-.16A1.78,1.78,0,0,1,137,85.35v0h0A1.85,1.85,0,0,1,139.28,84h0c1.12.31,2.67-1.48,3.16-3.16a3.91,3.91,0,0,0-.51-2.85,3.79,3.79,0,0,0-2.3-1.83l-37.92-10A1.79,1.79,0,0,1,100.44,64h0a1.83,1.83,0,0,1,2.25-1.26l37.92,10a7.4,7.4,0,0,1,4.53,3.51,7.23,7.23,0,0,1,.83,5.58C145.07,84.91,142.48,87.67,139.52,87.67Z"/>
                                    <path class="cls-21" d="M122.25,70.58a30.92,30.92,0,0,1-7.17-.81l1-3.43c2.94.77,9.74,1.26,12.81-.59a2.35,2.35,0,0,0,1.27-1.58c.37-1.77-2.73-2.8-5.8-3.56l-.67-.17L91.65,52c-2.93-.78-5.11.47-7.88,2.06-.56.32-1.14.63-1.72,1a21.14,21.14,0,0,1-13.9,1.75L55.39,53.37l1-3.43,12.78,3.38a17.49,17.49,0,0,0,11.14-1.44c.55-.29,1.1-.63,1.63-.91,3-1.69,6.32-3.61,10.75-2.42,3.4.91,23.34,6.17,32,8.46l.64.16c2.87.71,9.6,2.38,8.48,7.71a6,6,0,0,1-3,3.91C128.5,70.17,125.27,70.58,122.25,70.58Z"/>
                                    <path class="cls-21" d="M56,94.33a2,2,0,0,1-1.38-.61l-.35-.37c-1.26-1.36-3.79-4-4.53-7.12L28.5,80.61a1.78,1.78,0,0,1-1.27-2.16h0a1.83,1.83,0,0,1,2.25-1.27l23.58,6.28.1,1.26c.2,2.41,2.64,5,3.84,6.29l.39.41a1.76,1.76,0,0,1-.09,2.47l-.07.06A2,2,0,0,1,56,94.33Z"/>
                                    <path class="cls-21" d="M116.68,116.69a10,10,0,0,1-2.3-.28l-25.55-6.77a1.76,1.76,0,0,1-1.27-2.14h0a1.86,1.86,0,0,1,2.26-1.26L115.38,113c2.29.6,5.48-.47,6.15-2.77a3.51,3.51,0,0,0-.33-2.78,4.09,4.09,0,0,0-2.35-1.89,1.8,1.8,0,0,1-1.27-2.17h0a1.83,1.83,0,0,1,2.25-1.26,7.64,7.64,0,0,1,4.57,3.55,6.93,6.93,0,0,1,.67,5.5C124,114.78,120.21,116.69,116.68,116.69Z"/>
                                </g>
                                <g id="Arbol">
                                    <path class="cls-23" d="M173.2,51.34c1.33,0,3.67-3.66,4.67-4s1-5.33,1-5.33l1.66-15.67L186.2,14l8.33-5,9.34-5,6.79-1.63,14.25,2.75s10.29,6.55,10.29,7.55,3,8.33,3,8.33,2.67,7,3,8.33-.33,7.34-.33,7.34l6,3s8,4.66,8,5.66,3.33,7,3.33,8,2,8.67,2,9.67-.33,6.33-.33,7.33-2,7.34-2.34,8.34-3.33,6-3.33,6l-7.33,6s-5.34,4.66-7,4.66S227.53,97,227.53,97l-10-.67-5-2.33a70.1,70.1,0,0,0-7.66.33c-1.34.34-15,2.34-15,2.34l-16-4.67-6-4.67s-4.67-6.66-4.67-7.66-1-11-1-12,2-8.34,2-8.34Z"/>
                                    <path class="cls-21" d="M228.83,100.34a35.77,35.77,0,0,1-18.18-5,36.9,36.9,0,0,1-15.11,3.2c-29.15,0-35.27-14.53-35.27-26.78,0-11.72,5-19.59,16.61-26.1v-13c-.18-7.89,3.26-16,9.48-22.24A35.22,35.22,0,0,1,210.51,0a33.11,33.11,0,0,1,23.59,9.2,32.2,32.2,0,0,1,10.15,23.48,27.08,27.08,0,0,1-.19,3.24,33.75,33.75,0,0,1,19.76,30.52C263.81,85.14,248.13,100.34,228.83,100.34Zm-18-9.4a2.15,2.15,0,0,1,1.18.35,31.38,31.38,0,0,0,16.86,4.91c16.92,0,30.68-13.35,30.68-29.74a29.71,29.71,0,0,0-18.64-27.37,2.08,2.08,0,0,1-1.27-2.21A26.71,26.71,0,0,0,240,32.7a28.11,28.11,0,0,0-8.85-20.52,29.06,29.06,0,0,0-20.53-8,31,31,0,0,0-21.21,9.22c-5.41,5.44-8.41,12.46-8.3,19.25V46.8a2.08,2.08,0,0,1-1.1,1.9c-11.17,6-15.52,12.43-15.52,23.08,0,15,10.43,22.63,31,22.63a32.75,32.75,0,0,0,14.3-3.28,2.05,2.05,0,0,1,1-.19Z"/>
                                    <path class="cls-21" d="M210.66,179.15a2.12,2.12,0,0,1-2.14-2.07l-.16-141A2.1,2.1,0,0,1,210.49,34h0a2.1,2.1,0,0,1,2.14,2l.15,141a2.1,2.1,0,0,1-2.12,2.08h0Z"/>
                                    <path class="cls-21" d="M209.24,66.7a2.19,2.19,0,0,1-1.24-.39L195.91,57.9a2,2,0,0,1-.58-2.77l0-.05.06-.08a2.19,2.19,0,0,1,3-.48l12.12,8.42a2,2,0,0,1,.59,2.76l0,.07-.05.07A2.16,2.16,0,0,1,209.24,66.7Z"/>
                                    <path class="cls-21" d="M211.56,81a2.24,2.24,0,0,1-1.58-.68,2,2,0,0,1,0-2.83l0,0,.06-.06,8.31-7.3a2.2,2.2,0,0,1,3,.15,2,2,0,0,1,0,2.82l-.05,0-.06.06L213,80.49A2.16,2.16,0,0,1,211.56,81Z"/>
                                    <path class="cls-21" d="M211.45,52.47a2.26,2.26,0,0,1-1.58-.71,2.06,2.06,0,0,1,.09-2.88l.07-.06,8.31-7.3a2.18,2.18,0,0,1,3,.14,2,2,0,0,1,0,2.82l-.06.06-.06.06-8.32,7.3A2.27,2.27,0,0,1,211.45,52.47Z"/>
                                </g>
                                <g id="Obeja">
                                    <path class="cls-21" d="M114.45,154.13a1.86,1.86,0,0,1-1-.27l-.55-.34c-1.73-1-1.84-3.61-1.51-4.83a87.77,87.77,0,0,1,6.32-16.11h0a1.32,1.32,0,0,1,.15-.29,2,2,0,0,1,2.5-.74,1.77,1.77,0,0,1,.78,2.39,1.28,1.28,0,0,1-.15.25,83.7,83.7,0,0,0-6.08,15.44,2.82,2.82,0,0,0,.06,1l.42.25a1.74,1.74,0,0,1,.6,2.4v.06A1.84,1.84,0,0,1,114.45,154.13Z"/>
                                    <path class="cls-21" d="M119.4,155.92a9.46,9.46,0,0,1-6.17-2.24l-.22-.2a1.77,1.77,0,0,1,0-2.47l.06,0a1.89,1.89,0,0,1,2.58,0,6,6,0,0,0,6.11.95l6.76-2.69.3-.09,2.76-.64a4.17,4.17,0,0,0,3.33-3.15,1.82,1.82,0,0,1,2.13-1.43,1.78,1.78,0,0,1,1.5,2V146a7.78,7.78,0,0,1-6.11,6l-2.62.59-6.62,2.64A10.35,10.35,0,0,1,119.4,155.92Z"/>
                                    <path class="cls-21" d="M138.85,177.78c-2,0-3.36-.54-4.15-1.61a3.17,3.17,0,0,1-.41-2.92,13.76,13.76,0,0,0,.93-4.33l.42-6.95a1.83,1.83,0,1,1,3.66.21h0l-.41,7a17.16,17.16,0,0,1-1,5,4.75,4.75,0,0,0,1.06.09,5.47,5.47,0,0,0,1.4-.16v-.85a12.46,12.46,0,0,1,1.26-5.66c1.07-2.53,2.59-4,4.52-4.52a1.83,1.83,0,0,1,2.24,1.27,1.77,1.77,0,0,1-1.26,2.16h0c-.74.19-1.47,1.06-2.07,2.45a8.84,8.84,0,0,0-1,4.25v.88a2.77,2.77,0,0,1-.57,2.11c-.82,1.07-2.28,1.6-4.47,1.62Z"/>
                                    <path class="cls-21" d="M182.49,179c-3.8,0-4.91-2.16-5-3.31a1.6,1.6,0,0,1,0-.31,38,38,0,0,0,.22-4.39,7.39,7.39,0,0,1,0-1.33,4.17,4.17,0,0,1,0-.5v-.49c.07-.86.09-1.14-1.65-4.42a1.76,1.76,0,0,1,.73-2.37h.06a1.89,1.89,0,0,1,2.47.77c2,3.8,2.18,4.62,2.05,6.32v.41a2,2,0,0,1,0,.6,5.34,5.34,0,0,0,0,.8,42.32,42.32,0,0,1-.18,4.5,3.5,3.5,0,0,0,1.32.2,1.55,1.55,0,0,0,1.09-.27.66.66,0,0,0,.12-.32l-.89-5.51a9.42,9.42,0,0,1,1-6.14l.11-.18a12.14,12.14,0,0,1,1.23-1.77c.75-.93.75-1,.63-1.44a1.74,1.74,0,0,1-.08-.5v-.63a1.81,1.81,0,0,1,1.81-1.8h0a1.79,1.79,0,0,1,1.84,1.76v.38a4.61,4.61,0,0,1-1.31,4.38,7.93,7.93,0,0,0-.87,1.27l-.08.15a6,6,0,0,0-.63,3.91l.91,5.64a4.07,4.07,0,0,1-1,3.16A5,5,0,0,1,182.6,179Z"/>
                                    <path class="cls-21" d="M152.73,168.54a11.49,11.49,0,0,1-8.52-3.79,9.66,9.66,0,0,1-2.45.35h-.09a8.76,8.76,0,0,1-8.64-6.28,7.09,7.09,0,0,1-2.71-.2,6.29,6.29,0,0,1-4.57-4.42,5.53,5.53,0,0,1,0-2.8,1.83,1.83,0,0,1,2.22-1.3,1.77,1.77,0,0,1,1.34,2.11h0a2.09,2.09,0,0,0,0,1.11,2.74,2.74,0,0,0,2,1.83,3.33,3.33,0,0,0,2.53-.3,1.87,1.87,0,0,1,1.9.05,1.75,1.75,0,0,1,.83,1.67V157c0,2.53,2.42,4.52,5.25,4.49a5.59,5.59,0,0,0,2.44-.59,1.88,1.88,0,0,1,1.47-.07,1.8,1.8,0,0,1,1.06,1c.67,1.63,3.53,3.09,6,3.09h.06A8.21,8.21,0,0,0,158,163.1a1.89,1.89,0,0,1,1.33-.63,1.73,1.73,0,0,1,1.35.52,8.48,8.48,0,0,0,4.73,1.42,5,5,0,0,0,4.42-2.52,1.84,1.84,0,0,1,1.26-.93,2,2,0,0,1,1.55.38,4,4,0,0,0,2.58.89,3.62,3.62,0,0,0,3.65-2.81,1.77,1.77,0,0,1,.93-1.27,1.87,1.87,0,0,1,1.63-.07,5.71,5.71,0,0,0,3.6.34,5.19,5.19,0,0,0,3.79-3.23c0-.13,0-.26.08-.39a1.79,1.79,0,0,1,1.56-1.36,2.48,2.48,0,0,0,2.36-2.3,1.42,1.42,0,0,0-.05-.36,1.76,1.76,0,0,1,.94-1.89,8.38,8.38,0,0,0,2-1.43,3.68,3.68,0,0,0,1.26-2.59,4.18,4.18,0,0,0-1.75-3.29,1.77,1.77,0,0,1-.69-1.26A1.72,1.72,0,0,1,195,139a3,3,0,0,0,.33-4.23l0,0a3.16,3.16,0,0,0-.65-.56c-1.89-1.55-3-1.41-4.16-1.12a1.88,1.88,0,0,1-1.79-.47,1.72,1.72,0,0,1-.45-1.75c.14-.45.28-.88-.63-1.76a2.63,2.63,0,0,0-1.9-.85,2.76,2.76,0,0,0-1.36.43,1.87,1.87,0,0,1-1.72.16,1.83,1.83,0,0,1-1.1-1.3,4.68,4.68,0,0,0-4.81-3.49,5.31,5.31,0,0,0-3,1,1.89,1.89,0,0,1-1.74.24,1.79,1.79,0,0,1-1.15-1.29,2.51,2.51,0,0,0-2.53-1.8h0a2.76,2.76,0,0,0-1.83.69,1.91,1.91,0,0,1-2.67-.21l-.06-.08a9.61,9.61,0,0,1-.69-1.14c-.58-1.12-1-1.85-3.87-1.85H159c-2.57,0-3.16,1.09-4,2.59-.14.24-.26.48-.4.7a1.89,1.89,0,0,1-2.61.56h0a1.86,1.86,0,0,1-.42-.37c-.63-.77-2.75-1.51-4.33-1.51h0a4.1,4.1,0,0,0-3.63,2.08,1.84,1.84,0,0,1-1.26.94,1.92,1.92,0,0,1-1.54-.34,2.8,2.8,0,0,0-1.78-.58,2.52,2.52,0,0,0-2.59,2.07,1.78,1.78,0,0,1-.87,1.36,1.93,1.93,0,0,1-1.64.14,3.41,3.41,0,0,0-1.27-.24,3,3,0,0,0-2.81,1.68,1.88,1.88,0,0,1-1.73,1.06,1.83,1.83,0,0,1-1.67-1.15,1.3,1.3,0,0,0-1.27-.75h0a1.34,1.34,0,0,0-1.22.68,1.87,1.87,0,0,1-2.26.91.87.87,0,0,0-.32-.06c-.38,0-.72.25-.71.53s.21.38.4.45a1.76,1.76,0,0,1,1.08,2.16,1.82,1.82,0,0,1-1.56,1.26A1.85,1.85,0,0,1,117,133h0a4.07,4.07,0,0,1,.36-1.46,3.73,3.73,0,0,1-.4-1.67,4.23,4.23,0,0,1,4.35-4.12h.13a5.29,5.29,0,0,1,6.6-.68,7.07,7.07,0,0,1,4.56-1.7h.74A6.31,6.31,0,0,1,139,120a6.61,6.61,0,0,1,2.37.41,8,8,0,0,1,5.81-2.53,12,12,0,0,1,5.32,1.31A7.13,7.13,0,0,1,159,116h0c4.15,0,5.73,1.42,6.74,3a6.59,6.59,0,0,1,7.58,2.07,9.07,9.07,0,0,1,3.29-.63,8.58,8.58,0,0,1,7.73,4.36,7.29,7.29,0,0,1,1.13-.15,6.19,6.19,0,0,1,4.68,1.9,5.59,5.59,0,0,1,1.65,2.73,8.11,8.11,0,0,1,5.14,2.16,6.37,6.37,0,0,1,1.71,8.55,7.49,7.49,0,0,1,1.89,4.85,7.1,7.1,0,0,1-2.36,5.15,14,14,0,0,1-1.73,1.41,6,6,0,0,1-4.36,5.33,8.87,8.87,0,0,1-6.32,5.19,9.63,9.63,0,0,1-4,0,7.42,7.42,0,0,1-6.6,3.87,8.06,8.06,0,0,1-3.28-.67,8.9,8.9,0,0,1-6.54,2.86,13,13,0,0,1-6-1.46,13.18,13.18,0,0,1-6.6,2Z"/>
                                    <path class="cls-21" d="M129.41,138.3a3.42,3.42,0,0,1-1.14-.2c-1.55-.59-2.26-2.24-2.67-3.23l-.06-.13a1.18,1.18,0,0,1,.61-1.54h0a1.26,1.26,0,0,1,1.6.63l.06.14c.27.63.72,1.7,1.3,1.9a1.39,1.39,0,0,0,1-.14c.74-.34.86-.57.86-.57a3.8,3.8,0,0,0-.47-.71,5,5,0,0,1-.63-1,1.18,1.18,0,0,1,.68-1.52h0a1.27,1.27,0,0,1,1.58.7c.09.15.2.3.31.45a3.15,3.15,0,0,1,.86,2.71,3.55,3.55,0,0,1-2.19,2.11A4.32,4.32,0,0,1,129.41,138.3Z"/>
                                </g>
                            </g>
                        </g>
                        <g id="_2" data-name=" 2">
                            <path class="cls-24" d="M244.29,167.06c.16-7.12,1.08-14.12,3.83-20.73a30.14,30.14,0,0,1,9.71-12.08,16.24,16.24,0,0,1,4.75-2.45,72.56,72.56,0,0,1,11.31-2.93c1-.18,1.84-.2,2.3.91.35.86,1,.73,1.65.44a41.33,41.33,0,0,1,4.85-1.65,27.88,27.88,0,0,1,9.53-1.55A31.46,31.46,0,0,1,305,130.09a17,17,0,0,1,7.55,6.83c4.49,7.68,5.67,15.88,2.51,24.39a33.93,33.93,0,0,1-5.25,9.28,75.32,75.32,0,0,1-12,12.34,44.21,44.21,0,0,1-6.63,3.94,57.46,57.46,0,0,1-13.1,5.08,32.58,32.58,0,0,1-15.91.14,23.31,23.31,0,0,1-17.89-22.45Zm25.12,22.27a42,42,0,0,0,7.15-1A57.79,57.79,0,0,0,294,180.8a52.61,52.61,0,0,0,16-16.73c4.06-6.42,5.32-13.36,3-20.7-1.29-4.15-3.56-7.68-7.51-9.85a28.13,28.13,0,0,0-13.53-3.4c-4.59,0-9.14.39-13.38,2.32-.93.42-1.68-.38-2.53.16a15.4,15.4,0,0,1-2.55,1.06c-.25.1-.6.16-.74-.08-.34-.59-.8-.27-1.21-.21a31.75,31.75,0,0,0-8,2.19,25,25,0,0,0-9.83,8.13,26.85,26.85,0,0,0-4.38,10.12c-1.61,6.4-2.59,12.82-1.9,19.43.65,6.22,4.16,10.45,9.38,13.41C260.4,188.64,264.3,189.36,269.41,189.33Z"/>
                            <path class="cls-24" d="M287,129.35l7.23-.48,9.65,2.41,7.23,5.79L315,147.19l-.48,6.76-1.93,8.68-4.34,5.3s-12.06,9.65-15.43,12.06c-7.5,5.35-34.73,14-43.89-8.68-10.52-26,15.43-37.62,15.43-37.62l8.68-1.93,5.79-.48Z"/>
                            <path class="cls-25" d="M287.72,172a3.5,3.5,0,0,0,1.64,0,1.69,1.69,0,0,0,1.43-1.44,1.59,1.59,0,0,0-1.07-1.74c-1.42-.69-3-.2-4.44-.9a2.82,2.82,0,0,0-2.24-.15,14.88,14.88,0,0,1-3.64.52c-2.08.22-4.17.32-6.48.48,1.91-2.68,3.57-5.21,5.2-7.74s3.34-4.88,5.06-7.29c2.07-2.9,3.65-5.85,2.62-9.68a5.24,5.24,0,0,0-2.73-3.78,11.94,11.94,0,0,0-3.41-1,6.77,6.77,0,0,0-6.77,2.32,25.24,25.24,0,0,0-1.52,2.29,38.16,38.16,0,0,0-3.18,6.71c-.48,1.17.16,2.14,1.51,2.56s2,0,2.19-1.34a19.21,19.21,0,0,1,2.33-6.21c.89-1.58,1.92-3,3.79-3.45s4.22.49,4.6,2.31a7.45,7.45,0,0,1,0,2.58c-.37,2.66-1.93,4.7-3.47,6.64-2.81,3.55-5.15,7.42-7.67,11.17-1.15,1.72-2.2,3.49-4.19,4.38a1.18,1.18,0,0,0-.66,1.54,1.23,1.23,0,0,0,.32.46,2.69,2.69,0,0,0,2.74,1,37.85,37.85,0,0,1,6.61-.85C280.13,171,284,170.87,287.72,172Z"/>
                        </g>
                    </g>
                </g>
            </g>
        </g>
    </g>
</svg>