<?xml version="1.0" encoding="utf-8"?>
<!-- Generator: Adobe Illustrator 22.1.0, SVG Export Plug-In . SVG Version: 6.00 Build 0)  -->
<svg version="1.1" id="Capa_1" xmlns="http://www.w3.org/2000/svg" xmlns:xlink="http://www.w3.org/1999/xlink" x="0px" y="0px"
	 viewBox="0 0 166.2 26.7" style="enable-background:new 0 0 166.2 26.7;" xml:space="preserve">
<style type="text/css">
	.st0{fill:#EDB65F;}
</style>
<g id="Flecha_x5F_FramerUp_x5F_Multishot">
	<path class="st0" d="M5.2,18.3c2.7-1.6,5.9-2.5,8.9-3.5c1.4-0.5,2.8-1.2,4.3-1.6c1.7-0.5,3.4-0.7,5.1-1.1c1.9-0.4,3.8-0.8,5.7-1.1
		c0.4-0.1,13.1-1.2,13.1-1.2C45,9.5,54.9,8.8,57.5,8.8c2.7,0,5.3,0.3,8,0.4c8.1-0.6,16.1,0.9,24.1,2c2.5,0.3,5,0.5,7.5,0.8
		c9.1,1.4,4.6,0.8,13.4,1.9c5.4,0.7,10.7,0.5,16.1,0.6c0.9,0.3,1.4-1.2,0.5-1.5l0,0c-1.4-0.7-2.7-1.6-4.2-2
		c-3.5-1.1-7.4-0.8-10.9-2.3c-9.6-2.1-3.1-0.8-13.4-2.3c-2.5-0.4-5-1-7.5-1.1c-2.7-0.2-5.4,0.3-8.1,0c-23.7-2.2,8-1.3-16.4-1.6
		c-7.6-0.3-16.1-0.7-23.6-0.1c-2.4,0.2-4.7,0.7-7.1,1C23.9,5.8,34.4,4,23.3,6.2c-1.8,0.3-3.6,0.5-5.3,0.9c-2.9,0.8-5.6,2.2-8.5,3
		c-1.1,0.3-2.3,0.5-3.3,0.9c-0.4,0.2-5.4,3.3-5.4,3.4C-1.7,17.3,2.7,21.1,5.2,18.3z"/>
	<path class="st0" d="M119,24.3c0.3,1.7,2,2.7,3.7,2.4c2.1-0.4,4.2,0.1,6.3,0c1.1-0.1,2.1-0.4,3.2-0.4c1.1,0,2.2,0.3,3.4,0.1
		c1-0.1,1.9-0.5,2.8-0.8c0.4-0.1,0.9-0.2,1.3-0.2c0.9,0.1,1.8,0.2,2.7,0.2c1.1,0,2.2-0.3,3.2-0.4c3.2-0.4,6.4-0.6,9.5-1.2
		c1.1-0.7,2.8-0.1,3.8-0.2c0.3,0,1.8-0.5,2.1-0.6c0,0,1,0,1,0c3-0.1,3.8-1.8,3.9-3.1c0.1-2,0.2-1.7-0.1-3c-0.2-0.7-4.6-2.2-5.2-2.6
		c-1.3-0.8-3.7-2.7-5-3.3c-8.2-3.4-0.1,1.8-7.4-3.4c-0.3-0.2-0.6-0.4-0.9-0.5c-1.5-0.4-2.9-0.8-4.4-1.4c-1.6-0.6-3.1-1.5-4.6-2.1
		c-5-2.1-8.5-3-13.8-3.6c-1.6-0.9-3.1,1.6-1.5,2.5l0,0c2.6,2.3,4,3.7,7.1,5.4c1.4,0.8,3,1.3,4.5,2.1c7.3,4.1,1,1.9,8.8,4
		c0.2,0.1,0.4,0.1,0.5,0.2c2.4,1.1,5,2.4,7.3,3.7c0.9,0.5,1.7,1.2,2.6,1.7c0.7,0.4,1.5,0.5,2.2,0.8c0.4,0.2,0.9,1,1.1,0.7
		c1.1-1.8,1.4-4,2.2-5.9c0.3,0,0.6-0.2,0.9-0.1c0.4,0.1-0.8,0.5-1.3,0.5c-0.3,0-0.7-0.2-1-0.1c-3.5,0.7,1,0.7-2.5,0.5
		c-0.2,0-0.4,0-0.5,0c-5,0.6,2.6-0.4-3.7,1c-4.8,1.1-0.1-0.5-5.3,0.3c-13,1.9,6.9,0.1-6.5,1.2c-3.3,0.4-6.5,0.7-9.8,0.6
		c-0.9,0-1.8-0.3-2.7-0.2c-0.9,0-2.7,0.5-3.8,0.8c-0.3,0.1-0.6,0.1-0.9,0.1C120,19.9,118.7,22.2,119,24.3z"/>
</g>
</svg>
