<?xml version="1.0" encoding="utf-8"?>
<!-- Generator: Adobe Illustrator 22.1.0, SVG Export Plug-In . SVG Version: 6.00 Build 0)  -->
<svg version="1.1" id="Capa_1" xmlns="http://www.w3.org/2000/svg" xmlns:xlink="http://www.w3.org/1999/xlink" x="0px" y="0px"
	 viewBox="0 0 107.8 53.7" style="enable-background:new 0 0 107.8 53.7;" xml:space="preserve">
<style type="text/css">
	.st0{fill:#EDB65F;}
</style>
<g id="Flecha_x5F_1_x5F_Home_1_">
	<path class="st0" d="M0.7,17.2c0.4,0.4,0.7,0.9,1.2,1.2c1.4,1,3,1.5,4.4,2.4c0.9,0.5,1.7,1.1,2.6,1.6c2.2,1.1,4.4,2.1,6.6,3.1
		c6.6,3.6,0.5,0.4,9.1,4.2c1.5,0.6,2.9,1.6,4.4,2.1c1.6,0.5,3.3,0.6,4.9,1c3.5,0.9,6.9,2.2,10.4,3.2c9.6,1.1,1.3,0.4,10.9,0.5
		c1.9,0,3.7,0.3,5.6,0.3c5.3-0.2,10.4-1.9,15.4-3.6c1.6-0.4,3.3-0.6,4.9-1.1c1.5-0.5,2.8-1.3,4.2-1.9c1.3-0.6,2.7-1,4-1.7
		c1.2-0.6,2.2-1.3,3.3-1.9c5.7-3,0.7,0.1,5.6-3.1c4-2,0.6-0.2,3.9-2.4c1.8-1.2,2.2-1.2,2.7-3.4c1.2-1.4-1-3.3-2.2-1.9l0,0
		c-2.9,0-5.3,1.6-7.6,3.1c-0.9,0.4-1.9,0.6-2.7,1.1c-9.1,4.4,4-1.2-6.2,3.4c-4,1.8-8.1,3.3-12.2,4.9c-8.5,2.1-0.8,0.3-9.6,2
		c-1.6,0.3-3.2,0.8-4.9,1c-5.1,0.6-10.3,0.2-15.3-1.1c-5.2-0.5-4.8-0.2-9.8-2c-3-1.1-5.8-2.7-8.9-3.8c-1-0.3-2-0.3-3-0.7
		c-1.2-0.5-2.3-1.3-3.5-1.9c-2.2-0.9-4.4-1.7-6.5-3c-0.8-0.5-1.5-1.3-2.3-1.8c-0.8-0.5-1.6-0.7-2.4-1.1c-1.1-0.6-2.1-1.5-3.2-2
		C2.2,11.1-1.6,14.8,0.7,17.2z"/>
	<path class="st0" d="M102.6,15.8c-0.2,0.5-0.2,1.1-0.5,1.5c-0.4,0.6-1.2,0.9-1.7,1.5c-0.6,0.7-0.9,1.6-1.4,2.3
		c-1.8,2.8-3.5,5.6-5.6,8.3c-1.4,3.4-3.4,6.4-5.7,9.3c-0.7,0.9-1.5,1.6-2,2.6c-1.4,3.5-0.5,1.9-2.4,4.9c-1.4,1.8-2.2,3.8-2.2,6.1
		c-0.7,0.9,0.8,2,1.5,1.1l0,0c0.5-0.1,1.1,0,1.5-0.3c0.4-0.3,0.4-0.9,0.8-1.2c4.5-4.1-1,2.3,3.1-2.8c0.9-1,2.7-3.2,3.5-4.3
		c7.2-10.6-3.4,5.5,4-5.9c4.7-7.3-0.6,1.6,3.2-6.2c1.9-2.7,3.8-5.5,5.5-8.4c0.5-0.8,0.8-1.6,1.3-2.4c0.4-0.6,1.1-1,1.5-1.7
		c0.3-0.5,0.3-1.1,0.5-1.6C109.2,15.4,104.3,12.7,102.6,15.8z"/>
	<path class="st0" d="M103.5,12c-0.6,0-1.1-0.4-1.7-0.5c-0.7-0.1-1.4-0.1-2.1-0.3c-0.8-0.2-1.6-0.7-2.4-0.9
		c-0.9-0.3-1.8-0.3-2.7-0.6c-1-0.3-1.9-0.7-2.8-1c-1-0.3-2-0.6-3-0.8c-3.1-1.2-6.3-2.1-9.3-3.3c-3.2-1.3-2.8-1.6-6-2.7
		c-1-0.3-2-0.5-2.9-0.8c-3.7-1.4-1.8-1.1-5.6-0.8c-2.1-0.3-2.5,3-0.4,3.3l0,0c3.2,3.1,1.5,1.8,5.2,3.9c4,1.8,8.1,3.7,12.3,5
		c1.1,0.3,2.2,0.5,3.2,0.9c1.1,0.4,2.1,0.9,3.2,1.4c1,0.3,2.1,0.5,3.1,0.8c1,0.3,2,0.7,3,0.9c3,0.8,6,1.2,9,2
		C107.4,18.5,109.8,11.9,103.5,12z"/>
</g>
</svg>
