<?xml version="1.0" encoding="utf-8"?>
<!-- Generator: Adobe Illustrator 24.1.2, SVG Export Plug-In . SVG Version: 6.00 Build 0)  -->
<svg version="1.1" id="Capa_1" xmlns="http://www.w3.org/2000/svg" xmlns:xlink="http://www.w3.org/1999/xlink" x="0px" y="0px"
	 viewBox="0 0 108 108" style="enable-background:new 0 0 108 108;" xml:space="preserve">
<style type="text/css">
	.st0{fill:#FF0303;}
	.st1{fill:#E59F2C;}
	.st2{fill:#CF8013;}
	.st3{fill:#6D5235;}
	.st4{fill:#5D9A97;}
	.st5{fill:#365B56;}
	.st6{fill:#AB754E;}
	.st7{fill:#93623E;}
	.st8{fill:#333333;}
	.st9{fill:#FFDECB;}
</style>
<g>
	<path class="st0" d="M151.1,149.6h-618.3V-48h618.3V149.6z M-466,149.1h615.9V-47.5H-466V149.1z"/>
</g>
<g>
	<g>
		<g>
			<g>
				<g>
					<g>
						<g>
							<g>
								
									<ellipse transform="matrix(0.3616 -0.9323 0.9323 0.3616 -15.5785 60.861)" class="st1" cx="36.7" cy="41.8" rx="12.8" ry="13.5"/>
							</g>
						</g>
					</g>
					<g>
						<g>
							<g>
								<ellipse class="st2" cx="45.6" cy="36.3" rx="0.5" ry="0.5"/>
							</g>
						</g>
					</g>
					<g>
						<g>
							<g>
								<ellipse class="st2" cx="47.6" cy="39.2" rx="0.5" ry="0.5"/>
							</g>
						</g>
					</g>
					<g>
						<g>
							<g>
								<ellipse class="st2" cx="44.6" cy="39" rx="0.5" ry="0.5"/>
							</g>
						</g>
					</g>
					<g>
						<g>
							<g>
								<ellipse class="st2" cx="42.1" cy="36.1" rx="0.5" ry="0.5"/>
							</g>
						</g>
					</g>
					<g>
						<g>
							<g>
								<ellipse class="st2" cx="41.6" cy="38.9" rx="0.5" ry="0.5"/>
							</g>
						</g>
					</g>
					<g>
						<g>
							<g>
								<ellipse class="st2" cx="48" cy="42.7" rx="0.5" ry="0.5"/>
							</g>
						</g>
					</g>
					<g>
						<g>
							<g>
								<ellipse class="st2" cx="44.6" cy="42.6" rx="0.5" ry="0.5"/>
							</g>
						</g>
					</g>
					<g>
						<g>
							<g>
								<ellipse class="st2" cx="46.6" cy="45.9" rx="0.5" ry="0.5"/>
							</g>
						</g>
					</g>
					<g>
						<g>
							<g>
								<path class="st3" d="M36.7,30.4c-0.5,0-0.9-0.2-0.9-0.5c0-0.1,0-0.2,0.1-0.2c0.2-0.2,0.5-0.2,0.8-0.2c0.5,0,0.9,0.2,0.9,0.5
									c0,0.1,0,0.2-0.1,0.2c0,0.1-0.1,0.1-0.2,0.1C37.2,30.4,37,30.4,36.7,30.4z M36,29.9L36,29.9L36,29.9
									c-0.1,0.2,0.2,0.3,0.7,0.4c0.3,0,0.6-0.1,0.7-0.2V30c0-0.1-0.3-0.2-0.7-0.3c-0.2,0-0.5,0-0.5,0.1
									C36.1,29.8,36.1,29.8,36,29.9z"/>
							</g>
						</g>
					</g>
				</g>
				<g>
					<g>
						<g>
							<path class="st4" d="M36.6,26.2c8.1-6.2,15.6-0.1,15.6-0.1S44.7,32.8,36.6,26.2z"/>
						</g>
					</g>
				</g>
			</g>
			<g>
				<g>
					<polygon class="st5" points="36.6,30 36.5,22.6 36.8,22.6 36.9,30 					"/>
				</g>
			</g>
		</g>
		<g>
			<g>
				<g>
					<g>
						<g>
							<g>
								
									<ellipse transform="matrix(0.3616 -0.9323 0.9323 0.3616 1.6835 86.0297)" class="st1" cx="63.7" cy="41.8" rx="12.8" ry="13.5"/>
							</g>
						</g>
					</g>
					<g>
						<g>
							<g>
								<ellipse class="st2" cx="72.6" cy="36.3" rx="0.5" ry="0.5"/>
							</g>
						</g>
					</g>
					<g>
						<g>
							<g>
								<ellipse class="st2" cx="74.6" cy="39.1" rx="0.5" ry="0.5"/>
							</g>
						</g>
					</g>
					<g>
						<g>
							<g>
								<ellipse class="st2" cx="71.6" cy="39" rx="0.5" ry="0.5"/>
							</g>
						</g>
					</g>
					<g>
						<g>
							<g>
								<ellipse class="st2" cx="69.1" cy="36.2" rx="0.5" ry="0.5"/>
							</g>
						</g>
					</g>
					<g>
						<g>
							<g>
								<ellipse class="st2" cx="68.5" cy="38.9" rx="0.5" ry="0.5"/>
							</g>
						</g>
					</g>
					<g>
						<g>
							<g>
								<ellipse class="st2" cx="75" cy="42.7" rx="0.5" ry="0.5"/>
							</g>
						</g>
					</g>
					<g>
						<g>
							<g>
								<ellipse class="st2" cx="71.6" cy="42.6" rx="0.5" ry="0.5"/>
							</g>
						</g>
					</g>
					<g>
						<g>
							<g>
								<ellipse class="st2" cx="73.6" cy="46" rx="0.5" ry="0.5"/>
							</g>
						</g>
					</g>
					<g>
						<g>
							<g>
								<path class="st3" d="M63.8,30.4c-0.5,0-0.9-0.2-0.9-0.5c0-0.1,0-0.2,0.1-0.2c0.2-0.2,0.5-0.2,0.8-0.2c0.5,0,0.9,0.2,0.9,0.5
									c0,0.1,0,0.2-0.1,0.2c-0.1,0.1-0.1,0.1-0.2,0.1C64.2,30.4,64,30.4,63.8,30.4z M63.1,29.9C63.1,29.9,63,29.9,63.1,29.9
									L63.1,29.9c-0.1,0.2,0.2,0.3,0.7,0.4c0.3,0,0.6-0.1,0.7-0.2V30c0-0.1-0.3-0.2-0.7-0.3c-0.2,0-0.5,0-0.5,0.1
									C63.1,29.8,63.1,29.8,63.1,29.9z"/>
							</g>
						</g>
					</g>
				</g>
				<g>
					<g>
						<g>
							<path class="st4" d="M63.6,26.2c8.1-6.2,15.6-0.1,15.6-0.1S71.7,32.8,63.6,26.2z"/>
						</g>
					</g>
				</g>
			</g>
			<g>
				<g>
					<polygon class="st5" points="63.6,30 63.5,22.6 63.8,22.6 63.9,30 					"/>
				</g>
			</g>
		</g>
		<g>
			<g>
				<g>
					<g>
						<g>
							<g>
								
									<ellipse transform="matrix(0.3616 -0.9323 0.9323 0.3616 18.7844 112.5361)" class="st1" cx="91.6" cy="42.6" rx="12.8" ry="13.5"/>
							</g>
						</g>
					</g>
					<g>
						<g>
							<g>
								<ellipse class="st2" cx="100.5" cy="37.1" rx="0.5" ry="0.5"/>
							</g>
						</g>
					</g>
					<g>
						<g>
							<g>
								<ellipse class="st2" cx="102.4" cy="39.9" rx="0.5" ry="0.5"/>
							</g>
						</g>
					</g>
					<g>
						<g>
							<g>
								<ellipse class="st2" cx="99.5" cy="39.8" rx="0.5" ry="0.5"/>
							</g>
						</g>
					</g>
					<g>
						<g>
							<g>
								<ellipse class="st2" cx="97" cy="36.9" rx="0.5" ry="0.5"/>
							</g>
						</g>
					</g>
					<g>
						<g>
							<g>
								<ellipse class="st2" cx="96.4" cy="39.7" rx="0.5" ry="0.5"/>
							</g>
						</g>
					</g>
					<g>
						<g>
							<g>
								<ellipse class="st2" cx="102.9" cy="43.5" rx="0.5" ry="0.5"/>
							</g>
						</g>
					</g>
					<g>
						<g>
							<g>
								<ellipse class="st2" cx="99.5" cy="43.4" rx="0.5" ry="0.5"/>
							</g>
						</g>
					</g>
					<g>
						<g>
							<g>
								<ellipse class="st2" cx="101.5" cy="46.7" rx="0.5" ry="0.5"/>
							</g>
						</g>
					</g>
					<g>
						<g>
							<g>
								<path class="st3" d="M91.6,31.1c-0.5,0-0.9-0.2-0.9-0.5c0-0.1,0-0.2,0.1-0.2c0.2-0.2,0.5-0.2,0.8-0.2c0.5,0,0.9,0.2,0.9,0.5
									c0,0.1,0,0.2-0.1,0.2C92.3,31,92.3,31,92.3,31C92.1,31.1,91.9,31.1,91.6,31.1z M90.9,30.6C90.9,30.7,90.9,30.7,90.9,30.6
									L90.9,30.6c-0.1,0.2,0.2,0.3,0.7,0.4c0.3,0,0.6-0.1,0.7-0.2v-0.1c0-0.1-0.3-0.2-0.7-0.3c-0.2,0-0.5,0-0.5,0.1
									C91,30.6,90.9,30.6,90.9,30.6z"/>
							</g>
						</g>
					</g>
				</g>
				<g>
					<g>
						<g>
							<path class="st4" d="M91.5,26.9c8.1-6.2,15.6-0.1,15.6-0.1S99.6,33.6,91.5,26.9z"/>
						</g>
					</g>
				</g>
			</g>
			<g>
				<g>
					<polygon class="st5" points="91.5,30.7 91.4,23.3 91.7,23.3 91.8,30.7 					"/>
				</g>
			</g>
		</g>
		<g>
			<g>
				<rect x="19.8" y="39.1" class="st6" width="65.5" height="44.1"/>
			</g>
		</g>
		<g>
			<g>
				<rect x="84.7" y="39.1" class="st7" width="23.2" height="44.1"/>
			</g>
		</g>
		<g>
			<g>
				<circle class="st1" cx="90.7" cy="46.7" r="2.9"/>
			</g>
		</g>
		<g>
			<g>
				<circle class="st1" cx="102.2" cy="46.7" r="2.9"/>
			</g>
		</g>
	</g>
	<g>
		<g>
			<path class="st8" d="M76.4,17L76.4,17c-0.2-0.1-0.2-0.2-0.2-0.3L83.8,2c0.1-0.1,0.2-0.2,0.3-0.1c0.1,0.1,0.2,0.2,0.1,0.3L76.6,17
				C76.5,17,76.5,17,76.4,17z"/>
		</g>
	</g>
	<g>
		<g>
			<path class="st8" d="M52.9,17c-0.1,0-0.2-0.1-0.2-0.2L45.1,2.2c-0.1-0.1,0-0.2,0.1-0.3c0.1-0.1,0.2,0,0.3,0.1l7.6,14.7
				C53.2,16.7,53.1,16.9,52.9,17C52.9,17,52.9,17,52.9,17z"/>
		</g>
	</g>
	<g>
		<g>
			<path class="st8" d="M63.7,15.9L63.7,15.9c-0.2,0-0.2-0.1-0.2-0.2l0.1-15.7c0-0.2,0.1-0.2,0.2-0.2l0,0c0.2,0,0.2,0.1,0.2,0.2
				l-0.1,15.7C63.8,15.8,63.8,15.9,63.7,15.9z"/>
		</g>
	</g>
	<g>
		<path class="st9" d="M66.3,71.2l-14.1,6.5l-0.3,0.2c-0.2,0.1-0.5,0.1-0.7-0.3c-0.2-0.4,0-0.8,0.2-0.9l13.2-10.1
			c0.8-0.6,1-1.7,0.5-2.6c-0.5-0.9-1.8-1.2-2.6-0.5L49,72.1l0,0c0,0-0.6,0.4-1.1-0.3c-0.2-0.4,0-0.7,0.2-0.9l10.2-8.8
			c0.7-0.6,0.9-1.8,0.3-2.6c-0.6-0.9-1.8-1-2.6-0.5L36.8,71.9l0,0l0,0L36.7,72c-0.2,0.2-0.8,0.4-1.2,0.3c-0.6-0.2-0.2-1-0.2-1l4-6.6
			c0.5-0.9,0.3-2-0.5-2.6c-0.9-0.6-2.2-0.5-2.8,0.5c0,0-6.9,9-10.2,13.6L0.1,89.3c6.9,8.2,15.7,14.8,25.8,19l13.2-10.4
			c8.1-5,13.5-7.8,14.2-8.3l3.3-1.6c0,0,0.1,0,0.1-0.1l9-4.1c0.8-0.4,1.2-1.3,0.9-2.2c-0.3-0.9-1.3-1.4-2.3-1.1l-8.9,3.1l0,0
			c0,0-0.7,0.2-1-0.5c-0.2-0.5,0.2-0.8,0.2-0.9l13.4-7.7c0.9-0.5,1.2-1.6,0.8-2.5C68.4,71.2,67.3,70.8,66.3,71.2z"/>
	</g>
</g>
</svg>
