<?xml version="1.0" encoding="utf-8"?>
<!-- Generator: Adobe Illustrator 24.1.2, SVG Export Plug-In . SVG Version: 6.00 Build 0)  -->
<svg version="1.1" id="Capa_1" xmlns="http://www.w3.org/2000/svg" xmlns:xlink="http://www.w3.org/1999/xlink" x="0px" y="0px"
	 viewBox="0 0 1440 72" style="enable-background:new 0 0 1440 72;" xml:space="preserve">
<style type="text/css">
	.st0{fill:#FAF3E8;}
	.st1{fill:#F7DCAD;}
</style>
<g>
	<path class="st0" d="M0.2,13C94.6,5.3,287.2-8.1,382.4,6.5S594,34,745.4,17.9c116.4-12.4,195.9-15.1,318.9,0.8s146.6,8.2,224.8,3.3
		c86.5-5.4,144.9-8.7,150.7-9v59H-0.2L0.2,13z"/>
	<path class="st1" d="M41.4,24.3c0,0-7.6,2.1-5.9,7.6c1.7,5.5,8.9,6.8,11.5,4.2C49.5,33.6,49.1,23.8,41.4,24.3z"/>
	<path class="st1" d="M1413.4,42.8c0,0-7.6,2.1-5.9,7.6s8.9,6.8,11.5,4.2S1421,42.4,1413.4,42.8z"/>
	<path class="st1" d="M1388.4,27.8c0,0-7.6,2.1-5.9,7.6s8.9,6.8,11.5,4.2C1396.4,37.1,1396,27.4,1388.4,27.8z"/>
	<path class="st1" d="M1027.2,24.4c0,0-7.6,2.1-5.9,7.6c1.7,5.5,8.9,6.8,11.5,4.2C1035.2,33.7,1034.8,24,1027.2,24.4z"/>
	<path class="st1" d="M215.5,43.7c0,0-7.6,2.1-5.9,7.6s8.9,6.8,11.5,4.2C223.6,53,223.2,43.3,215.5,43.7z"/>
	<path class="st1" d="M16.6,31.7c0,0-2.4,3.2,0,4.8s5.6-0.1,5.8-1.8C22.7,32.9,19.5,29.2,16.6,31.7z"/>
	<path class="st1" d="M33.6,50.1c0,0-2.4,3.2,0,4.8s5.6-0.1,5.8-1.8C39.6,51.4,36.5,47.6,33.6,50.1z"/>
	<path class="st1" d="M446.2,40.5c0,0-2.4,3.2,0,4.8s5.6-0.1,5.8-1.8C452.3,41.7,449.1,38,446.2,40.5z"/>
	<path class="st1" d="M1414.8,25.4c0,0-2.4,3.2,0,4.8s5.6-0.1,5.8-1.8C1420.8,26.6,1417.7,22.9,1414.8,25.4z"/>
	<path class="st1" d="M1138.8,43.7c0,0-2.4,3.2,0,4.8s5.6-0.1,5.8-1.8C1144.8,44.9,1141.7,41.1,1138.8,43.7z"/>
	<path class="st1" d="M368.7,22c0,0-2.4,3.2,0,4.8s5.6-0.1,5.8-1.8S371.6,19.5,368.7,22z"/>
</g>
</svg>
