<?xml version="1.0" encoding="utf-8"?>
<!-- Generator: Adobe Illustrator 24.1.2, SVG Export Plug-In . SVG Version: 6.00 Build 0)  -->
<svg version="1.1" id="Capa_1" xmlns="http://www.w3.org/2000/svg" xmlns:xlink="http://www.w3.org/1999/xlink" x="0px" y="0px"
	 viewBox="0 0 1440 72" style="enable-background:new 0 0 1440 72;" xml:space="preserve">
<style type="text/css">
	.st0{fill:#D9E8E8;}
	.st1{fill:#BAD3D2;}
</style>
<g>
	<path class="st0" d="M939.8,18.5C885.2,16,750.5-1.5,606,0.1S380.4,8.9,300,25C134,58.2,0,30.9,0,30.9V72h1440V30.9
		C1293.5-6.4,1012,21.7,939.8,18.5z"/>
	<path class="st1" d="M1400.1,57.9c0,0-7.6,2.1-5.9,7.6s8.9,6.8,11.5,4.2C1408.2,67.2,1407.8,57.4,1400.1,57.9z"/>
	<path class="st1" d="M25.3,41.6c0,0-7.6,2.1-5.9,7.6s8.9,6.8,11.5,4.2S32.9,41.2,25.3,41.6z"/>
	<path class="st1" d="M31.8,58.2c0,0-7.6,2.1-5.9,7.6s8.9,6.8,11.5,4.2C39.9,67.5,39.5,57.8,31.8,58.2z"/>
	<path class="st1" d="M281.1,44.4c0,0-2.4,5.4,1.5,7c4,1.6,8.1-1.9,7.9-4.5C290.3,44.2,284.5,39.8,281.1,44.4z"/>
	<path class="st1" d="M1032.3,29c0,0-1.7,3.7,1.1,4.8c2.7,1.1,5.6-1.3,5.4-3.1C1038.6,28.9,1034.6,25.8,1032.3,29z"/>
	<path class="st1" d="M1417.2,39.2c0,0-7.6,2.1-5.9,7.6s8.9,6.8,11.5,4.2C1425.3,48.5,1424.9,38.8,1417.2,39.2z"/>
	<path class="st1" d="M1382.8,41.4c0,0-2.4,3.2,0,4.8c2.4,1.7,5.6-0.1,5.8-1.8C1388.8,42.6,1385.7,38.9,1382.8,41.4z"/>
	<path class="st1" d="M53.3,55.6c0,0-2.4,3.2,0,4.8c2.4,1.7,5.6-0.1,5.8-1.8C59.3,56.8,56.2,53.1,53.3,55.6z"/>
	<path class="st1" d="M1059.4,43.4c0,0-0.3,5.5,3.7,5.6s6.4-4.4,5.3-6.6C1067.3,40.1,1060.8,38.2,1059.4,43.4z"/>
</g>
</svg>
