<?xml version="1.0" encoding="utf-8"?>
<!-- Generator: Adobe Illustrator 24.1.2, SVG Export Plug-In . SVG Version: 6.00 Build 0)  -->
<svg version="1.1" id="Capa_1" xmlns="http://www.w3.org/2000/svg" xmlns:xlink="http://www.w3.org/1999/xlink" x="0px" y="0px"
	 viewBox="0 0 320 72" style="enable-background:new 0 0 320 72;" xml:space="preserve">
<style type="text/css">
	.st0{fill:#D9E8E8;}
	.st1{fill:#BAD3D2;}
</style>
<g>
	<path class="st0" d="M320,19.5c-15.5-0.3-57.1-15.4-100.8-18.6c-92.3-6.5-111.7,24.7-159,24.4c-36-0.2-42-4.1-60.2-5.8V72h320V19.5
		z"/>
	<path class="st1" d="M294.3,43.1c0,0-6,1.7-4.7,6c1.3,4.4,7.1,5.4,9.1,3.4C300.7,50.5,300.4,42.8,294.3,43.1z"/>
	<path class="st1" d="M307.9,27.5c0,0-6,1.7-4.7,6c1.3,4.4,7.1,5.4,9.1,3.4S313.9,27.2,307.9,27.5z"/>
	<path class="st1" d="M280.6,29.3c0,0-1.9,2.5,0,3.8c1.9,1.3,4.4,0,4.6-1.5C285.4,30.2,282.9,27.3,280.6,29.3z"/>
</g>
</svg>
