<?xml version="1.0" encoding="utf-8"?>
<!-- Generator: Adobe Illustrator 24.1.2, SVG Export Plug-In . SVG Version: 6.00 Build 0)  -->
<svg version="1.1" id="Capa_1" xmlns="http://www.w3.org/2000/svg" xmlns:xlink="http://www.w3.org/1999/xlink" x="0px" y="0px"
	 viewBox="0 0 320 72" style="enable-background:new 0 0 320 72;" xml:space="preserve">
<style type="text/css">
	.st0{fill:#FAF3E8;}
	.st1{fill:#F7DCAD;}
</style>
<g>
	<path class="st0" d="M297.7,4.3c-97.3,12.6-116.6,11.6-178,2.6C41.1-4.6,0,1,0,1l0.3,71H320V1C312.7,1.8,305.3,3.4,297.7,4.3z"/>
	<path class="st1" d="M307,24.3c0,0-6,1.7-4.7,6s7.1,5.4,9.1,3.4S313.1,24,307,24.3z"/>
	<path class="st1" d="M284.5,16.8c0,0-6,1.7-4.7,6c1.3,4.4,7.1,5.4,9.1,3.4S290.6,16.5,284.5,16.8z"/>
	<path class="st1" d="M292.6,35.4c0,0-1.9,2.5,0,3.8s4.4,0,4.6-1.5C297.4,36.3,294.9,33.4,292.6,35.4z"/>
</g>
</svg>
