<?xml version="1.0" encoding="utf-8"?>
<!-- Generator: Adobe Illustrator 24.1.2, SVG Export Plug-In . SVG Version: 6.00 Build 0)  -->
<svg version="1.1" id="Capa_1" xmlns="http://www.w3.org/2000/svg" xmlns:xlink="http://www.w3.org/1999/xlink" x="0px" y="0px"
	 viewBox="0 0 1440 72" style="enable-background:new 0 0 1440 72;" xml:space="preserve">
<style type="text/css">
	.st0{fill:#FAF3E8;}
	.st1{fill:#F7DCAD;}
</style>
<g>
	<path class="st0" d="M1439.7,13c-94.4-7.7-287-21.1-382.3-6.5c-95.2,14.5-211.5,27.4-363,11.4C578.1,5.5,498.6,2.8,375.7,18.7
		s-146.7,8.1-225,3.2C64.2,16.6,5.8,13.3,0,13v59h1440L1439.7,13z"/>
	<path class="st1" d="M20.2,39.1c0,0-7.6,2.1-5.9,7.6s8.9,6.8,11.5,4.2S27.8,38.7,20.2,39.1z"/>
	<path class="st1" d="M1416.9,37.3c0,0-7.6,2.1-5.9,7.6s8.9,6.8,11.5,4.2S1424.5,36.8,1416.9,37.3z"/>
	<path class="st1" d="M1388.5,27.8c0,0-7.6,2.1-5.9,7.6s8.9,6.8,11.5,4.2C1396.5,37.1,1396.1,27.4,1388.5,27.8z"/>
	<path class="st1" d="M1007.3,30.8c0,0-7.6,2.1-5.9,7.6c1.7,5.5,8.9,6.8,11.5,4.2C1015.4,40.2,1014.9,30.4,1007.3,30.8z"/>
	<path class="st1" d="M215.6,43.7c0,0-7.6,2.1-5.9,7.6s8.9,6.8,11.5,4.2C223.7,53,223.3,43.3,215.6,43.7z"/>
	<path class="st1" d="M37.7,33.7c0,0-2.4,3.2,0,4.8s5.6-0.1,5.8-1.8C43.7,34.9,40.5,31.2,37.7,33.7z"/>
	<path class="st1" d="M39.5,53.1c0,0-2.4,3.2,0,4.8s5.6-0.1,5.8-1.8C45.6,54.3,42.4,50.6,39.5,53.1z"/>
	<path class="st1" d="M497,42.4c0,0-2.4,3.2,0,4.8s5.6-0.1,5.8-1.8C503.1,43.6,499.9,39.9,497,42.4z"/>
	<path class="st1" d="M1398.7,51.3c0,0-2.4,3.2,0,4.8c2.4,1.7,5.6-0.1,5.8-1.8C1404.8,52.5,1401.6,48.7,1398.7,51.3z"/>
	<path class="st1" d="M1175.9,14.1c0,0-2.4,3.2,0,4.8c2.4,1.7,5.6-0.1,5.8-1.8C1182,15.3,1178.8,11.6,1175.9,14.1z"/>
	<path class="st1" d="M417.4,28.5c0,0-2.4,3.2,0,4.8c2.4,1.7,5.6-0.1,5.8-1.8C423.4,29.7,420.2,26,417.4,28.5z"/>
</g>
</svg>
