<svg xmlns="http://www.w3.org/2000/svg" viewBox="0 0 227.48 210.83"><defs><style>.cls-31{fill:#fdddca!important;}.cls-32{fill:#333!important;}.cls-33{fill:#64b2ae!important;}.cls-34{fill:#edb65f!important;}.cls-35{fill:#fff!important;}</style></defs><title>Recurso 1</title><g id="Capa_2" data-name="Capa 2"><g id="Capa_1-2" data-name="Capa 1"><g id="Capa_2-2" data-name="Capa 2"><g id="Capa_1-2-2" data-name="Capa 1-2"><g id="Farmer_Trabajando" data-name="Farmer Trabajando"><g id="Granjero"><polygon class="cls-31" points="76.44 28 107.44 50.8 103.44 54.99 96.94 57.8 84.84 56.59 75.94 49.49 72.94 39.3 73.94 32.8 76.44 28"/><path class="cls-32" d="M80.54,55.19c-8.6-6.4-10.7-19.7-4.4-28.4l.7-.9,32.9,24.4-.7.9C102.44,59.69,89.14,61.59,80.54,55.19ZM77.34,29a18.82,18.82,0,0,0-2.4,12.3A17.39,17.39,0,0,0,94,56.79c.5-.1,1-.1,1.4-.2a18.39,18.39,0,0,0,11.1-5.9Z"/><path class="cls-32" d="M92.45,59.49A20.41,20.41,0,0,1,80.24,55.6h0c-8.85-6.59-11-20.19-4.5-29.1l1-1.3,33.7,25-1,1.3A21.57,21.57,0,0,1,92.45,59.49Zm-11.61-4.7c8.36,6.23,21.36,4.4,27.81-3.9l.38-.5L76.94,26.59l-.4.51c-6.14,8.47-4.13,21.42,4.3,27.69Zm11.37,2.6a17.89,17.89,0,0,1-17.77-16,19.25,19.25,0,0,1,2.47-12.61l.28-.48,30.09,22.36-.37.41a19,19,0,0,1-11.4,6.06,5,5,0,0,1-.72.11c-.21,0-.43,0-.65.08A18,18,0,0,1,92.21,57.39ZM77.49,29.73a18.31,18.31,0,0,0-2,11.5A16.88,16.88,0,0,0,94,56.3a6.93,6.93,0,0,1,.7-.1,3.82,3.82,0,0,0,.63-.09,18,18,0,0,0,10.47-5.35Z"/><path class="cls-33" d="M66.84,12.09l58.3,43,2.5,1.5,3.5-3.3,1.5-2-15.3-11.2,1.8-3.5s4.8-10.7,5-12,.5-9.2,0-10-1.3-3.7-2.2-4.5-5-6.3-6.8-6.5-5.5-1.8-8.5-1.5-7.8,1.7-8.8,2.5-6,4.5-7.2,5.7a17.18,17.18,0,0,0-2.5,3.5c-.7,1-1.8,2.8-1.8,2.8l-2.8-2s-2.7-2.5-3.7-2.5-5-3.3-5-3.3l-5-3.3L67,8.19l-2,2.7Z"/><path class="cls-33" d="M127.71,57.22l-2.83-1.7-58.33-43L64.33,11,66.64,7.9l3.14-3,5.34,3.52c1.89,1.55,4.21,3.2,4.72,3.21,1.11,0,3.37,2,4,2.64l2.32,1.65c.37-.61,1-1.67,1.53-2.37A17.52,17.52,0,0,1,90.27,10C91.19,9,94.09,6.83,96,5.37c.69-.53,1.24-1,1.51-1.17,1.11-.89,6-2.3,9.06-2.6a18.15,18.15,0,0,1,6.3,1,19.81,19.81,0,0,0,2.31.54c1.4.15,3.55,2.55,5.82,5.21.56.65,1,1.22,1.25,1.41a9.44,9.44,0,0,1,1.69,3.2,12,12,0,0,0,.6,1.41c.66,1.05.22,9.43.08,10.34-.21,1.33-4.55,11-5,12.13L118,39.94l15.36,11.25-1.8,2.4Zm-62-46.45,1.39.92,58.3,43L127.57,56l3.23-3,1.14-1.53L116.7,40.25l2-3.88c1.9-4.26,4.81-10.95,5-11.85.23-1.5.44-8.88.06-9.67a11.69,11.69,0,0,1-.68-1.56,9.93,9.93,0,0,0-1.42-2.82A20,20,0,0,1,120.26,9c-1.32-1.54-4.05-4.74-5.17-4.87a17.56,17.56,0,0,1-2.47-.57,17.36,17.36,0,0,0-5.93-.93c-3,.3-7.65,1.68-8.54,2.39-.27.22-.83.65-1.53,1.18C94.84,7.52,91.85,9.79,91,10.65A16.87,16.87,0,0,0,88.58,14c-.71,1-1.8,2.81-1.81,2.83l-.28.45L83.25,15c-1.28-1.18-2.93-2.41-3.41-2.41-1.09,0-4.35-2.61-5.32-3.41l-4.62-3L67.39,8.55Z"/><path class="cls-32" d="M128.44,58.79l-64.8-48,5.7-7.7,15.2,11.3c1.1-1.3,2.2-2.5,3.4-3.7a43.15,43.15,0,0,1,7-5.8c.5-.3,1.1-.7,1.6-1,7.8-4.6,15.3-4.5,21.7.2l.1.1a17,17,0,0,1,6.1,7.9c1.6,4.1,1.6,9.1,0,14.6a45.72,45.72,0,0,1-6.1,12.8l15.8,11.6Zm-61.8-48.5,61.3,45.4,3.1-4.1-15.8-11.7.7-.9a46.19,46.19,0,0,0,6.2-12.6c1.6-5.2,1.7-9.8.2-13.5a16.19,16.19,0,0,0-5.4-7c-5.8-4.3-12.4-4.3-19.6,0-.5.3-1,.7-1.6,1A44.09,44.09,0,0,0,86,16h0l-1.1,1.5L69.74,6.19Z"/><path class="cls-32" d="M128.55,59.49,62.94,10.9l6.3-8.51L84.46,13.71c1-1.18,2.05-2.29,3.13-3.37a43.33,43.33,0,0,1,7.07-5.86L95.48,4l.8-.5c8-4.7,15.66-4.62,22.26.22l.16.15a17.43,17.43,0,0,1,6.21,8.08c1.63,4.18,1.63,9.34,0,14.91A46.43,46.43,0,0,1,119,39.38L134.84,51ZM64.34,10.69l64,47.4,5.1-6.89L117.65,39.61l.28-.4a45.41,45.41,0,0,0,6-12.66c1.56-5.36,1.57-10.3,0-14.27a16.66,16.66,0,0,0-5.93-7.68l-.16-.15C111.7-.09,104.38-.15,96.8,4.33c-.25.14-.52.31-.78.48l-.82.51A42.88,42.88,0,0,0,88.3,11c-1.17,1.17-2.27,2.37-3.38,3.68l-.3.36L69.45,3.79ZM128,56.39l-.4-.29L65.94,10.4l3.7-4.9,15.2,11.29.8-1.09a44.68,44.68,0,0,1,9.82-9.22,10.55,10.55,0,0,0,1-.63c.2-.14.39-.27.58-.38,7.4-4.42,14.18-4.41,20.16,0a16.75,16.75,0,0,1,5.57,7.22c1.53,3.79,1.47,8.44-.19,13.83a46.74,46.74,0,0,1-6.27,12.74l-.4.52,15.79,11.69Zm-60.7-46.2L127.84,55l2.5-3.3L114.53,40l1-1.3a46,46,0,0,0,6.11-12.44c1.59-5.17,1.67-9.6.22-13.17a15.68,15.68,0,0,0-5.24-6.79c-5.62-4.16-12-4.15-19,0q-.27.16-.54.36A11.23,11.23,0,0,1,96,7.34a43.77,43.77,0,0,0-9.54,9L85.05,18.2,69.84,6.89Z"/><path class="cls-33" d="M19.24,140l10.5,6.7s8.3,6.4,7.8,6.5-3,7.8-3,7.8-11.7,24.7-12.1,25.2-7.8,5.2-7.8,5.2l-6.5-1.3s-4.9-3.5-5.6-3.8-1.4-8.7-1.4-9.2,9.2-21.1,9.2-21.1l6.5-13.3Z"/><path class="cls-33" d="M52,42.79,68.84,53l8.5,6,5,5.5,1.9,6.9,1,10.6,1.5,17,.1,7.7,3.4,5.6s10.8,9.5,10.8,10.3,5.5,9,5.5,9l-2.2,7.8s-8.2,4-8.2,3-28-23.8-28-23.8l-2.8-11,1-9.5-3.2,2.5s-6.5,7.5-6.5,8.5-4.8,4.8-4.8,4.8,5.8,5.8,6,6.5S70,133,70,133l8.5,9-1,16.5-3.5,26s-1.8,14-4.2,14.2S59,200,57.54,199s-6-3.5-6.5-5.5,1.8-13.2,1.2-14.5,2.2-24.2,2.2-24.2l-1.2-3.8-8-5.2-15.5-12-9.5-9s-2.8-7-2.5-8.2,12-25.8,12-25.8l-5-4.8,6.5,5s.7-.7.9.1,4.3-6.6,4.3-6.6l2-3.2-2.4,1,8.2-10.5,1.5-6.8-2.5-4.5-4.4-.5L27,66.79l1.2-9,22.8-15Z"/><polygon class="cls-33" points="53.24 43.49 40.14 58.9 21.84 71.39 13.44 78.19 7.54 77.8 3.04 68.8 9.24 60.3 21.84 48.49 31.64 38.9 37.04 36.59 43.24 37.49 53.24 43.49"/><path class="cls-33" d="M65.54,106.49l19.5-13,3.4,16.2,13.6,15.8s5.5,6,5.5,6.8-8.5,11.2-8.5,11.2S70,121.69,70,121,65.54,106.49,65.54,106.49Z"/><path class="cls-32" d="M12.34,193.79a13.59,13.59,0,0,1-4.8-.9h-.1a12.94,12.94,0,0,1-6.6-16.3l14.7-35.8a2.07,2.07,0,0,1,.6-1,4.56,4.56,0,0,1,6.2-.9l15.1,11.3a5.44,5.44,0,0,1,1.6,6.9l-15.6,30A12.53,12.53,0,0,1,12.34,193.79Zm-3.5-4.2a9.37,9.37,0,0,0,11.6-4.1l15.5-30a1.9,1.9,0,0,0-.6-2.5l-15.1-11.3a1,1,0,0,0-1.3.2c-.1.1-.1.1-.1.2l-14.7,35.7A9.3,9.3,0,0,0,8.84,189.59Z"/><path class="cls-33" d="M124.44,185.89a13,13,0,0,0-7.2,2.2,1.82,1.82,0,0,1-2,0,13.05,13.05,0,0,0-9.6-2,27.37,27.37,0,0,1-11.4,0,10.14,10.14,0,0,0-2.5-.2,13.76,13.76,0,0,0-10.3,5.1,16.44,16.44,0,0,0-3.2,5.4,1.26,1.26,0,0,0,.2,1.3,1.83,1.83,0,0,0,1.5.6h56.7a1.69,1.69,0,0,0,1-.3,1.44,1.44,0,0,0,.4-1.5C135.54,190,130.24,185.89,124.44,185.89Z"/><path class="cls-32" d="M79.64,200a3.55,3.55,0,0,1-2.6-1.2l-.1-.1a3,3,0,0,1-.3-2.9,19.61,19.61,0,0,1,3.5-5.9,15.36,15.36,0,0,1,11.6-5.7,14.28,14.28,0,0,1,2.9.3,27.52,27.52,0,0,0,10.7,0,14.86,14.86,0,0,1,11,2.3,14.16,14.16,0,0,1,8.2-2.5h0c6.5,0,12.5,4.5,15.2,11.6a3.14,3.14,0,0,1-.9,3.5,3.49,3.49,0,0,1-2.2.8L80,200Zm.4-3.5h56.1c-2.3-5.4-6.8-8.8-11.8-8.8a11.32,11.32,0,0,0-6.2,1.9,3.63,3.63,0,0,1-4,0,10.69,10.69,0,0,0-8.3-1.7,30.8,30.8,0,0,1-12.1,0,14.92,14.92,0,0,0-2.1-.2,12.05,12.05,0,0,0-9,4.4A21.26,21.26,0,0,0,80,196.49Z"/><path class="cls-32" d="M62.64,202.29a14.77,14.77,0,0,1-2.1-.1c-4-.6-7.1-2.2-9.1-4.9a11.78,11.78,0,0,1-2.1-8.8l4.3-35.5c-3.7-2.4-17.1-11.1-24.1-16.8a17.1,17.1,0,0,0-1.4-1.1c-3.7-2.9-8.8-6.9-10.4-13.6-1-4.3.4-10.8,3.8-17.5,1.2-2.4,3.7-6.8,7.4-13l-12.8-11.2A9.46,9.46,0,0,1,5,78.19c-3.7-3.8-4.1-8.9-1.4-14.7l.1-.3L29,37l.2-.1c5.3-3.1,11.7-3.5,15.9-1,.3.2,23,14.6,30.7,19,7.4,4.2,9.2,10.4,10.1,16.4,1,8.6,2.4,30.9,2.6,34.8l18.1,21.4a9.52,9.52,0,0,1,.1,12.2,10.7,10.7,0,0,1-7.2,4.3,7.72,7.72,0,0,1-6-1.5c-.2-.1-15.3-12.7-23.5-20.1-2.6-2.3-4.4-4.2-5.1-8.1v-.1l-.9-12.4-10.5,13L79.24,139a10.41,10.41,0,0,1,2.1,9l-6.9,46C73.64,199.49,68.14,202.29,62.64,202.29ZM16.54,75.49l16.8,14.8-.7,1.2c-4,6.7-6.8,11.6-8,14-2.9,5.8-4.3,11.7-3.5,15.1,1.3,5.5,5.7,8.9,9.2,11.7.5.4,1,.8,1.4,1.1,7.9,6.3,24.6,17,24.8,17.2l.9.6L52.74,189a8.34,8.34,0,0,0,1.5,6.2c1.4,1.9,3.7,3,6.7,3.5,3.7.5,9.4-.8,10-5.1l6.9-46.2a7.16,7.16,0,0,0-1.3-6l-27.8-26.1,18-22.4,1.8,21c.4,2.5,1.3,3.7,3.9,6,8.1,7.3,23.2,19.8,23.4,20a4.43,4.43,0,0,0,3.3.7,6.93,6.93,0,0,0,4.8-3l.1-.1a6.05,6.05,0,0,0-.1-7.8L85,107.39v-.6c0-.3-1.5-25.9-2.6-35.2-.7-4.9-1.9-10.1-8.3-13.8-7.8-4.4-29.9-18.4-30.9-19-3-1.8-8-1.5-12.1.9L6.74,65.29c-2,4.3-1.7,7.9.9,10.5,1.8,2,5.2,2.1,7.8.4ZM36.44,85l-15.1-13.4,1.6-1.3c6.9-5.5,16.1-12.7,16.1-12.7l1.1-.9,9,7.5-.8,1.3c-2.2,3.5-6.4,10.4-10.9,17.8Zm-9.7-13.3,8.9,7.9c3.6-5.9,6.9-11.3,9-14.7l-4.5-3.7C37.74,63,31.84,67.69,26.74,71.69Z"/><path class="cls-32" d="M115.14,142.19l27.7,25a6.18,6.18,0,0,1,2.1,4.5l1.9,1.5c5.8-.5,12.7,1.5,15.4,8.8a4.74,4.74,0,0,1-1,4.8l-11.8,11.8c-.1.1-.2.3-.4.4a4.54,4.54,0,0,1-6.3-.6,4.88,4.88,0,0,1-1.1-3.3,4.36,4.36,0,0,1,1.5-3l9.2-9.1c-2.2-1.4-5.5-.7-5.7-.7a4.62,4.62,0,0,1-3.9-.9l-3.6-2.9h-.7a6.37,6.37,0,0,1-4.4-1.7l-28-25.2a2.65,2.65,0,0,1-.5-.6,3.28,3.28,0,0,1,.9-4.7,14.32,14.32,0,0,0,3.2-2.8l1.1-1.5a2.91,2.91,0,0,1,3.7-.5m34.4,37.1a8.91,8.91,0,0,1,7.5,3.4l.9,1.2-11.6,11.6a.91.91,0,0,0-.3.7,1.45,1.45,0,0,0,.2.7,1,1,0,0,0,1.4.1.1.1,0,0,0,.1-.1l11.9-11.9a.91.91,0,0,0,.2-1.1c-2.7-7.2-10.2-6.7-12.5-6.4l-.7.1-4.5-3.6.1-1a3.19,3.19,0,0,0-1-2.6L113.14,145a19.45,19.45,0,0,1-4.5,4.1l27.9,25.1a3.18,3.18,0,0,0,2,.8,1.7,1.7,0,0,0,.7-.1l.9-.2,4.9,4a1,1,0,0,0,.9.2A20.81,20.81,0,0,1,148.84,178.59Z"/><polygon class="cls-32" points="35.54 79.69 28.44 91.5 31.64 93 38.54 81.59 35.54 79.69"/></g><path id="sun" class="cls-32" d="M175.64,91.09a1.85,1.85,0,0,1-.7-.2,1.7,1.7,0,0,1-.9-1.6,18.9,18.9,0,0,1,.1-4.1,2.36,2.36,0,0,1,.9-1.8v-.2h.8a1.61,1.61,0,0,1,1.1.5,1.88,1.88,0,0,1,.3,1.5,19.72,19.72,0,0,0-.2,4.2,1.58,1.58,0,0,1-.7,1.5A1.08,1.08,0,0,1,175.64,91.09Zm0-6.1c0,.1-.1.2-.1.4a1.7,1.7,0,0,1-.1.7A4.25,4.25,0,0,0,175.64,85Zm.1-.3h0v0Zm-7.8,5.7h-.3a1.27,1.27,0,0,1-.9-.7c-.5-.8-.1-2,.2-3.2a1,1,0,0,1,.1-.3c.1-.4.7-2.5,1.6-3a1.18,1.18,0,0,1,.8-.1l.4.1c1.2.5.7,2.2.2,3.5-.1.2-.1.4-.2.5-.4,1.8-.9,2.7-1.5,3.1A1,1,0,0,1,167.94,90.39ZM169,85a6.61,6.61,0,0,0-.5,1.5c0,.1-.1.3-.1.4-.2.6-.3,1.1-.4,1.4a16.56,16.56,0,0,0,.5-1.6,2.54,2.54,0,0,1,.2-.7A4.05,4.05,0,0,0,169,85Zm15.1,4.7a1.27,1.27,0,0,1-.6-.1,2.2,2.2,0,0,1-1-1.6c0-.1-.1-.2-.1-.3-.3-.8-.5-1.5-.8-2.3l-.4-1a2.12,2.12,0,0,1,.2-2.2,1.19,1.19,0,0,1,1.1-.4v-.3c-.6.2-1.1.3-1.7.5a23.25,23.25,0,0,1-17.4-2.7,21.09,21.09,0,0,1-9.5-21.6h0a19.48,19.48,0,0,1,6-10.7c.7-.6,1.5-1.2,2.3-1.8l.3-.3a2.55,2.55,0,0,1,.9-.9,24.09,24.09,0,0,1,5.7-2.5,22.81,22.81,0,0,1,23.7,7.9,19.63,19.63,0,0,1,4.1,11.1,2,2,0,0,1,.9-.9h.2a23,23,0,0,1,3.7-.2c.5.1.9.1,1.3.2h.3a.59.59,0,0,1,.6.4l.2.5-.1.1c.1.4.3,1-.2,1.4-1,.7-2.5.6-3.7.6h-.7a3.19,3.19,0,0,1-1.9-.3l-.2-.1a1,1,0,0,1-.4-.5,15.26,15.26,0,0,1-.3,3c1-.4,2.5.1,4,.7.1,0,.1,0,.2.1h.1a8.54,8.54,0,0,1,2.4.9l.1.1a1,1,0,0,1,.4.5,1.55,1.55,0,0,1-.9,2,4.39,4.39,0,0,1-2.9-.6,6.31,6.31,0,0,0-.9-.4,4.33,4.33,0,0,0-.5-.1,6.67,6.67,0,0,1-2.5-.8c-.3,1.1-.7,2.1-1.1,3.2,1-.7,2.6.3,3.6,1,.2.1.4.3.5.3h.1a7.49,7.49,0,0,1,2,1.1l.4.2h-.2c.2.3.4.5.4.8A1.36,1.36,0,0,1,201,75c-1,.6-2.4-.2-3.6-1l-.2-.2c-.1-.1-.2-.1-.4-.2-1.2-.6-2.2-1.2-2.4-2.1v-.1c-.3.6-.6,1.1-.9,1.7s-.6.9-.9,1.4c1-.5,2.3.6,3.1,1.3l.1.1.2.2c.1,0,.2.1.3.2.8.5,2.1,1.2,2.1,2.2a1.41,1.41,0,0,1-.7,1.2c-1.3.8-4.4-1.6-5.3-2.7a1.69,1.69,0,0,1-.5-1.5,14.75,14.75,0,0,1-3.2,2.9,2.61,2.61,0,0,1,1.2,1.1l-.6.5.6-.4.1.1c.7,1.1,1.4,2.2,2.2,3.3.1.1.1.2.2.4a1.55,1.55,0,0,1-.9,2,1.74,1.74,0,0,1-1.9-.9c-.7-1-1.3-2-1.9-2.9l-.4-.7a3.08,3.08,0,0,1-.3-1.3,15.58,15.58,0,0,1-3.7,1.7l.6,1.5c.1.1.1.2.2.4v.1a35.7,35.7,0,0,1,1.6,4.6V88a1.7,1.7,0,0,1-.1.7c-.2.4-.4.7-.8.8A1.08,1.08,0,0,1,184.14,89.69Zm-1.6-9.6c-.3.1-.6.2-1,.3.4-.1.7-.2,1-.3Zm.1,0h0a18.46,18.46,0,0,0,5.7-3.1,22.61,22.61,0,0,1-2.6,1.6A29,29,0,0,1,182.64,80.09ZM161.24,74a19.39,19.39,0,0,0,23.7,3.3c8.7-4.9,11.2-11.1,8.4-20.4-2.2-7.3-10-13-18.1-13.1a22.2,22.2,0,0,0-5.1.6h-.3l-.6.3-.6.3h-.1a18.12,18.12,0,0,0-8.8,6.6c-4.8,6.3-4.2,16,1.3,22.1Zm32.3,2.4a10.41,10.41,0,0,0,3.1,2.2c-.2-.1-.4-.3-.8-.5v.1l-.7-.5c-.1-.1-.3-.2-.5-.4A3.33,3.33,0,0,0,193.54,76.39Zm5-3.2a12.3,12.3,0,0,0,1.5.8A6.28,6.28,0,0,0,198.54,73.19Zm1.7-6.2c.1.1.3.1.4.2a7,7,0,0,0,1.7.6c-.2-.1-.3-.2-.5-.2h0l-1.4-.5A.35.35,0,0,0,200.24,67Zm-3-.8a12.44,12.44,0,0,0,1.6.4,3.54,3.54,0,0,1,.6.1A8.85,8.85,0,0,0,197.24,66.19Zm1.9-5h.9a16.13,16.13,0,0,0,2.2,0,2.2,2.2,0,0,0-.8-.1c-1,0-2.1,0-3.1.1a1.1,1.1,0,0,0,.8,0Zm4.6-.1Zm-35.1-17.7a18.47,18.47,0,0,0-4.5,2.1c-.1.1-.2.1-.2.2a19.48,19.48,0,0,1,4.1-2h.1c.1-.1.1-.1.5-.3Zm-7.7,44a.6.6,0,0,1-.4-.1h-.1a1.09,1.09,0,0,1-.8-.8,1.66,1.66,0,0,1,0-1.2,11.6,11.6,0,0,1,2.5-3.6.35.35,0,0,0,.1-.2,2.16,2.16,0,0,1,1.6-1.1h.1a1.14,1.14,0,0,1,.8.3,1.48,1.48,0,0,1,.4,2.1,10.1,10.1,0,0,1-1.3,1.6,15.76,15.76,0,0,0-1.2,1.5.37.37,0,0,0-.1.3,2,2,0,0,1-1.2,1.2Zm2.9-5.4c-.1,0-.3.3-.4.5l-.3.3a8.75,8.75,0,0,0-2.2,3.2.76.76,0,0,0,.2-.4c.1-.2.2-.3.2-.4.4-.6.9-1.2,1.3-1.7a7.89,7.89,0,0,0,1.2-1.5Zm-8.2,1.3h-.2a1.26,1.26,0,0,1-1-.7,1.38,1.38,0,0,1-.1-1.1,5.83,5.83,0,0,1,2.1-2.3c.2-.2.4-.3.6-.5a15.38,15.38,0,0,1,1.3-1.2l.1-.1a1.6,1.6,0,0,1,1.5.2,1.23,1.23,0,0,1,.5,1,2,2,0,0,1-.3,1.1,18.67,18.67,0,0,1-3,2.6A1.69,1.69,0,0,1,155.64,83.29Zm2-3.1c-.1.1-.2.1-.2.2a7,7,0,0,0-1,.8A10.59,10.59,0,0,0,157.64,80.19Zm.9-.7-.1.1C158.44,79.49,158.44,79.49,158.54,79.49Zm-8.4-2.5a1.61,1.61,0,0,1-.9-.3l-.1-.1-.1-.1a1.43,1.43,0,0,1,.2-2l.1-.1a4.55,4.55,0,0,1,1.9-.8c.6-.3,1.1-.6,1.7-.9a7.74,7.74,0,0,1,1.6-.7l.4-.1.2.2a.72.72,0,0,1,.6.4,1.46,1.46,0,0,1-.3,2.1,30.47,30.47,0,0,1-4,2.1c-.2,0-.2.1-.3.1A2.51,2.51,0,0,1,150.14,77Zm1.4-2c-.3.1-.5.2-.8.3a.35.35,0,0,0,.2-.1A1.42,1.42,0,0,0,151.54,75Zm2.5-1.3c-.1.1-.2.1-.3.2s-.1.1-.2.1C153.74,73.89,153.84,73.79,154,73.69Zm-6.3-3.6a1.54,1.54,0,0,1-1.3-.5,1.23,1.23,0,0,1-.1-1.5c.4-.9,1.8-1.2,3.6-1.5.3-.1.6-.1.8-.2a7,7,0,0,1,1.9-.6h.2c.9.1,1.1.7,1.1.9a2.05,2.05,0,0,1-.5,1.7l-.1.1-.1.1a21.29,21.29,0,0,1-3.3,1.1h-.2A6.47,6.47,0,0,1,147.74,70.09Zm2.7-2.1h-.3a17.42,17.42,0,0,0-2.2.5,5.82,5.82,0,0,0,1.4-.3l.2-.1A1.41,1.41,0,0,0,150.44,68Zm-3.7-4.6A1.73,1.73,0,0,1,145,62a1.34,1.34,0,0,1,1.3-1.5h.1c.6,0,1.2-.1,1.8-.1a17,17,0,0,1,2.3-.1h.3a1.67,1.67,0,0,1,1.7,1.6,1.31,1.31,0,0,1-1.4,1.4c-.9,0-1.7.1-2.6.1-.6,0-1.1.1-1.7.1A.1.1,0,0,0,146.74,63.39Zm5.3-7.2a6,6,0,0,1-2.2-.6,1.42,1.42,0,0,0-.6-.2l-.2-.1c-1.2-.4-2.4-.9-2.5-1.9a1.38,1.38,0,0,1,.8-1.3h0c.8-.4,1.9,0,2.9.4a2.07,2.07,0,0,0,.6.2c1.1.3,2.5.9,2.6,1.9a1.29,1.29,0,0,1-.8,1.3C152.64,56.19,152.34,56.19,152,56.19Zm-3.4-2.6c.2.1.5.2,1,.4h.1a1.33,1.33,0,0,1,.7.3c.3.1,1,.4,1.4.5a7.26,7.26,0,0,0-1.2-.5,6.89,6.89,0,0,0-.8-.3C149.54,53.89,149,53.69,148.64,53.59Zm49.1,2.5a2.1,2.1,0,0,1-1.4-.7,1.41,1.41,0,0,1-.1-1.4,1.27,1.27,0,0,1,1.3-.7,16.21,16.21,0,0,0,2-.3l1.9-.3a1.61,1.61,0,0,1,1.8,1.3,1.39,1.39,0,0,1-1.2,1.6h-.1a6.93,6.93,0,0,0-2,.3c-.6.1-1.2.2-1.9.3h-.1Zm-42.1-5.9a4.82,4.82,0,0,1-2.9-1.5c-.1-.1-.3-.2-.4-.3l-.2-.2c-1-.6-2.1-1.4-2-2.3,0-.4.3-.8,1.1-1.1,1.1-.3,2.2.6,3.1,1.4.2.2.4.3.5.4a6.38,6.38,0,0,0,1.4.8l.1.1a1.56,1.56,0,0,1,.6.8,1.65,1.65,0,0,1-1.1,1.9h-.2Zm-2.7-3.3h0l.2.2c.2.1.4.3.6.4a6.28,6.28,0,0,0,1.8,1.2l-1.5-.9a3.81,3.81,0,0,0-.6-.5c-.3-.2-1.1-.9-1.5-1.1a5.34,5.34,0,0,0,1,.7Zm42.9,3.3-.1-.1a2,2,0,0,1-2-1,1.25,1.25,0,0,1,.9-1.6c.7-.3,1.4-.5,2.1-.8l1.3-.5a2,2,0,0,1,2.4.8c.2.5.2,1.2-.8,1.7h-.1c-.7.3-1.4.5-2.1.8Zm-4.2-3.5a1.16,1.16,0,0,1-1-.4,1.45,1.45,0,0,1,0-2.1,15.29,15.29,0,0,1,3.1-2.6c.1,0,.1-.1.2-.1a2.07,2.07,0,0,1,1.8-.5,2.19,2.19,0,0,1,.5.3,1.55,1.55,0,0,1,.1,2.1,9.38,9.38,0,0,1-1.4,1,12.49,12.49,0,0,0-1.2.8,7.69,7.69,0,0,1-1.3,1.2h-.1A.91.91,0,0,1,191.64,46.69Zm3.6-4.2a.76.76,0,0,1-.4.2c-.1.1-.2.1-.3.2l-.9.6c.2-.1.3-.2.5-.3C194.54,42.89,194.94,42.69,195.24,42.49Zm-36,3.2a2.28,2.28,0,0,1-1.5-.9h0a37.62,37.62,0,0,1-2.5-3.1,1.62,1.62,0,0,1-.1-1.5,1.72,1.72,0,0,1,1.4-.8,1.23,1.23,0,0,1,1.1.7,40.31,40.31,0,0,0,2.6,3.2l.1.1a1.46,1.46,0,0,1-.4,2.1A2.54,2.54,0,0,1,159.24,45.69Zm27.4-3.2a2.35,2.35,0,0,1-.8-.2,1.48,1.48,0,0,1-.4-2.1,18.6,18.6,0,0,1,2.1-2.8h0a1.66,1.66,0,0,1,1.7-.9h.2a1.37,1.37,0,0,1,1,1.7v.1a11.18,11.18,0,0,1-1.9,2.9h0a.1.1,0,0,1-.1.1,2.4,2.4,0,0,1-1,1A1.2,1.2,0,0,1,186.64,42.49Zm.1-1.5Zm1.8-2.5a19.52,19.52,0,0,0-1.7,2.3c.1-.1.2-.2.2-.3s.1-.2.2-.3A5.15,5.15,0,0,0,188.54,38.49Zm-24.1,4h0c-.7,0-1.1-.4-1.4-1.1l-.1-.2a11.37,11.37,0,0,0-1.8-3.2,1.08,1.08,0,0,1-.3-.7,2,2,0,0,1,.3-1.1,1.39,1.39,0,0,1,1-.5h0c1.1,0,1.6,1,1.9,1.5l.1.2c.3.5.5.9.8,1.4s.4.7.6,1.1a1.81,1.81,0,0,1,0,2A1.15,1.15,0,0,1,164.44,42.49Zm-2.1-5.4c.1.1.2.3.3.4C162.54,37.39,162.34,37.19,162.34,37.09Zm7.5,3.9h-.2c-.9-.2-1.1-.9-1.3-1.3l-.1-.2a25.49,25.49,0,0,0-1.3-3.9.75.75,0,0,1-.1-.5,1.55,1.55,0,0,1,1.3-1.7h0a1.93,1.93,0,0,1,1.8,1.6l.1.2c.5,1.3.9,2.6,1.3,3.9a.85.85,0,0,1,0,.7A1.62,1.62,0,0,1,169.84,41Zm-.1-1.9h0c0,.1.1.2.1.3h0a14.24,14.24,0,0,0-.5-1.6A6.47,6.47,0,0,1,169.74,39.09Zm11.6,1.5h-.8v-.2a2.18,2.18,0,0,1-.5-.4c-.5-.8-.1-2,.3-2.8a.6.6,0,0,0,.1-.4,4.33,4.33,0,0,0,.1-.5c.3-1,.7-2.6,2.1-2.6a1.28,1.28,0,0,1,1.2.6c.5.8,0,1.8-.3,2.6-.1.2-.1.3-.2.4a4.33,4.33,0,0,0-.1.5C183.14,38.89,182.74,40.59,181.34,40.59Zm.6-3.1c0,.1-.1.1-.1.2a5,5,0,0,0-.4,1.3A6.61,6.61,0,0,0,181.94,37.49Zm.8-2.2a5.19,5.19,0,0,0-.5,1.2.35.35,0,0,1,.1-.2C182.44,36,182.64,35.59,182.74,35.29Zm-7.5,4.3a1.18,1.18,0,0,1-1.1-.7l-.1-.1a7.6,7.6,0,0,1-.4-3.4v-.8a2,2,0,0,1,.8-2,1.88,1.88,0,0,1,.8-.2,1.54,1.54,0,0,1,1.5,1.5,22.57,22.57,0,0,0,.1,3.7,2.09,2.09,0,0,1-1.2,2.1C175.54,39.49,175.44,39.59,175.24,39.59Zm-.1-4.8v.6a7.07,7.07,0,0,0,.2,2.5v-.2A14.64,14.64,0,0,1,175.14,34.79Zm0-1c-.1.1,0,.5,0,.6v-.6Z"/><g id="_3" data-name=" 3"><path class="cls-34" d="M223.44,171.79c-3.5-6-7.6-11.6-13-16a29.93,29.93,0,0,0-14-5.8,18.13,18.13,0,0,0-5.2.1,69.38,69.38,0,0,0-11.1,2.8c-.9.3-1.7.7-1.5,1.9.1.9-.5,1.1-1.2,1.1a38.56,38.56,0,0,0-4.9.9,28.58,28.58,0,0,0-8.9,3.1,31.27,31.27,0,0,0-9.5,8.6,16.62,16.62,0,0,0-3.2,9.4c-.2,8.7,2.6,16.3,9.3,22.1a32.4,32.4,0,0,0,8.9,5.5,69.91,69.91,0,0,0,16.1,5,47.06,47.06,0,0,0,7.5.3,51.82,51.82,0,0,0,13.6-1.8,32.53,32.53,0,0,0,13.7-7.3,22.85,22.85,0,0,0,4.7-27.7C224.24,173.19,223.84,172.49,223.44,171.79Zm-11,30.9a37.4,37.4,0,0,1-6.6,2.5,54.35,54.35,0,0,1-18.4,1.7,51.61,51.61,0,0,1-21.6-6.8,23.89,23.89,0,0,1-12.4-16.4c-.9-4.2-.6-8.3,1.8-12a27.07,27.07,0,0,1,10-9.3c3.9-2.2,8-4,12.5-4.3,1-.1,1.3-1.1,2.2-1a12.41,12.41,0,0,0,2.7-.3c.3,0,.6-.1.6-.4,0-.7.6-.6.9-.8a30.39,30.39,0,0,1,7.9-1.9,23.47,23.47,0,0,1,12.2,2.4,26,26,0,0,1,8.5,6.6,55.42,55.42,0,0,1,10.8,15.8c2.4,5.6,1.4,10.9-1.7,15.9-2,3.5-5,5.9-9.4,8.3Z"/><path class="cls-34" d="M214.14,162.89c1.9,3.3,6.1,11.3,6.6,12.7s7.3,16.4-8.5,25.8c-11.7,7-12.7,5.6-12.7,5.6s-18.3,3.8-23.9-.9-34.3-21.6-12.2-41.8c10.8-9.9,9.4-6.6,9.4-6.6l8-2.4,5.6-2.8,6.1-.5,8.9,1.4Z"/><path class="cls-35" d="M197.64,177.29a15.42,15.42,0,0,0-5.3-2.6,39.18,39.18,0,0,0,6.2-6c.4-.5.9-.9.6-1.6a2.42,2.42,0,0,0-3-1.4,20.18,20.18,0,0,1-4.9.9c-2,.1-4-.3-6,0a13.2,13.2,0,0,1-5.6-.4,1.48,1.48,0,0,0-1.9.8,1.57,1.57,0,0,0,.6,1.9,3.48,3.48,0,0,0,2.2.4c3.1.1,6.3-.3,9.4.1a6.47,6.47,0,0,0,2.4-.1,2.62,2.62,0,0,1,1.5-.2,4.28,4.28,0,0,1-1.4,1.6c-3.1,2.5-5.8,5.3-9.6,6.8a1.55,1.55,0,0,0-1.1,2c0,.1.1.2.1.4.9,1.2,2.9,1.7,3.8.2a2.54,2.54,0,0,1,1.2-1.1,18.83,18.83,0,0,1,3.9-1.6,1.93,1.93,0,0,1,1.5.1c.8.3,1.6.8,2.4,1.2,1.8,1.3,2.9,3.1,2.4,5.4-1,4.4-3.2,7.9-7.5,9.5a9.52,9.52,0,0,1-9.1-.7,3.29,3.29,0,0,0-1.7-.4,1.88,1.88,0,0,0-1.7,2v.1a2.37,2.37,0,0,0,2.3,1.6,3.36,3.36,0,0,1,2.2.2,9.75,9.75,0,0,0,6.3.5,18.76,18.76,0,0,0,6.1-2.3c3.3-2.2,5.1-5.5,6.2-9.3C201.34,182.19,199.54,178.69,197.64,177.29Z"/></g></g></g></g></g></g></svg>