<?xml version="1.0" encoding="utf-8"?>
<!-- Generator: Adobe Illustrator 25.2.3, SVG Export Plug-In . SVG Version: 6.00 Build 0)  -->
<svg version="1.1" id="Capa_1" xmlns="http://www.w3.org/2000/svg" xmlns:xlink="http://www.w3.org/1999/xlink" x="0px" y="0px"
	 viewBox="0 0 72 88" style="enable-background:new 0 0 72 88;" xml:space="preserve">
<style type="text/css">
	.st0{fill:#D9E8E8;}
	.st1{fill:none;stroke:#5D9E9B;stroke-width:2;stroke-miterlimit:10;}
	.st2{fill:#EAA42D;}
	.st3{clip-path:url(#SVGID_2_);fill:none;stroke:#5D9E9B;stroke-width:2;stroke-miterlimit:10;}
	.st4{fill:#FAEACE;}
	.st5{fill:#F7DCAD;}
	.st6{fill:#BAD3D2;}
	.st7{fill:#5D9E9B;}
	.st8{fill:#FFDC6E;}
	.st9{fill:none;stroke:#5D9E9B;stroke-width:1.9403;stroke-miterlimit:10;}
	.st10{fill:#FFDC6F;}
	.st11{fill:#333333;}
	.st12{fill:#EAA42C;}
	.st13{fill:none;stroke:#5D9E9B;stroke-width:1.8148;stroke-miterlimit:10;}
	.st14{clip-path:url(#SVGID_4_);fill:none;stroke:#5D9E9B;stroke-width:1.8148;stroke-miterlimit:10;}
</style>
<g>
	<g>
		<path class="st7" d="M18.1,87.8c-6.2-5-12.4-10.7-16.4-17.6C1,69.1-0.3,65.3,0,64c0.5-2.2,3.5-3,5.6-2.2s3.4,2.9,4.7,4.8
			c2.4,3.6,4.7,7.2,7.1,10.8c-3-8.9-4.9-18.3-5.5-27.7c-0.2-2.6,0-5.7,2.3-7c1.9-1.1,4.4-0.1,5.8,1.6c1.4,1.7,1.9,3.9,2.3,6.1
			c2.4,12.5,3.5,24.7,2.7,37.4"/>
	</g>
	<g>
		<path class="st7" d="M50.2,88.5c0-0.5-3-53.9,14-82.8l1.7,1C49.2,35.1,52.1,87.8,52.2,88.3L50.2,88.5z"/>
	</g>
	<g>
		<circle class="st8" cx="61.7" cy="10.3" r="10.3"/>
	</g>
</g>
</svg>
