<?xml version="1.0" encoding="utf-8"?>
<!-- Generator: Adobe Illustrator 24.1.2, SVG Export Plug-In . SVG Version: 6.00 Build 0)  -->
<svg version="1.1" id="Capa_1" xmlns="http://www.w3.org/2000/svg" xmlns:xlink="http://www.w3.org/1999/xlink" x="0px" y="0px"
	 viewBox="0 0 160 96" style="enable-background:new 0 0 160 96;" xml:space="preserve">
<style type="text/css">
	.st0{fill:none;stroke:#5D9E9B;stroke-width:1.8148;stroke-miterlimit:10;}
	.st1{fill:#D9E8E8;}
	.st2{fill:#FAEACE;}
	.st3{fill:#F7DCAD;}
	.st4{fill:#5D9E9B;}
	.st5{fill:none;stroke:#5D9E9B;stroke-width:1.9403;stroke-miterlimit:10;}
	.st6{fill:#FFDC6E;}
	.st7{fill:none;}
	.st8{fill:#BAD3D2;}
	.st9{fill:#FFDC6F;}
	.st10{fill:#333333;}
	.st11{fill:#EAA42C;}
	.st12{fill:#EAA42D;}
</style>
<path class="st0" d="M107.4,95.1c6.7-15.8,13.6-33.2,10.3-50.1c-2.2-11.4-9-21.2-17.2-28.3c-5.5-4.7-12-8.4-19-8.1
	C75,9,68.7,13.2,65.3,19.4c-3.4,6.2-5.8,13.3-3.1,19.8c1.1,2.5,4.5,4.6,6.7,3.1c0,0,5.8-3.6-0.9-15c-4.8-8.1-13.2-10.9-13.2-10.9
	c-6.5-2.3-13.9-2.1-20.1,1.5S24,28.7,23.9,36.4c-0.1,5.5,3.9,11.8,8.6,10.1c3-1.1,4.5-5.4,3.6-8.8c-0.8-3.4-3.4-5.9-6.2-7.4
	C20.6,25.2,7.5,30,3.2,40.7c-5,12.5,1.4,25.6,7.2,33.9C18,85.5,36.5,94.9,36.5,94.9"/>
<path class="st1" d="M-1850.1,5418c0,0,119,24.1,292.7,7c173.9-17.1,259.7-23.3,364.9-5.9c256.8,42.5,353.9-9.2,512.3-4.9
	c203,5.5,271.5,23.2,271.5,23.2v-247.9c0,0-132.6-19.8-313.6-4.2c-123.4,10.7-304.8-6.8-406.4-10.7c-106.1-4.2-254,14.6-433.2,15.6
	c-197.8,1.1-288.3-15.5-288.3-15.5"/>
<path class="st2" d="M-408.6,2311.4v-329.8c-95.8-40.7-287.9-38.5-383.1-23.9s-211.5,27.5-363,11.4
	c-116.4-12.4-195.9-15.1-318.8,0.8s-146.9,12.2-224.8,3.3c-98.4-11.3-150.2,9.2-150.2,9.2v341.5c0,0,43.2,14.2,146.2,14.2
	c83,0,160.5-15.7,235.9-12.2c75.4,3.4,144.4,14.5,279.8,2.1c205.9-18.9,245.6-17.1,360.8-4C-593.2,2350.2-512.8,2306.3-408.6,2311.4
	z"/>
<path class="st3" d="M-1828.5,1996.9c0,0-7.6,2.1-5.9,7.6s8.9,6.8,11.5,4.2S-1820.9,1996.5-1828.5,1996.9z"/>
<path class="st3" d="M-431.8,1998.1c0,0-7.6,2.1-5.9,7.6s8.9,6.8,11.5,4.2C-423.8,2007.4-424.2,1997.7-431.8,1998.1z"/>
<path class="st3" d="M-460.3,1988.6c0,0-7.6,2.1-5.9,7.6s8.9,6.8,11.5,4.2C-452.2,1998-452.6,1988.2-460.3,1988.6z"/>
<path class="st3" d="M-841.5,1982c0,0-7.6,2.1-5.9,7.6c1.7,5.5,8.9,6.8,11.5,4.2C-833.4,1991.4-833.8,1981.6-841.5,1982z"/>
<path class="st3" d="M-1633.1,1994.9c0,0-7.6,2.1-5.9,7.6s8.9,6.8,11.5,4.2C-1625,2004.2-1625.5,1994.5-1633.1,1994.9z"/>
<path class="st3" d="M-1813.9,1989.7c0,0-2.4,3.2,0,4.8c2.4,1.7,5.6-0.1,5.8-1.8C-1807.8,1990.9-1811,1987.2-1813.9,1989.7z"/>
<path class="st3" d="M-1809.2,2007.7c0,0-2.4,3.2,0,4.8s5.6-0.1,5.8-1.8S-1806.4,2005.2-1809.2,2007.7z"/>
<path class="st3" d="M-1351.7,1993.6c0,0-2.4,3.2,0,4.8c2.4,1.7,5.6-0.1,5.8-1.8C-1345.7,1994.8-1348.8,1991.1-1351.7,1993.6z"/>
<path class="st3" d="M-450,2012.1c0,0-2.4,3.2,0,4.8s5.6-0.1,5.8-1.8C-444,2013.3-447.1,2009.6-450,2012.1z"/>
<path class="st3" d="M-672.8,1965.3c0,0-2.4,3.2,0,4.8c2.4,1.7,5.6-0.1,5.8-1.8C-666.8,1966.5-669.9,1962.8-672.8,1965.3z"/>
<path class="st3" d="M-1431.4,1979.7c0,0-2.4,3.2,0,4.8c2.4,1.7,5.6-0.1,5.8-1.8C-1425.3,1980.9-1428.5,1977.2-1431.4,1979.7z"/>
<g>
	<g>
		<path class="st4" d="M-1771.4,1978.3c-6.2-5-12.4-10.7-16.4-17.6c-0.7-1.2-1.9-4.9-1.6-6.3c0.5-2.2,3.5-3,5.6-2.2s3.4,2.9,4.7,4.8
			c2.4,3.6,4.7,7.2,7.1,10.8c-3-8.9-4.9-18.3-5.5-27.7c-0.2-2.6,0-5.7,2.3-7c1.9-1.1,4.4-0.1,5.8,1.6s1.9,3.9,2.3,6.1
			c2.4,12.5,3.5,24.7,2.7,37.4"/>
	</g>
	<path class="st5" d="M-1738.3,1978.8c0,0-3.2-53.3,13.9-82.3"/>
	<circle class="st6" cx="-1727.9" cy="1900.8" r="10.3"/>
</g>
<line class="st7" x1="-552.2" y1="2320.1" x2="-559.6" y2="2380.3"/>
<line class="st7" x1="-541" y1="2315" x2="-530.6" y2="2374.8"/>
<line class="st7" x1="-546.7" y1="2323.8" x2="-545.5" y2="2384.4"/>
<path class="st8" d="M-1823.4,5228.5c0,0-7.6,2.1-5.9,7.6s8.9,6.8,11.5,4.2C-1815.4,5237.9-1815.8,5228.1-1823.4,5228.5z"/>
<path class="st8" d="M-440.9,5202.6c0,0-7.6,2.1-5.9,7.6s8.9,6.8,11.5,4.2C-432.8,5211.9-433.3,5202.2-440.9,5202.6z"/>
<path class="st8" d="M-458.3,5212.6c0,0-3.6,1-2.8,3.6c0.8,2.6,4.2,3.2,5.4,2S-454.7,5212.4-458.3,5212.6z"/>
<path class="st8" d="M-1800.8,5244.5c0,0,0.1,4.3,3.2,4.2c3.2-0.1,4.8-3.8,3.8-5.5S-1800,5240.4-1800.8,5244.5z"/>
<path class="st8" d="M-1820.2,5260.6c0,0,0.1,4.3,3.2,4.2c3.2-0.1,4.8-3.8,3.8-5.5C-1814.1,5257.6-1819.3,5256.5-1820.2,5260.6z"/>
<path class="st8" d="M-680.2,5211.9c0,0,0.1,4.3,3.2,4.2s4.8-3.8,3.8-5.5C-674.1,5209-679.3,5207.8-680.2,5211.9z"/>
<path class="st8" d="M-1391.1,5227.8c0,0,0.1,4.3,3.2,4.2c3.2-0.1,4.8-3.8,3.8-5.5C-1385,5224.9-1390.3,5223.7-1391.1,5227.8z"/>
<path class="st8" d="M-1634.2,5216c0,0,0.1,4.3,3.2,4.2c3.2-0.1,4.8-3.8,3.8-5.5S-1633.4,5211.9-1634.2,5216z"/>
<g>
	<path class="st9" d="M-448.6,5154.7l-83.8-20.3c0,0,3.1,41.7,39.8,48.8S-448.6,5154.7-448.6,5154.7z"/>
	<polygon class="st9" points="-419.7,5139.4 -429.9,5130.9 -446.9,5152 	"/>
	<circle class="st10" cx="-515.7" cy="5149.9" r="3.4"/>
	<path class="st11" d="M-520.8,5137.2l-8.6,11.1c0,0-3.1-11.5-3-13.9L-520.8,5137.2z"/>
</g>
<g>
	<path class="st0" d="M158.5,88.6c0,0,4.8-41-17.9-69.1"/>
	<path class="st12" d="M142.5,10l-6-9.7c-0.1-0.2-0.3-0.1-0.3,0.1v5.5c0,0.2-0.2,0.3-0.3,0.2l-5.6-3.6c-0.3-0.2-0.7,0.1-0.6,0.4
		l1,5.8c0.1,0.1-0.1,0.2-0.2,0.2l-4.7-1.7c-0.1,0-0.3,0.2-0.2,0.3l5.8,9.3c-0.2,0.9-0.4,1.8-0.4,2.7c0,5.4,4.3,9.7,9.7,9.7
		s9.7-4.3,9.7-9.7C150.4,14.8,147,10.8,142.5,10z"/>
</g>
</svg>
