<svg xmlns="http://www.w3.org/2000/svg" viewBox="0 0 319.4 166.08"><defs><style>.cls-11{fill:#64b2ae;}.cls-12{fill:#fdddca;}.cls-13{fill:#333;}.cls-14{fill:#edb65f;}.cls-15{fill:#fff;}</style></defs><title>Recurso 1</title><g id="Capa_2" data-name="Capa 2"><g id="Capa_1-2" data-name="Capa 1"><g id="Capa_2-2" data-name="Capa 2"><g id="Capa_1-2-2" data-name="Capa 1-2"><g id="Conoce"><g id="Iconos"><g id="Conocerse"><path class="cls-11" d="M11.7,46.1c1.3,0,18.8.3,18.8.3S31.8,33,32.8,31.7s3.8-13.2,5.3-14.9S45.5,7.9,48,6.7s7.6-4.1,8.9-4.1,7.3.2,9.4.5a45,45,0,0,1,7.3,1.5c1.5.5,9.4,8.1,10.1,8.6s5.1,8.1,5.3,9.1,4.3,16.5,4.6,18,1.5,4.3,1.5,5.1,2.8.3,3.8.5,13.2.2,15,.5,9.4-.5,9.4-.5,1.3,2.5,1,3.8,0,7.9,0,7.9-8.4.5-9.4.5l-59.3.2H9.9l-8.1-1,.8-10.6Z"/><path class="cls-12" d="M35,65.1l12.4,1s27.1-.5,27.9-.2S91,65.3,91,65.3l2,2.8-2,7.6L81.1,89.4S65.6,97,62.6,96s-8.4-2.8-9.6-2.8-7.6-3-7.6-3l-5.3-4.3s-3.8-5.4-4.1-6.4-3.3-8.1-3.3-8.1l-.5-5.3Z"/><path class="cls-12" d="M189.1,66.1l12.4,1s27.1-.5,27.9-.3,15.7-.5,15.7-.5l2,2.8-2,7.6-9.9,13.7S219.7,98,216.7,97s-8.4-2.8-9.6-2.8-7.6-3-7.6-3l-5.3-4.3s-3.8-5.3-4.1-6.3-3.3-8.1-3.3-8.1l-.5-5.3Z"/><path class="cls-12" d="M199.5,33.9c1,.2,14.4-3.5,14.4-3.5l6.1-.3,14.2,5.8,8.6,10.6s3,9.6,3,10.4-4.6,1.8-5.3,2-33.5,0-33.5,0H186.8l.3-6.8,4.6-9.6Z"/><path class="cls-11" d="M37,94a14.75,14.75,0,0,1,5.3,2.3,43,43,0,0,0,7.1,3.6c1,.2,8.6,4.3,12.4,4.3s7.9-2.8,9.6-2,9.9-3.3,11.7-4.3S89,94,89,94l4.3,3s8.9,10.1,9.4,11.2,4.6,8.6,4.8,9.4,2.8,10.6,3,11.7,1,6.6,1,7.4-.5,6.6-.5,6.6-4.8,3.8-5.6,3.8-10.9,4.8-11.9,5.3-12.9,4.3-14.4,4.6-22.8,1.5-25.3,1-18.3-3.8-19.3-4.1-7.9-4.6-8.9-4.6-6.1-3.6-6.9-4.3-1.5-4.6-2.8-5.3-.5-7.6-.2-8.4,1-9.1,1-9.1l3.6-8.1,6.1-9.4,7.9-8.9Z"/><path class="cls-11" d="M190.4,95.3a14.75,14.75,0,0,1,5.3,2.3,43,43,0,0,0,7.1,3.6c1,.2,8.6,4.3,12.4,4.3s7.9-2.8,9.6-2,9.9-3.3,11.7-4.3,5.8-3.8,5.8-3.8l4.3,3s8.9,10.1,9.4,11.2,4.6,8.6,4.8,9.4,2.8,10.7,3,11.7,1,6.6,1,7.4-.5,6.6-.5,6.6-4.8,3.8-5.6,3.8-10.9,4.8-11.9,5.3-12.9,4.3-14.4,4.6-22.8,1.5-25.4,1-18.2-3.8-19.3-4.1-7.9-4.6-8.9-4.6-6.1-3.6-6.8-4.3-1.5-4.6-2.8-5.3-.5-7.6-.2-8.4,1-9.1,1-9.1l3.6-8.1,6.1-9.4,7.9-8.9Z"/><path class="cls-13" d="M63.1,97.2c-16.8,0-31.8-14.8-32-31.7V63.7H95.3v1.8C94.9,82.4,79.9,97.2,63.1,97.2Zm-28.5-30A29.55,29.55,0,0,0,43.1,85a28,28,0,0,0,20,8.8A28.27,28.27,0,0,0,83.2,85a29.85,29.85,0,0,0,8.5-17.7Z"/><path class="cls-13" d="M126.3,59.3H0v-15H29.7a68.72,68.72,0,0,1,.8-7.8,73.23,73.23,0,0,1,3.4-13.8A23.29,23.29,0,0,1,35,19.9C40.6,6.9,50,0,62.5,0h.3A27.78,27.78,0,0,1,77.9,4.2c5.9,3.7,10.5,9.9,13.6,18.3a73.9,73.9,0,0,1,4.2,21.8h30.7v15ZM3.5,55.8H122.9V47.7H92.2V46a71.67,71.67,0,0,0-3.9-21.6c-2.9-8.1-7-13.9-12.3-17.2A25.05,25.05,0,0,0,62.6,3.5C51.3,3.5,43,9.6,38,21.7c-.4.9-.7,1.8-1.1,2.7a75,75,0,0,0-3.8,20.5H33v2.8H3.5Z"/><path class="cls-13" d="M63.6,160.5a79.63,79.63,0,0,1-48.8-16.3l-.6-.5V133.1c0-1.2,1.2-27.9,22.5-41.6l1.3-.8,1,1.1a34.39,34.39,0,0,0,24.5,9.9A34,34,0,0,0,88,91.8l1-1.1,1.2.8C111.5,105.2,113,131.9,113,133v10.6l-.7.5A78.63,78.63,0,0,1,63.6,160.5ZM17.6,142c12.7,9.7,29,15,46,15a76.46,76.46,0,0,0,46.1-15.1v-8.8c-.1-1.1-1.8-25.2-20.1-38a38,38,0,0,1-26.1,10,38,38,0,0,1-26-10c-18.7,13-19.8,37.7-19.8,38Z"/><path class="cls-13" d="M216.5,161.5A79.53,79.53,0,0,1,168,145.3l-.6-.5V134.3c0-1.2,1.2-27.7,22.4-41.4l1.3-.8,1,1.1a35.09,35.09,0,0,0,48.7,0l1-1.1,1.2.8c21.4,13.7,22.7,41.1,22.7,41.4v10.5l-.6.5A79.82,79.82,0,0,1,216.5,161.5Zm-45.7-18.4a75.86,75.86,0,0,0,45.7,15c16.8,0,33.1-5.3,45.8-15v-8.7c0-1-1.7-25-20-37.7a38.83,38.83,0,0,1-51.8,0c-18.6,12.9-19.6,37.5-19.6,37.7Z"/><path class="cls-13" d="M216,98.6c-16.6,0-31.4-14.6-31.7-31.3V65.2l63.6.1v1.8C247.6,83.8,232.7,98.6,216,98.6ZM187.8,68.7c1.1,14.2,13.9,26.4,28.2,26.4a27.72,27.72,0,0,0,19.9-8.7,29.19,29.19,0,0,0,8.4-17.6Z"/><path class="cls-13" d="M247.9,60.8H184.1V59c.3-16.8,15.2-31.5,31.9-31.5S247.6,42.2,247.9,59Zm-60.2-3.4h56.6a29.73,29.73,0,0,0-8.4-17.6,27.06,27.06,0,0,0-38.3-1.5l-1.5,1.5A29.19,29.19,0,0,0,187.7,57.4Z"/><path id="heart" class="cls-13" d="M141.7,129.7l-.84-.77c-1.31-1.2-3-2.48-4.81-3.84-4.6-3.47-9.81-7.41-12.55-12.6l-.73-1.56a14.92,14.92,0,0,1-1.12-5.43c0-4.55,1.69-8.41,4.77-10.87a11.18,11.18,0,0,1,11.48-1.47,10.83,10.83,0,0,1,2.42,1.42l.1.08c.46.4.93.81,1.37,1.26a12.25,12.25,0,0,1,1.46-1.32,17.54,17.54,0,0,1,2.39-1.41,11,11,0,0,1,11.44,1.43h0c2.11,1.68,4.64,4.93,4.77,10.85-.11,8.64-7.79,14.52-13.39,18.82l-2.1,1.6a45.72,45.72,0,0,0-3.82,3Zm-8.34-35A8.65,8.65,0,0,0,128,96.58c-1.75,1.4-3.83,4.08-3.83,8.92a12.56,12.56,0,0,0,.92,4.47l.66,1.41c2.46,4.64,7.43,8.4,11.82,11.71,1.5,1.13,2.93,2.21,4.15,3.25,1-.87,2.16-1.71,3.16-2.44l2.08-1.59c6.49-5,12.32-10,12.41-16.82-.08-3.88-1.41-7-3.83-8.91a8.49,8.49,0,0,0-8.8-1.14,14.53,14.53,0,0,0-2,1.18,8.43,8.43,0,0,0-1.89,2l-1,1.56-1-1.56a10.48,10.48,0,0,0-1.94-2A7.94,7.94,0,0,0,137,95.48,8.84,8.84,0,0,0,133.36,94.71Z"/><path class="cls-11" d="M61.7,112.4c2,.2,3.5-.5,4.6.2s5.1,3.6,5.4,4.4,2.7,6.1,2.7,6.8-.2,4-.2,4.7a29.66,29.66,0,0,1-.3,4.2,6.6,6.6,0,0,1-1.2,2.7c-.5.5-3.8,2.5-3.8,2.5l-1.2,2.5-3,2.9s-5.6-3.9-6.4-4.7-3.7-2.7-3.9-3.7-1-2.9-1.3-4.2a11.23,11.23,0,0,1-.3-4.1,14.8,14.8,0,0,0,.8-2.9,19.81,19.81,0,0,1,.8-4.1c.3-.5,1.5-2.5,1.9-3s2.4-2.7,2.4-2.7Z"/><path class="cls-13" d="M64.7,144.9l-1.4-1.3h0c1.8-1.8,3.7-3.7,5.5-5.6l3.2-3.2a3.69,3.69,0,0,0,.7-1.4l.2-.4c1.5-4.7-.2-10.3-1-12.5a15.31,15.31,0,0,0-3.1-5.2c-.6-.6-2.6-2.6-4.6-2.4l-.2-2c2.8-.2,5.3,2,6.2,3a19.13,19.13,0,0,1,3.5,5.8c.9,2.4,2.8,8.5,1,13.8l-.1.4a5.29,5.29,0,0,1-1.1,2.1l-3.2,3.2C68.4,141.2,66.6,143.1,64.7,144.9Z"/><path class="cls-13" d="M64.7,145.38l-1.9-1.77.25-.25c1.82-1.82,3.7-3.7,5.5-5.6l3.2-3.2a3.48,3.48,0,0,0,.61-1.22l0-.09.2-.4c1.44-4.54-.23-10.06-1-12.23a14.93,14.93,0,0,0-3-5.08c-1.63-1.64-3.09-2.42-4.31-2.29l-.34,0-.27-2.71.36,0c3.36-.26,6.17,2.77,6.48,3.11A19.5,19.5,0,0,1,74,119.58c.91,2.43,2.83,8.66,1,14l-.09.37a5.69,5.69,0,0,1-1.17,2.24l-3.35,3.35c-1.86,2-3.62,3.81-5.48,5.58Zm-.9-1.78.9.82c1.76-1.68,3.44-3.45,5.22-5.32l.13-.14,3.2-3.2a4.89,4.89,0,0,0,1-1.94l.1-.4c1.76-5.19-.1-11.23-1-13.59a18.76,18.76,0,0,0-3.43-5.69c-.27-.31-2.68-2.88-5.55-2.9l.13,1.3c2,0,3.89,1.88,4.53,2.52a15.67,15.67,0,0,1,3.18,5.32c.81,2.24,2.53,7.94,1,12.73l-.2.41a3.94,3.94,0,0,1-.75,1.49l-3.23,3.24C67.33,140.06,65.54,141.86,63.8,143.6Z"/><path class="cls-13" d="M62.5,144.9c-1.8-1.9-3.7-3.7-5.5-5.6l-3.2-3.2a4.29,4.29,0,0,1-1.2-2.3l-.1-.2c-1.7-5.3.2-11.4,1-13.8A17,17,0,0,1,57,114c.7-.8,3.3-3.2,6.2-3l-.2,2c-1.6-.2-3.5,1.1-4.6,2.4a12.92,12.92,0,0,0-3,5.2c-.8,2.2-2.5,7.8-1,12.5l.1.3a3.48,3.48,0,0,0,.7,1.5l3.1,3.2c1.8,1.9,3.7,3.8,5.5,5.6Z"/><path class="cls-13" d="M62.48,145.4l-.23-.25c-.9-1-1.82-1.87-2.75-2.8s-1.85-1.85-2.75-2.81l-3.2-3.19a4.66,4.66,0,0,1-1.29-2.44l-.07-.15c-1.22-3.77-.88-8.49,1-14.07a17.46,17.46,0,0,1,3.57-5.92c.12-.13,3-3.33,6.48-3.11l.36,0-.27,2.72-.35-.05c-1.47-.19-3.26,1.06-4.29,2.28a12.55,12.55,0,0,0-2.93,5.07c-.8,2.19-2.47,7.72-1,12.3l.1.29a3.21,3.21,0,0,0,.65,1.41l3.07,3.16c1.81,1.91,3.68,3.78,5.5,5.6l.25.25Zm.33-34.06c-2.39,0-4.65,1.87-5.55,2.9a16.77,16.77,0,0,0-3.43,5.68c-1.81,5.43-2.14,10-1,13.58l.12.26a3.91,3.91,0,0,0,1.1,2.1l3.2,3.2c.9.95,1.82,1.87,2.75,2.8s1.69,1.69,2.52,2.55l.77-.71c-1.73-1.74-3.52-3.53-5.24-5.36L55,135.15a3.87,3.87,0,0,1-.8-1.69l-.08-.25c-1.53-4.79.19-10.49,1-12.72a13.22,13.22,0,0,1,3.07-5.32,6.67,6.67,0,0,1,4.52-2.54h0Z"/><rect class="cls-13" x="62.4" y="111.2" width="2.5" height="41"/></g></g><path class="cls-14" d="M275.1,103.2c5.1,2.5,11.6,3.6,16.3,5.6,19.9,8.7,25.3,25.4,18.3,37.2-6.6,11.2-18.8,17.8-18.8,17.8l-18.8-1.5-24.9-20.4-7.1-15.3,5.6-13.2,9.7-7.6,14.8-2.5h4.9Z"/><path class="cls-14" d="M309.4,153.8c-5.6,4.6-11.7,8.6-18.6,10.9a30.65,30.65,0,0,1-15.9.6,18.68,18.68,0,0,1-5.1-2,75.41,75.41,0,0,1-9.9-6.8c-.8-.7-1.4-1.3-.8-2.4.4-.9-.1-1.3-.8-1.6a48.26,48.26,0,0,1-4.5-2.6,29.1,29.1,0,0,1-7.6-6.4,32,32,0,0,1-6.2-12,17.56,17.56,0,0,1,.2-10.4c2.9-8.6,8.5-15,17.2-18.3a35.17,35.17,0,0,1,10.7-2.2,79.71,79.71,0,0,1,17.6,1,47.14,47.14,0,0,1,7.5,2.5,55.45,55.45,0,0,1,12.7,6.8,32.52,32.52,0,0,1,10.8,12.2,23.83,23.83,0,0,1-5.4,28.9Zm.4-34.4a43.68,43.68,0,0,0-5.6-4.9,56.6,56.6,0,0,0-17.5-8.4,52.74,52.74,0,0,0-23.7-1.2c-7.7,1.2-13.9,4.8-18.1,11.5-2.4,3.8-3.6,7.9-2.6,12.4a29.79,29.79,0,0,0,6.4,12.8c3.1,3.6,6.4,6.8,10.8,8.8,1,.4.8,1.6,1.8,1.9a11.88,11.88,0,0,1,2.5,1.3c.2.1.5.4.4.6-.2.7.3.8.6,1.1a29.62,29.62,0,0,0,7,4.7,26,26,0,0,0,12.9,2.2c3.9-.2,7.3-1.7,10.8-3.4,6-3,11.7-6.6,16.3-11.6,4.4-4.7,5.3-10.2,4.1-16.2C315.3,126.9,313.2,123.4,309.8,119.4Z"/><path class="cls-15" d="M275.4,130.3c.8-1.4,1.7-2.7,2.6-4.2a4.87,4.87,0,0,1,.1,1.2,77.73,77.73,0,0,0-.6,9.7,50.89,50.89,0,0,0-.3,7.8,1.08,1.08,0,0,1-.2.8c-1.3,2.1-.2,3.5,1.1,4.5a2.13,2.13,0,0,0,2.3.1,2.44,2.44,0,0,0,1.5-2c.1-1.1-.6-1.9-.5-3,.1-1.7,0-3.4,0-5.1,0-1.2.5-2.4.2-3.7a11.3,11.3,0,0,1,0-2.6c.1-2.9.5-5.8.6-8.8a27.33,27.33,0,0,1,1-7.6,2.38,2.38,0,0,0-1.7-3h-.1a2.24,2.24,0,0,0-2.9,1.2.6.6,0,0,0-.1.4,14.16,14.16,0,0,1-.4,2c-1.2,2.6-2.4,5.1-3.8,7.5a5.19,5.19,0,0,1-1.7,1.9,2.29,2.29,0,0,0-1.1,2.4,2.19,2.19,0,0,0,1.9,1.4C274,131.2,274.9,131.4,275.4,130.3Z"/></g></g></g></g></g></svg>