<?xml version="1.0" encoding="utf-8"?>
<!-- Generator: Adobe Illustrator 22.1.0, SVG Export Plug-In . SVG Version: 6.00 Build 0)  -->
<svg version="1.1" id="Capa_1" xmlns="http://www.w3.org/2000/svg" xmlns:xlink="http://www.w3.org/1999/xlink" x="0px" y="0px"
	 viewBox="0 0 163.2 130.1" style="enable-background:new 0 0 163.2 130.1;" xml:space="preserve">
<style type="text/css">
	.st0{fill-rule:evenodd;clip-rule:evenodd;fill:#EDB65F;}
	.st1{fill:#FFFFFF;}
</style>
<g id="_x33_">
	<path class="st0" d="M154.8,46.8C147.4,34,138.6,22.1,127,12.7c-8.7-7-19-10.6-29.8-12.4C93.5-0.3,89.7,0,86.1,0.6
		C78,2,70.2,3.9,62.5,6.6c-2,0.7-3.6,1.5-3.3,4c0.2,1.9-1.1,2.4-2.6,2.5c-3.6,0.2-7,1.2-10.5,1.8c-6.6,1.2-13,3.3-18.9,6.7
		C19.1,26.2,12.4,32.4,7,39.9c-4.4,6-6.7,12.9-6.9,20c-0.5,18.6,5.6,34.7,19.9,47.2c5.6,4.9,11.9,8.7,18.9,11.7
		c11.1,4.7,22.4,8.5,34.3,10.6c5.4,1,10.7,0.6,16.1,0.6c9.8,0,19.5-1.4,29-3.8c11-2.7,20.7-8,29.2-15.7c15.8-14.2,21.2-38.8,10.1-59
		C156.5,50,155.7,48.4,154.8,46.8z M131.3,112.7c-3.2,1.5-8.4,3.8-14,5.3c-12.9,3.5-26.1,4.5-39.3,3.6c-16.5-1.1-31.7-6.6-46.1-14.5
		C18.1,99.4,8.8,88,5.6,72.3c-1.8-8.9-1.2-17.6,3.8-25.5C14.8,38.3,22,31.8,30.6,27c8.3-4.7,17.1-8.4,26.7-9.2
		c2.1-0.2,2.7-2.4,4.8-2.2c1.9,0.1,3.8-0.4,5.7-0.6c0.6-0.1,1.3-0.3,1.3-0.9c0-1.4,1.2-1.3,2-1.6c5.4-2,11.1-3.4,16.8-4
		c9.1-0.9,17.8,1.4,26.1,5c7.2,3.1,12.8,8.4,18.1,14.1c9.4,10.1,17.6,20.9,23,33.7c5.1,12,2.9,23.3-3.6,33.9
		C147.1,102.5,140.7,107.7,131.3,112.7z"/>
	<path class="st0" d="M135.1,28c4,7,13,24,14,27s15.4,34.9-18,55c-25,15-27,12-27,12s-39,8-51-2s-73-46-26-89c23-21,20-14,20-14
		l17-5l12-6l13-1l19,3L135.1,28z"/>
	<path class="st1" d="M99.9,58.6c-3.4-2.5-7-4.3-11.3-5.5c5-4,9.3-8.2,13.3-12.9c0.8-1,1.8-1.9,1.2-3.4c-1-2.4-3.9-3.8-6.4-3.1
		c-3.4,1-6.9,1.5-10.4,1.8c-4.3,0.3-8.5-0.7-12.8,0c-3.9,0.6-7.9,0.2-11.8-0.9c-1.7-0.5-3.4,0.1-4.1,1.8c-0.6,1.6-0.2,3,1.4,4.1
		c1.5,1.2,3.2,0.8,4.7,0.8c6.7,0.2,13.4-0.6,20.1,0.3c1.7,0.2,3.3,0.2,5-0.2c1-0.2,2-0.9,3.3-0.4c-0.7,1.6-1.9,2.5-3,3.4
		C82.5,49.7,76.6,55.8,68.7,59c-2.3,1-3.2,3.5-2,5.1c1.9,2.7,6.1,3.6,8.2,0.5c0.7-1,1.5-1.7,2.6-2.3c2.6-1.6,5.5-2.4,8.4-3.3
		c1-0.3,2.2-0.3,3.3,0.2c1.7,0.8,3.5,1.5,5.1,2.6c3.9,2.8,6.1,6.6,5.1,11.5c-2.1,9.4-6.7,16.9-16,20.3C76.5,96,70,96.1,63.8,91.9
		c-1.1-0.7-2.4-0.9-3.6-0.7c-2.3,0.3-3.9,2.3-3.6,4.4c0.2,1.6,3.2,3.8,4.8,3.3c1.7-0.5,3.2-0.2,4.7,0.4c4.4,1.9,8.9,2.2,13.5,1
		c4.5-1.1,9.1-2.2,13-4.9c7-4.7,10.9-11.7,13.2-19.8C107.8,69.1,103.9,61.7,99.9,58.6z"/>
</g>
</svg>
