<?xml version="1.0" encoding="utf-8"?>
<!-- Generator: Adobe Illustrator 22.1.0, SVG Export Plug-In . SVG Version: 6.00 Build 0)  -->
<svg version="1.1" id="Capa_1" xmlns="http://www.w3.org/2000/svg" xmlns:xlink="http://www.w3.org/1999/xlink" x="0px" y="0px"
	 viewBox="0 0 156.4 136.5" style="enable-background:new 0 0 156.4 136.5;" xml:space="preserve">
<style type="text/css">
	.st0{fill-rule:evenodd;clip-rule:evenodd;fill:#EDB65F;}
	.st1{fill:#FFFFFF;}
</style>
<g id="_x34_">
	<path class="st0" d="M127.7,122.1c-12.9,6.9-26.4,12.3-41.1,14c-10.9,1.3-21.4-1.1-31.5-5.3c-3.4-1.4-6.4-3.6-9.2-6.1
		c-6-5.3-11.6-11.1-16.7-17.4c-1.3-1.6-2.2-3.1-0.7-5c1.2-1.5,0.3-2.6-0.9-3.4c-2.9-2.1-5.3-4.7-7.9-7c-4.9-4.5-9.2-9.6-12.4-15.5
		c-4.3-8.2-6.7-16.9-7.4-26.1C-0.4,43.1,1.2,36,4.7,29.9C14,14.1,27.5,3.7,46,0.8c7.3-1.1,14.6-1.1,22,0.1
		c11.8,1.8,23.2,4.7,34.3,9.1c5,2,9.3,5.1,13.8,7.9c8.3,5.1,15.6,11.4,22.3,18.4c7.8,8.1,13.2,17.6,16.3,28.4
		c5.8,20.2-2.4,43.7-22.3,54.8C130.8,120.4,129.2,121.2,127.7,122.1z M142.3,54.6c-1.9-2.9-5.1-7.6-9-11.8
		c-9-9.7-19.5-17.4-31.1-23.6C87.9,11.4,72.2,8,56,7.1C40.4,6.3,26.7,11,15.8,22.5C9.7,29,5.6,36.6,5.7,45.9
		c0.1,9.9,2.8,19.1,7.5,27.7c4.6,8.3,9.9,16,17.7,21.7c1.7,1.2,1,3.4,2.8,4.4c1.6,0.9,3,2.3,4.5,3.5c0.4,0.4,0.9,0.9,0.6,1.4
		c-0.7,1.2,0.3,1.7,0.8,2.4c3.5,4.6,7.5,8.7,12,12.2c7.2,5.5,15.7,8.1,24.5,9.5c7.7,1.1,15.1-0.3,22.6-2.4
		c13.1-3.6,25.6-8.3,36.8-16.2c10.5-7.4,14.6-18,14.6-30.4C150.2,71.4,147.6,63.7,142.3,54.6z"/>
	<path class="st0" d="M107.2,17.5c13,12,56,57.1,31,92c-10,14-9,9-18,14s-38,14-48,9s-31-19-33-22s-3-6-5-8s-2-4-5-6s-22-29-23-32
		s-5-17-4-20s2-11,4-14s11-11,12-12s12-8,13-9c1-1,10-5,12-5s10-1,14,0s9,1,13,2s24,7,26,8S107.2,17.5,107.2,17.5z"/>
	<path class="st0" d="M6.2,73.4c2.1,6.2,24,43.8,45,53.1c9,4-14.9-78-14.9-78L6.2,73.4z"/>
	<path class="st1" d="M114,73.4c-2.7-1.1-5.1,0.3-7.6,0.7c-3.9,0.6-7.9,0.6-11.9,0.6c-1.3,0-3,1.2-3.8,0.1c-0.7-1-0.4-2.8-0.5-4.2
		c0-0.4,0.2-0.8,0.2-1.2c0.1-6.5,0.1-12.9,0.4-19.4c0.2-4.2-0.4-8.6,1.6-12.6c0.4-0.9,0.4-1.7,0-2.7c-1-2.6-5.6-5.4-8.8-5.2
		c-4.7,0.2-5.7,0.6-6,3.7c-0.5,4.5-2.9,7.9-5,11.4C67,54,61.2,63.3,56.3,73c-1.1,2.2-2.3,4.4-4.3,5.9c-1.8,1.3-3.2,2.8-2.5,5.3
		c0.6,1.9,3.9,3.7,6.1,3.3c3.2-0.5,6.5-1.3,9.7-1.8c5-0.8,10-1.4,15-2.2c1.2-0.2,2.1,0.3,2.1,1.5c0,4.8,0.3,9.8-0.8,14.4
		c-0.8,3.2,0.8,5.3,3.4,6.4c3.4,1.4,6.3-0.6,6.4-4.4c0.1-5.1-1.2-10.1-0.9-15.2c0-0.4,0.1-0.9,0-1.3c-0.2-2.1,0.1-3.2,2.7-3.2
		c3.6,0,7.3-0.4,10.9-0.6c3.3-0.2,6.5,0.1,9.8-0.4c2.2-0.3,3-1.5,3-3.3C116.9,75.7,115.9,74.2,114,73.4z M79.4,76.9
		c-5.5,0.6-11.1,1.5-17.2,2.3c5.9-12.9,13.4-24.5,20.5-36.6c1,2.2,0.7,4.1,0.6,5.9c-0.2,8.3-0.7,16.5-0.8,24.8
		C82.4,75.7,81.7,76.6,79.4,76.9z"/>
</g>
</svg>
