<svg id="wheel1" 
    xmlns="http://www.w3.org/2000/svg" viewBox="0 0 294.25 153.64">
    <defs>
        <style>.cls-41{fill:#64b2ae;}.cls-42{fill:#fff;}.cls-43{fill:#333;}.cls-44{fill:#edb65f;}</style>
    </defs>
    <title>Recurso 1</title>
    <g id="Capa_2" data-name="Capa 2">
        <g id="Capa_1-2" data-name="Capa 1">
            <g id="Capa_2-2" data-name="Capa 2">
                <g id="Capa_1-2-2" data-name="Capa 1-2">
                    <g id="Capa_2-2-2" data-name="Capa 2-2">
                        <g id="Capa_1-2-2-2" data-name="Capa 1-2-2">
                            <g id="Capa_2-2-2-2" data-name="Capa 2-2-2">
                                <g id="Capa_1-2-2-2-2" data-name="Capa 1-2-2-2">
                                    <g id="Envio">
                                        <path class="cls-41" id="truckMats" d="M8.8,2.2l131.5.2.2,111-57.2,1.4s-1.7-12.3-20.7-11.2c-14.5.8-17.8,11-17.8,11L2,113.4,2.2,2.2Z"/>
                                        <g id="Logo">
                                            <g id="Logo-2">
                                                <g id="Hoja">
                                                    <circle class="cls-42" cx="70.9" cy="51.1" r="34.4"/>
                                                    <path class="cls-43" d="M70.9,86.75A35.65,35.65,0,1,1,106.55,51.1,35.69,35.69,0,0,1,70.9,86.75Zm0-68.8A33.15,33.15,0,1,0,104.05,51.1,33.19,33.19,0,0,0,70.9,18Z"/>
                                                    <path class="cls-43" d="M69.5,68.3l-6.9-6.9-3.9-3.9a5.26,5.26,0,0,1-1.3-2.7c-1.7-5-.6-11.3,1.2-16.1a20.62,20.62,0,0,1,4.1-6.8c1.6-1.7,4.5-3.5,7-3.3"/>
                                                    <path class="cls-43" d="M71.8,68.3l6.9-6.9,3.9-3.9A6.59,6.59,0,0,0,84,54.9c1.7-5,.6-11.3-1.2-16.1A19.33,19.33,0,0,0,78.6,32c-1.6-1.7-4.6-3.5-7.1-3.3"/>
                                                    <rect class="cls-43" x="70.5" y="28.7" width="0.3" height="48.5"/>
                                                    <rect class="cls-43" x="70.25" y="28.45" width="0.8" height="49"/>
                                                </g>
                                            </g>
                                        </g>
                                        <path class="cls-41" id="frontTruck" d="M148.2,110.2c.2-1.2.5-65.8.2-67.2s-.2-31.2-.2-32.8A3.63,3.63,0,0,1,152,6.9h.1c2.3.3,11.8-.2,13.8-.2s25,1,26.8,1.2,6.5,1.5,7.5,2.2,11.8,8.5,12.5,9.8,9,11.8,9.8,13.2,3.2,11,4.2,12.2,5,21,5.2,22,.5,10.8.8,12.2-1,9-.5,10-2,38.5-3.8,38.5-14.7,3.8-14.7,3.8-14.9-.6-15.2-1.8c-3.7-17.4-7.8-19.7-7.7-20.3.3-2.2.2-6.1-13.5-6.3s-18.1,6.9-20,10.3c-3.7,6.5-11.2,2.2-11.2,2.2Z"/>
                                        <path class="cls-43" id="wheel2" d="M176.5,150.2a23.21,23.21,0,0,1-16.8-7.1,24.22,24.22,0,0,1,14.6-41,23.76,23.76,0,0,1,18.9,7,24,24,0,0,1,6.8,19.2,23.73,23.73,0,0,1-21.4,21.8A14.08,14.08,0,0,1,176.5,150.2Zm0-44.6a10.87,10.87,0,0,0-1.8.1,20.57,20.57,0,0,0-18.2,22.7,20.28,20.28,0,0,0,5.8,12.2,19.75,19.75,0,0,0,16.1,5.9h0a20.5,20.5,0,0,0,12.3-34.8,19.51,19.51,0,0,0-14.2-6.1Zm0,35h-1.1a14.62,14.62,0,0,1-13.1-13.3,15,15,0,0,1,4.1-11.4,14,14,0,0,1,11.3-4.2h0A14.62,14.62,0,0,1,190.8,125a15,15,0,0,1-4.1,11.4,13.66,13.66,0,0,1-10.2,4.2Zm0-26.7a11.8,11.8,0,0,0-8.5,3.6,12.25,12.25,0,0,0,7.5,20.8,12,12,0,0,0,9.5-3.5,12.25,12.25,0,0,0-7.5-20.8l-1-.1Z"/>
                                        <path class="cls-43" d="M176.5,150.7h0a24,24,0,0,1-17.1-7.2,25,25,0,0,1-7-19.6,24.09,24.09,0,0,1,41.2-15.2,25,25,0,0,1,7,19.6,24.27,24.27,0,0,1-21.9,22.3A15.48,15.48,0,0,1,176.5,150.7Zm0-48.2a12.75,12.75,0,0,0-2,.1,23.29,23.29,0,0,0-21,21.3,23.79,23.79,0,0,0,6.7,18.8,23.09,23.09,0,0,0,16.4,6.9,14.77,14.77,0,0,0,2.1-.1,23.38,23.38,0,0,0,21-21.3,23.41,23.41,0,0,0-23.2-25.7Zm.1,44.6a20.28,20.28,0,0,1-14.6-6.2,21.15,21.15,0,0,1,12.7-35.8,12.1,12.1,0,0,1,1.9-.1l2.5.1-.2.1a20.76,20.76,0,0,1,18.2,18.4,21.1,21.1,0,0,1-18.6,23.3A6.48,6.48,0,0,1,176.6,147.1Zm-1.1-41a1.7,1.7,0,0,0-.7.1,20.17,20.17,0,0,0-13.5,7.4,19.63,19.63,0,0,0-4.3,14.7,19.93,19.93,0,0,0,5.7,11.9,19.5,19.5,0,0,0,15.7,5.8,20.06,20.06,0,0,0-1.9-40Zm1.1,35.1h-1.3a15,15,0,0,1-13.5-13.8,14.78,14.78,0,0,1,4.3-11.8A14.89,14.89,0,0,1,187,136.8,14.52,14.52,0,0,1,176.6,141.2Zm0-29.1a13.45,13.45,0,0,0-9.7,4.1,14.22,14.22,0,0,0-4,11.1,13.82,13.82,0,0,0,12.6,12.8h2.2a14,14,0,0,0,.1-27.9A5.74,5.74,0,0,0,176.6,112.1Zm-.1,26.7h-1a12.53,12.53,0,0,1-11.4-11.6,12.72,12.72,0,0,1,3.6-10,12.17,12.17,0,0,1,8.8-3.7h1a12.74,12.74,0,0,1,7.9,21.6A12.57,12.57,0,0,1,176.5,138.8Zm-.5-24.4a11.39,11.39,0,0,0-7.6,3.4,11.75,11.75,0,0,0,7.2,19.9,11.47,11.47,0,0,0,9.1-3.4,11.75,11.75,0,0,0-7.2-19.9Z"/>
                                        <path class="cls-42" d="M210.1,95.5c.8.9,4,3.9,5.9,3.3s3.2-1,3.9-1.8a6.9,6.9,0,0,0,1.4-3c.1-.8.1-3.2-.3-3.8-.9-.9-1.8-1.8-2.8-2.7l-4.3-.6-3.1,2.5L209.4,92Z"/>
                                        <path class="cls-43" d="M215.8,101.2a7.9,7.9,0,1,1,7.9-7.9h0A8,8,0,0,1,215.8,101.2Zm0-12.8a4.9,4.9,0,1,0,5,4.9A5,5,0,0,0,215.8,88.4Z"/>
                                        <path class="cls-43" d="M63.5,149.5a23.21,23.21,0,0,1-16.8-7.1,24.22,24.22,0,0,1,14.6-41,23.76,23.76,0,0,1,18.9,7A24,24,0,0,1,87,127.6a23.73,23.73,0,0,1-21.4,21.8A14.08,14.08,0,0,1,63.5,149.5Zm0-44.5a10.87,10.87,0,0,0-1.8.1,20.57,20.57,0,0,0-18.2,22.7A20.28,20.28,0,0,0,49.3,140a19.75,19.75,0,0,0,16.1,5.9h0a20.5,20.5,0,0,0,12.3-34.8A19.13,19.13,0,0,0,63.5,105Zm0,35H62.4a14.62,14.62,0,0,1-13.1-13.3,15,15,0,0,1,4.1-11.4,14,14,0,0,1,11.3-4.2h0a14.62,14.62,0,0,1,13.1,13.3,15,15,0,0,1-4.1,11.4A14.46,14.46,0,0,1,63.5,140Zm0-26.7a11.8,11.8,0,0,0-8.5,3.6,12.25,12.25,0,0,0,7.5,20.8,12,12,0,0,0,9.5-3.5,12.25,12.25,0,0,0-7.5-20.8l-1-.1Z"/>
                                        <path class="cls-43" d="M63.5,150h0a24,24,0,0,1-17.1-7.2,25,25,0,0,1-7-19.6A24.09,24.09,0,0,1,80.6,108a25,25,0,0,1,7,19.6,24.27,24.27,0,0,1-21.9,22.3A15.48,15.48,0,0,1,63.5,150Zm0-48.1a12.75,12.75,0,0,0-2,.1,23.29,23.29,0,0,0-21,21.3,23.79,23.79,0,0,0,6.7,18.8A23.09,23.09,0,0,0,63.6,149a14.77,14.77,0,0,0,2.1-.1,23.38,23.38,0,0,0,21-21.3A23.79,23.79,0,0,0,80,108.8,23.25,23.25,0,0,0,63.5,101.9Zm.1,44.5A20.28,20.28,0,0,1,49,140.2a21.08,21.08,0,0,1,12.7-35.7,11.48,11.48,0,0,1,1.9-.1l2.4.1-.2.1A20.74,20.74,0,0,1,84.1,123a21.1,21.1,0,0,1-18.6,23.3A12.75,12.75,0,0,1,63.6,146.4Zm-1.1-40.9a1.7,1.7,0,0,0-.7.1,20,20,0,0,0-12.1,34,19.5,19.5,0,0,0,15.7,5.8,20.06,20.06,0,0,0-1.9-40Zm1.1,35H62.3a15,15,0,0,1-13.5-13.8,15,15,0,0,1,16-16.2,14.89,14.89,0,0,1,13.5,13.8A15.13,15.13,0,0,1,74,136.1,14.52,14.52,0,0,1,63.6,140.5Zm0-29a13.45,13.45,0,0,0-9.7,4.1,14.22,14.22,0,0,0-4,11.1,13.82,13.82,0,0,0,12.6,12.8h2.2a14,14,0,0,0,.1-27.9A5.74,5.74,0,0,0,63.6,111.5Zm-.1,26.7h-1a12.53,12.53,0,0,1-11.4-11.6,12.72,12.72,0,0,1,3.6-10,12.23,12.23,0,0,1,8.9-3.7h1a12.74,12.74,0,0,1,7.9,21.6A13.44,13.44,0,0,1,63.5,138.2ZM63,113.8a11.39,11.39,0,0,0-7.6,3.4,11.75,11.75,0,0,0,7.2,19.9,11.47,11.47,0,0,0,9.1-3.4,11.75,11.75,0,0,0-7.2-19.9Z"/>
                                        <path class="cls-43 borderTruck" d="M140.6,115.5h0l-56.4-.1a1.81,1.81,0,0,1-1.8-1.9h0v-.1c0-1.1-1.7-2-.7-2H92l46.6.1V3.9H3.9V111.6l32.4-.1h9.2c1.1,0,0,.9,0,2s-.1,2-1.2,2H2a2,2,0,0,1-2-2V2A2,2,0,0,1,2,0H140.6a2,2,0,0,1,2,2V113.5a2,2,0,0,1-2,2Z"/>
                                        <circle class="cls-42" cx="63.9" cy="125.7" r="5.6"/>
                                        <path class="borderTruck cls-43" d="M207.6,131.9h-8.8a1.8,1.8,0,0,1,0-3.6h4.6c10.1.1,18.8.2,23.1-4,2-2,3-5,3-9.1V110c0-10.8.1-23-.9-41C226.7,32.3,204,12.2,192.2,9.6c-2.9-.6-19.8-.6-31-.6H150.6c-1.2,0-2.2,1.3-2.2,2.9V116l6,.1a1.71,1.71,0,0,1,1.7,1.8h0a1.71,1.71,0,0,1-1.8,1.7l-6.3-.1a3.2,3.2,0,0,1-3.1-3.2V12c0-3.5,2.6-6.4,5.8-6.4h10.6c16.1,0,28.7,0,31.8.7,11.3,2.6,36.9,21.8,39,62.7.9,18.1.9,30.3.9,41.2v5.1c0,5.1-1.3,8.9-4,11.6C224.4,131.4,216.7,131.9,207.6,131.9Z"/>
                                        <path class="cls-42" d="M173.8,19.8h6.1c10.1,0,17.1,3.5,18.7,19.8v1.2c0,11.3-11.8,9.6-25.1,9.6-3.2,0-6.3-2.6-6.3-7V25.9C167,19.5,170.1,19.8,173.8,19.8Z"/>
                                        <path class="cls-43" d="M182.37,52c-1.37,0-2.79,0-4.25,0s-3.05-.05-4.62-.05c-3.78,0-7.8-3-7.8-8.5V25.9c-.09-2.84.43-4.76,1.64-6,1.57-1.61,3.81-1.6,6-1.59h6.57c12.87,0,18.72,6.13,20.19,21.15V40.8c0,3.29-.9,5.77-2.74,7.59C194.18,51.51,188.79,52,182.37,52ZM172.86,21.3c-1.49,0-2.75.05-3.37.68s-.85,1.91-.79,3.87V43.4c0,3.57,2.47,5.5,4.8,5.5,1.58,0,3.15,0,4.67.05,7.58.11,14.12.21,17.08-2.7,1.25-1.23,1.85-3,1.85-5.45V39.67c-1.52-15.29-7.71-18.37-17.2-18.37h-7Z"/>
                                    </g>
                                </g>
                                <g id="_4" data-name=" 4">
                                    <path class="cls-44" d="M280.6,146.9c-6.1,3.2-12.4,5.8-19.2,6.6a29.68,29.68,0,0,1-14.7-2.4,17.69,17.69,0,0,1-4.3-2.8,74.63,74.63,0,0,1-7.8-8.1c-.6-.8-1-1.4-.3-2.4.6-.7.1-1.2-.4-1.6a38,38,0,0,1-3.7-3.3,27.49,27.49,0,0,1-5.8-7.3,29,29,0,0,1-3.4-12.2,16.24,16.24,0,0,1,2.2-9.6c4.3-7.4,10.7-12.3,19.3-13.6a35.55,35.55,0,0,1,10.3,0,68.87,68.87,0,0,1,16,4.3,50.69,50.69,0,0,1,6.4,3.7,57.24,57.24,0,0,1,10.5,8.6,31.29,31.29,0,0,1,7.7,13.3A22.5,22.5,0,0,1,283,145.7Zm6.8-31.7a38,38,0,0,0-4.2-5.5,56,56,0,0,0-14.5-11.1A49.59,49.59,0,0,0,247,93c-7.3-.4-13.7,1.8-18.8,7.2a15.2,15.2,0,0,0-4.7,11,28.08,28.08,0,0,0,3.5,13,31.38,31.38,0,0,0,8.3,10.2c.8.6.5,1.6,1.3,2a16.6,16.6,0,0,1,2.1,1.6c.2.2.4.4.3.7-.3.6.1.8.4,1.1a33.53,33.53,0,0,0,5.6,5.7,23.87,23.87,0,0,0,11.5,4.4,25.31,25.31,0,0,0,10.6-1.1,52,52,0,0,0,17.2-7.6c4.9-3.5,6.8-8.4,6.8-14.2,0-3.9-1.2-7.5-3.7-11.8Z"/>
                                    <path class="cls-44" d="M271,97.9c6.1,5.6,26.2,26.7,14.5,43.1-4.7,6.6-4.2,4.2-8.4,6.6s-17.8,6.6-22.5,4.2-14.5-8.9-15.4-10.3a31.69,31.69,0,0,0-2.3-3.8c-.9-1-.9-1.9-2.4-2.8s-10.3-13.6-10.8-15-2.3-8-1.9-9.4.9-5.2,1.9-6.6a58.6,58.6,0,0,1,5.6-5.6c.5-.4,5.6-3.8,6.1-4.2a21.3,21.3,0,0,1,5.6-2.3c.9,0,4.7-.5,6.6,0s4.2.5,6.1.9,11.2,3.3,12.2,3.8A38,38,0,0,0,271,97.9Z"/>
                                    <path class="cls-44" d="M223.7,124.1c1,2.9,11.3,20.5,21.1,24.9,4.2,1.9-7-36.5-7-36.5Z"/>
                                    <path class="cls-42" d="M274.1,124.1c-1.3-.5-2.4.1-3.6.3a51.15,51.15,0,0,1-5.6.3c-.6,0-1.4.6-1.8.1s-.2-1.3-.2-2c0-.2.1-.4.1-.6.1-3,.1-6,.2-9.1.1-2-.2-4,.8-5.9a1.48,1.48,0,0,0,0-1.3,4.75,4.75,0,0,0-4.1-2.4c-2.2.1-2.7.3-2.8,1.7a12.1,12.1,0,0,1-2.3,5.3c-2.6,4.4-5.3,8.7-7.6,13.3a6.9,6.9,0,0,1-2,2.8c-.8.6-1.5,1.3-1.1,2.5a3,3,0,0,0,2.8,1.6c1.5-.2,3-.6,4.6-.8,2.3-.4,4.7-.7,7-1,.6-.1,1,.1,1,.7a29.82,29.82,0,0,1-.4,6.7,2.36,2.36,0,0,0,1.6,3,2.12,2.12,0,0,0,2.8-.9,2,2,0,0,0,.2-1.1c.1-2.4-.6-4.7-.4-7.1v-.6c-.1-1,0-1.5,1.3-1.5,1.7,0,3.4-.2,5.1-.3,1.5-.1,3,0,4.6-.2a1.45,1.45,0,0,0,1.4-1.5h0V126A2.56,2.56,0,0,0,274.1,124.1Zm-16.2,1.6c-2.6.3-5.2.7-8,1.1,2.8-6.1,6.3-11.4,9.6-17.2a6.55,6.55,0,0,1,.3,2.8c-.1,3.9-.3,7.7-.4,11.6,0,1.2-.4,1.6-1.5,1.7Z"/>
                                </g>
                            </g>
                        </g>
                    </g>
                </g>
            </g>
        </g>
    </g>
</svg>