<?xml version="1.0" encoding="utf-8"?>
<!-- Generator: Adobe Illustrator 22.1.0, SVG Export Plug-In . SVG Version: 6.00 Build 0)  -->
<svg version="1.1" id="Capa_1" xmlns="http://www.w3.org/2000/svg" xmlns:xlink="http://www.w3.org/1999/xlink" x="0px" y="0px"
	 viewBox="0 0 200 200" style="enable-background:new 0 0 200 200;" xml:space="preserve">
<style type="text/css">
	.st0{display:none;}
	.st1{display:inline;}
	.st2{display:none;fill:none;stroke:#333333;stroke-miterlimit:10;}
	.st3{fill:none;stroke:#EDB65F;stroke-width:7;stroke-miterlimit:10;}
	.st4{fill:#FFFFFF;}
	.st5{fill:none;stroke:#EDB65F;stroke-width:8;stroke-miterlimit:10;}
	.st6{display:none;fill:#EDB65F;}
	.st7{fill:none;stroke:#333333;stroke-width:2;stroke-miterlimit:10;}
	.st8{display:none;fill:#333333;}
	.st9{fill:none;stroke:#333333;stroke-width:1.5;stroke-miterlimit:10;}
	.st10{fill:none;stroke:#EDB65F;stroke-width:9;stroke-miterlimit:10;}
	.st11{fill:#EDB65F;}
	.st12{fill:none;stroke:#231815;stroke-width:2;stroke-miterlimit:10;}
	.st13{fill:none;stroke:#EDB65F;stroke-width:7;stroke-linecap:round;stroke-miterlimit:10;}
	.st14{fill:none;stroke:#00A89C;stroke-width:2;stroke-linecap:round;stroke-miterlimit:10;}
	.st15{fill:none;stroke:#3E3E3E;stroke-width:2;stroke-miterlimit:10;}
	.st16{fill:none;stroke:#333333;stroke-width:3;stroke-linecap:round;stroke-miterlimit:10;}
	.st17{fill:none;stroke:#EDB65F;stroke-width:8;stroke-linecap:round;stroke-miterlimit:10;}
	.st18{fill:none;stroke:#EDB65F;stroke-width:8;stroke-linecap:round;stroke-linejoin:round;stroke-miterlimit:10;}
	.st19{fill:none;stroke:#333333;stroke-width:2;stroke-linecap:round;stroke-miterlimit:10;}
	.st20{fill:none;stroke:#333333;stroke-linecap:round;stroke-linejoin:round;stroke-miterlimit:10;}
</style>
<g id="Unidad_Productiva_2_" class="st0">
	<g id="Unidad_Productiva_1_" class="st1">
		<g id="Mundo_1_">
			<circle class="st2" cx="101.4" cy="133.2" r="56.7"/>
			<path class="st3" d="M159.7,136.4c0.8-12.8-2.6-25-9.1-35.1c-0.1-0.2-0.2-0.4-0.4-0.6c-9.8-15-26.3-25.3-45.6-26.5
				c-11-0.7-21.4,1.7-30.6,6.5c-0.3,0.1-0.5,0.2-0.7,0.4c-13.3,7.1-23.6,19.2-28.3,34c0,0,0,0.1,0,0.1c-1.4,4.5-2.3,9.2-2.6,14.1
				c-2,32.3,22.7,60.2,55,62.2C129.8,193.4,157.7,168.8,159.7,136.4z M141.5,98.5c-0.9-0.3-2.1-0.6-3.4-1.1c-3.2-1-7.2-2.4-10.9-3.1
				c-5-1-7.2-2.1-7.8-3.7c0-1.1,3.1-3.8,4.4-4.9c0.2-0.2,0.4-0.3,0.6-0.5C131,88.4,136.8,92.9,141.5,98.5z M75.8,86.2
				c2.9,0.2,6.5,2.5,7.1,4.3c0.1,0.3,0.3,0.7-0.8,1.5c-1.1,0.8-2.8,1.2-4.6,1.6c-2.6,0.6-5.6,1.3-8.1,3.3c-1.2,1-2.3,1.9-3.2,2.8
				c-1.9,1.7-3.4,3.1-5.9,4.1c-1,0.4-2.2,0.6-3.4,0.8c-0.3,0-0.5,0.1-0.8,0.1C60.9,97,67.8,90.6,75.8,86.2z M48.1,129.6
				c0.2-3.3,0.7-6.6,1.5-9.7c3.2,1.5,8,3.5,11.1,3.7c0.2,0,0.4,0,0.6,0c-1,1.5-1.8,3.2-2.5,4.9c0,0,0,0,0,0c-1.6,3.6-1.3,7.7,0.8,11
				l0.8,1.3c2,3.2,3.8,6,4.3,9.1c0,0.3,0.1,1.1,0.1,2.3c0.3,8.7,1,17.1,3.3,22.2C55,164,47,147.6,48.1,129.6z M70.4,152
				c-0.1-1.5-0.1-2.5-0.2-2.9c-0.7-4.3-2.8-7.7-5.1-11.2l-0.8-1.3c-1.1-1.7-1.2-3.9-0.4-5.8c1.3-2.9,2.8-5.9,4.7-6.4
				c1.4-0.4,3.7,0.4,6.5,2.3c1.7,1.1,3.1,2.6,4.6,4.1c1.5,1.5,3,3,4.9,4.5c1.5,1.2,2.8,1.8,3.8,2.2c0.4,0.2,0.8,0.4,0.8,0.3
				c0,0,0.1,0.5,0,2c-0.3,3.5-4,7.8-7.2,11.6c-1.5,1.8-2.9,3.5-4,5.1l-0.4,0.5c-3.1,4.6-4.7,6.8-5.5,12.1
				C71.4,165.8,70.7,160.5,70.4,152z M97.9,185.9c-8.1-0.5-15.7-2.8-22.4-6.5c0.8-0.1,1.6-0.4,2.4-0.8c0.7-0.4,1.3-1.1,1.5-1.9
				c0.5-1.7-0.6-3.3-1.7-5.2c-0.1-0.1-0.1-0.2-0.2-0.3c0.6-5.1,1.6-6.5,4.8-11.1l0.4-0.5c1-1.4,2.3-3,3.7-4.6
				c3.7-4.4,7.9-9.5,8.4-14.7c0.5-4.9-0.9-6.4-4-7.9c-0.8-0.4-1.7-0.8-2.8-1.6c-1.5-1.2-2.8-2.5-4.2-3.9c-1.6-1.7-3.3-3.4-5.5-4.8
				c-4.5-3-8.1-4-11.2-3.1c-1.1,0.3-2,0.8-2.9,1.5c0-0.3-0.1-0.6-0.3-0.9c-1.1-2.2-3-3.4-4.8-4.5c-1-0.7-2.2-1.4-2.5-2
				c-0.6-1.3-0.8-2-0.9-2.4c0.5-0.1,1.3-0.3,1.9-0.4c1.4-0.2,3.1-0.5,4.7-1.2c3.4-1.4,5.4-3.2,7.5-5.2c0.9-0.8,1.8-1.6,2.9-2.5
				c1.6-1.3,3.7-1.8,6-2.3c2.3-0.5,4.7-1.1,6.7-2.6c2.8-2.1,3.8-4.9,2.8-7.9c-0.8-2.3-2.8-4.3-5.2-5.7c6.6-2.4,13.8-3.5,21.2-3
				c5,0.3,9.8,1.3,14.2,2.9c-2.9,2.7-5.9,6.1-4.4,9.8c1.9,4.8,7.1,6.3,11.9,7.3c3.4,0.7,7.3,2,10.3,3c1.4,0.5,2.6,0.9,3.6,1.1
				c2.4,0.7,4.9,1.1,6.4,1.3c3.5,5.7,6,12.1,7.1,19c-1.3-0.6-2.8-0.8-4-0.9c-0.8-1.5-1.5-3-2.2-4.4c-2.3-5-4.4-9.8-12-11.9
				c-1.4-0.4-3.1-1.1-4.9-1.9c-4.3-1.9-9.2-4.1-14-2.9c-6.3,1.5-14,11-13.4,18.6c0.9,10.1,6.5,10.3,10.6,10.4c1.8,0.1,3.5,0.1,5,0.9
				c1.7,0.9,2.7,9.3,3.2,13.8c1,8.9,1.9,16.7,7,18.4c0.5,0.2,1,0.3,1.5,0.3c3.6,0.2,7-3,8.2-4.2c4.6-4.5,6.1-9.8,7.5-14.8
				c0.5-1.6,0.9-3.2,1.5-4.8c0.3-0.7,2.1-2.7,3.3-3.9c1.2-1.3,2.4-2.5,3.3-3.7c0,1,0,2-0.1,3C152.3,165.3,127.1,187.6,97.9,185.9z
				 M148.1,128.9c0.9,0,1.7,0,2.2,0c-0.7,1.1-2.3,2.8-3.4,3.9c-2,2.2-3.8,4.1-4.5,5.9c-0.6,1.7-1.1,3.4-1.6,5.1
				c-1.3,4.5-2.5,8.8-6.1,12.3c-2.8,2.8-3.9,2.6-3.9,2.6c-1.7-0.6-2.8-9.5-3.2-13.8c-1-8.5-1.8-15.9-6.3-18.1c-2-1-4-1.3-5.8-1.4
				c-0.5,0-1.1,0-1.6-0.1c-3.7-0.1-4.8-0.2-5.2-5.3c-0.4-4.6,5.3-11.7,9.1-12.6c2.9-0.7,6.7,0.9,10.4,2.6c2,0.9,3.8,1.7,5.6,2.2
				c5,1.4,6.3,4.2,8.4,8.8c0.9,1.9,1.9,4.1,3.2,6.4C146,128.5,147.1,129,148.1,128.9z"/>
			<path class="st4" d="M85.6,123.7c1.2,0.6,3.6,3.4,4.3,4.1c1,1,0.7-7.3,0.7-7.3l-3-8l-5,2v5L85.6,123.7z"/>
		</g>
		<g id="Arbol_2_">
			<g>
				<path class="st5" d="M95,78.5h11.1c0,0-1.8-7.7-1.8-8.4s0.8-7.3,0.8-7.3l3.9-4l1.5-1.6l-3.3,0.5c0,0-2.7,2.5-4,1.4
					c-1.3-1,0.6-6.1,0.6-6.1l0.4-4.1l-2.3-0.2v5.1c0,0-0.9,3.5-1.4,3.6c0,0-0.9,2.5-4.4-5.4c-3.5-7.9-3.4-1.2-3.4-1.2l2.5,2.3
					l1.8,3.8c0,0-0.5,1.9-6.2-2.7s-4.7-1.6-4.7-1.6l4.7,4.1c0,0,0.1,0,0.1,0.1c0.5,0.3,4.4,3.1,5.7,2.9l0.5,8.7L95,78.5z"/>
				<path class="st6" d="M106.2,78.5H95l2.1-10.1l-0.5-8.6c0,0,0,0,0,0c-1.4,0-5.5-2.9-5.6-3L86,52.6l0,0c0,0-0.2-0.7,0-1.1
					c0.1-0.2,0.3-0.2,0.5-0.2c0.7,0,2.1,0.8,4.1,2.3c1.6,1.3,4.5,3.4,5.9,3.4c0.3,0,0.4-0.1,0.4-0.1l-1.8-3.7L91.7,50l0,0
					c0-0.1,0.3-2.1,1.3-2.1c0.8,0,1.9,1.4,3.1,4.2c1,2.2,2.7,5.8,3.9,5.8h0c0.3,0,0.4-0.3,0.4-0.3l0,0l0,0c0.4-0.1,1-2.2,1.4-3.6
					v-5.1l2.6-0.9l-0.5,5.3c0,0.1-1.9,5-0.7,6c0.2,0.2,0.5,0.2,0.8,0.2c1.3,0,3.2-1.7,3.2-1.7l4.3-3.7l-2.5,4.8l-3.9,4
					c0,0.4-0.8,6.6-0.8,7.2C104.4,70.7,106.2,78.4,106.2,78.5L106.2,78.5z M95.1,78.4h11c-0.2-0.8-1.8-7.7-1.8-8.3
					c0-0.6,0.7-7,0.8-7.3l0,0l0,0l3.9-4l2.2-4.3l-4,3.3c-0.1,0.1-1.9,1.7-3.3,1.7c-0.3,0-0.6-0.1-0.8-0.3c-1.3-1,0.5-5.9,0.6-6.1
					l0.5-5.1l-2.3,0.9l0,5c-0.1,0.4-0.9,3.4-1.5,3.7c0,0.1-0.2,0.4-0.5,0.4h0c-0.6,0-1.8-1-4-5.8c-0.8-1.9-2-4.1-3-4.1
					c-0.9,0-1.2,1.8-1.2,2l3.4,3.1l0,0l1.8,3.8l0,0c0,0-0.1,0.2-0.5,0.2c-0.7,0-2.4-0.6-5.9-3.4c-1.9-1.5-3.3-2.3-4-2.3
					c-0.2,0-0.3,0.1-0.4,0.2c-0.2,0.3-0.1,0.9,0,1l4.8,4.1c0,0,4.4,3.1,5.7,3l0.1,0l0.5,8.7l0,0L95.1,78.4z"/>
			</g>
			<g>
				<path class="st5" d="M103.3,47.9c0.7-0.3,1.6,0.1,1.9,0.8c0.8,2.4,3.1,6.4,8.6,6.6c6.5,0.2,8.4-5.5,8.9-7.6
					c0.1-0.4,0.4-0.8,0.8-1c1.4-0.6,4.5-2.4,5.2-7c0.6-4.1-0.7-6.1-1.6-7c-0.4-0.4-0.5-1-0.3-1.5c0.5-1.5,1.1-4.7-1.6-8.2
					c0-0.1-0.1-0.1-0.2-0.2c-0.4-0.4-2.5-2.3-5.5-2.9c-0.4-0.1-0.8-0.4-1-0.8c-0.5-1.2-1.9-3.7-5.3-5c-2.9-1-4.9-0.3-6.1,0.4
					c-0.7,0.4-1.5,0.2-1.9-0.4c-1.3-1.7-4.2-4.5-9.7-3.6c-5.5,1-6.5,4.3-6.7,6.2c0,0.7-0.6,1.2-1.3,1.3c-1.9,0.2-5.3,0.8-7.5,3.2
					c-2.1,2.3-2,4.6-1.7,5.8c0.1,0.6-0.1,1.1-0.5,1.5c-1.4,1-4.1,3.5-3.7,7.4c0.4,3.8,2.1,5.8,3,6.6c0.3,0.3,0.5,0.7,0.5,1.1
					c-0.1,1.6,0.2,5.6,4.6,7.8c5.3,2.7,8.9,0.2,12-3.2c0.3-0.4,0.8-0.5,1.3-0.4C97.2,48.3,100.9,48.8,103.3,47.9z"/>
				<path class="st5" d="M114.2,55.4c-0.1,0-0.2,0-0.4,0c-4.1-0.1-6.4-2.4-7.5-4.3c-0.2-0.3-0.4-0.7-0.5-1c-0.7-1.3-2.2-2.1-3.6-1.9
					c-0.7,0.1-1.4,0.2-2.3,0.2c0,0,0,0,0,0c-1.2,0-2.4-0.1-3.3-0.3c-1.1-0.2-2.1,0.2-2.9,0.9c-1.9,2-4.3,3.6-7.2,3.6
					c-1.4,0-2.8-0.4-4.3-1.1c-2.9-1.5-4-3.7-4.4-5.4c-0.2-0.7-0.2-1.3-0.2-1.8c0-0.8-0.3-1.7-0.9-2.3c-1-1-2.3-2.9-2.7-6.2
					c-0.3-3.2,1.5-5.5,2.9-6.8c0.8-0.7,1.3-1.8,1.2-2.9c-0.1-1.3,0.2-3.2,1.9-5c2.9-3.2,8.2-3.3,8.8-3.3c0,0,0,0,0,0
					c-0.1-0.4-0.3-2.4,1-4.3c1.1-1.6,3-2.6,5.6-3.1c0.7-0.1,1.5-0.2,2.1-0.2c3.2,0,5.3,1.4,6.5,2.5c0.1,0.1,0.2,0.2,0.3,0.3
					c0.9,1,2.4,1.3,3.6,0.8c0.7-0.3,1.5-0.4,2.4-0.4c0.9,0,1.8,0.2,2.8,0.5c2.9,1.1,4.4,3,5.1,4.4c0.4,0.8,1.1,1.4,2,1.6
					c2.3,0.7,4,2,4.6,2.5c0.2,0.2,0.3,0.3,0.5,0.5c1.9,2.4,2.1,4.7,1.9,6.2c0,0.4-0.1,0.7-0.2,1.1c-0.2,1,0,2.1,0.6,2.9
					c0.1,0.1,0.2,0.2,0.2,0.3c1.2,1.9,1.1,4.3,0.8,6c-0.5,3.1-2,4.9-3.3,5.9c-0.5,0.4-0.9,0.7-1.3,0.9c-0.8,0.4-1.3,1.1-1.6,2
					c-0.2,0.8-0.6,1.7-1.2,2.7C120.3,53.1,118.1,55.4,114.2,55.4z M104.8,46.9L104.8,46.9c0,0.1,0.3,2.1,1.6,4.1
					c1.2,1.9,3.4,4.1,7.5,4.2c4.1,0.1,6.4-2.2,7.5-4.1c1.2-2,1.5-4.1,1.5-4.1l0,0l0,0c0,0,1.2-0.3,2.6-1.4c1.2-1,2.8-2.8,3.2-5.8
					c0.9-5.9-2.3-7.4-2.3-7.5l0,0l0,0c0,0,0.6-1.1,0.8-2.8c0.1-1.5-0.1-3.7-1.9-6.1c-0.1-0.2-0.3-0.4-0.5-0.5c-0.8-0.7-3-2.4-6-2.8
					l0,0l0,0c0,0-1-4-5.5-5.7c-0.9-0.3-1.9-0.5-2.8-0.5c-2.8,0-4.4,1.8-4.4,1.8l-0.1,0.1l0-0.1c0,0-0.6-1.3-1.9-2.5
					c-1.2-1.1-3.3-2.5-6.4-2.5c-0.7,0-1.4,0.1-2.1,0.2c-2.6,0.4-4.5,1.5-5.6,3.1c-1.4,2-1,4.3-1,4.3l0,0.1l-0.1,0c0,0,0,0-0.1,0
					c-0.6,0-5.8,0.1-8.7,3.2c-3,3.3-1.4,6.6-1.4,6.7l0,0l0,0c-0.1,0-5,2.8-4.5,7.9c0.5,5.1,3.6,6.9,3.6,7l0,0l0,0
					c0,0-0.3,1.4,0.2,3.2c0.4,1.6,1.5,3.8,4.3,5.3c1.5,0.8,2.9,1.1,4.2,1.1c3.4,0,6.1-2.5,8.3-4.9l0,0l0,0c0,0,2.5,0.6,5.1,0.6
					C102.1,48.4,103.8,47.9,104.8,46.9L104.8,46.9z"/>
			</g>
		</g>
	</g>
	<g id="Unidad_Productiva" class="st1">
		<g id="Mundo">
			<circle class="st2" cx="101.6" cy="133.7" r="56.7"/>
			<path class="st7" d="M159.9,136.9c0.8-12.8-2.6-25-9.1-35.1c-0.1-0.2-0.2-0.4-0.4-0.6c-9.8-15-26.3-25.3-45.6-26.5
				c-11-0.7-21.4,1.7-30.6,6.5c-0.3,0.1-0.5,0.2-0.7,0.4c-13.3,7.1-23.6,19.2-28.3,34c0,0,0,0.1,0,0.1c-1.4,4.5-2.3,9.2-2.6,14.1
				c-2,32.3,22.7,60.2,55,62.2C130,193.9,157.9,169.2,159.9,136.9z M141.7,98.9c-0.9-0.3-2.1-0.6-3.4-1.1c-3.2-1-7.2-2.4-10.9-3.1
				c-5-1-7.2-2.1-7.8-3.7c0-1.1,3.1-3.8,4.4-4.9c0.2-0.2,0.4-0.3,0.6-0.5C131.1,88.8,137,93.4,141.7,98.9z M76,86.6
				c2.9,0.2,6.5,2.5,7.1,4.3c0.1,0.3,0.3,0.7-0.8,1.5c-1.1,0.8-2.8,1.2-4.6,1.6c-2.6,0.6-5.6,1.3-8.1,3.3c-1.2,1-2.3,1.9-3.2,2.8
				c-1.9,1.7-3.4,3.1-5.9,4.1c-1,0.4-2.2,0.6-3.4,0.8c-0.3,0-0.5,0.1-0.8,0.1C61.1,97.5,67.9,91,76,86.6z M48.3,130.1
				c0.2-3.3,0.7-6.6,1.5-9.7c3.2,1.5,8,3.5,11.1,3.7c0.2,0,0.4,0,0.6,0c-1,1.5-1.8,3.2-2.5,4.9c0,0,0,0,0,0c-1.6,3.6-1.3,7.7,0.8,11
				l0.8,1.3c2,3.2,3.8,6,4.3,9.1c0,0.3,0.1,1.1,0.1,2.3c0.3,8.7,1,17.1,3.3,22.2C55.2,164.5,47.2,148,48.3,130.1z M70.6,152.5
				c-0.1-1.5-0.1-2.5-0.2-2.9c-0.7-4.3-2.8-7.7-5.1-11.2l-0.8-1.3c-1.1-1.7-1.2-3.9-0.4-5.8c1.3-2.9,2.8-5.9,4.7-6.4
				c1.4-0.4,3.7,0.4,6.5,2.3c1.7,1.1,3.1,2.6,4.6,4.1c1.5,1.5,3,3,4.9,4.5c1.5,1.2,2.8,1.8,3.8,2.2c0.4,0.2,0.8,0.4,0.8,0.3
				c0,0,0.1,0.5,0,2c-0.3,3.5-4,7.8-7.2,11.6c-1.5,1.8-2.9,3.5-4,5.1l-0.4,0.5c-3.1,4.6-4.7,6.8-5.5,12.1
				C71.5,166.2,70.9,161,70.6,152.5z M98,186.3c-8.1-0.5-15.7-2.8-22.4-6.5c0.8-0.1,1.6-0.4,2.4-0.8c0.7-0.4,1.3-1.1,1.5-1.9
				c0.5-1.7-0.6-3.3-1.7-5.2c-0.1-0.1-0.1-0.2-0.2-0.3c0.6-5.1,1.6-6.5,4.8-11.1l0.4-0.5c1-1.4,2.3-3,3.7-4.6
				c3.7-4.4,7.9-9.5,8.4-14.7c0.5-4.9-0.9-6.4-4-7.9c-0.8-0.4-1.7-0.8-2.8-1.6c-1.5-1.2-2.8-2.5-4.2-3.9c-1.6-1.7-3.3-3.4-5.5-4.8
				c-4.5-3-8.1-4-11.2-3.1c-1.1,0.3-2,0.8-2.9,1.5c0-0.3-0.1-0.6-0.3-0.9c-1.1-2.2-3-3.4-4.8-4.5c-1-0.7-2.2-1.4-2.5-2
				c-0.6-1.3-0.8-2-0.9-2.4c0.5-0.1,1.3-0.3,1.9-0.4c1.4-0.2,3.1-0.5,4.7-1.2c3.4-1.4,5.4-3.2,7.5-5.2c0.9-0.8,1.8-1.6,2.9-2.5
				c1.6-1.3,3.7-1.8,6-2.3c2.3-0.5,4.7-1.1,6.7-2.6c2.8-2.1,3.8-4.9,2.8-7.9c-0.8-2.3-2.8-4.3-5.2-5.7c6.6-2.4,13.8-3.5,21.2-3
				c5,0.3,9.8,1.3,14.2,2.9c-2.9,2.7-5.9,6.1-4.4,9.8c1.9,4.8,7.1,6.3,11.9,7.3c3.4,0.7,7.3,2,10.3,3c1.4,0.5,2.6,0.9,3.6,1.1
				c2.4,0.7,4.9,1.1,6.4,1.3c3.5,5.7,6,12.1,7.1,19c-1.3-0.6-2.8-0.8-4-0.9c-0.8-1.5-1.5-3-2.2-4.4c-2.3-5-4.4-9.8-12-11.9
				c-1.4-0.4-3.1-1.1-4.9-1.9c-4.3-1.9-9.2-4.1-14-2.9c-6.3,1.5-14,11-13.4,18.6c0.9,10.1,6.5,10.3,10.6,10.4c1.8,0.1,3.5,0.1,5,0.9
				c1.7,0.9,2.7,9.3,3.2,13.8c1,8.9,1.9,16.7,7,18.4c0.5,0.2,1,0.3,1.5,0.3c3.6,0.2,7-3,8.2-4.2c4.6-4.5,6.1-9.8,7.5-14.8
				c0.5-1.6,0.9-3.2,1.5-4.8c0.3-0.7,2.1-2.7,3.3-3.9c1.2-1.3,2.4-2.5,3.3-3.7c0,1,0,2-0.1,3C152.5,165.8,127.3,188.1,98,186.3z
				 M148.2,129.4c0.9,0,1.7,0,2.2,0c-0.7,1.1-2.3,2.8-3.4,3.9c-2,2.2-3.8,4.1-4.5,5.9c-0.6,1.7-1.1,3.4-1.6,5.1
				c-1.3,4.5-2.5,8.8-6.1,12.3c-2.8,2.8-3.9,2.6-3.9,2.6c-1.7-0.6-2.8-9.5-3.2-13.8c-1-8.5-1.8-15.9-6.3-18.1c-2-1-4-1.3-5.8-1.4
				c-0.5,0-1.1,0-1.6-0.1c-3.7-0.1-4.8-0.2-5.2-5.3c-0.4-4.6,5.3-11.7,9.1-12.6c2.9-0.7,6.7,0.9,10.4,2.6c2,0.9,3.8,1.7,5.6,2.2
				c5,1.4,6.3,4.2,8.4,8.8c0.9,1.9,1.9,4.1,3.2,6.4C146.2,128.9,147.2,129.4,148.2,129.4z"/>
		</g>
		<g id="Arbol">
			<g>
				<path class="st7" d="M95.2,78.9h11.1c0,0-1.8-7.7-1.8-8.4s0.8-7.3,0.8-7.3s3.2-2.7,4.3-4c1-1.3,1-3.3,1-3.3
					c0.1-0.2-0.2-0.4-0.4-0.3l-2.8,2.6c0,0-2.5,2-4,1.4c-0.7-0.3,0.5-5.6,0.6-6.1c0,0,0,0,0-0.1l0.4-4.2l-2.4,0l-0.5,5.1
					c0,0-0.5,3.5-1,3.6c0,0,0.3,1.1-4.1-5.7c-1.1-1.7-2-2.2-2.8-2.2c-1,0-1.5,1.2-0.9,1.9l1.8,2l2.5,3.3c0,0-0.4,1-6.4-3.2
					c-1-0.7-2-0.8-2.8-0.8c-0.5,0-0.7,0.7-0.3,1l3.4,2.9c0,0,4.4,3.1,5.7,3l0.5,8.7L95.2,78.9z"/>
				<path class="st8" d="M106.4,79H95.1l2.1-10.1l-0.5-8.6c0,0,0,0,0,0c-1.4,0-5.5-2.9-5.6-3l-4.8-4.2l0,0c0,0-0.2-0.7,0-1.1
					c0.1-0.2,0.3-0.2,0.5-0.2c0.7,0,2.1,0.8,4.1,2.3c1.6,1.3,4.5,3.4,5.9,3.4c0.3,0,0.4-0.1,0.4-0.1l-1.8-3.7l-3.4-3.1l0,0
					c0-0.1,0.3-2.1,1.3-2.1c0.8,0,1.9,1.4,3.1,4.2c1,2.2,2.7,5.8,3.9,5.8h0c0.3,0,0.4-0.3,0.4-0.3l0,0l0,0c0.4-0.1,1-2.2,1.4-3.6
					v-5.1l2.6-0.9l-0.5,5.3c0,0.1-1.9,5-0.7,6c0.2,0.2,0.5,0.2,0.8,0.2c1.3,0,3.2-1.7,3.2-1.7l4.3-3.7l-2.5,4.8l-3.9,4
					c0,0.4-0.8,6.6-0.8,7.2C104.6,71.2,106.4,78.8,106.4,79L106.4,79z M95.3,78.9h11c-0.2-0.8-1.8-7.7-1.8-8.3c0-0.6,0.7-7,0.8-7.3
					l0,0l0,0l3.9-4l2.2-4.3l-4,3.3c-0.1,0.1-1.9,1.7-3.3,1.7c-0.3,0-0.6-0.1-0.8-0.3c-1.3-1,0.5-5.9,0.6-6.1l0.5-5.1l-2.3,0.9l0,5
					c-0.1,0.4-0.9,3.4-1.5,3.7c0,0.1-0.2,0.4-0.5,0.4h0c-0.6,0-1.8-1-4-5.8c-0.8-1.9-2-4.1-3-4.1c-0.9,0-1.2,1.8-1.2,2l3.4,3.1l0,0
					l1.8,3.8l0,0c0,0-0.1,0.2-0.5,0.2c-0.7,0-2.4-0.6-5.9-3.4c-1.9-1.5-3.3-2.3-4-2.3c-0.2,0-0.3,0.1-0.4,0.2c-0.2,0.3-0.1,0.9,0,1
					l4.8,4.1c0,0,4.4,3.1,5.7,3l0.1,0l0.5,8.7l0,0L95.3,78.9z"/>
			</g>
			<g>
				<path class="st9" d="M104.9,47.5c0,0,1.2,8,9.1,8.3s9.1-8.3,9.1-8.3s4.9-1.3,5.8-7.3c0.9-6-2.3-7.5-2.3-7.5s2.6-4.4-1.3-9.2
					c0,0-2.6-2.6-6.4-3.1c0,0-0.9-4-5.6-5.7c-4.7-1.7-7.3,1.3-7.3,1.3s-2.7-6.2-10.5-4.8S89,18.6,89,18.6s-5.7-0.1-8.8,3.2
					c-3.1,3.4-1.4,6.7-1.4,6.7s-5.1,2.7-4.5,7.9s3.6,7,3.6,7s-1,5.7,4.5,8.6s9.3-0.1,12.6-3.8C94.9,48.2,102.2,50.1,104.9,47.5z"/>
				<path class="st9" d="M114.3,55.8c-0.1,0-0.2,0-0.4,0c-4.1-0.1-6.4-2.4-7.5-4.3c-1.1-1.8-1.5-3.6-1.6-4c-1,0.9-2.6,1.3-4.9,1.3
					c0,0,0,0,0,0c-2.4,0-4.8-0.5-5.1-0.6c-2.2,2.4-4.8,4.9-8.3,4.9c-1.4,0-2.8-0.4-4.3-1.1c-2.9-1.5-4-3.7-4.4-5.4
					c-0.4-1.6-0.2-3-0.2-3.2c-0.3-0.2-3.1-2.1-3.6-7c-0.5-4.9,4-7.7,4.5-7.9c-0.2-0.4-1.5-3.6,1.5-6.8c2.9-3.2,8.2-3.3,8.8-3.3
					c0,0,0,0,0,0c-0.1-0.4-0.3-2.4,1-4.3c1.1-1.6,3-2.6,5.6-3.1c0.7-0.1,1.5-0.2,2.1-0.2c3.2,0,5.3,1.4,6.5,2.5
					c1.1,1.1,1.7,2.2,1.9,2.5c0.3-0.3,1.9-1.8,4.5-1.8c0.9,0,1.8,0.2,2.8,0.5c4.4,1.6,5.5,5.3,5.6,5.7c3.7,0.5,6.3,3.1,6.3,3.1
					c2,2.5,2.3,4.9,2.1,6.4c-0.1,1.5-0.7,2.6-0.8,2.8c0.2,0.1,0.9,0.5,1.5,1.5c1.2,1.9,1.1,4.3,0.8,6c-0.5,3.1-2,4.9-3.3,5.9
					c-1.2,1-2.4,1.3-2.6,1.4c0,0.3-0.4,2.2-1.5,4.1C120.5,53.5,118.3,55.8,114.3,55.8z M105,47.4L105,47.4c0,0.1,0.3,2.1,1.6,4.1
					c1.2,1.9,3.4,4.1,7.5,4.2c4.1,0.1,6.4-2.2,7.5-4.1c1.2-2,1.5-4.1,1.5-4.1l0,0l0,0c0,0,1.2-0.3,2.6-1.4c1.2-1,2.8-2.8,3.2-5.8
					c0.9-5.9-2.3-7.4-2.3-7.5l0,0l0,0c0,0,0.6-1.1,0.8-2.8c0.1-1.5-0.1-3.9-2.1-6.4c0,0-2.6-2.6-6.3-3.1l0,0l0,0c0,0-1-4-5.5-5.7
					c-0.9-0.3-1.9-0.5-2.8-0.5c-2.8,0-4.4,1.8-4.4,1.8l-0.1,0.1l0-0.1c0,0-0.6-1.3-1.9-2.5c-1.2-1.1-3.3-2.5-6.4-2.5
					c-0.7,0-1.4,0.1-2.1,0.2c-2.6,0.4-4.5,1.5-5.6,3.1c-1.4,2-1,4.3-1,4.3l0,0.1l-0.1,0c0,0,0,0-0.1,0c-0.6,0-5.8,0.1-8.7,3.2
					c-3,3.3-1.4,6.6-1.4,6.7l0,0l0,0c-0.1,0-5,2.8-4.5,7.9c0.5,5.1,3.6,6.9,3.6,7l0,0l0,0c0,0-0.3,1.4,0.2,3.2
					c0.4,1.6,1.5,3.8,4.3,5.3c1.5,0.8,2.9,1.1,4.2,1.1c3.4,0,6.1-2.5,8.3-4.9l0,0l0,0c0,0,2.5,0.6,5.1,0.6
					C102.3,48.8,103.9,48.3,105,47.4L105,47.4z"/>
			</g>
		</g>
	</g>
</g>
<g id="Trazabilidad">
	<g id="Trazabilidad_2_">
		<g id="Sol_1_">
			<g>
				<path class="st10" d="M97.5,72.2c-14.8,0-26.8,12-26.8,26.8c0,14.8,12,26.8,26.8,26.8c14.8,0,26.8-12,26.8-26.8
					C124.3,84.2,112.3,72.2,97.5,72.2z"/>
				<path class="st11" d="M123.4,136.4c-1.1-1.8-3.4-2.5-5.3-1.4c-1.8,1.1-2.5,3.4-1.4,5.3l6.5,11.2c0.7,1.2,2,1.9,3.3,1.9
					c0.7,0,1.3-0.2,1.9-0.5c1.8-1.1,2.5-3.4,1.4-5.3L123.4,136.4z"/>
				<path class="st11" d="M102.3,144.2c0-2.1-1.7-3.9-3.8-3.9c-2.1,0-3.9,1.7-3.9,3.8l-0.1,12.9c0,1.4,0.8,2.7,1.9,3.4
					c0.6,0.3,1.2,0.5,1.9,0.5c2.1,0,3.9-1.7,3.9-3.8L102.3,144.2z"/>
				<path class="st11" d="M102.3,44.7c0-2.1-1.7-3.9-3.8-3.9c-2.1,0-3.9,1.7-3.9,3.8l-0.1,12.9c0,1.4,0.8,2.7,1.9,3.4
					c0.6,0.3,1.2,0.5,1.9,0.5c2.1,0,3.9-1.7,3.9-3.8L102.3,44.7z"/>
				<path class="st11" d="M154.6,104.7c2.1,0,3.9-1.7,3.8-3.9c0-2.1-1.7-3.9-3.9-3.8l-12.9,0c-1.4,0-2.7,0.8-3.3,1.9
					c-0.3,0.6-0.5,1.2-0.5,1.9c0,2.1,1.7,3.9,3.9,3.8L154.6,104.7z"/>
				<path class="st11" d="M135.9,83.1c0.7,0,1.3-0.2,1.9-0.5l11.2-6.5c1.8-1.1,2.5-3.4,1.4-5.3c-1.1-1.8-3.4-2.5-5.3-1.4l-11.2,6.5
					c-1.8,1.1-2.5,3.4-1.4,5.3C133.3,82.4,134.5,83.1,135.9,83.1z"/>
				<path class="st11" d="M73.4,65.3c0.7,1.2,2,1.9,3.3,1.9c0.7,0,1.3-0.2,1.9-0.5c1.8-1.1,2.5-3.4,1.4-5.3l-6.5-11.2
					c-1.1-1.8-3.4-2.5-5.3-1.4c-1.8,1.1-2.5,3.4-1.4,5.3L73.4,65.3z"/>
				<path class="st11" d="M59,119.2l-11.2,6.5c-1.8,1.1-2.5,3.4-1.4,5.3c0.7,1.2,2,1.9,3.3,1.9c0.7,0,1.3-0.2,1.9-0.5l11.2-6.5
					c1.8-1.1,2.5-3.4,1.4-5.3C63.2,118.8,60.9,118.2,59,119.2z"/>
				<path class="st11" d="M149,125.6l-11.2-6.5c-1.8-1.1-4.2-0.4-5.3,1.4c-1.1,1.8-0.4,4.2,1.4,5.3l11.2,6.5
					c0.6,0.4,1.3,0.5,1.9,0.5c1.3,0,2.6-0.7,3.3-1.9C151.5,129,150.9,126.7,149,125.6z"/>
				<path class="st11" d="M47.8,76.2L59,82.6c0.6,0.4,1.3,0.5,1.9,0.5c1.3,0,2.6-0.7,3.3-1.9c1.1-1.8,0.4-4.2-1.4-5.3l-11.2-6.5
					c-1.8-1.1-4.2-0.4-5.3,1.4C45.3,72.7,45.9,75.1,47.8,76.2z"/>
				<path class="st11" d="M78.7,135.1c-1.8-1.1-4.2-0.4-5.3,1.4L67,147.7c-1.1,1.8-0.4,4.2,1.4,5.3c0.6,0.4,1.3,0.5,1.9,0.5
					c1.3,0,2.6-0.7,3.3-1.9l6.5-11.2C81.2,138.5,80.6,136.1,78.7,135.1z"/>
				<path class="st11" d="M55.1,104.8c2.1,0,3.9-1.7,3.8-3.9c0-2.1-1.7-3.9-3.9-3.8l-12.9,0c-1.4,0-2.7,0.8-3.3,1.9
					c-0.3,0.6-0.5,1.2-0.5,1.9c0,2.1,1.7,3.9,3.9,3.8L55.1,104.8z"/>
				<path class="st11" d="M131.5,57.8c1.3-1.7,0.9-4.1-0.8-5.4c-1.7-1.3-4.1-0.9-5.4,0.8l-7.8,10.3c-0.9,1.1-1,2.6-0.5,3.8
					c0.3,0.6,0.7,1.1,1.2,1.6c1.7,1.3,4.1,0.9,5.4-0.8L131.5,57.8z"/>
			</g>
		</g>
		<g id="Circulo_2_">
			<path class="st10" d="M9.9,122.5c0.7,7.2,15,5.1,13.6-3.2c-1.8-11-3.9-21-2.1-32.4C24.5,67.4,35,50.2,51,38.5
				C61.4,31,73.4,26.4,85.8,24.9c1.6-0.2,3.1,1.1,3.1,2.7V28c0,2.3,2.7,3.6,4.5,2.1l10.3-9c1.2-1.1,1.3-3,0-4.1L93.4,7.7
				c-1.8-1.6-4.5-0.3-4.5,2v0c0,1.4-1.1,2.6-2.5,2.7c-15.2,1.4-29.9,6.9-42.6,16.1C25.1,42.1,12.8,62.2,9.2,85
				C6.6,101.1,8.8,113.4,9.9,122.5"/>
			<path class="st10" d="M127.3,14.7c-6.6-3-12,10.3-4.1,13.4c10.4,4,20.2,7.2,29.1,14.5c15.3,12.5,24.9,30.3,26.9,50
				c1.3,12.8-0.7,25.4-5.7,36.9c-0.7,1.5-2.5,2.1-3.9,1.3l-0.3-0.2c-2-1.2-4.5,0.6-4,2.9l2.5,13.5c0.3,1.6,1.9,2.6,3.5,2.1l13.3-4.2
				c2.2-0.7,2.6-3.8,0.5-4.9h0c-1.2-0.7-1.7-2.2-1.1-3.5c6.4-13.9,9.1-29.3,7.5-44.9c-2.3-23-13.4-43.7-31.3-58.3
				C147.4,22.7,135.7,18.3,127.3,14.7"/>
			<path class="st10" d="M160,165.8c5.8-4.4-3.5-15.4-9.8-9.9c-8.5,7.3-15.9,14.4-26.5,18.8c-18.3,7.6-38.4,7.7-56.8,0.1
				C55,170,44.8,162.2,37.1,152.4c-1-1.3-0.7-3.2,0.7-4l0.3-0.2c2-1.2,1.6-4.2-0.6-4.9l-13.1-4.1c-1.6-0.5-3.2,0.5-3.5,2.1L18.4,155
				c-0.4,2.3,2.1,4,4.1,2.8h0c1.2-0.7,2.8-0.4,3.6,0.7c9.2,12.2,21.6,21.8,36.1,27.8c21.4,8.8,44.9,8.7,66.2-0.2
				C143.5,179.8,152.8,171.5,160,165.8"/>
		</g>
	</g>
	<g id="Trazabilidad_1_">
		<g id="Sol">
			<g>
				<path class="st7" d="M97.7,72.4c-14.8,0-26.8,12-26.8,26.8c0,14.8,12,26.8,26.8,26.8c14.8,0,26.8-12,26.8-26.8
					C124.5,84.4,112.5,72.4,97.7,72.4z"/>
				<path class="st12" d="M123.3,137.3c-1.1-1.8-3.4-2.5-5.3-1.4c-1.8,1.1-2.5,3.4-1.4,5.3l6.5,11.2c0.7,1.2,2,1.9,3.3,1.9
					c0.7,0,1.3-0.2,1.9-0.5c1.8-1.1,2.5-3.4,1.4-5.3L123.3,137.3z"/>
				<path class="st12" d="M102.2,145.1c0-2.1-1.7-3.9-3.8-3.9c-2.1,0-3.9,1.7-3.9,3.8l-0.1,12.9c0,1.4,0.8,2.7,1.9,3.4
					c0.6,0.3,1.2,0.5,1.9,0.5c2.1,0,3.9-1.7,3.9-3.8L102.2,145.1z"/>
				<path class="st12" d="M102.1,45.6c0-2.1-1.7-3.9-3.8-3.9c-2.1,0-3.9,1.7-3.9,3.8l-0.1,12.9c0,1.4,0.8,2.7,1.9,3.4
					c0.6,0.3,1.2,0.5,1.9,0.5c2.1,0,3.9-1.7,3.9-3.8L102.1,45.6z"/>
				<path class="st12" d="M154.5,105.5c2.1,0,3.9-1.7,3.8-3.9c0-2.1-1.7-3.9-3.9-3.8l-12.9,0c-1.4,0-2.7,0.8-3.3,1.9
					c-0.3,0.6-0.5,1.2-0.5,1.9c0,2.1,1.7,3.9,3.9,3.8L154.5,105.5z"/>
				<path class="st12" d="M55,105.6c2.1,0,3.9-1.7,3.8-3.9c0-2.1-1.7-3.9-3.9-3.8L42,98c-1.4,0-2.7,0.8-3.3,1.9
					c-0.3,0.6-0.5,1.2-0.5,1.9c0,2.1,1.7,3.9,3.9,3.8L55,105.6z"/>
				<path class="st12" d="M135.7,83.9c0.7,0,1.3-0.2,1.9-0.5l11.2-6.5c1.8-1.1,2.5-3.4,1.4-5.3c-1.1-1.8-3.4-2.5-5.3-1.4l-11.2,6.5
					c-1.8,1.1-2.5,3.4-1.4,5.3C133.1,83.2,134.4,83.9,135.7,83.9z"/>
				<path class="st12" d="M73.3,66.2c0.7,1.2,2,1.9,3.3,1.9c0.7,0,1.3-0.2,1.9-0.5c1.8-1.1,2.5-3.4,1.4-5.3l-6.5-11.2
					c-1.1-1.8-3.4-2.5-5.3-1.4c-1.8,1.1-2.5,3.4-1.4,5.3L73.3,66.2z"/>
				<path class="st12" d="M58.9,120.1l-11.2,6.5c-1.8,1.1-2.5,3.4-1.4,5.3c0.7,1.2,2,1.9,3.3,1.9c0.7,0,1.3-0.2,1.9-0.5l11.2-6.5
					c1.8-1.1,2.5-3.4,1.4-5.3C63.1,119.7,60.7,119,58.9,120.1z"/>
				<path class="st12" d="M148.9,126.5l-11.2-6.5c-1.8-1.1-4.2-0.4-5.3,1.4c-1.1,1.8-0.4,4.2,1.4,5.3l11.2,6.5
					c0.6,0.4,1.3,0.5,1.9,0.5c1.3,0,2.6-0.7,3.3-1.9C151.4,129.9,150.8,127.5,148.9,126.5z"/>
				<path class="st12" d="M47.6,77l11.2,6.5c0.6,0.4,1.3,0.5,1.9,0.5c1.3,0,2.6-0.7,3.3-1.9c1.1-1.8,0.4-4.2-1.4-5.3l-11.2-6.5
					c-1.8-1.1-4.2-0.4-5.3,1.4C45.2,73.6,45.8,76,47.6,77z"/>
				<path class="st12" d="M78.6,135.9c-1.8-1.1-4.2-0.4-5.3,1.4l-6.5,11.2c-1.1,1.8-0.4,4.2,1.4,5.3c0.6,0.4,1.3,0.5,1.9,0.5
					c1.3,0,2.6-0.7,3.3-1.9l6.5-11.2C81.1,139.4,80.4,137,78.6,135.9z"/>
				<path class="st12" d="M131.3,56.1c1.2-1.7,0.8-4.1-0.9-5.4c-1.7-1.2-4.1-0.8-5.4,0.9l-7.5,10.5c-0.8,1.2-0.9,2.6-0.4,3.8
					c0.3,0.6,0.7,1.1,1.3,1.5c1.7,1.2,4.1,0.8,5.4-0.9L131.3,56.1z"/>
			</g>
		</g>
		<g id="Circulo">
			<path class="st7" d="M8.8,122.4c0.7,7.2,15,5.1,13.6-3.2c-1.8-11-3.9-21-2.1-32.4C23.3,67.2,33.9,50,49.9,38.4
				c10.4-7.6,22.3-12.2,34.8-13.6c1.6-0.2,3.1,1.1,3.1,2.7v0.4c0,2.3,2.7,3.6,4.5,2.1l10.3-9c1.2-1.1,1.3-3,0-4.1L92.3,7.6
				c-1.8-1.6-4.5-0.3-4.5,2v0c0,1.4-1.1,2.6-2.5,2.7C70,13.7,55.4,19.2,42.7,28.4C24,42,11.7,62.1,8.1,84.9
				C5.5,101,7.7,113.3,8.8,122.4"/>
			<path class="st7" d="M127.2,15.6c-6.6-3-12,10.3-4.1,13.4c10.4,4,20.2,7.2,29.1,14.5c15.3,12.5,24.9,30.3,26.9,50
				c1.3,12.8-0.7,25.4-5.7,36.9c-0.7,1.5-2.5,2.1-3.9,1.3l-0.3-0.2c-2-1.2-4.5,0.6-4,2.9l2.5,13.5c0.3,1.6,1.9,2.6,3.5,2.1l13.3-4.2
				c2.2-0.7,2.6-3.8,0.5-4.9l0,0c-1.2-0.7-1.7-2.2-1.1-3.5c6.4-13.9,9.1-29.3,7.5-44.9c-2.3-23-13.4-43.7-31.3-58.3
				C147.3,23.5,135.6,19.2,127.2,15.6"/>
			<path class="st7" d="M159.9,166.7c5.8-4.4-3.5-15.4-9.8-9.9c-8.5,7.3-15.9,14.4-26.5,18.8c-18.3,7.6-38.4,7.7-56.8,0.1
				c-11.9-4.9-22.1-12.6-29.9-22.4c-1-1.3-0.7-3.2,0.7-4L38,149c2-1.2,1.6-4.2-0.6-4.9L24.3,140c-1.6-0.5-3.2,0.5-3.5,2.1l-2.5,13.7
				c-0.4,2.3,2.1,4,4.1,2.8l0,0c1.2-0.7,2.8-0.4,3.6,0.7c9.2,12.2,21.6,21.8,36.1,27.8c21.4,8.8,44.9,8.7,66.2-0.2
				C143.4,180.6,152.7,172.4,159.9,166.7"/>
		</g>
	</g>
</g>
<g id="Desperdicio_2_" class="st0">
	<g id="Desperdicio_1_" class="st1">
		<path id="XMLID_13_" class="st10" d="M136.4,171.7H65.6c-4.4,0-7.9-3.6-7.9-7.9V55.6h86.7v108.1
			C144.4,168.1,140.8,171.7,136.4,171.7z"/>
		<path id="XMLID_12_" class="st10" d="M155,55.6H47c-0.8,0-1.4-0.6-1.4-1.4V41.8c0-0.8,0.6-1.4,1.4-1.4H155c0.8,0,1.4,0.6,1.4,1.4
			v12.4C156.5,55,155.8,55.6,155,55.6z"/>
		<path id="XMLID_11_" class="st10" d="M122.3,40.3H79.7c-0.8,0-1.5-0.6-1.5-1.5V28.5c0-0.8,0.6-1.5,1.5-1.5h42.6
			c0.8,0,1.5,0.6,1.5,1.5v10.4C123.7,39.7,123.1,40.3,122.3,40.3z"/>
		<g id="XMLID_3_">
			<line id="XMLID_10_" class="st13" x1="71.9" y1="67.3" x2="71.9" y2="158.5"/>
			<line id="XMLID_9_" class="st13" x1="86" y1="67.3" x2="86" y2="158.5"/>
			<line id="XMLID_8_" class="st13" x1="100" y1="67.3" x2="100" y2="158.5"/>
			<line id="XMLID_7_" class="st13" x1="114" y1="67.3" x2="114" y2="158.5"/>
			<line id="XMLID_6_" class="st13" x1="128.1" y1="67.3" x2="128.1" y2="158.5"/>
			<path id="XMLID_5_" class="st14" d="M81.5,34.2"/>
			<path id="XMLID_4_" class="st14" d="M120.3,34.2"/>
		</g>
	</g>
	<g id="Desperdicio" class="st1">
		<path id="XMLID_357_" class="st15" d="M135.9,171.7H65.1c-4.4,0-7.9-3.6-7.9-7.9V55.7h86.7v108.1
			C143.9,168.2,140.3,171.7,135.9,171.7z"/>
		<path id="XMLID_358_" class="st15" d="M154.5,55.7H46.5c-0.8,0-1.4-0.6-1.4-1.4V41.8c0-0.8,0.6-1.4,1.4-1.4h108.1
			c0.8,0,1.4,0.6,1.4,1.4v12.4C156,55,155.3,55.7,154.5,55.7z"/>
		<path id="XMLID_360_" class="st15" d="M121.8,40.4H79.2c-0.8,0-1.5-0.6-1.5-1.5V28.5c0-0.8,0.6-1.5,1.5-1.5h42.6
			c0.8,0,1.5,0.6,1.5,1.5v10.4C123.2,39.7,122.6,40.4,121.8,40.4z"/>
		<g id="XMLID_359_">
			<line id="XMLID_361_" class="st16" x1="72" y1="67.7" x2="72" y2="158.9"/>
			<line id="XMLID_362_" class="st16" x1="86" y1="67.7" x2="86" y2="158.9"/>
			<line id="XMLID_363_" class="st16" x1="100.1" y1="67.7" x2="100.1" y2="158.9"/>
			<line id="XMLID_364_" class="st16" x1="114.1" y1="67.7" x2="114.1" y2="158.9"/>
			<line id="XMLID_365_" class="st16" x1="128.1" y1="67.7" x2="128.1" y2="158.9"/>
			<path id="XMLID_2_" class="st16" d="M80.6,34.6"/>
			<path id="XMLID_1_" class="st16" d="M119.4,34.6"/>
		</g>
	</g>
</g>
<g id="Crowdfarmer" class="st0">
	<g class="st1">
		<g>
			<g>
				<path class="st5" d="M128.3,101.2c0,0-9.6,11.1-27.5,11.1s-27.4-11.1-27.4-11.1c-22.1,14.2-23.1,42.5-23.1,42.5V154
					c13.6,10.6,31.7,16.9,50.7,16.9c19,0,37.1-6.3,50.7-16.9v-10.2C151.7,143.6,150.3,115.3,128.3,101.2z"/>
			</g>
			<g>
				<g>
					<path class="st5" d="M68.4,71.3c0.3,16,14.4,31.5,32,31.5s31.9-15.7,32.2-31.7L68.4,71V71.3z"/>
				</g>
			</g>
			<g>
				<g>
					<path class="st5" d="M132.7,61.7c-0.3-16-14.6-31.7-32.2-31.7S68.5,45.7,68.3,61.7H132.7z"/>
				</g>
			</g>
		</g>
	</g>
	<g class="st1">
		<g>
			<g>
				<g>
					<path class="st7" d="M128.3,101.2c0,0-9.6,11.1-27.5,11.1s-27.4-11.1-27.4-11.1c-22.1,14.2-23.1,42.5-23.1,42.5V154
						c13.6,10.6,31.7,16.9,50.7,16.9c19,0,37.1-6.3,50.7-16.9v-10.2C151.7,143.6,150.3,115.3,128.3,101.2z"/>
				</g>
				<g>
					<g>
						<path class="st7" d="M68.4,72.3c0.3,16,14.4,31.5,32,31.5s31.9-15.7,32.2-31.7L68.4,72V72.3z"/>
					</g>
				</g>
				<g>
					<g>
						<path class="st7" d="M132.7,62.7c-0.3-16-14.6-31.7-32.2-31.7S68.5,46.7,68.3,62.7H132.7z"/>
					</g>
				</g>
			</g>
		</g>
	</g>
</g>
<g id="Farmer" class="st0">
	<g class="st1">
		<g>
			<g>
				<path class="st5" d="M70.6,84.5c0.3,14.5,13.3,28.9,29.3,28.9s29.1-14.3,29.3-28.9H70.6z"/>
			</g>
		</g>
		<path class="st5" d="M129.8,62.2c0,0-0.4-41.2-30.4-41.2S69.2,63.7,69.2,63.7H40.6v11.1h59h59.9V63.7h-29.7
			c0,0-0.1-42.7-30.1-42.7S69.3,62.6,69.3,62.6"/>
		<path class="st5" d="M146.7,151.6v9.3c-12.4,9.7-28.9,15.4-46.2,15.4c-17.3,0-33.7-5.7-46.2-15.4v-9.4c0,0,0.9-25.8,21-38.7
			c0,0,8.7,10.1,25,10.1s25-10.1,25-10.1C145.4,125.8,146.7,151.6,146.7,151.6z M100.8,162.4c1.8-1.8,3.6-3.6,5.3-5.4c1-1,2-2,3-3
			c0.6-0.6,0.7-1.2,1-2.1c1.3-3.9,0.4-8.9-1-12.7c-0.7-1.9-1.8-3.8-3.2-5.3c-1.3-1.3-3.3-2.7-5.3-2.6 M100.1,131.3
			c-1.9-0.2-4,1.2-5.3,2.6c-1.4,1.5-2.5,3.4-3.2,5.3c-1.4,3.8-2.3,8.7-1,12.7c0.3,0.9,0.4,1.5,1,2.1c1,1,2,2,3,3
			c1.8,1.8,3.6,3.6,5.3,5.4 M100.6,131.7l-0.5,0l-0.1,37.3h0.9L100.6,131.7z"/>
		<path class="st4" d="M104.4,127.9c0.1,0,0.2,0.1,0.3,0.1c0.8,0.1,4.2,0.3,4.2,0.3l-2.8-1.3l-3.2,0.5L104.4,127.9z"/>
	</g>
	<g class="st1">
		<g>
			<g>
				<path class="st7" d="M70.6,85.5c0.3,14.5,13.3,28.9,29.3,28.9s29.1-14.3,29.3-28.9H70.6z"/>
			</g>
		</g>
		<path class="st7" d="M129.8,63.2c0,0-0.4-41.2-30.4-41.2S69.2,64.7,69.2,64.7H40.6v11.1h59h59.9V64.7h-29.7
			c0,0-0.1-42.7-30.1-42.7S69.3,63.6,69.3,63.6"/>
		<path class="st7" d="M146.7,150.6v9.3c-12.4,9.7-28.9,15.4-46.2,15.4c-17.3,0-33.7-5.7-46.2-15.4v-9.4c0,0,0.9-25.8,21-38.7
			c0,0,8.7,10.1,25,10.1s25-10.1,25-10.1C145.4,124.8,146.7,150.6,146.7,150.6z M100.8,161.4c1.8-1.8,3.6-3.6,5.3-5.4c1-1,2-2,3-3
			c0.6-0.6,0.7-1.2,1-2.1c1.3-3.9,0.4-8.9-1-12.7c-0.7-1.9-1.8-3.8-3.2-5.3c-1.3-1.3-3.3-2.7-5.3-2.6 M100.1,130.3
			c-1.9-0.2-4,1.2-5.3,2.6c-1.4,1.5-2.5,3.4-3.2,5.3c-1.4,3.8-2.3,8.7-1,12.7c0.3,0.9,0.4,1.5,1,2.1c1,1,2,2,3,3
			c1.8,1.8,3.6,3.6,5.3,5.4 M100.9,130.4H100v37.6h0.9V130.4z"/>
	</g>
</g>
<g id="Hoka" class="st0">
	<g id="Hoja_1_" class="st1">
		<path class="st17" d="M104.8,156c7.7-7.7,15.4-15.5,23.1-23.2c4.3-4.4,8.7-8.7,13-13.1c2.7-2.7,3.2-5.3,4.4-9
			c5.6-17,1.9-38.1-4.2-54.4C138,48,133.5,40,127.4,33.5c-5.4-5.7-14.3-11.8-22.6-11"/>
		<path class="st17" d="M94.2,156c-7.7-7.7-15.4-15.5-23.1-23.2c-4.3-4.4-8.7-8.7-13-13.1c-2.7-2.7-3.2-5.3-4.4-9
			c-5.6-17-1.9-38.1,4.2-54.4C61,48,65.5,40,71.6,33.5c5.4-5.7,14.3-11.8,22.6-11"/>
		<rect x="99" y="22.3" class="st18" width="0.9" height="163.5"/>
	</g>
	<g id="Hoja" class="st1">
		<path class="st19" d="M102.8,157.4c7.8-7.9,15.7-15.8,23.5-23.7c4.4-4.5,8.8-8.9,13.3-13.4c2.7-2.7,3.3-5.4,4.5-9.1
			c5.7-17.3,2-38.8-4.2-55.5c-3.1-8.5-7.7-16.7-14-23.3c-5.5-5.8-14.6-12-23.1-11.3"/>
		<path class="st19" d="M96.1,157.4c-7.8-7.9-15.7-15.8-23.5-23.7c-4.4-4.5-8.8-8.9-13.3-13.4c-2.7-2.7-3.3-5.4-4.5-9.1
			c-5.7-17.3-2-38.8,4.2-55.5c3.1-8.5,7.7-16.7,14-23.3c5.5-5.8,14.6-12,23.1-11.3"/>
		<rect x="99" y="21" class="st20" width="0.9" height="166.9"/>
	</g>
</g>
</svg>
