<?xml version="1.0" encoding="utf-8"?>
<!-- Generator: Adobe Illustrator 25.2.3, SVG Export Plug-In . SVG Version: 6.00 Build 0)  -->
<svg version="1.1" id="Capa_1" xmlns="http://www.w3.org/2000/svg" xmlns:xlink="http://www.w3.org/1999/xlink" x="0px" y="0px"
	 viewBox="0 0 96 96" style="enable-background:new 0 0 96 96;" xml:space="preserve">
<style type="text/css">
	.st0{fill:#FAF3E8;}
	.st1{fill:#5D9E9B;}
	.st2{fill:none;}
	.st3{clip-path:url(#SVGID_2_);}
	.st4{fill:none;stroke:#5D9E9B;stroke-linecap:round;stroke-miterlimit:10;}
	.st5{fill:#CE7A15;}
	.st6{fill:#EAA42C;}
	.st7{fill:#5D9A97;}
	.st8{fill:#FFDC6F;}
	.st9{fill:#F6EFE4;}
	.st10{fill:none;stroke:#5D9E9B;stroke-width:2.2394;stroke-linecap:round;stroke-miterlimit:10;}
	.st11{fill:#E59F2C;}
	.st12{fill:#CF8013;}
	.st13{fill:#6D5235;}
	.st14{fill:#365B56;}
	.st15{fill:#AB754E;}
	.st16{fill:#93623E;}
	.st17{fill:#FFDECB;}
	.st18{fill:#333333;}
	.st19{fill:#F3E4D1;}
	.st20{fill:#FFFFFF;}
	.st21{fill:#BCD6D4;}
	.st22{fill:#E6A02C;}
	.st23{fill:#468080;}
	.st24{clip-path:url(#SVGID_14_);}
	.st25{fill:#FFD86F;}
	.st26{clip-path:url(#SVGID_24_);}
	.st27{clip-path:url(#SVGID_28_);}
	.st28{clip-path:url(#SVGID_32_);}
	.st29{clip-path:url(#SVGID_36_);}
	.st30{fill:none;stroke:#FFFFFF;stroke-width:2;stroke-miterlimit:10;}
	.st31{fill:#DDE8E7;}
	.st32{fill:#FFEAB0;}
	.st33{fill:#7C7C7C;}
	.st34{fill:#3A3A3A;}
	.st35{fill:#444444;}
	.st36{fill:#F7B82B;}
	.st37{fill:#E9A32C;}
	.st38{fill:#D38013;}
	.st39{fill:#915B36;}
	.st40{fill:#AF754E;}
	.st41{fill:#E0BA94;}
	.st42{fill:none;stroke:#0C0C0C;stroke-miterlimit:10;}
	.st43{fill:#5B997A;}
	.st44{fill:#D6852D;}
	.st45{fill:none;stroke:#D6852D;stroke-miterlimit:10;}
	.st46{clip-path:url(#SVGID_40_);fill:#FFDC6F;}
	.st47{fill:none;stroke:#5D9E9B;stroke-width:0.8735;stroke-linecap:round;stroke-miterlimit:10;}
	.st48{fill:none;stroke:#FFFFFF;stroke-width:3;stroke-linecap:round;stroke-miterlimit:10;}
	.st49{fill:none;stroke:#5D9E9B;stroke-width:2.2394;stroke-linecap:round;stroke-linejoin:round;stroke-miterlimit:10;}
	.st50{clip-path:url(#SVGID_42_);fill:#E59F2C;}
	.st51{clip-path:url(#SVGID_42_);fill:none;stroke:#5D9E9B;stroke-width:2.2394;stroke-linecap:round;stroke-miterlimit:10;}
	.st52{fill:none;stroke:#5D4037;stroke-width:4.0297;stroke-linecap:round;stroke-miterlimit:10;}
	.st53{fill:#AFB9B8;}
	.st54{fill:#728080;}
	.st55{fill:#637572;}
	.st56{clip-path:url(#SVGID_44_);fill:none;stroke:#5D9E9B;stroke-width:2.2394;stroke-linecap:round;stroke-miterlimit:10;}
	.st57{fill:none;stroke:#5D9E9B;stroke-width:2.2394;stroke-linecap:round;stroke-miterlimit:10;stroke-dasharray:10.7308,10.7308;}
	.st58{clip-path:url(#SVGID_46_);}
	.st59{fill:none;stroke:#333333;stroke-width:1.8066;stroke-linecap:round;stroke-miterlimit:10;}
	.st60{clip-path:url(#SVGID_50_);}
	.st61{fill:none;stroke:#6CBCB6;stroke-width:2;stroke-miterlimit:10;}
	.st62{fill:#FFD255;}
	.st63{fill:#FCCDAC;}
	.st64{fill:none;stroke:#467C75;stroke-width:1.3913;stroke-miterlimit:10;}
	.st65{fill:#222222;}
	.st66{fill:#E59945;}
	.st67{fill:#F1A74A;}
	.st68{fill:none;stroke:#333333;stroke-linecap:round;stroke-miterlimit:10;}
	.st69{fill:none;stroke:#222222;stroke-width:3;stroke-linecap:round;stroke-miterlimit:10;}
	.st70{fill:#5D9D9A;}
	.st71{fill:none;stroke:#333333;stroke-width:0.9054;stroke-linecap:round;stroke-miterlimit:10;}
	.st72{fill:#467C75;}
	.st73{fill:none;stroke:#333333;stroke-width:0.9913;stroke-linecap:round;stroke-miterlimit:10;}
	.st74{fill:#E8991B;}
	.st75{clip-path:url(#SVGID_54_);}
	.st76{clip-path:url(#SVGID_56_);}
	.st77{fill:none;stroke:#333333;stroke-width:0.8927;stroke-linecap:round;stroke-miterlimit:10;}
	.st78{clip-path:url(#SVGID_58_);fill:#FFDECB;}
	.st79{fill:none;stroke:#3B706D;stroke-width:2;stroke-miterlimit:10;}
	.st80{fill:none;stroke:#3B706D;stroke-width:1.5478;stroke-miterlimit:10;}
	.st81{clip-path:url(#SVGID_60_);fill:none;stroke:#3B706D;stroke-width:2;stroke-miterlimit:10;}
	.st82{fill:none;stroke:#BB8A69;stroke-width:1.6306;stroke-miterlimit:10;}
	.st83{fill:#3B706D;}
	.st84{fill:#BB8A69;}
	.st85{clip-path:url(#SVGID_62_);}
	.st86{clip-path:url(#SVGID_64_);}
	.st87{clip-path:url(#SVGID_66_);fill:#3B706D;}
	.st88{fill:none;stroke:#3B706D;stroke-width:1.7061;stroke-miterlimit:10;}
	.st89{fill:none;stroke:#3B706D;stroke-width:1.3204;stroke-miterlimit:10;}
	.st90{fill:none;stroke:#BB8A69;stroke-width:1.391;stroke-miterlimit:10;}
	.st91{fill:none;stroke:#333333;stroke-width:1.5388;stroke-linecap:round;stroke-miterlimit:10;}
	.st92{fill:none;stroke:#333333;stroke-width:1.3767;stroke-linecap:round;stroke-miterlimit:10;}
	.st93{fill:none;stroke:#333333;stroke-width:4.1302;stroke-linecap:round;stroke-miterlimit:10;}
	.st94{fill:none;stroke:#333333;stroke-width:1.2465;stroke-linecap:round;stroke-miterlimit:10;}
	.st95{fill:none;stroke:#333333;stroke-width:1.1783;stroke-linecap:round;stroke-miterlimit:10;}
	.st96{fill:none;stroke:#333333;stroke-width:1.1885;stroke-linecap:round;stroke-miterlimit:10;}
	.st97{fill:none;stroke:#FFFFFF;stroke-width:1.2465;stroke-linecap:round;stroke-miterlimit:10;}
	.st98{clip-path:url(#SVGID_68_);fill:none;stroke:#3B706D;stroke-width:1.7061;stroke-miterlimit:10;}
	.st99{fill:#FFDAC6;}
	.st100{fill:none;stroke:#333333;stroke-width:0.7472;stroke-linecap:round;stroke-miterlimit:10;}
	.st101{fill:none;stroke:#333333;stroke-width:2;stroke-linecap:round;stroke-miterlimit:10;}
	.st102{fill:none;stroke:#333333;stroke-width:0.6863;stroke-linecap:round;stroke-miterlimit:10;}
	.st103{clip-path:url(#SVGID_70_);fill:#FFFFFF;}
	.st104{clip-path:url(#SVGID_70_);fill:#5D9E9B;}
	.st105{fill:none;stroke:#333333;stroke-width:0.9144;stroke-miterlimit:10;}
	.st106{fill:none;stroke:#333333;stroke-width:0.7352;stroke-linecap:round;stroke-miterlimit:10;}
	.st107{fill:none;stroke:#333333;stroke-width:1.9678;stroke-linecap:round;stroke-miterlimit:10;}
	.st108{fill:none;stroke:#333333;stroke-width:0.6753;stroke-linecap:round;stroke-miterlimit:10;}
	.st109{clip-path:url(#SVGID_72_);fill:#FFFFFF;}
	.st110{clip-path:url(#SVGID_72_);fill:#5D9E9B;}
	.st111{fill:none;stroke:#333333;stroke-width:0.8997;stroke-miterlimit:10;}
	.st112{fill:none;stroke:#3B706D;stroke-width:1.4819;stroke-miterlimit:10;}
	.st113{fill:none;stroke:#BB8A69;stroke-width:1.1897;stroke-miterlimit:10;}
	.st114{clip-path:url(#SVGID_74_);}
	.st115{clip-path:url(#SVGID_76_);fill:#3B706D;}
	.st116{clip-path:url(#SVGID_78_);fill:none;stroke:#3B706D;stroke-width:1.444;stroke-miterlimit:10;}
	.st117{fill:none;stroke:#CF8013;stroke-width:0.5;stroke-linecap:round;stroke-miterlimit:10;}
	.st118{fill:none;stroke:#3B706D;stroke-width:1.5023;stroke-miterlimit:10;}
	.st119{fill:none;stroke:#BB8A69;stroke-width:1.2061;stroke-miterlimit:10;}
	.st120{clip-path:url(#SVGID_80_);}
	.st121{clip-path:url(#SVGID_82_);fill:#3B706D;}
	.st122{clip-path:url(#SVGID_84_);fill:none;stroke:#3B706D;stroke-width:1.4639;stroke-miterlimit:10;}
	.st123{fill:none;stroke:#CF8013;stroke-width:0.5069;stroke-linecap:round;stroke-miterlimit:10;}
	.st124{fill:none;stroke:#FFDC6F;stroke-linejoin:round;stroke-miterlimit:10;}
	.st125{fill:none;stroke:#333333;stroke-width:0.75;stroke-linecap:round;stroke-miterlimit:10;}
	.st126{clip-path:url(#SVGID_86_);}
	.st127{clip-path:url(#SVGID_88_);fill:none;stroke:#333333;stroke-width:0.56;stroke-linecap:round;stroke-miterlimit:10;}
	.st128{clip-path:url(#SVGID_88_);fill:#FFDC6F;}
	.st129{fill:none;stroke:#EAA42C;stroke-width:1.5;stroke-linecap:round;stroke-miterlimit:10;}
	.st130{fill:none;stroke:#333333;stroke-width:0.56;stroke-linecap:round;stroke-miterlimit:10;}
	.st131{clip-path:url(#SVGID_90_);fill:none;stroke:#5D9E9B;stroke-linecap:round;stroke-miterlimit:10;}
	.st132{clip-path:url(#SVGID_90_);fill:none;stroke:#EAA42C;stroke-miterlimit:10;}
	.st133{clip-path:url(#SVGID_90_);fill:#EAA42C;}
	.st134{clip-path:url(#SVGID_92_);fill:#5D9A97;}
	.st135{fill:none;stroke:#EAA42C;stroke-miterlimit:10;}
	.st136{clip-path:url(#SVGID_94_);}
	.st137{clip-path:url(#SVGID_96_);fill:#FFDECB;}
	.st138{clip-path:url(#SVGID_98_);}
	.st139{fill:none;stroke:#333333;stroke-width:1.4796;stroke-linecap:round;stroke-miterlimit:10;}
	.st140{fill:none;stroke:#222222;stroke-width:4.4389;stroke-linecap:round;stroke-miterlimit:10;}
	.st141{fill:none;stroke:#333333;stroke-width:1.3397;stroke-linecap:round;stroke-miterlimit:10;}
	.st142{clip-path:url(#SVGID_100_);fill:#F4E7D4;}
	.st143{clip-path:url(#SVGID_102_);fill:none;stroke:#333333;stroke-width:1.3397;stroke-linecap:round;stroke-miterlimit:10;}
	.st144{fill:none;stroke:#467C75;stroke-width:2.0585;stroke-miterlimit:10;}
	.st145{clip-path:url(#SVGID_104_);fill:#FCCDAC;}
	.st146{fill:#FF0303;}
	.st147{fill:#F4E7D4;}
</style>
<g>
	<path class="st0" d="M96,48c0,26.5-21.5,48-48,48S0,74.5,0,48S21.5,0,48,0S96,21.5,96,48"/>
</g>
<path class="st1" d="M23.1,51c-0.3,0-0.5,0.2-0.5,0.5v37.3c0.3,0.2,0.7,0.4,1,0.6V51.5C23.6,51.2,23.4,51,23.1,51z"/>
<g>
	<path class="st2" d="M96,48c0,26.5-21.5,48-48,48S0,74.5,0,48S21.5,0,48,0S96,21.5,96,48"/>
</g>
<path class="st1" d="M47,37.6c-0.3,0-0.5,0.2-0.5,0.5V96c0.3,0,0.7,0,1,0V38.1C47.5,37.8,47.3,37.6,47,37.6z"/>
<path class="st1" d="M73.9,54.4c-0.3,0-0.5,0.2-0.5,0.5v33.8c0.3-0.2,0.7-0.4,1-0.6V54.9C74.4,54.6,74.2,54.4,73.9,54.4z"/>
<g>
	<defs>
		<path id="SVGID_1_" d="M96-58c0,26.5-21.5,48-48,48S0-31.5,0-58s21.5-48,48-48S96-84.5,96-58"/>
	</defs>
	<clipPath id="SVGID_2_">
		<use xlink:href="#SVGID_1_"  style="overflow:visible;"/>
	</clipPath>
	<g class="st3">
		<line class="st4" x1="47" y1="2.9" x2="47" y2="-67.9"/>
	</g>
</g>
<g>
	<path class="st146" d="M214.4,103.1h-454.7V-6h454.7V103.1z M-239.5,102.9h452.9V-5.8h-452.9V102.9z"/>
</g>
<g>
	<path class="st1" d="M64.8,63.2c0,0-13.7-5.5-18.2,7.4C58.8,76.7,64.8,63.2,64.8,63.2z"/>
</g>
<g>
	<circle class="st8" cx="42.3" cy="18.4" r="1.3"/>
	<circle class="st8" cx="46.6" cy="18.4" r="1.3"/>
	<circle class="st8" cx="50.9" cy="18.4" r="1.3"/>
</g>
<g>
	<path class="st6" d="M53.9,33.9c0,3.8-3.1,6.9-6.9,6.9c-3.8,0-6.9-3.1-6.9-6.9c0-3.8,3.1-6.9,6.9-6.9C50.8,27,53.9,30.1,53.9,33.9z
		"/>
</g>
<g>
	<path class="st20" d="M85.8,46.3c-1.4-2.6-4.9-1.3-4.9-1.3s1.9-5.2-2.4-6.2c-4.6-1-4.6,3.2-4.6,3.2s0-4.2-4.6-3.2
		c-4.3,1-2.4,6.2-2.4,6.2s-3.4-1.3-4.9,1.3s-0.4,4,1.9,5.4c2.3,1.4,9.9,4.8,9.9,4.8s7.7-3.3,9.9-4.8C86.1,50.3,87.2,48.9,85.8,46.3z
		"/>
</g>
<g>
	<path class="st8" d="M73.9,50.8c-2.3,0-4.4,1.4-5.3,3.4c2.6,1.2,5.3,2.4,5.3,2.4s2.6-1.1,5.3-2.4C78.3,52.2,76.3,50.8,73.9,50.8z"
		/>
</g>
<g>
	<path class="st6" d="M41.6,20.8c0,0,10.4-0.2,10.6,0C52.3,21,49.8,31,49.8,31h-6.2L41.6,20.8z"/>
</g>
<g>
	<path class="st8" d="M34.2,41.9c0,0-1.4-1.9-4.8,1.4c0.2-1,0.3-2.1,0.3-3.2c0,0-0.1-3.9-2.3-4.4c0,0-2.5-1-3.6,4.4
		c-0.2,1.1-0.5,2.2-0.7,3.4c-0.2-1.1-0.4-2.2-0.7-3.4c-1.1-5.4-3.6-4.4-3.6-4.4c-2.3,0.5-2.3,4.4-2.3,4.4c0,1.1,0.1,2.2,0.3,3.2
		c-3.3-3.3-4.8-1.4-4.8-1.4c-1.7,1.6,0.3,5,0.3,5c2,3.7,5.4,5.8,9.1,7.8c0.5,0.3,1,0.6,1.7,0.6c0.5,0,1-0.2,1.5-0.4l0,0
		c3.8-2.1,7.3-4.2,9.3-7.9C33.9,46.9,35.9,43.5,34.2,41.9z"/>
</g>
</svg>
