<?xml version="1.0" encoding="UTF-8"?>
<svg width="136px" height="112px" viewBox="0 0 136 112" version="1.1" xmlns="http://www.w3.org/2000/svg" xmlns:xlink="http://www.w3.org/1999/xlink">
    <title>quoteimg</title>
    <g id="History" stroke="none" stroke-width="1" fill="none" fill-rule="evenodd" fill-opacity="0.48">
        <g id="Pages_2_HistoryAutomatic_Desktop" transform="translate(-160.000000, -1784.000000)" fill="#E4E6E8">
            <g id="03.content" transform="translate(159.000000, 664.000000)">
                <g id="01.farmer" transform="translate(1.000000, 0.000000)">
                    <g id="quote" transform="translate(0.000000, 1120.000000)">
                        <path d="M22.8251748,112 C29.6876457,112 35.5804196,109.526104 40.5034965,104.578313 C45.4265734,99.6305221 47.8881119,93.5582329 47.8881119,86.3614458 C47.8881119,81.8634538 46.7692308,77.7402945 44.5314685,73.9919679 C42.2937063,70.2436412 39.2354312,67.4698795 35.3566434,65.6706827 L35.3566434,65.6706827 L64,1.42108547e-14 L42.5174825,1.42108547e-14 L8.05594406,65.2208835 C5.07226107,70.6184739 2.98368298,74.9665328 1.79020979,78.2650602 C0.596736597,81.5635877 0,85.1619813 0,89.060241 C0,95.6572959 2.16317016,101.129853 6.48951049,105.477912 C10.8158508,109.825971 16.2610723,112 22.8251748,112 Z M94.8251748,112 C101.687646,112 107.58042,109.526104 112.503497,104.578313 C117.426573,99.6305221 119.888112,93.5582329 119.888112,86.3614458 C119.888112,81.8634538 118.769231,77.7402945 116.531469,73.9919679 C114.293706,70.2436412 111.235431,67.4698795 107.356643,65.6706827 L107.356643,65.6706827 L136,1.42108547e-14 L114.517483,1.42108547e-14 L80.0559441,65.2208835 C77.0722611,70.6184739 74.983683,74.9665328 73.7902098,78.2650602 C72.5967366,81.5635877 72,85.1619813 72,89.060241 C72,95.6572959 74.1631702,101.129853 78.4895105,105.477912 C82.8158508,109.825971 88.2610723,112 94.8251748,112 Z" id="quoteimg"></path>
                    </g>
                </g>
            </g>
        </g>
    </g>
</svg>