<?xml version="1.0" encoding="UTF-8"?>
<svg width="740px" height="950px" viewBox="0 0 740 950" version="1.1" xmlns="http://www.w3.org/2000/svg" xmlns:xlink="http://www.w3.org/1999/xlink">
    <title>world</title>
    <defs>
        <circle id="path-1" cx="369.22" cy="369.22" r="369.22"></circle>
    </defs>
    <g id="Page-1" stroke="none" stroke-width="1" fill="none" fill-rule="evenodd">
        <g id="world">
            <g id="Group" transform="translate(0.920000, 210.930000)">
                <mask id="mask-2" fill="white">
                    <use xlink:href="#path-1"></use>
                </mask>
                <use id="Mask" fill="#81C1B8" fill-rule="nonzero" xlink:href="#path-1"></use>
                <g mask="url(#mask-2)" fill="#407770" fill-rule="nonzero" id="Combined-Shape">
                    <g transform="translate(26.080000, 13.070000)">
                        <path d="M240.85,0.87 C240.85,0.87 275.08,87.03 230.8,100.4 C198.18,110.29 190.77,122.49 192.85,135.19 C192.985,136.015 193.1223,136.8326 193.259554,137.646024 L193.424086,138.620334 C193.506191,139.106693 193.587941,139.592013 193.66883,140.07699 L193.829309,141.046693 L193.829309,141.046693 L193.986591,142.01672 C196.21374,155.928668 197.1778,170.3218 184.94,201.6 C170.71,237.97 135.92,244.3 128.02,260.11 C128.02,260.11 95.65,301.79 100.37,331.3 C104.81,359.03 133.22,374.25 136.62,375.98 C147.31,376.3 158.47,376.85 169.23,377.76 C212.27,381.37 208.17,430.15 216.37,455.45 C216.37,455.45 221.91,480.02 216.04,505.98 C210.17,531.94 184.17,613.38 184.17,613.38 C175.94,651.15 141.71,638.17 138.17,631.08 C138.17,631.08 119.28,608.66 115.75,550.83 C112.22,493 85.22,486.16 85.22,486.16 C66.78,482.55 50.38,477.12 46.28,433.76 C42.18,390.4 76.8,376.15 76.8,376.15 C76.8,376.15 85.93,375.78 99.75,375.64 C91.44,367.11 77.67,351.68 74.44,339.56 C69.72,321.86 52.01,318.31 39.03,302.97 C26.05,287.63 21.33,268.75 21.33,268.75 C8.68,208.66 -0.74,182.17 1.26,177.87 C59.77,51.41 240.85,0.87 240.85,0.87 Z M552.64,445.65 C552.64,445.65 543,512.9 505.34,551.27 C462.42,594.98 458.6,551.27 458.6,551.27 C458.6,551.27 456.382675,531.864625 454.082616,511.503199 L453.831475,509.279047 C452.03075,493.324826 450.2269,477.1963 449.44,469.71 C447.61,452.3 399.03,470.62 390.78,404.64 C382.53,338.66 419.23,338.41 440.27,332.24 C440.27,332.24 566.8,305.24 552.64,445.65 Z M508.76,11.91 C676.47,64.15 755.43,194.03 755.43,194.03 C698.61,199.53 712.87,241.54 681.19,287.08 C652.19,328.81 602.19,298.54 581.94,277.47 C576.62,271.94 558.8,245.02 551.25,277.47 C547.75,292.47 547.57,312.37 499.64,302.78 C497.51634,302.620074 495.38366,302.620074 493.26,302.78 L493.26,302.78 C474.37,302.78 460.38,325.86 447.4,319.96 C437.49,315.45 426.24,295.08 436.78,284.55 C448.58,272.75 453.3,289.27 473.36,275.11 C493.42,260.95 468,240.68 461.56,234.98 C426.1,203.6 431.43,163.29 449.76,111.05 C468.09,58.81 508.76,11.91 508.76,11.91 Z"></path>
                    </g>
                </g>
            </g>
            <path d="M698.82,743.3 C700.39,739.93 706.25,742.41 704.82,745.84 C697.097689,764.569095 687.438524,782.439556 676,799.16 C655.774067,828.314142 631.022446,854.051507 602.68,875.4 C574.013095,897.130948 541.739004,913.636975 507.34,924.16 L507.34,924.16 L507.39,924.16 C506.26,924.51 505.49,922.74 506.58,922.23 C524.426239,913.841529 541.786946,904.456732 558.58,894.12 C618.58,857.67 668.28,806.93 698.82,743.3 Z M108.1,323.06 C112.77,318.6 119.49,325.39 115.16,330.12 C84.85,363.36 59.38,400.14 41.58,441.58 C10.17,514.64 3.17,597.1 23.17,674.1 C42.93,749.97 86.99,816.97 144.17,869.97 L144.17,869.97 L144.12,869.97 C145.28,871.05 143.72,873.11 142.41,872.18 C105.85,846.32 75.78,812.33 53.05,773.83 C11.88,704.1 -6.44,621.7 3.42,541.3 C13.28,460.9 49.04,379.5 108.1,323.06 Z M503.55,237.51 C501.77,236.5 502.95,233.48 504.95,234.17 C532.79,243.91 559.3,259.19 583.15,276.45 C595.53,285.41 607.63,295.04 619.04,304.96 C630.45,314.88 642.07,325.12 651.69,336.82 C655.63,341.6 649.57,347.88 644.83,343.68 C633.46,333.59 622.96,322.52 611.6,312.41 C600.6,302.636667 589.2,293.36 577.4,284.58 C553.83,267.07 529.05,252 503.55,237.51 Z" id="Combined-Shape" fill="#333333" fill-rule="nonzero"></path>
            <path d="M120.89,35.97 C120.89,35.97 183.7,130.57 309.28,87.21 C309.28,87.21 312.87,59.77 259.44,35.12 C215.08,14.66 145.11,19.64 120.89,35.97 Z" id="Path" fill="#81C1B8" fill-rule="nonzero"></path>
            <path d="M199.94,1.09 C222.62,0.01 245.79,3.79 266,14.52 C285.8,24.97 300.32,42.24 309.37,62.69 C318.42,83.14 322.59,105.14 325.59,127.14 C329.33,154.9 332.03,182.78 333.03,210.78 C333.31,218.43 321.69,218.31 321.22,210.78 C319.43,181.89 317.22,152.9 313.09,124.23 C310.758909,108.020135 307.379438,91.3737104 301.597598,76.0358386 C294.321404,82.1781227 278.664981,81.8954652 270.77,82.14 C238.05,83.18 203.97,80.05 172.48,70.76 C150.27,64.21 122.48,51.24 116.22,26.54 L116.22,26.54 L116.22,26.57 C115.775968,24.8097298 116.860408,23.4210991 118.238477,22.9461978 C141.572102,7.20095312 172.384592,2.39740982 199.94,1.09 Z M254.54,21.62 C234.56,12.37 212.07,10.63 190.36,11.82 C166.869229,13.1122796 145.036991,19.2976881 122.661669,25.7712492 C129.922238,37.7036236 139.232343,46.4371866 151.81,52.75 C164.92,59.33 179.42,62.77 193.81,65.33 C212.243632,68.5836962 230.921562,70.2564465 249.64,70.33 C259.253333,70.39 268.843333,70.0333333 278.41,69.26 C282.3,68.95 293.87,69.09 295.41,63.95 C295.521355,63.5790904 295.671459,63.2353995 295.853841,62.9197011 C286.998356,45.4437401 274.030102,30.6418515 254.54,21.62 Z" id="Combined-Shape" fill="#333333" fill-rule="nonzero"></path>
        </g>
    </g>
</svg>