<?xml version="1.0" encoding="UTF-8"?>
<svg width="128px" height="128px" viewBox="0 0 128 128" version="1.1" xmlns="http://www.w3.org/2000/svg" xmlns:xlink="http://www.w3.org/1999/xlink">
    <!-- Generator: Sketch 63.1 (92452) - https://sketch.com -->
    <title>04.benefits.illustration03</title>
    <desc>Created with Sketch.</desc>
    <g id="04.benefits.illustration03" stroke="none" stroke-width="1" fill="none" fill-rule="evenodd">
        <g id="Food-supply-3">
            <circle id="Oval" fill="#FFD681" fill-rule="nonzero" cx="64.0537815" cy="64" r="63.6773109"></circle>
            <g id="Group" transform="translate(17.210084, 18.823529)">
                <circle id="Oval" fill="#F2F2F2" fill-rule="nonzero" cx="48.4033613" cy="45.1764706" r="44.8537815"></circle>
                <g transform="translate(10.756303, 17.747899)">
                    <g>
                        <circle id="Oval" fill="#EFA53A" fill-rule="nonzero" transform="translate(26.844719, 30.196426) rotate(-75.321759) translate(-26.844719, -30.196426) " cx="26.8447193" cy="30.1964262" r="21.6209715"></circle>
                        <line x1="29.6336134" y1="12.5848739" x2="31.6235294" y2="0.21512605" id="Path" stroke="#725F58" stroke-width="1.83878992" stroke-linecap="square"></line>
                    </g>
                    <path d="M48.3495798,6.23865546 C48.3495798,6.23865546 39.7445378,16.1344538 30.8705882,5.70084034 C30.8705882,5.70084034 39.4218487,-2.20504202 48.3495798,6.23865546 Z" id="Path" fill="#2E998E" fill-rule="nonzero"></path>
                </g>
                <polygon id="Path" fill="#F2F2F2" fill-rule="nonzero" points="0.376470588 78.897479 20.4907563 77.7680672 9.62689076 61.8487395"></polygon>
            </g>
            <path d="M89.1159664,57.2773109 C81.4252101,58.1378151 80.3495798,65.0756303 80.3495798,65.0756303 C80.2420168,63.7848739 77.8218487,57.2235294 70.3462185,58.7831933 C61.2033613,60.6655462 52.4369748,81.102521 82.6621849,91.589916 C110.628571,75.9932773 98.3663866,56.2016807 89.1159664,57.2773109 Z" id="Path" fill="#F47658" fill-rule="nonzero"></path>
        </g>
    </g>
</svg>