<?xml version="1.0" encoding="UTF-8"?>
<svg width="128px" height="128px" viewBox="0 0 128 128" version="1.1" xmlns="http://www.w3.org/2000/svg" xmlns:xlink="http://www.w3.org/1999/xlink">
    <!-- Generator: Sketch 63.1 (92452) - https://sketch.com -->
    <title>04.benefits.illustration02</title>
    <desc>Created with Sketch.</desc>
    <g id="04.benefits.illustration02" stroke="none" stroke-width="1" fill="none" fill-rule="evenodd">
        <g id="Food-suply-2" fill-rule="nonzero">
            <circle id="Oval" fill="#FFD681" cx="64" cy="64" r="63.6773109"></circle>
            <g id="Group" transform="translate(27.428571, 19.361345)">
                <rect id="Rectangle" fill="#705650" transform="translate(42.537966, 12.373147) rotate(13.014801) translate(-42.537966, -12.373147) " x="40.8707592" y="0.111112046" width="3.33441298" height="24.5240697"></rect>
                <circle id="Oval" fill="#EFA53A" cx="34.7428571" cy="50.8235294" r="34.5815126"></circle>
                <path d="M43.9932773,10.2722689 C43.9932773,10.2722689 58.7831933,-2.90420168 71.5294118,14.0369748 C71.5294118,14.0369748 57.1159664,24.3092437 43.9932773,10.2722689 Z" id="Path" fill="#42A799"></path>
            </g>
            <circle id="Oval" fill="#705650" cx="48.3495798" cy="59.3747899" r="3.17310924"></circle>
            <circle id="Oval" fill="#705650" cx="69.1630252" cy="59.3747899" r="3.17310924"></circle>
            <path d="M59.1596639,75.9932773 C55.287395,75.9932773 52.3294118,74.3260504 52.2756303,74.3260504 C51.8453782,74.0571429 51.6840336,73.5193277 51.9529412,73.0890756 C52.2218487,72.6588235 52.7596639,72.497479 53.189916,72.7663866 C53.5663866,72.9815126 61.9563025,77.6067227 68.3563025,69.3781513 C68.6789916,69.0016807 69.2705882,68.8941176 69.6470588,69.2168067 C70.0235294,69.5394958 70.1310924,70.1310924 69.8084034,70.507563 C66.4201681,74.810084 62.4941176,75.9932773 59.1596639,75.9932773 Z" id="Path" fill="#705650"></path>
            <path d="M34.8504202,30.4403361 C32.8605042,29.5260504 31.8386555,29.8487395 31.7310924,24.0941176 C31.7310924,24.0941176 31.2470588,22.1579832 29.8487395,21.9428571 C28.3966387,22.1042017 27.9663866,24.0941176 27.9663866,24.0941176 C27.8588235,29.8487395 26.7831933,29.5260504 24.8470588,30.4403361 C22.4806723,31.5159664 23.6638655,32.8605042 24.2554622,33.1294118 C26.0302521,33.8285714 27.0521008,33.0218487 27.589916,38.4537815 C27.912605,41.7344538 29.902521,41.5731092 29.902521,41.5731092 C29.902521,41.5731092 31.892437,41.7344538 32.2151261,38.4537815 C32.7529412,33.0756303 33.7747899,33.8285714 35.5495798,33.1294118 C36.087395,32.8067227 37.2168067,31.5159664 34.8504202,30.4403361 Z" id="Path" fill="#FFFFFF"></path>
            <path d="M113.855462,81.7478992 C111.865546,80.8336134 110.843697,81.1563025 110.736134,75.4016807 C110.736134,75.4016807 110.252101,73.4655462 108.853782,73.2504202 C107.401681,73.4117647 106.971429,75.4016807 106.971429,75.4016807 C106.863866,81.1563025 105.788235,80.8336134 103.852101,81.7478992 C101.485714,82.8235294 102.668908,84.1680672 103.260504,84.4369748 C105.035294,85.1361345 106.057143,84.3294118 106.594958,89.7613445 C106.917647,93.0420168 108.907563,92.8806723 108.907563,92.8806723 C108.907563,92.8806723 110.897479,93.0420168 111.220168,89.7613445 C111.757983,84.3831933 112.779832,85.1361345 114.554622,84.4369748 C115.038655,84.1680672 116.221849,82.8235294 113.855462,81.7478992 Z" id="Path" fill="#FFFFFF"></path>
        </g>
    </g>
</svg>