<svg width="32" height="24" viewBox="0 0 32 24" fill="none" xmlns="http://www.w3.org/2000/svg">
<path d="M27.0526 2H4.94736C2.76729 2 0.999996 3.86548 0.999996 6.16667V17.8333C0.999996 20.1345 2.76729 22 4.94736 22H27.0526C29.2327 22 31 20.1345 31 17.8333V6.16667C31 3.86548 29.2327 2 27.0526 2Z" fill="white"/>
<path fill-rule="evenodd" clip-rule="evenodd" d="M15.5486 9.91663H16.1215H17.2847V14.0833H16.1215V11.325L14.7934 14.0833H13.7431L12.2934 11.075V14.0833H10.1319L9.71528 13.1583H7.68403L7.2934 14.0833H6L7.89236 9.91663H9.54167L11.2083 13.4416V9.91663H12.9444L14.2552 12.575L15.5486 9.91663ZM8.67361 10.825L8.09201 12.2083H9.28993L8.67361 10.825ZM25.3056 9.91663H26.8333L24.8281 12L26.8333 14.0833H25.3056L24.0556 12.7666L22.7708 14.0833H18.0833V9.91663H22.8663L24.0729 11.1666L25.3056 9.91663ZM21.625 13.125V13.6666L23.3004 12L21.625 10.2416V10.8666H19.2031V11.525H21.625V12.4666H19.2031V13.125H21.625Z" fill="#00ADEF"/>
<path fill-rule="evenodd" clip-rule="evenodd" d="M27 3H5C3.34315 3 2 4.34315 2 6V18C2 19.6569 3.34315 21 5 21H27C28.6569 21 30 19.6569 30 18V6C30 4.34315 28.6569 3 27 3ZM5 2C2.79086 2 1 3.79086 1 6V18C1 20.2091 2.79086 22 5 22H27C29.2091 22 31 20.2091 31 18V6C31 3.79086 29.2091 2 27 2H5Z" fill="black" fill-opacity="0.12"/>
</svg>
