<svg width="32" height="24" viewBox="0 0 32 24" fill="none" xmlns="http://www.w3.org/2000/svg">
<path d="M28.3134 2.40002H3.68665C3.58408 2.40002 3.48133 2.40002 3.37895 2.40062C3.2924 2.40124 3.20605 2.4022 3.11971 2.40456C2.93139 2.40965 2.74147 2.42076 2.55551 2.45418C2.36658 2.48818 2.19077 2.54364 2.01926 2.63097C1.85064 2.71672 1.69628 2.82887 1.5625 2.9627C1.42867 3.09653 1.31651 3.25065 1.23078 3.41944C1.14344 3.59095 1.08794 3.76682 1.05418 3.95589C1.02058 4.14191 1.00939 4.3318 1.00432 4.51991C1.002 4.60626 1.001 4.6926 1.00044 4.77893C0.99984 4.88153 1.00004 4.98406 1.00004 5.08685V18.9191C1.00004 19.0219 0.99984 19.1243 1.00044 19.2271C1.001 19.3134 1.002 19.3997 1.00432 19.4861C1.00939 19.674 1.02058 19.8639 1.05418 20.0499C1.08794 20.239 1.14344 20.4148 1.23078 20.5864C1.31651 20.7551 1.42867 20.9095 1.5625 21.0431C1.69628 21.1771 1.85064 21.2893 2.01926 21.3748C2.19077 21.4624 2.36658 21.5179 2.55551 21.5518C2.74147 21.585 2.93139 21.5963 3.11971 21.6014C3.20605 21.6034 3.2924 21.6046 3.37895 21.605C3.48133 21.6058 3.58408 21.6058 3.68665 21.6058H28.3134C28.4158 21.6058 28.5185 21.6058 28.6209 21.605C28.7072 21.6046 28.7936 21.6034 28.8803 21.6014C29.0683 21.5963 29.2581 21.585 29.4446 21.5518C29.6332 21.5179 29.8091 21.4624 29.9806 21.3748C30.1494 21.2893 30.3033 21.1771 30.4374 21.0431C30.571 20.9095 30.6831 20.7551 30.7691 20.5864C30.8566 20.4148 30.9121 20.239 30.9457 20.0499C30.9793 19.8639 30.9902 19.674 30.9953 19.4861C30.9977 19.3997 30.9988 19.3134 30.9992 19.2271C31 19.1243 31 19.0219 31 18.9191V5.08685C31 4.98406 31 4.88153 30.9992 4.77893C30.9988 4.6926 30.9977 4.60626 30.9953 4.51991C30.9902 4.3318 30.9793 4.14191 30.9457 3.95589C30.9121 3.76682 30.8566 3.59095 30.7691 3.41944C30.6831 3.25065 30.571 3.09653 30.4374 2.9627C30.3033 2.82887 30.1494 2.71672 29.9806 2.63097C29.8091 2.54364 29.6332 2.48818 29.4446 2.45418C29.2581 2.42076 29.0683 2.40965 28.8803 2.40456C28.7936 2.4022 28.7072 2.40124 28.6209 2.40062C28.5185 2.40002 28.4158 2.40002 28.3134 2.40002Z" fill="black"/>
<path d="M28.3134 3.04016L28.6163 3.04074C28.6984 3.04132 28.7805 3.04221 28.863 3.04446C29.0066 3.04834 29.1745 3.05611 29.331 3.08417C29.4671 3.10867 29.5812 3.14594 29.6907 3.20169C29.7988 3.25662 29.8978 3.32861 29.9843 3.41498C30.0712 3.50192 30.1432 3.60113 30.1989 3.71044C30.2543 3.8191 30.2914 3.93267 30.3157 4.06973C30.3437 4.22455 30.3514 4.39293 30.3554 4.53736C30.3576 4.61888 30.3587 4.70041 30.3591 4.78387C30.3599 4.88481 30.3598 4.98569 30.3598 5.08683V18.9191C30.3598 19.0202 30.3599 19.1209 30.3591 19.224C30.3587 19.3055 30.3576 19.3871 30.3554 19.4687C30.3514 19.613 30.3437 19.7812 30.3154 19.9379C30.2914 20.0731 30.2544 20.1866 30.1986 20.2958C30.1431 20.4049 30.0711 20.504 29.9847 20.5904C29.8977 20.6774 29.799 20.7492 29.6896 20.8046C29.5809 20.8601 29.467 20.8973 29.3323 20.9216C29.1726 20.95 28.9976 20.9579 28.8658 20.9614C28.7829 20.9633 28.7004 20.9644 28.6159 20.9648C28.5152 20.9656 28.4141 20.9656 28.3134 20.9656H3.68664C3.6853 20.9656 3.68399 20.9656 3.68263 20.9656C3.58306 20.9656 3.48328 20.9656 3.38189 20.9648C3.29923 20.9644 3.21674 20.9633 3.13699 20.9615C3.00222 20.9578 2.82715 20.95 2.66876 20.9217C2.53288 20.8973 2.41897 20.8601 2.30885 20.8039C2.20048 20.7489 2.10183 20.6772 2.01481 20.5901C1.92846 20.5039 1.85671 20.4051 1.80123 20.2959C1.7457 20.1868 1.70854 20.0728 1.68411 19.9361C1.65587 19.7797 1.64811 19.6121 1.64424 19.4689C1.64202 19.3868 1.6411 19.3049 1.64057 19.2233L1.64017 18.9827L1.64019 18.9191V5.08683L1.64017 5.02328L1.64056 4.78311C1.6411 4.7011 1.64202 4.6191 1.64424 4.53716C1.64811 4.39378 1.65587 4.22609 1.68434 4.06844C1.70856 3.93289 1.7457 3.81896 1.80152 3.70932C1.85656 3.60095 1.92845 3.50203 2.01525 3.41525C2.1017 3.32876 2.20068 3.25686 2.30973 3.2014C2.41868 3.14592 2.53281 3.10867 2.66869 3.08422C2.82525 3.05609 2.99328 3.04834 3.13719 3.04444C3.21922 3.04221 3.30126 3.04132 3.38267 3.04076L3.68664 3.04016H28.3134" fill="white"/>
<path d="M9.1898 8.85977C9.44667 8.53849 9.62098 8.10709 9.57501 7.66626C9.19899 7.68496 8.74013 7.91433 8.47447 8.23587C8.23594 8.51122 8.02482 8.96068 8.07986 9.38303C8.50196 9.41964 8.92367 9.17205 9.1898 8.85977Z" fill="black"/>
<path d="M9.57022 9.46546C8.95722 9.42894 8.43603 9.81336 8.14329 9.81336C7.8504 9.81336 7.40212 9.48386 6.91728 9.49274C6.28622 9.50201 5.70067 9.85881 5.38044 10.4263C4.72177 11.5615 5.20662 13.2455 5.84714 14.1701C6.15819 14.6276 6.53306 15.1312 7.027 15.1131C7.4937 15.0948 7.67663 14.8109 8.24392 14.8109C8.81079 14.8109 8.97557 15.1131 9.4696 15.104C9.98191 15.0948 10.3022 14.6463 10.6133 14.1884C10.9701 13.667 11.1162 13.1635 11.1253 13.1359C11.1162 13.1267 10.1375 12.7512 10.1284 11.6254C10.1191 10.6828 10.8968 10.2344 10.9334 10.2066C10.4942 9.55709 9.80809 9.48386 9.57022 9.46546Z" fill="black"/>
<path d="M14.9077 8.1897C16.24 8.1897 17.1678 9.10809 17.1678 10.4452C17.1678 11.7871 16.2209 12.7102 14.8743 12.7102H13.3991V15.0561H12.3333V8.1897H14.9077V8.1897ZM13.3991 11.8156H14.6221C15.55 11.8156 16.0781 11.316 16.0781 10.45C16.0781 9.58398 15.55 9.08909 14.6268 9.08909H13.3991V11.8156V11.8156Z" fill="black"/>
<path d="M17.4462 13.6334C17.4462 12.7578 18.1172 12.2201 19.3069 12.1535L20.6772 12.0726V11.6872C20.6772 11.1304 20.3013 10.7974 19.6733 10.7974C19.0783 10.7974 18.7072 11.0828 18.6168 11.5302H17.6461C17.7032 10.626 18.474 9.95984 19.7113 9.95984C20.9247 9.95984 21.7002 10.6022 21.7002 11.6063V15.0561H20.7152V14.2329H20.6915C20.4013 14.7897 19.7684 15.1418 19.1117 15.1418C18.1315 15.1418 17.4462 14.5327 17.4462 13.6334ZM20.6772 13.1814V12.7864L19.4447 12.8625C18.8309 12.9054 18.4836 13.1766 18.4836 13.6048C18.4836 14.0426 18.8452 14.3281 19.3972 14.3281C20.1157 14.3281 20.6772 13.8332 20.6772 13.1814Z" fill="black"/>
<path d="M22.6302 16.8977V16.065C22.7062 16.084 22.8774 16.084 22.9632 16.084C23.439 16.084 23.696 15.8842 23.8529 15.3703C23.8529 15.3607 23.9434 15.0657 23.9434 15.0609L22.1353 10.0503H23.2486L24.5145 14.1236H24.5334L25.7993 10.0503H26.8842L25.0092 15.3178C24.5811 16.5313 24.0862 16.9215 23.0489 16.9215C22.9632 16.9215 22.7062 16.9119 22.6302 16.8977Z" fill="black"/>
</svg>
