<svg width="32" height="24" viewBox="0 0 32 24" fill="none" xmlns="http://www.w3.org/2000/svg">
<path d="M27.0526 2H4.94737C2.7673 2 1 3.86548 1 6.16667V17.8333C1 20.1345 2.7673 22 4.94737 22H27.0526C29.2327 22 31 20.1345 31 17.8333V6.16667C31 3.86548 29.2327 2 27.0526 2Z" fill="#4486E4"/>
<path d="M31 6.16663H1V9.16663H31V6.16663Z" fill="#0F3760"/>
<path d="M22.5 18H25.5C26.3284 18 27 17.3284 27 16.5C27 15.6716 26.3284 15 25.5 15H22.5C21.6716 15 21 15.6716 21 16.5C21 17.3284 21.6716 18 22.5 18Z" fill="#D4E3F4"/>
<path fill-rule="evenodd" clip-rule="evenodd" d="M27 3H5C3.34315 3 2 4.34315 2 6V18C2 19.6569 3.34315 21 5 21H27C28.6569 21 30 19.6569 30 18V6C30 4.34315 28.6569 3 27 3ZM5 2C2.79086 2 1 3.79086 1 6V18C1 20.2091 2.79086 22 5 22H27C29.2091 22 31 20.2091 31 18V6C31 3.79086 29.2091 2 27 2H5Z" fill="black" fill-opacity="0.12"/>
</svg>
