<svg width="32" height="24" viewBox="0 0 32 24" fill="none" xmlns="http://www.w3.org/2000/svg">
<path d="M27.0526 2H4.94737C2.7673 2 1 3.86548 1 6.16667V17.8333C1 20.1345 2.7673 22 4.94737 22H27.0526C29.2327 22 31 20.1345 31 17.8333V6.16667C31 3.86548 29.2327 2 27.0526 2Z" fill="white"/>
<path d="M17.064 9.9172C16.678 9.92629 16.3031 10.0553 15.9863 10.2882C15.6695 10.521 15.4249 10.8472 15.2831 11.226C15.1414 11.6048 15.1087 12.0194 15.1893 12.4176C15.2698 12.8159 15.46 13.1803 15.736 13.4651C16.0121 13.7499 16.3616 13.9424 16.7409 14.0186C17.1202 14.0947 17.5123 14.0512 17.8682 13.8933C18.2241 13.7354 18.528 13.4702 18.7417 13.131C18.9553 12.7918 19.0694 12.3937 19.0695 11.9864C19.0625 11.4319 18.8476 10.9028 18.4718 10.515C18.0959 10.1272 17.5897 9.91226 17.064 9.9172Z" fill="#F18A1B"/>
<path fill-rule="evenodd" clip-rule="evenodd" d="M13.6486 13.2981C13.5088 13.3779 13.3521 13.4192 13.1932 13.4182C12.9278 13.4295 12.666 13.3502 12.4467 13.1921C12.2274 13.034 12.0623 12.8056 11.9759 12.5407C11.912 12.354 11.8794 12.1571 11.8796 11.9587C11.8793 11.7693 11.912 11.5815 11.9759 11.4045C12.036 11.2404 12.1252 11.0899 12.2386 10.9611C12.3581 10.8309 12.501 10.7272 12.659 10.6562C12.8294 10.5873 13.0107 10.5528 13.1932 10.5546C13.3275 10.5566 13.4606 10.5816 13.5873 10.6285C13.7444 10.7005 13.8849 10.8077 13.9989 10.9426L14.5243 10.5454C14.3609 10.3341 14.1502 10.169 13.9113 10.065C13.6818 9.96169 13.4339 9.9113 13.1844 9.91722C12.9098 9.91731 12.6373 9.96731 12.3787 10.065C12.1389 10.1559 11.9207 10.3009 11.7394 10.4899C11.5528 10.6711 11.4089 10.8956 11.3191 11.1458C11.2145 11.4153 11.1639 11.7046 11.1702 11.9957C11.163 12.2838 11.2137 12.5703 11.3191 12.8363C11.4112 13.0825 11.5549 13.3035 11.7394 13.4829C11.9193 13.6716 12.1381 13.8138 12.3787 13.8986C12.6362 14.0006 12.9095 14.0507 13.1844 14.0464C13.4581 14.0494 13.7294 13.9928 13.9814 13.8801C14.2364 13.7699 14.4555 13.5837 14.6119 13.3443L14.0514 12.9379C13.9442 13.088 13.8066 13.2111 13.6486 13.2981ZM9.80403 11.7001C9.94056 11.7523 10.0724 11.8172 10.1981 11.894C10.3515 11.9853 10.481 12.1155 10.5747 12.2728C10.6692 12.4399 10.7149 12.6327 10.7061 12.827C10.712 13.0188 10.6729 13.2093 10.5922 13.3813C10.5226 13.5357 10.4172 13.6692 10.2857 13.7692C10.1545 13.8816 10.0023 13.9634 9.83906 14.0094C9.66479 14.0584 9.48521 14.0833 9.30485 14.0833C9.07226 14.0856 8.84109 14.0449 8.62176 13.9632C8.40077 13.8797 8.20447 13.7363 8.05252 13.5475L8.56922 13.021C8.65126 13.1497 8.76269 13.2545 8.89325 13.3258C9.02587 13.3983 9.17299 13.4364 9.32236 13.4367C9.40095 13.4456 9.48023 13.4456 9.55882 13.4367C9.63734 13.4181 9.7117 13.3836 9.77776 13.3351C9.83868 13.2893 9.89196 13.2331 9.93539 13.1688C9.97404 13.0952 9.99508 13.0128 9.99669 12.9286C9.99944 12.8655 9.98821 12.8026 9.96389 12.7449C9.93957 12.6872 9.90282 12.6362 9.85657 12.5961C9.75508 12.5149 9.643 12.4495 9.52379 12.4021C9.38043 12.3446 9.23426 12.2953 9.08591 12.2543C8.9334 12.2035 8.78658 12.1354 8.64804 12.0511C8.51508 11.9677 8.4014 11.8541 8.31525 11.7185C8.21763 11.5524 8.16887 11.3596 8.17513 11.1643C8.17213 10.9805 8.21438 10.7991 8.29773 10.6377C8.37957 10.4916 8.49004 10.3657 8.62176 10.2682C8.75602 10.1652 8.90757 10.09 9.0684 10.0465C9.42877 9.9362 9.81147 9.9362 10.1718 10.0465C10.3634 10.1109 10.5397 10.218 10.6885 10.3606L10.1894 10.8964C10.1173 10.7904 10.0166 10.7099 9.90036 10.6654C9.77821 10.6127 9.64696 10.5876 9.51503 10.5916C9.43938 10.5825 9.36299 10.5825 9.28733 10.5916C9.21696 10.6096 9.1492 10.6376 9.08591 10.6747C9.0306 10.7177 8.98313 10.7709 8.94579 10.8317C8.90987 10.9027 8.89178 10.9822 8.89325 11.0627C8.88851 11.1211 8.89811 11.1798 8.92111 11.2332C8.94412 11.2866 8.97976 11.3328 9.02461 11.3675C9.12772 11.449 9.24321 11.5115 9.36615 11.5523C9.50906 11.6111 9.6553 11.6604 9.80403 11.7001ZM7.43075 10.0188H6.74766V13.9447H7.43075V10.0188ZM5.95947 11.1089C5.85574 10.8781 5.70645 10.6734 5.52159 10.5084C5.33903 10.3416 5.128 10.2131 4.89981 10.1297C4.66353 10.0585 4.41863 10.0243 4.17294 10.0281H2.66664V13.954H4.08536C4.32607 13.9503 4.56499 13.9098 4.79472 13.8339C5.03305 13.7537 5.2556 13.6285 5.45153 13.4644C5.66574 13.2915 5.83784 13.0672 5.95358 12.8102C6.06931 12.5532 6.12537 12.2708 6.11711 11.9864C6.1241 11.6854 6.07037 11.3863 5.95947 11.1089ZM5.28514 12.6238C5.19851 12.7795 5.08575 12.9172 4.95236 13.0303C4.80275 13.1407 4.63259 13.2162 4.45318 13.252C4.25641 13.3092 4.05302 13.3372 3.84891 13.3351H3.34973V10.647H3.96275C4.16264 10.6644 4.35972 10.7079 4.54951 10.7763C4.70756 10.8276 4.85793 10.9022 4.99614 10.998C5.1283 11.1104 5.23084 11.2567 5.2939 11.4229C5.37695 11.6138 5.41596 11.8227 5.40775 12.0326C5.41145 12.2371 5.36945 12.4396 5.28514 12.6238ZM23.8599 12.245H25.6201V11.6169H23.8599V10.647H25.7165V10.0188H23.1856V13.9447H25.8128V13.3166H23.8599V12.245ZM28.7143 12.1021C28.6015 12.1623 28.4785 12.1984 28.3525 12.2081L29.3333 13.954H28.5101L27.6344 12.282H27.1264V13.9909H26.4433V10.065H27.8095C27.9873 10.0507 28.1659 10.0507 28.3437 10.065C28.5039 10.1007 28.6576 10.1631 28.7991 10.2498C28.928 10.3393 29.0382 10.4556 29.1231 10.5915C29.2056 10.7629 29.2448 10.9538 29.237 11.1458C29.2449 11.4041 29.164 11.6567 29.0093 11.8571C28.9273 11.9586 28.827 12.0418 28.7143 12.1021ZM27.1615 11.7H27.9847L28.2562 11.5892C28.3342 11.5503 28.403 11.4935 28.4576 11.4229C28.5085 11.334 28.5329 11.231 28.5276 11.1273C28.5353 11.0263 28.5107 10.9254 28.4576 10.841C28.4094 10.7697 28.3424 10.7151 28.2649 10.6839C28.1866 10.65 28.104 10.6282 28.0197 10.6193H27.757H27.1615V11.7ZM19.919 10.0188L20.9611 12.984L22.0383 10.0188H22.7739L21.2238 13.9447H20.6371L19.1308 10.0188H19.919Z" fill="black"/>
<path d="M31 12V17.9117C31 18.996 30.5313 20.0358 29.6971 20.8025C28.8629 21.5692 27.7314 22 26.5516 22H6C10.6918 22.0057 15.3343 21.1204 19.6364 19.3996C23.9384 17.6788 27.8072 15.1596 31 12Z" fill="#F18A1B"/>
<path fill-rule="evenodd" clip-rule="evenodd" d="M27.0526 3H4.94737C3.36984 3 2 4.36613 2 6.16667V17.8333C2 19.6339 3.36984 21 4.94737 21H27.0526C28.6302 21 30 19.6339 30 17.8333V6.16667C30 4.36613 28.6302 3 27.0526 3ZM4.94737 2H27.0526C29.2327 2 31 3.86548 31 6.16667V17.8333C31 20.1345 29.2327 22 27.0526 22H4.94737C2.7673 22 1 20.1345 1 17.8333V6.16667C1 3.86548 2.7673 2 4.94737 2Z" fill="black" fill-opacity="0.12"/>
</svg>
