<svg width="32" height="24" viewBox="0 0 32 24" fill="none" xmlns="http://www.w3.org/2000/svg">
<path d="M27.3514 2H4.64865C2.63356 2 1 3.75193 1 5.91304V18.087C1 20.2481 2.63356 22 4.64865 22H27.3514C29.3664 22 31 20.2481 31 18.087V5.91304C31 3.75193 29.3664 2 27.3514 2Z" fill="white"/>
<g clip-path="url(#clip0)">
<path d="M15.4593 12.8801V15.2082H14.7207V9.45876H16.6796C16.9134 9.45388 17.1459 9.49535 17.3636 9.58078C17.5813 9.6662 17.7799 9.7939 17.948 9.9565C18.1178 10.1092 18.2529 10.2965 18.3443 10.5058C18.4357 10.7151 18.4813 10.9415 18.4779 11.1699C18.4827 11.3995 18.4379 11.6274 18.3464 11.838C18.255 12.0486 18.1191 12.237 17.948 12.3902C17.6055 12.7168 17.1827 12.8799 16.6796 12.8796H15.4593V12.8801ZM15.4593 10.1666V12.1736H16.6979C16.8337 12.1777 16.9689 12.1533 17.0947 12.1021C17.2205 12.0509 17.3343 11.974 17.4287 11.8764C17.5226 11.785 17.5973 11.6758 17.6483 11.5551C17.6993 11.4345 17.7255 11.3048 17.7255 11.1738C17.7255 11.0428 17.6993 10.9131 17.6483 10.7924C17.5973 10.6718 17.5226 10.5625 17.4287 10.4712C17.3355 10.3715 17.2221 10.2927 17.0961 10.2401C16.9701 10.1875 16.8344 10.1623 16.6979 10.1661H15.4593V10.1666Z" fill="#5F6368"/>
<path d="M20.1799 11.146C20.7258 11.146 21.1567 11.2919 21.4727 11.5836C21.7886 11.8754 21.9464 12.2754 21.9461 12.7837V15.2082H21.2396V14.6623H21.2075C20.9017 15.1119 20.4949 15.3367 19.9872 15.3367C19.5539 15.3367 19.1913 15.2082 18.8995 14.9513C18.7595 14.8334 18.6476 14.6857 18.5719 14.5191C18.4962 14.3524 18.4586 14.171 18.4619 13.9879C18.4619 13.5809 18.6157 13.2572 18.9234 13.0168C19.2311 12.7764 19.6418 12.6559 20.1556 12.6553C20.5942 12.6553 20.9553 12.7356 21.2392 12.8961V12.7273C21.24 12.6025 21.2131 12.4791 21.1603 12.3661C21.1075 12.253 21.0303 12.1531 20.9341 12.0736C20.7388 11.8974 20.4842 11.8012 20.2212 11.8043C19.8086 11.8043 19.4822 11.9783 19.2418 12.3264L18.5913 11.9167C18.9491 11.4029 19.4786 11.146 20.1799 11.146ZM19.2243 14.004C19.2238 14.098 19.2458 14.1907 19.2884 14.2745C19.331 14.3583 19.3931 14.4307 19.4693 14.4857C19.6327 14.6142 19.8354 14.6822 20.0432 14.6783C20.3549 14.6778 20.6536 14.5538 20.874 14.3334C21.1187 14.1031 21.241 13.8329 21.241 13.5228C21.0107 13.3393 20.6896 13.2475 20.2776 13.2475C19.9776 13.2475 19.7274 13.3198 19.5271 13.4645C19.3248 13.6113 19.2243 13.7898 19.2243 14.004Z" fill="#5F6368"/>
<path d="M26.0014 11.2745L23.5352 16.9424H22.7728L23.6879 14.9592L22.0663 11.2745H22.8691L24.0412 14.1004H24.0572L25.1972 11.2745H26.0014Z" fill="#5F6368"/>
<path d="M12.4747 12.3781C12.475 12.1531 12.456 11.9284 12.4178 11.7065H9.30295V12.9786H11.087C11.0505 13.1818 10.9732 13.3755 10.8599 13.548C10.7465 13.7205 10.5994 13.8683 10.4273 13.9824V14.8081H11.4921C12.1155 14.2333 12.4747 13.3833 12.4747 12.3781Z" fill="#4285F4"/>
<path d="M9.30305 15.6059C10.1944 15.6059 10.9449 15.3132 11.4922 14.8086L10.4274 13.9828C10.1311 14.1838 9.74941 14.2985 9.30305 14.2985C8.44152 14.2985 7.71028 13.7177 7.44879 12.9351H6.35193V13.786C6.62684 14.3331 7.04839 14.793 7.56951 15.1143C8.09063 15.4357 8.69081 15.6059 9.30305 15.6059Z" fill="#34A853"/>
<path d="M7.44882 12.9351C7.31058 12.525 7.31058 12.0809 7.44882 11.6708V10.8198H6.35195C6.12069 11.28 6.00024 11.7879 6.00024 12.303C6.00024 12.818 6.12069 13.3259 6.35195 13.7861L7.44882 12.9351Z" fill="#FBBC04"/>
<path d="M9.30305 10.3074C9.77409 10.2997 10.2292 10.4777 10.5701 10.8028L11.5128 9.86012C10.915 9.29865 10.1231 8.99039 9.30305 8.99997C8.69081 9 8.09063 9.17019 7.56951 9.49155C7.04839 9.8129 6.62684 10.2728 6.35193 10.8198L7.44879 11.6708C7.71028 10.8882 8.44152 10.3074 9.30305 10.3074Z" fill="#EA4335"/>
</g>
<path fill-rule="evenodd" clip-rule="evenodd" d="M27.2 3H4.8C3.2536 3 2 4.2536 2 5.8V18.2C2 19.7464 3.2536 21 4.8 21H27.2C28.7464 21 30 19.7464 30 18.2V5.8C30 4.2536 28.7464 3 27.2 3ZM4.8 2C2.70132 2 1 3.70132 1 5.8V18.2C1 20.2987 2.70132 22 4.8 22H27.2C29.2987 22 31 20.2987 31 18.2V5.8C31 3.70132 29.2987 2 27.2 2H4.8Z" fill="black" fill-opacity="0.12"/>
<defs>
<clipPath id="clip0">
<rect width="20" height="7.94229" fill="white" transform="translate(6 9)"/>
</clipPath>
</defs>
</svg>
