<svg width="32" height="24" viewBox="0 0 32 24" fill="none" xmlns="http://www.w3.org/2000/svg">
<path d="M27.3514 2H4.64865C2.63356 2 1 3.75193 1 5.91304V18.087C1 20.2481 2.63356 22 4.64865 22H27.3514C29.3664 22 31 20.2481 31 18.087V5.91304C31 3.75193 29.3664 2 27.3514 2Z" fill="white"/>
<path d="M13.7687 7.92665V16.7376H17.6034C21.0853 16.7376 22.5953 14.771 22.5953 11.9897C22.5953 9.32769 21.0853 7.26245 17.6034 7.26245H14.4329C14.0645 7.26245 13.7687 7.56342 13.7687 7.92665Z" fill="#CC0066"/>
<path d="M17.1623 18.0503H10.9666C10.4166 18.0503 9.97034 17.6041 9.97034 17.054V6.95101C9.97034 6.40097 10.4166 5.95471 10.9666 5.95471H17.1623C23.0415 5.95471 23.9184 9.73751 23.9184 11.9896C23.9184 15.8969 21.5159 18.0503 17.1623 18.0503ZM10.9666 6.28681C10.5982 6.28681 10.3024 6.58258 10.3024 6.95101V17.054C10.3024 17.4225 10.5982 17.7182 10.9666 17.7182H17.1623C21.3032 17.7182 23.5864 15.6841 23.5864 11.9896C23.5864 7.02884 19.5597 6.28681 17.1623 6.28681H10.9666V6.28681Z" fill="black"/>
<path d="M15.1179 10.8013C15.2528 10.8013 15.3773 10.8221 15.4967 10.8636C15.616 10.9051 15.7146 10.9726 15.8028 11.0556C15.8858 11.1438 15.9533 11.2528 16.0052 11.3773C16.0519 11.507 16.0778 11.6575 16.0778 11.8339C16.0778 11.9896 16.0571 12.1297 16.0208 12.2594C15.9792 12.3892 15.9222 12.5033 15.8443 12.5967C15.7665 12.6901 15.6679 12.7628 15.5486 12.8199C15.4292 12.8718 15.2891 12.9029 15.1282 12.9029H14.2202V10.7961H15.1179V10.8013ZM15.0867 12.5189C15.1542 12.5189 15.2165 12.5085 15.2839 12.4878C15.3462 12.467 15.4033 12.4307 15.45 12.3788C15.4967 12.3269 15.5382 12.2646 15.5693 12.1816C15.6004 12.0986 15.616 12.0052 15.616 11.8858C15.616 11.7821 15.6056 11.6835 15.5849 11.6004C15.5641 11.5174 15.5278 11.4396 15.4811 11.3825C15.4344 11.3254 15.3721 11.2735 15.2943 11.2424C15.2165 11.2113 15.1231 11.1957 15.0089 11.1957H14.6768V12.5241H15.0867V12.5189Z" fill="white"/>
<path d="M17.9511 10.8013V11.1905H16.8406V11.642H17.8628V12H16.8406V12.5137H17.977V12.9029H16.3788V10.7961H17.9511V10.8013Z" fill="white"/>
<path d="M19.5389 10.8014L20.3277 12.9081H19.8451L19.6842 12.4411H18.8955L18.7294 12.9081H18.2624L19.0563 10.8014H19.5389V10.8014ZM19.5649 12.0935L19.3002 11.3203H19.295L19.02 12.0935H19.5649Z" fill="white"/>
<path d="M21.08 10.8014V12.519H22.1075V12.9081H20.6182V10.8014H21.08V10.8014Z" fill="white"/>
<path d="M12.0356 12.825C12.5715 12.825 13.0059 12.3905 13.0059 11.8546C13.0059 11.3187 12.5715 10.8843 12.0356 10.8843C11.4997 10.8843 11.0652 11.3187 11.0652 11.8546C11.0652 12.3905 11.4997 12.825 12.0356 12.825Z" fill="black"/>
<path d="M12.7673 16.7376C11.9526 16.7376 11.2988 16.0786 11.2988 15.2691V14.1223C11.2988 13.7176 11.6257 13.3855 12.0356 13.3855C12.4403 13.3855 12.7724 13.7124 12.7724 14.1223V16.7376H12.7673Z" fill="black"/>
<path fill-rule="evenodd" clip-rule="evenodd" d="M27.2 3H4.8C3.2536 3 2 4.2536 2 5.8V18.2C2 19.7464 3.2536 21 4.8 21H27.2C28.7464 21 30 19.7464 30 18.2V5.8C30 4.2536 28.7464 3 27.2 3ZM4.8 2C2.70132 2 1 3.70132 1 5.8V18.2C1 20.2987 2.70132 22 4.8 22H27.2C29.2987 22 31 20.2987 31 18.2V5.8C31 3.70132 29.2987 2 27.2 2H4.8Z" fill="black" fill-opacity="0.12"/>
</svg>
