<svg width="32" height="24" viewBox="0 0 32 24" fill="none" xmlns="http://www.w3.org/2000/svg">
<path d="M28.1193 3.66003H3.88067C2.28972 3.66003 1 4.94975 1 6.5407V17.446C1 19.037 2.28972 20.3267 3.88067 20.3267H28.1193C29.7103 20.3267 31 19.037 31 17.446V6.5407C31 4.94975 29.7103 3.66003 28.1193 3.66003Z" fill="#FFB3C7"/>
<path d="M28.1957 13.4242C27.8032 13.4242 27.4851 13.7452 27.4851 14.1413C27.4851 14.5373 27.8032 14.8585 28.1957 14.8585C28.5882 14.8585 28.9065 14.5373 28.9065 14.1413C28.9065 13.7452 28.5882 13.4242 28.1957 13.4242ZM25.8575 12.8697C25.8575 12.3275 25.3982 11.888 24.8316 11.888C24.265 11.888 23.8056 12.3275 23.8056 12.8697C23.8056 13.412 24.2649 13.8516 24.8316 13.8516C25.3983 13.8516 25.8575 13.412 25.8575 12.8697ZM25.8613 10.9616H26.9936V14.7777H25.8613V14.5339C25.5415 14.754 25.1553 14.8834 24.7389 14.8834C23.6368 14.8834 22.7433 13.9819 22.7433 12.8697C22.7433 11.7576 23.6368 10.8561 24.7389 10.8561C25.1553 10.8561 25.5415 10.9855 25.8613 11.2057V10.9616V10.9616ZM16.8 11.4587V10.9617H15.6407V14.7777H16.8026V12.9961C16.8026 12.395 17.4483 12.0719 17.8963 12.0719C17.9009 12.0719 17.9052 12.0723 17.9097 12.0724V10.962C17.4499 10.962 17.027 11.1606 16.8 11.4588L16.8 11.4587ZM13.9123 12.8698C13.9123 12.3275 13.4529 11.888 12.8863 11.888C12.3197 11.888 11.8603 12.3275 11.8603 12.8698C11.8603 13.412 12.3196 13.8516 12.8863 13.8516C13.4529 13.8516 13.9123 13.412 13.9123 12.8698ZM13.916 10.9616H15.0484V14.7778H13.916V14.5339C13.5961 14.754 13.21 14.8834 12.7936 14.8834C11.6915 14.8834 10.798 13.9819 10.798 12.8697C10.798 11.7576 11.6915 10.8561 12.7936 10.8561C13.2101 10.8561 13.5962 10.9855 13.916 11.2057V10.9616V10.9616ZM20.7314 10.859C20.2791 10.859 19.851 11.0007 19.5648 11.3916V10.9619H18.4374V14.7778H19.5786V12.7724C19.5786 12.1921 19.9643 11.9079 20.4286 11.9079C20.9263 11.9079 21.2124 12.2079 21.2124 12.7645V14.7778H22.3433V12.3511C22.3433 11.463 21.6436 10.8591 20.7314 10.8591V10.859ZM9.14869 14.7778H10.3338V9.26105H9.14869V14.7778V14.7778ZM3.94263 14.7793H5.19756V9.26002H3.94263V14.7793ZM8.33196 9.26002C8.33196 10.4549 7.8705 11.5664 7.04823 12.3926L8.78289 14.7795H7.23289L5.34769 12.1855L5.83423 11.8178C6.6411 11.2079 7.1039 10.2757 7.1039 9.26001H8.33197L8.33196 9.26002Z" fill="#0A0B09"/>
</svg>
