<svg width="32" height="24" viewBox="0 0 32 24" fill="none" xmlns="http://www.w3.org/2000/svg">
<path d="M27.3514 2H4.64865C2.63356 2 1 3.75193 1 5.91304V18.087C1 20.2481 2.63356 22 4.64865 22H27.3514C29.3664 22 31 20.2481 31 18.087V5.91304C31 3.75193 29.3664 2 27.3514 2Z" fill="white"/>
<path d="M23.0826 12.0001C23.0817 12.8458 22.8236 13.6712 22.3424 14.3667C21.8612 15.0622 21.1798 15.5948 20.3887 15.8937C19.5976 16.1926 18.7342 16.2438 17.9133 16.0403C17.0925 15.8368 16.353 15.3883 15.7931 14.7545C16.4652 13.9944 16.8363 13.0148 16.8363 12.0001C16.8363 10.9854 16.4652 10.0058 15.7931 9.24572C16.353 8.61188 17.0925 8.16342 17.9133 7.95994C18.7342 7.75645 19.5976 7.80757 20.3887 8.10649C21.1798 8.40542 21.8612 8.93801 22.3424 9.63349C22.8236 10.329 23.0817 11.1544 23.0826 12.0001V12.0001Z" fill="#F79E1B"/>
<path d="M15.7931 14.7544C16.3696 14.7544 16.837 13.5212 16.837 12C16.837 10.4788 16.3696 9.24561 15.7931 9.24561C15.2166 9.24561 14.7493 10.4788 14.7493 12C14.7493 13.5212 15.2166 14.7544 15.7931 14.7544Z" fill="#FF5F00"/>
<path d="M14.7492 12C14.751 13.0145 15.1221 13.9936 15.7931 14.7544C15.2335 15.3896 14.4937 15.8393 13.6722 16.0436C12.8507 16.2479 11.9865 16.1971 11.1945 15.898C10.4026 15.5989 9.72056 15.0657 9.2392 14.3693C8.75784 13.673 8.5 12.8466 8.5 12C8.5 11.1535 8.75784 10.3271 9.2392 9.63074C9.72056 8.9344 10.4026 8.40119 11.1945 8.1021C11.9865 7.80302 12.8507 7.75224 13.6722 7.95653C14.4937 8.16081 15.2335 8.61048 15.7931 9.24566C15.1221 10.0065 14.751 10.9856 14.7492 12Z" fill="#EB001B"/>
<path fill-rule="evenodd" clip-rule="evenodd" d="M27.2 3H4.8C3.2536 3 2 4.2536 2 5.8V18.2C2 19.7464 3.2536 21 4.8 21H27.2C28.7464 21 30 19.7464 30 18.2V5.8C30 4.2536 28.7464 3 27.2 3ZM4.8 2C2.70132 2 1 3.70132 1 5.8V18.2C1 20.2987 2.70132 22 4.8 22H27.2C29.2987 22 31 20.2987 31 18.2V5.8C31 3.70132 29.2987 2 27.2 2H4.8Z" fill="black" fill-opacity="0.12"/>
</svg>
