<svg width="32" height="24" viewBox="0 0 32 24" fill="none" xmlns="http://www.w3.org/2000/svg">
<path d="M27.3513 2H4.64865C2.63356 2 1 3.75193 1 5.91304V18.087C1 20.2481 2.63356 22 4.64865 22H27.3513C29.3664 22 31 20.2481 31 18.087V5.91304C31 3.75193 29.3664 2 27.3513 2Z" fill="white"/>
<path fill-rule="evenodd" clip-rule="evenodd" d="M8.45733 9.36886C8.28293 9.19937 8.07394 9.06982 7.84476 8.98917C7.61559 8.90852 7.37169 8.87868 7.12989 8.90171H5.37169C5.31025 8.9029 5.25115 8.92557 5.2046 8.96581C5.15806 9.00604 5.12698 9.06131 5.11675 9.12206L4.33435 13.776C4.33187 13.7982 4.33412 13.8208 4.34095 13.8421C4.34778 13.8634 4.35905 13.8831 4.37399 13.8997C4.38894 13.9164 4.40724 13.9297 4.42768 13.9387C4.44812 13.9478 4.47025 13.9524 4.49259 13.9523H5.37169C5.42428 13.95 5.47499 13.932 5.51729 13.9006C5.55959 13.8691 5.59155 13.8257 5.60905 13.776L5.80245 12.5067C5.80898 12.4459 5.83777 12.3898 5.88324 12.3491C5.92872 12.3084 5.98764 12.286 6.0486 12.2864H6.62001C6.87277 12.3156 7.12884 12.2925 7.37228 12.2183C7.61573 12.1441 7.84135 12.0205 8.03512 11.8552C8.22888 11.6898 8.38665 11.4863 8.49861 11.2572C8.61056 11.0281 8.67431 10.7784 8.6859 10.5235C8.73543 10.3261 8.74061 10.1201 8.70109 9.92043C8.66156 9.72075 8.5783 9.53236 8.45733 9.36886ZM7.34087 10.594C7.24417 11.2463 6.74309 11.2463 6.26837 11.2463H5.99585L6.18046 10.0211C6.18648 9.98524 6.20461 9.95252 6.23182 9.92845C6.25903 9.90438 6.29366 9.89042 6.32991 9.8889H6.45298H6.45299C6.77825 9.8889 7.09473 9.8889 7.24417 10.074C7.2989 10.1475 7.33608 10.2326 7.35284 10.3227C7.36961 10.4129 7.36551 10.5057 7.34087 10.594ZM12.5628 10.5677H11.6837C11.6479 10.5696 11.6136 10.5825 11.5853 10.6045C11.557 10.6266 11.5361 10.6568 11.5254 10.6911V10.9467L11.4639 10.8497C11.3309 10.7154 11.1692 10.6131 10.991 10.5505C10.8129 10.4879 10.6229 10.4667 10.4353 10.4883C9.95441 10.4995 9.49353 10.6837 9.13685 11.0074C8.78017 11.331 8.55148 11.7725 8.49253 12.2512C8.44806 12.4862 8.45407 12.7281 8.51016 12.9606C8.56625 13.1932 8.67112 13.411 8.81779 13.5997C8.95531 13.7524 9.12582 13.8714 9.31629 13.9478C9.50675 14.0242 9.71211 14.0559 9.91667 14.0405C10.1396 14.0429 10.3606 13.9995 10.5662 13.9131C10.7718 13.8267 10.9576 13.6991 11.1122 13.538V13.7937C11.1097 13.8343 11.123 13.8744 11.1491 13.9056C11.1753 13.9368 11.2125 13.9567 11.2529 13.9611H12.0353C12.0964 13.9639 12.1564 13.9438 12.2035 13.9047C12.2506 13.8656 12.2816 13.8103 12.2902 13.7496L12.7562 10.7439C12.7661 10.7175 12.7678 10.6887 12.7612 10.6613C12.7546 10.6338 12.7399 10.609 12.7191 10.59C12.6983 10.571 12.6722 10.5588 12.6444 10.5548C12.6165 10.5508 12.5881 10.5553 12.5628 10.5677ZM10.365 13.115C10.2575 13.1209 10.1501 13.1035 10.0499 13.064C9.94978 13.0244 9.85935 12.9636 9.7848 12.8858C9.7206 12.7963 9.67505 12.6948 9.65088 12.5873C9.62672 12.4797 9.62443 12.3684 9.64415 12.26C9.67195 12.0192 9.7864 11.7968 9.96604 11.6345C10.1457 11.4723 10.3782 11.3812 10.6199 11.3786C10.7289 11.3736 10.8376 11.3932 10.938 11.4359C11.0384 11.4786 11.128 11.5434 11.2002 11.6254C11.2721 11.709 11.3231 11.8085 11.3491 11.9158C11.3751 12.0231 11.3753 12.135 11.3496 12.2424C11.3234 12.4846 11.2079 12.7084 11.0258 12.8697C10.8437 13.0311 10.608 13.1186 10.365 13.115ZM16.3077 10.5677H17.1868C17.2107 10.5698 17.2337 10.5775 17.2539 10.5904C17.2741 10.6032 17.291 10.6207 17.3031 10.6415C17.3151 10.6622 17.322 10.6855 17.3232 10.7095C17.3244 10.7335 17.3198 10.7574 17.3099 10.7792L14.4089 15.0189C14.386 15.0534 14.3544 15.0813 14.3174 15.0999C14.2804 15.1184 14.2392 15.127 14.1979 15.1246H13.3188C13.291 15.1251 13.2637 15.1177 13.2399 15.1034C13.2161 15.0892 13.1967 15.0685 13.1839 15.0438C13.1711 15.0191 13.1654 14.9913 13.1675 14.9635C13.1696 14.9358 13.1794 14.9092 13.1957 14.8867L14.0748 13.5998L13.1166 10.744C13.108 10.7212 13.1051 10.6967 13.1081 10.6726C13.1111 10.6485 13.1199 10.6255 13.1337 10.6055C13.1476 10.5856 13.1661 10.5693 13.1876 10.5581C13.2091 10.5469 13.233 10.5411 13.2573 10.5413H14.1363C14.1915 10.5424 14.245 10.5609 14.2891 10.5941C14.3333 10.6273 14.366 10.6736 14.3825 10.7264L14.8924 12.4451L16.0967 10.6823C16.1192 10.6467 16.1504 10.6175 16.1874 10.5975C16.2243 10.5774 16.2657 10.5672 16.3077 10.5677Z" fill="#253B80"/>
<path fill-rule="evenodd" clip-rule="evenodd" d="M26.6371 8.87535H27.5162C27.5374 8.8752 27.5584 8.87957 27.5778 8.88818C27.5972 8.89679 27.6145 8.90943 27.6286 8.92527C27.6428 8.94111 27.6534 8.95978 27.6598 8.98005C27.6661 9.00031 27.6682 9.02171 27.6657 9.04282L26.9272 13.7408C26.9187 13.8 26.8891 13.854 26.8438 13.8929C26.7985 13.9318 26.7407 13.9529 26.6811 13.9523H25.9338C25.9118 13.9527 25.8899 13.9481 25.8698 13.939C25.8497 13.9299 25.8319 13.9164 25.8176 13.8996C25.8033 13.8827 25.7929 13.8629 25.7872 13.8415C25.7815 13.8202 25.7805 13.7978 25.7844 13.776L26.4877 8.99875C26.4921 8.9629 26.51 8.93012 26.5378 8.90716C26.5657 8.88421 26.6012 8.87282 26.6371 8.87535ZM21.4065 9.36884C21.2318 9.19983 21.0227 9.07061 20.7936 8.98999C20.5645 8.90937 20.3208 8.87925 20.079 8.90169H18.2593C18.1993 8.90152 18.1414 8.92416 18.0974 8.96505C18.0534 9.00593 18.0264 9.06203 18.022 9.12204L17.2747 13.7759C17.2722 13.7982 17.2745 13.8208 17.2813 13.8421C17.2882 13.8634 17.2994 13.8831 17.3144 13.8997C17.3293 13.9164 17.3476 13.9297 17.3681 13.9387C17.3885 13.9478 17.4106 13.9524 17.433 13.9522H18.3648C18.407 13.9503 18.4471 13.9332 18.4778 13.9041C18.5085 13.875 18.5277 13.8357 18.5318 13.7936L18.7428 12.4626C18.7511 12.4026 18.7805 12.3475 18.8255 12.3071C18.8706 12.2668 18.9285 12.2438 18.989 12.2423H19.5692C19.8215 12.2689 20.0765 12.2439 20.3189 12.1687C20.5613 12.0936 20.7859 11.9698 20.9791 11.8049C21.1723 11.6401 21.33 11.4376 21.4428 11.2097C21.5556 10.9819 21.621 10.7334 21.6351 10.4794C21.6741 10.2884 21.674 10.0915 21.6347 9.90057C21.5954 9.70964 21.5177 9.52872 21.4065 9.36884ZM20.2812 10.6205C20.1933 11.2727 19.6922 11.2727 19.2087 11.2727H18.9362L19.1296 10.0475C19.1307 10.029 19.1355 10.0109 19.1436 9.99419C19.1517 9.9775 19.1631 9.96259 19.177 9.95031C19.1908 9.93802 19.207 9.92861 19.2245 9.92261C19.2421 9.9166 19.2606 9.91413 19.2791 9.91532H19.4109H19.4109C19.7362 9.91532 20.0439 9.91532 20.2021 10.1004C20.25 10.1721 20.2818 10.2534 20.2955 10.3386C20.3091 10.4237 20.3043 10.5109 20.2812 10.594V10.6205ZM25.5031 10.5677H24.624C24.5874 10.5668 24.5517 10.5785 24.5229 10.601C24.494 10.6235 24.4738 10.6553 24.4657 10.6911V10.9467L24.4042 10.8497C24.2733 10.7151 24.1132 10.6124 23.9364 10.5497C23.7595 10.4871 23.5707 10.4661 23.3844 10.4883C22.9035 10.4995 22.4426 10.6837 22.086 11.0074C21.7293 11.331 21.5006 11.7725 21.4416 12.2512C21.3924 12.4861 21.396 12.729 21.4523 12.9623C21.5085 13.1956 21.616 13.4134 21.7669 13.5998C21.9022 13.7527 22.0711 13.8721 22.2603 13.9486C22.4494 14.0251 22.6537 14.0565 22.857 14.0405C23.0812 14.0425 23.3034 13.9991 23.5104 13.9127C23.7174 13.8264 23.9048 13.6989 24.0614 13.5381V13.7937C24.0589 13.8148 24.0609 13.8362 24.0673 13.8564C24.0736 13.8767 24.0843 13.8954 24.0984 13.9112C24.1125 13.9271 24.1299 13.9397 24.1492 13.9483C24.1686 13.9569 24.1896 13.9613 24.2108 13.9611H24.9932C25.0528 13.9618 25.1106 13.9406 25.1559 13.9017C25.2012 13.8628 25.2308 13.8088 25.2393 13.7496L25.6701 10.744C25.6745 10.7206 25.6733 10.6966 25.6666 10.6738C25.6599 10.651 25.6479 10.6302 25.6316 10.6129C25.6153 10.5957 25.5951 10.5826 25.5728 10.5748C25.5504 10.5669 25.5265 10.5645 25.5031 10.5677ZM23.3141 13.115C23.2053 13.1216 23.0963 13.1046 22.9946 13.065C22.8929 13.0255 22.801 12.9643 22.7251 12.8858C22.6605 12.7966 22.6154 12.6948 22.5927 12.587C22.57 12.4792 22.5702 12.3677 22.5933 12.26C22.6172 12.0192 22.7293 11.7958 22.9079 11.633C23.0865 11.4702 23.3189 11.3796 23.5603 11.3786C23.6722 11.3687 23.7848 11.3862 23.8885 11.4295C23.9922 11.4729 24.0838 11.5408 24.1556 11.6275C24.2273 11.7142 24.277 11.817 24.3004 11.9272C24.3238 12.0373 24.3202 12.1515 24.2899 12.26C24.2636 12.4991 24.1487 12.7196 23.968 12.878C23.7873 13.0363 23.554 13.1208 23.3141 13.115Z" fill="#179BD7"/>
<path fill-rule="evenodd" clip-rule="evenodd" d="M27.2 3H4.8C3.2536 3 2 4.2536 2 5.8V18.2C2 19.7464 3.2536 21 4.8 21H27.2C28.7464 21 30 19.7464 30 18.2V5.8C30 4.2536 28.7464 3 27.2 3ZM4.8 2C2.70132 2 1 3.70132 1 5.8V18.2C1 20.2987 2.70132 22 4.8 22H27.2C29.2987 22 31 20.2987 31 18.2V5.8C31 3.70132 29.2987 2 27.2 2H4.8Z" fill="black" fill-opacity="0.12"/>
</svg>
