<svg width="32" height="24" viewBox="0 0 32 24" fill="none" xmlns="http://www.w3.org/2000/svg">
<path d="M27.0526 2H4.94737C2.7673 2 1 3.86548 1 6.16667V17.8333C1 20.1345 2.7673 22 4.94737 22H27.0526C29.2327 22 31 20.1345 31 17.8333V6.16667C31 3.86548 29.2327 2 27.0526 2Z" fill="white"/>
<path d="M9.51745 10.8686H7.92072C7.92072 10.6119 7.88987 10.4395 7.82855 10.3518C7.73358 10.222 7.47151 10.157 7.04221 10.157C6.62542 10.157 6.34913 10.1943 6.21433 10.2692C6.07953 10.3443 6.01201 10.5076 6.01201 10.7589C6.01201 10.9863 6.07176 11.1363 6.1915 11.2081C6.27736 11.2591 6.39067 11.2891 6.53191 11.298L6.85385 11.3202C7.54401 11.365 7.97488 11.3968 8.14672 11.4148C8.69249 11.4687 9.08815 11.6108 9.33358 11.8414C9.52667 12.0212 9.64192 12.2563 9.6786 12.5464C9.70022 12.7202 9.71078 12.9166 9.71078 13.135C9.71078 13.6382 9.66184 14.0067 9.56384 14.2401C9.38617 14.6686 8.98674 14.9393 8.36544 15.053C8.10507 15.101 7.70686 15.125 7.17118 15.125C6.277 15.125 5.654 15.0729 5.30218 14.968C4.87045 14.8395 4.58567 14.5793 4.44795 14.1876C4.3712 13.9694 4.33331 13.6061 4.33331 13.0975H5.92979L5.92992 13.2276C5.92992 13.499 6.00946 13.6734 6.16843 13.7511C6.27846 13.8046 6.41131 13.8329 6.56749 13.8362H7.15454C7.45402 13.8362 7.64517 13.8212 7.72763 13.791C7.87445 13.7344 7.97075 13.6434 8.01678 13.5174C8.04119 13.4397 8.05334 13.3395 8.05334 13.2165C8.05334 12.9414 7.95096 12.774 7.74633 12.7139C7.66958 12.6902 7.31375 12.657 6.67837 12.6152C6.16806 12.5795 5.81357 12.5451 5.61514 12.5118C5.09245 12.416 4.74403 12.2188 4.57025 11.9196C4.41735 11.6654 4.34109 11.2808 4.34109 10.7661C4.34109 10.3744 4.38238 10.0601 4.46496 9.82384C4.54754 9.58743 4.68064 9.40793 4.86426 9.2852C5.13362 9.09665 5.47791 8.98618 5.897 8.95309C6.24603 8.92321 6.63282 8.90797 7.05848 8.90797C7.72848 8.90797 8.20611 8.94583 8.49077 9.0207C9.18554 9.20366 9.53287 9.71611 9.53287 10.5583C9.53287 10.6273 9.52765 10.7307 9.51732 10.8687L9.51745 10.8686ZM16.538 15.125V8.875H19.7354C20.1739 8.875 20.5085 8.91 20.7385 8.98023C21.2643 9.14164 21.6171 9.47244 21.7978 9.97204C21.8911 10.2344 21.9378 10.6294 21.9378 11.1567C21.9378 11.7907 21.8861 12.2461 21.7836 12.5236C21.5785 13.0721 21.1565 13.3881 20.519 13.4699C20.4441 13.4823 20.1252 13.4931 19.5621 13.5021L19.2773 13.5113H18.2541V15.125H16.538ZM18.2543 12.0616H19.3242C19.6633 12.0497 19.8697 12.0241 19.9439 11.9841C20.0453 11.9295 20.1134 11.82 20.1473 11.6558C20.169 11.5466 20.1798 11.3842 20.1798 11.1684C20.1798 10.904 20.1582 10.708 20.115 10.5801C20.0533 10.4007 19.9055 10.2917 19.6714 10.2519C19.625 10.2459 19.5141 10.2427 19.3385 10.2427H18.2544L18.2543 12.0616ZM25.601 14.0449H23.3065L22.9982 15.125H21.2227L23.1387 8.875H25.7273L27.6666 15.125H25.9284L25.601 14.0449ZM25.2603 12.8274L24.4561 10.1181L23.6758 12.8274H25.2603Z" fill="#10298E"/>
<path d="M14.1695 9.75402C14.8772 9.75402 15.509 10.0736 15.9242 10.5742L16.2941 9.79676C15.7156 9.26062 14.9283 8.93005 14.0597 8.93005C12.7074 8.93005 11.5507 9.73069 11.0761 10.8639H10.3547L9.92871 11.759H10.8567C10.8493 11.8424 10.8454 11.926 10.8451 12.0098C10.8451 12.1123 10.8506 12.2138 10.8609 12.3139H10.3946L9.96879 13.2092H11.0982C11.5864 14.3137 12.7287 15.0891 14.0597 15.0891C14.7305 15.0891 15.3531 14.8921 15.8683 14.5555V13.4583C15.4532 13.9215 14.8463 14.2142 14.1695 14.2142C13.3784 14.2142 12.6825 13.8144 12.2774 13.2092H14.6423L15.0682 12.3139H11.9296C11.9018 12.1301 11.8973 11.9437 11.9162 11.7588H15.3323L15.7581 10.8639H12.2113C12.6036 10.2004 13.3335 9.7539 14.1695 9.7539" fill="#FFBE00"/>
<path fill-rule="evenodd" clip-rule="evenodd" d="M27 3H5C3.34315 3 2 4.34315 2 6V18C2 19.6569 3.34315 21 5 21H27C28.6569 21 30 19.6569 30 18V6C30 4.34315 28.6569 3 27 3ZM5 2C2.79086 2 1 3.79086 1 6V18C1 20.2091 2.79086 22 5 22H27C29.2091 22 31 20.2091 31 18V6C31 3.79086 29.2091 2 27 2H5Z" fill="black" fill-opacity="0.12"/>
</svg>
