<svg width="32" height="24" viewBox="0 0 32 24" fill="none" xmlns="http://www.w3.org/2000/svg">
<path d="M27.0526 2H4.94737C2.7673 2 1 3.86548 1 6.16667V17.8333C1 20.1345 2.7673 22 4.94737 22H27.0526C29.2327 22 31 20.1345 31 17.8333V6.16667C31 3.86548 29.2327 2 27.0526 2Z" fill="#122A96"/>
<path d="M13.596 8.98026L10.9726 15.0241H9.24497L7.97441 10.2434C7.96414 10.13 7.92337 10.021 7.85608 9.92723C7.78878 9.83344 7.69727 9.75801 7.59049 9.70833C7.08379 9.47544 6.54981 9.30169 6 9.19079V9.01535H8.74223C8.92372 9.0174 9.09858 9.08108 9.23579 9.19509C9.37301 9.30911 9.4637 9.46608 9.49177 9.63816L10.1682 13.1469L11.8501 9.03289L13.596 8.98026ZM20.2962 13.0504C20.2962 11.4627 18.011 11.375 18.0293 10.6557C18.0293 10.4452 18.2486 10.2083 18.7148 10.1557C19.263 10.1024 19.816 10.1934 20.3144 10.4189L20.5978 9.13816C20.1115 8.96743 19.5982 8.87841 19.0804 8.875C17.4808 8.875 16.3382 9.69079 16.3382 10.875C16.3382 11.7522 17.1426 12.2259 17.755 12.5154C18.3675 12.8048 18.596 13.0066 18.596 13.2697C18.596 13.6732 18.0932 13.8487 17.6271 13.8575C17.0478 13.8721 16.4746 13.7421 15.9634 13.4803L15.6435 14.8048C16.2266 15.02 16.847 15.1271 17.4717 15.1206C19.1718 15.1206 20.2779 14.3136 20.287 13.0504H20.2962ZM24.5101 15.0241H26L24.702 8.98026H23.3309C23.1819 8.98011 23.0362 9.0226 22.9125 9.10228C22.7887 9.18197 22.6925 9.29524 22.6362 9.42763L20.2139 15.0241H21.9141L22.2431 14.1469H24.3181L24.5101 15.0241ZM22.6819 12.8838L23.5411 10.6206L24.053 12.875L22.6819 12.8838ZM15.8812 8.98026L14.5466 15.0241H12.9561L14.2907 8.98026H15.8812Z" fill="white"/>
<path fill-rule="evenodd" clip-rule="evenodd" d="M27 3H5C3.34315 3 2 4.34315 2 6V18C2 19.6569 3.34315 21 5 21H27C28.6569 21 30 19.6569 30 18V6C30 4.34315 28.6569 3 27 3ZM5 2C2.79086 2 1 3.79086 1 6V18C1 20.2091 2.79086 22 5 22H27C29.2091 22 31 20.2091 31 18V6C31 3.79086 29.2091 2 27 2H5Z" fill="black" fill-opacity="0.12"/>
</svg>
