<?xml version="1.0" encoding="UTF-8"?>
<svg width="12px" height="14px" viewBox="0 0 12 14" version="1.1" xmlns="http://www.w3.org/2000/svg" xmlns:xlink="http://www.w3.org/1999/xlink">
    <!-- Generator: Sketch 63.1 (92452) - https://sketch.com -->
    <title> Icon / Base / Line / x16</title>
    <desc>Created with Sketch.</desc>
    <defs>
        <path d="M3.6764,10.6666667 L4.46306667,9.87866667 C4.71506667,9.62666667 4.85373333,9.292 4.85373333,8.936 L4.85373333,5.818 C4.85373333,4.91333333 5.24706667,4.04866667 5.93373333,3.44733333 C6.62573333,2.84066667 7.50706667,2.574 8.42506667,2.69466667 C9.9764,2.90066667 11.1464,4.30333333 11.1464,5.958 L11.1464,8.936 C11.1464,9.292 11.2850667,9.62666667 11.5364,9.878 L12.3237333,10.6666667 L3.6764,10.6666667 Z M9.33306667,12.2273333 C9.33306667,12.8266667 8.7224,13.3333333 7.99973333,13.3333333 C7.27706667,13.3333333 6.6664,12.8266667 6.6664,12.2273333 L6.6664,12 L9.33306667,12 L9.33306667,12.2273333 Z M13.6804,10.1386667 L12.4797333,8.936 L12.4797333,5.958 C12.4797333,3.63733333 10.8117333,1.666 8.59973333,1.37333333 C7.3184,1.20266667 6.02506667,1.594 5.05506667,2.44466667 C4.07906667,3.29933333 3.5204,4.52866667 3.5204,5.818 L3.51973333,8.936 L2.31906667,10.1386667 C2.0064,10.452 1.91373333,10.918 2.08306667,11.3266667 C2.25306667,11.736 2.6484,12 3.09106667,12 L5.33306667,12 L5.33306667,12.2273333 C5.33306667,13.5726667 6.52906667,14.6666667 7.99973333,14.6666667 C9.4704,14.6666667 10.6664,13.5726667 10.6664,12.2273333 L10.6664,12 L12.9084,12 C13.3510667,12 13.7457333,11.736 13.9150667,11.3273333 C14.0850667,10.918 13.9930667,10.4513333 13.6804,10.1386667 L13.6804,10.1386667 Z" id="path-1"></path>
    </defs>
    <g id="Symbols" stroke="none" stroke-width="1" fill="none" fill-rule="evenodd">
        <g id="Days" transform="translate(-2.000000, -5.000000)">
            <g id="Group">
                <g id="-Icon-/-Base-/-Line-/-x16" transform="translate(0.000000, 4.000000)">
                    <g id="Color-/-Fill-/-None">
                        <rect id="Color" x="0" y="0" width="16" height="16"></rect>
                    </g>
                    <g id="-Icon-/-Line-/-x16-/-bell">
                        <mask id="mask-2" fill="white">
                            <use xlink:href="#path-1"></use>
                        </mask>
                        <g></g>
                        <g id="Color-/-Fill-/-Brand" mask="url(#mask-2)" fill="#5D9E9B" fill-rule="evenodd">
                            <rect id="Color" x="0" y="0" width="16" height="16"></rect>
                        </g>
                    </g>
                </g>
            </g>
        </g>
    </g>
</svg>