<?xml version="1.0" encoding="utf-8"?>
<!-- Generator: Adobe Illustrator 24.0.0, SVG Export Plug-In . SVG Version: 6.00 Build 0)  -->
<svg version="1.1" id="Capa_1" xmlns="http://www.w3.org/2000/svg" xmlns:xlink="http://www.w3.org/1999/xlink" x="0px" y="0px"
	 viewBox="0 0 600 600" style="enable-background:new 0 0 600 600;" xml:space="preserve">
<style type="text/css">
	.st0{fill:#222222;}
	.st1{fill:#79BCB2;}
	.st2{fill:#2E998E;}
	.st3{fill:#636363;}
	.st4{fill:#CED2D6;}
	.st5{fill:#FFD5C9;}
	.st6{fill:#FFCD85;}
	.st7{fill:#EA9E4B;}
	.st8{fill:#F4C7BD;}
	.st9{fill:none;stroke:#FFFFFF;stroke-width:4.9269;stroke-linecap:round;stroke-miterlimit:10;}
	.st10{fill:none;stroke:#222222;stroke-width:6.2372;stroke-linecap:round;stroke-miterlimit:10;}
	.st11{fill:none;stroke:#222222;stroke-width:6;stroke-linecap:round;stroke-miterlimit:10;}
	.st12{fill:#FCECD0;}
	.st13{fill:none;stroke:#212121;stroke-width:6.2372;stroke-linecap:round;stroke-miterlimit:10;}
	.st14{fill:#FFD8CC;}
	.st15{fill:none;stroke:#000000;stroke-width:12;stroke-linecap:round;stroke-miterlimit:10;}
	.st16{fill:#212121;}
	.st17{fill:none;stroke:#212121;stroke-width:6;stroke-linecap:round;stroke-miterlimit:10;}
	.st18{fill:none;stroke:#C6985C;stroke-width:6.2372;stroke-linecap:round;stroke-miterlimit:10;}
	.st19{fill:none;stroke:#212121;stroke-width:6.1306;stroke-linecap:round;stroke-miterlimit:10;}
	.st20{fill:none;}
	.st21{fill:#FFFFFF;}
	.st22{fill:#C6985C;}
</style>
<g>
	<g>
		<ellipse class="st4" cx="338" cy="444.7" rx="218.6" ry="70.9"/>
	</g>
	<g>
		<path class="st7" d="M449.6,416.8h-28.8c-13.3,0-24.1-10.8-24.1-24.1v-62.1c0-13.3,10.8-24.1,24.1-24.1h28.8
			c13.3,0,24.1,10.8,24.1,24.1v62.1C473.7,406.1,462.9,416.8,449.6,416.8z"/>
	</g>
	<g>
		<path class="st6" d="M396.8,332.4v-21.4c0-9.4,7.6-17,17-17h42.6c9.4,0,17,7.6,17,17v21.4c0,9.4-7.6,17-17,17h-42.6
			C404.4,349.5,396.8,341.9,396.8,332.4z"/>
	</g>
	<g>
		<path class="st2" d="M267.1,346.5c0,0-7.9,8.1-69.6,44c-43.2,25.1-26.4,79.8,30.4,82.7c25.6,1.3,147.1-7.1,147.1-7.1l-0.3-42.4
			l-77.7-4.6c0,0,57.7-6.5,63.2-42.6c5.5-36.1-0.5-46.6-0.5-46.6L267.1,346.5z"/>
	</g>
	<g>
		<path class="st0" d="M421.6,439.2l13.5,0.6l-0.1,5.3c0,0,52.1,11.1,57.8,16c5.7,4.9-1.6,7.3-6.1,8.8c-4.5,1.5-65.6,6.1-65.6,6.1
			L421.6,439.2z"/>
	</g>
	<g>
		<polygon class="st3" points="426.3,439 426.6,461.5 435.7,461.2 435.1,439.8 		"/>
	</g>
	<g>
		<path class="st3" d="M432.8,459.4c0,0,42.9,6.1,57.2,7.7c1.5,0.2,4.5,0.4,5.2-2.7c0,0,4.1-7.9-60.9-20.3"/>
	</g>
	<g>
		<path class="st0" d="M429,395.1l13.5,0.6l-0.1,5.3c0,0,52.1,11.1,57.8,16c5.7,4.9-1.6,7.3-6.1,8.8c-4.5,1.5-64.8,6.1-64.8,6.1
			L429,395.1z"/>
	</g>
	<g>
		<polygon class="st3" points="433.7,394.9 434,417.3 443.1,417.1 442.5,395.7 		"/>
	</g>
	<g>
		<path class="st3" d="M440.2,415.2c0,0,42.9,6.1,57.2,7.7c1.5,0.2,4.5,0.4,5.2-2.7c0,0,4.1-7.9-60.9-20.3"/>
	</g>
	<g>
		<path class="st2" d="M304.2,368.6c0,0-82.5,17.2-100.6,55s12.1,58.3,40.7,58.1c12.3-0.1,177.6-3.8,177.6-3.8l-0.3-42.4l-77.7-4.6
			c0,0,64-5.6,69.5-41.7s0.6-47.1,0.6-47.1L304.2,368.6z"/>
	</g>
	<g>
		<path class="st2" d="M254.1,437.3c12.3-0.1,177.6-3.8,177.6-3.8l-0.3-42.4l-77.7-4.6"/>
	</g>
	<g>
		<path class="st21" d="M435.7,459.9c-0.2,0-0.5-0.2-0.5-0.4l-0.5-15.5c0-0.3,0.2-0.5,0.4-0.5c0.3,0,0.5,0.2,0.5,0.4l0.5,15.5
			C436.2,459.7,436,459.9,435.7,459.9C435.8,459.9,435.7,459.9,435.7,459.9z"/>
	</g>
	<g>
		<path class="st21" d="M443.5,415.6c-0.2,0-0.5-0.2-0.5-0.4l-0.5-15.5c0-0.3,0.2-0.5,0.4-0.5c0.3,0,0.5,0.2,0.5,0.4l0.5,15.5
			C443.9,415.4,443.7,415.6,443.5,415.6C443.5,415.6,443.5,415.6,443.5,415.6z"/>
	</g>
	<g>
		<path class="st0" d="M332.6,436.3l0-1.2c0.2,0,19.1-0.5,38.6-8c11.4-4.4,20.8-10.3,27.8-17.6c8.8-9.1,14-20.3,15.5-33.4
			c0-0.3,0.3-0.6,0.6-0.5c0.3,0,0.6,0.3,0.5,0.6c-1.5,13.3-6.8,24.8-15.8,34c-7.2,7.4-16.7,13.4-28.2,17.9c-9.5,3.7-18.8,5.7-26,6.8
			l59.8-0.7c0,0,0,0,0,0c0.3,0,0.6,0.3,0.6,0.6c0,0.3-0.3,0.6-0.6,0.6L332.6,436.3z"/>
	</g>
	<g>
		<path class="st0" d="M210.6,471.3c-0.1,0-0.2,0-0.3-0.1c-4.6-3.6-7.9-8.1-10-13.2c-2.4-6-3-13-2-20.8c1-7.4,4.8-14.9,11.2-22.3
			c5.1-5.9,11.9-11.8,20.2-17.4c14.1-9.6,27.8-15.4,28-15.5c0.3-0.1,0.6,0,0.7,0.3c0.1,0.3,0,0.6-0.3,0.7
			c-0.1,0.1-13.8,5.8-27.8,15.4c-8.2,5.6-14.9,11.4-19.9,17.2c-6.3,7.3-9.9,14.6-10.9,21.7c-1.9,14.3,1.9,25.4,11.5,33
			c0.2,0.2,0.3,0.5,0.1,0.8C210.9,471.3,210.8,471.3,210.6,471.3z"/>
	</g>
	<g>
		<path class="st12" d="M290.3,231c0,0,30.6-10.1,39.1-20.7c0,0,90.8,17.2,91.2,165.2c0,0-110.5,15.6-163.3-17.2L189.1,316
			C189.1,316,270.1,243,290.3,231z"/>
	</g>
	<g>
		<g>
			<path class="st1" d="M433.7,273.9c0,0-28.1,1-26.2-35.3c0.4-7.9-1.3-26-10.2-37.1c-9.9-12.4-12.1-31,0.2-46.8
				c11.1-14.3,11.9-11.8,7-29.6c-3.4-12.2,2.5-41.9,29.2-40.6"/>
		</g>
		<g>
			<path class="st1" d="M433.7,273.9c0,0,28.1,1,26.2-35.3c-0.4-7.9,1.3-26,10.2-37.1c9.9-12.4,12.1-31-0.2-46.8
				c-11.1-14.3-11.9-11.8-7-29.6c3.4-12.2-2.5-41.9-29.2-40.6"/>
		</g>
		<g>
			<path class="st16" d="M433.7,326.9c-0.3,0-0.6-0.3-0.6-0.6V126.8c0-0.3,0.3-0.6,0.6-0.6c0.3,0,0.6,0.3,0.6,0.6v199.5
				C434.3,326.6,434,326.9,433.7,326.9z"/>
		</g>
	</g>
	<g>
		<polygon class="st7" points="68,306.4 49.4,330.4 95.4,317.8 		"/>
	</g>
	<g>
		<path class="st0" d="M285.3,220c0,0-16.3,5.7-27.8,11.3c0,0-18.3-38.8-16.9-61.8c0.7-11,2.4-28.9,26.2-37.9c0,0,36.1-12.8,56.8,17
			l25,48.3L285.3,220z"/>
	</g>
	<g>
		<path class="st14" d="M301.4,157.8l27.2,54.8c-13.7,15.1-37,20.5-37,20.5c-5-8.8-7.3-10.3-24.3-15.8
			c-16.9-5.5-25.8-47.1-25.8-47.1s-0.5-6.4,7.1-9.2c7.6-2.9,43.4-16.6,49-10.4C303.3,156.7,301.4,157.8,301.4,157.8z"/>
	</g>
	<g>
		<path class="st0" d="M241.8,181.5c0,0,10.2-3.3,17.5-6l-1-15.4l7.2,13.1l43-14c0,0-11.2-24.2-32.4-20S235.8,158.3,241.8,181.5z"/>
	</g>
	<g>
		<circle class="st0" cx="267" cy="121.9" r="16.2"/>
	</g>
	<g>
		<path d="M271,180.3c-0.2,0-0.5-0.1-0.7-0.2c-0.5-0.4-0.6-1.1-0.2-1.6c2.9-3.9,6.4-4.6,8.9-4.5c2.6,0.1,4.6,1.2,4.7,1.2
			c0.5,0.3,0.7,1,0.4,1.5c-0.3,0.5-1,0.7-1.5,0.4c-0.3-0.1-6.3-3.3-10.6,2.6C271.7,180.2,271.4,180.3,271,180.3z"/>
	</g>
	<g>
		<path d="M249.9,187.6c-0.2,0-0.4,0-0.6-0.1c-0.5-0.3-0.7-1-0.4-1.5c2.1-3.8,5.2-4.5,7.4-4.5c2.3,0,4.1,1,4.2,1
			c0.6,0.3,0.8,1,0.5,1.5c-0.3,0.6-1,0.8-1.5,0.5c-0.2-0.1-5.6-2.7-8.6,2.6C250.6,187.3,250.3,187.6,249.9,187.6z"/>
	</g>
	<g>
		<circle class="st16" cx="276.8" cy="180.8" r="1.8"/>
	</g>
	<g>
		<circle class="st16" cx="255.1" cy="188" r="1.8"/>
	</g>
	<g>
		<path class="st16" d="M269.2,199.4c-0.5,0-1-0.1-1.3-0.4c-0.7-0.6-0.8-1.7-0.5-3.8c0.6-4.6-2.9-14-3-14.1c-0.1-0.3,0-0.6,0.3-0.7
			c0.3-0.1,0.6,0,0.7,0.3c0.1,0.4,3.6,9.8,3,14.6c-0.2,1.6-0.1,2.6,0.2,2.8c0.3,0.3,1.4,0.1,2.6-0.2c0.4-0.1,0.8-0.2,1.3-0.3
			c0.3-0.1,0.6,0.1,0.7,0.4c0.1,0.3-0.1,0.6-0.4,0.7c-0.5,0.1-0.9,0.2-1.3,0.3C270.6,199.3,269.8,199.4,269.2,199.4z"/>
	</g>
	<g>
		<g>
			<circle class="st14" cx="314" cy="176.6" r="10.3"/>
		</g>
		<g>
			<path class="st16" d="M321.7,175.4c-0.2,0-0.5-0.1-0.5-0.4c-1.9-5.6-7.4-5.7-7.7-5.7c-0.3,0-0.6-0.3-0.6-0.6
				c0-0.3,0.3-0.6,0.6-0.6c0,0,0,0,0,0c0.1,0,6.5,0.2,8.7,6.5c0.1,0.3-0.1,0.6-0.4,0.7C321.9,175.4,321.8,175.4,321.7,175.4z"/>
		</g>
	</g>
	<g>
		<path class="st16" d="M272.4,204.3c-0.2,0-0.5-0.1-0.6-0.4c-0.1-0.3,0-0.6,0.4-0.7c0,0,2.6-1,6.8-4.3c0.3-0.2,0.6-0.2,0.8,0.1
			c0.2,0.3,0.2,0.6-0.1,0.8c-4.4,3.4-7,4.4-7.1,4.4C272.6,204.2,272.5,204.3,272.4,204.3z"/>
	</g>
	<g>
		<path class="st7" d="M204.1,362c0.3,1,21.3,28.5,21.3,28.5l56.6-49.2l-21.4-26L204.1,362z"/>
	</g>
	<g>
		<polygon class="st6" points="70.5,249.7 205.5,297.9 252.3,255 126.1,211.5 		"/>
	</g>
	<g>
		<polygon class="st7" points="67.9,309.3 70.5,249.7 205.5,297.9 203.7,361.7 		"/>
	</g>
	<g>
		<polygon class="st7" points="203.5,297.1 252.3,255 252.7,329.3 203.7,361.7 		"/>
	</g>
	<g>
		<path class="st14" d="M220.6,285.2c7.5,5.9,24.6,23.1,24.6,23.1s-12.3,32.5-16.7,63.1l-58.1-22.6c0,0-8.4-2.3-6.9-8.5
			c0,0,0.6-4.6,5-3.3c0,0-9.8-2.3-7.8-10.5c0,0,0.9-6.3,6.6-4.8c0,0-4-0.8-3.5-7.8c0,0,1.3-6.7,8-4.9c0,0-4.1-2.9-2-7.9
			c0,0,1.9-5,7.1-3.1c5.2,1.9,27.3,9.4,27.3,9.4s14,1,7.6-11.3c-1-1.9-2-3.1-6.4-5.6c-2.4-1.4-7.2-3.3-5.9-9.5c0,0-0.5-4.7,8-1.5
			C212.9,281.5,217.8,283,220.6,285.2z"/>
	</g>
	<g>
		<path class="st14" d="M71.1,268.2l25.4,8c0,0,5.6,1.5,7.8-5.2c0,0,1.9-6.3-6.6-9.2s-16.6-6.4-22.2-8.4c-2.6-1-8.7-2.9-10.4,4.3
			C63.5,264.8,69.1,267.5,71.1,268.2z"/>
	</g>
	<g>
		<path class="st14" d="M68,281l28.5,8.3c0,0,6.3,1.6,8.7-5.3c0,0,2.1-6.5-7.4-9.5c-9.5-3-24.9-8.7-24.9-8.7s-9.8-3-11.6,4.3
			S65.8,280.3,68,281z"/>
	</g>
	<g>
		<path class="st14" d="M66.5,293.9l28.5,8.3c0,0,6.3,1.6,8.7-5.3c0,0,2.1-6.5-7.4-9.5s-24.9-8.7-24.9-8.7s-9.8-3-11.6,4.3
			S64.3,293.3,66.5,293.9z"/>
	</g>
	<g>
		<path class="st14" d="M67,305.7l23.7,5.7c0,0,5.2,1,6.9-4.7c0,0,1.4-5.4-6.5-7.5s-20.8-6.2-20.8-6.2s-8.1-2.1-9.3,4
			S65.2,305.2,67,305.7z"/>
	</g>
	<g>
		<path class="st16" d="M96.8,303c-0.1,0-0.1,0-0.2,0l-32.5-9.4c-0.3-0.1-0.5-0.4-0.4-0.7c0.1-0.3,0.4-0.5,0.7-0.4l32.5,9.4
			c0.3,0.1,0.5,0.4,0.4,0.7C97.2,302.8,97,303,96.8,303z"/>
	</g>
	<g>
		<path class="st16" d="M100.1,289.7c-0.1,0-0.1,0-0.2,0L63.8,279c-0.3-0.1-0.5-0.4-0.4-0.7c0.1-0.3,0.4-0.5,0.7-0.4l36.1,10.7
			c0.3,0.1,0.5,0.4,0.4,0.7C100.5,289.6,100.3,289.7,100.1,289.7z"/>
	</g>
	<g>
		<path class="st16" d="M101,276c-0.1,0-0.1,0-0.2,0l-34.9-10.6c-0.3-0.1-0.5-0.4-0.4-0.7c0.1-0.3,0.4-0.5,0.7-0.4l34.9,10.6
			c0.3,0.1,0.5,0.4,0.4,0.7C101.4,275.8,101.2,276,101,276z"/>
	</g>
	<g>
		<path class="st16" d="M199.9,348c-0.1,0-0.1,0-0.2,0l-32.8-10.7c-0.3-0.1-0.5-0.4-0.4-0.7c0.1-0.3,0.4-0.5,0.7-0.4l32.8,10.7
			c0.3,0.1,0.5,0.4,0.4,0.7C200.3,347.8,200.1,348,199.9,348z"/>
	</g>
	<g>
		<path class="st16" d="M201.4,334.3c-0.1,0-0.1,0-0.2,0l-34.9-12c-0.3-0.1-0.5-0.4-0.4-0.7c0.1-0.3,0.4-0.5,0.7-0.4l34.9,12
			c0.3,0.1,0.5,0.4,0.4,0.7C201.8,334.2,201.6,334.3,201.4,334.3z"/>
	</g>
	<g>
		<path class="st16" d="M204.9,321.2c-0.1,0-0.1,0-0.2,0l-33.1-11.4c-0.3-0.1-0.5-0.4-0.4-0.7c0.1-0.3,0.4-0.5,0.7-0.4l33.1,11.4
			c0.3,0.1,0.5,0.4,0.4,0.7C205.3,321.1,205.1,321.2,204.9,321.2z"/>
	</g>
	<g>
		<path class="st12" d="M344.6,294.1c1.3,8.9-4.2,28.2-20.9,33s-82-21.8-82-21.8c-12.7,18.9-17.1,68.1-17.1,68.1s87.7,40,144.1,19.5
			c26.2-9.5,29.9-30.5,35.9-46.7"/>
	</g>
	<g>
		<path class="st0" d="M304.6,320.1c-0.5,0-1.1,0-1.6,0c-8.5-0.1-18.2-1.5-28.7-3.9c-18-4.2-32.6-10.3-32.7-10.3
			c-0.3-0.1-0.4-0.5-0.3-0.7c0.1-0.3,0.5-0.4,0.7-0.3c0.1,0.1,14.6,6.1,32.5,10.3c10.5,2.4,20.1,3.7,28.5,3.9
			c10.5,0.2,19.1-1.4,25.8-4.8c8-4.1,13.2-10.9,15.3-20.1c0.1-0.3,0.4-0.5,0.7-0.4c0.3,0.1,0.5,0.4,0.4,0.7
			c-2.2,9.6-7.6,16.6-15.9,20.9C322.8,318.4,314.5,320.1,304.6,320.1z"/>
	</g>
	<g>
		<path class="st0" d="M263.1,300.2c-0.1,0-0.1,0-0.2,0c-0.3-0.1-0.5-0.4-0.4-0.7c0.1-0.2,6.8-23.8,22-54.8c0.1-0.3,0.5-0.4,0.8-0.3
			c0.3,0.1,0.4,0.5,0.3,0.8c-15.2,30.9-21.9,54.3-21.9,54.6C263.6,300.1,263.4,300.2,263.1,300.2z"/>
	</g>
	<g>
		<path class="st22" d="M226.4,276c-0.1,0-0.1,0-0.2,0l-124-46.2c-0.3-0.1-0.5-0.5-0.3-0.8c0.1-0.3,0.4-0.5,0.8-0.3l124,46.2
			c0.3,0.1,0.5,0.5,0.3,0.8C226.8,275.9,226.6,276,226.4,276z"/>
	</g>
	<g>
		<g>
			<path class="st16" d="M51.7,255.4c-0.3,0-0.5-0.2-0.6-0.5c0-0.1-0.2-3.5,1.4-7.2c1.5-3.4,4.9-7.7,12.6-8.8c0.3,0,0.6,0.2,0.6,0.5
				c0,0.3-0.2,0.6-0.5,0.6c-5.8,0.8-9.7,3.6-11.7,8.1c-1.5,3.4-1.3,6.6-1.3,6.7C52.3,255.1,52,255.4,51.7,255.4
				C51.7,255.4,51.7,255.4,51.7,255.4z"/>
		</g>
		<g>
			<path class="st16" d="M44.1,254.3c-0.3,0-0.6-0.2-0.6-0.5c0-0.2-0.3-5,2-10.2c2.1-4.8,6.9-10.9,17.9-12.5c0.3,0,0.6,0.2,0.7,0.5
				c0,0.3-0.2,0.6-0.5,0.7c-8.3,1.2-14,5.2-16.9,11.8c-2.2,5-1.9,9.7-1.9,9.7C44.7,254,44.4,254.3,44.1,254.3
				C44.1,254.3,44.1,254.3,44.1,254.3z"/>
		</g>
	</g>
	<g>
		<g>
			<path class="st16" d="M246.6,348.5c-0.2,0-0.5-0.2-0.5-0.4c-0.1-0.3,0.1-0.6,0.4-0.7c5.6-1.6,9.1-4.9,10.4-9.6
				c1-3.6,0.4-6.8,0.4-6.8c-0.1-0.3,0.1-0.6,0.4-0.7c0.3-0.1,0.6,0.1,0.7,0.4c0,0.1,0.7,3.4-0.4,7.3c-1,3.6-3.8,8.3-11.2,10.5
				C246.7,348.5,246.6,348.5,246.6,348.5z"/>
		</g>
		<g>
			<path class="st16" d="M249.4,356c-0.2,0-0.5-0.2-0.6-0.4c-0.1-0.3,0.1-0.6,0.4-0.7c8.1-2.3,13.2-7.1,15.2-14
				c1.5-5.2,0.6-9.8,0.6-9.9c-0.1-0.3,0.1-0.6,0.4-0.7c0.3-0.1,0.6,0.1,0.7,0.4c0,0.2,1,4.9-0.6,10.4c-1.4,5.1-5.4,11.8-16,14.9
				C249.5,356,249.5,356,249.4,356z"/>
		</g>
	</g>
	<g>
		<path class="st20" d="M301.4,157.8l27.2,54.8c-13.7,15.1-37,20.5-37,20.5c-5-8.8-7.3-10.3-24.3-15.8
			c-16.9-5.5-25.8-47.1-25.8-47.1s-0.5-6.4,7.1-9.2c7.6-2.9,43.4-16.6,49-10.4C303.3,156.7,301.4,157.8,301.4,157.8z"/>
	</g>
	<g>
		<path class="st8" d="M285.7,225.4c2.9-2,5.8-4.6,6.6-7.3c1.5-5.7-5.1-2.1-5.1-2.1c-4.9,2.3-9.6,3.4-12.7,3.9
			C280,221.8,283.2,223.3,285.7,225.4z"/>
	</g>
	<g>
		<path class="st0" d="M332.6,436.3C332.6,436.3,332.6,436.3,332.6,436.3c-0.3,0-29.8,0-30.3,0c-0.3,0-0.6-0.3-0.6-0.6
			c0-0.3,0.2-0.6,0.6-0.6c0.3,0,29.1,0,30.3,0c0.3,0,0.6,0.3,0.6,0.6C333.1,436,332.9,436.3,332.6,436.3z"/>
	</g>
	<g>
		<path class="st14" d="M92.7,245c5.2,0.5,6.3-3.3,6.3-3.3c1.3-4.9-2.2-6.2-2.2-6.2s-8.5-3.3-13.3-1.6s-5.3,8.6-5.3,8.6v1.9l1.8-1.2
			L92.7,245z"/>
	</g>
	<g>
		<path class="st0" d="M391.6,376.7c-0.1,0-0.3-0.1-0.4-0.2c-0.2-0.2-0.2-0.6,0-0.8l0,0c0,0,3.3-3.2,6.7-9.8
			c3.2-6.1,7.2-16.5,8.4-31.4c0-0.3,0.3-0.5,0.6-0.5c0.3,0,0.5,0.3,0.5,0.6c-1.2,15.1-5.3,25.6-8.5,31.9c-3.5,6.8-6.7,9.9-6.9,10.1
			C391.9,376.7,391.7,376.7,391.6,376.7z"/>
	</g>
</g>
</svg>
