<?xml version="1.0" encoding="UTF-8"?>
<svg width="544px" height="624px" viewBox="0 0 544 624" version="1.1" xmlns="http://www.w3.org/2000/svg" xmlns:xlink="http://www.w3.org/1999/xlink">
    <!-- Generator: Sketch 64 (93537) - https://sketch.com -->
    <title>02.history.illustration</title>
    <desc>Created with Sketch.</desc>
    <g id="02.history.illustration" stroke="none" stroke-width="1" fill="none" fill-rule="evenodd">
        <g id="Landing-brothers_v2" transform="translate(0.000000, 6.000000)">
            <path d="M48.417521,139.726375 L191.033737,139.726375 C191.033737,139.726375 195.292451,131.411743 157.77521,125.429264 C157.77521,125.429264 141.095247,125.429264 123.908295,113.515005 C123.908295,113.515005 112.551724,104.287791 94.0465983,113.515005 C86.2389562,117.418826 77.7215284,123.350606 60.534576,123.046412 C43.3476235,122.742218 17.6939422,132.273625 16.020876,139.726375 L48.417521,139.726375 Z" id="Path" fill="#E8E8E8" fill-rule="nonzero"></path>
            <path d="M385.819199,121.424045 C385.667102,121.778938 378.924138,146.570736 373.296552,150.728052 C367.415471,155.088164 358.796645,146.773532 357.427773,146.266542 C356.0589,145.759553 346.1726,137.901212 335.931407,146.266542 C325.690214,154.631873 316.00671,143.985089 316.00671,143.985089 C316.00671,143.985089 312.204287,166.64753 333.142964,179.372973 C333.142964,179.372973 354.335135,193.36589 373.296552,180.691146 C381.915377,174.911463 390.990494,164.264678 392.967754,143.4274 C392.967754,143.4274 392.764958,133.389003 389.976514,119.903075" id="Path" fill="#5D4037" fill-rule="nonzero"></path>
            <path d="M192.605405,130.955452 L196.661323,94.9084809 C196.661323,94.9084809 159.498975,81.7267474 119.750979,103.223113" id="Path" fill="#FFCAB2" fill-rule="nonzero"></path>
            <ellipse id="Oval" fill="#FFCAB2" fill-rule="nonzero" cx="192.605405" cy="142.666915" rx="11.3058714" ry="11.7114632"></ellipse>
            <path d="M201.629823,143.478099 C201.731221,142.362721 201.832619,136.532339 196.255732,134.352283" id="Path" stroke="#282828" stroke-width="1.49298341" stroke-linecap="round"></path>
            <path d="M316.564399,134.098788 C316.564399,134.098788 313.877353,106.974837 313.573159,98.5588071 L323.662255,96.4294501 L316.564399,134.098788 Z" id="Path" fill="#5D4037" fill-rule="nonzero"></path>
            <path d="M323.611556,117.621622 C323.611556,117.621622 329.289842,113.008015 334.968127,116.810438" id="Path" stroke="#5D4037" stroke-width="3.39419497" stroke-linecap="round"></path>
            <path d="M356.363094,116.70904 C356.363094,116.70904 362.649767,113.058714 367.719664,117.72302" id="Path" stroke="#5D4037" stroke-width="3.39419497" stroke-linecap="round"></path>
            <path d="M374.665424,82.537931 C374.665424,82.537931 380.698602,112.146132 385.819199,122.590121 L394.843616,122.590121 C394.843616,122.590121 395.249208,100.586766 396.009692,91.8665424 C396.060391,91.2074557 398.139049,71.8911463 386.833178,68.7985089 C386.833178,68.7985089 376.946878,65.4016775 371.015098,68.7985089 L374.665424,82.537931 Z" id="Path" fill="#5D4037" fill-rule="nonzero"></path>
            <path d="M336.742591,178.967381 C336.742591,178.967381 353.676048,187.687605 359.303635,187.687605 C359.303635,187.687605 364.931221,190.577446 359.303635,193.517987 C353.676048,196.407829 336.742591,193.517987 336.742591,193.517987 L336.742591,178.967381 Z" id="Path" fill="#EEBAA6" fill-rule="nonzero"></path>
            <path d="M390.838397,81.7267474 C390.838397,81.7267474 358.644548,86.593849 320.062628,97.3927307" id="Path"></path>
            <path d="M377.555266,116.70904 C377.453868,114.883877 376.490587,115.23877 376.490587,115.23877 C374.614725,115.390867 372.130475,114.427586 372.130475,114.427586 C367.821062,112.044734 364.170736,111.841938 364.170736,111.841938 C356.515191,111.132153 351.1411,115.086673 350.684809,115.441566 C350.228518,115.796459 349.417335,116.252749 348.606151,115.74576 C347.744268,115.23877 344.955825,115.340168 344.955825,115.340168 C344.955825,115.340168 342.015284,115.188071 341.204101,115.74576 C340.342218,116.252749 339.581733,115.796459 339.125443,115.441566 C338.669152,115.086673 333.295061,111.132153 325.639515,111.841938 C325.639515,111.841938 321.989189,111.994035 317.679776,114.427586 C317.679776,114.427586 315.195527,115.390867 313.319664,115.23877 C313.319664,115.23877 312.356384,114.883877 312.254986,116.70904 C312.254986,116.70904 312.001491,117.925815 313.167568,118.027213 C313.167568,118.027213 314.637838,118.382106 314.840634,120.66356 C315.04343,122.945014 316.00671,127.660019 317.527679,129.535881 C319.048649,131.411743 322.293383,135.822554 329.340541,135.264865 C329.340541,135.264865 336.742591,134.656477 340.545014,126.493942 C340.545014,126.493942 341.913886,122.945014 341.863187,121.17055 C341.863187,121.17055 341.812488,120.004473 341.406897,119.497484 C341.001305,118.990494 341.508295,118.027213 341.913886,117.925815 C342.319478,117.824418 344.905126,117.621622 344.905126,117.621622 C344.905126,117.621622 347.490774,117.824418 347.947064,117.925815 C348.352656,118.027213 348.859646,118.990494 348.454054,119.497484 C348.048462,120.004473 347.997763,121.17055 347.997763,121.17055 C347.896365,122.945014 349.315937,126.493942 349.315937,126.493942 C353.11836,134.707176 360.52041,135.264865 360.52041,135.264865 C367.567568,135.873253 370.761603,131.411743 372.333271,129.535881 C373.904939,127.660019 374.817521,122.945014 375.020317,120.66356 C375.223113,118.382106 376.693383,118.027213 376.693383,118.027213 C377.80876,117.925815 377.555266,116.70904 377.555266,116.70904 Z M338.922647,126.240447 C336.235601,133.5411 329.036347,134.098788 329.036347,134.098788 C319.555638,134.656477 317.071389,125.834856 317.071389,125.834856 C315.449021,120.359366 318.085368,116.556943 318.085368,116.556943 C320.924511,113.362908 326.045107,113.008015 326.045107,113.008015 C333.34576,112.501025 336.539795,115.948555 336.539795,115.948555 C341.406897,120.257968 338.922647,126.240447 338.922647,126.240447 Z M372.738863,125.834856 C372.738863,125.834856 370.254613,134.605778 360.773905,134.098788 C360.773905,134.098788 353.574651,133.5411 350.887605,126.240447 C350.887605,126.240447 348.403355,120.308667 353.219758,115.999254 C353.219758,115.999254 356.413793,112.551724 363.714445,113.058714 C363.714445,113.058714 368.885741,113.413607 371.674185,116.607642 C371.724884,116.556943 374.36123,120.359366 372.738863,125.834856 Z" id="Shape" fill="#282828" fill-rule="nonzero"></path>
            <line x1="377.555266" y1="116.70904" x2="392.917055" y2="120.004473" id="Path" stroke="#282828" stroke-width="2.26279664" stroke-linecap="round"></line>
            <path d="M392.917055,120.004473 C399.153029,120.004473 404.222926,125.226468 404.222926,131.715937 C404.222926,138.154706 399.153029,143.4274 392.917055,143.4274 C386.681081,143.4274 381.611184,138.205405 381.611184,131.715937" id="Path" fill="#FFCAB2" fill-rule="nonzero"></path>
            <path d="M401.789376,131.56384 C401.840075,130.397763 401.840075,125.277167 395.299907,123.249208" id="Path" stroke="#282828" stroke-width="1.49298341" stroke-linecap="round"></path>
            <ellipse id="Oval" fill="#282828" fill-rule="nonzero" cx="329.746132" cy="122.590121" rx="2.23075489" ry="2.33215284"></ellipse>
            <ellipse id="Oval" fill="#282828" fill-rule="nonzero" cx="362.953961" cy="122.184529" rx="2.23075489" ry="2.33215284"></ellipse>
            <ellipse id="Oval" fill="#FFCAB2" fill-rule="nonzero" cx="192.605405" cy="142.666915" rx="11.3058714" ry="11.7114632"></ellipse>
            <path d="M201.629823,143.478099 C201.731221,142.362721 201.832619,136.532339 196.255732,134.352283" id="Path" stroke="#282828" stroke-width="1.49298341" stroke-linecap="round"></path>
            <path d="M392.460764,129.180988 L388.607642,78.482013 C388.607642,78.482013 358.593849,86.593849 320.011929,97.3927307 C318.845853,97.6969245 316.108108,125.530662 315.956011,143.985089" id="Path" fill="#FFCAB2" fill-rule="nonzero"></path>
            <path d="M309.010252,99.0657968 C309.010252,99.0657968 368.328052,93.3368127 381.560485,70.9278658 C381.560485,70.9278658 373.702144,52.5748369 350.532712,54.2986021 C327.363281,56.0223672 313.826654,65.3509786 309.162349,81.4732526 C308.300466,84.4644921 304.193849,95.3647717 304.193849,95.3647717 L313.52246,90.8525629 L309.010252,99.0657968 Z" id="Path" fill="#5D4037" fill-rule="nonzero"></path>
            <path d="M330.303821,99.0657968 C330.303821,99.0657968 365.793103,87.6585275 372.333271,77.4173346 L378.467847,76.9103448 C378.467847,76.9610438 369.89972,97.7983225 330.303821,99.0657968 Z" id="Path" fill="#5D4037" fill-rule="nonzero"></path>
            <path d="M374.665424,82.537931 C374.665424,82.537931 380.698602,112.146132 385.819199,122.590121 L394.843616,122.590121 C394.843616,122.590121 395.249208,100.586766 396.009692,91.8665424 C396.060391,91.2074557 398.139049,71.8911463 386.833178,68.7985089 C386.833178,68.7985089 376.946878,65.4016775 371.015098,68.7985089 L374.665424,82.537931 Z" id="Path" fill="#5D4037" fill-rule="nonzero"></path>
            <ellipse id="Oval" fill="#FFCAB2" fill-rule="nonzero" cx="392.917055" cy="131.715937" rx="11.3058714" ry="11.7114632"></ellipse>
            <path d="M401.789376,131.56384 C401.840075,130.397763 401.840075,125.277167 395.299907,123.249208" id="Path" stroke="#282828" stroke-width="1.49298341" stroke-linecap="round"></path>
            <path d="M129.738677,191.591426 C129.738677,191.591426 140.892451,190.88164 147.939609,190.88164 L150.32246,204.925256 L130.803355,203.708481 L129.738677,191.591426 Z" id="Path" fill="#508780" fill-rule="nonzero"></path>
            <path d="M181.350233,189.208574 C181.350233,189.208574 186.369432,189.563467 196.610624,191.591426 L199.29767,204.925256 L179.778565,203.708481 L181.350233,189.208574 Z" id="Path" fill="#508780" fill-rule="nonzero"></path>
            <path d="M218.005592,218.259087 C218.005592,218.259087 304.954334,200.514445 324.118546,200.818639 C324.118546,200.818639 381.053495,197.726002 411.371482,203.556384 L461.462069,220.337745 C461.462069,220.337745 490.715377,332.737372 485.391985,382.371668 C485.391985,382.371668 482.704939,494.010811 342.775769,504.302703 C342.775769,504.302703 323.459459,514.543896 275.244734,488.991612 L218.005592,218.259087 Z" id="Path" fill="#FFFFFF" fill-rule="nonzero"></path>
            <path d="M60.6359739,219.57726 C60.6359739,219.57726 124.972973,210.350047 149.764772,210.096552 C149.764772,210.096552 182.567008,202.998695 229.362162,221.351724 L270.732526,236.105126 L275.346132,488.940913 C275.346132,488.940913 150.677353,510.082386 70.3701771,476.519664 C70.3701771,476.519664 60.2810811,471.652563 60.6359739,448.07754 C60.9908667,424.350419 60.6359739,219.57726 60.6359739,219.57726 Z" id="Path" fill="#FFFFFF" fill-rule="nonzero"></path>
            <path d="M60.7880708,473.122833 C61.7513514,476.012675 138.00261,508.561417 275.498229,488.890214 L273.774464,617.006524 C273.774464,617.006524 157.825909,617.006524 60.483877,617.006524 L60.7880708,473.122833 Z" id="Path" fill="#CED2D6" fill-rule="nonzero"></path>
            <polyline id="Path" stroke="#65868F" stroke-width="1.77446412" points="167.408015 534.62069 174.607269 534.62069 174.505871 498.928611"></polyline>
            <polygon id="Path" fill="#9FA6AE" fill-rule="nonzero" points="252.835788 229.260764 246.498416 226.97931 246.498416 211.718919 252.835788 211.009133"></polygon>
            <path d="M270.935322,268.349674 C270.935322,268.349674 397.429264,279.807642 473.224231,276.258714" id="Path" stroke="#DD674F" stroke-width="1.13139832"></path>
            <path d="M359.810624,228.753774 C396.719478,229.260764 434.895806,229.260764 463.033737,227.942591" id="Path" stroke="#DD674F" stroke-width="1.13139832"></path>
            <path d="M238.38658,225.458341 C238.38658,225.458341 293.952656,227.739795 354.436533,228.652377" id="Path" stroke="#DD674F" stroke-width="1.13139832"></path>
            <path d="M270.935322,323.662255 C270.935322,323.662255 403.766636,337.75657 479.561603,334.156943" id="Path" stroke="#DD674F" stroke-width="1.13139832"></path>
            <path d="M273.774464,388.810438 C273.774464,388.810438 397.429264,400.014911 473.224231,396.465983" id="Path" stroke="#DD674F" stroke-width="1.13139832"></path>
            <path d="M274.940541,448.07754 C274.940541,448.07754 397.429264,459.535508 473.224231,455.98658" id="Path" stroke="#DD674F" stroke-width="1.13139832"></path>
            <line x1="301.050513" y1="473.122833" x2="301.050513" y2="202.998695" id="Path" stroke="#DD674F" stroke-width="1.13139832"></line>
            <line x1="333.142964" y1="473.122833" x2="333.142964" y2="202.998695" id="Path" stroke="#DD674F" stroke-width="1.13139832"></line>
            <line x1="404.273625" y1="473.122833" x2="404.273625" y2="202.998695" id="Path" stroke="#DD674F" stroke-width="1.13139832"></line>
            <line x1="450.815284" y1="473.122833" x2="450.815284" y2="216.079031" id="Path" stroke="#DD674F" stroke-width="1.13139832"></line>
            <path d="M60.6359739,540.755266 C60.6359739,540.755266 98.9136999,535.482572 106.721342,491.678658" id="Path" stroke="#65868F" stroke-width="1.77446412"></path>
            <line x1="167.965704" y1="617.006524" x2="167.408015" y2="498.928611" id="Path" stroke="#65868F" stroke-width="1.77446412"></line>
            <path d="M272.101398,485.696179 C273.064678,488.586021 372.941659,504.4548 492.033551,488.940913 L493.199627,617.057223 C493.199627,617.057223 381.611184,617.057223 273.774464,617.057223 L272.101398,485.696179 Z" id="Path" fill="#CED2D6" fill-rule="nonzero"></path>
            <line x1="330.35452" y1="185.558248" x2="338.212861" y2="185.051258" id="Path" stroke="#212121" stroke-width="1.33733756" fill="#FFFFFF" fill-rule="nonzero"></line>
            <line x1="385.413607" y1="187.839702" x2="396.972973" y2="187.484809" id="Path" stroke="#212121" stroke-width="1.33733756" fill="#FFFFFF" fill-rule="nonzero"></line>
            <polygon id="Path" fill="#9FA6AE" fill-rule="nonzero" points="317.933271 501.767754 311.595899 501.767754 311.595899 201.427027 317.933271 199.906058"></polygon>
            <polygon id="Path" fill="#9FA6AE" fill-rule="nonzero" points="286.652004 501.767754 280.314632 501.767754 280.314632 206.446226 286.652004 205.381547"></polygon>
            <rect id="Rectangle" fill="#9FA6AE" fill-rule="nonzero" x="342.826468" y="199.906058" width="6.38807083" height="301.861696"></rect>
            <rect id="Rectangle" fill="#9FA6AE" fill-rule="nonzero" x="382.27027" y="199.906058" width="6.38807083" height="301.861696"></rect>
            <polygon id="Path" fill="#9FA6AE" fill-rule="nonzero" points="434.186021 501.767754 427.79795 501.767754 427.79795 208.474185 434.186021 210.502144"></polygon>
            <polygon id="Path" fill="#9FA6AE" fill-rule="nonzero" points="473.78192 501.767754 467.444548 501.767754 467.444548 221.706617 473.78192 224.342964"></polygon>
            <path d="M316.00671,134.098788 C316.00671,134.098788 313.877353,106.974837 313.573159,98.5588071 L323.662255,96.4294501 L316.00671,134.098788 Z" id="Path" fill="#5D4037" fill-rule="nonzero"></path>
            <path d="M218.005592,217.245107 C218.005592,217.245107 307.489282,200.615843 338.212861,198.131594" id="Path" stroke="#212121" stroke-width="1.52096925"></path>
            <path d="M460.295993,219.425163 C460.295993,219.425163 408.633737,200.666542 387.441566,198.080895" id="Path" stroke="#212121" stroke-width="1.33733756"></path>
            <polyline id="Path" stroke="#212121" stroke-width="1.52096925" points="365.184716 478.547623 357.377074 242.695993 353.828145 226.218826"></polyline>
            <ellipse id="Oval" stroke="#212121" stroke-width="0.944369804" cx="166.394035" cy="267.994781" rx="3.24473439" ry="3.34613234"></ellipse>
            <ellipse id="Oval" stroke="#212121" stroke-width="0.944369804" cx="366.401491" cy="267.994781" rx="3.24473439" ry="3.34613234"></ellipse>
            <ellipse id="Oval" stroke="#212121" stroke-width="0.944369804" cx="366.401491" cy="338.871948" rx="3.24473439" ry="3.34613234"></ellipse>
            <ellipse id="Oval" stroke="#212121" stroke-width="0.944369804" cx="373.702144" cy="421.105685" rx="3.24473439" ry="3.34613234"></ellipse>
            <ellipse id="Oval" stroke="#212121" stroke-width="0.944369804" cx="166.394035" cy="342.21808" rx="3.24473439" ry="3.34613234"></ellipse>
            <ellipse id="Oval" stroke="#212121" stroke-width="0.944369804" cx="166.394035" cy="406.352283" rx="3.24473439" ry="3.34613234"></ellipse>
            <ellipse id="Oval" stroke="#212121" stroke-width="0.944369804" cx="169.63877" cy="476.468966" rx="3.24473439" ry="3.34613234"></ellipse>
            <path d="M119.70028,103.223113 C117.976514,104.186393 111.79124,158.383597 119.396086,172.224418 C126.544641,185.254054 136.380242,188.39739 136.126747,196.610624 C135.619758,212.327307 136.532339,219.171668 136.532339,219.171668 C136.532339,219.171668 136.735135,231.085927 158.434296,229.007269 C158.434296,229.007269 177.649208,228.753774 188.853681,210.299348 L192.554706,142.514818 L196.610624,95.0098788 C196.610624,94.9084809 159.448276,81.7267474 119.70028,103.223113 Z" id="Path" fill="#FFCAB2" fill-rule="nonzero"></path>
            <path d="M143.275303,159.75247 C143.275303,159.75247 148.598695,159.498975 152.249021,154.682572" id="Path" stroke="#212121" stroke-width="1.41145946" stroke-linecap="round"></path>
            <ellipse id="Oval" fill="#282828" fill-rule="nonzero" cx="129.383784" cy="133.5411" rx="2.23075489" ry="2.33215284"></ellipse>
            <ellipse id="Oval" fill="#282828" fill-rule="nonzero" cx="160.411556" cy="133.5411" rx="2.23075489" ry="2.33215284"></ellipse>
            <path d="M123.705499,128.5726 C123.705499,128.5726 129.383784,123.958993 135.062069,127.761417" id="Path" stroke="#5D4037" stroke-width="3.39419497" stroke-linecap="round"></path>
            <path d="M155.392358,127.60932 C155.392358,127.60932 161.679031,123.958993 166.748928,128.623299" id="Path" stroke="#5D4037" stroke-width="3.39419497" stroke-linecap="round"></path>
            <path d="M144.745573,134.048089 C144.745573,134.048089 143.4274,143.985089 141.399441,147.787512 C139.320783,151.589935 143.985089,151.589935 146.165144,151.032246" id="Path" stroke="#282828" stroke-width="1.49298341" stroke-linecap="round"></path>
            <path d="M320.011929,97.3927307 C318.136067,97.8997204 312.102889,150.271761 319.707735,163.605592 C326.856291,176.07754 336.691892,179.119478 336.438397,186.977819 C335.931407,202.086114 336.843989,208.626281 336.843989,208.626281 C336.843989,208.626281 337.046785,220.08425 358.745946,218.056291 C358.745946,218.056291 377.960857,217.802796 389.165331,200.108854 L392.866356,135.062069 L388.556943,78.5324757 C388.607642,78.482013 358.644548,86.593849 320.011929,97.3927307 Z" id="Path" fill="#FFCAB2" fill-rule="nonzero"></path>
            <path d="M70.3194781,475.302889 C62.359739,471.855359 60.5852749,452.99534 60.5852749,452.99534" id="Path" stroke="#212121" stroke-width="1.33733756"></path>
            <path d="M272.405592,492.59124 L267.589189,239.552656 L267.53849,236.105126 C267.53849,236.105126 212.17521,213.290587 191.794222,210.704939" id="Path" stroke="#212121" stroke-width="1.30985871"></path>
            <path d="M374.665424,82.537931 C374.665424,82.537931 380.698602,112.146132 385.819199,122.590121 L394.843616,122.590121 C394.843616,122.590121 395.249208,100.586766 396.009692,91.8665424 C396.060391,91.2074557 398.139049,71.8911463 386.833178,68.7985089 C386.833178,68.7985089 376.946878,65.4016775 371.015098,68.7985089 L374.665424,82.537931 Z" id="Path" fill="#5D4037" fill-rule="nonzero"></path>
            <path d="M330.303821,99.0657968 C330.303821,99.0657968 365.793103,87.6585275 372.333271,77.4173346 L378.467847,76.9103448 C378.467847,76.9610438 369.89972,97.7983225 330.303821,99.0657968 Z" id="Path" fill="#5D4037" fill-rule="nonzero"></path>
            <polygon id="Path" stroke="#212121" stroke-width="1.33733756" fill="#FFFFFF" fill-rule="nonzero" stroke-linejoin="round" points="359.810624 226.218826 378.518546 242.695993 407.467661 203.201491 396.972973 187.484809"></polygon>
            <polygon id="Path" stroke="#212121" stroke-width="1.33733756" fill="#FFFFFF" fill-rule="nonzero" stroke-linecap="round" stroke-linejoin="round" points="353.828145 226.218826 335.120224 242.695993 317.933271 199.906058 330.35452 185.558248"></polygon>
            <line x1="357.377074" y1="242.695993" x2="359.810624" y2="226.218826" id="Path" stroke="#212121" stroke-width="1.33733756"></line>
            <line x1="192.047717" y1="200.514445" x2="197.371109" y2="200.362349" id="Path" stroke="#212121" stroke-width="1.33733756" fill="#FFFFFF" fill-rule="nonzero"></line>
            <polyline id="Path" stroke="#212121" stroke-width="1.33733756" points="165.582852 491.374464 157.825909 255.573532 154.27698 239.096365"></polyline>
            <polygon id="Path" stroke="#212121" stroke-width="1.33733756" fill="#FFFFFF" fill-rule="nonzero" stroke-linejoin="round" points="160.20876 239.096365 178.967381 255.573532 207.865797 216.079031 197.371109 200.362349"></polygon>
            <polygon id="Path" stroke="#212121" stroke-width="1.33733756" fill="#FFFFFF" fill-rule="nonzero" stroke-linecap="round" stroke-linejoin="round" points="154.27698 239.096365 135.51836 255.573532 118.382106 212.783597 130.803355 198.385089"></polygon>
            <line x1="157.825909" y1="255.573532" x2="160.20876" y2="239.096365" id="Path" stroke="#212121" stroke-width="1.33733756"></line>
            <path d="M148.3452,194.075676 C145.201864,193.315191 138.256104,191.236533 132.932712,188.802982 C134.960671,191.236533 136.278844,193.568686 136.177446,196.610624 C136.126747,198.182293 136.076048,199.652563 136.076048,201.072134 C140.740354,201.376328 145.759553,201.27493 148.3452,199.906058 C153.972787,196.965517 149.764772,194.430568 148.3452,194.075676 Z" id="Path" fill="#EEBAA6" fill-rule="nonzero"></path>
            <path d="M363.359553,185.051258 C356.768686,185.051258 332.433178,177.142218 332.433178,177.142218 L332.433178,178.561789 C334.917428,181.198136 336.590494,183.682386 336.489096,186.977819 C336.438397,188.802982 336.387698,190.526747 336.387698,192.149115 C342.471575,192.706803 353.980242,193.467288 358.898043,191.743523 C369.696925,187.839702 363.359553,185.051258 363.359553,185.051258 Z" id="Path" fill="#EEBAA6" fill-rule="nonzero"></path>
            <polygon id="Path" stroke="#212121" stroke-width="1.33733756" fill="#FFFFFF" fill-rule="nonzero" points="72.600932 284.319851 141.805033 285.232432 144.339981 359.303635 73.6149115 359.303635"></polygon>
            <polygon id="Path" stroke="#212121" stroke-width="1.33733756" fill="#FFFFFF" fill-rule="nonzero" points="186.42013 289.136253 255.522833 290.758621 255.827027 359.303635 187.332712 359.303635"></polygon>
            <polygon id="Path" stroke="#212121" stroke-width="1.33733756" fill="#FFFFFF" fill-rule="nonzero" points="392.055172 284.319851 461.259273 285.232432 461.512768 359.303635 393.069152 359.303635"></polygon>
            <line x1="72.8544268" y1="303.585461" x2="142.514818" y2="305.765517" id="Path" stroke="#212121" stroke-width="1.33733756"></line>
            <line x1="186.318733" y1="307.945573" x2="255.624231" y2="309.872134" id="Path" stroke="#212121" stroke-width="1.33733756"></line>
            <path d="M392.308667,316.260205 C392.308667,316.260205 444.782106,317.98397 461.360671,317.679776" id="Path" stroke="#DD674F" stroke-width="1.13139832"></path>
            <path d="M392.308667,342.21808 C392.308667,342.21808 444.782106,343.941845 461.360671,343.637651" id="Path" stroke="#DD674F" stroke-width="1.13139832"></path>
            <path d="M156.76123,274.48425 C155.088164,256.435415 118.432805,206.598322 118.432805,206.598322 L55.8702703,233.722274 C55.8702703,233.722274 54.9576887,455.023299 56.2251631,466.988257 C57.9996272,484.428705 60.7373719,506.482759 60.7373719,506.482759 C60.7373719,506.482759 103.730103,507.040447 167.813607,508.713514" id="Path" fill="#5C9996" fill-rule="nonzero"></path>
            <path d="M270.732526,236.054427 L209.995154,210.299348 C209.995154,210.299348 161.172041,256.993103 156.76123,274.48425 C152.350419,291.975396 170.855545,508.662815 170.855545,508.662815 L264.952842,508.662815 C264.952842,508.662815 271.087418,514.036906 275.650326,503.085927 C280.213234,492.134949 270.732526,236.054427 270.732526,236.054427 Z" id="Path" fill="#5C9996" fill-rule="nonzero"></path>
            <g id="Group" transform="translate(191.642125, 305.714818)" fill="#FFFFFF">
                <path d="M20.5837838,8.31463187 C20.8372787,8.11183597 20.8879776,7.80764212 21.0400746,7.50344828 C21.2428705,7.14855545 21.3949674,6.8443616 21.5977633,6.48946878 C21.8005592,6.13457596 22.155452,5.62758621 22.4596459,5.22199441 C23.1187325,4.25871389 23.7778192,3.29543336 24.4876048,2.38285182 C24.6904007,2.23075489 25.0452936,2.58564772 25.1973905,2.78844362 C25.5015843,2.88984157 25.7043802,3.04193849 25.9071761,3.29543336 C25.9578751,3.54892824 25.7043802,3.44753029 25.6029823,3.54892824 C25.5015843,3.65032619 25.5015843,3.80242311 25.4508854,3.85312209 C25.2987884,4.00521901 25.1466915,4.15731594 24.9945946,4.30941286 C24.9438956,4.36011184 24.9945946,4.46150979 24.8931966,4.56290774 C24.7917987,4.71500466 24.5383038,4.96849953 24.3355079,5.17129543 C24.23411,5.32339236 24.132712,5.47548928 24.0313141,5.62758621 C24.0313141,5.67828518 23.9806151,5.72898416 23.9299161,5.77968313 C23.3215284,6.74296365 22.4596459,7.95973905 22.155452,9.32861137 C22.0540541,9.88630009 22.0033551,10.4946878 21.9019571,11.0523765 C21.6991612,12.117055 21.4963653,13.2324324 21.3949674,14.3985089 C21.8005592,14.7027027 22.4089469,14.5506058 23.0173346,14.6520037 C23.3215284,14.7027027 23.6764212,14.8041007 24.0313141,14.9054986 C24.6397018,15.0575955 25.2987884,15.2096925 25.8564772,15.4631873 C26.6169618,15.7673812 27.4788444,16.2236719 28.137931,16.7306617 C28.3914259,16.9334576 28.5942218,17.1362535 28.8477167,17.2883504 C29.0505126,17.4911463 29.3547064,17.5418453 29.4561044,17.8460391 C29.8616962,17.9474371 29.9630941,18.3023299 30.216589,18.6572227 C30.3686859,18.8093197 30.5207829,18.9614166 30.6728798,19.1135135 C30.8249767,19.2656104 30.9263747,19.5191053 31.0784716,19.6712022 C31.1798695,19.7726002 31.2305685,19.8232992 31.3319664,19.9246971 C31.3826654,19.9753961 31.4333644,20.076794 31.4840634,20.178192 C31.7882572,20.5330848 32.14315,20.7865797 32.3966449,21.1414725 C32.4473439,21.2428705 32.4980429,21.3442684 32.5487418,21.4456664 C32.6501398,21.5977633 32.8022367,21.7498602 32.9543336,22.0033551 C33.1571295,22.3075489 33.2585275,22.9159366 33.4106244,23.4229264 C33.6641193,24.23411 33.9176142,25.0959925 33.9176142,26.3127679 C34.221808,26.3127679 34.5260019,26.21137 34.8301957,26.160671 C35.8441752,26.0592731 37.0102516,26.21137 37.8214352,25.8564772 C38.277726,25.6536813 38.8354147,25.0452936 39.1903075,24.6904007 C39.3931034,24.4876048 39.5958993,24.2848089 39.7986952,24.082013 C39.9507922,23.9299161 40.1535881,23.4229264 40.5084809,23.6764212 C40.5084809,24.3355079 39.9000932,24.5383038 39.5958993,24.8424977 C39.2410065,25.1973905 38.9875116,25.6536813 38.5312209,25.8564772 C38.6326188,26.160671 38.9875116,25.9578751 39.2410065,25.9578751 C39.4945014,25.9578751 39.7479963,25.9071761 40.0014911,25.9071761 C40.5084809,25.8564772 41.0661696,25.5522833 41.3703635,25.9071761 C41.4717614,26.4141659 40.9647717,26.21137 40.6605778,26.3127679 C40.1535881,26.4141659 39.3931034,26.4648649 38.7340168,26.5155638 C38.5819199,26.8704567 38.5819199,27.2760485 38.6326188,27.7323392 C38.7847158,27.8844362 39.0889096,27.9858341 39.3424045,28.0365331 C39.4438024,28.18863 39.6465983,28.290028 39.7986952,28.4421249 C39.9507922,28.5435228 40.0521901,28.6449208 40.204287,28.7463187 C40.4070829,28.9491146 41.2689655,28.9998136 40.9647717,29.6082013 C40.5084809,29.7095993 40.1535881,29.3040075 39.7986952,29.0505126 C39.4438024,28.7463187 39.1396086,28.4421249 38.7340168,28.239329 C38.379124,28.3914259 37.9228332,28.4421249 37.5172414,28.4928239 C36.8581547,28.5435228 35.9962721,28.7463187 35.2864865,28.6956198 C35.2357875,28.6956198 35.1850885,28.5942218 35.0329916,28.5942218 C34.6780988,28.5942218 34.171109,28.8984157 34.0190121,28.4421249 C33.9176142,28.0872321 34.272507,28.239329 34.4246039,28.18863 C35.4892824,27.9351351 37.1116496,28.0365331 38.1763281,27.8337372 C38.328425,27.5295433 38.0749301,27.1239515 38.1763281,26.6169618 C38.0242311,26.4141659 37.9228332,26.6169618 37.7200373,26.6169618 C37.5679404,26.6169618 37.4158434,26.4648649 37.2637465,26.4648649 C36.7567568,26.4648649 35.9455732,26.6676608 35.2864865,26.6676608 C34.8301957,26.6676608 34.3739049,26.6676608 33.9683131,26.6676608 C33.9683131,26.8197577 33.9683131,27.2253495 33.9683131,27.5295433 C33.9176142,28.8477167 33.6641193,30.16589 33.4106244,31.4333644 C33.3599254,31.6361603 33.3092265,31.7882572 33.2585275,31.9910531 C33.2078285,32.193849 33.2585275,32.4473439 33.1571295,32.6501398 C33.1064306,32.8022367 32.9543336,33.0050326 32.8529357,33.2078285 C32.7515377,33.4106244 32.7008388,33.6641193 32.5994408,33.8669152 C32.5994408,33.9176142 32.4473439,33.9176142 32.4473439,33.9683131 C32.3966449,34.0190121 32.4980429,34.1204101 32.4473439,34.221808 C32.4473439,34.272507 32.295247,34.272507 32.295247,34.323206 C32.295247,34.3739049 32.295247,34.4246039 32.295247,34.4753029 C32.14315,34.7794967 31.9403541,35.1850885 31.6868593,35.4892824 C31.6361603,35.5399814 31.5854613,35.4892824 31.5347623,35.5906803 C31.4840634,35.6413793 31.4840634,35.6920783 31.4333644,35.7427773 C31.3826654,35.8441752 31.3319664,35.8948742 31.2812675,35.9962721 C31.2305685,36.0469711 31.0784716,36.1483691 31.0277726,36.249767 C30.9770736,36.300466 31.0784716,36.4525629 31.0277726,36.5032619 C31.0277726,36.5032619 30.8756757,36.4525629 30.8756757,36.5032619 C30.8249767,36.6046598 30.8756757,36.6046598 30.7742777,36.6553588 C30.7235788,36.7060578 30.6728798,36.8581547 30.6221808,37.0609506 C30.0137931,37.5172414 29.6589003,38.0242311 29.0505126,38.5819199 C28.8984157,38.7340168 28.7463187,38.9368127 28.5942218,39.0382106 C28.239329,39.3424045 27.7830382,39.4945014 27.3774464,39.7479963 C26.9718546,40.0014911 26.5662628,40.254986 26.0592731,40.356384 C26.3634669,41.6745573 25.9578751,43.5504194 26.160671,45.2234856 C27.6309413,45.0713886 28.9998136,45.6290774 28.137931,46.8458527 C27.7323392,47.4542404 26.9211556,47.5049394 25.6029823,47.5556384 C24.8424977,47.6063374 24.183411,47.5556384 23.5243243,47.4542404 C23.0173346,47.3528425 22.8652377,47.3528425 22.5103448,47.1500466 C22.206151,46.9472507 21.8005592,46.5923579 21.9019571,46.0346692 C21.9526561,45.8318733 22.0033551,45.8825722 22.0540541,45.7811743 C22.0540541,45.7304753 22.104753,45.5783784 22.155452,45.5276794 C22.3582479,45.3248835 22.7638397,45.2741845 23.1694315,45.2234856 C23.3215284,43.9053122 23.4736253,42.5871389 23.4229264,41.1168686 C22.206151,41.3196645 21.1414725,41.2689655 19.8232992,41.2689655 C19.8739981,42.9927307 19.5698043,44.361603 19.5698043,45.8825722 C19.7726002,46.4909599 20.178192,46.7444548 19.8739981,47.3021435 C19.8739981,47.3528425 19.7219012,47.3528425 19.7219012,47.4035415 C19.6205033,47.6063374 19.5698043,47.6063374 19.1642125,47.7077353 C17.9981361,48.0626281 16.2743709,47.8598322 14.9561976,47.6570363 C14.5506058,47.6063374 14.094315,47.6063374 13.7901212,47.5049394 C13.2324324,47.2514445 12.9789376,46.5923579 13.4859273,46.1360671 C14.094315,45.6290774 15.5645853,45.4769804 16.6292637,45.8318733 C16.5785648,45.0206897 16.7813607,44.2095061 16.8827586,43.3476235 C16.9841566,42.4857409 16.9334576,41.6745573 16.9841566,40.8633737 C16.3250699,40.7619758 15.7166822,40.5591799 15.1589935,40.305685 C14.9054986,40.204287 14.6520037,40.0014911 14.3985089,39.9000932 C14.094315,39.7479963 13.7901212,39.7479963 13.5366263,39.5958993 C12.9789376,39.2410065 12.5733458,38.5312209 11.7621622,38.328425 C11.6607642,38.277726 11.6100652,37.9735322 11.4579683,37.9228332 C11.3058714,37.8721342 11.1030755,37.6693383 11.0016775,37.5172414 C10.9509786,37.4665424 10.9509786,37.3651445 10.9509786,37.2637465 C10.7988816,37.0609506 10.5453868,36.8074557 10.3425909,36.5539609 C10.2918919,36.5032619 10.2918919,36.4018639 10.2918919,36.300466 C10.089096,36.0469711 9.83560112,35.8441752 9.68350419,35.5906803 C8.82162162,34.323206 8.41602982,32.5487418 7.80764212,30.8756757 C6.48946878,30.8249767 4.91780056,30.9770736 3.75172414,30.7742777 C3.49822926,30.9263747 3.34613234,31.2305685 3.14333644,31.4840634 C2.94054054,31.7375582 2.48424977,32.4473439 1.97726002,32.295247 C1.72376514,31.7882572 2.18005592,31.7375582 2.43355079,31.4840634 C2.68704567,31.2305685 2.99123952,30.8249767 3.29543336,30.4700839 C3.44753029,30.267288 3.80242311,30.16589 3.70102516,29.8616962 C3.54892824,29.5575023 2.99123952,29.7095993 2.48424977,29.7095993 C1.97726002,29.7095993 1.4195713,29.7602982 1.0139795,29.7095993 C0.811183597,29.6589003 0.405591799,29.6589003 0.405591799,29.4054054 C0.506989748,29.0505126 1.06467847,29.2026095 1.57166822,29.1519105 C2.33215284,29.1519105 2.99123952,29.1519105 3.65032619,29.1012116 C3.65032619,28.7970177 3.24473439,28.6449208 3.04193849,28.5435228 C2.83914259,28.4421249 2.48424977,28.3407269 2.28145387,28.239329 C2.18005592,28.18863 2.07865797,27.9858341 1.97726002,27.9351351 C1.62236719,27.6816403 1.2167754,27.8337372 1.26747437,27.2760485 C1.31817335,26.9211556 1.82516309,27.2253495 1.97726002,27.2760485 C2.18005592,27.3774464 2.33215284,27.5802423 2.53494874,27.6816403 C2.99123952,27.9351351 3.44753029,28.0365331 3.75172414,28.3407269 C4.96849953,28.18863 6.38807083,28.18863 7.6555452,28.137931 C7.70624418,27.1239515 7.6555452,26.160671 7.80764212,25.0959925 C7.8583411,24.8931966 7.90904007,24.7410997 7.95973905,24.5383038 C8.16253495,23.7271202 8.36533085,23.0173346 8.6695247,22.3075489 C8.72022367,22.206151 8.77092265,22.0033551 8.82162162,21.9019571 C8.8723206,21.8005592 8.97371855,21.6991612 9.0751165,21.5977633 C9.22721342,21.3442684 9.32861137,21.0907735 9.48070829,20.8879776 C9.93699907,20.228891 10.3932898,19.6205033 10.9002796,19.0121156 C11.0016775,18.8600186 11.1537745,18.7586207 11.3058714,18.5558248 C11.4579683,18.3023299 11.8635601,17.9981361 12.167754,17.7446412 C12.4212488,17.5418453 12.6747437,17.3897484 12.9282386,17.1869525 C13.0296365,17.1362535 13.0296365,17.0855545 13.1817335,17.0348555 C13.3338304,16.9841566 13.5366263,16.7813607 13.7394222,16.6292637 C13.9422181,16.5278658 14.145014,16.3757689 14.3478099,16.2236719 C14.3985089,16.172973 14.4999068,16.172973 14.6013048,16.122274 C14.8041007,15.9701771 15.0068966,15.6152842 15.2096925,15.5138863 C15.3110904,15.4631873 15.6152842,15.4124884 15.8180801,15.3617894 C16.020876,15.3110904 16.2236719,15.2603914 16.4264678,15.2096925 C16.6292637,15.1589935 16.8320596,15.1082945 17.0348555,15.0575955 C17.2376514,15.0068966 17.3390494,14.8547996 17.4911463,14.8041007 C18.099534,14.6520037 18.8093197,14.7027027 19.4177074,14.6520037 C19.6712022,12.9282386 19.9753961,11.2044734 20.3809879,9.63280522 C19.1642125,9.32861137 18.200932,8.72022367 17.2376514,8.11183597 C16.7813607,7.80764212 16.2743709,7.50344828 15.8687791,7.14855545 C15.4124884,6.79366263 15.0575955,6.38807083 14.6520037,6.03317801 C14.5506058,5.93178006 14.3985089,5.88108108 14.2464119,5.77968313 C14.195713,5.72898416 14.094315,5.52618826 13.9929171,5.47548928 C13.4859273,4.91780056 12.9282386,4.20801491 12.3705499,3.54892824 C12.015657,3.14333644 11.7114632,2.68704567 11.3565704,2.18005592 C11.2044734,1.97726002 11.0523765,1.72376514 10.9002796,1.47027027 C10.8495806,1.36887232 10.9002796,1.31817335 10.8495806,1.2167754 C10.7988816,1.16607642 10.5453868,0.963280522 10.6467847,0.659086673 C10.7988816,0.659086673 10.7988816,0.456290774 10.9509786,0.405591799 C11.2551724,0.608387698 11.5086673,0.405591799 11.8635601,0.506989748 C12.3198509,0.608387698 12.8268406,0.912581547 13.3338304,1.16607642 C13.5873253,1.26747437 13.8915191,1.36887232 14.094315,1.47027027 C14.7027027,1.82516309 15.3617894,2.33215284 15.9194781,2.73774464 C16.122274,2.88984157 16.3250699,3.04193849 16.5278658,3.19403541 C16.6799627,3.34613234 16.7306617,3.44753029 16.9334576,3.59962721 C17.2376514,3.90382106 17.7953402,4.36011184 18.150233,4.71500466 C18.9614166,5.62758621 20.0260951,6.89506058 20.5837838,8.31463187 Z M13.1817335,3.59962721 C13.6887232,4.25871389 14.3478099,4.96849953 14.8547996,5.52618826 C15.1082945,5.77968313 15.1589935,5.83038211 15.4124884,5.98247903 C15.7166822,6.2359739 15.9701771,6.48946878 16.2743709,6.69226468 C16.4264678,6.8443616 16.5785648,6.94575955 16.6799627,6.99645853 C16.7306617,7.0471575 16.8320596,7.0471575 16.9334576,7.09785648 C17.0855545,7.19925443 17.2376514,7.35135135 17.3390494,7.40205033 C17.3897484,7.4527493 17.4404473,7.50344828 17.4911463,7.55414725 C17.6939422,7.6555452 17.9981361,7.75694315 18.200932,7.8583411 C18.4037279,8.01043802 18.6065238,8.16253495 18.8093197,8.2639329 C19.2149115,8.4667288 19.7726002,8.82162162 20.2795899,8.77092265 C19.5191053,6.69226468 17.8967381,5.22199441 16.4771668,3.90382106 C16.2743709,3.70102516 16.122274,3.54892824 15.9194781,3.44753029 C15.8180801,3.34613234 15.7166822,3.29543336 15.6152842,3.19403541 C15.4124884,3.04193849 15.2603914,2.83914259 15.0575955,2.73774464 C14.8547996,2.58564772 14.6013048,2.48424977 14.3478099,2.33215284 C13.4859273,1.77446412 12.6240447,1.2167754 11.6100652,0.963280522 C11.5086673,0.963280522 11.5086673,0.912581547 11.4579683,0.861882572 C11.8128611,1.87586207 12.4719478,2.68704567 13.1817335,3.59962721 Z M24.7410997,2.94054054 C24.6397018,3.24473439 24.3862069,3.39683131 24.183411,3.65032619 C24.132712,3.70102516 24.082013,3.90382106 24.0313141,3.95452004 C23.9299161,4.05591799 23.8792171,4.15731594 23.7778192,4.25871389 C22.3582479,6.2359739 20.9893756,8.2639329 20.3302889,10.9002796 C20.178192,11.4579683 20.127493,12.015657 20.0260951,12.6240447 C19.9246971,13.1817335 19.8232992,13.7901212 19.7726002,14.4492078 C20.178192,14.2971109 20.3809879,14.6013048 20.8372787,14.3985089 C20.7865797,14.145014 20.8372787,13.8915191 20.8372787,13.6887232 C20.8879776,13.3845294 20.8879776,13.1310345 20.9386766,12.8268406 C20.9893756,12.3198509 21.1414725,11.8128611 21.2428705,11.3058714 C21.3442684,10.7481827 21.3949674,10.2411929 21.4963653,9.73420317 C21.5977633,9.22721342 21.6991612,8.72022367 21.9019571,8.21323392 C22.5610438,6.38807083 23.8285182,5.06989748 24.6904007,3.59962721 C24.8424977,3.49822926 25.1466915,3.24473439 24.9945946,3.04193849 C24.7917987,3.19403541 24.8931966,2.94054054 24.7410997,2.94054054 Z M28.137931,17.3897484 C27.9351351,17.2376514 27.6309413,16.9841566 27.4281454,16.8827586 C27.3774464,16.8827586 27.3774464,16.7306617 27.3774464,16.7306617 C27.0732526,16.5278658 26.5662628,16.3250699 26.21137,16.2236719 C26.160671,16.2236719 26.109972,16.071575 26.0592731,16.071575 C24.6397018,15.4631873 22.7638397,15.1082945 21.0400746,15.0068966 C20.5330848,14.9561976 19.9246971,14.9561976 19.4177074,15.0068966 C19.0121156,15.0575955 18.4037279,15.0068966 17.9474371,15.0575955 C17.5925443,15.1082945 17.1869525,15.2603914 16.7813607,15.3617894 C16.3250699,15.4631873 15.8687791,15.5138863 15.5645853,15.6659832 C15.2096925,15.8180801 14.9054986,16.071575 14.5506058,16.2743709 C14.4492078,16.3250699 14.3478099,16.2743709 14.2464119,16.3757689 C14.145014,16.4264678 14.094315,16.5785648 13.9929171,16.6292637 C13.7901212,16.7306617 13.6380242,16.8320596 13.4352283,16.9334576 C13.0803355,17.1869525 12.6747437,17.4911463 12.3705499,17.6432432 C12.3705499,17.6432432 12.3198509,17.7953402 12.2691519,17.7953402 C11.9649581,18.048835 11.8128611,18.200932 11.5593663,18.4037279 C10.9509786,19.0121156 10.3425909,19.6205033 9.98769804,20.3809879 C9.98769804,20.4316869 9.83560112,20.4316869 9.83560112,20.4823858 C9.83560112,20.5330848 9.83560112,20.5837838 9.83560112,20.6344828 C9.83560112,20.6344828 9.68350419,20.6851817 9.68350419,20.7358807 C9.68350419,20.7865797 9.68350419,20.8372787 9.68350419,20.8879776 C9.68350419,20.8879776 9.53140727,20.9386766 9.53140727,20.9893756 C9.17651445,21.4963653 9.02441752,21.9526561 8.77092265,22.4089469 C10.2918919,22.3582479 12.015657,22.5103448 13.3845294,22.3582479 C13.7394222,22.104753 13.8408201,21.5977633 14.145014,21.1921715 C14.4492078,20.8372787 15.0575955,20.4316869 15.5138863,20.178192 C16.4264678,19.7219012 18.048835,20.0260951 18.4544268,20.6851817 C18.5051258,20.7358807 18.5558248,20.7865797 18.6065238,20.8372787 C18.8093197,21.1414725 18.8093197,21.4456664 18.9107176,21.6991612 C18.9614166,21.8005592 18.9107176,22.104753 19.1135135,22.104753 C19.9753961,22.25685 20.9386766,22.206151 21.8005592,22.3582479 C21.9019571,21.9526561 22.0540541,21.5470643 22.25685,21.2428705 C23.5243243,19.6712022 26.7690587,20.228891 27.1746505,22.155452 C27.3267474,22.25685 27.4788444,22.0540541 27.5802423,22.0033551 C28.137931,21.4963653 28.7463187,20.8372787 29.2026095,20.3302889 C29.2533085,20.2795899 29.3040075,20.178192 29.3547064,20.076794 C29.4054054,20.0260951 29.5575023,20.0260951 29.6082013,19.9753961 C29.6082013,19.9753961 29.6082013,19.8739981 29.6082013,19.8232992 C29.7095993,19.6205033 30.1151911,19.5698043 30.0644921,19.2656104 C29.6589003,18.5558248 28.8477167,17.8967381 28.137931,17.3897484 Z M7.90904007,26.7690587 C7.90904007,27.7323392 7.90904007,28.9491146 7.95973905,29.9630941 C8.01043802,30.4700839 8.16253495,30.7742777 8.2639329,31.0784716 C8.31463187,31.2812675 8.36533085,31.4333644 8.41602982,31.6361603 C8.4667288,31.7882572 8.56812675,31.9403541 8.61882572,32.0924511 C8.82162162,32.6501398 8.92301957,33.2078285 9.12581547,33.7655172 C9.22721342,34.1204101 9.43000932,34.5260019 9.58210624,34.7794967 C9.63280522,34.8808947 9.78490214,34.9822926 9.88630009,35.0836906 C9.93699907,35.1343896 9.93699907,35.2357875 9.93699907,35.3371855 C9.98769804,35.3878844 10.038397,35.4385834 10.089096,35.4892824 C10.4439888,35.9962721 10.7988816,36.5032619 11.1537745,36.9088537 C11.2044734,36.9595527 11.1537745,37.1116496 11.2044734,37.1623486 C11.3565704,37.3651445 11.6607642,37.3651445 11.6607642,37.6186393 C12.3198509,37.9228332 12.6747437,38.328425 13.1310345,38.6833178 C13.2831314,38.8354147 13.4859273,38.8861137 13.6887232,38.9875116 C14.9561976,39.7479963 16.3250699,40.254986 17.8460391,40.4577819 C21.4963653,40.9140727 24.9438956,40.5591799 27.3267474,39.1903075 C27.8844362,38.8861137 28.4421249,38.4805219 28.9491146,38.0242311 C29.4561044,37.5679404 30.1151911,36.8581547 30.4193849,36.351165 C30.4700839,36.249767 30.6221808,36.0469711 30.6728798,36.0469711 C30.7235788,35.9962721 30.7742777,35.8948742 30.8249767,35.7934762 C31.0277726,35.5906803 31.2305685,35.2864865 31.2812675,35.0836906 C31.2812675,35.0329916 31.4333644,35.0329916 31.4333644,34.9822926 C31.4333644,34.9315937 31.4333644,34.8808947 31.4333644,34.8301957 C31.4333644,34.7794967 31.5854613,34.7794967 31.5854613,34.7287978 C31.7882572,34.4246039 31.9403541,34.0190121 32.14315,33.7148183 C32.3459459,33.3599254 32.4980429,33.0050326 32.5994408,32.5994408 C32.9036347,31.7882572 33.0050326,30.9263747 33.1571295,29.9630941 C33.3092265,29.0505126 33.4613234,28.0365331 33.4613234,27.1239515 C33.4613234,26.7690587 33.3599254,26.3127679 33.3092265,25.8564772 C33.2585275,25.3494874 33.2585275,24.8424977 33.1571295,24.4369059 C33.1064306,24.132712 32.9036347,23.7271202 32.8022367,23.4229264 C32.7008388,23.0173346 32.6501398,22.6117428 32.4980429,22.3075489 C32.3966449,22.104753 32.193849,21.9526561 32.0417521,21.7498602 C31.6868593,21.2935694 31.4333644,20.9386766 31.1291705,20.5330848 C30.9770736,20.3302889 30.8249767,20.076794 30.5714818,19.9753961 C30.5714818,19.9246971 30.5714818,19.8739981 30.4700839,19.8739981 C30.267288,19.9753961 30.16589,20.178192 30.0644921,20.2795899 C30.0137931,20.3302889 29.9123952,20.3302889 29.8109972,20.3809879 C29.7602982,20.3809879 29.8109972,20.5330848 29.8109972,20.5330848 C29.7602982,20.5837838 29.6589003,20.4823858 29.6589003,20.5330848 C29.6082013,20.5837838 29.5575023,20.6851817 29.5068034,20.7865797 C29.0505126,21.2428705 28.5435228,21.6484623 28.137931,22.0540541 C27.9351351,22.25685 27.7323392,22.5610438 27.4281454,22.6624418 C27.5295433,23.4736253 27.2760485,23.9806151 27.0225536,24.3862069 C26.6169618,25.1466915 25.8564772,25.9578751 25.0959925,26.0592731 C23.6764212,26.262069 22.155452,25.0959925 21.7498602,23.8285182 C21.6991612,23.6764212 21.5977633,23.5243243 21.5977633,23.3722274 C21.5977633,23.1694315 21.6991612,23.0173346 21.5977633,22.8145387 C20.7358807,22.7131407 19.8739981,22.6624418 18.9614166,22.5610438 C18.8600186,22.9666356 18.8093197,23.5750233 18.6572227,23.7271202 C18.6065238,23.7778192 18.6572227,23.7778192 18.5558248,23.8792171 C18.4037279,24.132712 18.200932,24.3355079 17.9981361,24.4876048 C17.6939422,24.8424977 17.4404473,25.1466915 17.1362535,25.2987884 C16.2743709,25.6536813 15.5138863,25.2987884 14.8547996,24.9438956 C14.195713,24.6397018 13.8915191,24.3862069 13.6380242,23.8792171 C13.4352283,23.4736253 13.2831314,23.1187325 13.1817335,22.7638397 C11.6100652,22.8145387 10.3425909,22.8652377 8.61882572,22.7131407 C8.31463187,23.8792171 7.95973905,25.2480895 7.90904007,26.7690587 Z M15.2603914,20.8372787 C15.2603914,20.8372787 15.2096925,20.9893756 15.1589935,20.9893756 C15.0575955,21.0400746 14.9054986,21.0907735 14.8547996,21.1414725 C14.7027027,21.2935694 14.4999068,21.6484623 14.3985089,21.7498602 C14.3478099,21.8005592 14.3985089,21.8512582 14.2971109,21.9019571 C13.9929171,22.3075489 13.6887232,22.7131407 13.8915191,23.2708295 C13.9422181,23.3722274 14.043616,23.4229264 14.145014,23.5243243 C14.2971109,23.7778192 14.3478099,24.0313141 14.5506058,24.183411 C14.8041007,24.3862069 15.1589935,24.5383038 15.5645853,24.6904007 C16.020876,24.8424977 16.4771668,24.9945946 16.8827586,24.9438956 C17.5418453,24.8424977 18.5558248,23.5750233 18.6572227,22.6624418 C18.7586207,21.4456664 18.3023299,20.7865797 17.4404473,20.5837838 C16.9841566,20.4823858 16.3250699,20.4823858 16.071575,20.5837838 C15.7166822,20.6344828 15.5138863,20.7358807 15.2603914,20.8372787 Z M23.3722274,21.1414725 C23.2201305,21.2428705 22.9666356,21.3949674 22.9159366,21.4456664 C22.8652377,21.4963653 22.8652377,21.5977633 22.8145387,21.6991612 C22.7638397,21.7498602 22.6117428,21.8005592 22.5610438,21.8512582 C22.4596459,22.0033551 22.5103448,22.206151 22.4089469,22.5610438 C22.3075489,22.8145387 22.155452,23.0680336 22.155452,23.2708295 C22.155452,23.6257223 22.5103448,23.9806151 22.8652377,24.3862069 C23.3722274,24.9945946 23.6764212,25.2480895 24.3862069,25.4508854 C24.9438956,25.5522833 25.2987884,25.5015843 25.6029823,25.4001864 C25.8057782,25.2987884 25.8564772,25.1973905 26.0085741,25.0959925 C26.109972,24.9945946 26.21137,25.0452936 26.3127679,24.9438956 C26.3127679,24.8931966 26.3127679,24.8424977 26.3127679,24.7917987 C26.3127679,24.7917987 26.4648649,24.7410997 26.4648649,24.6904007 C26.8197577,24.183411 27.1239515,23.6257223 27.0732526,23.0173346 C27.0225536,22.3582479 26.6169618,21.8512582 26.3127679,21.5977633 C26.160671,21.4456664 26.0592731,21.2935694 25.9071761,21.1921715 C25.6536813,20.9893756 24.9945946,20.8879776 24.5383038,20.8879776 C24.4876048,20.8879776 24.3862069,20.9893756 24.3862069,20.9893756 C23.8285182,20.9386766 23.7271202,20.9386766 23.3722274,21.1414725 Z M4.20801491,28.5435228 C4.30941286,28.6956198 4.10661696,28.7463187 4.05591799,28.8477167 C3.85312209,29.3040075 4.00521901,29.8616962 4.05591799,30.267288 C5.12059646,30.16589 6.33737185,30.216589 7.50344828,30.216589 C7.6555452,29.7602982 7.55414725,29.0505126 7.60484623,28.4928239 C6.59086673,28.3407269 5.32339236,28.5942218 4.20801491,28.5435228 Z M25.7550792,40.5591799 C25.7550792,40.5084809 25.7550792,40.4577819 25.6536813,40.4577819 C25.0959925,40.7112768 24.3355079,40.7619758 23.7271202,41.0154706 C23.8792171,41.1675676 23.8792171,41.4210624 23.8792171,41.6745573 C23.9806151,42.8406337 23.6257223,44.1588071 23.6764212,45.4262815 C24.3862069,45.4769804 24.8931966,45.2741845 25.6029823,45.2741845 C25.6029823,43.4997204 25.6536813,42.232246 25.7550792,40.5591799 Z M17.0348555,45.7304753 C17.7446412,45.7304753 18.4037279,45.7304753 19.1135135,45.7304753 C19.1135135,44.0574091 19.4177074,42.7392358 19.4684063,41.1168686 C18.6572227,41.1168686 17.9474371,41.0661696 17.3390494,40.8633737 C17.5418453,42.5364399 17.0855545,44.361603 17.0348555,45.7304753 Z M25.8564772,45.9839702 C25.5522833,45.6290774 25.0959925,45.7811743 24.5383038,45.8318733 C24.23411,45.8825722 23.9299161,45.9332712 23.6257223,45.8825722 C23.3722274,45.8825722 23.2201305,45.6797763 23.0173346,45.7304753 C22.6624418,45.7811743 22.5103448,46.0853681 22.4089469,46.288164 C22.8652377,46.8965517 24.5890028,46.9472507 25.8564772,46.8458527 C26.7183597,46.7951538 27.7830382,46.7444548 27.8844362,46.0853681 C27.4281454,45.7811743 26.4141659,45.8825722 25.8564772,45.9839702 Z M18.4037279,46.2374651 C17.8967381,46.1867661 17.3390494,46.288164 16.8827586,46.2374651 C16.6799627,46.2374651 16.4771668,46.0853681 16.2743709,46.0853681 C15.8180801,46.0346692 15.0575955,45.9839702 14.6520037,46.0853681 C14.2464119,46.1360671 13.7394222,46.389562 13.7394222,46.7951538 C14.195713,46.9979497 15.0068966,47.1500466 15.8180801,47.2007456 C16.6799627,47.2514445 17.7446412,47.3021435 18.5051258,47.2007456 C18.8600186,47.1500466 19.4177074,47.0486486 19.5191053,46.6430568 C19.3163094,46.1360671 18.8600186,46.2374651 18.4037279,46.2374651 Z" id="Shape"></path>
                <path d="M19.5191053,8.4667288 C19.1135135,8.4667288 18.8600186,8.061137 18.6065238,7.80764212 C18.048835,7.2499534 17.4911463,6.69226468 16.8320596,6.13457596 C16.8320596,6.13457596 16.7813607,5.98247903 16.7813607,5.98247903 C16.5785648,5.88108108 16.5278658,5.77968313 16.3250699,5.57688723 C16.020876,5.32339236 15.7673812,5.12059646 15.4631873,4.86710158 C15.1589935,4.56290774 14.8041007,4.30941286 14.4492078,4.00521901 C14.4492078,4.00521901 14.3985089,3.85312209 14.3985089,3.85312209 C14.3478099,3.85312209 14.2971109,3.85312209 14.2464119,3.85312209 C14.195713,3.80242311 14.145014,3.65032619 14.094315,3.59962721 C13.8408201,3.39683131 13.3338304,3.14333644 13.1817335,2.73774464 C13.3338304,2.63634669 13.3338304,2.43355079 13.4859273,2.33215284 C13.5873253,2.33215284 13.6380242,2.33215284 13.6380242,2.43355079 C13.9422181,2.58564772 14.195713,2.94054054 14.4999068,3.14333644 C14.7534017,3.34613234 15.0575955,3.54892824 15.3617894,3.80242311 C15.6152842,4.05591799 15.8687791,4.36011184 16.122274,4.61360671 C17.0855545,5.57688723 18.200932,6.48946878 19.1642125,7.55414725 C19.3670084,7.75694315 19.7726002,8.061137 19.5191053,8.4667288 Z" id="Path"></path>
                <path d="M17.4911463,21.6484623 C17.3897484,22.0540541 17.5418453,22.206151 17.9474371,22.104753 C17.9981361,22.5103448 17.7446412,22.6117428 17.3897484,22.6624418 C17.4404473,22.8145387 17.5925443,22.8145387 17.5418453,23.0680336 C17.1869525,23.1694315 17.1869525,23.5750233 16.6799627,23.4736253 C16.5278658,23.4736253 16.6292637,23.8285182 16.5785648,23.9299161 C16.2236719,23.8792171 16.2743709,24.23411 15.9701771,24.23411 C15.6659832,24.132712 15.5645853,23.8792171 15.2096925,23.8285182 C15.3110904,23.4229264 14.9561976,23.4736253 15.0068966,23.1694315 C14.8041007,23.1694315 14.5506058,23.2201305 14.5506058,23.0173346 C14.5506058,22.7638397 14.8041007,22.7638397 15.0068966,22.7638397 C14.8041007,22.4089469 15.2096925,22.3075489 15.2603914,21.9526561 C15.6152842,21.8512582 16.071575,21.8512582 16.2743709,21.5470643 C16.6292637,21.8512582 17.0855545,21.5977633 17.4911463,21.6484623 Z" id="Path"></path>
                <path d="M24.7410997,22.4089469 C24.8931966,22.4596459 24.9945946,22.5610438 25.0452936,22.7131407 C25.2987884,22.7131407 25.3494874,22.4596459 25.5015843,22.6624418 C25.4001864,22.9666356 25.7043802,23.3215284 25.5015843,23.5243243 C25.5015843,23.5243243 25.3494874,23.5750233 25.3494874,23.6257223 C25.2987884,23.7271202 25.4001864,23.8792171 25.3494874,23.9299161 C25.2987884,23.9806151 25.0959925,24.0313141 24.9438956,24.183411 C24.8424977,24.2848089 24.6904007,24.4876048 24.6397018,24.4876048 C24.5890028,24.4876048 24.4876048,24.3862069 24.3862069,24.3862069 C24.3355079,24.3862069 24.23411,24.4369059 23.9806151,24.3862069 C23.8792171,24.082013 23.8285182,23.6764212 23.5243243,23.5750233 C23.8285182,23.0680336 24.3862069,22.8652377 24.7410997,22.4089469 Z" id="Path"></path>
                <path d="M20.3302889,25.3494874 C20.4316869,25.3494874 20.4823858,25.4508854 20.5837838,25.4508854 C20.6344828,25.7043802 20.4823858,25.7550792 20.4823858,25.9071761 C20.4316869,26.21137 20.7358807,26.109972 20.6851817,26.3634669 C20.6344828,26.6169618 20.5330848,26.9718546 20.4316869,27.2253495 C20.4316869,27.2760485 20.3302889,27.4788444 20.3302889,27.4788444 C20.3302889,27.5295433 20.4316869,27.6309413 20.3809879,27.7323392 C20.3809879,27.7323392 20.3302889,27.8337372 20.2795899,27.8844362 C20.2795899,28.290028 20.3302889,28.7463187 19.8739981,28.8477167 C19.6712022,28.4928239 19.6712022,27.7323392 19.7219012,27.0732526 C19.7219012,26.7690587 19.8232992,26.4141659 19.8739981,26.0592731 C20.076794,25.7043802 20.178192,25.5522833 20.3302889,25.3494874 Z" id="Path"></path>
                <path d="M27.2253495,29.2026095 C27.6816403,29.1012116 27.5295433,29.9123952 27.5295433,30.317987 C27.4788444,31.3826654 27.2253495,32.244548 26.8197577,33.1064306 C26.7690587,33.2585275 26.7183597,33.5120224 26.6676608,33.5627213 C26.6169618,33.6641193 26.3634669,33.8162162 26.262069,33.9683131 C25.9071761,34.4246039 25.4001864,35.0836906 24.8424977,35.3878844 C24.7410997,35.4385834 24.5890028,35.4892824 24.4369059,35.5399814 C24.23411,35.6920783 23.9806151,35.7934762 23.7271202,35.9455732 C23.0680336,36.249767 22.4089469,36.5539609 21.6484623,36.6553588 C21.2428705,36.7060578 20.9386766,36.6553588 20.5837838,36.5539609 C20.4823858,36.5032619 20.3302889,36.5032619 20.178192,36.4525629 C19.8232992,36.351165 19.3163094,36.0976701 18.8600186,35.8948742 C18.5051258,35.6920783 18.3023299,35.5399814 17.9981361,35.3371855 C17.6939422,35.1343896 17.4404473,34.9315937 17.1362535,34.6273998 C16.9841566,34.4246039 16.8320596,34.171109 16.6799627,33.9683131 C16.3757689,33.6134203 15.9701771,33.2585275 15.6659832,32.7515377 C15.5138863,32.5487418 15.4124884,32.295247 15.3110904,32.0417521 C15.0068966,31.4840634 14.5506058,30.4700839 14.6520037,29.6589003 C15.0068966,29.6589003 15.0068966,30.0644921 15.1082945,30.317987 C15.2096925,30.5714818 15.2603914,30.9263747 15.3110904,31.1798695 C15.7166822,32.193849 16.3250699,33.0050326 17.0855545,33.8162162 C17.4404473,34.171109 17.7446412,34.6780988 18.099534,34.9315937 C18.150233,34.9822926 18.2516309,34.9315937 18.3530289,35.0329916 C18.4037279,35.0836906 18.4037279,35.1850885 18.4037279,35.1850885 C18.4544268,35.2357875 18.5558248,35.1343896 18.6572227,35.1850885 C18.7079217,35.1850885 18.7079217,35.3371855 18.7079217,35.3371855 C18.8093197,35.3878844 18.9614166,35.4385834 19.1135135,35.4892824 C19.4177074,35.6413793 19.7726002,35.7427773 20.178192,35.8948742 C20.6851817,36.0976701 21.0907735,36.199068 21.8005592,36.0469711 C22.7638397,35.8441752 24.0313141,35.2864865 24.7410997,34.7794967 C26.21137,33.7148183 27.1746505,31.7375582 27.0225536,29.4054054 C27.0225536,29.3040075 27.0225536,29.2533085 27.0225536,29.1519105 C27.1239515,29.2026095 27.1746505,29.2026095 27.2253495,29.2026095 Z" id="Path"></path>
            </g>
            <path d="M129.738677,191.591426 C129.738677,191.591426 100.130475,205.635042 90.2948742,220.134949 C90.2948742,220.134949 141.095247,238.994967 155.138863,267.994781 C155.138863,267.994781 138.104007,224.495061 129.738677,191.591426 Z" id="Path" fill="#5C9996" fill-rule="nonzero"></path>
            <path d="M90.751165,220.439143 C90.751165,220.439143 148.395899,240.008947 156.609133,276.9685" id="Path" stroke="#32605A" stroke-width="2.12895135" stroke-linecap="round"></path>
            <polygon id="Path" fill="#508780" fill-rule="nonzero" points="171.514632 508.662815 162.895806 508.510718 152.958807 269.363653 156.609133 276.9685 160.411556 267.994781"></polygon>
            <line x1="167.712209" y1="508.662815" x2="156.609133" y2="276.9685" id="Path" stroke="#32605A" stroke-width="2.12895135"></line>
            <path d="M95.0605778,214.558062 C95.0605778,214.558062 117.976514,223.126188 124.922274,229.108667 L136.532339,215.11575 L129.738677,191.591426 C129.738677,191.591426 108.901398,199.500466 95.0605778,214.558062 Z" id="Path" fill="#222222" fill-rule="nonzero"></path>
            <path d="M196.661323,191.591426 C196.661323,191.591426 226.269525,205.635042 236.105126,220.134949 C236.105126,220.134949 177.54781,238.183784 159.093383,268.907363 C159.042684,269.00876 158.890587,268.907363 158.941286,268.805965 C164.467474,257.246598 188.802982,206.496925 196.661323,191.591426" id="Path" fill="#5C9996" fill-rule="nonzero"></path>
            <path d="M156.609133,276.9685 C164.822367,240.008947 235.648835,220.439143 235.648835,220.439143" id="Path" stroke="#32605A" stroke-width="2.12895135" stroke-linecap="round"></path>
            <path d="M231.339422,214.558062 C231.339422,214.558062 208.423486,223.126188 201.477726,229.108667 L189.867661,215.11575 L196.661323,191.591426 C196.661323,191.591426 217.498602,199.500466 231.339422,214.558062 Z" id="Path" fill="#222222" fill-rule="nonzero"></path>
            <ellipse id="Oval" stroke="#FFFFFF" stroke-width="0.573861696" cx="212.479404" cy="329.746132" rx="26.7690587" ry="27.6309413"></ellipse>
            <path d="M460.295993,219.425163 C460.295993,219.425163 521.591053,421.764772 426.78397,459.43411 C411.422181,465.568686 397.074371,467.191053 362.041379,471.094874 L365.438211,547.498229 C367.618267,551.148555 520.526375,575.281267 538.828705,430.332898 C543.949301,389.824418 552.111836,351.698788 517.687232,270.225536 C517.737931,270.276235 503.643616,231.288723 460.295993,219.425163 Z" id="Path" stroke="#212121" stroke-width="1.31198807" fill="#FFFFFF" fill-rule="nonzero"></path>
            <path d="M399.457223,493.04753 C398.291146,493.04753 397.530662,492.996831 397.327866,492.996831 L397.733458,486.101771 L397.530662,489.549301 L397.733458,486.101771 C398.08835,486.15247 436.061883,487.977633 463.287232,453.958621 C478.091333,435.453495 487.166449,409.749115 490.360485,377.504567 C494.315005,337.198882 488.383225,283.914259 473.78192,224.342964 L480.322088,227.942591 C495.075489,288.32507 501.007269,337.198882 497.00205,378.31575 C493.706617,411.929171 484.073812,438.901025 468.35713,458.470829 C442.399254,490.816775 408.329543,493.04753 399.457223,493.04753 Z" id="Path" fill="#9FA6AE" fill-rule="nonzero"></path>
            <path d="M402.296365,529.246598 C400.420503,529.246598 399.203728,529.195899 398.899534,529.1452 L399.305126,522.25014 C399.862815,522.300839 456.899161,525.038583 494.365704,479.7137 C528.891705,437.887046 537.003541,363.866542 517.484436,271.188816 L524.835788,288.83206 C544.861883,383.79124 535.381174,440.726188 499.384902,484.276608 C464.656104,526.20466 415.630196,529.246598 402.296365,529.246598 Z" id="Path" fill="#9FA6AE" fill-rule="nonzero"></path>
            <ellipse id="Oval" stroke="#212121" stroke-width="1.3453987" cx="379.583225" cy="483.66822" rx="4.91780056" ry="5.12059646"></ellipse>
            <path d="M495.937372,239.197763 C495.937372,239.197763 545.115377,361.737185 492.439143,456.645666 C479.764399,479.460205 446.455172,505.063187 398.392544,509.017707" id="Path" stroke="#DD674F" stroke-width="1.13139832"></path>
            <path d="M434.186021,546.534949 C434.186021,546.534949 433.628332,510.183784 419.838211,461.91836" id="Path" stroke="#DD674F" stroke-width="1.13139832"></path>
            <path d="M444.57931,449.192917 C444.57931,449.192917 483.66822,476.063374 500.196086,514.543896" id="Path" stroke="#DD674F" stroke-width="1.13139832"></path>
            <path d="M470.435788,408.735135 C470.435788,408.735135 515.355079,413.196645 535.533271,449.142218" id="Path" stroke="#DD674F" stroke-width="1.13139832"></path>
            <path d="M478.395527,355.09562 C478.395527,355.09562 520.019385,347.18658 543.49301,377.35247" id="Path" stroke="#DD674F" stroke-width="1.13139832"></path>
            <path d="M475.454986,290.860019 C475.454986,290.860019 506.43206,284.37055 531.021062,305.765517" id="Path" stroke="#DD674F" stroke-width="1.13139832"></path>
            <line x1="411.878472" y1="358.695247" x2="411.878472" y2="304.193849" id="Path" stroke="#9FA6AE" stroke-width="6.18791128"></line>
            <line x1="443.514632" y1="358.695247" x2="443.514632" y2="305.15713" id="Path" stroke="#9FA6AE" stroke-width="6.18791128"></line>
            <polygon id="Path" stroke="#212121" stroke-width="1.33733756" points="392.055172 284.319851 461.259273 285.232432 461.512768 359.303635 393.069152 359.303635"></polygon>
            <line x1="392.308667" y1="303.585461" x2="461.91836" y2="305.765517" id="Path" stroke="#212121" stroke-width="1.33733756"></line>
            <g id="Group" transform="translate(280.872321, 442.602050)" fill-rule="nonzero">
                <polygon id="Path" fill="#705650" points="18.150233 23.4229264 15.8180801 24.6904007 6.6415657 6.99645853 8.97371855 5.72898416"></polygon>
                <ellipse id="Oval" fill="#E59F2B" cx="27.8337372" cy="43.0941286" rx="27.3774464" ry="28.290028"></ellipse>
                <path d="M12.2184529,13.1310345 C12.2184529,13.1310345 14.145014,-2.94054054 30.5714818,0.608387698 C30.5714818,0.608387698 27.3267474,14.7027027 12.2184529,13.1310345 Z" id="Path" fill="#3D7773"></path>
            </g>
            <path d="M257.804287,517.180242 C257.804287,517.180242 302.267288,557.638024 365.134017,540.04548 L362.446971,479.460205 C362.446971,479.460205 332.230382,477.22945 321.279404,475.911277 C317.831873,475.505685 309.162349,474.947996 308.148369,480.423486 C307.337185,484.6315 307.641379,487.825536 321.279404,490.766076 C324.169245,491.374464 338.871948,495.937372 326.298602,501.767754 C313.725256,507.598136 275.498229,480.423486 275.498229,480.423486 C275.498229,480.423486 269.211556,474.593103 264.192358,479.764399 C264.192358,479.764399 260.64343,484.073812 270.02274,491.830755 L259.173159,483.820317 C259.173159,483.820317 254.559553,479.7137 251.010624,483.16123 C247.461696,486.60876 252.886486,492.033551 257.094501,494.619199 C257.094501,494.619199 250.807829,489.447903 248.323579,491.57726 C245.839329,493.757316 246.346319,497.813234 251.923206,500.855172 C251.923206,500.855172 247.968686,499.536999 246.904007,504.099907 C246.954706,504.201305 245.078844,506.584157 257.804287,517.180242" id="Path" fill="#FFCAB2" fill-rule="nonzero"></path>
            <path d="M257.1452,506.43206 C257.1452,506.43206 277.221994,520.627773 292.583784,525.494874" id="Path" stroke="#212121" stroke-width="1.31198807" stroke-linecap="round"></path>
            <path d="M259.882945,496.900652 C259.882945,496.900652 279.959739,511.096365 295.321528,515.963467" id="Path" stroke="#212121" stroke-width="1.31198807" stroke-linecap="round"></path>
            <path d="M266.727307,489.498602 C266.727307,489.498602 286.804101,503.694315 302.16589,508.561417" id="Path" stroke="#212121" stroke-width="1.31198807" stroke-linecap="round"></path>
            <path d="M460.295993,219.425163 C460.295993,219.425163 521.591053,421.764772 426.78397,459.43411 C411.422181,465.568686 397.074371,467.191053 362.041379,471.094874 L365.438211,547.498229 C367.618267,551.148555 520.526375,575.281267 538.828705,430.332898 C543.949301,389.824418 552.111836,351.698788 517.687232,270.225536 C517.737931,270.276235 503.643616,231.288723 460.295993,219.425163 Z" id="Path" stroke="#212121" stroke-width="1.52096925"></path>
            <line x1="400.217707" y1="551.199254" x2="396.567381" y2="466.937558" id="Path" stroke="#212121" stroke-width="1.31198807" fill="#FFFFFF" fill-rule="nonzero"></line>
            <g id="Group" transform="translate(130.296365, 340.697111)" fill-rule="nonzero">
                <polygon id="Path" fill="#705650" points="38.4805219 19.9753961 35.9962721 19.0121156 42.7392358 0.253494874 45.2234856 1.2167754"></polygon>
                <ellipse id="Oval" fill="#E59F2B" transform="translate(30.612345, 40.404751) rotate(-6.776783) translate(-30.612345, -40.404751) " cx="30.6123452" cy="40.4047508" rx="27.3770768" ry="28.289646"></ellipse>
                <path d="M41.9787512,8.56812675 C41.9787512,8.56812675 54.9069897,-0.456290774 63.2216216,14.6520037 C63.2216216,14.6520037 50.8510718,21.3949674 41.9787512,8.56812675 Z" id="Path" fill="#3D7773"></path>
            </g>
            <path d="M345.107922,123.097111 C345.107922,123.097111 343.789748,133.03411 341.761789,136.836533 C339.683131,140.638956 344.347437,140.638956 346.527493,140.081267" id="Path" stroke="#282828" stroke-width="1.49298341" stroke-linecap="round"></path>
            <path d="M115.796459,137.597018 C115.796459,137.597018 111.79124,133.236906 112.805219,129.383784 C113.920596,125.074371 114.528984,122.691519 111.588444,120.460764 C108.952097,118.382106 108.698602,112.855918 110.574464,110.016775 C113.008015,106.366449 111.892637,105.504567 110.726561,103.172414 C110.016775,101.702144 108.445107,95.6689655 113.413607,89.0780988 C115.74576,85.9347623 119.750979,85.0728798 125.986952,85.0728798 C125.986952,85.0728798 125.327866,73.1586207 140.081267,68.595713 C140.081267,68.595713 155.189562,64.3369991 162.69301,73.6149115 C163.859087,75.0851817 163.70699,79.2931966 169.740168,75.8963653 C180.893942,69.6096925 190.729543,77.0117428 192.605405,83.3998136 C195.191053,92.1707363 200.108854,90.3962721 203.911277,96.3787512 C209.640261,105.301771 209.792358,120.967754 202.339609,129.637279 C196.407829,136.532339 197.472507,139.675676 197.472507,139.675676 L186.825722,136.329543 C186.825722,136.329543 190.678844,115.847158 187.231314,107.076235 C183.834483,98.3053122 182.262815,111.081454 169.182479,106.366449 C156.102144,101.651445 159.955266,95.9224604 156.457036,99.9276794 C156.457036,99.9276794 145.91165,116.607642 134.605778,106.518546 C133.490401,105.504567 131.715937,101.600746 129.333085,103.8315 C127.000932,106.011556 125.784157,112.24753 118.128611,109.966076" id="Path" fill="#5D4037" fill-rule="nonzero"></path>
            <ellipse id="Oval" fill="#FFCAB2" fill-rule="nonzero" cx="192.605405" cy="142.666915" rx="11.3058714" ry="11.7114632"></ellipse>
            <path d="M201.629823,143.478099 C201.731221,142.362721 201.832619,136.532339 196.255732,134.352283" id="Path" stroke="#282828" stroke-width="1.49298341" stroke-linecap="round"></path>
            <ellipse id="Oval" fill="#FFCAB2" fill-rule="nonzero" cx="392.917055" cy="131.715937" rx="11.3058714" ry="11.7114632"></ellipse>
            <path d="M401.789376,131.56384 C401.840075,130.397763 401.840075,125.277167 395.299907,123.249208" id="Path" stroke="#282828" stroke-width="1.49298341" stroke-linecap="round"></path>
            <path d="M385.819199,121.424045 C385.667102,121.778938 378.924138,146.570736 373.296552,150.728052 C367.415471,155.088164 358.796645,146.773532 357.427773,146.266542 C356.0589,145.759553 346.1726,137.901212 335.931407,146.266542 C325.690214,154.631873 316.00671,143.985089 316.00671,143.985089 C316.00671,143.985089 312.204287,166.64753 333.142964,179.372973 C333.142964,179.372973 354.335135,193.36589 373.296552,180.691146 C381.915377,174.911463 390.990494,164.264678 392.967754,143.4274 C392.967754,143.4274 392.764958,133.389003 389.976514,119.903075" id="Path" fill="#5D4037" fill-rule="nonzero"></path>
            <path d="M377.555266,116.70904 C377.453868,114.883877 376.490587,115.23877 376.490587,115.23877 C374.614725,115.390867 372.130475,114.427586 372.130475,114.427586 C367.821062,112.044734 364.170736,111.841938 364.170736,111.841938 C356.515191,111.132153 351.1411,115.086673 350.684809,115.441566 C350.228518,115.796459 349.417335,116.252749 348.606151,115.74576 C347.744268,115.23877 344.955825,115.340168 344.955825,115.340168 C344.955825,115.340168 342.015284,115.188071 341.204101,115.74576 C340.342218,116.252749 339.581733,115.796459 339.125443,115.441566 C338.669152,115.086673 333.295061,111.132153 325.639515,111.841938 C325.639515,111.841938 321.989189,111.994035 317.679776,114.427586 C317.679776,114.427586 315.195527,115.390867 313.319664,115.23877 C313.319664,115.23877 312.356384,114.883877 312.254986,116.70904 C312.254986,116.70904 312.001491,117.925815 313.167568,118.027213 C313.167568,118.027213 314.637838,118.382106 314.840634,120.66356 C315.04343,122.945014 316.00671,127.660019 317.527679,129.535881 C319.048649,131.411743 322.293383,135.822554 329.340541,135.264865 C329.340541,135.264865 336.742591,134.656477 340.545014,126.493942 C340.545014,126.493942 341.913886,122.945014 341.863187,121.17055 C341.863187,121.17055 341.812488,120.004473 341.406897,119.497484 C341.001305,118.990494 341.508295,118.027213 341.913886,117.925815 C342.319478,117.824418 344.905126,117.621622 344.905126,117.621622 C344.905126,117.621622 347.490774,117.824418 347.947064,117.925815 C348.352656,118.027213 348.859646,118.990494 348.454054,119.497484 C348.048462,120.004473 347.997763,121.17055 347.997763,121.17055 C347.896365,122.945014 349.315937,126.493942 349.315937,126.493942 C353.11836,134.707176 360.52041,135.264865 360.52041,135.264865 C367.567568,135.873253 370.761603,131.411743 372.333271,129.535881 C373.904939,127.660019 374.817521,122.945014 375.020317,120.66356 C375.223113,118.382106 376.693383,118.027213 376.693383,118.027213 C377.80876,117.925815 377.555266,116.70904 377.555266,116.70904 Z M338.922647,126.240447 C336.235601,133.5411 329.036347,134.098788 329.036347,134.098788 C319.555638,134.656477 317.071389,125.834856 317.071389,125.834856 C315.449021,120.359366 318.085368,116.556943 318.085368,116.556943 C320.924511,113.362908 326.045107,113.008015 326.045107,113.008015 C333.34576,112.501025 336.539795,115.948555 336.539795,115.948555 C341.406897,120.257968 338.922647,126.240447 338.922647,126.240447 Z M372.738863,125.834856 C372.738863,125.834856 370.254613,134.605778 360.773905,134.098788 C360.773905,134.098788 353.574651,133.5411 350.887605,126.240447 C350.887605,126.240447 348.403355,120.308667 353.219758,115.999254 C353.219758,115.999254 356.413793,112.551724 363.714445,113.058714 C363.714445,113.058714 368.885741,113.413607 371.674185,116.607642 C371.724884,116.556943 374.36123,120.359366 372.738863,125.834856 Z" id="Shape" fill="#282828" fill-rule="nonzero"></path>
            <path d="M341.660391,149.86617 C341.660391,149.86617 346.983784,150.626654 351.343896,146.520037" id="Path" stroke="#FFFFFF" stroke-width="1.41145946" stroke-linecap="round"></path>
            <ellipse id="Oval" fill="#282828" fill-rule="nonzero" cx="328.732153" cy="122.184529" rx="2.23075489" ry="2.33215284"></ellipse>
            <line x1="377.555266" y1="116.70904" x2="392.917055" y2="120.004473" id="Path" stroke="#282828" stroke-width="2.26279664" stroke-linecap="round"></line>
            <path d="M323.510158,116.861137 C323.510158,116.861137 329.746132,113.058714 334.866729,117.520224" id="Path" stroke="#5D4037" stroke-width="3.39419497" stroke-linecap="round"></path>
            <path d="M356.920783,117.165331 C356.920783,117.165331 363.156757,113.362908 368.277353,117.824418" id="Path" stroke="#5D4037" stroke-width="3.39419497" stroke-linecap="round"></path>
            <ellipse id="Oval" fill="#282828" fill-rule="nonzero" cx="362.953961" cy="122.184529" rx="2.23075489" ry="2.33215284"></ellipse>
            <path d="M172.680708,362.903262 C182.414911,364.018639 178.460391,372.485368 178.460391,372.485368 C178.460391,372.485368 191.997018,367.618267 191.946319,382.320969 C191.946319,382.320969 202.035415,385.26151 197.371109,394.235228 C197.371109,394.235228 204.773159,401.231687 196.559925,409.698416 L157.369618,448.381733 L117.368127,406.402982 C117.368127,406.402982 111.233551,386.528984 124.313886,377.149674 C127.305126,375.020317 130.904753,373.955638 136.076048,368.885741 C136.076048,368.885741 134.098788,371.42069 135.416962,378.619944 C136.836533,386.021994 164.264678,366.807083 164.264678,366.807083 C164.264678,366.807083 170.399254,362.649767 172.680708,362.903262 Z" id="Path" fill="#FFCAB2" fill-rule="nonzero"></path>
            <line x1="275.041938" y1="617.006524" x2="275.44753" y2="530.514073" id="Path" stroke="#282828" stroke-width="1.49298341" stroke-linecap="round"></line>
            <line x1="377.80876" y1="616.753029" x2="376.794781" y2="550.033178" id="Path" stroke="#282828" stroke-width="1.49298341" stroke-linecap="round"></line>
            <path d="M24.4369059,269.110158 C24.4369059,269.110158 -32.5994408,436.315377 28.9998136,490.968872 C28.9998136,490.968872 93.6410065,550.844362 163.960485,453.806524 L110.473066,399.051631 C110.473066,399.051631 66.9226468,429.572414 66.567754,404.121528 C65.9086673,356.261696 60.6359739,235.446039 60.6359739,235.446039 C60.6359739,235.446039 36.351165,233.265983 24.4369059,269.110158 Z" id="Path" stroke="#212121" stroke-width="1.52096925" fill="#FFFFFF" fill-rule="nonzero"></path>
            <g id="Group" transform="translate(30.419385, 221.047530)">
                <path d="M0.659086673,27.8337372 C0.659086673,27.8337372 -1.11537745,23.6257223 4.10661696,19.6712022 C4.10661696,19.6712022 8.77092265,16.7306617 11.8128611,18.6572227 C11.8128611,18.6572227 10.3932898,13.4859273 15.6659832,10.3425909 C15.6659832,10.3425909 21.2428705,7.30065238 25.2480895,11.8635601 C25.2480895,11.8635601 24.3355079,6.33737185 30.216589,4.05591799 C30.216589,4.05591799 37.3651445,0.963280522 39.5958993,7.19925443 C39.5958993,7.19925443 39.6465983,1.2167754 46.1867661,0.253494874 C46.1867661,0.253494874 53.1832246,-0.811183597 54.2986021,4.10661696 L59.4191985,24.5890028 C59.4191985,24.5890028 61.4978565,32.4473439 55.3632805,35.3878844 C55.3632805,35.3878844 49.1273066,37.4158434 47.3528425,31.5854613 C47.3528425,31.5854613 51.2566636,39.7479963 44.412302,42.9927307 C37.5679404,46.2374651 34.6780988,35.6413793 34.6780988,35.6413793 C34.6780988,35.6413793 37.1623486,45.0206897 31.4840634,46.8965517 C31.4840634,46.8965517 25.5522833,48.7724138 21.6991612,41.3196645 C21.6991612,41.3196645 24.2848089,48.316123 17.9474371,50.344082 C17.9474371,50.344082 14.2464119,51.3580615 10.7481827,44.7671948 C7.2499534,38.1763281 0.659086673,27.8337372 0.659086673,27.8337372 Z" id="Path" fill="#FFCAB2" fill-rule="nonzero"></path>
                <path d="M21.6991612,41.3196645 C21.6991612,41.3196645 11.5086673,18.6572227 12.015657,19.6712022" id="Path" stroke="#212121" stroke-width="1.41145946" stroke-linecap="round"></path>
                <path d="M34.6780988,35.6920783 C34.6780988,35.6920783 24.8931966,11.6100652 25.4001864,12.6747437" id="Path" stroke="#212121" stroke-width="1.41145946" stroke-linecap="round"></path>
                <path d="M47.3528425,31.6361603 C47.3528425,31.6361603 39.0889096,6.94575955 39.5958993,7.95973905" id="Path" stroke="#212121" stroke-width="1.41145946" stroke-linecap="round"></path>
            </g>
            <line x1="91.9679404" y1="409.698416" x2="146.418639" y2="475.049394" id="Path" stroke="#212121" stroke-width="1.33733756"></line>
            <circle id="Oval" stroke="#212121" stroke-width="1.33733756" cx="108.445107" cy="412.689655" r="4.15731594"></circle>
            <path d="M360.469711,30.216589 L503.085927,30.216589 C503.085927,30.216589 507.344641,21.9019571 469.8274,15.9194781 C469.8274,15.9194781 453.147437,15.9194781 435.960485,4.00521901 C435.960485,4.00521901 425.263001,-3.75172414 406.098788,4.00521901 C406.098788,4.00521901 389.773719,13.8408201 372.586766,13.5366263 C355.399814,13.2324324 329.746132,22.7638397 328.073066,30.216589 L360.469711,30.216589 Z" id="Path" fill="#E8E8E8" fill-rule="nonzero"></path>
            <circle id="Oval" fill="#FFD681" fill-rule="nonzero" cx="60.433178" cy="30.0644921" r="29.8616962"></circle>
        </g>
    </g>
</svg>