<?xml version="1.0" encoding="utf-8"?>
<!-- Generator: Adobe Illustrator 24.1.2, SVG Export Plug-In . SVG Version: 6.00 Build 0)  -->
<svg version="1.1" id="Capa_1" xmlns="http://www.w3.org/2000/svg" xmlns:xlink="http://www.w3.org/1999/xlink" x="0px" y="0px"
	 viewBox="0 0 600 425.7" style="enable-background:new 0 0 600 425.7;" xml:space="preserve">
<style type="text/css">
	.st0{fill:#F2C681;}
	.st1{fill:none;stroke:#2B3F33;stroke-width:2.0817;stroke-linecap:round;stroke-miterlimit:10;}
	.st2{fill:#47594E;}
	.st3{fill:#3F4C43;}
	.st4{fill:none;}
	.st5{fill:#202020;}
	.st6{opacity:0.68;}
	.st7{fill:#E4E6E8;}
	.st8{fill:#FFDB86;}
	.st9{display:none;clip-path:url(#SVGID_2_);fill:#F2C681;}
	.st10{fill:#2B3F33;}
	.st11{fill:#BF9F61;}
	.st12{fill:#E27A2D;}
	.st13{fill:#42A799;}
	.st14{fill:#D66D27;}
	.st15{fill:#B3C08D;}
	.st16{fill:#56392C;}
	.st17{fill:#422B22;}
	.st18{fill:#F2C875;}
	.st19{fill:#A4AF7D;}
	.st20{fill:#E9755A;}
	.st21{fill:#C15640;}
	.st22{fill:#FCECD0;}
	.st23{fill:#EA998C;}
</style>
<polygon class="st0" points="110.8,178.4 284.5,61 450.4,178.4 "/>
<path class="st1" d="M287.2,290.5c0,0,37.1-135.9,64.8-197.1"/>
<path class="st2" d="M300.9,178.8c0,0-1.8-11.2,4-15.9c3.2-2.6,9.2-5.5,4.2-16.4c0,0-2.7-8.6,5.3-14c2-1.5,3.6-3.6,5.1-8.6
	c0.5-1.8,3-5.8,6.6-5.4c1.9,0.3,5.7,1.2,5.7,7.1c0,2.7-0.1,4.9,3.1,8.9c0,0,6.6,8-0.5,17.3c-1.9,2.4-3.5,6.5,1.3,12
	c4.9,5.5,4.6,20.9-3.9,29.8L300.9,178.8z"/>
<path class="st3" d="M318.8,182.1c0.5,0,0.9-0.4,1.1-0.9l7.3-62.4c-0.4-0.1-0.7-0.1-1.1-0.1c-0.4,0-0.7,0-1.1,0l-7.3,62.3
	C317.8,181.4,318.2,181.9,318.8,182.1C318.7,182.1,318.8,182.1,318.8,182.1z"/>
<polygon class="st0" points="464.2,196.2 288.2,289.1 288.2,289.1 110.6,196.2 110.6,178.4 464.2,178.4 "/>
<path class="st2" d="M423.5,198.8c0,0,0.1-11.3,6.6-15c3.6-2,10-3.9,6.9-15.5c0,0-1.2-8.9,7.5-12.9c2.3-1.1,4.2-3,6.5-7.7
	c0.8-1.6,3.8-5.3,7.4-4.2c1.8,0.5,5.4,2.2,4.4,8c-0.4,2.7-0.9,4.7,1.6,9.3c0,0,5.3,8.9-3.4,17c-2.3,2-4.6,5.8-0.7,12
	s1.1,21.3-8.8,28.9L423.5,198.8z"/>
<path class="st4" d="M423.5,198.8c0,0,0.1-11.3,6.6-15c3.6-2,10-3.9,6.9-15.5c0,0-1.2-8.9,7.5-12.9c2.3-1.1,4.2-3,6.5-7.7
	c0.8-1.6,3.8-5.3,7.4-4.2c1.8,0.5,5.4,2.2,4.4,8c-0.4,2.7-0.9,4.7,1.6,9.3c0,0,5.3,8.9-3.4,17c-2.3,2-4.6,5.8-0.7,12
	s1.1,21.3-8.8,28.9L423.5,198.8z"/>
<path class="st3" d="M458.4,143.5c-0.4-0.1-0.7-0.1-1.1-0.1l-17.5,60.3c-0.1,0.5,0.1,1.1,0.7,1.3c0.1,0,0.1,0,0.3,0
	c0.4,0,0.9-0.3,1.1-0.8l17.5-60.3C458.9,143.8,458.6,143.7,458.4,143.5z"/>
<g>
	<path class="st5" d="M11.6,335.1c-0.3,0-0.4-0.1-0.5-0.3c-0.1-0.3-19.1-25.1,6.1-47.6c12.8-11.5,18.5-22.6,21.2-29.9
		c2.8-8,2.6-13.3,2.6-13.3c0-0.4,0.3-0.7,0.7-0.7c0.4,0,0.7,0.3,0.7,0.7c0,0.3,0.3,5.7-2.7,13.9c-2.7,7.5-8.5,19-21.6,30.6
		c-10.1,9-14.2,19.5-12.1,31c1.6,8.6,6.2,14.7,6.3,14.7c0.3,0.3,0.1,0.8-0.1,0.9C12,335.1,11.7,335.1,11.6,335.1z"/>
</g>
<g>
	<path class="st5" d="M48.3,204.1c-0.4,0-0.7-0.3-0.7-0.7L46.8,193c0-0.4,0.3-0.7,0.7-0.8c0.4,0,0.7,0.3,0.8,0.7l0.8,10.4
		C49.1,203.7,48.8,204.1,48.3,204.1C48.4,204.1,48.4,204.1,48.3,204.1z"/>
</g>
<g>
	<path class="st5" d="M55.5,206.4c-0.1,0-0.3,0-0.4-0.1c-0.3-0.1-0.4-0.7-0.3-0.9l5.3-8.9c0.1-0.3,0.7-0.4,0.9-0.3
		c0.3,0.1,0.4,0.7,0.3,0.9l-5.3,8.9C56,206.2,55.7,206.4,55.5,206.4z"/>
</g>
<g class="st6">
	<circle class="st7" cx="36.9" cy="206.4" r="9.2"/>
</g>
<g>
	<circle class="st7" cx="32.4" cy="221.9" r="9.2"/>
</g>
<g class="st6">
	
		<ellipse transform="matrix(0.9951 -9.853756e-02 9.853756e-02 0.9951 -20.7948 7.2995)" class="st7" cx="63.5" cy="214.2" rx="9.2" ry="9.2"/>
</g>
<g>
	<circle class="st7" cx="58.9" cy="229.7" r="9.2"/>
</g>
<g>
	<path class="st8" d="M42.6,235.5L42.6,235.5c-5.3-1.5-8.2-7-6.7-12.3l4.9-16.4c1.5-5.3,7-8.2,12.3-6.7l0,0c5.3,1.5,8.2,7,6.7,12.3
		l-4.9,16.4C53.3,234,47.7,237,42.6,235.5z"/>
</g>
<g>
	<path class="st4" d="M42.6,235.5L42.6,235.5c-5.3-1.5-8.2-7-6.7-12.3l4.9-16.4c1.5-5.3,7-8.2,12.3-6.7l0,0c5.3,1.5,8.2,7,6.7,12.3
		l-4.9,16.4C53.3,234,47.7,237,42.6,235.5z"/>
</g>
<g>
	<path class="st5" d="M99.9,377.7c-46.6,0-81.3-32.4-81.7-32.8c-0.3-0.3-0.3-0.7,0-0.9s0.7-0.3,0.9,0c0.4,0.4,42.5,39.6,96,31.1
		c0.4,0,0.8,0.1,0.8,0.5s-0.1,0.8-0.5,0.8C110.1,377.3,104.9,377.7,99.9,377.7z"/>
</g>
<g>
	<path class="st5" d="M456.1,371.4L456.1,371.4c-0.4,0-0.7-0.3-0.7-0.7s0.3-0.7,0.7-0.7c0.3,0,24-0.3,56.5-20.6
		c0.3-0.3,0.8-0.1,0.9,0.3c0.3,0.3,0.1,0.8-0.3,0.9C480.5,371.1,456.3,371.4,456.1,371.4z"/>
</g>
<g>
	<g>
		<defs>
			<path id="SVGID_1_" d="M464,178.4v203.8c0,6.9-5.5,12.4-12.4,12.4H123c-6.9,0-12.4-5.5-12.4-12.4V178.4"/>
		</defs>
		<clipPath id="SVGID_2_">
			<use xlink:href="#SVGID_1_"  style="overflow:visible;"/>
		</clipPath>
		<polygon class="st9" points="473.3,166 287.7,264.2 287.7,264.2 100.2,166 100.2,147.3 473.3,147.3 		"/>
	</g>
</g>
<g>
	<path class="st5" d="M538.6,198.1c-3,0-6.1-1.1-9.4-3.8c-3.6-3.1-5.3-8.2-4-13.5c1.3-5.9,5.7-10.7,11.5-12.1c2-0.5,4.7-0.8,8.2-0.3
		c-10.4-9.8-29.5-30.2-29.7-30.5c-0.1-0.4,0-0.8,0.3-0.9c0.3-0.1,0.7-0.1,0.8,0.1c0.4,0.5,20.9,22.4,31.1,31.8
		c7.3,1.9,17.1,7.4,29.5,21c0.3,0.3,0.3,0.7,0,0.9c-0.3,0.3-0.7,0.3-0.9,0c-10.9-12-19.7-17.7-26.6-20c5.9,7.1,4.3,16.4-0.5,22.1
		C546.4,195.8,542.8,198.1,538.6,198.1z M541.4,169.5c-1.8,0-3.2,0.3-4.3,0.5c-5.3,1.3-9.3,5.7-10.5,11.1c-1.1,4.7,0.3,9.4,3.5,12.1
		c7.1,5.9,14,3.1,17.8-1.1c4.9-5.7,6.2-15.2-1.1-22C544.8,169.7,542.9,169.5,541.4,169.5z"/>
</g>
<g>
	<path class="st5" d="M486.5,111.8c-0.3,0-0.5-0.1-0.7-0.4l-4.6-9.3c-0.1-0.4,0-0.8,0.3-0.9c0.4-0.1,0.8,0,0.9,0.3l4.6,9.3
		c0.1,0.4,0,0.8-0.3,0.9C486.8,111.8,486.7,111.8,486.5,111.8z"/>
</g>
<g class="st6">
	<circle class="st7" cx="498.3" cy="106.5" r="9.2"/>
</g>
<g>
	<circle class="st7" cx="511.5" cy="115.9" r="9.2"/>
</g>
<g>
	<path class="st8" d="M511.5,133.1L511.5,133.1c-3.1,4.4-9.3,5.5-13.8,2.3l-14-10c-4.4-3.1-5.5-9.3-2.3-13.8l0,0
		c3.1-4.4,9.3-5.5,13.8-2.3l14,10C513.6,122.6,514.7,128.7,511.5,133.1z"/>
</g>
<g>
	<path class="st4" d="M511.5,133.1L511.5,133.1c-3.1,4.4-9.3,5.5-13.8,2.3l-14-10c-4.4-3.1-5.5-9.3-2.3-13.8l0,0
		c3.1-4.4,9.3-5.5,13.8-2.3l14,10C513.6,122.6,514.7,128.7,511.5,133.1z"/>
</g>
<g>
	<path class="st5" d="M559.6,312.6c-0.3,0-0.4-0.1-0.5-0.3c-0.3-0.3-0.1-0.8,0.1-0.9c0.1-0.1,15.2-12.5,25.2-33
		c9.2-18.9,15.6-48.7-5.3-83.4c-0.1-0.3-0.1-0.8,0.3-0.9c0.3-0.1,0.8-0.1,0.9,0.3c21.3,35.3,14.6,65.7,5.3,84.8
		c-10.1,20.8-25.5,33.3-25.6,33.4C559.9,312.4,559.8,312.6,559.6,312.6z"/>
</g>
<g>
	<path class="st10" d="M253,193.3c-0.7,0-1.2-0.5-1.3-1.2c-0.1-0.7-11.9-69-23.6-107.4c-0.3-0.7,0.1-1.5,0.9-1.8
		c0.8-0.3,1.5,0.1,1.8,0.9c11.7,38.6,23.6,107,23.7,107.7c0.1,0.8-0.4,1.5-1.1,1.6C253.2,193.3,253,193.3,253,193.3z"/>
</g>
<g>
	
		<rect x="171.5" y="119" transform="matrix(0.9694 -0.2454 0.2454 0.9694 -29.6192 47.1151)" class="st11" width="5.5" height="46.8"/>
	<circle class="st12" cx="193.6" cy="217.9" r="67.8"/>
	<path class="st13" d="M174.3,137.6c0,0,10.8-30.9,48.8-17.3C223.1,120.3,208,149.7,174.3,137.6z"/>
</g>
<polygon class="st14" points="133.6,180.5 234.7,229.9 238,250.8 123.9,191.7 "/>
<path class="st4" d="M300.9,178.8c0,0-1.8-11.2,4-15.9c3.2-2.6,9.2-5.5,4.2-16.4c0,0-2.7-8.6,5.3-14c2-1.5,3.6-3.6,5.1-8.6
	c0.5-1.8,3-5.8,6.6-5.4c1.9,0.3,5.7,1.2,5.7,7.1c0,2.7-0.1,4.9,3.1,8.9c0,0,6.6,8-0.5,17.3c-1.9,2.4-3.5,6.5,1.3,12
	c4.9,5.5,4.6,20.9-3.9,29.8L300.9,178.8z"/>
<path class="st2" d="M116.8,208c0,0-6.2-9.6-2.7-16.2c1.9-3.6,6.2-8.8-2.7-16.7c0,0-5.9-6.9-0.8-15c1.3-2.2,1.9-4.9,1.2-10
	c-0.3-1.8,0.3-6.5,3.9-7.5c1.8-0.5,5.7-1.2,8.1,4.2c1.1,2.6,1.9,4.4,6.5,6.9c0,0,9.3,4.6,6.5,16c-0.7,3-0.7,7.3,6.1,10.4
	c6.7,3.1,12.7,17.3,8.4,28.9L116.8,208z"/>
<g>
	<path class="st10" d="M405.5,91.8c0,0,30.3,3.1,36.7,28.2c6.3,25.1,2.7,43.9,7.4,58.8s36.5,131-81.3,127.4
		c0,0,79.1-43.8,64.4-117.3C418.1,115.4,405.5,91.8,405.5,91.8z"/>
	<g>
		<path class="st15" d="M323.4,282.4c0,0-42.3-41-0.4-100.3c8.1-11.5,13.1-15.4,28.3-48.4c7-15.2,14.2-49.1,51.5-42.7
			c20.1,3.4,34.4,17.8,32.1,57.3c-0.4,8,0.3,19.5,3.1,31.5c3,12,31.7,113.2-57.7,126.3C365.6,308.4,341.5,302.1,323.4,282.4z"/>
		<circle class="st16" cx="373.7" cy="230.9" r="45.2"/>
	</g>
	<path class="st17" d="M341.2,237.9l-0.1-9.3l61.2-32.8c0,0,4.9,3.9,6.7,6.9L341.2,237.9"/>
</g>
<g>
	<path class="st13" d="M248.2,130c0,0,32.6,2.8,32.5,37.1C280.6,167.1,245.8,162.9,248.2,130z"/>
	<g>
		<path class="st8" d="M280.8,153l-0.3,4c-25.7,4.6-46.8,30.6-49.3,63.6c-2.6,33,14.3,62,39.1,70.4l-0.1,2.2
			c-0.4,5.7,3.9,10.7,9.6,11.1c5.7,0.4,10.7-3.9,11.1-9.6l0.1-1.6c26.8-3.4,48.9-30.1,51.6-63.9c2.6-34-15.4-63.6-41.3-71l0.3-3.6
			c0.4-5.7-3.9-10.7-9.6-11.1C286.2,143,281.2,147.3,280.8,153z"/>
	</g>
</g>
<g>
	<path class="st18" d="M230.9,228.1l57.2,28.7l54.5-29c0,0-0.4,8.2-1.3,10.1l-55.4,30.3l-54.3-30.9
		C231.5,237.5,230.8,231.7,230.9,228.1z"/>
</g>
<path class="st19" d="M409,202.7l30.7-15.8l-2.2-9L402.3,196C402.3,195.8,408.5,201.6,409,202.7z"/>
<g>
	<path class="st10" d="M256.4,269.4c-0.1,0-0.1,0-0.3,0c-0.8-0.1-1.2-0.9-1.1-1.6l13.5-67.9c0.1-0.8,0.9-1.2,1.6-1.1
		c0.8,0.1,1.2,0.9,1.1,1.6l-13.5,67.9C257.6,268.9,257.1,269.4,256.4,269.4z"/>
</g>
<g>
	<path class="st10" d="M172,233.9c-0.7,0-1.2-0.4-1.3-0.9c-0.1-0.7-19.8-67.3-35.9-103.9c-0.3-0.7,0-1.5,0.7-1.9
		c0.7-0.3,1.5,0,1.9,0.7c16,36.9,35.7,103.7,35.9,104.3c0.3,0.8-0.3,1.5-0.9,1.8C172.3,233.9,172.2,233.9,172,233.9z"/>
</g>
<polygon class="st4" points="473.3,166 464,178.4 449.9,178.4 287.7,264.2 287.7,264.2 123.6,178.3 110.6,178.4 100.2,166 
	100.2,54.1 473.3,54.1 "/>
<path class="st7" d="M191.6,59.1c0,0.3-10.8,14,37.5,24C199.7,43.1,191.6,59.1,191.6,59.1z"/>
<path class="st7" d="M185.6,82.9c0.1,0.3-2.4,17.5,44.5,2C184.7,64.8,185.6,82.9,185.6,82.9z"/>
<path class="st7" d="M208.6,42.7c-0.1,0.3-16.3,6.9,20.8,39.4C223.5,32.7,208.6,42.7,208.6,42.7z"/>
<path class="st7" d="M235.1,42.1c-0.3,0.1-17.1-4.6-7.4,43.9C253,43.4,235.1,42.1,235.1,42.1z"/>
<path class="st7" d="M257.5,51.4c-0.3,0-12.5-12.5-28.4,34.2C272.5,61.6,257.5,51.4,257.5,51.4z"/>
<g>
	
		<ellipse transform="matrix(0.1602 -0.9871 0.9871 0.1602 107.9299 297.7018)" class="st8" cx="228.9" cy="85.4" rx="11.3" ry="11.3"/>
</g>
<circle class="st13" cx="269.9" cy="196.5" r="4.6"/>
<g>
	<path class="st10" d="M264.4,233.3c-0.5,0-1.1-0.4-1.3-0.9c-0.3-0.7,0.1-1.5,0.8-1.8l16.3-5.7c0.7-0.3,1.5,0.1,1.8,0.8
		s-0.1,1.5-0.8,1.8l-16.3,5.7C264.6,233.3,264.5,233.3,264.4,233.3z"/>
</g>
<g>
	<path class="st10" d="M264.5,224.1c-0.4,0-0.8-0.1-1.1-0.5l-11.1-13.3c-0.5-0.5-0.4-1.5,0.1-2s1.5-0.4,2,0.1l11.1,13.3
		c0.5,0.5,0.4,1.5-0.1,2C265,224,264.8,224.1,264.5,224.1z"/>
</g>
<circle class="st13" cx="253" cy="209.3" r="4.6"/>
<circle class="st13" cx="283.2" cy="225.9" r="4.6"/>
<circle class="st20" cx="125.8" cy="100.4" r="33.2"/>
<g>
	<path class="st21" d="M101.8,100.4c-0.1,0-0.3,0-0.5-0.1c-0.5-0.3-0.7-0.9-0.4-1.5c0.1-0.3,14.7-27.8,43.9-14.2
		c0.5,0.3,0.8,0.8,0.5,1.3c-0.3,0.5-0.8,0.8-1.3,0.5c-27.4-12.7-40.7,12.1-41.3,13.2C102.6,100.3,102.2,100.4,101.8,100.4z"/>
</g>
<path class="st22" d="M301.2,104.3c0-3.8-1.2-7.3-3.4-10.2l-0.8-1.2c-1.3-2-2-4.4-2-6.9c0-1.6,0.3-3.1,0.9-4.6l0.5-1.3
	c0-0.1-0.1-0.3-0.1-0.1l-1.2,0.7c-2.2,1.1-4,2.4-5.8,4.2c-2.2-0.7-4.2-0.9-5.7-0.5c-1.5,0.3-2.7,1.2-3.4,2.4
	c-0.8,1.5-0.9,3.4-0.4,5.4c0.1,0.7,0.4,1.3,0.8,2c0,0.1,0,0.1,0,0.3c-0.1,0.7-0.3,1.2-3.1,4.7c-0.1,0.1-0.3,0.3-0.4,0.4
	c-0.1,0.1-0.1,0.1-0.3,0.3c-0.4,0.4-0.7,0.8-0.9,1.2l0,0c-1.5,2.2-2.3,4.6-2.3,7c0,3.5,1.3,6.6,3.8,9c2.4,2.4,5.7,3.8,9,3.8
	c1.8,0,3.4-0.4,5-0.9l0,0c0.4-0.1,0.4-0.3,0.8-0.4l0,0C297.7,116.4,301.2,110.5,301.2,104.3z M281.2,87.2c1.1-1.9,3.5-2.4,6.7-1.5
	c-0.5,0.7-1.1,1.2-1.5,1.9c-1.6,2.3-2.8,4.9-3.5,7.4C281,93.1,280,89.3,281.2,87.2z M274.8,108.3c0-2.2,0.4-4.9,2.8-8
	c0.1-0.1,0.1-0.3,0.3-0.3c0.1-0.1,0.3-0.3,0.3-0.4l0,0c2-2.4,2.8-3.6,3.1-4.3c0.4,0.4,0.8,0.8,1.2,1.2l0,0c-0.3,1.5-0.4,3-0.4,4.6
	c0,0.3,0,0.4,0,0.7l0,0c-0.1,0-0.3-0.1-0.3-0.1h-0.1c0,0,0,0,0,0.1c0,0,0.1,0.1,0.3,0.1c0.3,0.1,0.5,0.4,1.1,0.5
	c0.5,0.3,1.1,0.4,1.9,0.5c0.4,0,0.8,0.1,1.2,0.1h0.1h0.1c0.1,0,0.3,0,0.3,0c0.1,0,0.3,0,0.3,0c0.1,0,0.3,0,0.4,0
	c0.9-0.1,1.9-0.5,2.8-1.1c0.4-0.3,0.9-0.5,1.3-0.9c0.4-0.4,0.8-0.8,1.2-1.2c0,0,0,0,0,0.1c0,1.1-0.1,2.2-0.5,3.2
	c0,0.1-0.1,0.3-0.1,0.4l-0.1,0.4v0.1l0,0l0,0l-0.1,0.1l-0.1,0.1c0,0,0,0,0,0.1v0.1l-0.3,0.4c-0.1,0.1-0.1,0.3-0.3,0.3l-0.1,0.1
	l-0.1,0.1l-0.1,0.1l-0.1,0.1c-0.1,0.1-0.1,0.1-0.3,0.3c-0.1,0.1-0.1,0.1-0.3,0.3l-0.1,0.1l-0.1,0.1c-0.1,0.1-0.3,0.1-0.3,0.3
	c-0.1,0.1-0.3,0.1-0.3,0.3H289h-0.1l-0.1,0.1c-0.3,0.1-0.4,0.3-0.7,0.4c-0.1,0-0.3,0.1-0.4,0.1h-0.1h-0.1c-0.1,0-0.3,0-0.4,0.1
	c-0.1,0-0.3,0-0.4,0.1h-0.1h-0.1c-0.1,0-0.3,0-0.4,0c-0.1,0-0.3,0-0.4,0h-0.1l0,0l0,0l0,0l0,0h-0.1c-0.1,0-0.3,0-0.4,0h-0.1h-0.1
	c-0.3,0-0.4,0-0.7-0.1c-0.1,0-0.3,0-0.3,0c-0.1,0-0.3,0-0.3,0s-0.3,0-0.3-0.1H283h-0.1c-0.8-0.3-1.5-0.7-2-1.1s-1.1-0.8-1.3-1.2
	c-0.4-0.4-0.5-0.7-0.8-0.9c-0.1-0.3-0.3-0.4-0.3-0.4s0,0.1,0.1,0.4c0,0.1,0.1,0.3,0.3,0.4c0.1,0.1,0.3,0.4,0.4,0.5
	c0.3,0.4,0.7,0.9,1.2,1.5c0.5,0.5,1.2,0.9,2.2,1.3c0,0,0.1,0,0.1,0.1h0.1c0.1,0,0.3,0.1,0.4,0.1c0.1,0,0.3,0,0.4,0.1
	c0.1,0,0.3,0.1,0.4,0.1c1.3,3.8,3.8,7.1,6.9,9.7c-1.3,0.5-2.7,0.8-4.2,0.8C280.1,119.4,275,114.5,274.8,108.3z M291.7,118
	c-3-2.3-5.3-5.4-6.6-8.9l0,0h0.1l0,0l0,0l0,0l0,0c0.1,0,0.1,0,0.3,0c0.1,0,0.3,0,0.4,0c0.1,0,0.3,0,0.4,0c0,0,0.1,0,0.3,0
	c0,0,0.1,0,0.3,0s0.3,0,0.4,0s0.3,0,0.4-0.1c0,0,0.1,0,0.3,0c0,0,0.1,0,0.3,0s0.3-0.1,0.4-0.1c0.5-0.3,1.1-0.5,1.6-0.8
	c0.5-0.4,0.9-0.7,1.5-1.2l0.1-0.1l0.1-0.1l0.1-0.1l0.1-0.1c0.1-0.1,0.1-0.3,0.3-0.4l0.3-0.4v-0.1c0,0,0,0,0-0.1l0.1-0.3l0.1-0.3l0,0
	l0,0v-0.1l0.1-0.4c0-0.1,0.1-0.3,0.1-0.4c0.3-0.5,0.4-1.2,0.5-1.9c0-0.3,0.1-0.7,0.1-0.9v-0.3v-0.3c0-0.1,0-0.3,0-0.5
	c0-0.7-0.1-1.2-0.3-1.9l0,0l0,0c0,0,0,0.1,0-0.1c-0.1-0.3-0.4-0.4-0.7-0.4c-0.4,0.1-0.5,0.5-0.4,0.4V98c0,0,0,0.1-0.1,0.1
	c0,0.1-0.1,0.3-0.1,0.4c-0.1,0.3-0.3,0.4-0.4,0.7c-0.1,0.3-0.3,0.4-0.4,0.7c-0.1,0.1-0.4,0.4-0.5,0.5c-0.4,0.4-0.8,0.7-1.2,0.9
	c-0.8,0.5-1.6,0.9-2.4,1.1c-0.1,0-0.1,0-0.3,0.1c-0.1,0-0.1,0-0.3,0c-0.1,0-0.1,0-0.3,0s-0.1,0-0.3,0c-0.4,0-0.8,0-1.1,0
	c-0.5,0-1.1-0.1-1.6-0.3v-0.1c0-0.1,0-0.1,0-0.3c0-0.3,0-0.4,0-0.7c0-4.6,1.5-8.9,4-12.7c1.6-2.3,3.8-4.2,6.1-5.7
	c0.1,0,0.3,0,0.3,0.1c-0.3,1.1-0.4,2-0.4,3.1c0,1.8,0.3,3.5,0.9,5.1c0,0.1-0.1,0.3-0.1,0.1l-0.9-0.5c-0.1-0.1-0.3,0.1-0.1,0.3
	l2.3,2.6c2.7,3,4.2,6.7,4.2,10.8C299.8,110,296.7,115.2,291.7,118z M293.8,98.2L293.8,98.2C293.9,98.2,293.9,98.2,293.8,98.2z"/>
<g>
	<path class="st20" d="M352,94.6L352,94.6c-3.1-4.9-1.6-11.2,3.2-14.3l24.5-15.5c4.9-3.1,11.2-1.6,14.3,3.2l0,0
		c3.1,4.9,1.6,11.2-3.2,14.3l-24.5,15.5C361.4,100.9,355,99.4,352,94.6z"/>
	<path class="st20" d="M352.3,91.6L352.3,91.6c-4.6-3.4-5.7-9.7-2.4-14.4l16.9-23.6c3.4-4.6,9.7-5.7,14.4-2.4l0,0
		c4.6,3.4,5.7,9.7,2.4,14.4l-16.9,23.6C363.3,93.8,356.9,94.9,352.3,91.6z"/>
	<path class="st20" d="M356.5,93.2L356.5,93.2c-5.7-0.5-9.8-5.5-9.4-11.2l2.6-28.9c0.5-5.7,5.5-9.8,11.2-9.4l0,0
		c5.7,0.5,9.8,5.5,9.4,11.2l-2.6,28.9C367.2,89.5,362.2,93.6,356.5,93.2z"/>
	<path class="st20" d="M351.6,94.1L351.6,94.1c-5.5,1.3-11.2-2-12.5-7.5l-7-28.2c-1.3-5.5,2-11.2,7.5-12.5l0,0
		c5.5-1.3,11.2,2,12.5,7.5l7,28.2C360.5,87,357.1,92.7,351.6,94.1z"/>
	<circle class="st21" cx="354.8" cy="86.6" r="15.5"/>
</g>
<circle class="st23" cx="354.8" cy="86.6" r="7.7"/>
<path class="st4" d="M464,178.4v203.8c0,6.9-5.5,12.4-12.4,12.4H123c-6.9,0-12.4-5.5-12.4-12.4V178.4"/>
<g>
	<path class="st4" d="M42.6,235.5L42.6,235.5c-5.3-1.5-8.2-7-6.7-12.3l4.9-16.4c1.5-5.3,7-8.2,12.3-6.7l0,0c5.3,1.5,8.2,7,6.7,12.3
		l-4.9,16.4C53.3,234,47.7,237,42.6,235.5z"/>
</g>
<g>
	<path class="st5" d="M54.3,229.9l-18.7-5.5c-0.1,0.7-0.1,1.5-0.1,2.2l17.8,5.3C53.7,231.3,54.1,230.6,54.3,229.9z"/>
</g>
<g>
	
		<rect x="45.6" y="211.8" transform="matrix(0.2825 -0.9593 0.9593 0.2825 -179.1124 203.8594)" class="st5" width="2.2" height="19.8"/>
</g>
<g>
	
		<rect x="47.4" y="205.3" transform="matrix(0.2825 -0.9593 0.9593 0.2825 -171.5957 200.918)" class="st5" width="2.2" height="19.8"/>
</g>
<g>
	<path class="st5" d="M41.4,205c-0.3,0.5-0.5,1.1-0.7,1.6l-0.1,0.3l19,5.5l0.1-0.3c0.1-0.5,0.3-1.2,0.4-1.8L41.4,205z"/>
</g>
<g>
	<g>
		<path class="st5" d="M542.4,323.5c-0.3-0.3-0.4-0.7-0.1-0.9l5.4-8.9c0.1-0.3,0.7-0.4,0.9-0.3c0.3,0.1,0.4,0.7,0.3,0.9l-5.4,8.9
			C543.2,323.6,542.8,323.8,542.4,323.5C542.5,323.6,542.5,323.6,542.4,323.5z"/>
	</g>
	<g>
		<path class="st5" d="M546.9,329.6c-0.1-0.1-0.1-0.1-0.3-0.3c-0.1-0.4,0-0.8,0.4-0.9l9.4-4.2c0.4-0.1,0.8,0,0.9,0.4s0,0.8-0.4,0.9
			l-9.4,4.2C547.3,329.7,547.2,329.7,546.9,329.6z"/>
	</g>
	<g class="st6">
		<circle class="st7" cx="531.7" cy="318.8" r="9.2"/>
	</g>
	<g>
		<circle class="st7" cx="519" cy="328.9" r="9.2"/>
	</g>
	<g class="st6">
		<circle class="st7" cx="549" cy="340.6" r="9.2"/>
	</g>
	<g>
		<circle class="st7" cx="536.3" cy="350.6" r="9.2"/>
	</g>
	<g>
		<path class="st8" d="M519.6,345.9L519.6,345.9c-3.4-4.3-2.7-10.5,1.6-13.9l13.5-10.7c4.3-3.4,10.5-2.7,13.9,1.6l0,0
			c3.4,4.3,2.7,10.5-1.6,13.9l-13.5,10.7C529.3,350.9,523.1,350.2,519.6,345.9z"/>
	</g>
	<g>
		<path class="st4" d="M519.6,345.9L519.6,345.9c-3.4-4.3-2.7-10.5,1.6-13.9l13.5-10.7c4.3-3.4,10.5-2.7,13.9,1.6l0,0
			c3.4,4.3,2.7,10.5-1.6,13.9l-13.5,10.7C529.3,350.9,523.1,350.2,519.6,345.9z"/>
	</g>
	<g>
		<path class="st4" d="M519.6,345.9L519.6,345.9c-3.4-4.3-2.7-10.5,1.6-13.9l13.5-10.7c4.3-3.4,10.5-2.7,13.9,1.6l0,0
			c3.4,4.3,2.7,10.5-1.6,13.9l-13.5,10.7C529.3,350.9,523.1,350.2,519.6,345.9z"/>
	</g>
	<g>
		<path class="st5" d="M532.4,348.2l-12.1-15.4c-0.5,0.5-0.9,1.1-1.3,1.8l11.5,14.6C531.2,348.8,531.8,348.6,532.4,348.2z"/>
	</g>
	<g>
		
			<rect x="529.9" y="327.1" transform="matrix(0.7839 -0.6209 0.6209 0.7839 -94.5045 402.4895)" class="st5" width="2.2" height="19.8"/>
	</g>
	<g>
		
			<rect x="535.1" y="322.8" transform="matrix(0.7839 -0.6209 0.6209 0.7839 -90.7402 404.7968)" class="st5" width="2.2" height="19.8"/>
	</g>
	<g>
		<path class="st5" d="M536.3,320.3c-0.5,0.3-1.1,0.5-1.5,0.9l-0.3,0.1l12.3,15.5l0.3-0.1c0.5-0.4,0.9-0.8,1.3-1.2L536.3,320.3z"/>
	</g>
</g>
<path class="st21" d="M101.1,78.1c-0.5,0.5-1.1,1.2-1.6,1.9c1.2,0.3,3.8,0.7,7,0.7c7.4,0,18.7-2,27-12.7c-0.8-0.1-1.5-0.4-2.3-0.5
	C120.9,79.9,106.2,79,101.1,78.1z"/>
<path class="st21" d="M126.9,104.2c-14.3-4.9-26.2-5.9-34.1-5.8c0,0.7,0,1.5,0,2.2c7.8,0,19.5,0.9,33.6,5.7c0.1,0,0.3,0,0.3,0
	c0.4,0,0.8-0.3,0.9-0.7C127.7,105,127.4,104.4,126.9,104.2z"/>
<path class="st21" d="M152.2,80.2c-0.4-0.5-0.9-1.1-1.3-1.6c-12.7,10.4-24.5,25.2-25.2,26c-0.4,0.4-0.3,1.1,0.1,1.5
	c0.1,0.1,0.4,0.3,0.7,0.3s0.7-0.1,0.8-0.4C127.4,105.6,139.5,90.5,152.2,80.2z"/>
<path class="st21" d="M136.8,131.7c0.7-0.3,1.5-0.5,2.2-0.8c1.5-17.1,12.3-26.3,20-30.7c0-0.8,0-1.5-0.1-2.3
	C150.6,102.4,138.1,112.5,136.8,131.7z"/>
<path class="st21" d="M96.1,115.1c0.4,0.7,0.7,1.3,1.1,2c8.5-0.4,26.2,0.7,39,14.7c0.7-0.3,1.5-0.5,2.2-0.8
	C124.3,115.2,104.8,114.4,96.1,115.1z"/>
<path class="st10" d="M115.7,142.7c-0.4,0.1-0.7,0.3-0.9,0.4l18.3,60c0.1,0.4,0.5,0.8,0.9,0.8c0.1,0,0.3,0,0.3,0
	c0.5-0.1,0.8-0.8,0.7-1.3l-18.3-60C116.3,142.6,115.9,142.6,115.7,142.7z"/>
<path class="st22" d="M464,174.1v208.2c0,6.9-5.5,12.4-12.4,12.4H123c-6.9,0-12.4-5.5-12.4-12.4V178.4l14.4-0.1l162.7,85.9
	l164.5-90.1H464z"/>
<path class="st0" d="M113.5,390.2l173.9-126.2l-2.2-1.1l-173,125.5C112.7,389.2,113.1,389.7,113.5,390.2z"/>
<path class="st0" d="M460.7,390.6c0.5-0.5,0.9-1.1,1.3-1.6L290.1,262.8l-2.2,1.1L460.7,390.6z"/>
<path class="st5" d="M500.8,136.9l10.8-15.1c-0.4-0.5-0.8-1.1-1.3-1.6L499,136.1C499.5,136.5,500.2,136.8,500.8,136.9z"/>
<rect x="490" y="123.8" transform="matrix(0.5804 -0.8144 0.8144 0.5804 108.0394 459.5134)" class="st5" width="19.8" height="2.2"/>
<rect x="484.6" y="119.8" transform="matrix(0.5804 -0.8144 0.8144 0.5804 109.0267 453.4109)" class="st5" width="19.8" height="2.2"/>
<path class="st5" d="M495.2,109.4c-0.5-0.4-1.1-0.7-1.6-0.9l-11.3,15.8c0.4,0.4,0.8,0.8,1.3,1.2l0.3,0.1l11.5-16L495.2,109.4z"/>
</svg>
