<?xml version="1.0" encoding="utf-8"?>
<!-- Generator: Adobe Illustrator 25.2.3, SVG Export Plug-In . SVG Version: 6.00 Build 0)  -->
<svg version="1.1" id="Capa_1" xmlns="http://www.w3.org/2000/svg" xmlns:xlink="http://www.w3.org/1999/xlink" x="0px" y="0px"
	 viewBox="0 0 240 240" style="enable-background:new 0 0 240 240;" xml:space="preserve">
<style type="text/css">
	.st0{fill:#2E9E93;}
	.st1{fill:#FAF3E8;}
	.st2{fill:#EABC8B;}
	.st3{fill:#F4DBBA;}
	.st4{clip-path:url(#SVGID_2_);fill:none;stroke:#EABC8B;stroke-width:1.5246;stroke-miterlimit:10;}
	.st5{fill:#EAC496;}
	.st6{clip-path:url(#SVGID_4_);fill:none;stroke:#EAC496;stroke-width:1.5;stroke-miterlimit:10;}
	.st7{fill:none;stroke:#3C6850;stroke-width:4;stroke-miterlimit:10;}
	.st8{fill:#D9E8E8;}
	.st9{fill:#FFEAB0;}
	.st10{fill:#FFFFFF;}
	.st11{fill:#FFDC6F;}
	.st12{clip-path:url(#SVGID_6_);}
	.st13{clip-path:url(#SVGID_8_);}
	.st14{clip-path:url(#SVGID_8_);fill:none;stroke:#18736A;stroke-width:1.5;stroke-miterlimit:10;}
	.st15{clip-path:url(#SVGID_8_);fill:#FFDC6F;}
	.st16{fill:none;stroke:#FFFFFF;stroke-width:2;stroke-linecap:round;stroke-miterlimit:10;}
	.st17{clip-path:url(#SVGID_10_);fill:none;stroke:#18736A;stroke-width:1.5;stroke-miterlimit:10;}
	.st18{clip-path:url(#SVGID_12_);fill:#F4DBBA;}
	.st19{clip-path:url(#SVGID_14_);fill:none;stroke:#18736A;stroke-width:1.9655;stroke-miterlimit:10;}
	.st20{fill:none;stroke:#18736A;stroke-width:1.9655;stroke-miterlimit:10;}
	.st21{fill:none;}
	.st22{fill:#DBAE7D;}
	.st23{clip-path:url(#SVGID_16_);fill:none;stroke:#EABC8B;stroke-width:1.5246;stroke-miterlimit:10;}
	.st24{fill:none;stroke:#DBAE7D;stroke-width:1.5246;stroke-linecap:round;stroke-miterlimit:10;}
</style>
<path class="st1" d="M84.8,53.4C125.9,9.1,187.6,8.3,213.3,33.1c24.2,23.4,45.4,84.8,0.1,144.2C154.1,255,54.2,210.7,54.2,210.7
	s-59.8-20.1-53.8-88.6S70.9,68.4,84.8,53.4z"/>
<g>
	<g>
		
			<rect x="72.4" y="148.6" transform="matrix(0.9999 -1.092181e-02 1.092181e-02 0.9999 -1.8269 0.9375)" class="st2" width="25" height="38.3"/>
	</g>
	<g>
		<g>
			<g>
				<g>
					<g>
						<path class="st3" d="M43.8,42.7c-1.9,6.6-1.6,11.8,1.9,16.9C27.1,44.4,13,63.9,13,63.9c-16.1,21,5.2,36,5.2,36
							c-5.2,1.3-17.3,11-11.1,28.8c7.2,20.4,27.1,18,27.1,18c-5.1,21.3,17.3,29.6,17.3,29.6C74.1,184.9,85,164,85,164
							c14.9,25.5,43.1,5.2,43.1,5.2c23.3-19.6,10.6-35.3,10.6-35.3c14.5,2.1,28.5-12.7,29.5-30.9c0,0,0.3-23.6-25.6-30.9
							c0,0,13.5-16.7-5.6-32.8c-9-7.6-24.6-8.6-36,3.6c0,0-2.2-21-29.7-21.4C50,21.3,43.8,42.7,43.8,42.7z"/>
					</g>
				</g>
			</g>
		</g>
	</g>
</g>
<path class="st0" d="M204,68.6l-21.9,28.8c-0.9,1.2-2.3,1.9-3.8,1.9h0c-1.5,0-2.9-0.7-3.8-1.8l-11.7-14.9c-1.6-2.1-1.3-5.1,0.8-6.7
	c2.1-1.6,5.1-1.3,6.7,0.8l7.8,10l18.2-23.8c1.6-2.1,4.6-2.5,6.7-0.9C205.2,63.5,205.7,66.5,204,68.6z M183.4,32.2
	c-26.5,0-48,21.5-48,48c0,26.5,21.5,48,48,48c26.5,0,48-21.5,48-48C231.4,53.6,209.9,32.2,183.4,32.2z"/>
<path class="st21" d="M84.8,53.4C125.9,9.1,187.6,8.3,213.3,33.1c24.2,23.4,45.4,84.8,0.1,144.2C154.1,255,54.2,210.7,54.2,210.7
	s-59.8-20.1-53.8-88.6S70.9,68.4,84.8,53.4z"/>
<path class="st3" d="M3.2,43.2C0.8,61,18,60.7,18,60.7S21.1,43.8,3.2,43.2z"/>
<path class="st3" d="M124.7,169.5c-2.1,17.8,15.1,17.2,15.1,17.2S142.6,169.7,124.7,169.5z"/>
<circle class="st22" cx="69.3" cy="98.4" r="3.8"/>
<circle class="st22" cx="104.3" cy="98.4" r="3.8"/>
<g>
	<path class="st22" d="M92.7,106.6c-0.4,0-0.8-0.3-0.8-0.8c0-2.3-1.8-4.1-4.1-4.1c-2.3,0-4.1,1.8-4.1,4.1c0,0.4-0.3,0.8-0.8,0.8
		s-0.8-0.3-0.8-0.8c0-3.1,2.5-5.6,5.6-5.6s5.6,2.5,5.6,5.6C93.5,106.3,93.2,106.6,92.7,106.6z"/>
</g>
<path class="st2" d="M198.9,147.4c10-1.4,20.5,1.5,28.4,7.8c0.2-0.5,0.5-0.9,0.7-1.4c-8.1-6.4-19-9.4-29.3-7.9
	c-9,1.3-16,5.9-18.8,12.4c-1.3,3-1.6,6-1.5,8.9c-1.7-0.2-3.3-0.1-4.8,0.2c-6.2,1.4-11,7-11.9,13.4c-1.9-0.1-3.8,0.1-5.3,0.5
	c-8,2.4-14.3,10.7-15.3,20.2c-0.6,6,0.6,12.5,3.5,19.2c0.5-0.1,1-0.2,1.5-0.3c-3-6.6-4.1-12.9-3.5-18.7c0.9-8.9,6.8-16.7,14.2-18.9
	c1.4-0.4,3-0.5,4.7-0.5c-0.1,1.2,0,2.4,0.3,3.5c0.9,4.5,5.3,9.2,9.5,10.1c2.4,0.5,4.5-0.2,5.9-2.2c1.5-2,1.4-4.3,0-6.3
	c-2.4-3.4-8.3-6-13.9-6.6c0.9-5.7,5.2-10.8,10.7-12c1.4-0.3,3-0.3,4.6-0.2c0.3,2.4,0.9,4.6,1.5,6.4c0.9,2.6,2.1,4.5,3.7,5.8
	c2.4,1.9,4.5,1.7,5.6,1.4c1.5-0.4,2.7-1.5,3.1-2.7c0.8-2.3,0.3-4.7-1.6-6.8c-2.4-2.7-6.7-4.7-10.9-5.4c-0.2-2.8,0.1-5.7,1.3-8.5
	C183.9,152.9,190.5,148.6,198.9,147.4z M175.8,188.4c1.1,1.6,1.1,3.1,0,4.6c-1,1.4-2.5,2-4.3,1.6c-3.6-0.8-7.5-5.1-8.3-9
	c-0.2-1-0.3-2.1-0.2-3.1C168.2,183.1,173.7,185.4,175.8,188.4z M189.7,173.7c1.5,1.7,2,3.5,1.3,5.3c-0.3,0.8-1.1,1.5-2.1,1.7
	c-0.8,0.2-2.4,0.4-4.2-1.1c-1.4-1.1-2.4-2.8-3.2-5.1c-0.6-1.6-1.1-3.6-1.4-5.7C183.9,169.7,187.7,171.4,189.7,173.7z"/>
</svg>
