<?xml version="1.0" encoding="utf-8"?>
<!-- Generator: Adobe Illustrator 25.2.3, SVG Export Plug-In . SVG Version: 6.00 Build 0)  -->
<svg version="1.1" id="Capa_1" xmlns="http://www.w3.org/2000/svg" xmlns:xlink="http://www.w3.org/1999/xlink" x="0px" y="0px"
	 viewBox="0 0 132 108" style="enable-background:new 0 0 132 108;" xml:space="preserve">
<style type="text/css">
	.st0{fill:#FAF3E8;}
	.st1{fill:#FFFFFF;}
	.st2{fill:#EAA42C;}
	.st3{fill:#E9A32C;}
	.st4{fill:#D38013;}
	.st5{fill:#6D5235;}
	.st6{fill:#5D9E9B;}
	.st7{fill:#365B56;}
	.st8{fill:#FFDB70;}
	.st9{fill:#FBDEBD;}
	.st10{fill:#333333;}
	.st11{fill:#E9A32B;}
	.st12{fill:#637572;}
</style>
<g>
	<g>
		<path class="st0" d="M8.7,83.2c0,0-26.8-34.6,14-60.7c21-13.4,80.6-43.5,100.9,0.8c9.2,19.9,23,68.2-33.1,81.1
			C25.5,119.3,8.7,83.2,8.7,83.2z"/>
	</g>
	<g>
		<polygon class="st1" points="103.9,27 109.5,84.7 92.3,86.2 99.2,25.1 		"/>
	</g>
	<g>
		<polygon class="st1" points="48.5,31.4 38.5,82.5 92.3,86.2 98.4,33.6 		"/>
	</g>
	<g>
		<path class="st2" d="M47.8,35.7L97.4,41l1.9-15.9l-49.5-3.7C49.7,21.4,48.8,28.2,47.8,35.7z"/>
	</g>
	<g>
		<g>
			<g>
				<g>
					<g>
						
							<ellipse transform="matrix(0.2159 -0.9764 0.9764 0.2159 -7.7664 117.3864)" class="st3" cx="69.2" cy="63.5" rx="11.5" ry="12.5"/>
					</g>
				</g>
				<g>
					<g>
						
							<ellipse transform="matrix(0.2613 -0.9652 0.9652 0.2613 0.7054 118.0207)" class="st4" cx="77.5" cy="58.5" rx="0.4" ry="0.4"/>
					</g>
				</g>
				<g>
					<g>
						
							<ellipse transform="matrix(0.2613 -0.9652 0.9652 0.2613 -0.4004 121.7348)" class="st4" cx="79.3" cy="61.1" rx="0.4" ry="0.4"/>
					</g>
				</g>
				<g>
					<g>
						
							<ellipse transform="matrix(0.2613 -0.9652 0.9652 0.2613 -2.3142 118.9879)" class="st4" cx="76.6" cy="61" rx="0.4" ry="0.4"/>
					</g>
				</g>
				<g>
					<g>
						
							<ellipse transform="matrix(0.2613 -0.9652 0.9652 0.2613 -1.5237 114.8976)" class="st4" cx="74.3" cy="58.4" rx="0.4" ry="0.4"/>
					</g>
				</g>
				<g>
					<g>
						
							<ellipse transform="matrix(0.2613 -0.9652 0.9652 0.2613 -4.3246 116.1696)" class="st4" cx="73.7" cy="60.9" rx="0.4" ry="0.4"/>
					</g>
				</g>
				<g>
					<g>
						
							<ellipse transform="matrix(0.2613 -0.9652 0.9652 0.2613 -3.2338 124.5294)" class="st4" cx="79.7" cy="64.4" rx="0.4" ry="0.4"/>
					</g>
				</g>
				<g>
					<g>
						
							<ellipse transform="matrix(0.2613 -0.9652 0.9652 0.2613 -5.4545 121.3824)" class="st4" cx="76.6" cy="64.3" rx="0.4" ry="0.4"/>
					</g>
				</g>
				<g>
					<g>
						
							<ellipse transform="matrix(0.2613 -0.9652 0.9652 0.2613 -6.9717 125.3623)" class="st4" cx="78.4" cy="67.2" rx="0.4" ry="0.4"/>
					</g>
				</g>
				<g>
					<g>
						<path class="st5" d="M69.3,53.3c-0.4,0-0.8-0.2-0.8-0.4c0-0.1,0-0.1,0.1-0.2c0.1-0.1,0.4-0.2,0.8-0.2c0.4,0,0.8,0.2,0.8,0.4
							c0,0.1,0,0.1-0.1,0.2c0,0-0.1,0.1-0.2,0.1C69.7,53.3,69.5,53.3,69.3,53.3z M68.6,52.8C68.6,52.9,68.6,52.9,68.6,52.8
							L68.6,52.8c0,0.2,0.2,0.3,0.7,0.3c0.3,0,0.5-0.1,0.7-0.1c0,0,0,0,0-0.1c0-0.1-0.3-0.2-0.7-0.2c-0.2,0-0.4,0-0.5,0.1
							C68.7,52.8,68.6,52.8,68.6,52.8z"/>
					</g>
				</g>
			</g>
			<g>
				<g>
					<path class="st6" d="M69.1,49.5c7.5-5.6,14.5-0.1,14.5-0.1S76.6,55.4,69.1,49.5z"/>
				</g>
			</g>
		</g>
		<g>
			
				<rect x="69.1" y="46.3" transform="matrix(0.9999 -1.220156e-02 1.220156e-02 0.9999 -0.6004 0.8488)" class="st7" width="0.3" height="6.6"/>
		</g>
	</g>
	<g>
		<g>
			<polygon class="st8" points="8.4,32.1 15.8,23.2 47.2,47.4 39.8,56.3 			"/>
		</g>
		<g>
			<polygon class="st9" points="39.8,56.4 50.7,57.4 47.2,47.4 			"/>
		</g>
		<g>
			<polygon class="st10" points="48.2,57.2 50.7,57.4 49.9,55.2 			"/>
		</g>
		<g>
			<path class="st11" d="M15.7,23.2l-7.4,8.9l-4.2-3.2c-0.2-0.2-0.3-0.5-0.1-0.8l6.7-8.1c0.2-0.2,0.5-0.3,0.7-0.1L15.7,23.2z"/>
		</g>
	</g>
	<g>
		<path class="st10" d="M57,31.8c-1.5,0-2.7-1.2-2.7-2.6c0-1.4,1.2-2.6,2.7-2.6c1.5,0,2.7,1.2,2.7,2.6C59.7,30.6,58.5,31.8,57,31.8z
			 M57,27.1c-1.2,0-2.2,0.9-2.2,2.1c0,1.2,1,2.1,2.2,2.1c1.2,0,2.2-0.9,2.2-2.1C59.2,28.1,58.2,27.1,57,27.1z"/>
	</g>
	<g>
		<path class="st10" d="M73.1,32.7c-1.5,0-2.7-1.2-2.7-2.6c0-1.4,1.2-2.6,2.7-2.6c1.5,0,2.7,1.2,2.7,2.6
			C75.7,31.6,74.5,32.7,73.1,32.7z M73.1,28.1c-1.2,0-2.2,0.9-2.2,2.1s1,2.1,2.2,2.1c1.2,0,2.2-0.9,2.2-2.1S74.3,28.1,73.1,28.1z"/>
	</g>
	<g>
		<path class="st12" d="M57,29.2c-3.9,0-7.1-3.1-7.1-6.8s3.2-6.8,7.1-6.8c3.9,0,7.1,3.1,7.1,6.8c0,0.1-0.1,0.2-0.3,0.2
			c-0.1,0-0.3-0.1-0.3-0.2c0-3.5-2.9-6.3-6.5-6.3c-3.6,0-6.5,2.8-6.5,6.3s2.9,6.3,6.5,6.3c0.1,0,0.3,0.1,0.3,0.2
			C57.3,29.1,57.1,29.2,57,29.2z"/>
	</g>
	<g>
		<path class="st12" d="M73.1,30.2c-3.9,0-7.1-3.1-7.1-6.8s3.2-6.8,7.1-6.8c3.9,0,7.1,3.1,7.1,6.8c0,0.1-0.1,0.2-0.3,0.2
			c-0.1,0-0.3-0.1-0.3-0.2c0-3.5-2.9-6.3-6.5-6.3s-6.5,2.8-6.5,6.3s2.9,6.3,6.5,6.3c0.1,0,0.3,0.1,0.3,0.2
			C73.3,30.1,73.2,30.2,73.1,30.2z"/>
	</g>
	<g>
		<path class="st12" d="M90.4,31.7c-3.9,0-7.1-3.1-7.1-6.8s3.2-6.8,7.1-6.8c3.9,0,7.1,3.1,7.1,6.8c0,0.1-0.1,0.2-0.3,0.2
			c-0.1,0-0.3-0.1-0.3-0.2c0-3.5-2.9-6.3-6.5-6.3c-3.6,0-6.5,2.8-6.5,6.3s2.9,6.3,6.5,6.3c0.1,0,0.3,0.1,0.3,0.2
			C90.6,31.6,90.5,31.7,90.4,31.7z"/>
	</g>
	<g>
		<path class="st10" d="M90.4,34.4c-1.5,0-2.7-1.2-2.7-2.6s1.2-2.6,2.7-2.6c1.5,0,2.7,1.2,2.7,2.6S91.8,34.4,90.4,34.4z M90.4,29.7
			c-1.2,0-2.2,0.9-2.2,2.1c0,1.2,1,2.1,2.2,2.1c1.2,0,2.2-0.9,2.2-2.1C92.5,30.6,91.6,29.7,90.4,29.7z"/>
	</g>
	<polygon class="st10" points="102.8,26.5 106.8,84.9 107.2,84.9 103.3,26.7 	"/>
	<polygon class="st10" points="102.3,85.3 102.8,85.3 102,26.2 101.6,26 	"/>
	<polygon class="st10" points="97,85.8 97.5,85.7 100.5,25.6 100,25.4 	"/>
</g>
</svg>
