<?xml version="1.0" encoding="utf-8"?>
<!-- Generator: Adobe Illustrator 24.0.1, SVG Export Plug-In . SVG Version: 6.00 Build 0)  -->
<svg version="1.1" id="Capa_1" xmlns="http://www.w3.org/2000/svg" xmlns:xlink="http://www.w3.org/1999/xlink" x="0px" y="0px"
	 viewBox="0 0 429.2 440" style="enable-background:new 0 0 429.2 440;" xml:space="preserve">
<style type="text/css">
	.st0{fill:#FAF3E8;}
	.st1{fill:#5D9E9B;}
	.st2{fill:#EAA42C;}
	.st3{fill:#333333;}
	.st4{fill:#FFFFFF;}
	.st5{fill:#FFDC6F;}
	.st6{fill:#77695E;}
	.st7{fill:#222222;}
</style>
<g>
	<g>
		<path class="st0" d="M380.3,182.9c0,0-79.3-159.4-175.4-146.4S60.8,148.6,84.9,226.2s109,201.9,266.9,126.5
			C351.8,352.6,449.1,299.4,380.3,182.9z"/>
	</g>
	<g>
		<path class="st1" d="M150.6,109.4c-0.7,0-1.3-0.3-1.9-0.7c-6.6-6.1-48.1-49.7,45.6-84.4l62-24.1c2.6-1.1,4.9,2.4,2.8,4.4
			c-16.3,16.2-47.8,50.3-48.2,72.3c-0.3,16,0.5,24.5,1.1,28.5c0.3,1.6-0.9,3-2.5,3L150.6,109.4z"/>
	</g>
	<g>
		<path class="st2" d="M218,55.2l-84,25.7c1.2,14.2,11.7,24.9,14.7,27.8c0.5,0.5,1.2,0.8,1.9,0.7l55.6-0.9l5.3-1.3
			c0.3-0.5,0.5-1.2,0.4-1.7c-0.5-4-1.3-12.5-1.1-28.5C210.9,70.4,213.7,63,218,55.2z"/>
	</g>
	<g>
		<path class="st3" d="M177.2,249.1c-0.3,0-0.5-0.1-0.7-0.4c-0.1-0.3-2.9-6.4-10.6-6.4c-0.4,0-0.7-0.3-0.7-0.7
			c0-0.4,0.3-0.7,0.7-0.7c8.6,0,11.7,7.2,11.8,7.2c0.1,0.4,0,0.7-0.4,0.9C177.4,249.1,177.4,249.1,177.2,249.1z"/>
	</g>
	<g>
		<path class="st3" d="M222,259.3c-0.3,0-0.5-0.1-0.7-0.4s-2.9-6.4-10.6-6.4c-0.4,0-0.7-0.3-0.7-0.7s0.3-0.7,0.7-0.7
			c8.6,0,11.7,7.2,11.8,7.2c0.1,0.4,0,0.7-0.4,0.9C222.2,259.3,222,259.3,222,259.3z"/>
	</g>
	<g>
		<g>
			
				<rect x="109" y="202" transform="matrix(0.2053 -0.9787 0.9787 0.2053 -175.2597 451.2034)" class="st4" width="162.4" height="263.1"/>
		</g>
		<g>
			
				<rect x="-20.3" y="294.4" transform="matrix(0.2053 -0.9787 0.9787 0.2053 -251.5608 303.1689)" class="st2" width="162.4" height="24.1"/>
		</g>
		<g>
			
				<rect x="226" y="345.8" transform="matrix(0.2053 -0.9787 0.9787 0.2053 -106.1491 585.0479)" class="st2" width="162.4" height="24.1"/>
		</g>
		<g>
			<polygon class="st2" points="189,335.7 73.7,244.1 76,240.9 189.8,331.2 320.6,286.5 321.9,290.2 			"/>
		</g>
	</g>
	<g>
		<circle class="st5" cx="11.7" cy="260.1" r="11.7"/>
	</g>
	<g>
		<path class="st4" d="M83.6,138.8c13.9,8.5,42,26.5,42,26.5c160.6,102,188.1-62.3,188.1-62.3s-6.5-18.1-45-8.6
			c-66.6,16.4-111.9,15-111.9,15s-9.8-6-38.2-8.6c-28.3-2.8-38.2,27.8-38.2,27.8l1.1,9.3"/>
	</g>
	<g>
		<circle class="st7" cx="108.8" cy="133.6" r="3.7"/>
	</g>
	<g>
		<path class="st3" d="M166.1,242.4L166.1,242.4c-0.4,0-0.7-0.3-0.7-0.7c0-18.3,4.9-30.6,9-37.9c4.5-7.8,9-11.3,9.1-11.4
			c0.3-0.3,0.7-0.1,0.9,0.1c0.3,0.3,0.1,0.7-0.1,0.9c-0.1,0.1-17.6,13.8-17.8,48.1C166.8,242.1,166.5,242.4,166.1,242.4z"/>
	</g>
	<g>
		<path class="st3" d="M129,268.2L129,268.2c-0.4,0-0.7-0.3-0.7-0.7c0.1-7,2.6-12.8,7.4-17.2c10.9-10.1,29.5-9.4,30.3-9.3
			c0.4,0,0.7,0.3,0.7,0.7s-0.4,0.7-0.7,0.7c-0.1,0-18.9-0.8-29.4,9c-4.5,4.1-6.8,9.5-7,16.3C129.7,267.9,129.4,268.2,129,268.2z"/>
	</g>
	<g>
		<path class="st3" d="M144.3,271.4L144.3,271.4c-0.4,0-0.7-0.3-0.7-0.7c0.4-14.4,6.5-21.9,11.5-25.4c5.4-3.8,10.7-4.4,11-4.4
			c0.4,0,0.7,0.3,0.7,0.7s-0.3,0.7-0.7,0.7c-0.8,0-20.5,1.9-21.2,28.5C144.9,271.1,144.7,271.4,144.3,271.4z"/>
	</g>
	<g>
		<path class="st3" d="M158.6,274.9L158.6,274.9c-0.4,0-0.7-0.3-0.7-0.7c0.8-27.6,7.4-32.9,7.8-33c0.3-0.3,0.7-0.1,0.9,0.1
			c0.3,0.3,0.1,0.7-0.1,0.9c-0.1,0.1-6.5,5.4-7.3,32.1C159.2,274.5,159,274.9,158.6,274.9z"/>
	</g>
	<g>
		<path class="st3" d="M210.8,252.4L210.8,252.4c-0.4,0-0.7-0.3-0.7-0.7c0-18.3,4.9-30.6,9-37.9c4.5-7.8,9-11.3,9.1-11.4
			c0.3-0.3,0.7-0.1,0.9,0.1c0.3,0.3,0.1,0.7-0.1,0.9c-0.1,0.1-17.8,13.8-17.8,48.1C211.4,252.2,211.2,252.4,210.8,252.4z"/>
	</g>
	<g>
		<path class="st3" d="M173.8,278.4L173.8,278.4c-0.4,0-0.7-0.3-0.7-0.7c0.1-7,2.6-12.8,7.4-17.2c10.9-10.1,29.5-9.4,30.3-9.3
			c0.4,0,0.7,0.3,0.7,0.7s-0.4,0.7-0.7,0.7c-0.1,0-18.9-0.8-29.4,9c-4.5,4.1-6.8,9.5-7,16.3C174.5,278.1,174.1,278.4,173.8,278.4z"
			/>
	</g>
	<g>
		<path class="st3" d="M189,281.6C189,281.6,188.9,281.6,189,281.6c-0.4,0-0.7-0.3-0.7-0.7c0.4-14.4,6.5-21.9,11.5-25.4
			c5.4-3.8,10.7-4.4,11-4.4c0.4,0,0.7,0.3,0.7,0.7s-0.3,0.7-0.7,0.7c-0.8,0-20.5,1.9-21.2,28.3C189.7,281.3,189.3,281.6,189,281.6z"
			/>
	</g>
	<g>
		<path class="st3" d="M203.3,285L203.3,285c-0.4,0-0.7-0.3-0.7-0.7c0.8-27.6,7.4-32.9,7.8-33c0.3-0.3,0.7-0.1,0.9,0.1
			c0.3,0.3,0.1,0.7-0.1,0.9c-0.1,0.1-6.5,5.4-7.3,32.1C204,284.7,203.7,285,203.3,285z"/>
	</g>
	<g>
		<path class="st1" d="M365.1,65.1L331.7,81c0,0-74.6-0.5-141.2,18.3c-6.1,1.7-17.4,4.6-26,7.4c-8.6,2.8-19.1-1.5-19.1-1.5
			c-23.4-8.9-38.2-3.8-43.3-2.3c0,0-12.8,3.7-21.9,25.4l6.6,10.2c0,0,13.9-16.3,21.3-17.4c29.1-4.2,33.1,17.4,33.1,17.4
			s40.9,16,81.3,16.6c30.6,0.4,54.7-7.2,80-17.9"/>
	</g>
	<g>
		<polygon class="st5" points="80.1,128.3 86.9,138.5 70.7,138.9 		"/>
	</g>
	<g>
		<path class="st1" d="M149.6,124.6c1.5,6.1,17.4,96,96.2,89.3c19.9-1.7,78.7-15.4,105.6-21.7c2.9-0.7,2.8-4.9-0.3-5.4
			c-20.3-3.2-58.3-9.7-82.5-17.4c-10.5-3.3-24.9-14.2-35.9-32.2"/>
	</g>
	<g>
		<polygon class="st1" points="128.2,167 142,137.3 154.2,139.4 138.8,173.3 		"/>
	</g>
	<g>
		<path class="st2" d="M288.8,82.9c2,0.5,40.8,23.4,40.8,23.4l82.1-56.6c0,0-6.4-6.6-24,2.6c-17.9,9.5-43.8,22.1-43.8,22.1
			L288.8,82.9z"/>
	</g>
	<g>
		<path class="st7" d="M329.6,106.3l86.1-41.1c0,0-8.7-9.4-26.4-0.1c-17.9,9.5-43.8,22.1-43.8,22.1"/>
	</g>
	<g>
		<path class="st5" d="M416.3,172.4c0.1-1.2,12.8-5.2,12.8-5.2s-11.3-3-11.8-3.8c-0.5-0.7-4.6-15.4-4.6-15.4l-5.3,15.6l-13.1,4.4
			l13.8,3.3l4.6,17.5C412.8,188.8,415.7,176.4,416.3,172.4z"/>
	</g>
</g>
</svg>
