<svg width="146" height="126" viewBox="0 0 146 126" fill="none" xmlns="http://www.w3.org/2000/svg">
<path d="M134.747 54.6362C127.531 30.0754 105.003 11.9142 80.2746 3.9579C72.2666 1.36345 63.9066 -0.366188 55.4586 0.0662206C47.0986 0.498629 39.0026 3.09308 31.2586 6.11994C23.4266 9.1468 15.5066 12.6925 9.8746 18.8327C2.8346 26.4431 0.282604 37.1669 0.0186035 47.4582C-0.509397 72.3649 12.3386 97.0987 33.1066 111.282C76.4026 140.772 152.435 114.914 134.747 54.6362Z" fill="#FFE9D2"/>
<path d="M136.419 81.2726C132.811 81.0996 129.027 81.1861 127.003 80.1483C122.867 78.1592 118.379 77.2944 113.803 76.5161C84.6746 71.7596 54.8426 70.8083 25.4506 73.8351C23.7786 74.0081 22.0186 74.1811 20.4346 74.8729C17.8826 75.9107 11.8106 78.7646 7.76257 81.359C13.4826 93.207 22.2826 103.585 33.1946 111.109C69.3626 135.929 128.499 121.832 136.419 81.2726Z" fill="#F9E2C2"/>
<path d="M29.1466 56.7983C24.4826 50.4851 18.5866 55.4146 18.5866 55.4146C21.0506 50.9175 22.4586 46.5934 18.1466 44.7773C14.0986 43.0477 12.6906 44.4314 12.6906 44.4314C14.8026 40.1938 14.9786 35.6967 9.69863 34.3995C6.17863 33.5347 3.18663 35.5238 0.986627 37.8588C0.370627 40.9721 0.106626 44.2584 0.0186264 47.3718C-0.245374 58.6144 2.30663 69.9435 7.05863 80.1483L27.7386 79.197C33.3706 63.8033 29.1466 56.7983 29.1466 56.7983Z" fill="#5D9E9B"/>
<path d="M134.747 54.6362C132.811 48.0636 129.731 41.9234 125.859 36.3021C125.155 39.3289 124.539 42.2693 124.187 45.3827C124.539 42.0964 124.891 38.81 125.243 35.5237C123.395 33.0158 121.459 30.5943 119.347 28.3458C116.883 32.6698 115.827 37.8587 115.035 42.7882C114.683 41.2315 114.947 39.6749 114.771 38.1182C114.595 36.5615 113.803 34.9184 112.219 34.486C110.899 34.14 109.491 34.7454 108.611 35.6967C107.731 36.648 107.203 37.9452 106.763 39.156C104.123 46.5934 103.771 64.9275 106.675 80.8401L136.155 82.2239C138.003 74.0946 137.739 64.9275 134.747 54.6362Z" fill="#EFCEA8"/>
<path d="M116.531 81.532C115.651 74.4405 112.043 50.2256 103.067 38.4641L103.595 38.1182C106.587 42.0098 113.803 53.9443 117.235 81.532H116.531Z" fill="#CEA27C"/>
<path d="M98.2266 61.7276H95.8507V50.8309C95.8507 36.9074 84.3226 25.5783 70.1546 25.5783C55.9866 25.5783 44.4586 36.9074 44.4586 50.8309V59.998H42.0826V50.8309C42.0826 35.6102 54.6666 23.2433 70.1546 23.2433C85.6426 23.2433 98.2266 35.6102 98.2266 50.8309V61.7276Z" fill="#D6852D"/>
<path d="M14.4507 59.8251L60.8267 59.3927L66.7227 93.1206L27.0347 92.4287L14.4507 59.8251Z" fill="#EAA42C"/>
<path d="M60.3866 59.3062H115.739L107.555 93.1205H66.7226L60.3866 59.3062Z" fill="#EAA42C"/>
<path d="M94.6186 125.465C94.4426 125.465 94.3546 125.378 94.2666 125.205C94.1786 125.032 86.6986 110.59 97.0826 101.596C97.1706 101.509 101.219 97.8771 106.763 98.223C107.907 95.1096 110.283 92.1693 112.835 89.9207C116.267 86.9804 119.523 85.4237 122.867 85.2507C123.483 83.6941 124.539 81.9644 126.123 80.0618C135.363 69.3381 145.131 75.7377 145.219 75.8242C145.395 75.9972 145.483 76.2566 145.307 76.4296C145.131 76.6026 144.867 76.689 144.691 76.5161C144.339 76.2566 135.539 70.4624 126.827 80.5807C125.507 82.1374 124.451 83.6941 123.835 85.1642C125.683 85.1642 127.443 85.6831 129.291 86.548C130.611 87.1533 132.899 88.537 133.427 90.6991C133.779 92.0828 133.339 93.4665 132.195 94.8502C131.315 95.9745 129.819 96.4069 128.147 96.1474C125.683 95.8015 123.483 93.9854 122.603 91.5639C122.163 90.4396 121.811 88.537 122.603 86.0291C119.611 86.2885 116.531 87.7587 113.451 90.4396C110.195 93.2935 108.435 95.888 107.643 98.223C109.051 98.3959 110.547 98.8283 112.043 99.6932C113.539 100.558 116.531 102.807 116.795 105.401C116.883 106.785 116.267 107.995 114.947 109.12C113.891 109.984 112.747 110.244 111.427 110.071C109.931 109.812 108.523 108.774 107.643 107.39C105.971 104.623 105.795 101.769 106.587 99.0013C101.659 98.8284 97.9626 102.028 97.7866 102.201C87.9306 110.763 95.1466 124.6 95.1466 124.773C95.2346 124.946 95.1466 125.205 94.9706 125.378C94.7066 125.465 94.7066 125.465 94.6186 125.465ZM107.291 99.1743C106.147 103.066 107.555 105.92 108.259 107.044C109.051 108.255 110.195 109.12 111.515 109.379C112.571 109.552 113.539 109.293 114.331 108.601C115.475 107.736 116.003 106.698 115.915 105.66C115.739 103.585 113.275 101.509 111.603 100.644C110.019 99.7797 108.611 99.3472 107.291 99.1743ZM123.395 86.1155C122.691 88.0181 122.691 89.8343 123.307 91.3909C124.275 93.9854 126.563 95.1961 128.147 95.3691C129.555 95.542 130.699 95.1961 131.403 94.3313C132.371 93.1206 132.723 91.9098 132.547 90.872C132.107 88.9694 129.819 87.7587 128.851 87.2398C127.003 86.548 125.243 86.1155 123.395 86.1155Z" fill="#5D9E9B"/>
<path d="M60.7484 59.3014L60.0496 59.3856L64.2691 93.2073L64.9679 93.1231L60.7484 59.3014Z" fill="#D6852D"/>
<path d="M78.9546 74.6135C80.3154 74.6135 81.4186 73.5293 81.4186 72.192C81.4186 70.8546 80.3154 69.7705 78.9546 69.7705C77.5938 69.7705 76.4906 70.8546 76.4906 72.192C76.4906 73.5293 77.5938 74.6135 78.9546 74.6135Z" fill="#333333"/>
<path d="M101.395 74.6135C102.755 74.6135 103.859 73.5293 103.859 72.192C103.859 70.8546 102.755 69.7705 101.395 69.7705C100.034 69.7705 98.9307 70.8546 98.9307 72.192C98.9307 73.5293 100.034 74.6135 101.395 74.6135Z" fill="#333333"/>
<path d="M103.859 42.0099C105.997 42.0099 107.731 40.3062 107.731 38.2047C107.731 36.1031 105.997 34.3995 103.859 34.3995C101.72 34.3995 99.9866 36.1031 99.9866 38.2047C99.9866 40.3062 101.72 42.0099 103.859 42.0099Z" fill="#FAF3E8"/>
<path d="M94.5306 78.8511C94.3546 78.8511 94.1786 78.6781 94.1786 78.5051C94.1786 76.689 92.6826 75.2188 90.8346 75.2188C88.9866 75.2188 87.4906 76.689 87.4906 78.5051C87.4906 78.6781 87.3146 78.8511 87.1386 78.8511C86.9626 78.8511 86.7866 78.6781 86.7866 78.5051C86.7866 76.2566 88.6346 74.527 90.8346 74.527C93.0346 74.527 94.8826 76.3431 94.8826 78.5051C94.8826 78.6781 94.7946 78.8511 94.5306 78.8511Z" fill="#333333"/>
<path d="M61.9707 70.4623H18.5867L18.8507 71.1541H61.9707V70.4623Z" fill="#D6852D"/>
<path d="M63.2906 81.7914H22.9866L23.2506 82.4832H63.2906V81.7914Z" fill="#D6852D"/>
<path d="M2.21859 66.2247C3.80259 61.2952 5.73859 56.5387 8.73059 52.6471L8.20259 52.3011C5.38659 56.0199 3.45059 60.5169 1.95459 65.1004C2.04259 65.3599 2.13059 65.7923 2.21859 66.2247Z" fill="#2C6662"/>
<path d="M9.69866 54.2038C11.8371 54.2038 13.5707 52.5001 13.5707 50.3986C13.5707 48.297 11.8371 46.5934 9.69866 46.5934C7.56021 46.5934 5.82666 48.297 5.82666 50.3986C5.82666 52.5001 7.56021 54.2038 9.69866 54.2038Z" fill="#FAF3E8"/>
</svg>
