<?xml version="1.0" encoding="utf-8"?>
<!-- Generator: Adobe Illustrator 24.0.0, SVG Export Plug-In . SVG Version: 6.00 Build 0)  -->
<svg version="1.1" xmlns="http://www.w3.org/2000/svg" xmlns:xlink="http://www.w3.org/1999/xlink" x="0px" y="0px"
	 viewBox="0 0 2068.4 1378.9" style="enable-background:new 0 0 2068.4 1378.9;" xml:space="preserve">
<style type="text/css">
	.st0{fill:#FFFFFF;stroke:#212121;stroke-width:0.5362;stroke-miterlimit:10;}
	.st1{fill:#282828;}
	.st2{fill:#FBE0D4;}
	.st3{fill:none;stroke:#212121;stroke-width:0.4912;stroke-miterlimit:10;}
	.st4{fill:none;stroke:#282828;stroke-width:0.4868;stroke-linecap:round;stroke-miterlimit:10;}
	.st5{fill:none;stroke:#282828;stroke-width:0.5484;stroke-linecap:round;stroke-miterlimit:10;}
	.st6{fill:#5C9D9A;}
	.st7{fill:none;stroke:#282828;stroke-width:0.451;stroke-linecap:round;stroke-miterlimit:10;}
	.st8{clip-path:url(#SVGID_2_);fill:#EACEC8;}
	.st9{fill:#558D8A;}
	.st10{fill:none;stroke:#212121;stroke-width:0.5362;stroke-miterlimit:10;}
	.st11{fill:none;stroke:#67523C;stroke-width:0.9831;stroke-miterlimit:10;}
	.st12{fill:#42A89A;}
	.st13{fill:#D87D23;}
	.st14{fill:#C0A162;}
	.st15{fill:#EAA42C;}
	.st16{fill:#EEA908;}
	.st17{fill:#FFFFFF;stroke:#212121;stroke-width:2.5565;stroke-miterlimit:10;}
	.st18{fill:none;stroke:#212121;stroke-width:2.3421;stroke-miterlimit:10;}
	.st19{fill:none;stroke:#282828;stroke-width:2.321;stroke-linecap:round;stroke-miterlimit:10;}
	.st20{fill:none;stroke:#282828;stroke-width:2.6147;stroke-linecap:round;stroke-miterlimit:10;}
	.st21{fill:none;stroke:#282828;stroke-width:2.1502;stroke-linecap:round;stroke-miterlimit:10;}
	.st22{fill:none;}
	.st23{fill:none;stroke:#212121;stroke-width:2.5565;stroke-miterlimit:10;}
	.st24{fill:none;stroke:#67523C;stroke-width:4.6872;stroke-miterlimit:10;}
	.st25{clip-path:url(#SVGID_4_);fill:#EACEC8;}
	.st26{fill:#5D9E9B;}
	.st27{fill:#EACEC8;}
</style>
<g id="lineas">
</g>
<g id="TORSO">
</g>
<g id="brazo_izq">
</g>
<g id="Capa_1">
</g>
<g id="pierna_izq">
</g>
<g id="pierna_der">
</g>
<g id="caja_naranjas">
</g>
<g id="MANO">
</g>
<g id="brazo">
</g>
<g id="Capa_4">
</g>
<g id="naranjas_volando">
</g>
<g id="sombrero_detras">
</g>
<g id="sombrero">
</g>
<g id="flequillo">
	<path class="st17" d="M782.3,738.8c0,0-77.6-248-40.9-334.1c0,0,14.8-30.7,45.3-44.6c21-9.6,28.1-15.8,61.2-16.8
		c0,0,66.9-2.8,82,37.5l96.6,262.4L782.3,738.8z"/>
	<path class="st17" d="M914.3,360.6c195.9,120.2,327.5,45.6,331.4,46.3c3.9,0.7-3.5,96.2-3.5,96.2
		c-285.9,71.7-404.7-45.8-404.7-45.8"/>
	<polyline class="st1" points="801.1,252.8 796.8,202.7 782.4,208 793.7,257.6 800,252.8 	"/>
	<path class="st2" d="M806.2,295.8c-2.6-16.4-9.4-93.2-9.4-93.2l115.6-25.1c0,0,3.9,49.4,7.4,76.8c3.6,27.5-9.8,40.2-21.5,46.5
		c-17.9,9.7-12.8,48.2-12.8,48.2l-0.3,0.5c0,0-36,18-75.5,3C809.7,352.7,808.5,309.9,806.2,295.8z"/>
	<circle class="st2" cx="798.9" cy="253.7" r="20.3"/>
	<path class="st18" d="M881.4,207.1c0,0-2,29.7,6.2,34.1c8.3,4.4,5.9,10.1-3,9.4"/>
	<path class="st18" d="M888.5,265.2c0,0-9,1.2-16.3-5.6"/>
	<circle class="st1" cx="898.3" cy="218.7" r="3.3"/>
	<circle class="st1" cx="855.5" cy="222.5" r="3.3"/>
	<path class="st19" d="M905.7,211.6c0,0-8.7-6.1-15.1,1.3"/>
	<path class="st20" d="M863.6,212.2c0,0-11.4-4.2-18.6,4.7"/>
	<path class="st6" d="M832.5,432.8c0,0,49.8,207.9,96,292.4l136.3-28.5c0,0-101.5-250.7-116.1-286.3l-0.4-1l-17.9-42.1
		c0,0-11.8-10.3-31-17.7l23.1,68"/>
	<polyline class="st6" points="832.5,447 778.2,361.4 800.4,351.1 852.3,434.3 	"/>
	<path class="st21" d="M786.2,256.8c-0.1,1.3,1.6,8.8,11.6,9.8"/>
	<path class="st22" d="M806.2,295.8c-2.6-16.4-9.4-93.2-9.4-93.2l115.6-25.1c0,0,3.9,49.4,7.4,76.8c3.6,27.5-9.8,40.2-21.5,46.5
		c-17.9,9.7-12.8,48.2-12.8,48.2l-0.3,0.5c0,0-36,18-75.5,3C809.7,352.7,808.5,309.9,806.2,295.8z"/>
	<path class="st9" d="M435.5,850.5c0,0,100.8,195.8,134.4,225.5c55.4,48.8,84.5,61.6,145.4-27.1c73.9-107.5,64.8-316.3,64.8-316.3
		l220.9,122.2c0,0-84.4,314.7-207.1,395.3c-86.8,56.9-236.7,93.4-337.9-92.8c-33.6-61.8-60-128.2-101.4-262.3L435.5,850.5z"/>
	<path class="st23" d="M1410.1,1045.2c0,0,114.6-54,212-18.5c97.5,35.5,197.8-10.1,197.8-10.1"/>
	<path class="st6" d="M778.8,732.4l126.8-63h76.7c0,0,51.6,24.7,91.9,9.7s405.5-129.7,567.5,7.4c58.9,49.9,95.5,108,84.6,296.9
		l-9.5,154.1l-96.3,8.3c0,0,16.7-330.6-160.1-332.6c-78.4-0.9-195.2,21.4-307.6,60.2C871.4,970.5,813.7,882.8,778.8,732.4z"/>
	<path class="st23" d="M136.7,266.5c0,0,71.4-17.6,106.4-5.3c35,12.3,40.4,30.5,102.4,23"/>
	<path class="st23" d="M445.4,449.5c0,0,46,0,102.3,15.3s107.4,0,107.4,0"/>
	<line class="st24" x1="1187.4" y1="344.9" x2="1199.1" y2="304.2"/>
	<path class="st12" d="M1199,318.3c0,0,21.6-8.7,33.5,9.6C1232.5,328,1211.6,336.3,1199,318.3z"/>
	<circle class="st13" cx="1179.7" cy="374.5" r="43.6"/>
	<line class="st24" x1="1250.9" y1="363.2" x2="1262.7" y2="322.6"/>
	<path class="st12" d="M1262.6,335.7c0,0,21.6-8.7,33.5,9.6C1296,345.3,1275.1,353.7,1262.6,335.7z"/>
	<circle class="st13" cx="1243.2" cy="392.9" r="43.6"/>
	<line class="st24" x1="1102.6" y1="349.8" x2="1114.3" y2="309.2"/>
	<path class="st12" d="M1114.2,323.3c0,0,21.6-8.7,33.5,9.6C1147.6,332.9,1126.7,341.3,1114.2,323.3z"/>
	<circle class="st13" cx="1102.6" cy="380.9" r="43.6"/>
	<line class="st24" x1="1050" y1="360" x2="1051.9" y2="317.7"/>
	<path class="st12" d="M1054.9,331c0,0,18.9-13.6,34.8,1.5C1089.7,332.5,1071.3,345.5,1054.9,331z"/>
	<circle class="st13" cx="1057.3" cy="390.2" r="43.6"/>
	<rect x="1001.4" y="386.9" class="st14" width="306.2" height="191.4"/>
	<path class="st2" d="M1206.7,432.2l3.6,114.1l118.1-40.4c0,0,10.6-6.1,8.4-19.4c0,0-3.5-8.1-8.8-9.8c0,0,9.8-6.4,9.1-20.2
		c0,0-1.2-15.6-13.1-15.6c0,0,10.1-4.6,10.1-17.9c0,0-2.5-15-14.5-13.3c0,0,8.4-8.1,6.2-17.4c0,0-2.4-14.5-18.1-10.4
		c0,0-27.6,11.6-28.9,11.6s-4.8-14.7-17.2-12.3C1249.2,383.6,1206.7,432.2,1206.7,432.2z"/>
	<path class="st17" d="M782,567.6c0,0,161.3,150.1,440.1-14.2c0,0-10-129.4-14.9-134.4c-2.8-2.8-177.3,127.5-391.1,4.8"/>
	<path class="st1" d="M359,942.1l105.1-51.5l-63.4-169l-15.1,3.3l2.8,19c0,0-12.7-9.7-33.3-4.5s-160.8,46.8-160.8,46.8
		s-16.8,5.7-14.2,16.7c0,0,5.3,5.4,21.5,3.6c16.2-1.8,102.6-10.1,113.5,0.4C325.8,817.4,359,942.1,359,942.1z"/>
	<path class="st1" d="M1723.7,1118.1l-107.8,12.8l6.5,166.9l15.4,0.5l2-19.1c0,0,9.9,12.5,31.2,12.5s167.4-6.1,167.4-6.1
		s17.6-1.5,17.9-12.7c0,0-3.8-6.5-20-8.7s-102-15.3-110-28.1C1718.4,1223.3,1723.7,1118.1,1723.7,1118.1z"/>
	<line class="st24" x1="561.4" y1="263.6" x2="546.5" y2="224"/>
	<path class="st12" d="M554.6,235.8c0,0,12.1-19.9,32.6-12.3C587.2,223.5,575.4,242.7,554.6,235.8z"/>
	<circle class="st13" cx="572.9" cy="292" r="43.6"/>
	<line class="st24" x1="1134.6" y1="183.2" x2="1162.7" y2="151.6"/>
	<path class="st12" d="M1156.1,164.2c0,0,23.3,1.4,26,23.2C1182.1,187.4,1159.6,185.9,1156.1,164.2z"/>
	<circle class="st13" cx="1114.8" cy="206.6" r="43.6"/>
	<line class="st24" x1="331.1" y1="372.2" x2="346.9" y2="333"/>
	<path class="st12" d="M345.5,346.8c0,0,22.4-6.5,32.3,13C377.8,359.8,356.1,366,345.5,346.8z"/>
	<circle class="st13" cx="320.4" cy="401" r="43.6"/>
	<path class="st15" d="M773.3,187.8l7.3-55.5c0,0,3.9-33.1,17.2-25.6c0,0,11.5,6.4,15.8,10.2s6.4,4.7,13.1-8.3
		c6.8-13,16.6-39.5,28-22.5s41,57.4,41,57.4S816,189.1,773.3,187.8z"/>
	<path class="st16" d="M779.3,175.6c0,0-56.8,23.4-60.7,40.9c-2.2,9.8,9.2,6.4,54.4-2.5c17.9-3.5,8.4-4.6,78.8-26.1
		c52.8-16.1,122.6-28.8,132.2-40.8s-10.3-38.2-106.6-7.2"/>
	<path class="st1" d="M829.8,198.3c0,0,13.7-6.5,40.3-9.9c26.1-3.4,57.8-12.5,58.4-26.4c0,0,2.7-9.7-10.8-6.7c0,0-4.6-12.6-18.1-6.9
		c-13.5,5.7-13.2,14.8-13.2,14.8s-10.6-10.9-19.7-3.6s-23.5,21.8-23.5,21.8s-44.5,25.6-56,28.6C787.3,209.9,803.3,211.6,829.8,198.3
		z"/>
	<path class="st27" d="M869.8,302c-17-4.2-6.2,5.3-0.5,9.4c3.9,2.8,11.2,7.6,16.8,11.2c1.6-8.9,5-17.6,12.3-21.6
		C898.4,301,886,306,869.8,302z"/>
</g>
</svg>
