<?xml version="1.0" encoding="utf-8"?>
<!-- Generator: Adobe Illustrator 24.0.1, SVG Export Plug-In . SVG Version: 6.00 Build 0)  -->
<svg version="1.1" id="Capa_1" xmlns="http://www.w3.org/2000/svg" xmlns:xlink="http://www.w3.org/1999/xlink" x="0px" y="0px"
	 viewBox="0 0 532.7 438.9" style="enable-background:new 0 0 532.7 438.9;" xml:space="preserve">
<style type="text/css">
	.st0{fill:#FAF3E8;}
	.st1{fill:#F8CE8A;}
	.st2{fill:#333333;}
	.st3{fill:none;}
	.st4{fill:#CE7A15;}
	.st5{fill:#5D9E9B;}
	.st6{fill:#EAA42C;}
	.st7{fill:#FFDC6F;}
	.st8{clip-path:url(#SVGID_2_);}
	.st9{clip-path:url(#SVGID_4_);}
	.st10{clip-path:url(#SVGID_6_);}
</style>
<g>
	<g>
		<path class="st0" d="M118.7,174.5c-46.8,53-107.3,117.6-11.8,204.8c26.8,24.4,71.6,52.1,145.2,57.3c92.3,6.5,212.9,2.1,258.1-60.7
			s17.4-168.8-40.1-269.8S287.4,3.5,287.4,3.5S203.8-1.8,169,74.9S136.1,154.7,118.7,174.5z"/>
	</g>
	<g>
		<path class="st1" d="M403,339.7c-132.4-20.1-246.8,3.2-325.8,6.9c7.5,10.5,17.3,21.4,29.7,32.7c26.8,24.4,71.6,52.1,145.2,57.3
			c92.3,6.5,212.9,2.1,258.1-60.7c2.6-3.5,5-7.3,7-11.2C486.9,355.8,449,346.7,403,339.7z"/>
	</g>
	<g>
		<path class="st2" d="M305.6,376.4c-0.5,0-0.8-0.3-0.8-0.8c-0.5-9.6-12.8-12-12.9-12c-0.5-0.2-0.6-0.5-0.6-1c0-0.5,0.5-0.6,1-0.6
			c0.2,0,13.7,2.7,14.2,13.6C306.4,376,306.1,376.3,305.6,376.4L305.6,376.4z"/>
	</g>
	<g>
		<path class="st3" d="M118.7,174.5c-46.8,53-107.3,117.6-11.8,204.8c26.8,24.4,71.6,52.1,145.2,57.3c92.3,6.5,212.9,2.1,258.1-60.7
			s17.4-168.8-40.1-269.8S287.4,3.5,287.4,3.5S203.8-1.8,169,74.9S136.1,154.7,118.7,174.5z"/>
	</g>
	<g>
		<g>
			
				<ellipse transform="matrix(0.3368 -0.9416 0.9416 0.3368 90.4544 206.8915)" class="st4" cx="192.1" cy="39.2" rx="12.5" ry="11.5"/>
		</g>
		<g>
			<path class="st4" d="M171.4,63.1c0,0,3.4-14.4,9.9-27.6l20,10.7c0,0-4.2,8.1-17.9,23.6L171.4,63.1z"/>
		</g>
	</g>
	<g>
		<g>
			<ellipse transform="matrix(0.7265 -0.6872 0.6872 0.7265 15.8473 157.23)" class="st4" cx="205.4" cy="58.7" rx="9.1" ry="8.5"/>
		</g>
		<g>
			<path class="st4" d="M183.9,67.5c0,0,7-8.5,15.7-14.9l9.6,13.7c0,0-5.4,4-19.6,9.6L183.9,67.5z"/>
		</g>
	</g>
	<g>
		<g>
			
				<ellipse transform="matrix(0.9954 -9.627941e-02 9.627941e-02 0.9954 -2.9841 16.6893)" class="st4" cx="171.4" cy="39.3" rx="8.5" ry="9.1"/>
		</g>
		<g>
			<path class="st4" d="M165,61.5c0,0-2.4-10.7-2.1-21.6l16.6,0.8c0,0-0.3,6.7-4.5,21.4L165,61.5z"/>
		</g>
	</g>
	<g>
		<path class="st5" d="M417.1,166.9c-15.7-15.5-15.8-40.9-0.2-56.5s40.9-15.8,56.5-0.2L417.1,166.9z"/>
	</g>
	<g>
		<path class="st5" d="M412.4,165.3c0-17.9,14.4-32.4,32.3-32.4s32.4,14.4,32.4,32.3L412.4,165.3z"/>
	</g>
	<g>
		<path class="st5" d="M418.7,168.8c-29.2-6.1-48.1-34.7-42-63.9c6.1-29.2,34.7-48.1,63.9-42L418.7,168.8z"/>
	</g>
	<g>
		<g>
			
				<ellipse transform="matrix(0.3744 -0.9273 0.9273 0.3744 -29.8078 193.0276)" class="st4" cx="128.1" cy="118.6" rx="9.1" ry="8.5"/>
		</g>
		<g>
			<path class="st4" d="M144.1,101.7c0,0-2.9,10.5-8.1,20l-14.4-8.5c0,0,3.4-5.9,13.9-16.9L144.1,101.7z"/>
		</g>
	</g>
	<g>
		<path class="st6" d="M29.4,382.8c-12.8,0-23-10.4-23-23c0-12.6,10.4-23,23-23s23,10.4,23,23C52.4,372.4,42.2,382.8,29.4,382.8z
			 M29.4,340c-11,0-19.8,8.9-19.8,19.8s8.9,19.8,19.8,19.8s19.8-8.9,19.8-19.8S40.4,340,29.4,340z"/>
	</g>
	<g>
		<circle class="st7" cx="375.5" cy="26.6" r="13.7"/>
	</g>
	<g>
		<path class="st6" d="M415.8,216.4c-27.5,86.1-116.8,127.5-189,97c-72.2-30.5-105.9-113.9-75.4-186.1"/>
	</g>
	<g>
		<polygon class="st6" points="239,164.6 140.9,169 139.6,87.5 193.9,81.1 		"/>
	</g>
	<g>
		<polygon class="st7" points="121.6,55.4 157.8,64.2 151.3,94.7 		"/>
	</g>
	<g>
		<polygon class="st7" points="113.8,89.6 146.3,76 149.2,103.2 		"/>
	</g>
	<g>
		<circle class="st6" cx="167.3" cy="88.5" r="27.6"/>
	</g>
	<g>
		<path class="st7" d="M37.7,121.2l-2.1-2.4l32.7-29.1L1.1,69.4c-0.8-0.2-1.3-1-1.1-1.8c0-0.8,0.6-1.4,1.4-1.4l68-6.5L9.1,9.1
			C8.5,8.6,8.3,7.6,8.8,7c0.5-0.6,1.3-1,2.1-0.6l77.3,35.3L73.3,2.2c-0.3-0.6,0-1.4,0.6-1.9s1.4-0.3,1.9,0.2l35,30.3l-2.1,2.4
			L78.5,7l13.9,37.4c0.2,0.6,0,1.3-0.5,1.8c-0.5,0.5-1.1,0.5-1.8,0.3L20,14.5L74.3,60c0.5,0.5,0.6,1.1,0.5,1.8
			c-0.2,0.6-0.8,1.1-1.4,1.1L9.6,69.1l62.3,18.7c0.5,0.2,1,0.6,1.1,1.1c0.2,0.6,0,1.1-0.5,1.6L37.7,121.2z"/>
	</g>
	<g>
		<path class="st2" d="M167.3,89.3c-0.2,0-0.3,0-0.5-0.2l-13.4-10.5l17.1-5.6c0.5-0.2,0.8,0.2,1,0.5c0.2,0.5-0.2,0.8-0.5,1L156.7,79
			l11,8.6c0.3,0.3,0.5,0.8,0.2,1.1C167.7,89.1,167.6,89.3,167.3,89.3z"/>
	</g>
	<g>
		<path class="st4" d="M427.8,165.3c0,66.1-54.5,120.4-120.6,120.4c-70.9,0-77.3-70.8-77.3-136.9"/>
	</g>
	<g>
		<g>
			<defs>
				<path id="SVGID_1_" d="M427.8,165.3c0,66.1-54.5,120.4-120.6,120.4c-70.9,0-77.3-70.8-77.3-136.9"/>
			</defs>
			<clipPath id="SVGID_2_">
				<use xlink:href="#SVGID_1_"  style="overflow:visible;"/>
			</clipPath>
			<g class="st8">
				<path class="st2" d="M317.1,254.4c-0.3,0-0.8-0.3-0.8-0.6c0-0.5,0.2-0.8,0.6-1s50.2-8.5,101.4-38.7c0.3-0.2,0.8-0.2,1.1,0.3
					c0.2,0.3,0.2,0.8-0.3,1.1C367.7,245.8,317.7,254.3,317.1,254.4C317.2,254.4,317.2,254.4,317.1,254.4z"/>
			</g>
		</g>
		<g>
			<defs>
				<path id="SVGID_3_" d="M427.8,165.3c0,66.1-54.5,120.4-120.6,120.4c-70.9,0-77.3-70.8-77.3-136.9"/>
			</defs>
			<clipPath id="SVGID_4_">
				<use xlink:href="#SVGID_3_"  style="overflow:visible;"/>
			</clipPath>
			<g class="st9">
				<path class="st2" d="M317.1,230.9c-0.3,0-0.8-0.3-0.8-0.6c0-0.5,0.2-0.8,0.6-1c0.6-0.2,58.3-9.7,109.6-39.8
					c0.3-0.2,0.8-0.2,1.1,0.3c0.2,0.3,0.2,0.8-0.3,1.1C375.9,221,317.9,230.8,317.1,230.9C317.2,230.9,317.2,230.9,317.1,230.9z"/>
			</g>
		</g>
		<g>
			<defs>
				<path id="SVGID_5_" d="M427.8,165.3c0,66.1-54.5,120.4-120.6,120.4c-70.9,0-77.3-70.8-77.3-136.9"/>
			</defs>
			<clipPath id="SVGID_6_">
				<use xlink:href="#SVGID_5_"  style="overflow:visible;"/>
			</clipPath>
			<g class="st10">
				<path class="st2" d="M317.1,206.8c-0.3,0-0.6-0.3-0.8-0.6c-0.2-0.5,0.2-0.8,0.6-1c0.6-0.2,60.4-11.7,111.6-41.7
					c0.3-0.2,0.8-0.2,1.1,0.3c0.2,0.3,0.2,0.8-0.3,1.1C377.9,195.2,317.9,206.8,317.1,206.8C317.2,206.8,317.2,206.8,317.1,206.8z"
					/>
			</g>
		</g>
	</g>
	<g>
		<path class="st2" d="M264.2,363.5L264.2,363.5c-0.5,0-0.8-0.5-0.8-0.8l4.2-44.6c0-0.5,0.5-0.8,0.8-0.8c0.5,0,0.8,0.5,0.8,0.8
			l-4.2,44.6C265,363.3,264.7,363.5,264.2,363.5z"/>
	</g>
	<g>
		<path class="st2" d="M292,363.5C291.8,363.5,291.8,363.5,292,363.5c-0.5,0-0.8-0.5-0.8-0.8l4.2-44.6c0-0.5,0.5-0.8,0.8-0.8
			c0.5,0,0.8,0.5,0.8,0.8l-4.2,44.6C292.6,363.3,292.3,363.5,292,363.5z"/>
	</g>
	<g>
		<path class="st6" d="M276,356.8l-108.1,60.9c22.7,9.3,50.3,16.5,84,18.8c47.4,3.4,102.5,3.8,150.9-5.1L276,356.8z"/>
	</g>
	<g>
		<path class="st7" d="M276,371.3l-92.3,52.1c19.5,6.4,42,11.2,68.4,13.1c41.2,2.9,88,3.7,131.3-2.1L276,371.3z"/>
	</g>
	<g>
		<path class="st2" d="M237.1,392.3c-0.3,0-0.6-0.3-0.8-0.6c-0.2-0.5-2.4-12.5,4.6-21.1c4.8-5.8,12.6-8.8,23.3-8.6
			c0.5,0,0.8,0.3,0.8,0.8s-0.5,0.8-0.8,0.8c-10.2-0.2-17.7,2.6-22,8c-6.7,8.1-4.3,19.6-4.3,19.8c0.2,0.5-0.2,0.8-0.6,1
			C237.1,392.3,237.1,392.3,237.1,392.3z"/>
	</g>
	<g>
		<path class="st2" d="M251.3,392.3c-0.5,0-0.8-0.3-0.8-0.6c0-0.2-2.2-22.5,13.4-29.5c0.5-0.2,0.8,0,1.1,0.5c0.2,0.5,0,0.8-0.5,1.1
			c-14.7,6.4-12.5,27.6-12.5,27.8C252.1,391.8,251.8,392.3,251.3,392.3L251.3,392.3z"/>
	</g>
	<g>
		<path class="st2" d="M278.9,392.3c-0.5,0-0.8-0.3-0.8-0.6c0-0.2-2.2-22.5,13.4-29.5c0.5-0.2,0.8,0,1.1,0.5c0.3,0.5,0,0.8-0.5,1.1
			c-14.7,6.4-12.5,27.6-12.5,27.8C279.9,391.8,279.5,392.3,278.9,392.3C279.1,392.3,279.1,392.3,278.9,392.3z"/>
	</g>
	<g>
		<path class="st2" d="M264.7,392.3c-0.3,0-0.6-0.3-0.8-0.6c-0.2-0.5-2.4-12.5,4.6-21.1c4.8-5.8,12.6-8.8,23.3-8.6
			c0.5,0,0.8,0.3,0.8,0.8s-0.3,0.8-0.8,0.8c-10.2-0.2-17.6,2.6-22,8c-6.7,8.1-4.3,19.6-4.3,19.8c0.2,0.5-0.2,0.8-0.6,1H264.7z"/>
	</g>
</g>
</svg>
