<?xml version="1.0" encoding="utf-8"?>
<!-- Generator: Adobe Illustrator 22.1.0, SVG Export Plug-In . SVG Version: 6.00 Build 0)  -->
<svg version="1.1" id="Capa_1" xmlns="http://www.w3.org/2000/svg" xmlns:xlink="http://www.w3.org/1999/xlink" x="0px" y="0px"
	 viewBox="0 0 300 300" style="enable-background:new 0 0 300 300;" xml:space="preserve">
<style type="text/css">
	.st0{fill:#FABF61;}
	.st1{display:none;fill:#FABF62;}
	.st2{fill:#333333;}
	.st3{font-family:'Montserrat-SemiBold';}
	.st4{font-size:45px;}
	.st5{font-size:42.3729px;}
	.st6{display:none;}
	.st7{display:inline;fill:#FABF61;stroke:#FABF61;stroke-width:5;stroke-miterlimit:10;}
	.st8{display:inline;fill:#FABF61;}
	.st9{display:inline;}
	.st10{display:inline;fill:#333333;}
	.st11{fill:none;stroke:#FFFFFF;stroke-width:3;stroke-linecap:round;stroke-miterlimit:10;}
	.st12{fill:none;stroke:#333333;stroke-width:4;stroke-linecap:round;stroke-miterlimit:10;}
	.st13{fill:none;stroke:#333333;stroke-width:5;stroke-linecap:round;stroke-miterlimit:10;}
	.st14{fill:#FABF62;}
	.st15{display:inline;fill:#FABF61;stroke:#FABF61;stroke-width:2;stroke-miterlimit:10;}
	.st16{display:inline;fill:#FABF62;}
	.st17{display:none;fill:#FFFFFF;}
	.st18{display:inline;fill:#333333;stroke:#333333;stroke-width:5;stroke-miterlimit:10;}
	.st19{fill:#FABF62;stroke:#333333;stroke-width:9;stroke-miterlimit:10;}
	.st20{display:none;fill:#FABF61;}
	.st21{display:inline;fill:#FFFFFF;}
	.st22{display:inline;fill:#EDB65F;}
	.st23{display:inline;fill:#333333;stroke:#333333;stroke-width:10;stroke-linecap:round;stroke-miterlimit:10;}
	.st24{display:inline;fill:#333333;stroke:#303030;stroke-width:10;stroke-linecap:round;stroke-miterlimit:10;}
</style>
<circle class="st0" cx="150.4" cy="151.5" r="143.5"/>
<g id="Menor_30">
	<circle class="st1" cx="190.8" cy="170.9" r="81.4"/>
	<path class="st2" d="M177.3,122.7c0-10.8-9.4-18.6-19.8-18.6h-30.8c-10.4,0-18.8,7.8-18.8,18.6l-1.5,11.9c-0.1,1.6-1.5,0.9-3.1,0.9
		H88c-2.4,0.3-6.7,1.1-6.7,5.5c0,5,4.1,6,7.3,6.3l25.9,1.4c1.6,0,2.9-1.3,3-2.9l0.1-1.3l2.8-17c0-0.9,0.9-2,1.9-1.8
		c0.8,0.2,1.3,1.1,1.3,1.9c0,0.1-1,33.9-1,33.9l-1.5,73.1c0,4.5,3.2,8,7.4,8c4.2,0,7.6-3.5,7.6-8l4.2-60.5c0-0.8,0.9-1.5,1.7-1.5
		c0.8,0,1.7,0.7,1.7,1.5l4.2,60.5c0,4.5,3.4,8,7.6,8c4.2,0,7.4-3.5,7.4-8l-1.5-73.1c0,0-1-33.8-1-33.9c0-0.8,0.5-1.7,1.3-1.9
		c1-0.2,1.9,0.9,1.9,1.8l3.8,40.6c0,3.3,2.2,6.4,5.4,6.7c3.7,0.4,6.7-2.6,6.7-6.4L177.3,122.7z"/>
	<g>
		<g>
			<g>
				<path class="st2" d="M125.6,84.4c0.1,8.2,7.5,16.3,16.6,16.3c9.1,0,16.4-8.1,16.6-16.3H125.6z"/>
			</g>
		</g>
		<path class="st2" d="M159.1,72.9c0,0-0.2-23.3-17.2-23.3s-17,24.1-17,24.1h-16.2V80H142h33.8v-6.3H159c0,0-0.1-24.1-17-24.1
			s-17.1,23.5-17.1,23.5"/>
		<path class="st2" d="M145.7,111.2"/>
	</g>
	<rect x="88.5" y="117.1" class="st2" width="7.5" height="78.2"/>
	<rect x="67.7" y="195.3" class="st2" width="49.5" height="6.3"/>
	<path class="st2" d="M72.9,204h38.9c0,0-3.2,37.9-19.3,38.3C76.4,242.7,72.9,204,72.9,204z"/>
	<text transform="matrix(1 0 0 1 195.7072 201.1851)" class="st2 st3 st4">40</text>
	<text transform="matrix(1 0 0 1 168.7072 200.4165)" class="st2 st3 st5">&lt;</text>
</g>
<g id="Sin_Plasticos" class="st6">
	<path class="st7" d="M151.4,295c39.4,0,75-16,100.8-41.8c0,0,0,0,0,0l0,0C278,227.4,294,191.8,294,152.4
		C294,73.7,230.2,9.8,151.4,9.8C72.6,9.8,8.8,73.7,8.8,152.4C8.8,231.2,72.6,295,151.4,295z M247.5,56.3
		c24.6,24.6,39.8,58.5,39.8,96.1c0,35-13.2,66.8-34.9,90.9c0,0,0,0,0,0c-1.3,1.5-3.7,1.5-5.1,0.1L60.3,56.6
		c-1.4-1.4-1.4-3.8,0.1-5.1c0,0,0,0,0.1-0.1c24.1-21.7,55.9-34.9,90.9-34.9C188.9,16.5,222.9,31.7,247.5,56.3z M143.9,149.7
		l98.5,98.5c1.4,1.4,1.4,3.8-0.2,5.2c-24.1,21.7-55.9,34.9-90.9,34.9c-37.5,0-71.5-15.2-96.1-39.8c-24.6-24.6-39.8-58.5-39.8-96.1
		c0-35,13.2-66.8,34.9-90.9c1.4-1.5,3.7-1.6,5.2-0.2l88.7,88"/>
	<path class="st8" d="M194.3,112.7c-2.4-9.4-7.9-17.7-16.3-24.7c-1.4-1.1-2.8-2.3-4.2-3.4c-1-0.8-2-1.5-2.9-2.3c0,0,0,0,0,0
		c0-0.6,0-1.2,0-1.9c0,0,0,0,0,0c1.4-0.8,2.4-2.3,2.4-3.9l0-20c0-0.2,0-0.5,0-0.7c-0.5-2.8-2.4-7.7-10.2-7.7l-0.1,0
		c-5.1,0-10.2,0.1-15.3,0.1c-3.9,0-7.8,0.1-11.7,0.1c-5.5,0-9.4,3.8-9.6,9.1c0,1.6-0.1,3.3-0.1,4.9c0,1.6,0,3.1-0.1,4.7
		c0,0,0,0.1,0,0.1v9.4c0,1.7,1,3.3,2.5,4c0,0,0,0,0,0v1.7c0,0,0,0,0,0c-0.3,0.5-0.9,1.1-1.9,1.8c-5.9,4.1-10.6,8.5-14.3,13.6
		c-6.2,8.4-9.2,18.3-9.3,30.4c-0.1,11.5-0.1,23.3,0,34.6c0,4.1,0,8.3,0,12.4c0,5.8,0,13.6,0.1,21.4c0,2.4,0,4.9,0,7.3
		c0,6.8,0,13.8,0.3,20.7c0.2,5,1.4,9.9,3.8,14.3c5.4,10,12.7,12,17.6,12c1.4,0,2.9-0.2,4.3-0.5c2.3-0.5,4.5-1.2,6.6-2c0,0,0,0,0,0
		c3.7,3.9,8.4,5.9,13.9,5.9c0,0,0.1,0,0.1,0c5.6,0,10.3-2.1,13.9-6c0,0,0,0,0.1,0c3.2,1.6,6.7,2.5,10.2,2.5c0,0,0,0,0,0
		c7,0,13.1-3.5,16.8-9.5c3.7-6,5.5-12.8,5.5-20.8c0-11.5,0-37.5,0-49.1c0-17.8,0-23.1,0.1-41.9C196.4,123.9,195.7,118.3,194.3,112.7
		z M112.1,178.4c0-1.2,0-2.4,0-3.5c0-4.1,0-8.3,0-12.4c0-7.8,0-15.8,0-23.7 M187.4,138.8c0,13.2,0,26.6,0,39.6 M135.2,62.3
		c0-1.6,0-3.2,0.1-4.8c0-0.1,0-0.2,0-0.3c0.1,0,0.3-0.1,0.6-0.1c3.9,0,7.8,0,11.7-0.1c5.1,0,10.2-0.1,15.3-0.1
		c0.7,0,1.1,0.1,1.3,0.1v15.4c-0.3-0.1-0.7-0.1-1-0.1h-27.5c-0.2,0-0.4,0-0.6,0V67C135.2,65.4,135.2,63.8,135.2,62.3z M119.7,102.9
		c3.1-4.3,7.1-8,12.2-11.5c2-1.4,4.8-3.7,5.7-7.4c0.1-0.3,0.1-0.7,0.1-1l0-1.7c0,0,0,0,0,0h24.1c0,0,0,0,0,0c0,0.9,0,1.8,0.1,2.7
		c0.1,2.4,1.8,4.1,2.6,4.7c1.2,1,2.5,2,3.7,3c1.3,1.1,2.7,2.1,4,3.2c7.1,5.8,11.4,12.3,13.3,20c1.2,4.9,1.8,9.7,1.8,14.4
		c0,0.2,0.2-10.6,0.2-10.4h-75.2c0,0,0,4.4,0,4.4c0-0.6-0.2,5.4-0.2,4.8C112.2,117.9,114.7,109.7,119.7,102.9z M183.2,236.4
		c-2.7,4.3-6.5,5.2-9.2,5.2c0,0,0,0,0,0c-2.1,0-4.2-0.5-6.1-1.5c-0.5-0.2-1-0.5-1.4-0.7c0,0,0,0,0,0v-7.7c0-2.4-1.7-4.5-4.1-4.7
		c-2.7-0.2-4.9,1.9-4.9,4.5v10.2c0,0,0,0,0,0c-2,2.3-4.5,3.5-7.6,3.5c0,0,0,0,0,0l0,4.4v-4.4c0,0,0,0,0,0c-3.6,0-6.5-1.6-8.7-4.8
		c-0.1-0.1-0.1-0.2-0.2-0.2v-8.5c0-2.4-1.7-4.5-4.1-4.7c-2.7-0.2-4.9,1.9-4.9,4.5v8.6c0,0,0,0,0,0c-1.5,0.5-3,1-4.5,1.3
		c-0.9,0.2-1.7,0.3-2.5,0.3c-2.3,0-5.8-0.6-9.4-6.7c-1.9-3.3-2.9-7.1-3-10.9c-0.2-6.8-0.3-13.8-0.3-20.5c0-2.5,0-4.9,0-7.4
		c0-3,0-6,0-8.8c0,0,0,0,0,0l72.1,2.4c0,0,4.4,3.1,4.4-2.2c-0.1-11-1.3,21.7-1.3,32.7C187.4,226.6,186,231.9,183.2,236.4z"/>
</g>
<g id="Ecologico" class="st6">
	<g class="st9">
		<g class="st6">
			<path class="st10" d="M167.2,60.8c0,0,44.6,6.1,62.1,31.9s1.1,69.5,1.1,69.5s-0.1-6-29.1-18c-26.7-11-31.7-26.2-34.9-40.4
				C163.8,92.8,165.8,67.8,167.2,60.8z"/>
		</g>
		<g class="st6">
			<path class="st8" d="M105.6,96.6c0,0-33.6,6.4-41.4,26.7c-7.8,20.2,7.4,46.9,7.4,46.9s16.1-4.6,28-19.8
				C116,129.6,108.4,103.7,105.6,96.6z"/>
		</g>
		<path class="st0" d="M70.5,104.4l19.2-8.1c0,0,1.5-1.5,5.2,1.5c3.7,3,5.2,8.9,5.9,11.8c0.7,3,0.7,16.3,0,18.5
			c-0.7,2.2-6.7,14.8-8.1,19.2c-1.5,4.4-10.3,12.6-11.8,14.8c-1.5,2.2-8.9,9.6-8.1,7.4c0.7-2.2-7.4-9.6-8.1-12.6
			c-0.7-3-5.9-9.6-6.7-12.6c-0.7-3-3.7-13.3-1.5-15.5c2.2-2.2,3.7-11.1,5.9-13.3C64.5,113.3,70.5,104.4,70.5,104.4z"/>
		<path class="st0" d="M175.4,88.1c0.7-3.7,3.7-18.5,5.2-20.7c1.5-2.2,0.7-5.9,5.2-5.9c4.4,0,7.4-0.7,10.3,0.7
			c3,1.5,10.3,3,11.8,4.4c1.5,1.5,5.2,0.7,7.4,3.7c2.2,3,6.7,5.2,7.4,6.7c0.7,1.5,2.2,2.2,4.4,5.2c2.2,3,2.2,2.2,3.7,5.2
			c1.5,3,5.2,5.9,4.4,6.7c-0.7,0.7-0.7,1.5,0.7,5.9c1.5,4.4,1.5,3,1.5,6.7s-0.7,1.5,0,3.7s0,2.2,0,2.2s0.7,0.7,0,8.1
			s-2.2,5.2-1.5,8.1c0.7,3-1.5,8.9-1.5,8.9s-0.7,2.2-1.5,5.9s-1.5,5.2-2.2,6.7c-0.7,1.5,0.7,3.7-3.7,2.2c-4.4-1.5-8.9-3-8.9-3.7
			c0-0.7-2.2-3-4.4-4.4c-2.2-1.5-3.7-2.2-7.4-4.4c-3.7-2.2-11.1-6.7-11.8-8.1s-5.2-3-5.2-4.4c0-1.5-1.5-3.7-2.2-4.4
			c-0.7-0.7-1.5-3-3-4.4c-1.5-1.5-1.5,0-3-3c-1.5-3,0-1.5-2.2-4.4c-2.2-3-0.7-2.2-2.2-5.9c-1.5-3.7-2.2,0-1.5-5.2
			c0.7-5.2,2.2-7.4,1.5-8.1S175.4,88.1,175.4,88.1z"/>
		<g>
			<path class="st0" d="M70.2,177.9c0,0-9.2-2.8-15.6,0.5c-6.4,3.2-6.9,10.1-6.9,10.1s6.9,2.8,12.4,0.5
				C65.7,186.6,70.2,177.9,70.2,177.9z"/>
		</g>
		<g>
			<path class="st0" d="M259.5,162.2c0,0-6-7.3-13-8.3s-11.2,4.4-11.2,4.4s4.1,6.1,9.8,7.2C250.9,166.8,259.5,162.2,259.5,162.2z"/>
		</g>
		<g>
			<path class="st0" d="M71.2,180.6c0,0-3.8,3.3-4.2,7.1c-0.4,3.8,2.6,5.9,2.6,5.9s3.1-2.3,3.7-5.4
				C73.8,185.1,71.2,180.6,71.2,180.6z"/>
		</g>
		<g>
			<path class="st0" d="M147.3,233c-20,0-28.8-13.3-30.3-12.6c-1.1,0.6,2.5,2.6,3,1.5l-5.9-3.7c-24.5-8.8-35.3-19.9-43.2-44.8
				c-2.6-8.1-3.9-16.6-3.9-25.2c-0.1-1.5-0.5-18.6,12.5-35.7C89,99.8,92.1,93.6,92.1,93.6c0.4-0.9,1.3-1.5,2.3-1.6
				c1-0.1,1.9,0.4,2.5,1.2c0.4,0.5,8.9,12.9,8,29.4c-0.3,4.7-1.3,9.3-3.1,13.7c-4.7,11.6-11.7,20-17.4,26.7
				c-3.3,3.9-6.2,7.3-7.5,10.2c0,0.1-0.1,0.2-0.2,0.3c8,23.3,21.2,38.8,44.7,46.3c0.7,0.2,1.9-1.4,2.2-0.7c0.3,0.7-3.4-0.7-3.7,0
				h3.7c3.2,1.6,12.6,9.6,25.1,9.6c19.2,0,28.1-6.7,28.1-6.7c0.4-0.3-0.5,0,0,0c17.7-0.9,12.5-3.7,25.7-15.4
				c13.1-11.7,22-27.6,25-44.8c0.1-0.7,0.3-1.5,0.4-2.2c-0.3-0.2-0.6-0.6-0.7-0.9c-2.2-4.4-7.9-7.7-15.1-11.8
				c-11.5-6.6-25.7-14.8-35.5-33.2c-11.6-21.8,3.5-52,4.6-54c0.1-0.3,0.3-0.5,0.5-0.7c0.1-0.1,0.2-0.2,0.3-0.3
				c0.5-0.4,1.1-0.6,1.8-0.6c0,0,0.1,0,0.1,0c1.9,0.1,39.6,3.3,52,33.9c9.7,24,2.1,50.9-1.8,61.7c-0.2,3-0.6,6.1-1.1,9
				c-3.2,18.4-12.7,35.6-26.8,48c-14.2,12.4-11.6,10.6-11.6,10.6l-5.2-0.7C185.1,222,179.1,233,147.3,233z M94.6,100.3
				c-2,3.3-5.4,8.4-10.7,15.4c-12.1,15.9-11.4,32-11.4,32.2c0,0,0,0.1,0,0.1c0,6.1,0.7,12.2,2.1,18.1c1.6-2.2,3.5-4.4,5.5-6.9
				c5.4-6.4,12.1-14.3,16.5-25.1c1.5-3.8,2.4-7.9,2.7-12C99.8,112.8,96.8,104.9,94.6,100.3z M184.2,66.5c-3.7,9-10.5,29.5-2.6,44.4
				c9,16.9,22.5,24.7,33.4,31c5.4,3.1,10.3,6,13.8,9.4c0-1.1,0.1-2.2,0.1-3.3c0-21.4-6.9-37.9-23-55.3
				C194.1,80.1,187.5,71.3,184.2,66.5z M189.4,64.4c3.4,4.8,9.7,13,20.4,24.6c13.7,14.8,21.1,29.1,23.5,45.9c2.2-11.9,3-27.2-2.6-41
				C222.4,73.3,200.1,66.5,189.4,64.4z"/>
		</g>
		<g>
			<path class="st0" d="M73.5,175.3c-0.8,0-1.6-0.3-2.1-1c-0.9-1.1-22.1-26.8-15.3-51.8c2.8-10.5,10.4-19.2,21.8-25
				c8.5-4.3,16-5.5,16.3-5.6c1.5-0.2,2.9,0.8,3.2,2.3c0.2,1.5-0.8,2.9-2.3,3.2c-0.3,0-27.7,4.6-33.6,26.5c-6,22.3,14,46.6,14.2,46.8
				c1,1.2,0.8,2.9-0.3,3.9C74.8,175.1,74.2,175.3,73.5,175.3z"/>
		</g>
		<g>
			<path class="st0" d="M72.1,138c-0.7,0-1.4-0.3-1.9-0.8c-1.1-1.1-1.1-2.8-0.1-3.9c0.6-0.6,13.8-14.1,31.7-15.1
				c1.5-0.1,2.8,1.1,2.9,2.6c0.1,1.5-1.1,2.8-2.6,2.9c-15.7,0.8-27.9,13.3-28,13.4C73.5,137.7,72.8,138,72.1,138z"/>
		</g>
		<g>
			<path class="st0" d="M72.5,133.4c-0.1,0-0.1,0-0.2,0c-1.5-0.1-2.7-1.4-2.6-2.9c0.9-12.4-3.4-22-3.4-22.1c-0.6-1.4,0-3,1.4-3.6
				c1.4-0.6,3,0,3.6,1.4c0.2,0.4,4.9,10.9,3.9,24.8C75.2,132.3,74,133.4,72.5,133.4z"/>
		</g>
		<path class="st11" d="M69,128"/>
		<path class="st11" d="M55.9,123.1"/>
		<g>
			<path class="st0" d="M236.2,154.1c0.5-1.4,4.6-20.7,11-27.1c6.4-6.4,20.7-3.2,20.7-3.2s-1.4,12.4-6.9,19.3
				S236.2,154.1,236.2,154.1z"/>
		</g>
		<g>
			<path class="st0" d="M67.9,175.6c0,0-6-16.5-15.2-22.1c-9.2-5.5-19.8,1.4-19.8,1.4s2.8,10.6,10.6,15.6
				C51.4,175.6,67.9,175.6,67.9,175.6z"/>
		</g>
		<path class="st11" d="M101.1,135.1"/>
		<path class="st11" d="M79.7,104.7"/>
		<path class="st12" d="M95.2,92.9c-36.9,11.9-25.1,66-21.6,80.7"/>
		<path class="st13" d="M182.8,58.2c53.6,14,52.8,83.6,47.7,98.3"/>
	</g>
	<g class="st9">
		<path class="st14" d="M129.6,168.5c0,7.5-3.1,7.5-7.3,8.2v0.2c4.2,0.7,7.3,1.3,7.3,8.2v21.4c0,10.9,3,16.7-16.8,16.7H84.9
			c-1.2,0-1.9-0.7-1.9-1.9v-89.2c0-1.3,0.7-1.9,1.9-1.9h27.9c16.9,0,16.8,5.8,16.8,16.7V168.5z M114.1,150.4c0-3-1.5-4.6-4.6-4.6
			h-9.1c-0.8,0-1.5,0.7-1.5,1.5v20.5c0,0.8,0.7,1.5,1.5,1.5h9.1c3,0,4.6-1.6,4.6-4.5V150.4z M114.1,189.2c0-3-1.5-4.6-4.6-4.6h-9.1
			c-0.8,0-1.5,0.7-1.5,1.5v20.5c0,0.8,0.7,1.5,1.5,1.5h9.1c3,0,4.6-1.5,4.6-4.6V189.2z"/>
		<path class="st14" d="M155.1,130.3c1.2,0.2,1.9,0.9,1.9,2.1v89.2c0,1.2-0.7,1.9-1.9,1.9H143c-1.3,0-1.9-0.7-1.9-1.9v-89.2
			c0-1.2,0.6-1.9,1.9-2.1H155.1z"/>
		<path class="st14" d="M168.6,135.6c0-2.9,2.3-5.2,5.2-5.2h36.1c2.9,0,5.2,2.3,5.2,5.2v82.6c0,2.9-2.3,5.2-5.2,5.2h-36.1
			c-2.9,0-5.2-2.3-5.2-5.2V135.6z M195.4,208.4c3,0,4.6-1.5,4.6-4.6v-53.1c0-2.9-2.3-5.2-5.2-5.2h-5.7c-2.9,0-5.2,2.3-5.2,5.2v53.1
			c0,3.1,1.6,4.6,4.6,4.6H195.4z"/>
	</g>
</g>
<g id="Residuo_Cero_1_" class="st6">
	<path class="st7" d="M150.2,293.3c39.5,0,75.3-16,101.2-41.9c0,0,0,0,0,0l0,0c25.9-25.9,41.9-61.7,41.9-101.2
		C293.3,71.1,229.2,7,150.2,7C71.1,7,7,71.1,7,150.2C7,229.2,71.1,293.3,150.2,293.3z M246.6,53.7c24.7,24.7,40,58.8,40,96.5
		c0,35.1-13.3,67.1-35,91.3c0,0,0,0,0,0c-1.3,1.5-3.7,1.5-5.1,0.1L58.7,54c-1.4-1.4-1.4-3.8,0.1-5.1c0,0,0,0,0.1-0.1
		c24.2-21.8,56.2-35,91.3-35C187.8,13.8,221.9,29,246.6,53.7z M142.7,147.4l98.9,98.9c1.5,1.5,1.4,3.8-0.2,5.2
		c-24.2,21.8-56.1,35.1-91.2,35.1c-37.7,0-71.8-15.3-96.5-40c-24.7-24.7-40-58.8-40-96.5c0-35.1,13.3-67.1,35.1-91.2
		c1.4-1.5,3.7-1.6,5.2-0.2l89,88.4"/>
	<path class="st15" d="M208,56.4c-3,0-6,1.1-8.3,3.4l-14.5,14.6l-6.5-6.5c-1.1-1.1-2.6-1.7-4.2-1.8c-1.3,0-2.7,0.5-3.7,1.5
		l-14.9,14.9c-0.9-0.5-1.9-0.8-2.9-0.8c-1.5,0-3,0.6-4.1,1.7l-4,3.9c-1.1,1.1-1.7,2.6-1.7,4.1c0,1.5,0.6,2.9,1.7,4.1l9.5,9.5
		l-48.4,48.4c-0.6,0.6-0.9,1.4-0.9,2.2c0,0.2-0.1,0.6-0.3,1c-0.3,0.9-1.1,2.1-2.1,3.4c-1.5,2-3.5,4.2-5.2,6.5
		c-0.9,1.2-1.7,2.4-2.3,3.6c-0.6,1.3-1.1,2.7-1.1,4.3c0,0.9,0.2,1.9,0.5,2.8c0.4,0.9,1,1.7,1.7,2.4c0.7,0.7,1.5,1.3,2.5,1.7
		c0.9,0.4,1.9,0.5,2.8,0.5c1.2,0,2.3-0.3,3.4-0.7c1.8-0.7,3.4-1.8,5-3c2.3-1.7,4.5-3.7,6.5-5.2c1-0.7,1.9-1.3,2.6-1.7
		c0.7-0.4,1.2-0.5,1.5-0.4c0.8,0,1.6-0.3,2.2-0.9l48.4-48.4l9.5,9.5c1.1,1.1,2.6,1.7,4.1,1.7c1.5,0,2.9-0.6,4.1-1.7l-2.2-2.2
		l2.2,2.2l4-4c1.1-1.1,1.7-2.6,1.7-4.1c0-1-0.3-2-0.8-2.9l14.9-14.9l0,0c1-1,1.5-2.4,1.5-3.7c0-1.6-0.6-3-1.8-4.2l-6.5-6.5
		l14.6-14.6c2.3-2.3,3.5-5.3,3.4-8.3c0-3-1.2-6-3.4-8.3C214.1,57.5,211,56.4,208,56.4z M177.1,75.2L201,99.1c1.4,1.4,1.4,3.6,0,4.9
		l-9.2,9.2c-1.4,1.4-3.6,1.4-4.9,0L163,89.3c-1.4-1.4-1.4-3.6,0-4.9l9.2-9.2C173.5,73.8,175.7,73.8,177.1,75.2z M189.7,116.1
		L189.7,116.1L189.7,116.1L189.7,116.1z M120,163.9c-0.6,0.6-1.3,1-2.1,1.2c-0.2,0.1-0.5,0.2-0.7,0.3c-1.7,0.7-3.3,1.8-4.8,2.9
		c-2.3,1.8-4.5,3.7-6.5,5.2c-1,0.7-1.9,1.3-2.7,1.7c-0.8,0.4-1.3,0.5-1.6,0.5l-0.3-0.1c-0.1,0-0.2-0.1-0.4-0.3
		c-0.2-0.2-0.3-0.3-0.3-0.4l-0.1-0.3c0-0.2,0.1-0.6,0.3-1.1c0.3-0.9,1.1-2.1,2.1-3.4c1.5-2,3.5-4.2,5.2-6.5c0.9-1.2,1.7-2.4,2.3-3.6
		c0.3-0.6,0.5-1.2,0.7-1.9c0.2-0.8,0.7-1.4,1.2-2l45.3-45.3c0.6-0.6,1.7-0.6,2.3,0l5.4,5.4c0.6,0.6,0.6,1.7,0,2.3L120,163.9z
		 M184.4,126.7L184.4,126.7L184.4,126.7L184.4,126.7z M183.6,125.2L151,92.6c-0.6-0.6-0.6-1.7,0-2.3l0.9-0.9c0.6-0.6,1.7-0.6,2.3,0
		l1.5,1.5l0,0l29.6,29.6l0,0c0,0,0,0,0,0l1.5,1.5c0.6,0.6,0.6,1.7,0,2.3l-0.9,0.9C185.3,125.8,184.2,125.8,183.6,125.2z M211.9,72
		l-14.3,14.3l-7.7-7.7l14.3-14.3c1.1-1.1,2.5-1.6,3.9-1.6c1.4,0,2.8,0.5,3.9,1.6c1.1,1.1,1.6,2.5,1.6,3.9
		C213.5,69.6,213,70.9,211.9,72z"/>
	<path class="st8" d="M96.4,245.5c5.6,0,10.7-2.2,14.2-5.6c3.5-3.4,5.7-8,5.7-13c0-1.4-0.3-2.9-0.7-4.5c-1.6-5.5-5.4-12.2-8.9-17.8
		c-1.8-2.8-3.5-5.2-4.9-7c-0.7-0.9-1.3-1.7-1.9-2.2c-0.3-0.3-0.6-0.6-0.9-0.8c-0.2-0.1-0.4-0.3-0.7-0.4c-0.3-0.1-0.8-0.4-1.8-0.4
		c-1.1,0-1.5,0.3-1.9,0.5c-0.6,0.3-0.9,0.6-1.2,0.9c-0.6,0.6-1.2,1.3-1.9,2.2c-2.5,3.1-6.1,8.5-9.2,14c-1.5,2.8-2.9,5.6-3.9,8.2
		c-1,2.7-1.7,5.1-1.7,7.3c0,5,2.1,9.6,5.7,13C85.8,243.4,90.8,245.5,96.4,245.5z"/>
	<path class="st16" d="M183.4,126.7l-33.9-33.9c-0.5-0.5-0.5-1.2,0-1.7l3.2-3.2c0.5-0.5,1.2-0.5,1.7,0l33.9,33.9
		c0.5,0.5,0.5,1.2,0,1.7l-3.2,3.2C184.6,127.1,183.8,127.1,183.4,126.7z"/>
</g>
<g id="Pequeño_Farmer" class="st6">
	<g class="st9">
		<polygon class="st0" points="131.8,106.7 131.8,61.8 157.6,48.3 186.5,60.1 184.4,120.5 133.5,114.4 		"/>
		<g>
			<path class="st0" d="M185.7,117.7h-1c-1.2,0-2.1-0.9-2.1-2.1V63.9c0-0.8-0.4-1.5-1.1-1.9l-22-11.2c-0.6-0.3-1.3-0.3-1.9,0
				l-22,11.2c-0.7,0.4-1.1,1.1-1.1,1.9v51.8c0,1.2-0.9,2.1-2.1,2.1h-1c-1.2,0-2.1-0.9-2.1-2.1v-55c0-0.8,0.4-1.5,1.1-1.9L157.5,45
				c0.6-0.3,1.3-0.3,1.9,0l27.2,13.8c0.7,0.4,1.1,1.1,1.1,1.9l-0.7,58.7C187.1,120.6,186.8,117.7,185.7,117.7z"/>
		</g>
		<g>
			<path class="st0" d="M124.4,64.6l-0.4-0.9c-0.5-1-0.1-2.3,1-2.8l32.6-16c0.6-0.3,1.3-0.3,1.8,0l32.6,16c1,0.5,1.5,1.8,1,2.8
				l-0.4,0.9c-0.5,1-1.8,1.5-2.8,1l-30.4-14.9c-0.6-0.3-1.3-0.3-1.8,0l-30.4,14.9C126.1,66.1,124.9,65.7,124.4,64.6z"/>
		</g>
		<g>
			<polygon class="st17" points="148.2,62.1 148.2,83.4 172.3,83.4 172.3,60.5 			"/>
			<path class="st2" d="M170,91.2h-23.1c-1.2,0-2.1-0.9-2.1-2.1V66c0-1.2,0.9-2.1,2.1-2.1H170c1.2,0,2.1,0.9,2.1,2.1v23.1
				C172.1,90.3,171.1,91.2,170,91.2z M152.1,86h12.7c1.2,0,2.1-0.9,2.1-2.1V71.2c0-1.2-0.9-2.1-2.1-2.1h-12.7
				c-1.2,0-2.1,0.9-2.1,2.1v12.7C150,85.1,150.9,86,152.1,86z"/>
		</g>
	</g>
	<path class="st18" d="M106.8,211.1c4.7,4.7,20.8,27.1,25,32.3c5.2,6.5,23.8,8.8,23.8,6.5c0-2.4,43.2-43.5,48-50.5
		c4.7-7.1,14.3-12.4,14.3-19.5s4.2-7.3,1.8-12.1c-2.4-4.7-4.6-14.5-8-18.4s-8.6-14.8-11-17.2c-5-5-21.6-11.6-23.9-16.4
		s-49.3-1.9-53.1-1s-8.4,6.3-15.5,11c-7.1,4.7-14.6,17.7-12.2,22.4c2.4,4.7-1,20.4-1,27.5c0,7.1,0,28.3,0,28.3L106.8,211.1z"/>
	<path class="st16" d="M156.4,104.2c-46.7-3.7-85.5,35.1-81.7,81.7c2.9,36.7,32.7,66.5,69.4,69.4c46.7,3.7,85.5-35.1,81.8-81.8
		C222.8,136.9,193.1,107.2,156.4,104.2z M138.2,115.6c0.3-0.5,0.9-0.9,1.5-1c3.4-0.5,6.9-0.8,10.5-0.8c1.2,0,2.3,0,3.5,0.1
		c0.4,0,0.7,0.1,1.1,0.2c7.7,2.4,13.3,10.8,9.1,13.6c-1.3,0.9-5.7,2.3-8.5-2c-1.3-2-1.4-3.7-2.8-5.1c-4.9-4.9-15.4-2.1-15.5-3.1
		C137,116.6,138.2,115.6,138.2,115.6z M147.6,244.4c-1.2,1.8-3.3,6.7-8.3,5.2c-0.8-0.2-3.2-1.5-0.3-6.2c5.4-8.9,8.5-24.4,2.6-30
		c-6.5-6.2-10.5-13.5-6.5-15c2.4-0.9,3.5-1.8,4-3.8c0.2-2.4,0.1-5.4-1.4-7c-4.7-5-8.5-4.4-14.3-6.1c-5.9-1.6-9.9-2.1-13.8-6.5
		c-3.9-4.4-6.6-9.3-7.4-19.2c-0.9-10.4,1.7-14.1,4.8-19.2c1.7-2.8,3.8-7,5.4-10.2c0.3-0.6,0.8-1.1,1.3-1.5c3.3-2.2,6.9-4.2,10.6-5.8
		c1.9-0.8,4.1,0.4,4.3,2.5c0.4,4.1,2.5,8.8,4.8,11.5c3.1,3.6,5.9-3,8.2-5.2c2.3-2.3,3.9,5.8,9.1,5.5c5.2-0.3,11.1,0.7,7.8,5.9
		c-3.3,5.2-8.1,2.1-10.4,9.4c-2.3,7.4-8.1,15.9-14.6,13.7c-6.5-2.3-9.5,0.8-9.9,4.6c-0.5,5.1,10.9,8.3,15.5,12.8
		c1.4,1.3,2.4,2.7,3.2,4.1c0.2,0.4,0.7,0.6,1.1,0.4c2.2-1.1,4.5-1.4,4.5-1.4c4.5-0.6,10.7,0.6,14.1,2.9c6,3.9,5.2,7.8,7.8,11.1
		c2.6,3.3,5.1-0.9,12,0c7,0.9,5.2,11.1,0.7,18.6c-4.6,7.5-14.3,10.7-20.2,14c-4.5,2.5-12.2,11.9-15.6,16.1 M209.2,178.5
		c-6.8-1.6-10.1-5.9-12.7-13.7c-2.6-7.8,6.8-20.2,1.6-25.1c-5.2-4.9-9.4-1.3-11.1-7.5c-0.6-2.3-1.8-4.2-3.1-5.6
		c-1-1.1,0.1-2.9,1.5-2.5c0.1,0,0.2,0.1,0.4,0.1c8.9,5.7,16.3,13.5,21.6,22.7c0,0,0,0.1,0.1,0.1c2.9,7.2,5.7,15.3,7.6,20.8
		c0,0,0,0.1,0,0.1c0.5,2.7,0.8,5.5,1,8.4c0,0.3-0.1,0.5-0.2,0.7C214.8,178.3,212.7,179.4,209.2,178.5z"/>
	<rect x="101" y="91.8" class="st8" width="1.9" height="19.8"/>
	<rect x="95.7" y="111.7" class="st8" width="12.6" height="1.6"/>
	<path class="st8" d="M97,113.8h9.9c0,0-0.8,9.6-4.9,9.7C97.9,123.7,97,113.8,97,113.8z"/>
	<path class="st8" d="M124.1,86.7c0-2.9-2.5-5-5.3-5h-8.2c-2.8,0-5,2.1-5,5l-0.9,12.2c0,1,0.8,1.8,1.8,1.7c0.9-0.1,1.5-0.9,1.5-1.8
		l1-10.9c0-0.2,0.2-0.5,0.5-0.5c0.2,0,0.3,0.3,0.3,0.5c0,0-0.3,9.1-0.3,9.1l-0.4,19.5c0,1.2,0.9,2.1,2,2.1c1.1,0,2-0.9,2-2.1
		l1.1-16.2c0-0.2,0.2-0.4,0.5-0.4c0.2,0,0.5,0.2,0.5,0.4l1.1,16.2c0,1.2,0.9,2.1,2,2.1c1.1,0,2-0.9,2-2.1L119.9,97
		c0,0-0.3-9-0.3-9.1c0-0.2,0.1-0.5,0.3-0.5c0.3-0.1,0.5,0.2,0.5,0.5l1,10.9c0,0.9,0.6,1.7,1.5,1.8c1,0.1,1.8-0.7,1.8-1.7L124.1,86.7
		z"/>
	<g class="st9">
		<g>
			<g>
				<path class="st0" d="M110.3,76.5c0,2.2,2,4.4,4.4,4.4s4.4-2.2,4.4-4.4H110.3z"/>
			</g>
		</g>
		<path class="st0" d="M119.2,73.5c0,0-0.1-6.2-4.6-6.2c-4.5,0-4.6,6.5-4.6,6.5h-4.3v1.7h8.9h9v-1.7h-4.5c0,0,0-6.5-4.6-6.5
			s-4.6,6.3-4.6,6.3"/>
		<path class="st0" d="M115.6,85.5"/>
	</g>
</g>
<g id="Nueva_Plantacion" class="st6">
	<path class="st8" d="M215.8,190.8c0.4-8.9,0.7-20.3,0.8-33c0-0.6,0.4-1.2,1-1.4c2.9-1.1,9.5-4.3,13.4-11.4
		c3.8-7.1,3.8-15.9,3.6-19.8c-0.1-1-1.1-1.7-2.1-1.3c-3.1,1.3-9.3,4.5-13,11.3c0,0,0,0.1,0,0.1c-0.7,1.4-2.8,0.9-2.8-0.7
		c0-1.5,0-2.9,0-4.4c0-0.6,0.4-1.2,1-1.4c2.9-1.1,9.6-4.3,13.4-11.4c3.8-7.1,3.8-15.9,3.6-19.8c-0.1-1-1.1-1.7-2.1-1.3
		c-3.1,1.3-9.3,4.5-13,11.3c-0.2,0.3-0.4,0.7-0.5,1c-0.7,1.4-2.8,0.9-2.8-0.6c0-1.1-0.1-2.1-0.1-3.1c0-0.6,0.3-1.1,0.8-1.4
		c2.4-1.3,9.4-5.8,12.9-14.1c1.3-3.2,2-6.7,2.2-9.9c0.3-4.2-0.1-8-0.4-10.2c-0.2-1.1-1.4-1.6-2.3-1.1c-1.4,0.8-3.3,2.2-5.3,4.1
		c-2.4,2.3-4.9,5.4-6.6,9.4c-0.2,0.5-0.4,1-0.6,1.5c-0.1,0.3-0.2,0.5-0.2,0.8c-0.3,1-1.5,1.5-2.4,0.9c-0.1-0.1-0.3-0.1-0.4-0.1
		c-0.1,0-0.3,0-0.4,0.1c-0.8,0.6-2,0.1-2.3-0.9c0-0.1,0-0.1-0.1-0.2c-0.2-0.7-0.5-1.5-0.8-2.2c-3.1-7.3-9-11.5-12.1-13.3
		c-0.9-0.6-2.1,0-2.3,1.1c-0.5,3.9-1.1,12.5,2.1,20c3.4,7.9,10.1,12.3,12.8,13.7c0.5,0.3,0.8,0.8,0.8,1.4c0,1.1-0.1,2.2-0.1,3.4
		c-0.1,1.6-2.2,2-2.8,0.6c-0.2-0.3-0.3-0.7-0.5-1c-3.7-6.8-9.9-10-13-11.3c-1-0.4-2,0.3-2.1,1.3c-0.2,3.9-0.3,12.7,3.6,19.8
		c3.9,7.1,10.5,10.3,13.4,11.4c0.6,0.2,1,0.8,1,1.4c0,1.4,0,2.9,0,4.4c0,1.6-2.1,2-2.8,0.7c0,0,0-0.1,0-0.1c-3.7-6.8-9.9-10-13-11.3
		c-1-0.4-2,0.3-2.1,1.3c-0.2,3.9-0.3,12.8,3.6,19.8c3.8,7.1,10.4,10.3,13.4,11.4c0.6,0.2,1,0.8,1,1.4c0.1,12.8,0.4,24.3,0.8,33.1
		c0,0.8-0.6,1.5-1.4,1.6c-10.9,1.1-20.8,6.7-27.4,15.4c-0.6,0.8-1.8,0.8-2.4,0c-6.6-8.9-16.9-14.6-28-15.5c-0.8-0.1-1.4-0.7-1.4-1.6
		c0.4-8.9,0.7-20.3,0.8-33.1c0-0.6,0.4-1.2,1-1.4c2.9-1.1,9.5-4.3,13.4-11.4c3.8-7.1,3.8-15.9,3.6-19.8c-0.1-1-1.1-1.7-2.1-1.3
		c-3.1,1.3-9.3,4.5-13,11.3c0,0,0,0.1,0,0.1c-0.7,1.4-2.8,0.9-2.8-0.7c0-1.5,0-2.9,0-4.4c0-0.6,0.4-1.2,1-1.4
		c2.9-1.1,9.6-4.3,13.4-11.4c3.8-7.1,3.8-15.9,3.6-19.8c-0.1-1-1.1-1.7-2.1-1.3c-3.1,1.3-9.3,4.5-13,11.3c-0.2,0.3-0.4,0.7-0.5,1
		c-0.7,1.4-2.8,0.9-2.8-0.6c0-1.1-0.1-2.1-0.1-3.1c0-0.6,0.3-1.1,0.8-1.4c2.4-1.3,9.4-5.8,12.9-14.1c1.3-3.2,2-6.7,2.2-9.9
		c0.3-4.2-0.1-8-0.4-10.2c-0.2-1.1-1.4-1.6-2.3-1.1c-1.4,0.8-3.3,2.2-5.3,4.1c-2.4,2.3-4.9,5.4-6.6,9.4c-0.2,0.5-0.4,1-0.6,1.5
		c-0.1,0.3-0.2,0.5-0.2,0.8c-0.3,1-1.5,1.5-2.4,0.9c-0.1-0.1-0.3-0.1-0.4-0.1c-0.1,0-0.3,0-0.4,0.1c-0.8,0.6-2,0.1-2.3-0.9
		c0-0.1,0-0.1-0.1-0.2c-0.2-0.7-0.5-1.5-0.8-2.2c-3.1-7.3-9-11.5-12.1-13.3c-0.9-0.6-2.1,0-2.3,1.1c-0.5,3.9-1.1,12.5,2.1,20
		c3.4,7.9,10.1,12.3,12.8,13.7c0.5,0.3,0.8,0.8,0.8,1.4c0,1.1-0.1,2.2-0.1,3.4c-0.1,1.6-2.2,2-2.8,0.6c-0.2-0.3-0.3-0.7-0.5-1
		c-3.7-6.8-9.9-10-13-11.3c-1-0.4-2,0.3-2.1,1.3c-0.2,3.9-0.3,12.7,3.6,19.8c3.8,7.1,10.5,10.3,13.4,11.4c0.6,0.2,1,0.8,1,1.4
		c0,1.4,0,2.9,0,4.4c0,1.6-2.1,2-2.8,0.7c0,0,0-0.1,0-0.1c-3.7-6.8-9.9-10-13-11.3c-1-0.4-2,0.3-2.1,1.3c-0.2,3.9-0.3,12.8,3.6,19.8
		c3.8,7.1,10.4,10.3,13.4,11.4c0.6,0.2,1,0.8,1,1.4c0.1,12.8,0.4,24.2,0.8,33.1c0,0.8-0.6,1.5-1.4,1.6c-10.9,1.1-20.9,6.7-27.5,15.4
		c-0.6,0.8-1.8,0.8-2.4,0c-6.6-8.8-16.8-14.5-27.8-15.5c-0.8-0.1-1.4-0.7-1.4-1.6c0.4-8.9,0.7-20.3,0.8-33.1c0-0.6,0.4-1.2,1-1.4
		c2.9-1.1,9.5-4.3,13.4-11.4c3.8-7.1,3.8-15.9,3.6-19.8c-0.1-1-1.1-1.7-2.1-1.3c-3.1,1.3-9.3,4.5-13,11.3c0,0,0,0.1,0,0.1
		c-0.7,1.4-2.8,0.9-2.8-0.7c0-1.5,0-2.9,0-4.4c0-0.6,0.4-1.2,1-1.4c2.9-1.1,9.6-4.3,13.4-11.4c3.8-7.1,3.8-15.9,3.6-19.8
		c-0.1-1-1.1-1.7-2.1-1.3c-3.1,1.3-9.3,4.5-13,11.3c-0.2,0.3-0.4,0.7-0.5,1c-0.7,1.4-2.8,0.9-2.8-0.6c0-1.1-0.1-2.1-0.1-3.1
		c0-0.6,0.3-1.1,0.8-1.4c2.4-1.3,9.4-5.8,12.9-14.1c1.3-3.2,2-6.7,2.2-9.9c0.3-4.2-0.1-8-0.4-10.2c-0.2-1.1-1.4-1.6-2.3-1.1
		c-1.4,0.8-3.3,2.2-5.3,4.1c-2.4,2.3-4.9,5.4-6.6,9.4c-0.2,0.5-0.4,1-0.6,1.5c-0.1,0.3-0.2,0.5-0.2,0.8c-0.3,1-1.5,1.5-2.4,0.9
		c-0.1-0.1-0.3-0.1-0.4-0.1c-0.1,0-0.3,0-0.4,0.1c-0.8,0.6-2,0.1-2.3-0.9c0-0.1,0-0.1-0.1-0.2c-0.2-0.7-0.5-1.5-0.8-2.2
		c-3.1-7.3-9-11.5-12.1-13.3c-0.9-0.6-2.1,0-2.3,1.1c-0.5,3.9-1.1,12.5,2.1,20c3.4,7.9,10.1,12.3,12.8,13.7c0.5,0.3,0.8,0.8,0.8,1.4
		c0,1.1-0.1,2.2-0.1,3.4c-0.1,1.6-2.2,2-2.8,0.6c-0.2-0.3-0.3-0.7-0.5-1c-3.7-6.8-9.9-10-13-11.3c-1-0.4-2,0.3-2.1,1.3
		c-0.2,3.9-0.3,12.7,3.6,19.8c3.9,7.1,10.5,10.3,13.4,11.4c0.6,0.2,1,0.8,1,1.4c0,1.4,0,2.9,0,4.4c0,1.6-2.1,2-2.8,0.7
		c0,0,0-0.1,0-0.1c-3.7-6.8-9.9-10-13-11.3c-1-0.4-2,0.3-2.1,1.3c-0.2,3.9-0.3,12.8,3.6,19.8c3.8,7.1,10.4,10.3,13.4,11.4
		c0.6,0.2,1,0.8,1,1.4c0.1,12.8,0.4,24.2,0.8,33.1c0,0.8-0.6,1.5-1.4,1.6c-15.6,1.4-28.6,12.1-33.4,26.6c-0.3,1,0.4,2,1.4,2h200.5
		c1,0,1.8-1,1.4-2c-4.8-14.7-18-25.4-33.9-26.7C216.4,192.3,215.8,191.6,215.8,190.8z"/>
	<ellipse class="st8" cx="84.5" cy="87.7" rx="2" ry="12.7"/>
	<ellipse class="st8" cx="148.9" cy="87.7" rx="1.5" ry="12.7"/>
	<ellipse class="st8" cx="213.8" cy="87.7" rx="1.5" ry="12.7"/>
</g>
<g id="Familiar" class="st6">
	<g class="st9">
		<path class="st0" d="M134,91.5c10.9,0,19.7-8.8,19.7-19.7c0-10.9-8.8-19.7-19.7-19.7c-10.9,0-19.7,8.8-19.7,19.7
			C114.3,82.6,123.1,91.5,134,91.5z"/>
		<path class="st0" d="M153.3,160.8l-5.2-0.8c-5.2-0.9-8-3.7-9.5-5.8c-2.2-3.2-2.9-7.4-1.9-11.9l8.9-26.6c1.5-4.8,3.9-8.7,7.2-11.6
			c2.4-2.1,1.5-6.1-1.7-6.7c-2.6-0.5-5.5-0.8-8.7-0.8h-16.8c-7.2,0-13,1.3-17.4,4.1c-1.8,1.2-2.1,3.6-1,5.3
			c2.4,3.6,3.9,7.9,3.9,12.6c0,4.1-1.1,7.9-3,11.2c-1,1.8-0.4,4.1,1.4,5.2c8.2,4.9,10.3,14.1,10.3,22l-0.1,25.4
			c0,5.9-3.2,10.4-8.3,12.5l-0.1,35.9c0,0.1,0,0.2,0.1,0.4c0.1,0.7,0.3,1.4,0.7,2c1.8,3.7,5.4,5.8,9.8,5.8c6.2,0,11.2-5,11.2-11.2
			c0,6.2,5,11.2,11.2,11.2c0.7,0,1.4-0.1,2.1-0.2c4.3-0.8,7.1-4.8,7-9.2c0-0.3,0-0.5,0-0.8L153.3,160.8z"/>
		<path class="st0" d="M113.5,182.4l0.1-25.4c0-13-5.6-18.3-16-19.1h-9.3c-2.2,0-4,1.9-3.8,4.2c0.6,5.1-1.3,10.1-5.3,13.4
			c-2.7,2.2-6.2,3.4-9.7,3.4c-0.4,0-0.8,0-1.2-0.1c-2.3-0.2-4.3,1.5-4.3,3.8l0,19.8c0,3.5,2.1,6.4,6.2,7.1c1.2,0.2,2.1,1.3,2.1,2.5
			l0,38.4c0,4.4,3.4,8.2,7.8,8.4c4.7,0.2,8.6-3.5,8.6-8.2c0,4.5,3.7,8.2,8.2,8.2s8.2-3.7,8.2-8.2l0.1-38.7c0-1.2,0.9-2.3,2.1-2.5
			C111.4,188.8,113.5,185.9,113.5,182.4z"/>
		<path class="st0" d="M64.3,152.8c1.8,1.2,4,1.7,6.4,1.4c2.2-0.3,4.4-1.4,6.1-3.1c5.9-5.7,3.1-9.9-0.3-14.2
			c-1.3-1.6-1.5-1.9-2.2-2.4c-0.9-0.7-1.9-0.9-2.9-0.8c-2.3,0.3-4.6,2.6-7,5.1c-3.8,4-6.5,6.6-2.7,11.3
			C62.2,150.7,63,152,64.3,152.8z"/>
		<path class="st0" d="M88.7,134.1c8.6,0,15.5-6.9,15.5-15.5c0-8.6-6.9-15.5-15.5-15.5c-8.6,0-15.5,6.9-15.5,15.5
			C73.2,127.1,80.1,134.1,88.7,134.1z"/>
		<path class="st0" d="M197.4,201.7c0-1.4-0.5-2.7-1.2-3.8c-1.4-2-2.1-4.3-2.1-7l-0.1-21.5c0-6.2,1.3-10.7,3.4-14
			c1.4-2.1,3-3.7,4.8-4.9c1.5-1,2.1-3,1.3-4.7c-1.1-2.4-1.7-5.1-1.7-8c0-2.8,0.6-5.6,1.7-8c0.9-2-0.1-4.4-2.2-5.2
			c-1.7-0.6-3.3-1.5-4.7-2.7c-4-3.4-5.7-8.5-5-13.7c0.3-2.3-1.3-4.3-3.6-4.4c-0.7,0-1.5,0-2.2,0h-12.3c-11.5,0-19,3.8-21.9,13.7
			l-8.8,26c-1.1,5.4,1,9.3,6.4,10.3l10.4,1.6l0,73.3c0,5.7,3.3,10.3,9.2,10.3c5.9,0,9.7-4.6,9.7-10.3c0,5.7,3.3,10.3,9.2,10.3
			c5.9,0,9.7-4.6,9.7-10.3L197.4,201.7z"/>
		<path class="st0" d="M200.7,101.3c-4.5,3-6.9,8.5-4.5,13.4c1.1,2.2,3,3.9,5.1,4.8c2,0.9,4.2,1.1,6.3,0.5c1.5-0.4,2.6-1.4,3.3-1.8
			c5-3.4,3.2-6.6,0.7-11.6c-1.6-3.1-3.1-6-5.2-7c-0.9-0.4-1.8-0.4-2.9-0.1C202.7,100,202.3,100.2,200.7,101.3z"/>
		<path class="st0" d="M228.7,153.3h-14.8c-8.9,0.7-13.5,5.2-13.5,16.1l0,21.5c0,2.9,1.7,5.3,4.9,6c1.2,0.3,2.1,1.3,2.1,2.5v32.5
			c0,3.8,3,7.1,6.8,7.2c3.9,0.1,7.1-3.1,7.1-6.9c0,3.8,3.1,6.9,6.9,6.9c3.8,0,6.9-3.1,6.9-6.9l0.1-32.7c0-1.2,0.9-2.2,2.1-2.5
			c3.3-0.7,4.9-3.1,4.9-6l0-21.5C242.2,158.5,237.5,153.9,228.7,153.3z"/>
		<path class="st0" d="M221.3,124.7c-7.2,0-13.1,5.9-13.1,13.1c0,7.2,5.9,13.1,13.1,13.1c7.2,0,13.1-5.9,13.1-13.1
			C234.4,130.6,228.5,124.7,221.3,124.7z"/>
		<path class="st0" d="M196.7,81.1c0,10-8.1,18.2-18.2,18.2c-10,0-18.2-8.1-18.2-18.2c0-10,8.1-18.2,18.2-18.2
			C188.6,62.9,196.7,71.1,196.7,81.1z"/>
	</g>
	<g class="st9">
		<path class="st19" d="M130,145.1c6.7,11.9,27.2,25.9,27.2,25.9s20.2-15.6,27-25.6c7.6-11.2-0.8-25.6-13.7-25.6
			c-5.5,0-10.3,2.7-13.3,6.8c-3-4.1-7.8-6.8-13.3-6.8C131.4,119.9,123.3,133.2,130,145.1z"/>
	</g>
</g>
<g id="Personalizable" class="st6">
	<path class="st8" d="M105.6,193.2c26.5-6.5,66.5-16.3,68.3-73.6c0.2-6.5-2.2-12.8-6.9-17.6c-4.8-4.9-11.4-7.7-18.4-7.7
		c-6.9,0-13.6,2.9-18.3,8c-4.6,4.9-5.8,11.3-6.7,16c-3.6,19.2-16,28.6-37.9,28.9c-3.2,0-5.8,2.7-5.7,5.9c0,3.2,2.6,5.8,5.9,5.7
		c27.1-0.3,44.5-13.9,49.1-38.3c0.8-4.5,1.7-8,3.7-10.3c2.6-2.8,6.1-4.3,10-4.3c3.7,0,7.3,1.5,9.9,4.2c2.4,2.5,3.7,5.7,3.6,9.1
		c-1.6,48.6-33.7,56.5-59.5,62.8c-4.9,1.2-9.6,2.3-13.6,3.7c-3,1-4.7,4.3-3.6,7.3c0.8,2.4,3.1,3.9,5.5,3.9c0.6,0,1.2-0.1,1.9-0.3
		C96.5,195.5,100.9,194.4,105.6,193.2z"/>
	<path class="st8" d="M211.4,166.7c-10.3-3.1-19.5-7.3-19.4-23.6c0-3.6,0.2-6,0.5-8.6c0.3-3.5,0.7-7.5,0.6-15.1
		c-0.3-24.4-20.2-44.3-44.3-44.3c-22,0-39.2,15-43.9,38.2c-2.8,13.8-10,14.3-16.6,13.6c-3.2-0.3-6,2-6.3,5.2c-0.3,3.2,2,6,5.2,6.3
		c19.9,2,26.8-11.3,29.1-22.9c3.6-17.8,16-28.9,32.5-28.9c17.8,0,32.5,14.8,32.8,32.9c0.1,7-0.2,10.5-0.5,13.9
		c-0.2,2.7-0.5,5.4-0.5,9.5c-0.2,26.4,19.3,32.3,27.6,34.8c0.6,0.2,1.1,0.3,1.7,0.3c2.5,0,4.8-1.6,5.5-4.1
		C216.2,170.9,214.5,167.6,211.4,166.7z"/>
	<path class="st8" d="M213.5,147.5c-0.5-0.3-2.8-2.2-2.3-7.4c0.8-7.5,1.2-19.7,1.2-20.2l0-0.2c0-35.1-28.6-63.7-63.7-63.7
		c-26,0-49.8,16.3-59.3,40.6c-1.1,2.9-2,6.3-2.7,9.3c-0.4,1.6-0.9,3.5-1.1,4.2c-1.2,3,0.3,6.3,3.3,7.5c3,1.2,6.3-0.3,7.5-3.3
		c0.5-1.4,1-3.2,1.6-5.6c0.7-2.7,1.4-5.7,2.3-7.9c7.8-19.9,27.3-33.2,48.5-33.2c28.7,0,52.1,23.3,52.1,52c0,1.2-0.5,12.6-1.2,19.3
		c-1.4,12.8,6.8,18.9,10.8,19.8c0.4,0.1,0.8,0.1,1.2,0.1c2.7,0,5.1-1.9,5.7-4.6C218,151.3,216.3,148.4,213.5,147.5z"/>
	<path class="st8" d="M89,177.9c1.1-0.2,2.3-0.5,3.6-0.7c22.5-4.5,60.2-12.1,62-57.7c0.1-3.2-2.4-5.9-5.6-6c-3.2,0-5.9,2.4-6,5.6
		c-1.4,36.5-31.1,42.5-52.7,46.8c-1.3,0.3-2.5,0.5-3.6,0.7c-3.1,0.7-5.1,3.7-4.5,6.9c0.6,2.7,3,4.6,5.7,4.6
		C88.2,178.1,88.6,178,89,177.9z"/>
	<path class="st8" d="M207.7,185.5c-5.8-1.3-11-3.3-17.1-5.9c-4.7-2-9.9-5.9-13.6-10.2c-2.1-2.4-5.8-2.7-8.2-0.6
		c-2.4,2.1-2.7,5.8-0.6,8.2c4.9,5.6,11.5,10.6,17.8,13.3c5.8,2.5,12.1,5,19.2,6.5c0.4,0.1,0.8,0.1,1.3,0.1c2.7,0,5.1-1.8,5.7-4.6
		C212.8,189.3,210.9,186.2,207.7,185.5z"/>
	<path class="st8" d="M201.9,204c-10.8-2.3-18.2-6.2-24.8-9.7c-6.5-3.5-12.1-6.4-18.7-6.4c-5.3,0-11.4,2-20.7,4.9
		c-9.8,3.1-23.3,7.4-41.9,11.2c-3.1,0.6-5.2,3.7-4.5,6.8c0.6,3.1,3.7,5.2,6.8,4.5c19.2-3.9,33.1-8.3,43.1-11.5
		c7.9-2.5,13.7-4.4,17.1-4.4c3.7,0,7.9,2.2,13.2,5.1c6.9,3.7,15.4,8.2,27.8,10.8c0.4,0.1,0.8,0.1,1.2,0.1c2.7,0,5.1-1.9,5.7-4.6
		C207,207.8,205,204.7,201.9,204z"/>
	<path class="st8" d="M191.1,220.3c-4.3-1.1-9.2-3.5-14-5.7c-7.3-3.4-14.2-6.6-20.2-6.6c-4.4,0-12,2.1-24,5.6
		c-8.7,2.5-18.6,5.4-25.7,6.6c-3.2,0.5-5.3,3.5-4.7,6.7c0.5,3.2,3.5,5.3,6.7,4.7c7.8-1.3,18-4.3,26.9-6.9c8.3-2.4,17.8-5.2,20.8-5.2
		c3.5,0,9.5,2.8,15.3,5.6c5.2,2.5,10.7,5,15.9,6.4c0.5,0.1,1,0.2,1.5,0.2c2.6,0,4.9-1.7,5.6-4.3C196,224.3,194.2,221.2,191.1,220.3z
		"/>
	<path class="st8" d="M176.1,234.4c-1.4-0.5-2.8-1.1-4.4-1.8c-4.9-2.2-10.5-4.6-17.6-4.6c-3.3,0-7.9,1.1-15.3,2.8
		c-5.4,1.3-11.4,2.7-15.9,3.3c-3.2,0.4-5.4,3.3-5.1,6.4c0.4,3.2,3.3,5.4,6.4,5.1c5.1-0.6,11.5-2.1,17.2-3.5c5-1.2,10.6-2.5,12.6-2.5
		c4.7,0,8.7,1.8,13,3.6c1.6,0.7,3.3,1.5,5.1,2.1c0.7,0.2,1.3,0.4,2,0.4c2.4,0,4.6-1.5,5.4-3.8C180.7,238.8,179.1,235.5,176.1,234.4z
		"/>
</g>
<path id="Analisis_propios" class="st20" d="M192.7,228.9h-31.1v-8c25.3-5.8,44.2-28.5,44.2-55.6c0-18.6-8.9-35.1-22.7-45.5
	c0-0.3,0-0.6,0-1c0-4.9-2.2-9.3-5.6-12.3l12.9-16.6c1.7-2.2,0.9-5.6-1.7-7.6l-4.7-3.7l16.6-21.3c0.8-1,0.4-2.5-0.7-3.4l-10.6-8.2
	c-1.2-0.9-2.7-0.8-3.5,0.1l-16.6,21.3l-4.7-3.7c-2.6-2-6.1-1.9-7.7,0.3l-44.7,57.5c-2.4,3.1-1.8,7.4,1.2,9.8l22.6,17.5
	c3.1,2.4,7.4,1.8,9.8-1.2l11.7-15.1c2.6,1.8,5.8,2.9,9.3,2.9c3.1,0,6-0.9,8.5-2.4c9.7,7.9,15.8,20.1,15.4,33.7
	c-0.6,21.8-18.2,39.7-40,40.7c-14.3,0.7-27.1-5.9-35.2-16.3h21c2.2,0,4-1.8,4-4v-6.1c0-2.2-1.8-4-4-4h-28.1H92.8H74.6
	c-2.2,0-4,1.8-4,4v6.1c0,2.2,1.8,4,4,4h23.1c7.5,14.9,21.3,26,37.8,29.9v8.1h-31.1c-2.8,0-5.1,2.3-5.1,5.1v7.9
	c0,2.8,2.3,5.1,5.1,5.1h88.3c2.8,0,5.1-2.3,5.1-5.1V234C197.8,231.2,195.5,228.9,192.7,228.9z"/>
<g id="Otros_analisis" class="st6">
	<g>
		<path class="st21" d="M34.1,326.8 M178.2,150.9c6.1,7.8,10.8,12.8,19.1,18c12.8,8.1,30,4.4,38.3-8.3c7-10.7,5.8-24.2-2.1-33.4
			c1.3-1.4,2.4-2.9,3.5-4.6c9.2-14.8,4.6-34.3-10.2-43.5c-8.6-5.3-19.1-6.2-28.3-2.5c-2.1-4-5.2-7.3-9.1-9.7
			c-3.9-2.4-8.4-3.7-12.9-3.8c-2.4-4.3-5.9-7.9-10.2-10.5c-12.3-7.6-28-5.2-37.6,4.9c-10.7-4.7-23.5-0.9-29.8,9.2
			c-1.7,2.8-2.8,5.8-3.3,8.9c-7.2,2.9-13.3,7.9-17.5,14.7c-1.2,2-2.2,4-3.1,6.2c-11.3-3.7-24.2,1-30.2,12.1c-6.1,11.3-2.7,25.7,8,33
			c10.6,7.3,28.4,14.4,33.4,10c0.1,0.1,2.7,0.5,2.8,0.6c0,0,2.7,1.1,2.8,1.1c0.6,0.5,2.2-2.6,2.8-2.2c0,0,1.1,0.5,1.1,0.6
			c0.6,0.4,4.4-0.9,5-0.6c5.9,3.6,7.6,1.1,13.9,1.1"/>
	</g>
	<path class="st8" d="M229.9,132.5h-4.2c-1.4,0-2.6,1.2-2.6,2.6v11.2c0,1.4-1.2,2.6-2.6,2.6H77.1c-1.4,0-2.6-1.2-2.6-2.6v-11.2
		c0-1.4-1.2-2.6-2.6-2.6h-4.2c-1.4,0-2.6,1.2-2.6,2.6v83c0,1.4,1.2,2.6,2.6,2.6h162.2c1.4,0,2.6-1.2,2.6-2.6v-83
		C232.5,133.7,231.3,132.5,229.9,132.5z M220.4,211H77.1c-1.4,0-2.6-1.2-2.6-2.6v-47.1c0-1.4,1.2-2.6,2.6-2.6h10.8
		c1.4,0,2.6,1.2,2.6,2.6v40.8c0,1.4,1.2,2.6,2.6,2.6H113c1.4,0,2.6-1.2,2.6-2.6v-40.8c0-1.4,1.2-2.6,2.6-2.6H134
		c1.4,0,2.6,1.2,2.6,2.6v40.8c0,1.4,1.2,2.6,2.6,2.6h20.2c1.4,0,2.6-1.2,2.6-2.6v-40.8c0-1.4,1.2-2.6,2.6-2.6h15.7
		c1.4,0,2.6,1.2,2.6,2.6v40.8c0,1.4,1.2,2.6,2.6,2.6h20.2c1.4,0,2.6-1.2,2.6-2.6l0-40.8c0-1.4,1.2-2.6,2.6-2.6h9.4
		c1.4,0,2.6,1.2,2.6,2.6v47.1C223.1,209.8,221.9,211,220.4,211z"/>
	<path class="st8" d="M179.3,90.3h1c1.4,0,2.6,1.2,2.6,2.6v46.7c0,1.4,1.2,2.6,2.6,2.6h20.2c1.4,0,2.6-1.2,2.6-2.6V92.9
		c0-1.4,1.2-2.6,2.6-2.6h0.7c1.4,0,2.6-1.2,2.6-2.6v0c0-1.4-1.2-2.6-2.6-2.6h-32.4c-1.4,0-2.6,1.2-2.6,2.6v0
		C176.7,89.1,177.8,90.3,179.3,90.3z M190.6,90.3h10.2c1.1,0,2,0.4,2,0.9v11.1c0,0.5-0.9,0.9-2,0.9h-10.2c-1.1,0-2-0.4-2-0.9V91.2
		C188.5,90.7,189.4,90.3,190.6,90.3z"/>
	<path class="st8" d="M132.9,90.3h1c1.4,0,2.6,1.2,2.6,2.6v46.7c0,1.4,1.2,2.6,2.6,2.6h20.2c1.4,0,2.6-1.2,2.6-2.6V92.9
		c0-1.4,1.2-2.6,2.6-2.6h1c1.4,0,2.6-1.2,2.6-2.6v0c0-1.4-1.2-2.6-2.6-2.6h-32.8c-1.4,0-2.6,1.2-2.6,2.6v0
		C130.3,89.1,131.5,90.3,132.9,90.3z M144.2,90.3h10.2c1.1,0,2,1,2,2.2v37.6c0,1.2-0.9,2.2-2,2.2h-10.2c-1.1,0-2-1-2-2.2V92.5
		C142.1,91.3,143.1,90.3,144.2,90.3z"/>
	<path class="st8" d="M86.9,90.3h1c1.4,0,2.6,1.2,2.6,2.6v46.7c0,1.4,1.2,2.6,2.6,2.6H113c1.4,0,2.6-1.2,2.6-2.6V92.9
		c0-1.4,1.2-2.6,2.6-2.6h1c1.4,0,2.6-1.2,2.6-2.6v0c0-1.4-1.2-2.6-2.6-2.6H86.9c-1.4,0-2.6,1.2-2.6,2.6v0
		C84.3,89.1,85.4,90.3,86.9,90.3z M98.4,90.3h9.1c1.4,0,2.6,1.2,2.6,2.6v13.9c0,1.4-1.2,2.6-2.6,2.6h-9.1c-1.4,0-2.6-1.2-2.6-2.6
		V92.9C95.8,91.5,96.9,90.3,98.4,90.3z"/>
</g>
<g id="Pesticidas" class="st6">
	<path class="st22" d="M134.3,84.2c0.3,1.2,1,2.4,1.9,3.3c1.6,1.6,3.7,2.3,5.8,2.1c0.8,1.8,1.9,3.4,3.4,4.9c0.6,0.6,1.2,1.2,1.9,1.6
		c-0.8,4.1,0.4,8.5,3.6,11.7c1.9,1.9,4.2,3.1,6.7,3.6c4.1,0.8,7.6,3.2,9.9,6.7c0.8,1.3,1.8,2.5,2.9,3.6c9.1,9.1,23.9,9.1,33,0
		c0,0,0,0,0.1-0.1c3.4-3.4,7.9-5.7,12.7-6c4.9-0.4,9.7-2.4,13.5-6.2c8.3-8.3,8.3-21.9,0-30.2c-1.5-1.5-3.1-2.7-4.8-3.6
		c-3.4-1.9-6-5.1-6.7-9c-0.7-3.9-2.6-7.6-5.6-10.7c-8-8-20.9-8-28.9,0l0,0c-0.7,0.6-1.7,0.7-2.4,0.2c-7-4.7-16.7-4-22.9,2.2
		c-1.3,1.3-2.3,2.7-3.1,4.1c-1.4,2.5-3.5,4.6-6,5.9c-1.4,0.7-2.7,1.7-3.8,2.9c-1.1,1.1-2.1,2.4-2.8,3.8c-2.3-0.4-4.6,0.3-6.4,2.1
		c-1,1-1.6,2.1-1.9,3.3"/>
	<path class="st22" d="M123.8,144.3 M154.1,123.1c-1.4-7.6-8.1-13.3-16-13.3l-33.2,0c-8.9,0-16.3,7.3-16.3,16.3v112.3
		c0,8,6.5,14.5,14.5,14.5h35c7.9,0,14.6-5.8,16-13.3"/>
	<path class="st22" d="M136.4,106.4h-29.8c-2.4,0-4.4-2-4.4-4.4v-1.1c0-2.4,2-4.4,4.4-4.4h29.8c2.4,0,4.4,2,4.4,4.4v1.1
		C140.7,104.4,138.8,106.4,136.4,106.4z"/>
	<path class="st22" d="M123,92.8h-3.1c-3.9,0-7-3.1-7-7v-8.1c0-3.9,3.1-7,7-7h3.1c3.8,0,7,3.1,7,7v8.1C130,89.7,126.9,92.8,123,92.8
		z"/>
	<line class="st23" x1="106.6" y1="191.5" x2="136.5" y2="152.1"/>
	<line class="st24" x1="136.5" y1="191.5" x2="106.7" y2="152.1"/>
</g>
<g id="Renovable" class="st6">
	<path class="st14" d="M191.1,120.2c-2.5-11-10.5-19.2-20.5-22.4c-2.7-0.9-4.9-2.7-6.2-5.2c-7.6-14.4-24.5-22.2-41.2-17.3
		C107,80.2,96.4,96.2,98.3,113c0.5,4.3,1.7,8.2,3.5,11.8c2.1,4.2,1.9,9.1-0.4,13.1c-3.3,5.8-4.5,12.8-2.9,19.9
		c3.4,15.2,18.5,24.7,33.7,21.3h0c2.2-0.5,4.4,0,6.1,1.5c6.5,5.6,15.5,8.1,24.5,6.1c15.2-3.4,24.7-18.5,21.3-33.7l0-0.1
		c-0.6-2.8,0.1-5.6,1.8-7.9C190.9,138.2,193.2,129.2,191.1,120.2z"/>
	<path class="st22" d="M129.3,232.8l9.9-68.1c0.9-6.1,5.2-10.5,10.1-10.5h0c5,0,9.3,4.4,10.1,10.6l9.8,68.1c1.1,7.8-3.7,15-10.1,15
		h-19.6C133,247.9,128.1,240.7,129.3,232.8z"/>
	<path class="st22" d="M187.9,251h-77.3c-4.8,0-8.7-3.9-8.7-8.7v0c0-4.8,3.9-8.7,8.7-8.7h77.3c4.8,0,8.7,3.9,8.7,8.7v0
		C196.5,247.1,192.6,251,187.9,251z"/>
	<path class="st22" d="M134.5,152.2C134.5,152.2,134.5,152.2,134.5,152.2c0,0,0.1,0,0.1,0c-5-4.2-8-10.5-7.7-17.5
		c0.1-2.1,0.5-4,1.1-5.9c-0.8,0.2-1.6,0.4-2.4,0.7c-7.4,2.8-63.8,22.6-64.4,22.8c-0.1,0-0.2,0.1-0.3,0.1c-1.4,0.7-3.7,2.9-2.8,6.4
		c0,0,0,0,0,0c0.9,3.6,4,4.4,5.5,4.3c0.1,0,0.2,0,0.3,0c0.6-0.1,59.6-9.3,67.5-10.3C132.5,152.7,133.5,152.5,134.5,152.2z"/>
	<path class="st22" d="M174.4,46.4C174.4,46.4,174.4,46.4,174.4,46.4c-1.2-0.3-2.3-0.3-3.3,0c-2.1,0.6-3,2.3-3.2,2.6
		c0,0.1-0.1,0.2-0.1,0.3c-0.2,0.6-21.8,56.2-24.8,63.6c-0.3,0.7-0.5,1.4-0.7,2c2.3-0.7,4.7-1,7.2-0.9c6.5,0.3,12.2,3.4,16,8.2
		c0.3-0.9,0.5-1.8,0.7-2.7c1.3-7.8,12.3-66.6,12.4-67.1c0-0.1,0-0.2,0-0.3C178.7,50.6,178,47.4,174.4,46.4z"/>
	<path class="st22" d="M236,167.1C236,167.1,236,167.1,236,167.1c0.4-1.1,0.5-2.2,0.3-3.3c-0.5-2.1-2-3.2-2.3-3.4
		c-0.1-0.1-0.2-0.1-0.3-0.2c-0.5-0.3-54.2-26.5-61.2-30.1c-0.7-0.3-1.3-0.6-2-0.9c0.5,2.3,0.6,4.7,0.3,7.2
		c-0.8,6.5-4.5,11.9-9.5,15.2c0.8,0.4,1.7,0.7,2.6,0.9c7.7,2,65.3,17.9,65.8,18.1c0.1,0,0.2,0,0.3,0.1
		C231.5,171,234.7,170.6,236,167.1z"/>
	<path class="st22" d="M144.3,146.7c6.7,2.4,14-1.1,16.4-7.8c2.4-6.7-1.1-14-7.8-16.4c-6.7-2.4-14,1.1-16.4,7.8
		C134.1,137,137.6,144.3,144.3,146.7z"/>
</g>
<g id="Visitas" class="st6">
	<path class="st22" d="M218.2,132.5c14.9-1.3,28.1,9.9,29.4,24.8l4.8,56c0.1,1.4-1,2.7-2.4,2.7h-49.4c-1.3,0-2.3-1-2.4-2.2l-0.6-7.2
		c-0.2-2.7-3.3-4-5.5-2.5c-9.4,6.8-21,11.1-33.7,12.2c-0.1,0-0.3,0.1-0.4,0.1c1.9-2.7,3.1-5.8,3.4-9.3c0.4-4.7-1-9.2-3.6-12.8
		c18.6-2.1,32.8-14.4,35.7-34.9C196,140.9,206.2,134.1,218.2,132.5z"/>
	<path class="st22" d="M209.6,127.4c13.6-1.2,23.7-13.2,22.5-26.8c-1.2-13.6-13.2-23.7-26.8-22.5c-13.6,1.2-23.7,13.2-22.5,26.8
		C184,118.5,196,128.6,209.6,127.4z"/>
	<path class="st22" d="M143.2,194.4c-19.4-1.7-34.4-14.2-37.1-35.6c-1.7-13.5-10.8-25.2-24.7-26.4c-15.7-1.4-28.1,10.3-29.3,24.4
		l-5.4,56.4c-0.1,1.4,1,2.7,2.4,2.7H98c1.8,0,3.3-1.4,3.4-3.2l0.1-1.1c0.1-1.2-0.4-2.3-1.3-3c-7.9-6.2-14.2-14-18.4-23.2
		c-0.8-1.8,0.1-3.9,1.9-4.6l1-0.4c1.7-0.6,3.5,0.1,4.3,1.7c9.2,19.4,28.8,32.1,52.2,34.1c6.6,0.4,11.4-4.3,12-10
		C153.7,200.2,149.2,194.9,143.2,194.4z"/>
	<path class="st22" d="M94.2,127.4c13.6-1.2,23.7-13.2,22.5-26.8c-1.2-13.6-13.2-23.7-26.8-22.5c-13.6,1.2-23.7,13.2-22.5,26.8
		C68.6,118.5,80.6,128.6,94.2,127.4z"/>
</g>
</svg>
