<?xml version="1.0" encoding="UTF-8"?>
<svg width="352px" height="564px" viewBox="0 0 352 564" version="1.1" xmlns="http://www.w3.org/2000/svg" xmlns:xlink="http://www.w3.org/1999/xlink">
    <!-- Generator: Sketch 63.1 (92452) - https://sketch.com -->
    <title>03.gallery.illustration01</title>
    <desc>Created with Sketch.</desc>
    <defs>
        <rect id="path-1" x="0" y="0" width="352" height="564" rx="2.5"></rect>
    </defs>
    <g id="03.gallery.illustration01" stroke="none" stroke-width="1" fill="none" fill-rule="evenodd">
        <g id="Winners-1">
            <mask id="mask-2" fill="white">
                <use xlink:href="#path-1"></use>
            </mask>
            <use id="Rectangle" fill="#FCECD0" fill-rule="nonzero" xlink:href="#path-1"></use>
            <g id="Group" mask="url(#mask-2)">
                <g transform="translate(118.500000, 303.000000)" id="Path">
                    <path d="M76.9,129.45 C76.9,129.45 214.2,197.15 361.65,119.45 L314.45,37.45 C314.45,37.45 216.25,95.8 120.25,0" stroke="none" fill="#FFFFFF" fill-rule="nonzero"></path>
                    <path d="M27.65,143.5 C27.65,143.5 122.4,281.4 361.6,237 L348.75,136.2 C348.75,136.2 178.2,146.1 112.35,46.95 C112.35,46.95 62.15,-13.9 19.45,28.4 C-17.75,65.2 6.55,115.85 27.65,143.5 Z" stroke="none" fill="#FFFFFF" fill-rule="nonzero"></path>
                    <path d="M117.15,53.6 C117.15,53.6 168.15,129.6 302.35,135.25" stroke="#212121" stroke-width="1.7285" fill="none" stroke-linecap="round"></path>
                </g>
            </g>
            <g id="Group" mask="url(#mask-2)" fill-rule="nonzero">
                <g transform="translate(15.500000, 73.500000)">
                    <path d="M172.05,198.7 C172.2,199.1 194.3,216.25 194.3,216.25 L191.25,190.05" id="Path" fill="#CED2D6"></path>
                    <path d="M179.9,358.95 C179.9,358.95 317.2,426.65 464.65,348.95 L417.45,266.95 C417.45,266.95 319.25,325.3 223.25,229.5" id="Path" fill="#FFFFFF"></path>
                    <path d="M191.25,190.05 C191.25,190.05 182,219.15 115.7,177.7 C115.7,177.7 -14.45,233.1 1.55,565.45 C4.35,565.5 146.95,607.85 331.15,569.9 C331.15,569.9 302.7,307.8 191.25,190.05" id="Path" fill="#2E988D"></path>
                    <path d="M172.05,198.7 C172.2,199.1 194.3,216.25 194.3,216.25 L191.25,190.05" id="Path" fill="#CED2D6"></path>
                    <path d="M115.5,175.35 C115.5,175.35 135.9,137.7 140.9,122.4 C145.9,107.1 150.45,72.75 151.75,60.8 C153.05,48.85 158.85,28.25 172.35,24.05 C185.9,19.85 244.45,19.55 250.95,20.55 C257.45,21.55 265.15,21.1 266.9,51.8 C268.65,82.45 264.75,133.35 218.3,167 C218.3,167 192.2,183.75 189.4,196.6 C189.4,196.6 163.95,218.45 115.5,175.35 Z" id="Path" fill="#E2A67D"></path>
                    <path d="M192.4,83.15 C191.85,83.15 191.3,82.95 190.9,82.55 C190,81.7 190,80.3 190.8,79.45 C190.9,79.3 203.25,66.6 218.1,77.5 C219.1,78.2 219.3,79.6 218.55,80.6 C217.85,81.6 216.45,81.8 215.45,81.05 C203.8,72.5 194.4,82.1 194,82.5 C193.55,82.95 192.95,83.15 192.4,83.15 Z" id="Path" fill="#222222"></path>
                    <path d="M260.35,86.9 C259.7,86.9 259.1,86.65 258.65,86.1 C256.15,83.1 253.35,81.5 250.4,81.35 C245.4,81.05 241.2,84.95 241.2,85 C240.3,85.85 238.9,85.8 238.1,84.95 C237.25,84.05 237.3,82.7 238.15,81.85 C238.35,81.65 243.7,76.6 250.65,76.95 C254.9,77.15 258.75,79.3 262.05,83.3 C262.85,84.25 262.7,85.65 261.8,86.4 C261.35,86.7 260.85,86.9 260.35,86.9 Z" id="Path" fill="#222222"></path>
                    <circle id="Oval" fill="#212121" cx="206.3" cy="85.8" r="3.5"></circle>
                    <circle id="Oval" fill="#212121" cx="250.7" cy="90.1" r="3.5"></circle>
                    <path d="M221.95,118.3 C221.45,118.3 221.05,117.9 221.05,117.4 C221.05,116.9 221.45,116.5 221.95,116.45 C222.9,116.4 223.75,116.4 224.55,116.4 C227.15,116.4 229.2,116.4 229.75,115.55 C230.3,114.8 230,112.9 228.85,109.85 C225.55,100.9 228.05,81.45 228.15,80.65 C228.2,80.15 228.65,79.8 229.15,79.85 C229.65,79.9 230,80.35 229.95,80.85 C229.9,81.05 227.4,100.7 230.55,109.2 C231.95,113.1 232.15,115.2 231.2,116.55 C230.1,118.15 227.75,118.15 224.5,118.15 C223.75,118.25 222.9,118.25 221.95,118.3 C222,118.3 222,118.3 221.95,118.3 Z" id="Path" fill="#212121"></path>
                    <path d="M156.35,87.35 L172.65,87.15 C172.65,87.15 167.4,111.35 175,117.5 C182.65,123.65 190,125.8 202.9,122.15 C215.75,118.5 233.6,117.35 251.25,130.25 C251.25,130.25 237.3,163.85 208.4,171.6 C179.5,179.35 157.15,159.7 146.8,146.7 C143.75,142.9 141.15,137.75 143.7,127.45 C146.25,117.15 156.35,87.35 156.35,87.35 Z" id="Path" fill="#222222"></path>
                    <path d="M229.75,129.75 C228.8,129.75 220.05,129.6 214,124.25 C213.6,123.9 213.55,123.25 213.9,122.85 C214.25,122.45 214.9,122.4 215.3,122.75 C221,127.75 229.7,127.75 229.8,127.75 C229.8,127.75 229.8,127.75 229.8,127.75 C230.35,127.75 230.8,128.2 230.8,128.75 C230.8,129.3 230.35,129.75 229.8,129.75 C229.8,129.75 229.8,129.75 229.75,129.75 Z" id="Path" fill="#FFFFFF"></path>
                    <path d="M133.95,583.7 C133.9,582.45 131.1,457.8 137.1,377.05 L139.45,377.2 C133.45,457.85 136.3,582.4 136.3,583.65 L133.95,583.7 Z" id="Path" fill="#79BBB1"></path>
                    <rect id="Rectangle" fill="#79BBB1" x="153.65" y="201.4" width="2.35" height="43.95"></rect>
                    <polygon id="Path" fill="#FFFFFF" points="98 186.35 113.85 166.4 177.8 200.2 167.2 223.4"></polygon>
                    <path d="M316,572.7 C304.2,420.85 227.55,275.5 195.15,220.05 C194.1,218.3 193.5,217.2 193.3,216.8 L195.4,215.75 C195.6,216.1 196.25,217.2 197.2,218.9 C229.7,274.5 306.55,420.2 318.4,572.55 L316,572.7 Z" id="Path" fill="#79BBB1"></path>
                    <path d="M194.9,218.45 C194.6,218.45 194.35,218.35 194.1,218.15 L175.9,201.75 C175.4,201.3 175.4,200.6 175.8,200.1 C176.25,199.6 176.95,199.6 177.45,200 L195.65,216.4 C196.15,216.85 196.15,217.55 195.75,218.05 C195.55,218.3 195.2,218.45 194.9,218.45 Z" id="Path" fill="#FFFFFF"></path>
                    <path d="M194.3,216.25 L189.25,196.7 C189.25,196.7 190.3,191.25 195.85,185.65 L213.45,206.6 L197,198.9 L194.3,216.25" id="Path" fill="#FFFFFF"></path>
                    <path d="M262.05,34 C262.05,34 189.6,25.35 189.4,26.1 C189.2,26.85 184.15,36.25 184.15,36.25 C184.15,36.25 189.8,32.85 196.15,43.4 C202.55,53.9 206.65,57.65 225.25,52.4 C225.25,52.4 236.15,46.65 241.6,47.4 C245.9,48 257.1,51.2 266.75,47.7 C266.4,42.35 265.9,40.5 265.2,36.95 L262.05,34 Z" id="Path" fill="#CC946E"></path>
                    <path d="M168.65,107 L181.5,57.65 C181.5,57.65 189.65,50.6 187.2,41.2 C185.65,35.3 190.7,31 194.4,35.2 C198.1,39.4 202.35,50.8 211.55,51.15 C220.75,51.45 231.25,45.7 240.4,44.15 C249.55,42.6 259.4,47.7 267,45.55 C274.6,43.4 281.6,30.65 277.95,18.5 C274.3,6.35 266.8,9.75 255.15,7.25 C243.5,4.7 217.75,-4.65 200.7,4.25 C183.65,13.15 179.75,11.9 172.4,12.4 C157.85,13.45 136.25,20.1 132.1,54.55 L128.3,89.5 L168.65,107 Z" id="Path" fill="#222222"></path>
                    <circle id="Oval" fill="#E2A67D" cx="135.5" cy="102.35" r="22.75"></circle>
                    <path d="M118,102.25 C117.95,102.25 117.95,102.25 117.9,102.25 C117.4,102.2 117.1,101.75 117.15,101.25 C117.15,101.1 119.05,87.2 133.15,84 C133.6,83.9 134.1,84.2 134.2,84.65 C134.3,85.1 134,85.6 133.55,85.7 C120.65,88.65 118.9,101.35 118.9,101.45 C118.8,101.95 118.45,102.25 118,102.25 Z" id="Path" fill="#222222"></path>
                    <path d="M130.65,373 C130.65,373 225.4,510.9 464.6,466.5 L451.75,365.7 C451.75,365.7 281.2,375.6 215.35,276.45 C215.35,276.45 165.15,215.6 122.45,257.9 C85.25,294.7 109.55,345.35 130.65,373 Z" id="Path" fill="#FFFFFF"></path>
                    <path d="M360.8,475.8 C321.9,475.8 285.45,469.95 252.2,458.3 C222.95,448.1 196.1,433.4 172.45,414.7 C132.2,382.8 114.9,349.8 114.7,349.45 C114.5,349.05 114.65,348.5 115.05,348.3 C115.45,348.1 116,348.25 116.2,348.65 C116.35,349 133.55,381.75 173.55,413.4 C197.05,432 223.7,446.55 252.75,456.7 C289.1,469.4 329.35,475.15 372.4,473.9 C372.9,473.85 373.3,474.25 373.3,474.75 C373.3,475.25 372.95,475.65 372.45,475.65 C368.6,475.7 364.65,475.8 360.8,475.8 Z" id="Path" fill="#212121"></path>
                    <path d="M405.35,365.65 C405.35,365.65 405.3,365.65 405.35,365.65 C374.65,364.35 345.75,359.25 319.55,350.45 C298.55,343.4 279.2,334.05 261.95,322.55 C246.65,312.35 235.9,302.3 229.6,295.7 C222.75,288.5 219.55,283.8 219.45,283.6 C219.2,283.2 219.3,282.65 219.7,282.4 C220.1,282.15 220.65,282.25 220.9,282.65 C220.95,282.7 224.15,287.45 230.95,294.55 C237.2,301.1 247.85,311.05 263.05,321.15 C280.15,332.55 299.35,341.85 320.2,348.8 C346.25,357.5 374.95,362.6 405.45,363.9 C405.95,363.9 406.3,364.3 406.3,364.8 C406.2,365.3 405.8,365.65 405.35,365.65 Z" id="Path" fill="#212121"></path>
                    <circle id="Oval" fill="#212121" cx="206.3" cy="85.8" r="3.5"></circle>
                    <circle id="Oval" fill="#212121" cx="250.7" cy="90.1" r="3.5"></circle>
                    <path d="M221.95,118.3 C221.45,118.3 221.05,117.9 221.05,117.4 C221.05,116.9 221.45,116.5 221.95,116.45 C222.9,116.4 223.75,116.4 224.55,116.4 C227.15,116.4 229.2,116.4 229.75,115.55 C230.3,114.8 230,112.9 228.85,109.85 C225.55,100.9 228.05,81.45 228.15,80.65 C228.2,80.15 228.65,79.8 229.15,79.85 C229.65,79.9 230,80.35 229.95,80.85 C229.9,81.05 227.4,100.7 230.55,109.2 C231.95,113.1 232.15,115.2 231.2,116.55 C230.1,118.15 227.75,118.15 224.5,118.15 C223.75,118.25 222.9,118.25 221.95,118.3 C222,118.3 222,118.3 221.95,118.3 Z" id="Path" fill="#212121"></path>
                    <path d="M229.75,129.75 C228.8,129.75 220.05,129.6 214,124.25 C213.6,123.9 213.55,123.25 213.9,122.85 C214.25,122.45 214.9,122.4 215.3,122.75 C221,127.75 229.7,127.75 229.8,127.75 C229.8,127.75 229.8,127.75 229.8,127.75 C230.35,127.75 230.8,128.2 230.8,128.75 C230.8,129.3 230.35,129.75 229.8,129.75 C229.8,129.75 229.8,129.75 229.75,129.75 Z" id="Path" fill="#FFFFFF"></path>
                    <path d="M194.9,218.45 C194.6,218.45 194.35,218.35 194.1,218.15 L175.9,201.75 C175.4,201.3 175.4,200.6 175.8,200.1 C176.25,199.6 176.95,199.6 177.45,200 L195.65,216.4 C196.15,216.85 196.15,217.55 195.75,218.05 C195.55,218.3 195.2,218.45 194.9,218.45 Z" id="Path" fill="#FFFFFF"></path>
                    <path d="M194.3,216.25 L189.25,196.7 C189.25,196.7 190.3,191.25 195.85,185.65 L213.45,206.6 L197,198.9 L194.3,216.25" id="Path" fill="#FFFFFF"></path>
                    <path d="M118,102.25 C117.95,102.25 117.95,102.25 117.9,102.25 C117.4,102.2 117.1,101.75 117.15,101.25 C117.15,101.1 119.05,87.2 133.15,84 C133.6,83.9 134.1,84.2 134.2,84.65 C134.3,85.1 134,85.6 133.55,85.7 C120.65,88.65 118.9,101.35 118.9,101.45 C118.8,101.95 118.45,102.25 118,102.25 Z" id="Path" fill="#222222"></path>
                    <polygon id="Path" fill="#FFFFFF" points="98 186.35 113.85 166.4 177.8 200.2 167.2 223.4"></polygon>
                    <path d="M208.45,171.6 C179.55,179.35 157.2,159.7 146.85,146.7 C144.35,143.55 142.15,139.55 142.85,132.5 C143.3,129.5 143.75,127.45 143.75,127.45 C143.75,127.45 138.35,140.85 146.7,152.3 C157.6,167.25 185.75,187.4 216.1,168.85 C216.1,168.85 215.45,169.1 214.3,169.65 C212.4,170.4 210.45,171.05 208.45,171.6 Z" id="Path" fill="#CC946E"></path>
                </g>
            </g>
        </g>
    </g>
</svg>