<?xml version="1.0" encoding="UTF-8"?>
<svg width="352px" height="564px" viewBox="0 0 352 564" version="1.1" xmlns="http://www.w3.org/2000/svg" xmlns:xlink="http://www.w3.org/1999/xlink">
    <!-- Generator: Sketch 63.1 (92452) - https://sketch.com -->
    <title>03.gallery.illustration02</title>
    <desc>Created with Sketch.</desc>
    <defs>
        <rect id="path-1" x="0" y="0" width="352" height="564" rx="2.5"></rect>
    </defs>
    <g id="03.gallery.illustration02" stroke="none" stroke-width="1" fill="none" fill-rule="evenodd">
        <g id="Winners-2">
            <mask id="mask-2" fill="white">
                <use xlink:href="#path-1"></use>
            </mask>
            <use id="Rectangle" fill="#FCECD0" fill-rule="nonzero" xlink:href="#path-1"></use>
            <g id="Group" mask="url(#mask-2)">
                <g transform="translate(-266.500000, 303.000000)" id="Path">
                    <path d="M77.05,129.45 C77.05,129.45 214.35,197.15 361.8,119.45 L314.6,37.45 C314.6,37.45 216.4,95.8 120.4,0" stroke="none" fill="#FFFFFF" fill-rule="nonzero"></path>
                    <path d="M27.8,143.5 C27.8,143.5 122.55,281.4 361.75,237 L348.9,136.2 C348.9,136.2 178.35,146.1 112.5,46.95 C112.5,46.95 62.3,-13.9 19.6,28.4 C-17.6,65.2 6.7,115.85 27.8,143.5 Z" stroke="none" fill="#FFFFFF" fill-rule="nonzero"></path>
                    <path d="M12.65,119.55 C12.65,119.55 80.35,250.9 269.65,245.25" stroke="#212121" stroke-width="1.7285" fill="none" stroke-linecap="round"></path>
                    <path d="M117.3,53.6 C117.3,53.6 168.3,129.6 302.5,135.25" stroke="#212121" stroke-width="1.7285" fill="none" stroke-linecap="round"></path>
                </g>
            </g>
            <g id="Group" mask="url(#mask-2)" fill="#FFD9C0" fill-rule="nonzero">
                <g transform="translate(129.500000, 239.000000)" id="Path">
                    <path d="M96.25,158.65 C112.9,150.8 93.1,145.25 89.25,144.5 C70.9,141 70.45,136.85 71.4,131.4 C72.65,124.25 84.3,124.75 88.9,125.2 C103.55,126.6 144.1,128.75 144.1,128.75 C144.1,128.75 303.7,115.2 383.4,0 L448.8,84.95 C448.8,84.95 389.75,202.35 164.45,217.9 C164.45,217.9 84.05,220.55 0.15,177.9"></path>
                    <path d="M410.45,146.25 C410.45,146.25 353.9,239.5 204.45,240.5 C189.8,240.6 188.4,240.5 169.2,230.5 C143.8,217.25 145.45,219.3 134.65,214.8 C133,214.1 128.55,214.45 129.05,219.35 C129.55,224.3 141.2,229.5 145.45,232.6 C146.7,233.5 151.05,238.45 142.3,237.8 C133.6,237.15 102.7,222.3 102.7,222.3 C102.7,222.3 94.8,219.25 91.3,224.85 C87.8,230.45 92.85,232.35 92.85,232.35 C92.85,232.35 85.8,224.4 81.75,230.2 C77.7,236 81.8,237.3 85.6,239.8 C85.6,239.8 77.25,235.85 74.2,242.55 C71.2,249.2 82.9,254.65 82.9,254.65 C82.9,254.65 74.6,252.25 75.1,259.6 C75.45,264.6 86.25,271.25 86.25,271.25 C86.25,271.25 269.35,401.45 478,247.25"></path>
                </g>
            </g>
            <g id="Group" mask="url(#mask-2)">
                <g transform="translate(-266.500000, 115.000000)">
                    <g id="Group" stroke-width="1" fill="none" fill-rule="evenodd" transform="translate(396.000000, 124.000000)">
                        <path d="M96.25,158.65 C112.9,150.8 93.1,145.25 89.25,144.5 C70.9,141 70.45,136.85 71.4,131.4 C72.65,124.25 84.3,124.75 88.9,125.2 C103.55,126.6 144.1,128.75 144.1,128.75 C144.1,128.75 303.7,115.2 383.4,0 L448.8,84.95 C448.8,84.95 389.75,202.35 164.45,217.9 C164.45,217.9 84.05,220.55 0.15,177.9" id="Path" fill="#FFD9C0" fill-rule="nonzero"></path>
                        <path d="M410.45,146.25 C410.45,146.25 353.9,239.5 204.45,240.5 C189.8,240.6 188.4,240.5 169.2,230.5 C143.8,217.25 145.45,219.3 134.65,214.8 C133,214.1 128.55,214.45 129.05,219.35 C129.55,224.3 141.2,229.5 145.45,232.6 C146.7,233.5 151.05,238.45 142.3,237.8 C133.6,237.15 102.7,222.3 102.7,222.3 C102.7,222.3 94.8,219.25 91.3,224.85 C87.8,230.45 92.85,232.35 92.85,232.35 C92.85,232.35 85.8,224.4 81.75,230.2 C77.7,236 81.8,237.3 85.6,239.8 C85.6,239.8 77.25,235.85 74.2,242.55 C71.2,249.2 82.9,254.65 82.9,254.65 C82.9,254.65 74.6,252.25 75.1,259.6 C75.45,264.6 86.25,271.25 86.25,271.25 C86.25,271.25 269.35,401.45 478,247.25" id="Path" fill="#FFD9C0" fill-rule="nonzero"></path>
                        <path d="M131.8,251.55 C131.7,251.55 131.6,251.55 131.5,251.5 C114.2,244.8 92.7,233.2 92.5,233.1 C92.1,232.85 91.9,232.35 92.15,231.95 C92.4,231.55 92.9,231.35 93.3,231.6 C93.5,231.7 114.9,243.25 132.1,249.95 C132.55,250.1 132.75,250.6 132.6,251.05 C132.45,251.3 132.15,251.55 131.8,251.55 Z" id="Path" fill="#212121" fill-rule="nonzero"></path>
                        <path d="M124.2,262.4 C124.1,262.4 124,262.4 123.9,262.35 C106.6,255.65 83.3,242.4 83.05,242.25 C82.65,242 82.5,241.5 82.75,241.05 C83,240.65 83.5,240.5 83.95,240.75 C84.2,240.9 107.35,254.1 124.55,260.75 C125,260.9 125.2,261.4 125.05,261.85 C124.9,262.2 124.55,262.4 124.2,262.4 Z" id="Path" fill="#212121" fill-rule="nonzero"></path>
                        <path d="M121.95,274.55 C121.85,274.55 121.75,274.55 121.65,274.5 C104.35,267.8 83.3,255.95 83.1,255.8 C82.7,255.55 82.55,255.05 82.75,254.6 C83,254.2 83.5,254.05 83.95,254.25 C84.15,254.35 105.1,266.15 122.3,272.8 C122.75,272.95 122.95,273.45 122.8,273.9 C122.6,274.35 122.3,274.55 121.95,274.55 Z" id="Path" fill="#212121" fill-rule="nonzero"></path>
                    </g>
                    <path d="M439.55,224.6 C439.55,224.6 395.3,306.35 325.1,316.55 L292.5,245 C292.5,245 327.2,223.95 339.45,215.8 C343.3,213.25 353.3,207.3 357.8,213 C361.2,217.35 362.75,221.25 348.25,233 C345.2,235.5 330.35,249.7 348.75,248.8 C367.15,247.9 396.65,193.15 396.65,193.15 C396.65,193.15 400.7,182.6 409.7,185.5 C409.7,185.5 416.5,188.3 409.85,203 L418.1,187.15 C418.1,187.15 421.15,179.6 427.45,181.45 C433.7,183.25 430.45,192.8 427,198.35 C427,198.35 431.4,188.55 435.7,189.5 C439.95,190.45 441.75,195.5 436.9,202.4 C436.9,202.4 440.85,198.5 444.8,203.05 C444.8,203.05 448.5,204.6 439.55,224.6" id="Path" fill="#E2A67D" fill-rule="nonzero"></path>
                    <path d="M77.05,317.45 C77.05,317.45 214.35,385.15 361.8,307.45 L314.6,225.45 C314.6,225.45 216.4,283.8 120.4,188" id="Path" fill="#FFFFFF" fill-rule="nonzero"></path>
                    <rect id="Rectangle" fill="#8D6E63" fill-rule="nonzero" x="425.55" y="322.75" width="37.75" height="126.25"></rect>
                    <path d="M291.3,172.55 C291.3,172.55 259,102.75 327.3,66.65 C327.3,66.65 341.35,-6.25 419.15,12.25 C419.15,12.25 482.7,-25.7 524.5,34.55 C524.5,34.55 594.35,37.35 588.7,112.2 C588.7,112.2 641.05,160.05 593.9,218.65 C593.9,218.65 605.6,286.65 526.1,294.35 C526.1,294.35 487.9,354.6 428.9,316.55 C428.9,316.55 352.85,342.7 336.4,269.9 C336.4,269.95 266,249.15 291.3,172.55 Z" id="Path" fill="#2E988D" fill-rule="nonzero"></path>
                    <g id="Group" stroke-width="1" fill="none" fill-rule="evenodd" transform="translate(355.500000, 39.000000)">
                        <rect id="Rectangle" fill="#705650" fill-rule="nonzero" transform="translate(15.541268, 18.127735) rotate(-27.923185) translate(-15.541268, -18.127735) " x="13.8912231" y="6.00240854" width="3.30008885" height="24.2506529"></rect>
                        <circle id="Oval" fill="#E59F2B" fill-rule="nonzero" cx="34.6" cy="51.85" r="34.15"></circle>
                        <path d="M15.3,15.65 C15.3,15.65 17.8,-3.75 38.25,0.65 C38.25,0.6 34.1,17.6 15.3,15.65 Z" id="Path" fill="#3D7773" fill-rule="nonzero"></path>
                    </g>
                    <g id="Group" stroke-width="1" fill="none" fill-rule="evenodd" transform="translate(312.000000, 157.000000)">
                        <rect id="Rectangle" fill="#705650" fill-rule="nonzero" transform="translate(50.602825, 11.976213) rotate(26.167882) translate(-50.602825, -11.976213) " x="48.9528355" y="-0.148710203" width="3.29997896" height="24.2498454"></rect>
                        <circle id="Oval" fill="#E59F2B" fill-rule="nonzero" cx="34.5" cy="47.2" r="34.15"></circle>
                        <path d="M52.5,10.3 C52.5,10.3 69.65,0.95 78.15,20.1 C78.1,20.1 61.95,26.7 52.5,10.3 Z" id="Path" fill="#3D7773" fill-rule="nonzero"></path>
                    </g>
                    <g id="Group" stroke-width="1" fill="none" fill-rule="evenodd" transform="translate(410.000000, 195.500000)">
                        <rect id="Rectangle" fill="#705650" fill-rule="nonzero" transform="translate(57.558962, 65.260553) rotate(144.852618) translate(-57.558962, -65.260553) " x="55.9089099" y="53.1351658" width="3.30010524" height="24.2507733"></rect>
                        <circle id="Oval" fill="#E59F2B" fill-rule="nonzero" cx="34.4" cy="34.2" r="34.15"></circle>
                        <path d="M58.15,67.7 C58.15,67.7 58.1,87.25 37.25,85.5 C37.25,85.5 39.2,68.1 58.15,67.7 Z" id="Path" fill="#3D7773" fill-rule="nonzero"></path>
                    </g>
                    <g id="Group" stroke-width="1" fill="none" fill-rule="evenodd" transform="translate(504.500000, 152.500000)">
                        <rect id="Rectangle" fill="#705650" fill-rule="nonzero" transform="translate(62.620955, 9.763330) rotate(47.991492) translate(-62.620955, -9.763330) " x="60.971056" y="-2.36092817" width="3.2997981" height="24.2485163"></rect>
                        <circle id="Oval" fill="#E59F2B" fill-rule="nonzero" cx="34.55" cy="36.45" r="34.15"></circle>
                        <path d="M65,8.9 C65,8.9 84.4,6.6 85.15,27.5000372 C85.15,27.5000372 67.65,27.65 65,8.9 Z" id="Path" fill="#3D7773" fill-rule="nonzero"></path>
                    </g>
                    <g id="Group" stroke-width="1" fill="none" fill-rule="evenodd" transform="translate(446.000000, 63.500000)">
                        <rect id="Rectangle" fill="#705650" fill-rule="nonzero" transform="translate(21.295153, 58.958993) rotate(-127.352346) translate(-21.295153, -58.958993) " x="19.645193" y="46.8342902" width="3.29991898" height="24.2494047"></rect>
                        <circle id="Oval" fill="#E59F2B" fill-rule="nonzero" cx="51.4" cy="34.6" r="34.15"></circle>
                        <path d="M18.85,59.6 C18.85,59.6 -0.7,60.3 0.25,39.4 C0.25,39.4 17.7,40.7 18.85,59.6 Z" id="Path" fill="#3D7773" fill-rule="nonzero"></path>
                    </g>
                    <g id="Group" stroke-width="1" fill="none" fill-rule="evenodd" transform="translate(369.000000, 298.500000)">
                        <rect id="Rectangle" fill="#705650" fill-rule="nonzero" transform="translate(59.334445, 10.337577) rotate(41.818147) translate(-59.334445, -10.337577) " x="57.6843672" y="-1.7879947" width="3.30015564" height="24.2511437"></rect>
                        <circle id="Oval" fill="#E59F2B" fill-rule="nonzero" cx="34.35" cy="39.9" r="34.15"></circle>
                        <path d="M61.65,9.25 C61.65,9.25 80.7,4.9 83.7,25.6 C83.65,25.55 66.3,27.6 61.65,9.25 Z" id="Path" fill="#3D7773" fill-rule="nonzero"></path>
                    </g>
                    <path d="M485.55,350.65 C485.55,350.65 422.4,418.9 351.9,411.4 L338.05,334 C338.05,334 376.9,322.2 390.75,317.35 C395.15,315.8 406.3,312.55 409.2,319.2 C411.45,324.25 411.95,328.4 395,336.2 C391.4,337.85 373.55,347.95 391.6,351.6 C409.65,355.25 451.8,309.55 451.8,309.55 C451.8,309.55 458.3,300.3 466.35,305.4 C466.35,305.4 472.25,309.8 462.2,322.4 L474.1,309.1 C474.1,309.1 478.95,302.55 484.55,305.85 C490.2,309.15 484.65,317.6 479.9,322.1 C479.9,322.1 486.6,313.7 490.5,315.7 C494.4,317.7 494.9,323.05 488.45,328.5 C488.45,328.5 493.25,325.7 495.95,331.1 C496,331.1 499.15,333.5 485.55,350.65" id="Path" fill="#E2A67D" fill-rule="nonzero"></path>
                    <path d="M442.55,372.35 C442.25,372.35 441.95,372.2 441.8,371.9 C441.55,371.5 441.7,370.95 442.1,370.7 C460.45,360.2 482.45,336.5 482.7,336.25 C483.05,335.9 483.55,335.9 483.9,336.2 C484.25,336.5 484.25,337.05 483.95,337.4 C483.75,337.65 461.5,361.5 442.95,372.15 C442.85,372.35 442.7,372.35 442.55,372.35 Z" id="Path" fill="#212121" fill-rule="nonzero"></path>
                    <path d="M435.2,361.15 C434.9,361.15 434.6,361 434.45,360.7 C434.2,360.3 434.35,359.75 434.75,359.5 C453.1,349 475.1,325.3 475.35,325.05 C475.65,324.7 476.2,324.7 476.55,325 C476.9,325.3 476.9,325.85 476.6,326.2 C476.4,326.45 454.15,350.3 435.6,360.95 C435.5,361.1 435.35,361.15 435.2,361.15 Z" id="Path" fill="#212121" fill-rule="nonzero"></path>
                    <path d="M425.2,353.8 C424.9,353.8 424.6,353.65 424.45,353.35 C424.2,352.95 424.35,352.4 424.75,352.15 C443.1,341.65 465.1,317.95 465.35,317.7 C465.65,317.35 466.2,317.35 466.55,317.65 C466.9,317.95 466.9,318.5 466.6,318.85 C466.4,319.1 444.15,342.95 425.6,353.6 C425.5,353.75 425.35,353.8 425.2,353.8 Z" id="Path" fill="#212121" fill-rule="nonzero"></path>
                    <path d="M354.85,411.7 C359.25,412.05 359.3,412.3 363.65,412.1 L352.5,329.6 C347.1,331.3 347.05,331.3 343.55,332.35 L354.85,411.7 Z" id="Path" fill="#CC946E" fill-rule="nonzero"></path>
                    <path d="M27.8,331.5 C27.8,331.5 122.55,469.4 361.75,425 L348.9,324.2 C348.9,324.2 178.35,334.1 112.5,234.95 C112.5,234.95 62.3,174.1 19.6,216.4 C-17.6,253.2 6.7,303.85 27.8,331.5 Z" id="Path" fill="#FFFFFF" fill-rule="nonzero"></path>
                    <rect id="Rectangle" fill="#212121" fill-rule="nonzero" transform="translate(328.373411, 377.530199) rotate(-4.336561) translate(-328.373411, -377.530199) " x="327.498444" y="325.282142" width="1.74993491" height="104.496113"></rect>
                    <path d="M302.5,324.15 C302.5,324.15 302.45,324.15 302.5,324.15 C271.8,322.85 242.9,317.75 216.7,308.95 C195.7,301.9 176.35,292.55 159.1,281.05 C143.8,270.85 133.05,260.8 126.75,254.2 C119.9,247 116.7,242.3 116.6,242.1 C116.35,241.7 116.45,241.15 116.85,240.9 C117.25,240.65 117.8,240.75 118.05,241.15 C118.1,241.2 121.3,245.95 128.1,253.05 C134.35,259.6 145,269.55 160.2,279.65 C177.3,291.05 196.5,300.35 217.35,307.3 C243.4,316 272.1,321.1 302.6,322.4 C303.1,322.4 303.45,322.8 303.45,323.3 C303.35,323.8 302.95,324.15 302.5,324.15 Z" id="Path" fill="#212121" fill-rule="nonzero"></path>
                </g>
            </g>
            <path d="M219.05,465.65 C219.05,465.65 155.9,533.9 85.4,526.4 L71.55,449 C71.55,449 110.4,437.2 124.25,432.35 C128.65,430.8 139.8,427.55 142.7,434.2 C144.95,439.25 145.45,443.4 128.5,451.2 C124.9,452.85 107.05,462.95 125.1,466.6 C143.15,470.25 185.3,424.55 185.3,424.55 C185.3,424.55 191.8,415.3 199.85,420.4 C199.85,420.4 205.75,424.8 195.7,437.4 L207.6,424.1 C207.6,424.1 212.45,417.55 218.05,420.85 C223.7,424.15 218.15,432.6 213.4,437.1 C213.4,437.1 220.1,428.7 224,430.7 C227.9,432.7 228.4,438.05 221.95,443.5 C221.95,443.5 226.75,440.7 229.45,446.1 C229.5,446.1 232.65,448.5 219.05,465.65" id="Path" fill="#E2A67D" fill-rule="nonzero" mask="url(#mask-2)"></path>
            <path d="M176.05,487.35 C175.75,487.35 175.45,487.2 175.3,486.9 C175.05,486.5 175.2,485.95 175.6,485.7 C193.95,475.2 215.95,451.5 216.2,451.25 C216.55,450.9 217.05,450.9 217.4,451.2 C217.75,451.5 217.75,452.05 217.45,452.4 C217.25,452.65 195,476.5 176.45,487.15 C176.35,487.35 176.2,487.35 176.05,487.35 Z" id="Path" fill="#212121" fill-rule="nonzero" mask="url(#mask-2)"></path>
            <path d="M168.7,476.15 C168.4,476.15 168.1,476 167.95,475.7 C167.7,475.3 167.85,474.75 168.25,474.5 C186.6,464 208.6,440.3 208.85,440.05 C209.15,439.7 209.7,439.7 210.05,440 C210.4,440.3 210.4,440.85 210.1,441.2 C209.9,441.45 187.65,465.3 169.1,475.95 C169,476.1 168.85,476.15 168.7,476.15 Z" id="Path" fill="#212121" fill-rule="nonzero" mask="url(#mask-2)"></path>
            <path d="M158.7,468.8 C158.4,468.8 158.1,468.65 157.95,468.35 C157.7,467.95 157.85,467.4 158.25,467.15 C176.6,456.65 198.6,432.95 198.85,432.7 C199.15,432.35 199.7,432.35 200.05,432.65 C200.4,432.95 200.4,433.5 200.1,433.85 C199.9,434.1 177.65,457.95 159.1,468.6 C159,468.75 158.85,468.8 158.7,468.8 Z" id="Path" fill="#212121" fill-rule="nonzero" mask="url(#mask-2)"></path>
            <rect id="Rectangle" fill="#212121" fill-rule="nonzero" mask="url(#mask-2)" transform="translate(61.873411, 492.530199) rotate(-4.336561) translate(-61.873411, -492.530199) " x="60.998444" y="440.282142" width="1.74993491" height="104.496113"></rect>
            <path d="M261.3,490.55 C261.2,490.55 261.1,490.55 261,490.5 C243.7,483.8 222.2,472.2 222,472.1 C221.6,471.85 221.4,471.35 221.65,470.95 C221.9,470.55 222.4,470.35 222.8,470.6 C223,470.7 244.4,482.25 261.6,488.95 C262.05,489.1 262.25,489.6 262.1,490.05 C261.95,490.3 261.65,490.55 261.3,490.55 Z" id="Path" fill="#212121" fill-rule="nonzero" mask="url(#mask-2)"></path>
            <path d="M253.7,501.4 C253.6,501.4 253.5,501.4 253.4,501.35 C236.1,494.65 212.8,481.4 212.55,481.25 C212.15,481 212,480.5 212.25,480.05 C212.5,479.65 213,479.5 213.45,479.75 C213.7,479.9 236.85,493.1 254.05,499.75 C254.5,499.9 254.7,500.4 254.55,500.85 C254.4,501.2 254.05,501.4 253.7,501.4 Z" id="Path" fill="#212121" fill-rule="nonzero" mask="url(#mask-2)"></path>
            <path d="M251.45,513.55 C251.35,513.55 251.25,513.55 251.15,513.5 C233.85,506.8 212.8,494.95 212.6,494.8 C212.2,494.55 212.05,494.05 212.25,493.6 C212.5,493.2 213,493.05 213.45,493.25 C213.65,493.35 234.6,505.15 251.8,511.8 C252.25,511.95 252.45,512.45 252.3,512.9 C252.1,513.35 251.8,513.55 251.45,513.55 Z" id="Path" fill="#212121" fill-rule="nonzero" mask="url(#mask-2)"></path>
        </g>
    </g>
</svg>