<?xml version="1.0" encoding="UTF-8"?>
<svg width="352px" height="564px" viewBox="0 0 352 564" version="1.1" xmlns="http://www.w3.org/2000/svg" xmlns:xlink="http://www.w3.org/1999/xlink">
    <!-- Generator: Sketch 63.1 (92452) - https://sketch.com -->
    <title>03.gallery.illustration03</title>
    <desc>Created with Sketch.</desc>
    <defs>
        <rect id="path-1" x="0" y="0" width="352" height="564" rx="2.5"></rect>
    </defs>
    <g id="03.gallery.illustration03" stroke="none" stroke-width="1" fill="none" fill-rule="evenodd">
        <g id="Winners-3">
            <mask id="mask-2" fill="white">
                <use xlink:href="#path-1"></use>
            </mask>
            <use id="Rectangle" fill="#FCECD0" fill-rule="nonzero" xlink:href="#path-1"></use>
            <g id="Group" mask="url(#mask-2)" fill="#FFD9C0" fill-rule="nonzero">
                <g transform="translate(-254.000000, 239.000000)" id="Path">
                    <path d="M96.2,158.65 C112.85,150.8 93.05,145.25 89.2,144.5 C70.85,141 70.4,136.85 71.35,131.4 C72.6,124.25 84.25,124.75 88.85,125.2 C103.5,126.6 144.05,128.75 144.05,128.75 C144.05,128.75 303.6,115.2 383.25,0 L448.65,84.95 C448.65,84.95 389.6,202.35 164.3,217.9 C164.3,217.9 83.9,220.55 -2.84217094e-14,177.9"></path>
                    <path d="M410.35,146.25 C410.35,146.25 353.8,239.5 204.35,240.5 C189.7,240.6 188.3,240.5 169.1,230.5 C143.7,217.25 145.35,219.3 134.55,214.8 C132.9,214.1 128.45,214.45 128.95,219.35 C129.45,224.3 141.1,229.5 145.35,232.6 C146.6,233.5 150.95,238.45 142.2,237.8 C133.5,237.15 102.6,222.3 102.6,222.3 C102.6,222.3 94.7,219.25 91.2,224.85 C87.7,230.45 92.75,232.35 92.75,232.35 C92.75,232.35 85.7,224.4 81.65,230.2 C77.6,235.95 81.7,237.3 85.5,239.8 C85.5,239.8 77.15,235.85 74.1,242.55 C71.05,249.25 82.8,254.65 82.8,254.65 C82.8,254.65 74.5,252.25 75,259.6 C75.35,264.6 86.15,271.25 86.15,271.25 C86.15,271.25 269.25,401.45 477.9,247.25"></path>
                </g>
            </g>
            <g id="Group" mask="url(#mask-2)">
                <g transform="translate(-254.000000, 91.000000)">
                    <path d="M96.2,306.65 C112.85,298.8 93.05,293.25 89.2,292.5 C70.85,289 70.4,284.85 71.35,279.4 C72.6,272.25 84.25,272.75 88.85,273.2 C103.5,274.6 144.05,276.75 144.05,276.75 C144.05,276.75 303.6,263.2 383.25,148 L448.65,232.95 C448.65,232.95 389.6,350.35 164.3,365.9 C164.3,365.9 83.9,368.55 0,325.9" id="Path" fill="#FFD9C0" fill-rule="nonzero"></path>
                    <path d="M283.5,345.3 C289.3,343.65 294.95,341.95 300.4,340.15 L307.65,333.55 L282.5,235.9 C274.05,240.1 266.4,242.2 257.4,246.3 L283.5,345.3 Z" id="Path" fill="#F9CCB9" fill-rule="nonzero"></path>
                    <path d="M352.2,178.5 C347,210.6 311.7,339.15 311.7,339.15 L290.5,346.75 L262.25,235.5 C262.25,235.5 329.4,209.2 352.2,178.5" id="Path" fill="#FFFFFF" fill-rule="nonzero"></path>
                    <path d="M398.8,73.15 C398.8,73.15 350.9,36.85 333.95,10.25 C333.95,10.25 385.45,-15.45 432.7,14.85 C447.45,24.3 464.65,37.35 474.35,73.15 C484.05,108.95 530,132.5 530,132.5 C530,132.5 608.35,165.2 589.5,240.9 C589.5,240.9 571.6,303.3 501.9,277.2 C501.9,277.2 455.9,252.65 440.45,221.95 C440.45,221.95 418.2,171.8 410.95,157.5 C403.7,143.2 412.4,110.95 411.45,98.65 C410.4,86.45 398.8,73.15 398.8,73.15 Z" id="Path" fill="#222222" fill-rule="nonzero"></path>
                    <path d="M337.3,17.45 C337.3,17.45 318.75,73.25 316.85,81.4 C316.85,81.4 306.9,25.25 333.95,10.25 L337.3,17.45 Z" id="Path" fill="#222222" fill-rule="nonzero"></path>
                    <path d="M425.6,169.9 C425.6,169.9 390.8,200.55 358.15,185.7 C358.15,185.7 359.05,174.2 354.4,154.45 C351.75,143.25 346.1,137.05 338.6,133.35 C323.75,126.05 317.25,117.6 316.95,102.9 C316,58.05 321.95,37.1 334.2,17.65 L401.45,18.35 L413,92.25 L425.6,169.9 Z" id="Path" fill="#FFD9C0" fill-rule="nonzero"></path>
                    <path d="M339.65,106.9 C339.25,106.9 338.9,106.6 338.8,106.2 C338.7,105.75 339,105.3 339.5,105.2 C345.9,103.95 349.6,97.8 349.65,97.75 C349.9,97.35 350.45,97.2 350.85,97.45 C351.25,97.7 351.4,98.2 351.15,98.65 C351,98.95 347,105.5 339.85,106.9 C339.75,106.9 339.7,106.9 339.65,106.9 Z" id="Path" fill="#212121" fill-rule="nonzero"></path>
                    <path d="M347.7,67.95 C347.2,67.95 346.7,67.75 346.35,67.3 C345.75,66.55 345.85,65.45 346.6,64.85 C354.75,58.25 362.45,61.7 365.4,64.45 C366.1,65.1 366.15,66.2 365.5,66.9 C364.85,67.6 363.75,67.65 363.05,67 C362.8,66.75 356.6,61.25 348.8,67.55 C348.5,67.8 348.1,67.95 347.7,67.95 Z" id="Path" fill="#222222" fill-rule="nonzero"></path>
                    <path d="M331.4,68.8 C331,68.8 330.55,68.65 330.25,68.35 C330.2,68.3 328.7,67 326.55,66.3 C323.85,65.4 321.3,65.9 319.05,67.7 C318.3,68.3 317.2,68.2 316.6,67.45 C316,66.7 316.1,65.6 316.85,65 C323.1,59.95 329.9,63.3 332.6,65.8 C333.3,66.45 333.35,67.55 332.7,68.25 C332.35,68.6 331.85,68.8 331.4,68.8 Z" id="Path" fill="#222222" fill-rule="nonzero"></path>
                    <ellipse id="Oval" fill="#212121" fill-rule="nonzero" cx="355.3" cy="70.3" rx="3.05" ry="3"></ellipse>
                    <ellipse id="Oval" fill="#212121" fill-rule="nonzero" cx="323.7" cy="71.6" rx="3.05" ry="3"></ellipse>
                    <path d="M423.95,79.25 C423.95,79.25 357.1,67 334.2,19.3 C334.2,19.3 318.85,5.65 376.15,0.35 C376.15,0.35 428.9,14.45 432.4,28.1 C435.9,41.75 423.95,79.25 423.95,79.25 Z" id="Path" fill="#222222" fill-rule="nonzero"></path>
                    <ellipse id="Oval" fill="#FFD9C0" fill-rule="nonzero" cx="415" cy="93.15" rx="20.2" ry="19.6"></ellipse>
                    <path d="M430.2,90.9 C429.85,90.9 429.5,90.65 429.35,90.3 L429.35,90.3 C429.2,89.85 426.1,79.7 414.45,78.9 C413.95,78.85 413.6,78.45 413.65,78 C413.7,77.5 414.1,77.15 414.55,77.2 C427.4,78.05 430.95,89.75 431,89.85 C431.15,90.3 430.85,90.8 430.4,90.9 C430.4,90.9 430.3,90.9 430.2,90.9 Z" id="Path" fill="#212121" fill-rule="nonzero"></path>
                    <path d="M357.8,169.05 L357.8,169.05 C396.95,168.3 423.05,150.3 423.05,150.3 C423.05,150.3 462.35,171.25 477.95,184 C551.65,244.25 554.7,305.7 581.9,501.85 C581.9,501.85 462.85,530.6 272.6,494 L352.2,178.5" id="Path" fill="#FFFFFF" fill-rule="nonzero"></path>
                    <path d="M425.6,171.55 C425.6,171.55 393.1,192.9 360.45,178.05 C360.45,178.05 359,175.85 354.4,156.15 C351.75,144.95 346.1,138.75 338.6,135.05 C323.75,127.75 317.25,119.3 316.95,104.6 C316,59.75 321.95,38.8 334.2,19.35 L401.45,20.05 L413,93.95 L425.6,171.55 Z" id="Path" fill="none"></path>
                    <path d="M410.35,294.25 C410.35,294.25 353.8,387.5 204.35,388.5 C189.7,388.6 188.3,388.5 169.1,378.5 C143.7,365.25 145.35,367.3 134.55,362.8 C132.9,362.1 128.45,362.45 128.95,367.35 C129.45,372.3 141.1,377.5 145.35,380.6 C146.6,381.5 150.95,386.45 142.2,385.8 C133.5,385.15 102.6,370.3 102.6,370.3 C102.6,370.3 94.7,367.25 91.2,372.85 C87.7,378.45 92.75,380.35 92.75,380.35 C92.75,380.35 85.7,372.4 81.65,378.2 C77.6,383.95 81.7,385.3 85.5,387.8 C85.5,387.8 77.15,383.85 74.1,390.55 C71.05,397.25 82.8,402.65 82.8,402.65 C82.8,402.65 74.5,400.25 75,407.6 C75.35,412.6 86.15,419.25 86.15,419.25 C86.15,419.25 269.25,549.45 477.9,395.25" id="Path" fill="#FFD9C0" fill-rule="nonzero"></path>
                    <path d="M335.7,98.5 C335.65,98.5 335.55,98.5 335.5,98.5 C335.35,98.45 332.3,97.75 331.55,95.45 C331.1,94.1 331.5,92.6 332.8,91 C335.7,87.4 334,75 333.1,70.5 C333,70.05 333.3,69.6 333.8,69.5 C334.25,69.4 334.7,69.7 334.8,70.2 C334.8,70.25 335.65,74.45 336,79.15 C336.5,85.65 335.85,90 334.15,92.1 C333.25,93.2 332.95,94.15 333.2,94.9 C333.6,96.05 335.3,96.65 335.95,96.8 C336.4,96.9 336.7,97.4 336.6,97.85 C336.4,98.2 336.05,98.5 335.7,98.5 Z" id="Path" fill="#212121" fill-rule="nonzero"></path>
                    <path d="M313.5,333.05 C313.45,333.05 313.35,333.05 313.3,333 C312.85,332.9 312.55,332.4 312.65,331.95 L349.5,185.75 C349.6,185.3 350.1,185 350.55,185.1 C351,185.2 351.3,185.7 351.2,186.15 L314.35,332.35 C314.2,332.75 313.85,333.05 313.5,333.05 Z" id="Path" fill="#212121" fill-rule="nonzero"></path>
                    <path d="M391.25,317 L463.2,405.45 C469.6,401.2 471.55,399.85 478,395.1 L449,351.85 L404.75,302.15 C401.05,306.85 398.9,309.65 391.25,317 Z" id="Path" fill="#F9CCB9" fill-rule="nonzero"></path>
                    <path d="M428.15,235.4 C426.85,237.9 378.45,293.35 378.45,293.35 L475.65,406.7 C475.65,406.7 504.95,389.7 525.9,321.05" id="Path" fill="#FFFFFF" fill-rule="nonzero"></path>
                    <path d="M393.1,307.35 C392.9,307.35 392.7,307.3 392.55,307.15 C392.2,306.85 392.15,306.3 392.45,305.95 C392.75,305.6 421.1,271.45 426.45,231.65 C426.5,231.2 426.95,230.85 427.4,230.9 C427.85,230.95 428.2,231.4 428.15,231.85 C422.7,272.2 394.05,306.7 393.75,307.05 C393.6,307.2 393.35,307.35 393.1,307.35 Z" id="Path" fill="#212121" fill-rule="nonzero"></path>
                    <path d="M366.55,136.55 C359.6,138.25 351.85,138.25 345,137.65 C349.15,141.3 352.35,146.45 354.2,153.8 C371.75,148.65 374.7,141.8 374.7,141.8 C375.75,134.65 366.55,136.55 366.55,136.55 Z" id="Path" fill="#F9CCB9" fill-rule="nonzero"></path>
                </g>
            </g>
        </g>
    </g>
</svg>