<?xml version="1.0" encoding="UTF-8"?>
<svg width="32px" height="32px" viewBox="0 0 32 32" version="1.1" xmlns="http://www.w3.org/2000/svg" xmlns:xlink="http://www.w3.org/1999/xlink">
    <title>Icono mandarina</title>
    <defs>
        <path d="M17.8854667,16 L23.6094667,10.276 C24.1308,9.75466667 24.1308,8.912 23.6094667,8.39066667 C23.0881333,7.86933333 22.2454667,7.86933333 21.7241333,8.39066667 L16.0001333,14.1146667 L10.2761333,8.39066667 C9.7548,7.86933333 8.91213333,7.86933333 8.3908,8.39066667 C7.86946667,8.912 7.86946667,9.75466667 8.3908,10.276 L14.1148,16 L8.3908,21.724 C7.86946667,22.2453333 7.86946667,23.088 8.3908,23.6093333 C8.6508,23.8693333 8.99213333,24 9.33346667,24 C9.6748,24 10.0161333,23.8693333 10.2761333,23.6093333 L16.0001333,17.8853333 L21.7241333,23.6093333 C21.9841333,23.8693333 22.3254667,24 22.6668,24 C23.0081333,24 23.3494667,23.8693333 23.6094667,23.6093333 C24.1308,23.088 24.1308,22.2453333 23.6094667,21.724 L17.8854667,16 Z" id="path-1"></path>
    </defs>
    <g id="Landing-15Nov" stroke="none" stroke-width="1" fill="none" fill-rule="evenodd">
        <g id="04.howToParticipate" transform="translate(-847.000000, -496.000000)">
            <g id="Content" transform="translate(160.000000, 64.000000)">
                <g id="Steps" transform="translate(576.000000, 0.000000)">
                    <g id="A" transform="translate(0.000000, 432.000000)">
                        <g id="Group-4" transform="translate(69.000000, 0.000000)">
                            <g id="Icono-mandarina" transform="translate(42.000000, 0.000000)">
                                <ellipse id="Oval" fill="#CED2D6" transform="translate(15.890837, 18.863040) rotate(-83.471253) translate(-15.890837, -18.863040) " cx="15.8908373" cy="18.86304" rx="11.5707295" ry="12.566923"></ellipse>
                                <path d="M20.48,5.72307692 C15.44,-2.27692308 7.6,0.861538462 7.6,0.861538462 C7.6,0.861538462 11.2088889,8.86153846 20.48,5.72307692 Z" id="Path" fill="#A4ABB3"></path>
                                <line x1="21.9733333" y1="2.64615385" x2="19.4222222" y2="8.67692308" id="Path" stroke="#A4ABB3" stroke-width="0.8036"></line>
                                <g id="-Icon-/-Base-/-Line-/-x32">
                                    <g id="Base">
                                        <rect id="Color" x="0" y="0" width="32" height="32"></rect>
                                    </g>
                                    <g id="-Icon-/-Line-/-x32">
                                        <mask id="mask-2" fill="white">
                                            <use xlink:href="#path-1"></use>
                                        </mask>
                                        <g id="-Icon-/-Line-/-x32-/-close"></g>
                                        <g id="Group" mask="url(#mask-2)" fill="#DE1127">
                                            <g id="🎨-color">
                                                <rect id="Color" x="0" y="0" width="32" height="32"></rect>
                                            </g>
                                        </g>
                                    </g>
                                </g>
                            </g>
                        </g>
                    </g>
                </g>
            </g>
        </g>
    </g>
</svg>