<?xml version="1.0" encoding="UTF-8"?>
<svg width="361px" height="302px" viewBox="0 0 361 302" version="1.1" xmlns="http://www.w3.org/2000/svg" xmlns:xlink="http://www.w3.org/1999/xlink">
    <title>Group 55</title>
    <defs>
        <polygon id="path-1" points="0.000124312753 0.112797741 360.362507 0.112797741 360.362507 300.993309 0.000124312753 300.993309"></polygon>
        <polygon id="path-3" points="0 301.887253 360.362507 301.887253 360.362507 1.00666667 0 1.00666667"></polygon>
    </defs>
    <g id="Landing-15Nov" stroke="none" stroke-width="1" fill="none" fill-rule="evenodd">
        <g id="Desktop" transform="translate(-204.000000, -1990.000000)">
            <g id="04.howToParticipate" transform="translate(0.000000, 1674.000000)">
                <g id="Content" transform="translate(160.000000, 64.000000)">
                    <g id="Group-55" transform="translate(44.000000, 252.000000)">
                        <g id="Group-3" transform="translate(0.000000, 0.893920)">
                            <mask id="mask-2" fill="white">
                                <use xlink:href="#path-1"></use>
                            </mask>
                            <g id="Clip-2"></g>
                            <path d="M0.888786,197.211033 L0.888786,197.211033 C0.888786,197.211033 -16.627214,90.0010333 103.870786,61.5123667 C237.354786,30.0026933 242.287453,-21.23664 312.552786,9.66903333 C352.014119,26.9826933 384.831453,96.6450333 335.504786,198.8217 C286.178119,300.998367 35.1154527,366.028027 0.888786,197.211033" id="Fill-1" fill="#5D9E9B" mask="url(#mask-2)"></path>
                        </g>
                        <path d="M76.3282853,291.22162 L196.685352,291.22162 C199.906685,291.22162 202.524019,288.60328 202.524019,285.381947 L202.524019,132.168287 C202.524019,128.846287 199.906685,126.228953 196.685352,126.128287 L180.075352,125.52328 C153.499352,124.21562 132.661352,121.19562 105.682685,122.50328 C77.093352,123.91362 60.483352,124.516613 52.933352,124.718953 C50.215352,124.81962 48.101352,126.93362 48.101352,129.65162 L47.4480253,275.47836 C56.2754853,282.00156 65.982772,287.20804 76.3282853,291.22162" id="Fill-4" fill="#468480"></path>
                        <path d="M291.009817,153.307783 L257.487817,153.307783 C254.065151,153.307783 251.348157,156.12645 251.348157,159.44845 L251.348157,243.907783 C251.348157,247.33045 254.165817,250.04845 257.487817,250.04845 L291.009817,250.04845 C291.314837,250.04845 291.610797,250.020263 291.901724,249.97899 C293.544604,248.726697 295.157284,247.458297 296.738757,246.17379 C297.001497,245.50033 297.151491,244.771503 297.151491,244.00845 L297.151491,159.44845 C297.151491,156.025783 294.331817,153.307783 291.009817,153.307783" id="Fill-6" fill="#468480"></path>
                        <path d="M287.688019,246.827016 L253.562019,246.827016 C250.240019,246.827016 247.421352,244.109016 247.421352,240.686349 L247.421352,157.435016 C247.421352,154.113016 250.139352,151.294349 253.562019,151.294349 L287.688019,151.294349 C291.010019,151.294349 293.828685,154.012349 293.828685,157.435016 L293.828685,240.686349 C293.828685,244.109016 291.110685,246.827016 287.688019,246.827016" id="Fill-8" fill="#FFFFFF"></path>
                        <path d="M286.781616,245.518551 L254.467616,245.518551 C251.246283,245.518551 248.629956,242.901217 248.629956,239.679884 L248.629956,158.441884 C248.629956,155.220551 251.246283,152.603217 254.467616,152.603217 L286.781616,152.603217 C290.002949,152.603217 292.621289,155.220551 292.621289,158.441884 L292.621289,239.679884 C292.621289,242.901217 290.002949,245.518551 286.781616,245.518551" id="Fill-10" fill="#365B56"></path>
                        <mask id="mask-4" fill="white">
                            <use xlink:href="#path-3"></use>
                        </mask>
                        <g id="Clip-13"></g>
                        <polygon id="Fill-12" fill="#FFFFFF" mask="url(#mask-4)" points="246.716887 169.918287 247.723553 169.918287 247.723553 165.08528 246.716887 165.08528"></polygon>
                        <polygon id="Fill-14" fill="#FFFFFF" mask="url(#mask-4)" points="246.716887 179.178613 247.723553 179.178613 247.723553 171.428287 246.716887 171.428287"></polygon>
                        <polygon id="Fill-15" fill="#FFFFFF" mask="url(#mask-4)" points="293.72822 185.320287 294.734887 185.320287 294.734887 174.14528 293.72822 174.14528"></polygon>
                        <polygon id="Fill-16" fill="#FFFFFF" mask="url(#mask-4)" points="246.716887 187.836953 247.723553 187.836953 247.723553 180.08562 246.716887 180.08562"></polygon>
                        <path d="M270.574685,152.401884 L270.574685,156.227217 L261.716019,156.227217 C261.716019,156.227217 258.796685,156.428551 259.098685,152.401884 L270.574685,152.401884 Z" id="Fill-17" fill="#FFFFFF" mask="url(#mask-4)"></path>
                        <path d="M270.574685,152.401884 L270.574685,156.227217 L279.433352,156.227217 C279.433352,156.227217 282.352685,156.428551 282.050685,152.401884 L270.574685,152.401884 Z" id="Fill-18" fill="#FFFFFF" mask="url(#mask-4)"></path>
                        <path d="M68.28824,287.798551 L190.544887,287.798551 C193.76622,287.798551 196.383553,285.181217 196.383553,281.959884 L196.383553,128.745217 C196.383553,125.523884 193.76622,122.805884 190.544887,122.705217 L173.934887,122.101217 C168.27138,121.822371 162.878667,121.465004 157.621853,121.089517 C163.544073,99.527724 164.784287,70.0203107 161.487453,45.2210773 C159.99356,45.7727307 158.476513,46.3223707 156.936313,46.8720107 C160.06302,71.1467707 158.699993,99.9847507 152.717373,120.733157 C148.391727,120.414044 144.137553,120.095937 139.89848,119.810044 C140.99172,97.5757973 139.98606,75.536844 128.847293,55.8836907 C127.17824,56.362864 125.482007,56.8390173 123.76564,57.3131573 C128.068133,64.541024 131.328727,72.3970507 133.06422,80.6265507 C135.775173,93.385044 135.578873,106.521037 134.829913,119.486904 C125.39644,118.921157 115.870353,118.590971 105.529873,118.863777 C107.039873,111.067144 108.993813,99.6404707 110.608507,85.7333707 C111.536653,77.6015173 112.524193,68.9451907 113.37986,60.065384 C111.732953,60.485164 110.068933,60.901924 108.379747,61.315664 C107.56938,69.557244 106.65734,77.599504 105.791607,85.1786973 C104.113493,99.6314107 102.06996,111.355051 100.555933,119.040951 C100.21568,119.056051 99.8844867,119.064104 99.54222,119.081217 C94.6961267,119.319797 90.2023667,119.535224 86.03074,119.729511 C87.5508067,110.121884 88.1799733,100.219304 87.6635533,90.6932173 C87.2618933,83.150264 86.2159667,75.4804707 83.6680933,68.3442107 C82.2497,68.8495573 80.8615067,69.3720173 79.48942,69.901524 C80.08738,71.644064 80.5937333,73.416804 81.0195533,75.1905507 C84.4261133,89.3181107 84.3294733,105.088551 82.2688267,119.903664 C64.0370867,120.738191 52.6688,121.138844 46.7928867,121.295884 C44.0748867,121.396551 41.9608867,123.510551 41.9608867,126.228551 L41.3136,270.599651 C49.49478,277.565784 58.5567933,283.266537 68.28824,287.798551" id="Fill-19" fill="#FFECD5" mask="url(#mask-4)"></path>
                        <path d="M268.461088,88.3777833 C280.469615,88.3777833 290.205088,98.1132567 290.205088,110.121783 C290.205088,122.13031 280.469615,131.865783 268.461088,131.865783 C256.451555,131.865783 246.716081,122.13031 246.716081,110.121783 C246.716081,98.1132567 256.451555,88.3777833 268.461088,88.3777833" id="Fill-20" fill="#468480" mask="url(#mask-4)"></path>
                        <path d="M301.579817,46.6011167 C313.589351,46.6011167 323.324824,56.33659 323.324824,68.3451167 C323.324824,80.3536433 313.589351,90.0891167 301.579817,90.0891167 C289.571291,90.0891167 279.835817,80.3536433 279.835817,68.3451167 C279.835817,56.33659 289.571291,46.6011167 301.579817,46.6011167" id="Fill-21" fill="#468480" mask="url(#mask-4)"></path>
                        <path d="M251.044949,39.151884 C263.054483,39.151884 272.789956,48.8863507 272.789956,60.895884 C272.789956,72.9044107 263.054483,82.639884 251.044949,82.639884 C239.036423,82.639884 229.300949,72.9044107 229.300949,60.895884 C229.300949,48.8863507 239.036423,39.151884 251.044949,39.151884" id="Fill-22" fill="#468480" mask="url(#mask-4)"></path>
                        <path d="M241.540607,103.133201 C243.5781,90.9595813 255.587633,82.824708 268.364247,84.9638747 C281.14086,87.1020347 289.845507,98.7048747 287.80902,110.877488 C285.771527,123.051108 273.761993,131.185981 260.984373,129.047821 C248.20776,126.908655 239.503113,115.306821 241.540607,103.133201" id="Fill-23" fill="#EAA42C" mask="url(#mask-4)"></path>
                        <path d="M255.467739,90.5837927 C255.541226,90.144886 255.955973,89.8499327 256.394879,89.9224127 C256.832779,89.9958993 257.128739,90.4116527 257.056259,90.8495527 C256.982773,91.2884593 256.568026,91.5844193 256.129119,91.5109327 C255.690213,91.437446 255.394253,91.0226993 255.467739,90.5837927" id="Fill-24" fill="#D48013" mask="url(#mask-4)"></path>
                        <path d="M249.827889,93.12019 C249.901376,92.6812833 250.316123,92.3853233 250.755029,92.45881 C251.192929,92.5322967 251.489896,92.9470433 251.416409,93.38595 C251.342923,93.8248567 250.928176,94.1208167 250.489269,94.04733 C250.051369,93.9738433 249.754403,93.5590967 249.827889,93.12019" id="Fill-25" fill="#D48013" mask="url(#mask-4)"></path>
                        <path d="M254.407015,95.6078647 C254.479495,95.168958 254.895248,94.872998 255.334155,94.9464847 C255.772055,95.0199713 256.068015,95.4357247 255.995535,95.8736247 C255.922048,96.3125313 255.507301,96.6084913 255.067388,96.5350047 C254.629488,96.461518 254.333528,96.0467713 254.407015,95.6078647" id="Fill-26" fill="#D48013" mask="url(#mask-4)"></path>
                        <path d="M260.643617,93.4912473 C260.716097,93.0523407 261.13185,92.7573873 261.570757,92.8298673 C262.008657,92.903354 262.304617,93.3191073 262.232137,93.7570073 C262.15865,94.195914 261.743903,94.491874 261.30399,94.4183873 C260.86609,94.3459073 260.57013,93.930154 260.643617,93.4912473" id="Fill-27" fill="#D48013" mask="url(#mask-4)"></path>
                        <path d="M259.179823,98.21342 C259.253309,97.7745133 259.668056,97.4785533 260.106963,97.55204 C260.545869,97.6255267 260.841829,98.0402733 260.768343,98.47918 C260.694856,98.9180867 260.280109,99.2140467 259.841203,99.14056 C259.403303,99.0670733 259.106336,98.6523267 259.179823,98.21342" id="Fill-28" fill="#D48013" mask="url(#mask-4)"></path>
                        <path d="M246.04997,98.1544293 C246.123457,97.7155227 246.538203,97.4195627 246.97711,97.4930493 C247.41501,97.566536 247.711977,97.9812827 247.63849,98.4201893 C247.565003,98.859096 247.150257,99.155056 246.71135,99.0815693 C246.272443,99.0080827 245.976483,98.593336 246.04997,98.1544293" id="Fill-29" fill="#D48013" mask="url(#mask-4)"></path>
                        <path d="M251.251417,101.007323 C251.324903,100.568416 251.73965,100.273463 252.178557,100.345943 C252.616457,100.419429 252.913423,100.835183 252.839937,101.273083 C252.76645,101.711989 252.351703,102.007949 251.912797,101.934463 C251.47389,101.861983 251.17793,101.446229 251.251417,101.007323" id="Fill-30" fill="#D48013" mask="url(#mask-4)"></path>
                        <path d="M245.325371,104.157585 C245.398858,103.718679 245.813605,103.422719 246.253518,103.496205 C246.691418,103.569692 246.987378,103.985445 246.913891,104.423345 C246.841411,104.862252 246.425658,105.158212 245.986751,105.084725 C245.548851,105.011239 245.252891,104.596492 245.325371,104.157585" id="Fill-31" fill="#D48013" mask="url(#mask-4)"></path>
                        <path d="M276.111352,89.38445 C276.010685,89.1831167 275.708685,88.9817833 275.306019,88.78045 C274.601352,88.3777833 274.098019,88.3777833 273.997352,88.5791167 L273.997352,88.6797833 C274.098019,88.8811167 274.400019,89.2837833 274.903352,89.4851167 C275.608019,89.8877833 276.111352,89.8877833 276.212019,89.68645 L276.212019,89.5857833 C276.212019,89.5857833 276.111352,89.4851167 276.111352,89.38445 M273.796019,89.1831167 C273.695352,89.08245 273.695352,88.9817833 273.594685,88.8811167 L273.594685,88.47845 C273.796019,88.0757833 274.702019,88.17645 275.306019,88.5791167 C275.809352,88.8811167 276.212019,89.2837833 276.312685,89.5857833 L276.312685,89.98845 C276.111352,90.3911167 275.205352,90.29045 274.601352,89.8877833 C274.299352,89.5857833 273.997352,89.38445 273.796019,89.1831167" id="Fill-32" fill="#6D5235" mask="url(#mask-4)"></path>
                        <path d="M283.489313,49.1757673 C292.885539,40.2567007 307.390599,40.2838807 315.888879,49.2361673 C324.386153,58.1874473 323.658333,72.6743873 314.262106,81.593454 C304.866886,90.5125207 290.361826,90.4853407 281.864553,81.5340607 C273.366273,72.581774 274.094093,58.094834 283.489313,49.1757673" id="Fill-33" fill="#EAA42C" mask="url(#mask-4)"></path>
                        <path d="M280.299186,61.7773213 C280.622326,61.4712947 281.131699,61.4843813 281.438733,61.8065147 C281.744759,62.1296547 281.731673,62.639028 281.408533,62.9460613 C281.085393,63.252088 280.576019,63.2390013 280.269993,62.9158613 C279.963966,62.593728 279.977053,62.083348 280.299186,61.7773213" id="Fill-34" fill="#D48013" mask="url(#mask-4)"></path>
                        <path d="M278.902235,67.74313 C279.224368,67.4371033 279.733741,67.45019 280.040775,67.77333 C280.346801,68.0954633 280.333715,68.6048367 280.011581,68.91187 C279.688441,69.2178967 279.178061,69.20481 278.873041,68.88167 C278.566008,68.5595367 278.580101,68.0491567 278.902235,67.74313" id="Fill-35" fill="#D48013" mask="url(#mask-4)"></path>
                        <path d="M283.641621,65.60497 C283.963755,65.2989433 284.474135,65.31203 284.780161,65.63517 C285.087195,65.9573033 285.073101,66.4666767 284.750968,66.77371 C284.427828,67.0797367 283.918455,67.06665 283.612428,66.74351 C283.306401,66.4213767 283.319488,65.9109967 283.641621,65.60497" id="Fill-36" fill="#D48013" mask="url(#mask-4)"></path>
                        <path d="M285.608749,59.323068 C285.930882,59.0170413 286.440255,59.030128 286.747289,59.3522613 C287.053315,59.6754013 287.040229,60.1847747 286.718095,60.491808 C286.393949,60.7978347 285.884575,60.784748 285.578549,60.461608 C285.272522,60.1394747 285.285609,59.6290947 285.608749,59.323068" id="Fill-37" fill="#D48013" mask="url(#mask-4)"></path>
                        <path d="M288.5157,63.304032 C288.837833,62.9980053 289.348213,63.011092 289.65424,63.3332253 C289.961273,63.6563653 289.94718,64.1657387 289.625047,64.4717653 C289.301907,64.777792 288.791527,64.7647053 288.486507,64.442572 C288.179473,64.1204387 288.193567,63.6100587 288.5157,63.304032" id="Fill-38" fill="#D48013" mask="url(#mask-4)"></path>
                        <path d="M280.625648,73.883394 C280.947781,73.5773673 281.457155,73.590454 281.764188,73.9125873 C282.070215,74.2357273 282.057128,74.7451007 281.734995,75.052134 C281.410848,75.3581607 280.901475,75.345074 280.595448,75.021934 C280.289421,74.6998007 280.302508,74.1894207 280.625648,73.883394" id="Fill-39" fill="#D48013" mask="url(#mask-4)"></path>
                        <path d="M286.025609,71.378002 C286.347743,71.0719753 286.858123,71.085062 287.164149,71.4071953 C287.471183,71.7303353 287.457089,72.2397087 287.134956,72.546742 C286.811816,72.8527687 286.302443,72.839682 285.996416,72.516542 C285.690389,72.1944087 285.703476,71.6840287 286.025609,71.378002" id="Fill-40" fill="#D48013" mask="url(#mask-4)"></path>
                        <path d="M284.97475,78.141594 C285.296883,77.8355673 285.806257,77.848654 286.11329,78.1707873 C286.419317,78.4939273 286.40623,79.0033007 286.084097,79.310334 C285.760957,79.6163607 285.250577,79.603274 284.945557,79.280134 C284.638523,78.9580007 284.652617,78.4476207 284.97475,78.141594" id="Fill-41" fill="#D48013" mask="url(#mask-4)"></path>
                        <path d="M291.614421,45.6952173 C291.413088,45.6952173 291.009415,45.795884 290.708421,45.8965507 C290.002748,46.1985507 289.701755,46.701884 289.701755,46.8025507 L289.801415,46.9032173 C290.002748,47.003884 290.506081,47.003884 291.009415,46.701884 C291.715088,46.399884 292.016081,45.8965507 292.016081,45.795884 L291.916421,45.6952173 L291.614421,45.6952173 Z M290.104421,47.305884 C290.002748,47.305884 289.801415,47.305884 289.701755,47.2052173 C289.601088,47.1045507 289.499415,47.1045507 289.399755,46.9032173 C289.198421,46.5005507 289.801415,45.8965507 290.506081,45.5945507 C291.111088,45.2925507 291.614421,45.2925507 291.916421,45.3932173 C292.016081,45.493884 292.117755,45.493884 292.218421,45.6952173 C292.419755,46.097884 291.814748,46.701884 291.111088,47.003884 C290.808081,47.2052173 290.406421,47.305884 290.104421,47.305884 L290.104421,47.305884 Z" id="Fill-42" fill="#6D5235" mask="url(#mask-4)"></path>
                        <path d="M233.119538,42.5788793 C242.515765,33.6598127 257.020825,33.6869927 265.519105,42.6392793 C274.016378,51.5905593 273.288558,66.078506 263.892331,74.996566 C254.497111,83.9156327 239.992051,83.8894593 231.494778,74.9371727 C222.996498,65.984886 223.724318,51.497946 233.119538,42.5788793" id="Fill-43" fill="#EAA42C" mask="url(#mask-4)"></path>
                        <path d="M229.930519,55.1804333 C230.252652,54.8744067 230.762025,54.8874933 231.069059,55.2106333 C231.375085,55.5327667 231.361999,56.04214 231.039865,56.3491733 C230.715719,56.6552 230.206345,56.6421133 229.900319,56.3189733 C229.594292,55.99684 229.607379,55.48646 229.930519,55.1804333" id="Fill-44" fill="#D48013" mask="url(#mask-4)"></path>
                        <path d="M228.532561,61.146242 C228.854694,60.8402153 229.365074,60.853302 229.671101,61.176442 C229.978134,61.4985753 229.964041,62.0079487 229.641907,62.314982 C229.318767,62.6210087 228.808387,62.607922 228.503367,62.284782 C228.196334,61.9626487 228.210427,61.4522687 228.532561,61.146242" id="Fill-45" fill="#D48013" mask="url(#mask-4)"></path>
                        <path d="M233.271947,59.0084847 C233.594081,58.702458 234.104461,58.7155447 234.411494,59.037678 C234.717521,59.360818 234.704434,59.8701913 234.381294,60.176218 C234.058154,60.4822447 233.548781,60.469158 233.242754,60.1470247 C232.936727,59.8248913 232.949814,59.3145113 233.271947,59.0084847" id="Fill-46" fill="#D48013" mask="url(#mask-4)"></path>
                        <path d="M235.380612,52.730106 C235.703752,52.4240793 236.213125,52.437166 236.520159,52.7592993 C236.826185,53.0824393 236.813099,53.5918127 236.489959,53.8978393 C236.166819,54.203866 235.657445,54.1907793 235.351419,53.868646 C235.045392,53.5465127 235.058479,53.0361327 235.380612,52.730106" id="Fill-47" fill="#D48013" mask="url(#mask-4)"></path>
                        <path d="M238.215788,56.779926 C238.537921,56.4738993 239.047295,56.486986 239.354328,56.810126 C239.660355,57.1322593 239.647268,57.6416327 239.325135,57.948666 C239.000988,58.2546927 238.491615,58.241606 238.185588,57.918466 C237.879561,57.5963327 237.892648,57.0859527 238.215788,56.779926" id="Fill-48" fill="#D48013" mask="url(#mask-4)"></path>
                        <path d="M230.255873,67.286506 C230.578007,66.9804793 231.08738,66.993566 231.394413,67.3156993 C231.70044,67.6388393 231.687353,68.1482127 231.36522,68.455246 C231.04208,68.7612727 230.5317,68.748186 230.22668,68.425046 C229.919647,68.1029127 229.93374,67.5925327 230.255873,67.286506" id="Fill-49" fill="#D48013" mask="url(#mask-4)"></path>
                        <path d="M235.725697,64.8542987 C236.047831,64.548272 236.558211,64.5613587 236.864237,64.883492 C237.171271,65.206632 237.157177,65.7160053 236.835044,66.022032 C236.511904,66.3280587 236.001524,66.314972 235.696504,65.9928387 C235.389471,65.6707053 235.403564,65.1603253 235.725697,64.8542987" id="Fill-50" fill="#D48013" mask="url(#mask-4)"></path>
                        <path d="M234.677757,71.4753467 C234.999891,71.16932 235.510271,71.1824067 235.816297,71.5055467 C236.123331,71.82768 236.109237,72.3370533 235.787104,72.6440867 C235.463964,72.9501133 234.954591,72.9370267 234.648564,72.6138867 C234.342537,72.2917533 234.355624,71.7813733 234.677757,71.4753467" id="Fill-51" fill="#D48013" mask="url(#mask-4)"></path>
                        <path d="M241.381352,39.151884 C241.180019,39.151884 240.777352,39.2525507 240.475352,39.3532173 C239.770685,39.6552173 239.468685,40.1585507 239.468685,40.2592173 L239.569352,40.359884 C239.770685,40.4605507 240.274019,40.4605507 240.777352,40.1585507 C241.482019,39.8565507 241.784019,39.3532173 241.784019,39.2525507 L241.683352,39.151884 L241.381352,39.151884 Z M239.770685,40.7625507 C239.670019,40.7625507 239.468685,40.7625507 239.368019,40.661884 C239.267352,40.5612173 239.166685,40.5612173 239.066019,40.359884 C238.864685,39.9572173 239.468685,39.3532173 240.173352,39.0512173 C240.777352,38.7492173 241.280685,38.7492173 241.582685,38.849884 C241.683352,38.9505507 241.784019,38.9505507 241.884685,39.151884 C242.086019,39.5545507 241.482019,40.1585507 240.777352,40.4605507 C240.475352,40.661884 240.072685,40.7625507 239.770685,40.7625507 L239.770685,40.7625507 Z" id="Fill-52" fill="#6D5235" mask="url(#mask-4)"></path>
                        <path d="M238.864685,34.0177833 C221.952685,28.68245 213.295352,43.17845 213.295352,43.17845 C213.295352,43.17845 229.603352,49.82245 238.864685,34.0177833" id="Fill-53" fill="#365B56" mask="url(#mask-4)"></path>
                        <polygon id="Fill-54" fill="#365B56" mask="url(#mask-4)" points="236.606531 28.1321053 237.086711 27.9800987 240.828491 39.7822587 240.349317 39.9342653"></polygon>
                    </g>
                </g>
            </g>
        </g>
    </g>
</svg>