<?xml version="1.0" encoding="UTF-8"?>
<svg width="80px" height="80px" viewBox="0 0 80 80" version="1.1" xmlns="http://www.w3.org/2000/svg" xmlns:xlink="http://www.w3.org/1999/xlink">
    <title>Paso 3</title>
    <g id="Landing-15Nov" stroke="none" stroke-width="1" fill="none" fill-rule="evenodd">
        <g id="Artboard" transform="translate(-986.000000, -458.000000)">
            <g id="Paso-3" transform="translate(986.000000, 458.000000)">
                <circle id="Oval" fill="#E4E6E8" cx="40" cy="40" r="39.1794872"></circle>
                <g id="Group" transform="translate(22.564103, 27.692308)" fill-rule="nonzero">
                    <g transform="translate(1.025641, 0.000000)">
                        <ellipse id="Oval" fill="#EAA42C" transform="translate(17.438513, 17.339149) rotate(-43.508977) translate(-17.438513, -17.339149) " cx="17.4385128" cy="17.3391487" rx="12.3082605" ry="11.6928475"></ellipse>
                        <path d="M12.8205128,7.8974359 C12.7179487,7.8974359 12.7179487,7.8974359 12.6153846,7.8974359 C12.5128205,7.8974359 12.5128205,7.79487179 12.5128205,7.79487179 C12.4102564,7.58974359 12.7179487,7.28205128 13.1282051,7.07692308 C13.4358974,6.97435897 13.7435897,6.87179487 13.8461538,6.97435897 C13.9487179,6.97435897 13.9487179,7.07692308 13.9487179,7.07692308 C14.0512821,7.28205128 13.7435897,7.58974359 13.3333333,7.79487179 C13.2307692,7.79487179 13.025641,7.8974359 12.8205128,7.8974359 Z M13.6410256,6.97435897 C13.5384615,6.97435897 13.3333333,6.97435897 13.1282051,7.07692308 C12.7179487,7.28205128 12.6153846,7.48717949 12.6153846,7.58974359 C12.6153846,7.58974359 12.6153846,7.58974359 12.7179487,7.58974359 C12.8205128,7.58974359 13.025641,7.58974359 13.3333333,7.48717949 C13.7435897,7.28205128 13.8461538,7.07692308 13.8461538,6.97435897 L13.8461538,6.97435897 C13.8461538,6.97435897 13.8461538,6.97435897 13.7435897,6.97435897 C13.7435897,6.97435897 13.7435897,6.97435897 13.6410256,6.97435897 Z" id="Shape" fill="#6D5235"></path>
                    </g>
                    <path d="M13.3333333,4.30769231 C4.30769231,1.94871795 0.205128205,9.84615385 0.205128205,9.84615385 C0.205128205,9.84615385 8.92307692,12.8205128 13.3333333,4.30769231 Z" id="Path" fill="#33807C"></path>
                    <polygon id="Path" fill="#33807C" points="14.0512821 7.38461538 11.7948718 1.33333333 12.2051282 1.12820513 14.5641026 7.17948718"></polygon>
                </g>
                <path d="M28.2051282,28 C28.2051282,28 27.0769231,26.8717949 25.1282051,25.2307692 L24.6153846,25.8461538 C26.5641026,27.3846154 27.6923077,28.5128205 27.6923077,28.5128205 L28.2051282,28 Z" id="Path" fill="#333333" fill-rule="nonzero"></path>
                <path d="M19.7948718,21.4358974 C17.9487179,20.2051282 16,19.0769231 14.0512821,18.1538462 L13.7435897,18.8717949 C15.6923077,19.8974359 17.5384615,20.9230769 19.3846154,22.1538462 L19.7948718,21.4358974 Z" id="Path" fill="#333333" fill-rule="nonzero"></path>
                <path d="M8,15.3846154 C6.76923077,14.8717949 5.43589744,14.3589744 4.1025641,13.9487179 L3.8974359,14.6666667 C5.12820513,15.0769231 6.46153846,15.4871795 7.69230769,16 L8,15.3846154 Z" id="Path" fill="#333333" fill-rule="nonzero"></path>
                <path d="M69.1282051,55.7948718 C69.4358974,54.8717949 73.025641,43.1794872 65.025641,32.7179487 C56.2051282,21.2307692 55.3846154,10.7692308 55.1794872,3.8974359 C54.974359,3.79487179 54.6666667,3.69230769 54.3589744,3.58974359 C54.4615385,10.5641026 55.2820513,21.3333333 64.4102564,33.2307692 C72.4102564,43.6923077 68.4102564,55.4871795 68.4102564,55.5897436 L68.8205128,55.6923077 C67.5897436,55.4871795 66.1538462,55.4871795 64.5128205,55.4871795 C65.025641,53.7435897 67.5897436,44.2051282 61.8461538,36.3076923 C52.6153846,23.7948718 50.5641026,10.1538462 50.2564103,2.05128205 C49.9487179,2.05128205 49.6410256,2.05128205 49.4358974,1.94871795 C49.7435897,10.0512821 51.7948718,24 61.2307692,36.8205128 C67.3846154,45.1282051 63.6923077,55.4871795 63.6923077,55.5897436 L63.7948718,55.5897436 C61.8461538,55.6923077 59.4871795,56 56.7179487,56.6153846 C48.6153846,58.2564103 40.2051282,62.4615385 33.6410256,66.4615385 C33.025641,65.7435897 30.7692308,63.6923077 23.0769231,58.0512821 C16,52.8205128 8,53.7435897 3.69230769,54.7692308 C3.79487179,54.974359 3.8974359,55.2820513 4,55.4871795 C8.1025641,54.5641026 15.7948718,53.7435897 22.5641026,58.6666667 C30.1538462,64.2051282 32.3076923,66.2564103 32.9230769,66.8717949 C31.5897436,67.6923077 30.4615385,68.4102564 29.3333333,69.2307692 C28.6153846,68.4102564 26.3589744,66.5641026 19.5897436,61.5384615 C14.6666667,57.9487179 9.53846154,57.7435897 5.53846154,58.5641026 C5.64102564,58.7692308 5.84615385,59.0769231 5.94871795,59.2820513 C9.74358974,58.5641026 14.5641026,58.8717949 19.1794872,62.1538462 C26.2564103,67.2820513 28.2051282,69.025641 28.8205128,69.6410256 C25.4358974,71.8974359 22.974359,73.7435897 21.8461538,74.6666667 C22.0512821,74.7692308 22.3589744,74.974359 22.5641026,75.0769231 C26.5641026,72 42.1538462,60.4102564 56.9230769,57.4358974 C69.7435897,54.8717949 73.1282051,57.7435897 74.0512821,59.0769231 C74.1538462,59.1794872 74.1538462,59.2820513 74.2564103,59.3846154 C74.3589744,59.0769231 74.5641026,58.8717949 74.6666667,58.5641026 C73.8461538,57.5384615 72.4102564,56.3076923 69.1282051,55.7948718 Z" id="Path" fill="#333333" fill-rule="nonzero"></path>
            </g>
        </g>
    </g>
</svg>