<?xml version="1.0" encoding="UTF-8"?>
<svg width="80px" height="80px" viewBox="0 0 80 80" version="1.1" xmlns="http://www.w3.org/2000/svg" xmlns:xlink="http://www.w3.org/1999/xlink">
    <title>Paso 1</title>
    <g id="Landing-15Nov" stroke="none" stroke-width="1" fill="none" fill-rule="evenodd">
        <g id="Artboard" transform="translate(-668.000000, -458.000000)">
            <g id="Paso-1" transform="translate(668.000000, 458.000000)">
                <circle id="Oval" fill="#E4E6E8" cx="40" cy="40" r="40"></circle>
                <g id="Group" transform="translate(11.000000, 11.000000)" fill-rule="nonzero">
                    <g transform="translate(0.000000, 1.000000)">
                        <ellipse id="Oval" fill="#EAA42C" transform="translate(10.288330, 10.316850) rotate(-20.720345) translate(-10.288330, -10.316850) " cx="10.28833" cy="10.31685" rx="7.49985199" ry="7.19985791"></ellipse>
                        <path d="M10,3.9 C10,3.9 9.9,3.9 9.9,3.8 C9.9,3.8 9.8,3.7 9.8,3.7 C9.8,3.5 10.1,3.5 10.3,3.4 C10.5,3.4 10.7,3.4 10.8,3.5 C10.8,3.5 10.9,3.6 10.9,3.6 C10.9,3.8 10.6,3.8 10.4,3.9 C10.2,4 10.1,3.9 10,3.9 Z M10.7,3.6 C10.6,3.6 10.5,3.5 10.4,3.6 C10.1,3.6 10,3.7 10,3.8 C10,3.8 10,3.8 10,3.8 C10.1,3.9 10.2,3.9 10.4,3.9 C10.6,3.8 10.8,3.8 10.7,3.6 L10.7,3.6 C10.8,3.7 10.8,3.7 10.7,3.6 C10.7,3.6 10.7,3.6 10.7,3.6 Z" id="Shape" fill="#6D5235"></path>
                    </g>
                    <path d="M10.5,2.8 C6,-0.7 1.8,2.8 1.8,2.8 C1.8,2.8 6,6.5 10.5,2.8 Z" id="Path" fill="#33807C"></path>
                    <polygon id="Path" fill="#33807C" points="10.2 4.7 10.3 0.7 10.7 0.7 10.5 4.7"></polygon>
                </g>
                <g id="Group" transform="translate(11.000000, 31.000000)" fill-rule="nonzero">
                    <g transform="translate(0.000000, 2.000000)">
                        <ellipse id="Oval" fill="#EAA42C" transform="translate(10.287410, 9.416680) rotate(-20.720345) translate(-10.287410, -9.416680) " cx="10.28741" cy="9.41668" rx="7.49985199" ry="7.19985791"></ellipse>
                        <path d="M10,3 C10,3 9.9,3 9.9,2.9 C9.9,2.9 9.8,2.8 9.8,2.8 C9.8,2.6 10.1,2.6 10.3,2.5 C10.5,2.5 10.7,2.5 10.8,2.6 C10.8,2.6 10.9,2.7 10.9,2.7 C10.9,2.9 10.6,2.9 10.4,3 C10.2,3.1 10.1,3 10,3 Z M10.7,2.7 C10.6,2.7 10.5,2.6 10.4,2.7 C10.1,2.7 10,2.8 10,2.9 C10,2.9 10,2.9 10,2.9 C10.1,3 10.2,3 10.4,3 C10.6,2.9 10.8,2.9 10.7,2.7 L10.7,2.7 C10.8,2.8 10.8,2.8 10.7,2.7 C10.7,2.7 10.7,2.7 10.7,2.7 Z" id="Shape" fill="#6D5235"></path>
                    </g>
                    <path d="M10.5,2.9 C6,-0.6 1.8,2.9 1.8,2.9 C1.8,2.9 6,6.6 10.5,2.9 Z" id="Path" fill="#33807C"></path>
                    <polygon id="Path" fill="#33807C" points="10.2 4.8 10.3 0.8 10.7 0.8 10.5 4.8"></polygon>
                </g>
                <g id="Group" transform="translate(11.000000, 52.000000)" fill-rule="nonzero">
                    <g transform="translate(0.000000, 1.000000)">
                        <ellipse id="Oval" fill="#EAA42C" transform="translate(10.314450, 9.711270) rotate(-20.720345) translate(-10.314450, -9.711270) " cx="10.31445" cy="9.71127" rx="7.49985199" ry="7.19985791"></ellipse>
                        <path d="M10,3.2 C10,3.2 9.9,3.2 9.9,3.1 C9.9,3.1 9.8,3 9.8,3 C9.8,2.8 10.1,2.8 10.3,2.7 C10.5,2.7 10.7,2.7 10.8,2.8 C10.8,2.8 10.9,2.9 10.9,2.9 C10.9,3.1 10.6,3.1 10.4,3.2 C10.2,3.3 10.1,3.3 10,3.2 Z M10.7,2.9 C10.6,2.9 10.5,2.8 10.4,2.9 C10.1,2.9 10,3 10,3.1 C10,3.1 10,3.1 10,3.1 C10.1,3.2 10.2,3.2 10.4,3.2 C10.6,3.2 10.8,3.1 10.7,2.9 L10.7,2.9 C10.8,3 10.8,3 10.7,2.9 C10.7,3 10.7,2.9 10.7,2.9 Z" id="Shape" fill="#6D5235"></path>
                    </g>
                    <path d="M10.5,2.1 C6,-1.4 1.8,2.1 1.8,2.1 C1.8,2.1 6,5.8 10.5,2.1 Z" id="Path" fill="#33807C"></path>
                    <polygon id="Path" fill="#33807C" points="10.2 4 10.3 0 10.7 0 10.5 4"></polygon>
                </g>
                <path d="M75.3,58.9 L75.3,35.3 L65.8,35.3 C65.9,30.2 64.3,26.3 62.6,22.2 C61.2,18.9 59.8,15.4 59.1,11.1 C58.8,9 58.9,6.9 59.2,4.9 C59,4.8 58.7,4.6 58.5,4.5 C58.2,6.6 58,8.9 58.4,11.2 C59.1,15.7 60.5,19.1 61.9,22.5 C63.6,26.5 65.2,30.4 65,35.3 L61.9,35.3 C61.8,33.9 61.4,28.7 58.9,23.3 C55.6,16.2 54.6,9.7 55.9,3.3 C55.7,3.2 55.4,3.1 55.2,3 C53.8,9.7 54.8,16.4 58.2,23.7 C60.6,28.9 61,34 61.1,35.3 L48.6,35.3 C48.7,30.2 47.1,26.3 45.4,22.2 C44,18.9 42.6,15.4 41.9,11.1 C41.3,7.1 42.1,3.2 43.2,0.2 C42.9,0.2 42.7,0.2 42.4,0.1 C41.4,3.1 40.6,7.1 41.2,11.2 C41.9,15.7 43.3,19.1 44.7,22.5 C46.4,26.5 48,30.4 47.8,35.3 L44.7,35.3 C44.6,33.9 44.2,28.7 41.7,23.3 C38,15.1 37.3,7.6 39.7,0 C39.4,0 39.2,0 38.9,0 C36.5,7.7 37.3,15.3 41.1,23.7 C43.5,28.9 43.9,34 44,35.3 L36.7,35.3 L36.7,79.8 C36.9,79.8 37.2,79.8 37.5,79.9 L37.5,36.1 L74.6,36.1 L74.6,60.2 C74.8,59.7 75,59.3 75.3,58.9 Z" id="Path" fill="#333333" fill-rule="nonzero"></path>
            </g>
        </g>
    </g>
</svg>