<?xml version="1.0" encoding="UTF-8"?>
<svg width="80px" height="80px" viewBox="0 0 80 80" version="1.1" xmlns="http://www.w3.org/2000/svg" xmlns:xlink="http://www.w3.org/1999/xlink">
    <title>Paso 2</title>
    <g id="Landing-15Nov" stroke="none" stroke-width="1" fill="none" fill-rule="evenodd">
        <g id="Artboard" transform="translate(-827.000000, -458.000000)">
            <g id="Paso-2" transform="translate(827.000000, 458.000000)">
                <circle id="Oval" fill="#E4E6E8" cx="40" cy="40" r="40"></circle>
                <path d="M64.3,49.2 C64,48.3 62.5,43.7 62.5,43.7 L70.4,40.6 L70.6,41 L74.2,49.9 L63.9,56.9 L55.7,56.9 L55.7,54.4 L64.3,49.2 Z" id="Path" fill="#FFFFFF" fill-rule="nonzero"></path>
                <path d="M19,43.2 L26.6,46.1 L22,58.5 L4.2,50 C4.2,50 5.8,47.7 7.5,47.9 C9.1,48.1 16,49.8 16,49.8 L19,43.2 Z" id="Path" fill="#FFFFFF" fill-rule="nonzero"></path>
                <line x1="9.1" y1="60.5" x2="69.7" y2="60.5" id="Path" stroke="#333333" stroke-width="0.75"></line>
                <line x1="16.9" y1="47.1" x2="19.3" y2="48.2" id="Path" stroke="#333333" stroke-width="0.5"></line>
                <line x1="17.7" y1="45.5" x2="20" y2="46.6" id="Path" stroke="#333333" stroke-width="0.5"></line>
                <line x1="63.3" y1="46.7" x2="65.7" y2="45.8" id="Path" stroke="#333333" stroke-width="0.5"></line>
                <line x1="62.8" y1="45.2" x2="65.3" y2="44.3" id="Path" stroke="#333333" stroke-width="0.5"></line>
                <path d="M63.2,7.4 C56.7,2.8 48.7,0 40,0 C37.4,0 34.9,0.3 32.5,0.7 L28.5,1.9 L16.5,42.2 L28.4,46.6 L47.2,9.2 L60.7,44.5 L72.4,40.1 L63.2,7.4 Z" id="Path" fill="#5D9E9B" fill-rule="nonzero"></path>
                <path d="M22.1,59 L21.8,58.9 L3.8,50.2 L4,49.8 C4.1,49.7 5.8,47.4 7.6,47.6 C9.1,47.8 14.7,49.1 15.9,49.4 L18.8,43.1 L19.3,43.3 L16.2,50.1 L16,50.1 C15.9,50.1 9.1,48.5 7.5,48.2 C6.4,48 5.2,49.3 4.7,49.9 L21.8,58.1 L26.3,46 L26.9,46.2 L22.1,59 Z" id="Path" fill="#333333" fill-rule="nonzero"></path>
                <path d="M63.8,57.3 L55.2,57.3 L55.2,54.4 L63.9,49.1 C63.5,47.9 62.2,43.9 62.1,43.9 L62.7,43.7 C62.8,43.9 64.3,48.3 64.5,49.2 L64.6,49.4 L55.8,54.7 L55.8,56.7 L63.6,56.7 L73.7,49.9 L70,40.8 L70.6,40.6 L70.8,41 L74.5,50.1 L63.8,57.3 Z" id="Path" fill="#333333" fill-rule="nonzero"></path>
            </g>
        </g>
    </g>
</svg>