<svg id="Capa_1" data-name="Capa 1" xmlns="http://www.w3.org/2000/svg" viewBox="0 0 287 287"><defs><style>.cls-1{fill:#333;}.cls-2{fill:#fabf61;}.cls-3{fill:#fabf62;stroke:#333;stroke-miterlimit:10;stroke-width:9px;}</style></defs><title>Farmer_Familiar</title><circle class="cls-1" cx="143.5" cy="143.5" r="143.5"/><g id="Familiar"><path class="cls-2" d="M134,91.48a19.74,19.74,0,1,0-19.73-19.74A19.74,19.74,0,0,0,134,91.48Z" transform="translate(-6.95 -8)"/><path class="cls-2" d="M153.33,160.78l-5.21-.79a13.9,13.9,0,0,1-9.49-5.8c-2.2-3.24-2.87-7.37-1.93-11.92l8.93-26.65a24.31,24.31,0,0,1,7.2-11.62,3.84,3.84,0,0,0-1.69-6.7,45.86,45.86,0,0,0-8.71-.76H125.66c-7.23,0-13,1.26-17.37,4.14a3.81,3.81,0,0,0-1,5.32,22.32,22.32,0,0,1,.84,23.79,3.79,3.79,0,0,0,1.35,5.16c8.21,4.87,10.28,14.06,10.28,22l-.07,25.39a12.92,12.92,0,0,1-8.31,12.46l-.06,35.85a2.16,2.16,0,0,0,.07.39,8.29,8.29,0,0,0,.65,2,10.47,10.47,0,0,0,9.81,5.82,11.2,11.2,0,0,0,11.2-11.18,11.19,11.19,0,0,0,11.19,11.18,10.56,10.56,0,0,0,2.11-.21,8.85,8.85,0,0,0,7-9.19c0-.26,0-.53,0-.81Z" transform="translate(-6.95 -8)"/><path class="cls-2" d="M113.45,182.35l.06-25.41c0-13-5.55-18.31-16-19.09H88.22a3.8,3.8,0,0,0-3.8,4.16,14.82,14.82,0,0,1-5.32,13.37,15.61,15.61,0,0,1-9.71,3.4c-.4,0-.81,0-1.23-.08a3.84,3.84,0,0,0-4.26,3.81l0,19.84a7,7,0,0,0,6.19,7.14A2.54,2.54,0,0,1,72.2,192v38.43A8.38,8.38,0,0,0,80,238.87a8.23,8.23,0,0,0,8.64-8.21,8.22,8.22,0,1,0,16.43,0l.07-38.67a2.51,2.51,0,0,1,2.07-2.49C111.37,188.78,113.45,185.88,113.45,182.35Z" transform="translate(-6.95 -8)"/><path class="cls-2" d="M64.31,152.8a9.31,9.31,0,0,0,6.43,1.36,11,11,0,0,0,6.09-3.09c5.86-5.65,3.08-9.95-.33-14.15a10.86,10.86,0,0,0-2.24-2.43,4.16,4.16,0,0,0-2.87-.77c-2.3.31-4.58,2.61-7,5.12-3.81,4-6.47,6.55-2.69,11.26A10.86,10.86,0,0,0,64.31,152.8Z" transform="translate(-6.95 -8)"/><path class="cls-2" d="M88.7,134.07a15.52,15.52,0,1,0-15.52-15.51A15.52,15.52,0,0,0,88.7,134.07Z" transform="translate(-6.95 -8)"/><path class="cls-2" d="M197.42,201.67a6.65,6.65,0,0,0-1.23-3.77,12.11,12.11,0,0,1-2.13-7L194,169.42c0-6.16,1.33-10.67,3.44-14a16.9,16.9,0,0,1,4.82-4.92,3.77,3.77,0,0,0,1.31-4.68,19.37,19.37,0,0,1,0-16,3.81,3.81,0,0,0-2.23-5.17,15.51,15.51,0,0,1-4.7-2.69,14.84,14.84,0,0,1-5-13.66,3.86,3.86,0,0,0-3.63-4.43c-.72,0-1.46,0-2.22,0H173.52c-11.55,0-19,3.83-21.91,13.66l-8.76,26c-1.11,5.37,1.05,9.34,6.35,10.27l10.41,1.57v73.29c0,5.71,3.34,10.33,9.21,10.33s9.69-4.62,9.69-10.33c0,5.71,3.32,10.33,9.2,10.33s9.68-4.62,9.68-10.33Z" transform="translate(-6.95 -8)"/><path class="cls-2" d="M200.69,101.34c-4.5,3-6.95,8.48-4.48,13.43a10.32,10.32,0,0,0,5.12,4.84,9.48,9.48,0,0,0,6.34.49,10.8,10.8,0,0,0,3.26-1.81c5-3.39,3.21-6.62.74-11.56-1.57-3.14-3.1-6-5.24-7a3.89,3.89,0,0,0-2.88-.07A10.39,10.39,0,0,0,200.69,101.34Z" transform="translate(-6.95 -8)"/><path class="cls-2" d="M228.67,153.29H213.84c-8.85.66-13.55,5.17-13.55,16.13l.05,21.46a5.89,5.89,0,0,0,4.91,6,2.58,2.58,0,0,1,2.07,2.5v32.48a7.1,7.1,0,0,0,6.79,7.17,7,7,0,0,0,7.1-6.94,6.95,6.95,0,0,0,13.89,0l.05-32.7a2.58,2.58,0,0,1,2.08-2.5,5.83,5.83,0,0,0,4.94-6l.05-21.46C242.22,158.46,237.53,154,228.67,153.29Z" transform="translate(-6.95 -8)"/><path class="cls-2" d="M221.26,124.74a13.11,13.11,0,1,0,13.11,13.12A13.11,13.11,0,0,0,221.26,124.74Z" transform="translate(-6.95 -8)"/><path class="cls-2" d="M196.7,81.09a18.17,18.17,0,1,1-18.16-18.16A18.16,18.16,0,0,1,196.7,81.09Z" transform="translate(-6.95 -8)"/><path class="cls-3" d="M130,145.15c6.71,11.87,27.24,25.93,27.24,25.93s20.19-15.57,27-25.58c7.58-11.23-.85-25.58-13.68-25.58a16.47,16.47,0,0,0-13.29,6.76A16.46,16.46,0,0,0,144,119.92C131.35,119.92,123.29,133.23,130,145.15Z" transform="translate(-6.95 -8)"/></g></svg>