<svg xmlns="http://www.w3.org/2000/svg" viewBox="0 0 287 287"><defs><style>.cls-1{fill:#333;}.cls-2{fill:#fabf61;}.cls-3{fill:#fabf62;}</style></defs><title>Recurso 1</title><g id="Capa_2" data-name="Capa 2"><g id="Capa_1-2" data-name="Capa 1"><circle class="cls-1" cx="143.5" cy="143.5" r="143.5"/><g id="Residuo_Cero" data-name="Residuo Cero"><path class="cls-2" d="M143.55,281.49a137.2,137.2,0,0,0,97.33-40.31h0a137.67,137.67,0,1,0-97.33,40.31ZM236.29,51.06A131.15,131.15,0,0,1,241,231.59h0a3.39,3.39,0,0,1-4.79.24,1.85,1.85,0,0,1-.14-.14L55.63,51.35a3.41,3.41,0,0,1,0-4.83l.11-.1.06-.05A131.14,131.14,0,0,1,236.29,51.06Zm-99.94,90.15,95.08,95.1a3.43,3.43,0,0,1,0,4.86l-.14.13A131.14,131.14,0,0,1,46.07,56.09a3.43,3.43,0,0,1,4.84-.32,1.29,1.29,0,0,1,.17.16l85.58,85"/><path class="cls-2" d="M143.74,282h-.19a137.28,137.28,0,0,1-97.71-40.48C-8,187.63-8,100,45.86,46.11s141.53-53.85,195.4,0,53.86,141.54,0,195.4A138.63,138.63,0,0,1,143.74,282ZM143.55,6.72a137.14,137.14,0,1,0,0,274.27h.19a137.6,137.6,0,0,0,96.79-40.17c53.49-53.47,53.5-140.49,0-194A136.72,136.72,0,0,0,143.55,6.72Zm.06,268.84q-3.47,0-6.94-.18a131.64,131.64,0,0,1-91-219.62,3.92,3.92,0,0,1,5.54-.36,1.54,1.54,0,0,1,.19.17l85.59,85-.32.32L231.79,236a3.94,3.94,0,0,1,0,5.56l-.17.15A130.62,130.62,0,0,1,143.61,275.56Zm-95-220.14a3,3,0,0,0-2.21,1,130.64,130.64,0,0,0,184.5,184.51l.13-.12a2.94,2.94,0,0,0,0-4.15L136,141.56l.32-.31-85.58-85-.15-.13A2.89,2.89,0,0,0,48.65,55.42ZM238.49,233.21a3.88,3.88,0,0,1-2.61-1,1.21,1.21,0,0,1-.16-.16L55.27,51.7a3.85,3.85,0,0,1-1.15-2.76,3.9,3.9,0,0,1,1.14-2.77l.12-.12a131.61,131.61,0,0,1,181.26,4.66h0a131.6,131.6,0,0,1,4.74,181.21,3.82,3.82,0,0,1-2.69,1.28ZM143.55,13.14a130.21,130.21,0,0,0-87.43,33.6l-.15.13a2.93,2.93,0,0,0-.85,2.07A2.9,2.9,0,0,0,56,51L236.55,231.46a2.91,2.91,0,0,0,2.09.74,2.86,2.86,0,0,0,2-.95,130.59,130.59,0,0,0-4.71-179.83h0A130.27,130.27,0,0,0,143.55,13.14Z"/><path class="cls-2" d="M201.05,48.39a11.78,11.78,0,0,0-8.31,3.43L178.22,66.39l-6.5-6.51a5.92,5.92,0,0,0-4.16-1.75,5.23,5.23,0,0,0-3.72,1.51L149,74.53a5.67,5.67,0,0,0-2.86-.81,5.8,5.8,0,0,0-4.07,1.7l-4,4a5.89,5.89,0,0,0-1.7,4.07,5.74,5.74,0,0,0,1.7,4L147.53,97,99.15,145.43a3.1,3.1,0,0,0-.92,2.21,2.66,2.66,0,0,1-.27,1,14.54,14.54,0,0,1-2.11,3.42c-1.51,2-3.52,4.2-5.24,6.52a24.54,24.54,0,0,0-2.3,3.64,9.89,9.89,0,0,0-1.1,4.33,7,7,0,0,0,.54,2.76,8,8,0,0,0,1.66,2.43,8.2,8.2,0,0,0,2.45,1.67,7.17,7.17,0,0,0,2.78.54,9.05,9.05,0,0,0,3.37-.68,22.65,22.65,0,0,0,5-3c2.32-1.74,4.53-3.74,6.51-5.21a16,16,0,0,1,2.61-1.7,3.51,3.51,0,0,1,1.45-.45,3.14,3.14,0,0,0,2.22-.92l48.4-48.4,9.53,9.51a5.72,5.72,0,0,0,8.09,0l0,0-2.23-2.1,2.23,2.22,4-4a5.7,5.7,0,0,0,.87-6.94l14.89-14.89h0a5.3,5.3,0,0,0,1.5-3.69,6,6,0,0,0-1.75-4.18L194.84,83l14.57-14.56a11.75,11.75,0,0,0-8.36-20Zm-31,18.8,24,23.92a3.46,3.46,0,0,1,0,4.89l0,0-9.18,9.2a3.46,3.46,0,0,1-4.91,0h0L156.05,81.28a3.48,3.48,0,0,1,0-4.92l9.19-9.17a3.45,3.45,0,0,1,4.87,0Zm-57,88.73a5.15,5.15,0,0,1-2.09,1.23,5.89,5.89,0,0,0-.7.26,21.26,21.26,0,0,0-4.83,2.93c-2.29,1.75-4.5,3.74-6.48,5.21a18.93,18.93,0,0,1-2.67,1.67,4.09,4.09,0,0,1-1.6.49l-.35-.06a2.59,2.59,0,0,1-.42-.32,1.48,1.48,0,0,1-.31-.43l-.07-.31a2.86,2.86,0,0,1,.27-1.07,14.83,14.83,0,0,1,2.1-3.42c1.52-2,3.52-4.2,5.24-6.51a22.47,22.47,0,0,0,2.3-3.63,12.33,12.33,0,0,0,.72-1.86,4.71,4.71,0,0,1,1.25-2l45.33-45.34a1.62,1.62,0,0,1,2.29,0l5.44,5.45a1.62,1.62,0,0,1,0,2.29Zm63.61-38.71L144.05,84.58a1.61,1.61,0,0,1,0-2.28h0l.91-.91a1.61,1.61,0,0,1,2.28,0h0l1.49,1.49h0l29.61,29.63h0l1.48,1.49a1.61,1.61,0,0,1,0,2.28h0l-.91.91a1.61,1.61,0,0,1-2.27,0ZM205,64,190.63,78.33,182.9,70.6l14.32-14.32A5.47,5.47,0,0,1,205,64Z"/><path class="cls-2" d="M94.6,175a8.37,8.37,0,0,1-3.12-.61,9.33,9.33,0,0,1-2.77-1.89,8.75,8.75,0,0,1-1.88-2.74,8.07,8.07,0,0,1-.62-3.17,10.89,10.89,0,0,1,1.21-4.78,25.47,25.47,0,0,1,2.4-3.79c.93-1.26,2-2.48,2.93-3.66.83-1,1.62-1.95,2.3-2.85a13.35,13.35,0,0,0,2-3.22,1.63,1.63,0,0,0,.19-.67,4.06,4.06,0,0,1,1.22-2.85L146.12,97l-8.81-8.82a6.77,6.77,0,0,1-2-4.69,6.85,6.85,0,0,1,2-4.79l4-4a6.79,6.79,0,0,1,4.77-2,6.59,6.59,0,0,1,2.68.59l14.37-14.38a6.29,6.29,0,0,1,4.39-1.8h0a6.89,6.89,0,0,1,4.86,2L178.22,65,192,51.11a12.73,12.73,0,0,1,9-3.72h0a12.82,12.82,0,0,1,9,3.73,12.76,12.76,0,0,1,0,18L196.25,83l5.82,5.81a7,7,0,0,1,2,4.88,6.32,6.32,0,0,1-1.78,4.4l-14.39,14.38a6.69,6.69,0,0,1-1.38,7.46l-4.71,4.7-.12-.12a6.74,6.74,0,0,1-8.71-.71L164.2,115l-47.69,47.7a4.13,4.13,0,0,1-2.93,1.21,2.54,2.54,0,0,0-1,.32,15.61,15.61,0,0,0-2.49,1.61c-1,.73-2,1.56-3,2.45s-2.28,1.88-3.48,2.78a23.38,23.38,0,0,1-5.2,3.12,10,10,0,0,1-3.76.76ZM146.08,74.72a4.78,4.78,0,0,0-3.35,1.41l-4,4a4.84,4.84,0,0,0-1.41,3.37,4.73,4.73,0,0,0,1.41,3.28L148.94,97,99.86,146.14a2.07,2.07,0,0,0-.63,1.5,3.82,3.82,0,0,1-.37,1.44,15.34,15.34,0,0,1-2.24,3.62c-.68.9-1.48,1.87-2.33,2.88-1,1.17-2,2.37-2.88,3.6a23.68,23.68,0,0,0-2.21,3.5,8.94,8.94,0,0,0-1,3.89,5.93,5.93,0,0,0,.46,2.35A6.63,6.63,0,0,0,90.12,171a7.09,7.09,0,0,0,2.15,1.47,5.94,5.94,0,0,0,2.36.45,8,8,0,0,0,3-.61,21.16,21.16,0,0,0,4.76-2.85c1.18-.89,2.32-1.83,3.42-2.74s2.12-1.75,3.11-2.49a17.09,17.09,0,0,1,2.75-1.79,4.66,4.66,0,0,1,1.83-.56,2.15,2.15,0,0,0,1.59-.63l49.11-49.1,10.24,10.21a4.72,4.72,0,0,0,5.85.69l-1.38-1.37,1.4-1.44,1.58,1.5,3.25-3.26a4.69,4.69,0,0,0,.72-5.72l-.4-.67L200.9,96.68a4.23,4.23,0,0,0,1.21-3,4.93,4.93,0,0,0-1.46-3.47L193.43,83,208.7,67.73a10.76,10.76,0,0,0,0-15.2,10.82,10.82,0,0,0-7.6-3.14h0a10.71,10.71,0,0,0-7.6,3.14L178.22,67.81,171,60.59a4.86,4.86,0,0,0-3.45-1.46,4.34,4.34,0,0,0-3,1.22L149.11,75.79l-.67-.4A4.7,4.7,0,0,0,146.08,74.72Zm-51.44,94-.66-.11-.15-.1a2.6,2.6,0,0,1-.62-.47,2.52,2.52,0,0,1-.51-.7l-.08-.22-.1-.45v-.14a3.92,3.92,0,0,1,.36-1.43,16.56,16.56,0,0,1,2.23-3.63c.69-.91,1.49-1.86,2.33-2.87,1-1.17,2-2.38,2.89-3.61a21.52,21.52,0,0,0,2.21-3.48,10.37,10.37,0,0,0,.65-1.69,5.84,5.84,0,0,1,1.52-2.45L150,102.05a2.63,2.63,0,0,1,3.71,0l5.44,5.45a2.63,2.63,0,0,1,0,3.71l-45.43,45.43a6.16,6.16,0,0,1-2.5,1.47,4.79,4.79,0,0,0-.57.21,20.27,20.27,0,0,0-4.62,2.8c-1.11.85-2.19,1.74-3.23,2.6s-2.24,1.86-3.28,2.63a21,21,0,0,1-2.81,1.76,5,5,0,0,1-2,.6Zm.07-2h0a3,3,0,0,0,1.09-.36,18.47,18.47,0,0,0,2.55-1.59c1-.75,2.08-1.63,3.21-2.57s2.14-1.78,3.26-2.64a23,23,0,0,1,5-3,7.26,7.26,0,0,1,.82-.3,4.22,4.22,0,0,0,1.67-1l45.41-45.42a.62.62,0,0,0,0-.87l-5.44-5.45a.62.62,0,0,0-.87,0l-45.33,45.34a3.7,3.7,0,0,0-1,1.59,12.87,12.87,0,0,1-.77,2,23,23,0,0,1-2.41,3.8c-.94,1.26-2,2.49-3,3.68-.82,1-1.6,1.93-2.28,2.83a14.16,14.16,0,0,0-2,3.21,2.26,2.26,0,0,0-.17.6v0l.07.07Zm83.06-48a2.62,2.62,0,0,1-1.82-.73l-1.77-1.72h.07L143.34,85.29a2.61,2.61,0,0,1,0-3.69l.92-.93a2.63,2.63,0,0,1,1.84-.77,2.72,2.72,0,0,1,1.85.76l32.6,32.63a2.6,2.6,0,0,1,0,3.68l-.91.92A2.62,2.62,0,0,1,177.77,118.66Zm-.36-2.11a.62.62,0,0,0,.8-.07l.91-.92a.6.6,0,0,0,0-.86l-1.48-1.5-31.1-31.11a.57.57,0,0,0-.43-.19h0a.64.64,0,0,0-.43.18l-.91.92a.59.59,0,0,0-.19.44.64.64,0,0,0,.18.43Zm5-9.31a4.45,4.45,0,0,1-3-1.19h0L155.34,82a4.5,4.5,0,0,1,0-6.34l9.19-9.17a4.47,4.47,0,0,1,6.28,0l1.73,1.71h-.07L194.76,90.4a4.48,4.48,0,0,1,0,6.31l-9.2,9.22A4.47,4.47,0,0,1,182.42,107.24Zm-1.84-2.82.09.1a2.47,2.47,0,0,0,3.49,0l9.18-9.2a2.46,2.46,0,0,0,0-3.49l-24.28-24.2a2.46,2.46,0,0,0-3.12.28l-9.18,9.17a2.47,2.47,0,0,0,0,3.5Zm10-24.68-9.14-9.14,15-15a6.47,6.47,0,0,1,9.15,9.15L204,66.43h0Zm-6.32-9.14,6.32,6.32,13.78-13.8A4.46,4.46,0,0,0,197.93,57Z"/><path class="cls-2" d="M89.48,237.53A20.52,20.52,0,0,0,103.69,232a17.85,17.85,0,0,0,5.67-13,17.18,17.18,0,0,0-.73-4.45c-1.62-5.45-5.36-12.22-8.92-17.78-1.79-2.77-3.51-5.22-4.93-7-.73-.9-1.35-1.65-1.92-2.24a10.29,10.29,0,0,0-.92-.83,5.13,5.13,0,0,0-.7-.44,4,4,0,0,0-1.76-.42,3.85,3.85,0,0,0-1.88.49,5.69,5.69,0,0,0-1.21.92,22.6,22.6,0,0,0-1.94,2.2,108.06,108.06,0,0,0-9.17,14,72,72,0,0,0-4,8.24A21.17,21.17,0,0,0,69.6,219a17.87,17.87,0,0,0,5.69,13A20.47,20.47,0,0,0,89.48,237.53Z"/><rect class="cls-3" x="158.47" y="74.17" width="6.86" height="50.3" rx="1.2" ry="1.2" transform="translate(-22.81 143.57) rotate(-45)"/></g></g></g></svg>