<svg id="Capa_1" data-name="Capa 1" xmlns="http://www.w3.org/2000/svg" viewBox="0 0 287 287"><defs><style>.cls-1{fill:#333;}.cls-2{fill:#fabf61;}.cls-3,.cls-4,.cls-5{fill:none;stroke-linecap:round;stroke-miterlimit:10;}.cls-3{stroke:#fff;stroke-width:3px;}.cls-4,.cls-5{stroke:#333;}.cls-4{stroke-width:4px;}.cls-5{stroke-width:5px;}.cls-6{fill:#fabf62;}</style></defs><title>Ecologico</title><circle class="cls-1" cx="143.5" cy="143.5" r="143.5"/><g id="Ecologico"><path class="cls-2" d="M70.46,104.38l19.22-8.13s1.48-1.48,5.18,1.48,5.17,8.87,5.91,11.82.74,16.27,0,18.48-6.65,14.79-8.13,19.22S82.29,159.82,80.81,162s-8.87,9.61-8.13,7.39-7.39-9.61-8.13-12.57-5.91-9.61-6.65-12.56S54.2,131,56.42,128.77s3.69-11.08,5.91-13.3S70.46,104.38,70.46,104.38Z" transform="translate(-6.95 -8)"/><path class="cls-2" d="M175.43,88.12c.74-3.7,3.69-18.48,5.17-20.7s.74-5.91,5.18-5.91,7.39-.74,10.35.74,10.34,3,11.82,4.43,5.18.74,7.39,3.7,6.66,5.17,7.4,6.65,2.21,2.22,4.43,5.17,2.22,2.22,3.7,5.18S236,93.29,235.3,94s-.74,1.48.74,5.92,1.48,3,1.48,6.65-.74,1.48,0,3.69,0,2.22,0,2.22.74.74,0,8.13-2.22,5.18-1.48,8.13-1.48,8.87-1.48,8.87a53.23,53.23,0,0,0-1.47,5.92,22.38,22.38,0,0,1-2.22,6.65c-.74,1.48.74,3.7-3.7,2.22s-8.87-3-8.87-3.7-2.22-2.95-4.43-4.43-3.7-2.22-7.4-4.44-11.08-6.65-11.82-8.13-5.18-3-5.18-4.43-1.48-3.7-2.21-4.44-1.48-3-3-4.44-1.48,0-3-3,0-1.48-2.22-4.44-.74-2.21-2.21-5.91-2.22,0-1.48-5.17,2.22-7.4,1.48-8.14S175.43,88.12,175.43,88.12Z" transform="translate(-6.95 -8)"/><path class="cls-2" d="M70.25,177.89s-9.19-2.76-15.63.46a13,13,0,0,0-6.89,10.11s6.89,2.76,12.41.46S70.25,177.89,70.25,177.89Z" transform="translate(-6.95 -8)"/><path class="cls-2" d="M259.5,162.21s-6-7.33-13-8.27a12.84,12.84,0,0,0-11.21,4.42s4.09,6.06,9.85,7.24S259.5,162.21,259.5,162.21Z" transform="translate(-6.95 -8)"/><path class="cls-2" d="M71.18,180.6s-3.79,3.32-4.16,7.07a6.84,6.84,0,0,0,2.57,5.88s3.15-2.29,3.66-5.38S71.18,180.6,71.18,180.6Z" transform="translate(-6.95 -8)"/><path class="cls-2" d="M147.34,233c-20,0-28.83-13.31-30.31-12.57-1.1.55,2.5,2.62,3,1.48l-5.91-3.69c-24.5-8.78-35.28-19.94-43.17-44.84A83.61,83.61,0,0,1,67,148.16c-.06-1.51-.49-18.57,12.51-35.75,9.53-12.58,12.56-18.77,12.59-18.83A2.76,2.76,0,0,1,94.37,92a2.79,2.79,0,0,1,2.48,1.17,50.25,50.25,0,0,1,8,29.35,43.44,43.44,0,0,1-3,13.7c-4.66,11.65-11.71,20-17.37,26.66-3.34,3.95-6.22,7.35-7.49,10.21a3,3,0,0,1-.16.31c8,23.32,21.17,38.77,44.74,46.27.73.24,1.89-1.43,2.21-.73s-3.41-.72-3.69,0h3.69c3.17,1.62,12.57,9.6,25.14,9.6,19.22,0,28.09-6.65,28.09-6.65.43-.32-.54,0,0,0,17.66-.89,12.46-3.66,25.69-15.43a78.34,78.34,0,0,0,25-44.81c.13-.74.25-1.49.36-2.24a2.93,2.93,0,0,1-.73-.91c-2.21-4.43-7.88-7.69-15-11.83-11.47-6.61-25.75-14.84-35.48-33.16-11.59-21.81,3.53-52,4.55-54a2.85,2.85,0,0,1,.81-1,2.86,2.86,0,0,1,1.78-.56H184c1.87.14,39.57,3.34,52,33.88,9.73,24,2.08,50.89-1.82,61.7a80,80,0,0,1-1.08,9,83.12,83.12,0,0,1-26.79,48c-14.19,12.44-11.59,10.55-11.62,10.57l-5.18-.74C185.08,222,179.13,233,147.34,233ZM94.6,100.35c-2,3.26-5.36,8.36-10.68,15.39-12,15.93-11.4,32.05-11.39,32.21v.14a78.52,78.52,0,0,0,2.11,18.11c1.55-2.16,3.46-4.41,5.53-6.86C85.57,153,92.3,145,96.63,134.2a38.12,38.12,0,0,0,2.66-12A44.61,44.61,0,0,0,94.6,100.35Zm89.59-33.84c-3.71,9-10.52,29.51-2.59,44.43,9,16.92,22.5,24.71,33.36,31,5.43,3.13,10.33,6,13.78,9.44,0-1.09.07-2.17.07-3.26,0-21.38-6.87-37.92-23-55.33C194.1,80.05,187.51,71.32,184.19,66.51Zm5.26-2.12A250,250,0,0,0,209.9,89c13.7,14.83,21.12,29.11,23.53,46,2.25-11.94,3-27.19-2.58-41C222.44,73.28,200.15,66.5,189.45,64.39Z" transform="translate(-6.95 -8)"/><path class="cls-2" d="M73.54,175.31a2.77,2.77,0,0,1-2.12-1c-.9-1.08-22.07-26.77-15.34-51.77,2.84-10.55,10.36-19.18,21.75-25a60.26,60.26,0,0,1,16.34-5.55A2.76,2.76,0,0,1,95,97.5c-.28,0-27.73,4.64-33.62,26.49-6,22.25,14.05,46.55,14.25,46.79a2.76,2.76,0,0,1-2.11,4.53Z" transform="translate(-6.95 -8)"/><path class="cls-2" d="M72.07,138a2.76,2.76,0,0,1-2-4.68c.55-.57,13.82-14.12,31.71-15.08a2.75,2.75,0,1,1,.3,5.5c-15.68.85-27.93,13.29-28,13.42A2.74,2.74,0,0,1,72.07,138Z" transform="translate(-6.95 -8)"/><path class="cls-2" d="M72.53,133.38h-.19a2.75,2.75,0,0,1-2.56-2.94,51.1,51.1,0,0,0-3.44-22.11,2.76,2.76,0,0,1,5-2.28,55.58,55.58,0,0,1,3.92,24.77A2.75,2.75,0,0,1,72.53,133.38Z" transform="translate(-6.95 -8)"/><path class="cls-3" d="M69,128" transform="translate(-6.95 -8)"/><path class="cls-3" d="M55.93,123.14" transform="translate(-6.95 -8)"/><path class="cls-2" d="M236.16,154.06c.46-1.37,4.6-20.68,11-27.11s20.69-3.22,20.69-3.22S266.5,136.14,261,143,236.16,154.06,236.16,154.06Z" transform="translate(-6.95 -8)"/><path class="cls-2" d="M67.93,175.59S62,159,52.76,153.52,33,154.9,33,154.9s2.76,10.58,10.57,15.63S67.93,175.59,67.93,175.59Z" transform="translate(-6.95 -8)"/><path class="cls-3" d="M101.14,135.06" transform="translate(-6.95 -8)"/><path class="cls-3" d="M79.7,104.75" transform="translate(-6.95 -8)"/><path class="cls-4" d="M95.23,92.92c-36.95,11.89-25.11,66-21.56,80.7" transform="translate(-6.95 -8)"/><path class="cls-5" d="M182.82,58.18c53.59,14.05,52.78,83.59,47.68,98.31" transform="translate(-6.95 -8)"/><path class="cls-6" d="M129.57,168.54c0,7.54-3.13,7.55-7.31,8.24V177c4.18.69,7.34,1.28,7.31,8.24v21.37c0,10.92,3,16.73-16.84,16.73H84.86A1.71,1.71,0,0,1,83,221.5V132.3a1.66,1.66,0,0,1,1.86-1.85h27.87c16.87,0,16.84,5.8,16.84,16.72Zm-15.44-18.12c0-3-1.51-4.64-4.65-4.64h-9.09a1.48,1.48,0,0,0-1.48,1.48v20.5a1.49,1.49,0,0,0,1.48,1.48h9.09c3,0,4.65-1.63,4.65-4.53Zm0,38.79c0-3-1.51-4.64-4.65-4.64h-9.09A1.48,1.48,0,0,0,98.91,186v20.51a1.49,1.49,0,0,0,1.48,1.48h9.09c3,0,4.65-1.51,4.65-4.65Z" transform="translate(-6.95 -8)"/><path class="cls-6" d="M155.12,130.25A2,2,0,0,1,157,132.3v89.2a1.71,1.71,0,0,1-1.86,1.86H143.05a1.66,1.66,0,0,1-1.86-1.86V132.3a1.9,1.9,0,0,1,1.86-2.05Z" transform="translate(-6.95 -8)"/><path class="cls-6" d="M168.6,135.62a5.16,5.16,0,0,1,5.17-5.17h36.11a5.17,5.17,0,0,1,5.17,5.17v82.56a5.18,5.18,0,0,1-5.17,5.18H173.77a5.17,5.17,0,0,1-5.17-5.18Zm26.82,72.75c3,0,4.65-1.51,4.65-4.64V150.6a5.18,5.18,0,0,0-5.18-5.17h-5.67A5.18,5.18,0,0,0,184,150.6v53.13c0,3.13,1.63,4.64,4.65,4.64Z" transform="translate(-6.95 -8)"/></g></svg>