<svg id="Capa_1" data-name="Capa 1" xmlns="http://www.w3.org/2000/svg" viewBox="0 0 287 287"><defs><style>.cls-1{fill:#333;}.cls-2{fill:#fabf61;}</style></defs><title>Otros_Analisis</title><circle class="cls-1" cx="143.5" cy="143.5" r="143.5"/><g id="Otros_analisis" data-name="Otros analisis"><path class="cls-2" d="M229.86,132.49h-4.19a2.62,2.62,0,0,0-2.61,2.62v11.16a2.61,2.61,0,0,1-2.62,2.61H77.11a2.61,2.61,0,0,1-2.62-2.61V135.11a2.62,2.62,0,0,0-2.61-2.62H67.69a2.62,2.62,0,0,0-2.61,2.62v83a2.62,2.62,0,0,0,2.61,2.62H229.86a2.62,2.62,0,0,0,2.61-2.62v-83A2.62,2.62,0,0,0,229.86,132.49ZM220.44,211H77.11a2.61,2.61,0,0,1-2.62-2.61V161.27a2.62,2.62,0,0,1,2.62-2.62H87.92a2.62,2.62,0,0,1,2.62,2.62v40.8a2.61,2.61,0,0,0,2.61,2.61H113a2.62,2.62,0,0,0,2.62-2.61v-40.8a2.61,2.61,0,0,1,2.61-2.62H134a2.62,2.62,0,0,1,2.62,2.62v40.8a2.61,2.61,0,0,0,2.62,2.61h20.22a2.61,2.61,0,0,0,2.62-2.61v-40.8a2.61,2.61,0,0,1,2.61-2.62h15.7a2.61,2.61,0,0,1,2.61,2.62v40.8a2.62,2.62,0,0,0,2.62,2.61H205.8a2.61,2.61,0,0,0,2.61-2.61v-40.8a2.62,2.62,0,0,1,2.62-2.62h9.41a2.62,2.62,0,0,1,2.62,2.62v47.08A2.61,2.61,0,0,1,220.44,211Z" transform="translate(-6.95 -8)"/><path class="cls-2" d="M179.29,90.3h1.05A2.61,2.61,0,0,1,183,92.91v46.73a2.62,2.62,0,0,0,2.62,2.62H205.8a2.61,2.61,0,0,0,2.61-2.62V92.91A2.61,2.61,0,0,1,211,90.3h.69a2.62,2.62,0,0,0,2.62-2.62h0a2.61,2.61,0,0,0-2.62-2.61H179.29a2.61,2.61,0,0,0-2.61,2.61h0A2.61,2.61,0,0,0,179.29,90.3Zm11.29,0h10.21c1.13,0,2,.41,2,.92v11.06c0,.51-.91.92-2,.92H190.58c-1.13,0-2.05-.41-2.05-.92V91.22C188.53,90.71,189.45,90.3,190.58,90.3Z" transform="translate(-6.95 -8)"/><path class="cls-2" d="M132.91,90.3h1a2.61,2.61,0,0,1,2.62,2.61v46.73a2.62,2.62,0,0,0,2.62,2.62h20.22a2.62,2.62,0,0,0,2.62-2.62V92.91a2.61,2.61,0,0,1,2.61-2.61h1.05a2.62,2.62,0,0,0,2.62-2.62h0a2.62,2.62,0,0,0-2.62-2.61H132.91a2.62,2.62,0,0,0-2.62,2.61h0A2.62,2.62,0,0,0,132.91,90.3Zm11.28,0H154.4a2.15,2.15,0,0,1,2,2.24V130.1a2.16,2.16,0,0,1-2,2.24H144.19a2.16,2.16,0,0,1-2-2.24V92.54A2.15,2.15,0,0,1,144.19,90.3Z" transform="translate(-6.95 -8)"/><path class="cls-2" d="M86.87,90.3h1a2.61,2.61,0,0,1,2.62,2.61v46.73a2.61,2.61,0,0,0,2.61,2.62H113a2.62,2.62,0,0,0,2.62-2.62V92.91a2.61,2.61,0,0,1,2.61-2.61h1a2.61,2.61,0,0,0,2.61-2.62h0a2.61,2.61,0,0,0-2.61-2.61H86.87a2.62,2.62,0,0,0-2.61,2.61h0A2.61,2.61,0,0,0,86.87,90.3Zm11.51,0h9.07a2.62,2.62,0,0,1,2.62,2.61v14a2.62,2.62,0,0,1-2.62,2.62H98.38a2.61,2.61,0,0,1-2.61-2.62v-14A2.61,2.61,0,0,1,98.38,90.3Z" transform="translate(-6.95 -8)"/></g></svg>