<svg id="Capa_1" data-name="Capa 1" xmlns="http://www.w3.org/2000/svg" viewBox="0 0 287 287"><defs><style>.cls-1{fill:#333;}.cls-2{fill:#fabf61;}</style></defs><title>Nueva_Plantacion</title><circle class="cls-1" cx="143.5" cy="143.5" r="143.5"/><g id="Nueva_Plantacion" data-name="Nueva Plantacion"><path class="cls-2" d="M215.8,190.8c.39-8.87.68-20.26.79-33a1.52,1.52,0,0,1,1-1.4A25.93,25.93,0,0,0,230.94,145c3.83-7.05,3.81-15.92,3.58-19.8a1.5,1.5,0,0,0-2.06-1.3,25.88,25.88,0,0,0-13,11.25l0,.08a1.49,1.49,0,0,1-2.81-.67c0-1.48,0-2.94,0-4.37a1.48,1.48,0,0,1,1-1.42,26,26,0,0,0,13.41-11.42c3.83-7,3.81-15.92,3.58-19.8a1.5,1.5,0,0,0-2.06-1.3,25.88,25.88,0,0,0-13,11.25c-.18.34-.36.69-.52,1a1.51,1.51,0,0,1-2.85-.63c0-1.07-.07-2.11-.11-3.13a1.47,1.47,0,0,1,.77-1.36c2.43-1.34,9.44-5.79,12.87-14.07a32.35,32.35,0,0,0,2.21-9.86,47.28,47.28,0,0,0-.4-10.17,1.5,1.5,0,0,0-2.28-1,31.54,31.54,0,0,0-5.27,4.06,27.45,27.45,0,0,0-6.57,9.4c-.21.51-.38,1-.56,1.54-.08.26-.17.51-.25.77a1.54,1.54,0,0,1-2.35.87.56.56,0,0,0-.4-.12.66.66,0,0,0-.44.11A1.51,1.51,0,0,1,211,84l-.06-.18c-.24-.74-.51-1.48-.83-2.21a29.61,29.61,0,0,0-12-13.3,1.5,1.5,0,0,0-2.25,1.1c-.53,3.91-1.13,12.5,2.1,20a29.91,29.91,0,0,0,12.81,13.73,1.48,1.48,0,0,1,.78,1.36c0,1.09-.08,2.22-.12,3.37a1.5,1.5,0,0,1-2.84.63c-.17-.35-.34-.69-.53-1a25.83,25.83,0,0,0-13-11.25,1.5,1.5,0,0,0-2.06,1.3c-.24,3.88-.26,12.75,3.57,19.8A26,26,0,0,0,210,128.72a1.5,1.5,0,0,1,1,1.42c0,1.44,0,2.9,0,4.38a1.49,1.49,0,0,1-2.81.67l0-.08a25.83,25.83,0,0,0-13-11.25,1.49,1.49,0,0,0-2.06,1.3c-.24,3.88-.26,12.75,3.57,19.8a26,26,0,0,0,13.38,11.4,1.5,1.5,0,0,1,1,1.4c.11,12.82.4,24.26.8,33.14a1.5,1.5,0,0,1-1.38,1.56A39.1,39.1,0,0,0,183,207.89a1.49,1.49,0,0,1-2.39,0,39.12,39.12,0,0,0-28-15.49,1.51,1.51,0,0,1-1.4-1.57c.4-8.86.68-20.27.79-33.07a1.52,1.52,0,0,1,1-1.4A26,26,0,0,0,166.33,145c3.83-7.05,3.81-15.92,3.57-19.8a1.49,1.49,0,0,0-2.06-1.3,25.87,25.87,0,0,0-13,11.25l0,.08a1.49,1.49,0,0,1-2.82-.68c0-1.47,0-2.93,0-4.36a1.48,1.48,0,0,1,1-1.42,26,26,0,0,0,13.42-11.42c3.83-7,3.81-15.92,3.57-19.8a1.5,1.5,0,0,0-2.06-1.3,25.87,25.87,0,0,0-13,11.25c-.19.34-.36.69-.53,1a1.5,1.5,0,0,1-2.84-.63c0-1.07-.08-2.12-.12-3.13a1.49,1.49,0,0,1,.77-1.36c2.43-1.34,9.45-5.79,12.88-14.07a32.35,32.35,0,0,0,2.21-9.86,47.82,47.82,0,0,0-.41-10.17,1.5,1.5,0,0,0-2.28-1,32.38,32.38,0,0,0-5.27,4.06,27.45,27.45,0,0,0-6.57,9.4c-.21.51-.38,1-.55,1.54-.09.26-.17.51-.25.77a1.55,1.55,0,0,1-2.36.87.56.56,0,0,0-.4-.12.63.63,0,0,0-.43.11,1.5,1.5,0,0,1-2.28-.87l-.06-.18c-.25-.74-.52-1.48-.83-2.21a29.67,29.67,0,0,0-12.06-13.3,1.5,1.5,0,0,0-2.25,1.1c-.52,3.91-1.13,12.5,2.1,20a29.91,29.91,0,0,0,12.81,13.73,1.48,1.48,0,0,1,.78,1.36c0,1.09-.08,2.22-.11,3.37a1.51,1.51,0,0,1-2.85.63c-.17-.35-.34-.69-.52-1a25.88,25.88,0,0,0-13-11.25,1.5,1.5,0,0,0-2.06,1.3c-.23,3.88-.25,12.75,3.58,19.8a26,26,0,0,0,13.4,11.41,1.53,1.53,0,0,1,1,1.42c0,1.44,0,2.9,0,4.38a1.49,1.49,0,0,1-2.81.67l0-.08a25.88,25.88,0,0,0-13-11.25,1.49,1.49,0,0,0-2.06,1.3c-.23,3.87-.25,12.75,3.58,19.8a25.92,25.92,0,0,0,13.37,11.4,1.5,1.5,0,0,1,1,1.4c.11,12.82.4,24.25.8,33.13a1.51,1.51,0,0,1-1.38,1.56,39.13,39.13,0,0,0-27.49,15.44,1.49,1.49,0,0,1-2.39,0A39.1,39.1,0,0,0,88,192.41a1.52,1.52,0,0,1-1.41-1.56c.4-8.87.69-20.29.8-33.09a1.52,1.52,0,0,1,1-1.4A25.93,25.93,0,0,0,101.71,145c3.83-7.05,3.81-15.92,3.58-19.8a1.5,1.5,0,0,0-2.06-1.3,25.83,25.83,0,0,0-13,11.25l0,.08a1.49,1.49,0,0,1-2.81-.67c0-1.48,0-2.94,0-4.37a1.48,1.48,0,0,1,1-1.42,26,26,0,0,0,13.41-11.42c3.83-7,3.81-15.92,3.58-19.8a1.5,1.5,0,0,0-2.06-1.3,25.83,25.83,0,0,0-13,11.25c-.19.34-.37.69-.53,1a1.51,1.51,0,0,1-2.85-.63c0-1.07-.07-2.11-.11-3.13a1.47,1.47,0,0,1,.77-1.36C89.94,102,97,97.59,100.38,89.31a32.35,32.35,0,0,0,2.21-9.86,47.28,47.28,0,0,0-.4-10.17,1.5,1.5,0,0,0-2.28-1,31.54,31.54,0,0,0-5.27,4.06,27.45,27.45,0,0,0-6.57,9.4c-.21.51-.38,1-.56,1.54-.08.26-.17.51-.25.77a1.54,1.54,0,0,1-2.35.87.56.56,0,0,0-.4-.12.66.66,0,0,0-.44.11A1.5,1.5,0,0,1,81.79,84l-.06-.18c-.24-.74-.51-1.48-.83-2.21A29.61,29.61,0,0,0,68.85,68.3a1.5,1.5,0,0,0-2.25,1.1c-.53,3.91-1.13,12.5,2.1,20a29.91,29.91,0,0,0,12.81,13.73,1.48,1.48,0,0,1,.78,1.36c0,1.09-.08,2.22-.12,3.37a1.5,1.5,0,0,1-2.84.63c-.17-.35-.34-.69-.53-1a25.83,25.83,0,0,0-13-11.25,1.5,1.5,0,0,0-2.06,1.3c-.24,3.88-.26,12.75,3.57,19.8a26,26,0,0,0,13.41,11.41,1.5,1.5,0,0,1,1,1.42c0,1.44,0,2.9,0,4.38a1.49,1.49,0,0,1-2.81.67l0-.08a25.83,25.83,0,0,0-13-11.25,1.49,1.49,0,0,0-2.06,1.3c-.24,3.88-.26,12.75,3.57,19.8a26,26,0,0,0,13.38,11.4,1.5,1.5,0,0,1,1,1.4c.11,12.8.4,24.21.8,33.08a1.51,1.51,0,0,1-1.4,1.56A38.86,38.86,0,0,0,47.7,219a1.52,1.52,0,0,0,1.44,2H249.63a1.52,1.52,0,0,0,1.43-2,38.84,38.84,0,0,0-33.85-26.65A1.5,1.5,0,0,1,215.8,190.8Z" transform="translate(-6.95 -8)"/><ellipse class="cls-2" cx="77.56" cy="79.68" rx="2.03" ry="12.67"/><ellipse class="cls-2" cx="141.94" cy="79.68" rx="1.52" ry="12.67"/><ellipse class="cls-2" cx="206.83" cy="79.68" rx="1.52" ry="12.67"/></g></svg>