<svg xmlns="http://www.w3.org/2000/svg" viewBox="0 0 287 287"><defs><style>.cls-1{fill:#333;}.cls-2{fill:#fabf61;}</style></defs><title>Recurso 3</title><g id="Capa_2" data-name="Capa 2"><g id="Capa_1-2" data-name="Capa 1"><circle class="cls-1" cx="143.5" cy="143.5" r="143.5"/><g id="Sin_Plasticos" data-name="Sin Plasticos"><path class="cls-2" d="M187.34,104.67C185,95.28,179.49,87,171.05,80c-1.4-1.15-2.82-2.27-4.19-3.35-1-.77-2-1.54-2.92-2.32h0V72.45h0a4.48,4.48,0,0,0,2.36-3.94v-20a3.78,3.78,0,0,0-.05-.67c-.5-2.93-2.44-7.84-10.2-7.84H156l-15.26.1L129,40.17c-5.51,0-9.45,3.77-9.57,9.1,0,1.64,0,3.28-.06,4.91s0,3.11-.06,4.66v9.54a4.49,4.49,0,0,0,2.49,4h0v1.73h0a6.54,6.54,0,0,1-2,1.89,58.91,58.91,0,0,0-14.3,13.61C99.38,98,96.34,108,96.25,120c-.08,11.53-.06,23.25,0,34.58V167c0,5.85,0,13.56.07,21.37v7.31c0,6.77,0,13.77.28,20.69a32.52,32.52,0,0,0,3.79,14.34c5.42,10,12.72,12,17.57,12a21.13,21.13,0,0,0,4.34-.47,53.82,53.82,0,0,0,6.59-2h0a18.57,18.57,0,0,0,13.87,5.9h.06a18.33,18.33,0,0,0,13.94-6h.05a22.77,22.77,0,0,0,10.24,2.47h0a19.49,19.49,0,0,0,16.85-9.48c3.69-6,5.49-12.78,5.5-20.79V163.25c0-17.76,0-23.08.07-41.94A67.73,67.73,0,0,0,187.34,104.67Zm-82.16,65.78V130.81m75.33,0v39.64M128.3,54.27c0-1.59,0-3.19.06-4.79a1,1,0,0,1,0-.25,1.54,1.54,0,0,1,.64-.1l11.7-.07L156.05,49a6.28,6.28,0,0,1,1.3.11V64.45a4.22,4.22,0,0,0-1-.13H128.23V59C128.27,57.42,128.28,55.85,128.3,54.27ZM112.76,94.89a49.85,49.85,0,0,1,12.18-11.54c2-1.38,4.77-3.65,5.69-7.38a4.2,4.2,0,0,0,.11-1V73.32m0,0h24.1c0,.89,0,1.79.06,2.69a6.71,6.71,0,0,0,2.57,4.69c1.24,1,2.51,2,3.73,3s2.72,2.14,4,3.22c7.06,5.82,11.42,12.35,13.33,20a58.63,58.63,0,0,1,1.84,14.44c0,.19.16-10.58.16-10.39H105.41v4.36c0-.59-.21,5.36-.21,4.77.08-10,2.55-18.33,7.56-25.16Zm45.49,155.07a10.44,10.44,0,0,1-9.24,5.24h0a13.89,13.89,0,0,1-6.1-1.48c-.48-.24-.95-.46-1.43-.66h0v-7.71a4.63,4.63,0,0,0-4.07-4.69,4.48,4.48,0,0,0-4.86,4.06c0,.13,0,.27,0,.4v10.17h0a9.55,9.55,0,0,1-7.63,3.47h0v0h0a10.06,10.06,0,0,1-8.66-4.75c-.06-.09-.13-.16-.19-.24v-8.45a4.63,4.63,0,0,0-4.07-4.69,4.47,4.47,0,0,0-4.86,4c0,.14,0,.28,0,.42v8.56a0,0,0,0,1,0,0,37.17,37.17,0,0,1-4.49,1.31,11.5,11.5,0,0,1-2.48.28c-2.27,0-5.83-.64-9.36-6.68a23.27,23.27,0,0,1-3-10.89c-.25-6.82-.26-13.79-.28-20.53V179.45h0l72.15,2.39s4.39,3.14,4.36-2.18c-.06-11-1.3,21.74-1.31,32.69A29.87,29.87,0,0,1,176.28,228.39Z"/></g><path class="cls-2" d="M143.36,281.3A137.2,137.2,0,0,0,240.69,241h0a137.67,137.67,0,1,0-97.33,40.31ZM236.1,50.87a131.15,131.15,0,0,1,4.72,180.53h0a3.39,3.39,0,0,1-4.79.24l-.14-.14L55.44,51.16a3.41,3.41,0,0,1,0-4.83l.11-.1.06,0A131.14,131.14,0,0,1,236.1,50.87ZM136.16,141l95.08,95.1a3.43,3.43,0,0,1,0,4.86l-.14.13A131.14,131.14,0,0,1,45.88,55.9a3.43,3.43,0,0,1,4.84-.32,1.29,1.29,0,0,1,.17.16l85.58,85"/><path class="cls-2" d="M143.55,281.8h-.19a137.28,137.28,0,0,1-97.71-40.48c-53.86-53.88-53.86-141.53,0-195.4s141.53-53.85,195.4,0,53.86,141.54,0,195.4A138.63,138.63,0,0,1,143.55,281.8ZM143.36,6.53a137.14,137.14,0,1,0,0,274.27h.19a137.6,137.6,0,0,0,96.79-40.17c53.49-53.47,53.5-140.49,0-194A136.72,136.72,0,0,0,143.36,6.53Zm.06,268.84q-3.46,0-6.94-.18a131.64,131.64,0,0,1-91-219.62,3.92,3.92,0,0,1,5.54-.36,1.54,1.54,0,0,1,.19.17l85.59,85-.32.32,95.09,95.1a3.94,3.94,0,0,1,0,5.56l-.17.15A130.62,130.62,0,0,1,143.42,275.37Zm-95-220.14a3,3,0,0,0-2.21,1,130.64,130.64,0,0,0,184.5,184.51l.13-.12a2.94,2.94,0,0,0,0-4.15l-95.09-95.1.32-.31-85.58-85L50.39,56A2.89,2.89,0,0,0,48.46,55.23ZM238.3,233a3.88,3.88,0,0,1-2.61-1,1.21,1.21,0,0,1-.16-.16L55.08,51.51a3.85,3.85,0,0,1-1.15-2.76A3.9,3.9,0,0,1,55.07,46l.12-.12a131.61,131.61,0,0,1,181.26,4.66h0a131.6,131.6,0,0,1,4.74,181.21A3.82,3.82,0,0,1,238.5,233ZM143.36,13a130.21,130.21,0,0,0-87.43,33.6l-.15.13a2.93,2.93,0,0,0-.85,2.07,2.9,2.9,0,0,0,.86,2.06L236.36,231.27a2.91,2.91,0,0,0,2.09.74,2.86,2.86,0,0,0,2-.95,130.59,130.59,0,0,0-4.71-179.83h0A130.27,130.27,0,0,0,143.36,13Z"/></g></g></svg>