<svg id="Capa_1" data-name="Capa 1" xmlns="http://www.w3.org/2000/svg" viewBox="0 0 287 287"><defs><style>.cls-1{fill:#333;}.cls-2{fill:#edb65f;}</style></defs><title>Energia_Renovable</title><circle class="cls-1" cx="143.5" cy="143.5" r="143.5"/><g id="Renovable"><path class="cls-2" d="M129.25,232.83l9.85-68.1c.88-6.1,5.15-10.54,10.14-10.54h0c5,0,9.26,4.45,10.13,10.56l9.76,68.1c1.12,7.84-3.73,15-10.14,15h-19.6C133,247.89,128.12,240.68,129.25,232.83Z" transform="translate(-6.95 -8)"/><rect class="cls-2" x="94.9" y="225.67" width="94.68" height="17.33" rx="8.67" ry="8.67"/><path class="cls-2" d="M134.54,152.18h0l.11,0a21.44,21.44,0,0,1-6.6-23.36,18.17,18.17,0,0,0-2.4.71c-7.44,2.77-63.78,22.61-64.35,22.81l-.29.12a5.55,5.55,0,0,0-2.8,6.43h0a5.53,5.53,0,0,0,5.5,4.34c.1,0,.2,0,.3,0,.6-.09,59.61-9.26,67.48-10.31A20.7,20.7,0,0,0,134.54,152.18Z" transform="translate(-6.95 -8)"/><path class="cls-2" d="M174.44,46.42h0a5.69,5.69,0,0,0-3.32,0A5.55,5.55,0,0,0,167.93,49c-.05.1-.09.19-.13.29-.22.56-21.79,56.25-24.81,63.59a17.64,17.64,0,0,0-.69,2,21.47,21.47,0,0,1,23.16,7.27,18.39,18.39,0,0,0,.68-2.7c1.32-7.83,12.31-66.55,12.42-67.14a2.91,2.91,0,0,0,0-.31A5.54,5.54,0,0,0,174.44,46.42Z" transform="translate(-6.95 -8)"/><path class="cls-2" d="M236,167.15h0a5.71,5.71,0,0,0,.28-3.3,5.6,5.6,0,0,0-2.31-3.41l-.28-.15c-.54-.26-54.18-26.5-61.24-30.14a17.18,17.18,0,0,0-2-.86,21.49,21.49,0,0,1-9.22,22.45,17.74,17.74,0,0,0,2.63.91c7.69,2,65.26,17.94,65.84,18.1l.3.07A5.55,5.55,0,0,0,236,167.15Z" transform="translate(-6.95 -8)"/><path class="cls-2" d="M144.31,146.71a12.83,12.83,0,1,0-7.79-16.38A12.83,12.83,0,0,0,144.31,146.71Z" transform="translate(-6.95 -8)"/></g></svg>