<svg id="Capa_1" data-name="Capa 1" xmlns="http://www.w3.org/2000/svg" viewBox="0 0 287 287"><defs><style>.cls-1,.cls-3,.cls-4{fill:#333;}.cls-2{fill:#edb65f;}.cls-3{stroke:#333;}.cls-3,.cls-4{stroke-linecap:round;stroke-miterlimit:10;stroke-width:10px;}.cls-4{stroke:#303030;}</style></defs><title>Sin_Pesticidas</title><circle class="cls-1" cx="143.5" cy="143.5" r="143.5"/><g id="Pesticidas"><path class="cls-2" d="M134.28,84.19A7.37,7.37,0,0,0,142,89.63a16.48,16.48,0,0,0,3.36,4.87,17.36,17.36,0,0,0,1.92,1.64,13.15,13.15,0,0,0,10.33,15.3,15.63,15.63,0,0,1,9.9,6.67,23.36,23.36,0,0,0,35.94,3.56l.07-.06a20.13,20.13,0,0,1,12.72-6,21.38,21.38,0,0,0,8.67-40,13.15,13.15,0,0,1-6.69-9,20.46,20.46,0,0,0-34.57-10.67v0a1.92,1.92,0,0,1-2.43.22,18.11,18.11,0,0,0-26,6.36,14.71,14.71,0,0,1-6,5.91A16.46,16.46,0,0,0,142.57,75a7.32,7.32,0,0,0-6.38,2,7.42,7.42,0,0,0-1.91,3.31" transform="translate(-6.95 -8)"/><path class="cls-2" d="M123.76,144.26m30.29-21.19a16.33,16.33,0,0,0-16-13.33H104.83A16.3,16.3,0,0,0,88.58,126V238.27A14.5,14.5,0,0,0,103,252.73h35a16.32,16.32,0,0,0,16-13.33" transform="translate(-6.95 -8)"/><rect class="cls-2" x="95.21" y="88.52" width="38.57" height="9.86" rx="4.37" ry="4.37"/><rect class="cls-2" x="105.94" y="62.72" width="17.13" height="22.1" rx="7" ry="7"/><line class="cls-3" x1="99.66" y1="183.47" x2="129.6" y2="144.11"/><line class="cls-4" x1="129.52" y1="183.53" x2="99.74" y2="144.05"/></g></svg>