<svg id="Capa_1" data-name="Capa 1" xmlns="http://www.w3.org/2000/svg" viewBox="0 0 287 287"><defs><style>.cls-1,.cls-3{fill:#333;}.cls-2{fill:#fabf61;}.cls-3{stroke:#333;stroke-miterlimit:10;stroke-width:5px;}.cls-4{fill:#fabf62;}</style></defs><title>Pequeño_Farmer</title><circle class="cls-1" cx="143.5" cy="143.5" r="143.5"/><g id="Pequeño_Farmer" data-name="Pequeño Farmer"><polygon class="cls-2" points="124.87 98.73 124.87 53.78 150.66 40.29 179.58 52.07 177.47 112.53 126.58 106.39 124.87 98.73"/><path class="cls-2" d="M185.66,117.74h-1a2.1,2.1,0,0,1-2.09-2.09V63.85A2.1,2.1,0,0,0,181.42,62l-22-11.2a2.06,2.06,0,0,0-1.9,0l-22,11.2a2.1,2.1,0,0,0-1.14,1.86v51.8a2.09,2.09,0,0,1-2.08,2.09h-1a2.09,2.09,0,0,1-2.08-2.09v-55a2.1,2.1,0,0,1,1.14-1.86L157.49,45a2.06,2.06,0,0,1,1.9,0l27.22,13.84a2.12,2.12,0,0,1,1.14,1.93l-.67,58.74C187.08,120.57,186.82,117.74,185.66,117.74Z" transform="translate(-6.95 -8)"/><path class="cls-2" d="M124.37,64.64l-.44-.9a2.09,2.09,0,0,1,.95-2.8l32.64-16a2.05,2.05,0,0,1,1.84,0l32.63,16a2.09,2.09,0,0,1,1,2.8l-.44.9a2.09,2.09,0,0,1-2.8,1L159.36,50.73a2.12,2.12,0,0,0-1.84,0L127.17,65.6A2.09,2.09,0,0,1,124.37,64.64Z" transform="translate(-6.95 -8)"/><path class="cls-1" d="M170,91.19H146.91a2.1,2.1,0,0,1-2.09-2.09V66A2.09,2.09,0,0,1,146.91,64H170A2.08,2.08,0,0,1,172.05,66V89.1A2.09,2.09,0,0,1,170,91.19ZM152.1,86h12.68a2.1,2.1,0,0,0,2.09-2.09V71.23a2.1,2.1,0,0,0-2.09-2.09H152.1A2.09,2.09,0,0,0,150,71.23V83.91A2.09,2.09,0,0,0,152.1,86Z" transform="translate(-6.95 -8)"/><path class="cls-3" d="M106.78,211.09c4.72,4.72,20.84,27.1,25,32.28,5.24,6.48,23.8,8.84,23.8,6.48s43.23-43.47,47.95-50.55,14.33-12.42,14.33-19.49,4.16-7.34,1.8-12.06-4.65-14.54-8-18.35-8.61-14.8-11-17.15c-5-5-21.57-11.65-23.93-16.36s-49.35-1.88-53.1-1-8.39,6.26-15.47,11S93.65,143.54,96,148.25s-1,20.41-1,27.48V204Z" transform="translate(-6.95 -8)"/><path class="cls-4" d="M156.35,104.24a75.82,75.82,0,1,0,69.4,69.38A75.9,75.9,0,0,0,156.35,104.24Zm-18.11,11.33a2.16,2.16,0,0,1,1.47-1,65.74,65.74,0,0,1,10.47-.85c1.16,0,2.32,0,3.46.1a4.88,4.88,0,0,1,1.08.18c7.74,2.38,13.32,10.85,9.14,13.63a6,6,0,0,1-8.46-2c-1.28-2-1.4-3.68-2.82-5.1-4.88-4.88-15.45-2.14-15.52-3.15S138.24,115.57,138.24,115.57Zm9.34,128.81c-1.18,1.75-3.34,6.72-8.33,5.18-.76-.23-3.16-1.54-.31-6.2,5.43-8.86,8.5-24.37,2.57-30-6.51-6.18-10.48-13.48-6.51-15,2.4-.9,3.53-1.83,4-3.83.21-2.41.09-5.41-1.42-7-4.69-5-8.46-4.45-14.32-6.07s-9.92-2.09-13.77-6.51-6.56-9.3-7.38-19.21c-.87-10.38,1.66-14.13,4.75-19.23,1.72-2.84,3.85-7,5.39-10.16a3.86,3.86,0,0,1,1.33-1.53,66,66,0,0,1,10.63-5.76,3.11,3.11,0,0,1,4.33,2.47A22.85,22.85,0,0,0,133.37,133c3.12,3.56,5.86-3,8.15-5.24s3.9,5.85,9.11,5.52,11.06.65,7.81,5.86-8.1,2.08-10.42,9.44-8.14,15.95-14.65,13.67-9.52.84-9.89,4.65c-.5,5.09,10.89,8.32,15.52,12.82a18.71,18.71,0,0,1,3.2,4.11.89.89,0,0,0,1.15.39,18.65,18.65,0,0,1,4.52-1.43c4.55-.6,10.66.63,14.15,2.9,6,3.89,5.2,7.81,7.81,11.06s5.07-.9,12,0,5.21,11.07.65,18.56-14.32,10.74-20.18,14c-4.49,2.5-12.21,11.85-15.58,16.1m62.45-66.87c-6.83-1.63-10.09-5.86-12.69-13.67s6.83-20.18,1.63-25.07-9.44-1.3-11.07-7.48a13.69,13.69,0,0,0-3.1-5.61,1.56,1.56,0,0,1,1.54-2.54l.37.09A66.6,66.6,0,0,1,207.48,147a.83.83,0,0,1,.07.13c2.93,7.22,5.74,15.27,7.6,20.79l0,.14a66.06,66.06,0,0,1,1,8.39.93.93,0,0,1-.24.68C214.75,178.33,212.71,179.37,209.21,178.54Z" transform="translate(-6.95 -8)"/><rect class="cls-2" x="94.01" y="83.81" width="1.89" height="19.84"/><rect class="cls-2" x="88.72" y="103.65" width="12.57" height="1.61"/><path class="cls-2" d="M97,113.85h9.86s-.8,9.61-4.89,9.72S97,113.85,97,113.85Z" transform="translate(-6.95 -8)"/><path class="cls-2" d="M124.12,86.68a5.16,5.16,0,0,0-5.31-5h-8.23a4.92,4.92,0,0,0-5,5l-.9,12.19a1.64,1.64,0,0,0,1.78,1.7,1.72,1.72,0,0,0,1.46-1.78l1-10.86c0-.25.24-.54.51-.48a.53.53,0,0,1,.34.51s-.27,9.06-.27,9.06l-.4,19.55a2,2,0,0,0,2,2.14,2.08,2.08,0,0,0,2-2.14l1.12-16.17a.47.47,0,0,1,.47-.41.46.46,0,0,1,.46.41l1.12,16.17a2.09,2.09,0,0,0,2,2.14,2,2,0,0,0,2-2.14L119.91,97s-.27-9-.27-9.06a.53.53,0,0,1,.35-.51c.26-.06.5.23.5.48l1,10.86a1.71,1.71,0,0,0,1.45,1.78,1.65,1.65,0,0,0,1.79-1.7Z" transform="translate(-6.95 -8)"/><path class="cls-2" d="M110.26,76.54a4.44,4.44,0,0,0,8.87,0Z" transform="translate(-6.95 -8)"/><path class="cls-2" d="M119.23,73.52s-.06-6.23-4.6-6.23-4.55,6.45-4.55,6.45h-4.33v1.68h18V73.74h-4.49s0-6.45-4.55-6.45-4.58,6.29-4.58,6.29" transform="translate(-6.95 -8)"/><path class="cls-2" d="M115.65,85.52" transform="translate(-6.95 -8)"/></g></svg>