<svg id="Capa_1" data-name="Capa 1" xmlns="http://www.w3.org/2000/svg" viewBox="0 0 287 287"><defs><style>.cls-1{fill:#333;}.cls-2{fill:#edb65f;}</style></defs><title>Acepta_Visitas</title><circle class="cls-1" cx="143.5" cy="143.5" r="143.5"/><g id="Visitas"><path class="cls-2" d="M218.15,132.46a27.24,27.24,0,0,1,29.36,24.76l4.82,56a2.45,2.45,0,0,1-2.44,2.67H200.46a2.47,2.47,0,0,1-2.45-2.24l-.64-7.22a3.43,3.43,0,0,0-5.45-2.46,67.47,67.47,0,0,1-33.65,12.24c-.13,0-.25,0-.39,0a19,19,0,0,0-.17-22.09c18.57-2.14,32.8-14.41,35.67-34.91C196,140.87,206.16,134.08,218.15,132.46Z" transform="translate(-6.95 -8)"/><path class="cls-2" d="M209.63,127.43a24.76,24.76,0,1,0-26.83-22.51A24.77,24.77,0,0,0,209.63,127.43Z" transform="translate(-6.95 -8)"/><path class="cls-2" d="M143.15,194.39c-19.38-1.7-34.44-14.25-37.1-35.56-1.69-13.54-10.8-25.16-24.7-26.37A26.88,26.88,0,0,0,52,156.82l-5.38,56.41a2.45,2.45,0,0,0,2.44,2.69H98a3.44,3.44,0,0,0,3.43-3.19l.07-1.1a3.44,3.44,0,0,0-1.34-3,61.54,61.54,0,0,1-18.36-23.21,3.43,3.43,0,0,1,1.92-4.63l1-.39A3.43,3.43,0,0,1,89,182.18c9.23,19.39,28.84,32.1,52.19,34.15a11,11,0,1,0,1.92-21.94Z" transform="translate(-6.95 -8)"/><path class="cls-2" d="M94.19,127.43a24.76,24.76,0,1,0-26.83-22.51A24.76,24.76,0,0,0,94.19,127.43Z" transform="translate(-6.95 -8)"/></g></svg>