<svg id="Capa_1" data-name="Capa 1" xmlns="http://www.w3.org/2000/svg" viewBox="0 0 287 287"><defs><style>.cls-1{fill:#333;}.cls-2,.cls-3,.cls-4{fill:#fabf61;}.cls-3{font-size:45px;}.cls-3,.cls-4{font-family:Montserrat-SemiBold, Montserrat;font-weight:700;}.cls-4{font-size:42.37px;}</style></defs><title>Menor_40</title><circle class="cls-1" cx="143.5" cy="143.5" r="143.5"/><g id="Menor_30" data-name="Menor 30"><path class="cls-2" d="M177.34,122.71c0-10.81-9.43-18.61-19.84-18.61H126.72c-10.4,0-18.81,7.8-18.81,18.61l-1.49,11.86c-.1,1.65-1.47.93-3.11.93H88c-2.44.29-6.71,1.07-6.75,5.45,0,5.05,4.07,6,7.3,6.32l25.95,1.35a3.14,3.14,0,0,0,3-2.94l.13-1.34,2.79-17c0-.91.91-2,1.89-1.79a2,2,0,0,1,1.3,1.9c0,.08-1,33.89-1,33.89l-1.48,73.12c0,4.46,3.21,8,7.43,8a7.8,7.8,0,0,0,7.63-8L140.37,174a1.76,1.76,0,0,1,3.49,0l4.19,60.46a7.8,7.8,0,0,0,7.63,8c4.22,0,7.43-3.54,7.43-8l-1.49-73.12s-1-33.81-1-33.89a2,2,0,0,1,1.3-1.9c1-.21,1.89.88,1.89,1.79L167.58,168c0,3.35,2.22,6.37,5.45,6.69a6.16,6.16,0,0,0,6.68-6.37Z" transform="translate(-6.95 -8)"/><path class="cls-2" d="M125.63,84.4c.14,8.22,7.52,16.31,16.58,16.31s16.44-8.09,16.58-16.31Z" transform="translate(-6.95 -8)"/><path class="cls-2" d="M159.06,72.91s-.22-23.28-17.19-23.28-17,24.13-17,24.13h-16.2V80h67.21V73.76H159S159,49.63,142,49.63s-17.14,23.53-17.14,23.53" transform="translate(-6.95 -8)"/><path class="cls-2" d="M145.67,111.17" transform="translate(-6.95 -8)"/><rect class="cls-2" x="81.6" y="109.15" width="7.46" height="78.17"/><rect class="cls-2" x="60.77" y="187.31" width="49.52" height="6.33"/><path class="cls-2" d="M72.9,204h38.87s-3.17,37.86-19.29,38.29S72.9,204,72.9,204Z" transform="translate(-6.95 -8)"/><text class="cls-3" transform="translate(188.76 193.19)">40</text><text class="cls-4" transform="translate(161.76 192.42)">&lt;</text></g></svg>