<?xml version="1.0" encoding="UTF-8"?>
<svg width="448px" height="440px" viewBox="0 0 448 440" version="1.1" xmlns="http://www.w3.org/2000/svg" xmlns:xlink="http://www.w3.org/1999/xlink">
    <title>Gasol 2</title>
    <g id="Landing-15Nov" stroke="none" stroke-width="1" fill="none" fill-rule="evenodd">
        <g id="08.FAQ" transform="translate(-160.000000, -144.000000)">
            <g id="Content" transform="translate(160.000000, 64.000000)">
                <g id="Gasol-2" transform="translate(0.000000, 80.000000)">
                    <rect id="Rectangle" x="0" y="0" width="448" height="440"></rect>
                    <path d="M444.6,257 L444.6,257 C444.6,257 470.2,124.7 322.7,94.2 C159.3,60.5 155,-2.1 67.3,38.4 C18,61.2 -31.3,151 32,271.5 C96.9,395.1 396.1,465.5 444.6,257 Z" id="Path" fill="#B2D3D0" fill-rule="nonzero"></path>
                    <path d="M210.6,55.1 C210.4,56.5 202.3,114.3 193.3,125.2 C193.3,125.2 188.1,133 182.3,135.6 L181.6,146 C181.6,146 181.9,148.3 186,150.1 C186,150.1 183.1,177.5 164.5,189.1 C164.5,189.1 143.9,203 128.9,179 C128.9,179 119.2,168.3 119.7,142.9 C119.7,142.9 127.1,145.2 129.2,138 C131.3,130.8 135.1,99.2 135.1,99.2 L141.3,56.8 C141.3,56.8 142.1,33 160,32.1 C177.8,31.1 213.7,34 210.6,55.1 Z" id="Path" fill="#F9D8D2" fill-rule="nonzero"></path>
                    <path d="M231.1,282.2 C231.1,282.2 252.9,337.4 307.5,323.6 C362.1,309.8 394,223.7 380.9,184.9 L329,219.7 C329,219.7 311.2,276 292.2,255.4 C269.9,231.1 245.9,173.1 245.9,173.1" id="Path" fill="#F9D8D2" fill-rule="nonzero"></path>
                    <path d="M151.2,192 C143.5,191.1 122.8,190.7 120.3,142.3 C120.3,142.3 94.6,140.2 68.9,146.6 C68.9,146.6 63.2,148.6 61.8,149.2 C61.1,149.5 54.6,221.6 48.1,295.6 C85.9,342 156.3,377.3 227.7,387 L245.8,166.9 C245.8,166.9 213.1,151.2 185.6,148.2 C185.7,148.2 178.7,195.2 151.2,192 Z" id="Path" fill="#5D9E9B" fill-rule="nonzero"></path>
                    <path d="M138.9,62.8 C138.9,62.8 128.6,60.1 125.2,64.7 C121.8,69.3 122.2,75.3 125.7,78.4 C129.2,81.5 138.7,81.7 138.7,81.7 L138.9,62.8 Z" id="Path" fill="#F9D8D2" fill-rule="nonzero"></path>
                    <polyline id="Path" stroke="#333333" stroke-width="1.2245" stroke-linecap="round" stroke-linejoin="round" points="186.5 64 186.5 88.3 177.5 86.8"></polyline>
                    <line x1="183.7" y1="85.2" x2="183.5" y2="87.8" id="Path" stroke="#333333" stroke-width="1.2245" stroke-linecap="round" stroke-linejoin="round"></line>
                    <line x1="180.5" y1="84.8" x2="180.3" y2="87.1" id="Path" stroke="#333333" stroke-width="1.2245" stroke-linecap="round" stroke-linejoin="round"></line>
                    <path d="M183.6,99.9 C183.6,99.9 182.7,103.8 180.4,103.7 C177.8,103.5 177.6,101.4 177.6,99.5" id="Path" stroke="#333333" stroke-width="1.2245" stroke-linecap="round" stroke-linejoin="round"></path>
                    <path d="M173,91.2 C170.5,92.6 156.5,101.2 156.5,101.2 L142.7,86.7 L147.3,66.8 L137.9,64.2 C137.9,64.2 132.8,99.6 136,109 C139.3,118.4 150.5,132.4 160,136.7 C160,136.7 178.6,146.6 191.5,128.8 C196.2,122.3 199.3,116.2 202.8,98.9 C206.3,81.7 211.2,55.6 211.2,55.6 L209,54.5 C209,54.5 203.4,99.1 197.7,109.2 L188.8,93.6 C188.8,93.6 187.6,91.2 183.5,90.7 C183.5,90.7 178.3,90 176.5,90 C175.7,90.1 174.6,90.3 173,91.2 Z M170.5,112.6 L175.3,96.2 L185.8,97.7 C185.8,97.7 183.2,113.6 183.2,114.1 L180,115.7 L180.6,107.3 L176.7,106.9 L174.5,114.9 L170.5,112.6 Z" id="Shape" fill="#87635C" fill-rule="nonzero"></path>
                    <path d="M204.4,63.8 L204.4,63 C204.4,62.3 203.9,61.8 203.3,61.7 L193.3,59.8 C192.6,59.7 191.8,60.2 191.7,60.9 L191.5,62.2 C191.4,63 191.9,63.7 192.7,63.8 L202.9,65.2 C203.7,65.2 204.4,64.6 204.4,63.8 Z" id="Path" fill="#87635C" fill-rule="nonzero"></path>
                    <path d="M181.3,59.1 L181.2,60.3 C181.2,61 180.6,61.5 179.9,61.5 L164.6,60.4 C164,60.4 163.5,59.9 163.4,59.3 L163.3,57.5 C163.2,56.7 163.9,56.1 164.7,56.2 L180.2,57.9 C180.9,57.8 181.4,58.4 181.3,59.1 Z" id="Path" fill="#87635C" fill-rule="nonzero"></path>
                    <path d="M147.3,66.7 L138,64.7 C138,64.7 136.9,52.7 134.9,49.3 C132.9,45.9 129.9,27.3 142.2,26.2 C142.2,26.2 148.3,27.1 151.7,20.2 C151.7,20.2 155.6,12.1 162.6,16.3 C162.6,16.3 164.7,8.2 171.6,8.7 C178.6,9.2 183.7,13.9 183.7,13.9 C183.7,13.9 189.1,7.9 192.6,10.2 C196.1,12.5 199.8,19.4 199.8,19.4 C199.8,19.4 200.9,12.2 204.4,12 C207.9,11.8 213.5,15 215.5,25.2 C215.5,25.2 223.7,25.8 223.2,34.9 C222.7,44 218.8,45.6 218.8,45.6 C218.8,45.6 222.1,52 217.7,54.6 C217.7,54.6 214.7,58.7 209.1,55.2 L209.8,51.1 C209.8,51.1 204.2,54.7 198.6,44.5 C198.6,44.5 191.7,53.3 183.5,44 C183.5,44 175.7,50.2 167.6,39.1 C167.6,39.1 165.7,46 158.6,40.5 C158.6,40.5 158.4,46.6 151.7,44.9 C151.6,44.8 149.3,61.5 147.3,66.7 Z" id="Path" fill="#87635C" fill-rule="nonzero"></path>
                    <path d="M173.7,8.8 C165.5,7.7 163.2,10.9 163.5,17.1 C163.8,23.4 166.7,27.4 168.9,27.5 C171.1,27.6 165.5,17.8 160.8,15.3 C156.1,12.8 153.3,17.3 151.5,22.7 C151.5,22.7 150.8,26.1 145,26.3 C139.3,26.5 129.9,31.7 133,42.4 C136.1,53.1 137.8,60.4 137.8,60.4" id="Path" stroke="#543B38" stroke-width="1.2245" stroke-linecap="round" stroke-linejoin="round"></path>
                    <path d="M211.4,56.3 C211.4,56.3 216.6,57.9 218.4,53.8 C220.2,49.7 219,47.9 217.7,46.5 C217.7,46.5 224.9,43.5 222.7,33.5 C222.7,33.5 221.7,25.4 215.8,26 C215.8,26 214.8,16 207.4,12.7 C200,9.4 198.5,24.3 199.1,27.1 C199.7,29.9 201.4,29.1 201.1,26.7 C200.8,24.3 199.9,20.6 197.4,16.3 C194.8,12 190,6.3 184.9,13 C179.8,19.7 182.3,22.8 183.2,23.2" id="Path" stroke="#543B38" stroke-width="1.2245" stroke-linecap="round" stroke-linejoin="round"></path>
                    <path d="M212.7,47.9 C212.7,47.9 208,54.9 203.8,50.9 C199.6,46.9 199,45.2 199,45.2 C199,45.2 193.5,50 189.8,48.7 C186,47.3 183.1,43.7 181.8,40.4 C180.5,37.1 181.2,33.8 183.2,36.6 C185.2,39.4 184.4,45.3 179.6,45.7 C174.8,46.1 169.7,44.1 167.8,39.2 C167.8,39.2 163.2,48.2 154.6,35.3 C154.6,35.3 160.8,42.8 156.7,44.7 C156.7,44.7 153.6,46.2 150.3,43.9 C150.3,43.9 152.5,56.2 146.8,66.6" id="Path" stroke="#543B38" stroke-width="1.2245" stroke-linecap="round" stroke-linejoin="round"></path>
                    <path d="M214.3,26.4 C214.3,26.4 206,28.8 205.8,40.4" id="Path" stroke="#543B38" stroke-width="1.2245" stroke-linecap="round" stroke-linejoin="round"></path>
                    <path d="M160.1,136.7 C160.1,136.7 171.2,142.6 182.2,137.1 L181.7,144.7 C175,149.1 162.6,153.8 150.2,141 C137,127.3 135.9,115.3 136.4,109.6 C139.9,119.1 150.8,132.5 160.1,136.7 Z" id="Path" fill="#EFC2BB" fill-rule="nonzero"></path>
                    <circle id="Oval" fill="#EAA42C" fill-rule="nonzero" cx="287.2" cy="338.6" r="23.9"></circle>
                    <line x1="315.5" y1="312.6" x2="302.6" y2="323.4" id="Path" stroke="#5D9E9B" stroke-width="1.1659" stroke-linecap="round"></line>
                    <path d="M308.9,318.2 C308.7,318.5 309.2,325.9 318.6,331 C318.6,331 321.1,332.5 320.9,329.9 C320.8,327.3 318.7,321.6 312.3,318.6 C311.7,318.3 309.7,317.5 309.7,317.5" id="Path" fill="#5D9E9B" fill-rule="nonzero"></path>
                    <circle id="Oval" cx="287.2" cy="338.6" r="23.9"></circle>
                    <g id="Group" transform="translate(310.000000, 72.000000)" fill-rule="nonzero">
                        <path d="M19.7,127.8 L53.8,133.6 C53.8,133.6 57.7,115.4 60.9,112.1 C65.8,107 101.7,95.8 104.5,61.9 C107.3,28 94,7.9 59.4,1.2 C40.4,-2.5 9.8,2.8 0.5,52.6 C0.3,53.7 1.1,54.8 2.2,55 L34.5,60.6 C34.5,60.6 36.8,33.7 56.1,37.5 C75.4,41.3 68.9,65.4 63.8,68.6 C56.3,73.4 50.7,78.2 40.5,83.9 C26.5,91.5 21.1,113.9 19.7,127.8 Z" id="Path" fill="#D89027"></path>
                        <path d="M28.8,129.8 L59.2,134.9 C60.3,135.1 61.3,134.4 61.5,133.4 C62.6,128.7 65.6,116.4 68.2,113.7 C73.1,108.6 109,97.4 111.8,63.5 C114.6,29.6 101.3,9.5 66.7,2.8 C47.7,-0.9 17.3,4.1 8.1,54 C7.9,55.1 8.6,56.1 9.7,56.3 L39.7,61.8 C40.8,62 41.9,61.3 42.1,60.1 C43.1,53.9 47.4,35.9 63.4,39 C82.7,42.8 76.2,66.9 71.1,70.1 C63.6,74.9 58,79.7 47.8,85.4 C34.5,92.7 28.9,113.5 27.2,127.5 C27,128.6 27.7,129.6 28.8,129.8 Z" id="Path" fill="#EAA42C"></path>
                    </g>
                    <path d="M324,233.7 L317.7,267.8 C317.5,268.9 318.2,269.9 319.3,270.1 L347.3,275.7 C348.2,275.9 349.2,275.4 349.5,274.5 L363.5,241.5 C364,240.3 363.3,239 362,238.8 L326.3,232.1 C325.3,231.9 324.2,232.6 324,233.7 Z" id="Path" fill="#D89027" fill-rule="nonzero"></path>
                    <path d="M331.4,232.1 L324.5,271.2 L357.2,278.1 C358.3,278.3 359.7,277.3 359.9,276.1 L365.2,239.2 L331.4,232.1 Z" id="Path" fill="#EAA42C" fill-rule="nonzero"></path>
                    <circle id="Oval" fill="#333333" fill-rule="nonzero" cx="171.3" cy="66" r="2.3"></circle>
                    <circle id="Oval" fill="#333333" fill-rule="nonzero" cx="198.5" cy="69.6" r="2.3"></circle>
                    <path d="M325,215.5 L314.2,213.4 C313,213.2 312.3,212 312.5,210.9 L318.9,178.3 C319.1,177.1 320.3,176.4 321.4,176.6 L332.2,178.7 C333.4,178.9 334.1,180.1 333.9,181.2 L327.5,213.8 C327.3,215 326.1,215.8 325,215.5 Z" id="Path" fill="#F9D8D2" fill-rule="nonzero"></path>
                    <path d="M236.3,162.7 C235.9,162.5 235.4,162.3 235,162.1 C216.3,262.1 224.6,292.7 231.2,302.1 C232.5,304 233.7,304.9 234.6,305.4 L234.7,303.7 C229.6,299.9 214.7,278.3 236.3,162.7 Z" id="Path" fill="#333333" fill-rule="nonzero"></path>
                    <path d="M192.9,149.3 C191.9,157.6 185.8,197 156.4,200.1 C144.5,201.4 134.8,198.8 127.7,192.3 C117.5,183.1 112.2,166.2 112,142 C111.5,142 111.1,142 110.6,142 C110.8,166.6 116.3,183.9 126.8,193.4 C133.1,199 141.1,201.9 150.8,201.9 C152.7,201.9 154.6,201.8 156.6,201.6 C186.9,198.3 193.3,158.4 194.4,149.6 C193.8,149.4 193.3,149.4 192.9,149.3 Z" id="Path" fill="#333333" fill-rule="nonzero"></path>
                    <path d="M59,263.6 L60.3,264.1 C74.2,227.1 72.8,162.2 72.2,145.8 C71.7,145.9 71.3,146 70.8,146.1 C71.5,162.8 72.7,227 59,263.6 Z" id="Path" fill="#333333" fill-rule="nonzero"></path>
                    <path d="M363.2,244.5 L329.7,237.9 C325.9,237.1 323.4,233.4 324.1,229.6 L333.9,179.6 C334.7,175.8 338.4,173.3 342.2,174 L375.7,180.6 C379.5,181.4 382,185.1 381.3,188.9 L371.5,238.9 C372.9,247.8 369.1,245.4 363.2,244.5 Z" id="Path" fill="#F9D8D2" fill-rule="nonzero"></path>
                    <rect id="Rectangle" fill="#333333" fill-rule="nonzero" transform="translate(340.587550, 224.827450) rotate(-78.685573) translate(-340.587550, -224.827450) " x="339.837523" y="209.626912" width="1.5000531" height="30.4010761"></rect>
                    <rect id="Rectangle" fill="#333333" fill-rule="nonzero" transform="translate(343.765730, 207.179410) rotate(-78.685573) translate(-343.765730, -207.179410) " x="343.015703" y="192.278883" width="1.5000531" height="29.8010549"></rect>
                    <rect id="Rectangle" fill="#333333" fill-rule="nonzero" transform="translate(347.116780, 190.669960) rotate(-78.685573) translate(-347.116780, -190.669960) " x="346.366753" y="175.619427" width="1.5000531" height="30.1010655"></rect>
                    <rect id="Rectangle" fill="#333333" fill-rule="nonzero" transform="translate(330.561120, 197.503830) rotate(-78.888967) translate(-330.561120, -197.503830) " x="312.062168" y="196.80387" width="36.9979044" height="1.39992071"></rect>
                    <path d="M310.9,341.7 C301.3,336.8 293.2,340.1 292.8,340.2 C287.6,342.2 284.4,347.1 283.5,354.2 C283.1,357.3 283.2,360.2 283.4,362.1 C283.8,362.2 284.2,362.2 284.6,362.3 C284.1,357.5 283.9,345 293.2,341.3 C293.3,341.3 301.4,338 310.7,342.9 C310.8,342.6 310.8,342.2 310.9,341.7 Z" id="Path" fill="#333333" fill-rule="nonzero"></path>
                    <path d="M304.1,321.6 L267.6,352.1 C267.7,352.2 267.8,352.3 267.8,352.5 C267.9,352.7 268.1,352.9 268.2,353.1 L304.8,322.5 C304.6,322.2 304.3,321.9 304.1,321.6 Z" id="Path" fill="#333333" fill-rule="nonzero"></path>
                    <path d="M286.7,314.7 C286.3,314.7 285.9,314.7 285.5,314.8 C286,319.1 287,333.7 276.8,335.6 C273.5,336.2 270.3,336.4 264,333.3 C263.9,333.7 263.8,334.1 263.8,334.5 C270.3,337.6 273.8,337.4 277.1,336.7 C288.1,334.6 287.2,319.4 286.7,314.7 Z" id="Path" fill="#333333" fill-rule="nonzero"></path>
                    <path d="M61.5,151 C19.2,162.2 8.9,227 8.9,227 C1,293.2 24.6,327.2 47.4,349.4 C101.8,402.4 211,396.7 211,396.7 L260.1,431.3 C261,432 262.3,431.9 263.2,431.1 L267.2,427.6 C268.2,426.7 268.3,425.2 267.3,424.2 L254.8,411.2 L279.9,428 C280.8,428.6 282,428.6 282.8,427.9 L288.2,423.2 C289.3,422.3 289.2,420.6 288,419.8 L264.4,403.2 L293.5,417.5 C294.7,418 296.1,417.6 296.8,416.5 L301.6,408.6 C302.4,407.3 301.8,405.6 300.4,405 L271.8,393.6 C295.2,388.4 300.4,372.1 301.5,366.6 C301.7,365.6 301,364.6 300,364.3 L292.1,362.5 C291.3,362.3 290.6,362.6 290.1,363.2 C270.1,387.7 253.1,368.6 251.4,355.7 C249.9,344.4 260.3,340.4 263.2,339.5 C263.7,339.4 264,339 264.2,338.5 L268.1,326 C268.5,324.7 267.5,323.4 266.2,323.4 C240.6,323.7 227.5,350.4 227.5,350.4 C227.5,350.4 124.6,350.9 83.1,289.4 C83.1,289.4 54.9,253.6 57.6,190.7 L61.5,151 Z" id="Path" fill="#F9D8D2" fill-rule="nonzero"></path>
                    <path d="M301.6,357.6 C286.1,342.4 274.3,324.3 271.8,320.4 C271.5,320.6 271.2,320.9 271,321.1 C272,322.7 274.4,326.4 277.9,331.2 C283.3,338.8 291.4,349.1 300.8,358.3 C301,358.2 301.1,358.1 301.3,358 L301.6,357.6 Z" id="Path" fill="#333333" fill-rule="nonzero"></path>
                </g>
            </g>
        </g>
    </g>
</svg>