<?xml version="1.0" encoding="UTF-8"?>
<svg width="201px" height="54px" viewBox="0 0 201 54" version="1.1" xmlns="http://www.w3.org/2000/svg" xmlns:xlink="http://www.w3.org/1999/xlink">
    <title>title</title>
    <g id="Landing-15Nov" stroke="none" stroke-width="1" fill="none" fill-rule="evenodd">
        <g id="Desktop-Copy" transform="translate(-159.000000, -119.000000)">
            <g id="title" transform="translate(160.000000, 120.000000)">
                <g id="Icono-mandarina">
                    <ellipse id="Oval" stroke="#EAA42C" stroke-width="0.748088756" fill="#EAA42C" transform="translate(22.324560, 30.652440) rotate(-83.471253) translate(-22.324560, -30.652440) " cx="22.32456" cy="30.65244" rx="18.7997174" ry="20.1996964"></ellipse>
                    <path d="M29.7,9.3 C21.6,-3.7 9,1.4 9,1.4 C9,1.4 14.8,14.4 29.7,9.3 Z" id="Path" stroke="#33807C" stroke-width="0.8036" fill="#33807C"></path>
                    <line x1="32.1" y1="4.3" x2="28" y2="14.1" id="Path" stroke="#33807C" stroke-width="0.8036"></line>
                </g>
                <path d="M58.184,37 L58.832,32.491 L61.586,32.491 L60.938,37 L64.097,37 L64.745,32.491 L67.148,32.491 L67.148,29.656 L65.177,29.656 L65.636,26.578 L67.931,26.578 L67.931,23.743 L66.068,23.743 L66.878,18.64 L63.773,18.64 L62.882,23.743 L60.155,23.743 L60.938,18.64 L57.752,18.64 L56.969,23.743 L54.539,23.743 L54.539,26.578 L56.564,26.578 L56.105,29.656 L53.729,29.656 L53.729,32.491 L55.7,32.491 L55.025,37 L58.184,37 Z M62.018,29.656 L59.264,29.656 L59.723,26.578 L62.477,26.578 L62.018,29.656 Z M74.816,37 L74.816,27.982 L77.813,27.982 L77.813,24.904 L74.816,24.904 L74.816,22.258 C74.816,21.07 75.491,20.449 76.49,20.449 C77.138,20.449 77.57,20.584 78.056,20.881 L79.271,18.208 C78.218,17.533 77.138,17.155 75.68,17.155 C72.899,17.155 71.144,18.937 71.144,21.988 L71.144,24.904 L69.092,24.904 L69.092,27.982 L71.144,27.982 L71.144,37 L74.816,37 Z M83.375,37 L83.375,30.709 C83.375,28.981 84.401,27.955 85.967,27.955 C86.615,27.955 87.128,28.063 87.587,28.252 L88.478,25.201 C87.857,24.823 87.182,24.634 86.345,24.634 C84.725,24.634 83.51,25.39 82.808,26.794 L82.079,24.904 L79.703,24.904 L79.703,37 L83.375,37 Z M94.202,37.27 C95.822,37.27 97.172,36.46 98.009,35.191 L98.765,37 L101.249,37 L101.249,24.904 L97.55,24.904 L97.55,31.303 C97.55,32.788 96.794,34.003 95.309,34.003 C94.094,34.003 93.581,33.22 93.581,32.005 L93.581,24.904 L89.909,24.904 L89.909,32.491 C89.909,35.407 91.34,37.27 94.202,37.27 Z M106.136,22.771 C107.486,22.771 108.269,21.88 108.269,20.746 C108.269,19.612 107.486,18.721 106.136,18.721 C104.786,18.721 104.003,19.612 104.003,20.746 C104.003,21.853 104.786,22.771 106.136,22.771 Z M107.972,37 L107.972,24.904 L104.3,24.904 L104.3,37 L107.972,37 Z M115.856,37.297 C117.314,37.297 118.502,36.919 119.717,36.19 L118.637,33.436 C118.016,33.814 117.449,33.976 116.828,33.976 C116.126,33.976 115.613,33.652 115.613,32.626 L115.613,27.982 L119.096,27.982 L119.096,24.904 L115.613,24.904 L115.613,21.097 L112.076,21.097 L111.914,24.904 L109.916,24.904 L109.916,27.793 L111.914,27.982 L111.914,33.139 C111.914,35.947 113.561,37.297 115.856,37.297 Z M123.254,22.771 C124.604,22.771 125.387,21.88 125.387,20.746 C125.387,19.612 124.604,18.721 123.254,18.721 C121.904,18.721 121.121,19.612 121.121,20.746 C121.121,21.853 121.904,22.771 123.254,22.771 Z M125.09,37 L125.09,24.904 L121.418,24.904 L121.418,37 L125.09,37 Z M131.813,37 L131.813,30.385 C131.813,29.062 132.488,27.82 133.919,27.82 C134.972,27.82 135.512,28.63 135.512,29.656 L135.512,37 L139.184,37 L139.184,30.385 C139.184,29.062 139.859,27.82 141.29,27.82 C142.262,27.82 142.883,28.495 142.883,29.656 L142.883,37 L146.555,37 L146.555,29.116 C146.555,26.308 145.097,24.553 142.532,24.553 C140.831,24.553 139.481,25.336 138.698,26.632 C138.05,25.309 136.781,24.553 135.08,24.553 C133.406,24.553 132.11,25.39 131.246,26.821 L130.517,24.904 L128.141,24.904 L128.141,37 L131.813,37 Z M153.143,42.94 L153.143,38.35 C153.143,37.486 153.116,36.622 153.089,35.812 C154.007,36.757 155.303,37.324 156.842,37.324 C160.136,37.324 162.458,34.678 162.458,30.871 C162.458,27.28 160.082,24.607 156.815,24.607 C155.006,24.607 153.521,25.417 152.549,26.794 L151.847,24.904 L149.471,24.904 L149.471,42.94 L153.143,42.94 Z M155.924,34.192 C154.196,34.192 152.981,32.896 152.981,30.925 C152.981,29.008 154.169,27.739 155.924,27.739 C157.625,27.739 158.732,29.008 158.732,30.952 C158.732,32.896 157.598,34.192 155.924,34.192 Z M167.912,37.27 C169.829,37.27 171.233,36.487 172.124,35.299 L172.799,37 L175.202,37 L175.202,29.305 C175.202,26.173 173.258,24.634 169.964,24.634 C168.263,24.634 166.562,25.066 164.672,25.957 L165.671,28.603 C166.805,28.063 168.182,27.631 169.316,27.631 C170.666,27.631 171.476,28.117 171.476,29.197 L171.476,29.683 C171.179,29.656 170.801,29.629 170.342,29.629 C166.589,29.629 164.186,31.114 164.186,33.895 C164.186,36.055 165.779,37.27 167.912,37.27 Z M169.127,34.759 C168.263,34.759 167.696,34.327 167.696,33.49 C167.696,32.329 168.749,31.708 170.423,31.708 C170.936,31.708 171.233,31.735 171.638,31.789 C171.584,33.733 170.477,34.759 169.127,34.759 Z M183.761,37.378 C185.867,37.378 187.352,36.757 188.756,35.434 L186.92,33.085 C186.056,33.895 185.219,34.219 184.166,34.219 C182.465,34.219 181.061,33.058 181.061,30.952 C181.061,28.954 182.411,27.685 184.22,27.685 C185.219,27.685 185.975,27.928 186.785,28.603 L188.432,26.173 C187.19,25.093 185.705,24.553 183.815,24.553 C180.224,24.553 177.335,27.01 177.335,30.952 C177.335,35.218 180.548,37.378 183.761,37.378 Z M195.425,37.297 C196.883,37.297 198.071,36.919 199.286,36.19 L198.206,33.436 C197.585,33.814 197.018,33.976 196.397,33.976 C195.695,33.976 195.182,33.652 195.182,32.626 L195.182,27.982 L198.665,27.982 L198.665,24.904 L195.182,24.904 L195.182,21.097 L191.645,21.097 L191.483,24.904 L189.485,24.904 L189.485,27.793 L191.483,27.982 L191.483,33.139 C191.483,35.947 193.13,37.297 195.425,37.297 Z" id="#fruitimpact" fill="#2E9E93" fill-rule="nonzero"></path>
            </g>
        </g>
    </g>
</svg>