<?xml version="1.0" encoding="UTF-8"?>
<svg width="544px" height="592px" viewBox="0 0 544 592" version="1.1" xmlns="http://www.w3.org/2000/svg" xmlns:xlink="http://www.w3.org/1999/xlink">
    <title>Intro-Gasol</title>
    <g id="Landing-15Nov" stroke="none" stroke-width="1" fill="none" fill-rule="evenodd">
        <g id="01.Intro-Copy" transform="translate(-736.000000, -92.000000)">
            <g id="Intro-Gasol" transform="translate(736.000000, 92.000000)">
                <rect id="Rectangle" x="0" y="0" width="544" height="592"></rect>
                <path d="M458.5,93.5 L458.5,93.5 C458.5,93.5 339.2,-9.8 222.1,122.1 C92.5,268.2 26.4,235.9 16.3,348.6 C10.6,412 73,514.5 232.2,520.6 C395.6,527 641.7,264.5 458.5,93.5 Z" id="Path" fill="#B2D3D0" fill-rule="nonzero"></path>
                <path d="M250.9,58.1 C251,59.7 255.6,127.5 265.1,140.9 C265.1,140.9 270.5,150.3 277,153.9 L277,166 C277,166 276.5,168.6 271.6,170.4 C271.6,170.4 270.5,204.1 291.2,219.2 C291.2,219.2 316.1,235.4 335.6,208.7 C335.6,208.7 347.8,197.1 349.3,167.6 C349.3,167.6 340.5,169.7 338.7,161.1 C336.9,152.6 335.1,115.6 335.1,115.6 L331.5,65.9 C331.5,65.9 332.5,38.2 311.8,35.6 C291,33 249,33.3 250.9,58.1 Z" id="Path" fill="#F9D8D2" fill-rule="nonzero"></path>
                <path d="M205,591.8 L200.7,185 C200.7,185 239.9,169.5 272.1,168.3 C272.1,168.3 274,220.2 305.8,222.2 C324.8,223.4 336,216.7 348.3,166.5 C348.3,166.5 379.6,165.8 407.8,176.1 C407.8,176.1 414.3,178.9 415.8,179.7 C417.4,180.5 430.6,591.7 430.6,591.7 L205,591.7 L205,591.8 Z" id="Path" fill="#5D9E9B" fill-rule="nonzero"></path>
                <path d="M404.9,311 C388.6,265.4 395.9,186.9 397.4,172.9 C396.9,172.8 396.4,172.6 395.8,172.5 C394.4,185.9 386.9,265.4 403.4,311.6 L404.9,311 Z" id="Path" fill="#333333" fill-rule="nonzero"></path>
                <path d="M333.5,73 C333.5,73 345.7,70.7 349.3,76.4 C352.9,82.1 351.9,89 347.6,92.3 C343.3,95.7 332.2,95.1 332.2,95.1 L333.5,73 Z" id="Path" fill="#F9D8D2" fill-rule="nonzero"></path>
                <path d="M202.1,319.6 C202.1,319.6 201.6,245 200.8,189.5 C200.8,189.5 194.7,191.4 125.2,290.8 L111.2,311 C111.2,311 108.1,317.6 104.6,307.9 C101.1,298.2 93,271 95.3,248.5 C97.6,226 100.6,224.6 101.9,219.1 C103.2,213.6 104.7,206.7 94.9,208.7 L96.2,156.8 C96.2,156.8 96.9,153.8 93.8,153.897554 C90.7,154 83.7,153.897554 83.7,153.897554 C83.7,153.897554 81.1,153.897554 80.8,159.2 C80.5,164.5 79.9,186.8 79.9,186.8 L78.8,211.4 L77,211.8 L75.6,178 C75.6,178 76.2,173.8 71.6,175.9 C67,177.9 60.2,181.3 60.2,181.3 C60.2,181.3 58.4,182.8 58,186.3 L56,194 L54.9,187.9 C54.9,187.9 54.8,185.9 50.2,186.7 C45.6,187.5 40.4,191 38,194.3 C38,194.3 36.7,198.3 38,204 C38,204 36.2,202.2 33.2,203.6 C30.2,205 28.9,206 28.9,206 C28.9,206 26.5,207.5 27.6,213.5 C28.8,219.5 32.3,253.4 32.3,253.4 L44.3,329.5 C44.3,329.5 48.8,396.7 75.5,406.2 C75.5,406.2 101.1,419.8 153.5,374 C167.3,362.1 202.1,319.6 202.1,319.6 Z" id="Path" fill="#F9D8D2" fill-rule="nonzero"></path>
                <path d="M62.3,260.5 C62.3,260.5 59.6,233.9 83.8,230.4 L61.4,233.4 C61.4,233.4 59.8,234.3 59.9,229.7 C60,225.1 59.299654,216.8 59.299654,216.8 C59.299654,216.8 59.2,214.3 62.4,214.2 C65.6,214.1 99.3,208.3 99.3,208.6" id="Path" stroke="#333333" stroke-width="1.4249" stroke-linecap="round"></path>
                <path d="M30.6,217.4 L38.9,232.3 C38.9,232.3 40.3,234.6 42.4,233.8 L47.1,231.1 C47.1,231.1 48,230 46.7,226.6 C45.4,223.2 38,204.1 38,204.1" id="Path" stroke="#333333" stroke-width="1.4249"></path>
                <path d="M39,198.4 L48.9,224.8 C48.9,224.8 49.6,227.9 52.5,226.3 L59.3,222.7" id="Path" stroke="#333333" stroke-width="1.4249"></path>
                <line x1="59.9" y1="215.3" x2="54.9" y2="188" id="Path" stroke="#333333" stroke-width="1.4249" stroke-linecap="round"></line>
                <path d="M59.9,185.8 C59.7,188.8 62.5,214.2 62.5,214.2" id="Path" stroke="#333333" stroke-width="1.4249" stroke-linecap="round"></path>
                <path d="M76.4,211.7 C76.4,211.7 75.5,183.4 75.5,178.1" id="Path" stroke="#333333" stroke-width="1.4249" stroke-linecap="round"></path>
                <path d="M79.8,211.7 C79.8,211.7 80.6,166.6 80.6,161.3 C80.6,161.3 79.8,150.9 88.3,153.6 C88.3,153.6 96.6,151.5 96,159.9 L94.8,208.7" id="Path" stroke="#333333" stroke-width="1.4249" stroke-linecap="round"></path>
                <path d="M383.3,591.8 C383.3,591.8 359.4,398.2 360.4,398 C365.1,397.1 377.7,395.6 382.1,395.1 L380,377.7 L398.9,379.5 L400.6,392.2 L483,382.9 L514.4,591.8" id="Path" fill="#FFE9CC" fill-rule="nonzero"></path>
                <polyline id="Path" stroke="#333333" stroke-width="1.4249" stroke-linecap="round" stroke-linejoin="round" points="278.1 70.5 276.2 98.6 286.6 97.7"></polyline>
                <path d="M290.5,79.2 C290.5,79.2 289.8,71.9 295.6,71.4 C297.9,71.2 301.6,72.6 301.5,79.2" id="Path" stroke="#333333" stroke-width="1.3856" stroke-linecap="round"></path>
                <path d="M258.7,81.5 C258.7,81.5 258,74.2 263.8,73.7 C266.1,73.5 269.8,74.9 269.7,81.5" id="Path" stroke="#333333" stroke-width="1.3856" stroke-linecap="round"></path>
                <line x1="279.7" y1="95.3" x2="279.7" y2="98.3" id="Path" stroke="#333333" stroke-width="1.4249" stroke-linecap="round" stroke-linejoin="round"></line>
                <line x1="283.4" y1="95.1" x2="283.5" y2="97.8" id="Path" stroke="#333333" stroke-width="1.4249" stroke-linecap="round" stroke-linejoin="round"></line>
                <path d="M278.5,112.3 C278.5,112.3 279.2,117 281.9,117 C284.9,117 285.3,114.5 285.5,112.3" id="Path" stroke="#333333" stroke-width="1.4249" stroke-linecap="round" stroke-linejoin="round"></path>
                <path d="M285.4,101.6 L279.3,101.7 C274.6,102 273,104.7 273,104.7 L261.3,122 C255.4,109.9 252.7,57.6 252.7,57.6 L250.1,58.7 C250.1,58.7 253.6,89.4 256.2,109.6 C258.8,129.9 262,137.3 266.9,145.2 C280.3,166.9 302.8,156.9 302.8,156.9 C314.3,152.7 328.4,137.4 333,126.7 C337.6,116 334.6,74.5 334.6,74.5 L323.5,76.7 L327.2,100.2 L310,115.9 C310,115.9 294.4,105 291.6,103.2 C288.9,101.6 285.4,101.6 285.4,101.6 Z M287.9,130.6 L286,121.2 L281.4,121.3 L281.4,131.1 L277.8,129 C277.8,128.4 276.1,109.8 276.1,109.8 L288.4,108.9 L292.6,128.3 L287.9,130.6 Z" id="Shape" fill="#87635C" fill-rule="nonzero"></path>
                <path d="M257.5,68.7 L257.5,67.8 C257.5,67 258.1,66.4 258.8,66.2 L270.4,64.1 C271.3,63.9 272.1,64.5 272.2,65.4 L272.4,66.9 C272.5,67.8 271.9,68.6 271,68.7 L259.1,70.3 C258.4,70.4 257.5,69.6 257.5,68.7 Z" id="Path" fill="#87635C" fill-rule="nonzero"></path>
                <path d="M284.6,65.2 L284.6,66.6 C284.6,67.4 285.3,68.1 286.1,68.1 L304,68.1 C304.7,68.1 305.3,67.6 305.4,66.9 L305.7,64.8 C305.8,63.9 305.1,63.1 304.2,63.1 L286,63.8 C285.2,63.8 284.6,64.4 284.6,65.2 Z" id="Path" fill="#87635C" fill-rule="nonzero"></path>
                <path d="M323.4,76.9 L334.4,75.3 C334.4,75.3 337.3,60.2 339.5,56.2 C342.4,50.9 347.4,36.6 332.7,30.7 C332.7,30.7 325.6,30.9 322.2,22.6 C322.2,22.6 318.3,12.9 309.9,17.2 C309.9,17.2 308.2,7.6 300,7.6 C291.9,7.6 285.5,12.6 285.5,12.6 C285.5,12.6 279.7,5.2 275.5,7.6 C271.2,10.1 266.4,17.7 266.4,17.7 C266.4,17.7 265.7,9.3 261.7,8.8 C257.7,8.3 250.8,11.5 247.7,23.2 C247.7,23.2 238.1,23.2 238,33.8 C237.9,44.4 243,47.4 243,47.4 C243,47.4 237.9,53.7 242.8,57.1 C242.8,57.1 246,62.1 252.7,58.6 L252.2,53.8 C252.2,53.8 258.4,58.5 265.8,47.1 C265.8,47.1 273,57.8 283.4,47.7 C283.4,47.7 291.9,55.6 302.3,43.3 C302.3,43.3 304,51.5 312.7,45.6 C312.7,45.6 312.4,52.7 320.3,51.3 C320.3,51.1 321.6,70.7 323.4,76.9 Z" id="Path" fill="#87635C" fill-rule="nonzero"></path>
                <path d="M334.9,70.6 C334.9,70.6 337.5,62.2 342,50.1 C346.5,38 337.3,31.3 330.3,30.1 C326.5,29.5 324.5,27.1 323.7,25.3 C321,19.2 317.7,13.8 312.1,16.2 C306.5,18.7 299.2,29.5 301.7,29.7 C304.2,29.8 307.9,25.4 308.8,18.1 C309.7,10.9 305.8,7.1 297.7,7.6 C294.5,7.8 290.7,8.6 285.7,12.6" id="Path" stroke="#543B38" stroke-width="1.4249" stroke-linecap="round" stroke-linejoin="round"></path>
                <path d="M249.9,59.4 C249.9,59.4 243.7,60.8 241.9,55.9 C240.1,51 241.8,49 243.3,47.5 C243.3,47.5 235.2,43.4 238.5,32 C238.5,32 240.4,22.7 247.2,23.9 C247.2,23.9 249.2,12.3 258.1,9.1 C267,5.9 267.5,23.3 266.6,26.5 C265.7,29.7 263.8,28.7 264.4,25.9 C265,23.2 266.3,19 269.6,14.2 C272.9,9.4 279,3.2 284.4,11.5 C289.8,19.7 286.6,23.1 285.6,23.5" id="Path" stroke="#543B38" stroke-width="1.4249" stroke-linecap="round" stroke-linejoin="round"></path>
                <path d="M249.1,49.6 C249.1,49.6 254,58.1 259.2,53.8 C264.4,49.5 265.8,47.2 265.8,47.2 C265.8,47.2 271.2,53.7 275.7,52.4 C280.2,51.1 283.9,47.2 285.7,43.4 C287.5,39.6 287,35.8 284.4,38.9 C281.8,42 282.2,48.9 287.9,49.8 C293.5,50.7 299.5,48.8 302.1,43.3 C302.1,43.3 306.7,54.2 317.7,39.8 C317.7,39.8 309.8,48 314.5,50.5 C314.5,50.5 318,52.5 322,50.1 C322,50.1 318.4,64.1 324.2,76.7" id="Path" stroke="#543B38" stroke-width="1.4249" stroke-linecap="round" stroke-linejoin="round"></path>
                <path d="M247.6,24 C247.6,24 259.1,27.7 257.8,41.4" id="Path" stroke="#543B38" stroke-width="1.4249" stroke-linecap="round" stroke-linejoin="round"></path>
                <path d="M416.6,183.4 C415.5,182.3 415.8,307.9 415.8,307.9 C415.8,307.9 409.6,305.8 400.7,306.2 C391.8,306.6 359.9,310.3 359.9,310.3 C359.9,310.3 355.2,310.1 355.4,314.1 L355.4,318.1 C355.4,318.1 347.4,319.8 345.1,321.6 C342.8,323.4 343.6,333.1 343.6,333.1 L344.7,347.7 C344.7,347.7 345.1,351.3 349.6,351.4 C354.1,351.5 358.4,350.6 358.4,350.6 L361,372 C361,372 360.5,378 369,377.5 C377.4,377 400.7,379.8 400.7,379.8 C400.7,379.8 418.4,380.8 424.1,385.4 C429.8,390 454,409.5 460.1,413.5 C466.2,417.6 484.6,426.6 500.5,420.4 C516.4,414.2 517.6,395.5 517.6,395.5 C517.6,395.5 518.7,377.4 513.8,357.9 C508.8,338.3 470,238.6 416.6,183.4 Z" id="Path" fill="#F9D8D2" fill-rule="nonzero"></path>
                <line x1="404.1" y1="322.6" x2="355.8" y2="327.3" id="Path" stroke="#333333" stroke-width="1.4249"></line>
                <line x1="404.1" y1="341.2" x2="358.2" y2="345.9" id="Path" stroke="#333333" stroke-width="1.4249"></line>
                <line x1="406.8" y1="360.1" x2="359.9" y2="361.8" id="Path" stroke="#333333" stroke-width="1.4249"></line>
                <path d="M377.6,308.2 C377.6,308.2 385.2,204.6 402.2,171.6 L418,178 C418,178 400.4,235.1 395.6,306.2 L377.6,308.2 Z" id="Path" fill="#FFE9CC" fill-rule="nonzero"></path>
                <path d="M43.3,130.5 C43.3,130.5 40.4,124.9 44.4,117.6" id="Path" stroke="#333333" stroke-width="1.4249" stroke-linecap="round"></path>
                <path d="M47.1,128.1 C47.1,128.1 46,124.9 48,121.3" id="Path" stroke="#333333" stroke-width="1.4249" stroke-linecap="round"></path>
                <path d="M126.1,131.7 C126.1,131.7 127.9,127.6 126.5,124" id="Path" stroke="#333333" stroke-width="1.4249" stroke-linecap="round"></path>
                <path d="M129.4,134.9 C129.4,134.9 133.7,128.8 129.4,120.6" id="Path" stroke="#333333" stroke-width="1.4249" stroke-linecap="round"></path>
                <path d="M470.2,346.4 C470.2,346.4 435,308.6 408.3,306.4 C395.9,305.4 358.8,310.6 358.8,310.6 C358.8,310.6 355.4,310.8 355.3,314.8 C355.2,318.6 361,371.9 361,371.9 C361,371.9 360.5,377.4 368.2,377.7 C376,378 380,377.7 380,377.7" id="Path" stroke="#333333" stroke-width="1.4249"></path>
                <path d="M302.8,157.1 C302.8,157.1 289.4,163 277.1,155.7 L277.1,164.6 C284.6,170.3 298.5,176.8 313.9,163 C330.4,148.2 332.6,134.3 332.6,127.8 C327.6,138.3 313.9,153 302.8,157.1 Z" id="Path" fill="#EFC2BB" fill-rule="nonzero"></path>
                <circle id="Oval" fill="#EAA42C" fill-rule="nonzero" cx="88" cy="123.7" r="30.7"></circle>
                <line x1="82.2" y1="74.7" x2="83.8" y2="96.2" id="Path" stroke="#5D9E9B" stroke-width="1.5" stroke-linecap="round"></line>
                <path d="M83.1,85.8 C83.3,86.2 91.4,91.2 103.7,85.3 C103.7,85.3 107.1,83.8 104.4,82 C101.6,80.2 94,78 86.1,82.5 C85.3,82.9 83,84.4 83,84.4" id="Path" fill="#5D9E9B" fill-rule="nonzero"></path>
                <path d="M203.7,468.2 C208.8,467.5 228.1,465.4 242.7,469.8 C250.1,472 256.1,472.8 261.6,472.8 C268,472.8 273.7,471.7 280.1,470.4 C281.1,470.2 282.2,470 283.3,469.8 C296.8,467.2 304.5,467.5 316.5,471.1 C328.8,474.8 346.7,471.5 347.4,471.4 C347.6,471.4 363.6,469.6 371.4,471.1 L371.8,469.1 C363.7,467.5 347.8,469.3 347.1,469.4 C346.9,469.4 328.8,472.7 317,469.2 C304.8,465.6 296.5,465.3 282.9,467.9 C281.8,468.1 280.8,468.3 279.7,468.5 C268.1,470.8 258.9,472.6 243.2,467.9 C228.3,463.4 209.3,465.5 203.6,466.2 L203.7,468.2 Z" id="Path" fill="#FFFFFF" fill-rule="nonzero"></path>
                <path d="M202.3,343.6 L202.3,346 C204.8,343.5 210.5,336 214.6,317.7 C223.2,279.1 218,222.2 212,180.9 C211.5,181.1 211,181.3 210.5,181.4 C216.4,222.4 221.6,278.6 213.2,316.9 C209.7,332.6 205,340.3 202.3,343.6 Z" id="Path" fill="#333333" fill-rule="nonzero"></path>
                <path d="M308.9,232.8 C331.1,232.8 350.8,224 358.9,166.8 C358.3,166.8 357.8,166.7 357.3,166.7 C347.7,233.8 321.2,232.2 301.7,231 C270.1,229 264.9,178 264.2,168.9 C263.7,169 263.1,169 262.6,169.1 C262.9,173.4 264.1,186.2 268.3,199.1 C275.1,220.1 286.6,231.7 301.5,232.6 C304,232.7 306.5,232.8 308.9,232.8 Z" id="Path" fill="#333333" fill-rule="nonzero"></path>
                <path d="M110.8,144.3 C105.5,141.2 92.2,132.1 95.4,119.6 C95.4,119.5 98.1,108.5 110.2,102.6 C109.8,102.2 109.5,101.8 109.1,101.5 C96.8,107.8 94.1,118.8 94,119.3 C92.2,126.2 94.9,133.2 101.7,139.5 C104.7,142.2 107.7,144.3 109.8,145.5 C110.1,145 110.5,144.7 110.8,144.3 Z" id="Path" fill="#333333" fill-rule="nonzero"></path>
                <path d="M87.5,154.4 C87.7,154.4 87.9,154.4 88,154.4 C88.3,154.4 88.6,154.4 89,154.4 L84.5,93.2 C84,93.3 83.5,93.3 83,93.4 L87.5,154.4 Z" id="Path" fill="#333333" fill-rule="nonzero"></path>
                <path d="M62.7,106.3 C62.4,106.7 62.1,107.1 61.9,107.6 C66.8,110.3 82.7,120.2 77,132.3 C75.2,136.2 73,139.8 65,144 C65.3,144.4 65.7,144.8 66.1,145.1 C74.2,140.7 76.6,136.8 78.4,132.9 C84.5,119.8 68,109.3 62.7,106.3 Z" id="Path" fill="#333333" fill-rule="nonzero"></path>
                <path d="M57.4,126.1 C57.4,126.6 57.5,127.1 57.5,127.5 C60,127.6 65.6,127.9 73.2,127.9 C85.2,127.9 102,127.2 118.7,124.4 C118.7,124.2 118.7,123.9 118.7,123.7 C118.7,123.5 118.7,123.2 118.7,123 C91.3,127.7 63.3,126.5 57.4,126.1 Z" id="Path" fill="#333333" fill-rule="nonzero"></path>
            </g>
        </g>
    </g>
</svg>