<?xml version="1.0" encoding="UTF-8"?>
<svg width="128px" height="128px" viewBox="0 0 128 128" version="1.1" xmlns="http://www.w3.org/2000/svg" xmlns:xlink="http://www.w3.org/1999/xlink">
    <title>Objetivo 2</title>
    <g id="Landing-15Nov" stroke="none" stroke-width="1" fill="none" fill-rule="evenodd">
        <g id="Artboard" transform="translate(-803.000000, -287.000000)">
            <g id="Objetivo-2" transform="translate(803.000000, 287.000000)">
                <circle id="Oval" fill="#E4E6E8" cx="64" cy="64" r="64"></circle>
                <ellipse id="Oval" fill="#EAA42C" fill-rule="nonzero" transform="translate(67.360772, 75.505432) rotate(-83.471253) translate(-67.360772, -75.505432) " cx="67.3607721" cy="75.5054324" rx="35.0470923" ry="37.0788078"></ellipse>
                <path d="M66.3365079,111.949206 C62.1714286,111.949206 58.0063492,111.339683 53.8412698,110.019048 C43.3777778,106.768254 34.7428571,99.6571429 29.968254,90.4126984 C25.6,81.7777778 24.7873016,72.1269841 27.8349206,63.1873016 C34.5396825,43.784127 56.7873016,33.3206349 77.7142857,39.7206349 C88.1777778,42.9714286 96.8126984,50.0825397 101.587302,59.3269841 C105.955556,67.9619048 106.768254,77.6126984 103.720635,86.552381 L103.720635,86.552381 C98.3365079,102.095238 82.9968254,111.949206 66.3365079,111.949206 Z M65.2190476,39.6190476 C49.3714286,39.6190476 34.7428571,48.9650794 29.7650794,63.7968254 C26.9206349,72.3301587 27.631746,81.4730159 31.7968254,89.6 C36.2666667,98.4380952 44.5968254,105.244444 54.552381,108.292063 C74.4634921,114.387302 95.6952381,104.431746 101.993651,85.9428571 L101.993651,85.9428571 C104.838095,77.4095238 104.126984,68.2666667 99.9619048,60.1396825 C95.4920635,51.3015873 87.1619048,44.4952381 77.2063492,41.447619 C73.1428571,40.2285714 69.1809524,39.6190476 65.2190476,39.6190476 Z" id="Shape" fill="#5D9E9B" fill-rule="nonzero"></path>
                <path d="M78.9333333,33.2190476 C63.8984127,9.04126984 40.5333333,18.5904762 40.5333333,18.5904762 C40.5333333,18.5904762 51.2,42.768254 78.9333333,33.2190476 Z" id="Path" fill="#5D9E9B" fill-rule="nonzero"></path>
                <rect id="Rectangle" fill="#5D9E9B" fill-rule="nonzero" transform="translate(80.592742, 33.715677) rotate(-67.106868) translate(-80.592742, -33.715677) " x="70.332781" y="32.7506317" width="20.5199212" height="1.9300916"></rect>
                <circle id="Oval" fill="#FFFFFF" fill-rule="nonzero" cx="44.4952381" cy="51.8095238" r="1.32063492"></circle>
                <circle id="Oval" fill="#FFFFFF" fill-rule="nonzero" cx="47.2380952" cy="60.8507937" r="1.32063492"></circle>
                <circle id="Oval" fill="#FFFFFF" fill-rule="nonzero" cx="35.6571429" cy="79.6444444" r="1.32063492"></circle>
                <circle id="Oval" fill="#FFFFFF" fill-rule="nonzero" cx="39.0095238" cy="69.4857143" r="1.32063492"></circle>
                <circle id="Oval" fill="#FFFFFF" fill-rule="nonzero" cx="46.4253968" cy="75.4793651" r="1.32063492"></circle>
                <circle id="Oval" fill="#FFFFFF" fill-rule="nonzero" cx="37.0793651" cy="59.8349206" r="1.32063492"></circle>
            </g>
        </g>
    </g>
</svg>