<?xml version="1.0" encoding="UTF-8"?>
<svg width="128px" height="128px" viewBox="0 0 128 128" version="1.1" xmlns="http://www.w3.org/2000/svg" xmlns:xlink="http://www.w3.org/1999/xlink">
    <title>Objetivo 3</title>
    <g id="Landing-15Nov" stroke="none" stroke-width="1" fill="none" fill-rule="evenodd">
        <g id="Artboard" transform="translate(-962.000000, -287.000000)">
            <g id="Objetivo-3" transform="translate(962.000000, 287.000000)">
                <ellipse id="Oval" fill="#E4E6E8" cx="64" cy="63.496063" rx="64" ry="63.496063"></ellipse>
                <path d="M11.9873016,100.384252 C23.568254,116.510236 42.5650794,126.992126 64,126.992126 C84.1142857,126.992126 102.095238,117.719685 113.777778,103.307087 L113.371429,102.903937 C64.6095238,57.2472441 14.9333333,97.8645669 11.9873016,100.384252 Z" id="Path" fill="#FFFFFF" fill-rule="nonzero"></path>
                <path d="M11.784127,100.485039 C11.784127,100.485039 63.0857143,55.7354331 113.371429,102.903937" id="Path" stroke="#5D9E9B" stroke-width="1.52380952"></path>
                <ellipse id="Oval" fill="#EAA42C" fill-rule="nonzero" cx="60.952381" cy="46.4629921" rx="37.7904762" ry="10.784252"></ellipse>
                <path d="M38.8063492,37.9968504 C38.8063492,37.9968504 42.2603175,24.6929134 46.5269841,21.1653543 C50.7936508,17.6377953 54.8571429,17.3354331 58.7174603,21.1653543 C58.7174603,21.1653543 60.4444444,22.4755906 63.3904762,20.2582677 C66.3365079,18.0409449 72.6349206,17.5370079 76.1904762,24.6929134 C79.7460317,31.8488189 81.9809524,40.415748 81.9809524,40.415748" id="Path" fill="#EAA42C" fill-rule="nonzero"></path>
                <ellipse id="Oval" stroke="#5D9E9B" stroke-width="1.52380952" fill="#F9D8D2" fill-rule="nonzero" cx="38.4" cy="58.6582677" rx="4.77460317" ry="4.73700787"></ellipse>
                <ellipse id="Oval" stroke="#5D9E9B" stroke-width="1.52380952" fill="#F9D8D2" fill-rule="nonzero" cx="82.0825397" cy="58.6582677" rx="4.77460317" ry="4.73700787"></ellipse>
                <path d="M81.9809524,50.9984252 C82.5904762,42.1291339 60.952381,41.7259843 60.952381,41.7259843 C39.8222222,41.3228346 40.0253968,48.9826772 40.0253968,48.9826772 C40.0253968,48.9826772 39.0095238,67.1244094 48.6603175,76.3968504 C50.4888889,78.1102362 51.6063492,80.4283465 51.6063492,82.9480315 L51.6063492,83.9559055 C51.6063492,88.7937008 55.568254,92.7244094 60.4444444,92.7244094 L61.7650794,92.7244094 C66.6412698,92.7244094 70.6031746,88.7937008 70.6031746,83.9559055 L70.6031746,82.6456693 C70.6031746,80.3275591 71.5174603,78.2110236 73.0412698,76.5984252 C77.2063492,72.3653543 81.0666667,64.8062992 81.9809524,50.9984252 Z" id="Path" stroke="#5D9E9B" stroke-width="1.52380952" fill="#F9D8D2" fill-rule="nonzero"></path>
                <polygon id="Path" fill="#5D9E9B" fill-rule="nonzero" points="30.1714286 87.584252 30.2730159 107.137008 38.6031746 107.137008 38.6031746 84.1574803"></polygon>
                <polygon id="Path" fill="#5D9E9B" fill-rule="nonzero" points="92.2412698 86.6771654 92.1396825 106.229921 83.8095238 106.229921 83.8095238 83.2503937"></polygon>
                <path d="M30.1714286,105.826772 L92.1396825,105.826772 L92.1396825,121.247244 C92.1396825,121.247244 65.5238095,135.458268 39.9238095,122.355906 C39.9238095,122.355906 33.4222222,119.83622 30.1714286,116.913386 L30.1714286,105.826772 Z" id="Path" fill="#5D9E9B" fill-rule="nonzero"></path>
                <polyline id="Path" stroke="#5D9E9B" stroke-width="1.52380952" stroke-linejoin="round" points="58.7174603 52.6110236 57.6 61.5811024 61.1555556 61.5811024"></polyline>
                <ellipse id="Oval" fill="#5D9E9B" fill-rule="nonzero" cx="47.6444444" cy="53.8204724" rx="1.42222222" ry="1.41102362"></ellipse>
                <ellipse id="Oval" fill="#5D9E9B" fill-rule="nonzero" cx="69.384127" cy="53.8204724" rx="1.42222222" ry="1.41102362"></ellipse>
                <path d="M59.3269841,66.015748 C59.3269841,66.015748 63.1873016,67.7291339 64,63.496063" id="Path" stroke="#5D9E9B" stroke-width="1.52380952" stroke-linecap="round" stroke-linejoin="round"></path>
                <path d="M40.6349206,54.4251969 C40.6349206,54.4251969 41.2444444,47.4708661 44.0888889,46.4629921 C46.9333333,45.3543307 52.1142857,43.9433071 55.3650794,44.0440945 C58.615873,44.1448819 58.9206349,41.8267717 58.9206349,41.8267717 C58.9206349,41.8267717 60.8507937,43.8425197 64.1015873,44.2456693 C67.2507937,44.7496063 77.3079365,45.3543307 78.831746,48.8818898 C80.3555556,52.4094488 80.0507937,54.3244094 80.0507937,54.3244094 L82.2857143,53.8204724 C82.2857143,53.8204724 84.7238095,47.3700787 76.8,43.5401575 C68.8761905,39.7102362 52.215873,41.0204724 45.4095238,42.3307087 C38.6031746,43.6409449 38.6031746,53.8204724 38.6031746,53.8204724 L40.6349206,54.4251969 Z" id="Path" fill="#5D9E9B" fill-rule="nonzero"></path>
            </g>
        </g>
    </g>
</svg>