<svg width="20" height="20" viewBox="0 0 20 20" fill="none" xmlns="http://www.w3.org/2000/svg">
<path fill-rule="evenodd" clip-rule="evenodd" d="M20 5.92965V17.7889C20 18.392 19.9 18.8945 19.5 19.2965C19.2 19.6985 18.7 20 18.2 20H1.8C0.8 20 0 19.0955 0 17.99V5.92965C0 5.42714 0.1 5.02513 0.4 4.72362L3.1 1.00503C3.6 0.301508 4.5 0 5.1 0H14.9C15.8 0 16.5 0.40201 16.9 1.10553L19.3 4.42211C19.3148 4.44197 19.3299 4.46207 19.3451 4.48242C19.6385 4.87401 20 5.35642 20 5.92965ZM14.9 1.90955H5.1C4.9 1.90955 4.7 1.90955 4.6 2.11055L3.3 3.9196H16.7L15.4 2.11055C15.3 2.01005 15.2 1.90955 14.9 1.90955ZM2 5.92965V17.99H18V5.92965H2ZM7.9 7.9397H12.1C12.6 7.9397 13 8.34171 13 8.94472C13 9.54774 12.6 9.94975 12.1 9.94975H7.9C7.4 9.94975 7 9.54774 7 8.94472C7 8.34171 7.4 7.9397 7.9 7.9397Z" fill="white"/>
</svg>
