<svg id="Capa_1" data-name="Capa 1" xmlns="http://www.w3.org/2000/svg" viewBox="0 0 448 448"><defs><style>.cls-1{fill:none;stroke:#fff;stroke-miterlimit:10;stroke-width:2px;}.cls-2{fill:#fff;}</style></defs><title>Logo</title><g id="Logo"><circle class="cls-1" cx="224" cy="224" r="223"/><path class="cls-2" d="M312.23,402.84l50-50.4L390.49,324c5.78-5.82,6.93-11.56,9.52-19.43,12.09-36.79,4.17-82.59-9-118.09-6.68-18-16.4-35.49-29.68-49.47-11.79-12.39-30.95-25.59-49.07-24" transform="translate(-84.2 -62.22)"/><path class="cls-2" d="M304.17,402.84l-50-50.4L225.91,324c-5.78-5.82-6.93-11.56-9.52-19.43-12.09-36.79-4.17-82.59,9-118.09,6.69-18,16.4-35.49,29.68-49.47,11.79-12.39,31-25.59,49.07-24" transform="translate(-84.2 -62.22)"/><rect class="cls-2" x="223.01" y="50.56" width="1.98" height="354.88"/></g></svg>