<?xml version="1.0" encoding="utf-8"?>
<!-- Generator: Adobe Illustrator 22.1.0, SVG Export Plug-In . SVG Version: 6.00 Build 0)  -->
<svg version="1.1" id="Capa_1" xmlns="http://www.w3.org/2000/svg" xmlns:xlink="http://www.w3.org/1999/xlink" x="0px" y="0px"
	 viewBox="0 0 400 240" style="enable-background:new 0 0 400 240;" xml:space="preserve">
<style type="text/css">
	.st0{fill-rule:evenodd;clip-rule:evenodd;fill:#FCC46B;}
	.st1{display:none;}
	.st2{display:inline;}
	.st3{fill:#141719;}
	.st4{stroke:#FFFFFF;stroke-width:6;stroke-miterlimit:10;}
</style>
<path class="st0" d="M66.2,186.3c13.7-12.4,25.3-23.5,37.5-34c32.1-27.7,68.9-48,106.1-67.7c45.4-24.1,92.6-44.2,140.9-61.8
	c11.6-4.2,23.7-6.9,35.6-9.9c2-0.5,5.9,0.3,6.6,1.6c1.2,2.4,1.6,6.3,0.4,8.4c-2,3.6-5.2,6.8-8.6,9.4c-12.8,9.8-26.5,18.2-41.6,24.3
	c-37.2,15.1-73.4,32.5-109.5,50.3c-36.3,17.9-70.1,39.3-101.5,64.5c-15.8,12.7-29.8,27.7-44.6,41.8c-2.7,2.6-4.7,5.8-7.4,8.3
	c-6.5,5.9-12.8,6-20.1,0.8c-7.8-5.6-13.3-13.2-17-21.7c-6.4-14.7-12.1-29.8-17.8-44.8c-5.9-15.6-11.5-31.3-17.5-46.8
	c-1.5-3.9-1.6-7.1,1.5-10.1c3.6-3.5,7.7-4,11.9-1.8c8.1,4,13.6,10.7,17,18.9c5.6,13.7,11.1,27.5,16.5,41.4
	C58.3,166.4,61.3,175.8,66.2,186.3z"/>
<g class="st1">
	<g class="st2">
		<g>
			<path class="st3" d="M77.1,64.7H14.3c-4.1,0-7.3-3.3-7.3-7.3c0-4.1,3.3-7.3,7.3-7.3h62.7c4.1,0,7.3,3.3,7.3,7.3
				C84.4,61.4,81.1,64.7,77.1,64.7z"/>
		</g>
		<g>
			<path class="st3" d="M113.2,101.4H29.5c-4.1,0-7.3-3.3-7.3-7.3c0-4.1,3.3-7.3,7.3-7.3h83.7c4.1,0,7.3,3.3,7.3,7.3
				C120.5,98.2,117.3,101.4,113.2,101.4z"/>
		</g>
		<g>
			<path class="st3" d="M88.5,138.2H44.6c-4.1,0-7.3-3.3-7.3-7.3c0-4.1,3.3-7.3,7.3-7.3h43.9c4.1,0,7.3,3.3,7.3,7.3
				C95.9,134.9,92.6,138.2,88.5,138.2z"/>
		</g>
	</g>
	<g class="st2">
		<path class="st3" d="M137.3,224.9c-18.9,0-34.2-15.4-34.2-34.2c0-18.9,15.4-34.2,34.2-34.2c18.9,0,34.2,15.4,34.2,34.2
			C171.6,209.5,156.2,224.9,137.3,224.9z M137.3,171.1c-10.8,0-19.5,8.8-19.5,19.5c0,10.8,8.8,19.5,19.5,19.5
			c10.8,0,19.5-8.8,19.5-19.5C156.9,179.9,148.1,171.1,137.3,171.1z"/>
	</g>
	<g class="st2">
		<path class="st3" d="M321.3,224.9c-18.9,0-34.2-15.4-34.2-34.2c0-18.9,15.4-34.2,34.2-34.2c18.9,0,34.2,15.4,34.2,34.2
			C355.5,209.5,340.2,224.9,321.3,224.9z M321.3,171.1c-10.8,0-19.5,8.8-19.5,19.5c0,10.8,8.8,19.5,19.5,19.5
			c10.8,0,19.5-8.8,19.5-19.5C340.8,179.9,332.1,171.1,321.3,171.1z"/>
	</g>
	<g class="st2">
		<path class="st3" d="M93,191H79.4c-8.2,0-14.9-6.7-14.9-14.9l0-17.7c0-4.1,3.3-7.3,7.3-7.4c0,0,0,0,0,0c4.1,0,7.3,3.3,7.3,7.3
			l0,17.7c0,0.1,0.1,0.2,0.2,0.2H93c4.1,0,7.3,3.3,7.3,7.3C100.3,187.7,97.1,191,93,191z"/>
	</g>
	<g class="st2">
		<path class="st3" d="M268.1,191H185c-4.1,0-7.3-3.3-7.3-7.3c0-4.1,3.3-7.3,7.3-7.3h75.8V36.7H60.5c-4.1,0-7.3-3.3-7.3-7.3
			c0-4.1,3.3-7.3,7.3-7.3h207.7c4.1,0,7.3,3.3,7.3,7.3v154.3C275.5,187.7,272.2,191,268.1,191z"/>
	</g>
	<g class="st2">
		<path class="st3" d="M376.8,191h-9.2c-4.1,0-7.3-3.3-7.3-7.3c0-4.1,3.3-7.3,7.3-7.3h9.2c0.1,0,0.2-0.1,0.2-0.2v-30.5
			c0-9.6-2.5-19.1-7.1-27.5l-24.9-45c-2.4-4.4-7-7.1-11.9-7.1c0,0,0,0-0.1,0l-30.5,0.2c-2.9,0-5.6,0-7.9,0v89.8
			c0,4.1-3.3,7.3-7.3,7.3c-4.1,0-7.3-3.3-7.3-7.3V58.9c0-4,3.3-7.3,7.3-7.3c0.4,0,6.8,0,15.2-0.1l30.5-0.2
			c10.4,0,19.9,5.6,24.9,14.6l24.9,45c5.8,10.6,8.9,22.5,8.9,34.6v30.5C391.7,184.3,385,191,376.8,191z"/>
	</g>
</g>
<g class="st1">
	<g class="st2">
		<path class="st4" d="M99.7,110.8h173.8c5.6,0,10.2,4.6,10.2,10.2v3.3c0,0.2,0.2,0.3,0.3,0.2c3.7-1.2,7.6-1.9,11.7-2
			c0.5,0,1.1-0.1,1.7-0.1l0,0c4.1,0,8,0.6,11.8,1.7c0.2,0.1,0.3-0.1,0.3-0.2V42.5c0-11.3-9.2-20.5-20.5-20.5H88.4
			C77.2,22,68,31.2,68,42.5V184c0,11.3,9.2,20.5,20.5,20.5h157c0.2,0,0.3-0.1,0.3-0.3v-20.8c0-1.5,0.2-3,0.5-4.5
			c0.1-0.2-0.1-0.3-0.2-0.3H99.5c-3.2,0-5.8-2.6-5.8-5.8v-56.1C93.7,113.5,96.4,110.8,99.7,110.8z M99.7,47.8h178.1c3.3,0,6,2.7,6,6
			v24.2c0,3.3-2.7,6-6,6H99.7c-3.3,0-6-2.7-6-6V53.7C93.7,50.4,96.4,47.8,99.7,47.8z"/>
		<path class="st4" d="M326.5,175.8h-0.2v-10.1c0-16-13-28.9-28.9-28.9c-0.4,0-0.8,0-1.1,0c-15.6,0.6-27.8,13.9-27.8,29.6v9.1
			c0,0.2-0.1,0.3-0.3,0.3h-0.2c-4.4,0-7.9,3.5-7.9,7.9v34.8c0,4.4,3.5,7.9,7.9,7.9h58.2c4.4,0,7.9-3.5,7.9-7.9v-35.1
			C334.1,179.3,330.7,175.8,326.5,175.8z M302.8,210c0.2,0.9-0.5,1.7-1.4,1.7h-4.3h-4.3c-0.9,0-1.6-0.8-1.4-1.7l1.6-8
			c0-0.1,0-0.2-0.1-0.2c-1.6-1.3-2.4-3.5-2-5.8c0.4-2.7,2.7-4.9,5.5-5.3c0.3-0.1,0.5-0.1,0.8-0.1c3.5,0,6.3,2.8,6.3,6.3
			c0,1.9-0.9,3.7-2.2,4.8c-0.1,0.1-0.1,0.2-0.1,0.2L302.8,210z M313.7,175.8h-32.3c-0.2,0-0.3-0.1-0.3-0.3v-9.3
			c0-8.4,6.2-15.9,14.7-16.7c0.1,0,0.1,0,0.1,0c9.8-0.9,17.8,6.6,17.8,16.5L313.7,175.8L313.7,175.8L313.7,175.8z"/>
	</g>
</g>
</svg>
