<svg width="20" height="20" viewBox="0 0 20 20" fill="none" xmlns="http://www.w3.org/2000/svg">
<path d="M9.97109 0C10.7661 0.012 11.5761 0.0920001 12.3521 0.278C12.8881 0.408 13.2191 0.948 13.0891 1.485C12.9601 2.021 12.4171 2.351 11.8831 2.223C11.2621 2.073 10.6031 2.01 9.97709 2C7.84009 2.006 5.83309 2.844 4.32709 4.359C2.82009 5.874 1.99409 7.886 2.00009 10.023C2.00609 12.16 2.84409 14.166 4.35909 15.673C5.86909 17.174 7.87109 18 10.0001 18H10.0231C12.1601 17.994 14.1671 17.156 15.6731 15.641C17.1801 14.125 18.0061 12.114 18.0001 9.977C17.9991 9.425 18.4451 8.975 18.9971 8.974C19.5511 8.974 19.9991 9.42 20.0001 9.971C20.0081 12.642 18.9751 15.157 17.0911 17.051C15.2081 18.945 12.7001 19.992 10.0291 20H10.0001C7.33909 20 4.83609 18.968 2.94909 17.091C1.05509 15.208 0.00809171 12.7 4.5592e-05 10.029C-0.00790829 7.357 1.02509 4.843 2.90909 2.949C4.79209 1.055 7.30009 0.008 9.97109 0ZM16.2481 4.3409C16.6121 3.9279 17.2431 3.8839 17.6591 4.2479C18.0741 4.6109 18.1161 5.2429 17.7521 5.6589L10.7521 13.6589C10.5701 13.8669 10.3101 13.9899 10.0331 13.9999H10.0001C9.73509 13.9999 9.48109 13.8949 9.29309 13.7069L6.29309 10.7069C5.90209 10.3159 5.90209 9.6839 6.29309 9.2929C6.68409 8.9019 7.31609 8.9019 7.70709 9.2929L9.95109 11.5369L16.2481 4.3409Z" fill="#2E9E93"/>
</svg>
