<?xml version="1.0" encoding="UTF-8"?>
<svg width="16px" height="20px" viewBox="0 0 16 20" version="1.1" xmlns="http://www.w3.org/2000/svg" xmlns:xlink="http://www.w3.org/1999/xlink">
    <title> Icon / Base / Line / x24</title>
    <defs>
        <path d="M6.1026,15.8735 L9.0796,15.6025 L14.6796,9.9975 L11.9836,7.3005 L6.3666,12.9175 L6.1026,15.8735 Z M13.3236,5.9615 L16.0186,8.6565 L17.9656,6.7065 L15.2716,4.0125 L13.3236,5.9615 Z M4.2926,17.6855 C4.0826,17.4755 3.9776,17.1835 4.0036,16.8875 L4.3826,12.7175 C4.4246,12.2605 4.6266,11.8295 4.9526,11.5035 L13.9486,2.5075 C14.6506,1.8025 15.9236,1.8375 16.6646,2.5765 L19.4026,5.3145 L19.4036,5.3155 C20.1686,6.0815 20.1996,7.2995 19.4716,8.0295 L10.4746,17.0265 C10.1496,17.3515 9.7186,17.5535 9.2606,17.5955 L5.0906,17.9745 C5.0606,17.9765 5.0306,17.9775 4.9996,17.9775 C4.7366,17.9775 4.4816,17.8735 4.2926,17.6855 L4.2926,17.6855 Z M19.9996,20.9775 C19.9996,21.5275 19.5496,21.9775 18.9996,21.9775 L4.9996,21.9775 C4.4506,21.9775 3.9996,21.5275 3.9996,20.9775 C3.9996,20.4285 4.4506,19.9775 4.9996,19.9775 L18.9996,19.9775 C19.5496,19.9775 19.9996,20.4285 19.9996,20.9775 L19.9996,20.9775 Z" id="path-1"></path>
    </defs>
    <g id="Cross-selling" stroke="none" stroke-width="1" fill="none" fill-rule="evenodd">
        <g id="Desktop-/-Adoptions-Overharvest" transform="translate(-544.000000, -521.000000)">
            <g id="Cart-products" transform="translate(160.000000, 199.000000)">
                <g id="2.productCart" transform="translate(0.000000, 264.000000)">
                    <g id="Accordion" transform="translate(264.000000, 16.000000)">
                        <g id="Title" transform="translate(16.000000, 14.000000)">
                            <g id="Texts" transform="translate(0.000000, 2.000000)">
                                <g id="-Icon-/-Base-/-Line-/-x24" transform="translate(100.000000, 24.000000)">
                                    <g id="Color-/-Fill-/-None">
                                        <rect id="Color" x="0" y="0" width="24" height="24"></rect>
                                    </g>
                                    <g id="-Icon-/-Line-/-x24-/-edit-2">
                                        <mask id="mask-2" fill="white">
                                            <use xlink:href="#path-1"></use>
                                        </mask>
                                        <g></g>
                                        <g id="Color-/-Fill-/-Primary" mask="url(#mask-2)" fill="#2E9E93" fill-rule="evenodd">
                                            <rect id="Color" x="0" y="0" width="24" height="24"></rect>
                                        </g>
                                    </g>
                                </g>
                            </g>
                        </g>
                    </g>
                </g>
            </g>
        </g>
    </g>
</svg>