<?xml version="1.0" encoding="UTF-8"?>
<svg width="14px" height="14px" viewBox="0 0 14 14" version="1.1" xmlns="http://www.w3.org/2000/svg" xmlns:xlink="http://www.w3.org/1999/xlink">
    <!-- Generator: Sketch 64 (93537) - https://sketch.com -->
    <title> Icon / Base / Line / x24</title>
    <desc>Created with Sketch.</desc>
    <defs>
        <path d="M8,10.6666667 C8.36866667,10.6666667 8.66666667,10.9646667 8.66666667,11.3333333 C8.66666667,11.702 8.36866667,12 8,12 C7.63133333,12 7.33333333,11.702 7.33333333,11.3333333 C7.33333333,10.9646667 7.63133333,10.6666667 8,10.6666667 Z M8,4 C9.28666667,4 10.3333333,5.04666667 10.3333333,6.33333333 C10.3333333,7.38666667 9.62666667,8.26866667 8.66666667,8.558 L8.66666667,8.558 L8.66666667,9.33333333 C8.66666667,9.702 8.36866667,10 8,10 C7.63133333,10 7.33333333,9.702 7.33333333,9.33333333 L7.33333333,9.33333333 L7.33333333,8 C7.33333333,7.63133333 7.63133333,7.33333333 8,7.33333333 C8.55133333,7.33333333 9,6.88466667 9,6.33333333 C9,5.782 8.55133333,5.33333333 8,5.33333333 C7.44866667,5.33333333 7,5.782 7,6.33333333 C7,6.702 6.702,7 6.33333333,7 C5.96466667,7 5.66666667,6.702 5.66666667,6.33333333 C5.66666667,5.04666667 6.71333333,4 8,4 Z M8,13.3333333 C5.05933333,13.3333333 2.66666667,10.9406667 2.66666667,8 C2.66666667,5.05933333 5.05933333,2.66666667 8,2.66666667 C10.9406667,2.66666667 13.3333333,5.05933333 13.3333333,8 C13.3333333,10.9406667 10.9406667,13.3333333 8,13.3333333 M8,1.33333333 C4.324,1.33333333 1.33333333,4.324 1.33333333,8 C1.33333333,11.676 4.324,14.6666667 8,14.6666667 C11.676,14.6666667 14.6666667,11.676 14.6666667,8 C14.6666667,4.324 11.676,1.33333333 8,1.33333333" id="path-1"></path>
    </defs>
    <g id="Cross-selling" stroke="none" stroke-width="1" fill="none" fill-rule="evenodd">
        <g id="Desktop-/-Adoptions-Overharvest" transform="translate(-209.000000, -1973.000000)">
            <g id="Level-2-/-Adoptions" transform="translate(176.000000, 1674.000000)">
                <g id="Card-/-Crosseling-/-Colmena" transform="translate(0.000000, 60.000000)">
                    <g id="Info-box" transform="translate(0.000000, 236.000000)">
                        <g id="-Icon-/-Base-/-Line-/-x16" transform="translate(32.000000, 2.000000)">
                            <g id="Color-/-Fill-/-None">
                                <rect id="Color" x="0" y="0" width="16" height="16"></rect>
                            </g>
                            <g id="-Icon-/-Line-/-x16-/-question-mark-circle">
                                <mask id="mask-2" fill="white">
                                    <use xlink:href="#path-1"></use>
                                </mask>
                                <g></g>
                                <g id="Color-/-Fill-/-Support-04" mask="url(#mask-2)" fill="#27A7FF" fill-rule="evenodd">
                                    <rect id="Color" x="0" y="0" width="16" height="16"></rect>
                                </g>
                            </g>
                        </g>
                    </g>
                </g>
            </g>
        </g>
    </g>
</svg>