<?xml version="1.0" encoding="UTF-8"?>
<svg width="32px" height="32px" viewBox="0 0 32 32" version="1.1" xmlns="http://www.w3.org/2000/svg" xmlns:xlink="http://www.w3.org/1999/xlink">
    <!-- Generator: Sketch 61.2 (89653) - https://sketch.com -->
    <title>Icon / Flag / x32 / Bosnia and Herzegovina</title>
    <desc>Created with Sketch.</desc>
    <g id="Icon-/-Flag-/-x32-/-Bosnia-and-Herzegovina" stroke="none" stroke-width="1" fill="none" fill-rule="evenodd">
        <g id="Bosnia-and-Herzegovina" transform="translate(1.000000, 6.000000)" fill-rule="nonzero">
            <rect id="Rounded_Rectangle_7_copy-7" fill="#4758A9" x="1.09912079e-14" y="-1.61121116e-14" width="30" height="21" rx="2.68732394"></rect>
            <polygon id="Rectangle_1_copy_7" fill="#F6D660" points="5.87323944 0.0549295775 21.5070423 0.0549295775 21.5070423 19.9140845"></polygon>
            <path d="M3.46056338,2.06197183 C3.34647887,2.02816901 3.34225352,1.96056338 3.46056338,1.90985915 L3.88309859,1.72394366 C3.99942443,1.66230002 4.07715293,1.54650042 4.09014085,1.41549296 L4.09014085,0.992957746 C4.09014085,0.874647887 4.16197183,0.853521127 4.23802817,0.942253521 L4.52112676,1.28028169 C4.60681808,1.37342437 4.7397131,1.40664813 4.85915493,1.36478873 L5.31549296,1.18309859 C5.42535211,1.13661972 5.46760563,1.18309859 5.4,1.28450704 L5.13802817,1.70704225 C5.06991769,1.81554938 5.06991769,1.9534647 5.13802817,2.06197183 L5.41267606,2.42112676 C5.48450704,2.51408451 5.44647887,2.57323944 5.33239437,2.55211268 L4.88450704,2.46760563 C4.75596351,2.45065908 4.62787483,2.50189456 4.54647887,2.6028169 L4.31408451,2.92394366 C4.24225352,3.02112676 4.17464789,3.00422535 4.16197183,2.88591549 L4.11549296,2.46338028 C4.09360448,2.33644357 4.00466153,2.23132918 3.88309859,2.18873239 L3.46056338,2.06197183 Z" id="Shape_2_copy_4" fill="#FFFFFF"></path>
            <path d="M5.28591549,4.38591549 C5.17183099,4.35211268 5.16760563,4.28450704 5.28591549,4.23380282 L5.7084507,4.04788732 C5.82530692,3.98683395 5.90325224,3.87071135 5.91549296,3.73943662 L5.91549296,3.31690141 C5.91549296,3.19859155 5.98732394,3.17746479 6.06338028,3.26619718 L6.34647887,3.60422535 C6.4321702,3.69736803 6.56506521,3.73059179 6.68450704,3.68873239 L7.14084507,3.50704225 C7.25070423,3.46478873 7.28873239,3.50704225 7.22535211,3.6084507 L6.96338028,4.03098592 C6.8952698,4.13949304 6.8952698,4.27740837 6.96338028,4.38591549 L7.23802817,4.74507042 C7.30985915,4.83802817 7.27183099,4.8971831 7.15774648,4.87605634 L6.70985915,4.7915493 C6.58131562,4.77460276 6.45322694,4.82583824 6.37183099,4.92676056 L6.13943662,5.24788732 C6.06760563,5.34507042 6,5.32816901 5.98732394,5.20985915 L5.93661972,4.78732394 C5.91473125,4.66038723 5.82578831,4.55527285 5.70422535,4.51267606 L5.28591549,4.38591549 Z" id="Shape_2_copy_6" fill="#FFFFFF"></path>
            <path d="M7.11549296,6.70985915 C7.00140845,6.67605634 6.9971831,6.6084507 7.11549296,6.55774648 L7.53802817,6.37183099 C7.65488438,6.31077761 7.7328297,6.194655 7.74507042,6.06338028 L7.74507042,5.64084507 C7.74507042,5.52253521 7.81690141,5.50140845 7.89295775,5.59014085 L8.17605634,5.93239437 C8.26174766,6.02553706 8.39464268,6.05876079 8.51408451,6.01690141 L8.97042254,5.83521127 C9.08028169,5.78873239 9.11830986,5.83521127 9.05492958,5.93661972 L8.79295775,6.35915493 C8.72484727,6.46766206 8.72484727,6.60557738 8.79295775,6.71408451 L9.06760563,7.07323944 C9.13943662,7.16619718 9.10140845,7.22535211 8.98732394,7.20422535 L8.53943662,7.11971831 C8.41089308,7.10277177 8.28280441,7.15400725 8.20140845,7.25492958 L7.96901408,7.57605634 C7.90140845,7.67323944 7.82957746,7.65633803 7.81690141,7.53802817 L7.77042254,7.11549296 C7.74853407,6.98855624 7.65959113,6.88344186 7.53802817,6.84084507 L7.11549296,6.70985915 Z" id="Shape_2_copy_7" fill="#FFFFFF"></path>
            <path d="M8.94507042,9.03380282 C8.83098592,9 8.82676056,8.93239437 8.94507042,8.88169014 L9.36760563,8.69577465 C9.48446185,8.63472127 9.56240717,8.51859866 9.57464789,8.38732394 L9.57464789,7.96478873 C9.57464789,7.84647887 9.64647887,7.82535211 9.72253521,7.91408451 L10.0056338,8.25633803 C10.0913251,8.34948072 10.2242201,8.38270445 10.343662,8.34084507 L10.8,8.15915493 C10.9098592,8.11690141 10.9478873,8.15915493 10.884507,8.26056338 L10.6225352,8.68309859 C10.5544247,8.79160572 10.5544247,8.92952104 10.6225352,9.03802817 L10.8971831,9.3971831 C10.9690141,9.49014085 10.9309859,9.54929577 10.8169014,9.52816901 L10.3690141,9.44366197 C10.2404705,9.42671544 10.1123819,9.47795092 10.0309859,9.57887324 L9.79859155,9.9 C9.72676056,9.9971831 9.65915493,9.98028169 9.64647887,9.86197183 L9.59577465,9.43943662 C9.57474689,9.31210023 9.48547986,9.20660282 9.36338028,9.16478873 L8.94507042,9.03380282 Z" id="Shape_2_copy_8" fill="#FFFFFF"></path>
            <path d="M10.7746479,11.3577465 C10.6605634,11.3239437 10.656338,11.256338 10.7746479,11.2056338 L11.1971831,11.0197183 C11.3135089,10.9580746 11.3912374,10.8422751 11.4042254,10.7112676 L11.4042254,10.2887324 C11.4042254,10.1704225 11.4760563,10.1492958 11.5521127,10.2380282 L11.8352113,10.5802817 C11.9209026,10.6734244 12.0537976,10.7066481 12.1732394,10.6647887 L12.6295775,10.4830986 C12.7394366,10.4366197 12.7774648,10.4830986 12.7140845,10.584507 L12.4521127,11.0070423 C12.3840022,11.1155494 12.3840022,11.2534647 12.4521127,11.3619718 L12.7267606,11.7211268 C12.7985915,11.8140845 12.7605634,11.8732394 12.6464789,11.8521127 L12.1985915,11.7676056 C12.070048,11.7506591 11.9419593,11.8018946 11.8605634,11.9028169 L11.628169,12.2239437 C11.556338,12.3211268 11.4887324,12.3042254 11.4760563,12.1859155 L11.4253521,11.7633803 C11.4043244,11.6360439 11.3150573,11.5305465 11.1929577,11.4887324 L10.7746479,11.3577465 Z" id="Shape_2_copy_9-2" fill="#FFFFFF"></path>
            <path d="M12.6042254,13.6816901 C12.4901408,13.6478873 12.4859155,13.5802817 12.6042254,13.5295775 L13.0267606,13.343662 C13.1430864,13.2820183 13.2208149,13.1662187 13.2338028,13.0352113 L13.2338028,12.6126761 C13.2338028,12.4943662 13.3056338,12.4732394 13.3816901,12.5619718 L13.6647887,12.9042254 C13.7504801,12.997368 13.8833751,13.0305918 14.0028169,12.9887324 L14.4591549,12.8070423 C14.5690141,12.7605634 14.6070423,12.8070423 14.543662,12.9084507 L14.2816901,13.3309859 C14.2135797,13.439493 14.2135797,13.5774084 14.2816901,13.6859155 L14.556338,14.0450704 C14.628169,14.1380282 14.5901408,14.1971831 14.4760563,14.1760563 L14.028169,14.0915493 C13.8996255,14.0746028 13.7715368,14.1258382 13.6901408,14.2267606 L13.4577465,14.5478873 C13.3859155,14.6450704 13.3183099,14.628169 13.3056338,14.5098592 L13.2549296,14.0873239 C13.2330411,13.9603872 13.1440982,13.8552728 13.0225352,13.8126761 L12.6042254,13.6816901 Z" id="Shape_2_copy_10-2" fill="#FFFFFF"></path>
            <path d="M14.4338028,16.0098592 C14.3197183,15.9760563 14.315493,15.9084507 14.4338028,15.8577465 L14.856338,15.671831 C14.9726639,15.6101873 15.0503924,15.4943877 15.0633803,15.3633803 L15.0633803,14.9408451 C15.0633803,14.8225352 15.1352113,14.7971831 15.2112676,14.8901408 L15.4943662,15.2323944 C15.5800575,15.3255371 15.7129525,15.3587608 15.8323944,15.3169014 L16.2887324,15.1352113 C16.3985915,15.0887324 16.4366197,15.1352113 16.3732394,15.2366197 L16.1112676,15.6591549 C16.0431571,15.7676621 16.0431571,15.9055774 16.1112676,16.0140845 L16.3859155,16.3732394 C16.4577465,16.4661972 16.4197183,16.5253521 16.3056338,16.5042254 L15.8577465,16.4197183 C15.7292029,16.4027718 15.6011143,16.4540073 15.5197183,16.5549296 L15.2873239,16.8760563 C15.215493,16.9732394 15.1478873,16.956338 15.1352113,16.8380282 L15.084507,16.415493 C15.0626186,16.2885562 14.9736756,16.1834419 14.8521127,16.1408451 L14.4338028,16.0098592 Z" id="Shape_2_copy_11-2" fill="#FFFFFF"></path>
            <path d="M16.0014085,18 C15.8873239,17.9661972 15.8830986,17.8985915 16.0014085,17.8478873 L16.4239437,17.6619718 C16.5402695,17.6003282 16.617998,17.4845286 16.6309859,17.3535211 L16.6309859,16.9309859 C16.6309859,16.8126761 16.7028169,16.7915493 16.7788732,16.8802817 L17.0619718,17.2225352 C17.1476632,17.3156779 17.2805582,17.3489016 17.4,17.3070423 L17.856338,17.1253521 C17.9661972,17.0788732 18.0042254,17.1253521 17.9450704,17.2267606 L17.6830986,17.6492958 C17.6149881,17.7578029 17.6149881,17.8957182 17.6830986,18.0042254 L17.9577465,18.3633803 C18.0295775,18.456338 17.9957746,18.515493 17.8774648,18.4943662 L17.4295775,18.4098592 C17.3010339,18.3929126 17.1729453,18.4441481 17.0915493,18.5450704 L16.8591549,18.8661972 C16.7915493,18.9633803 16.7197183,18.9464789 16.7070423,18.828169 L16.656338,18.4056338 C16.6344496,18.2786971 16.5455066,18.1735827 16.4239437,18.1309859 L16.0014085,18 Z" id="Shape_2_copy_12-2" fill="#FFFFFF"></path>
        </g>
    </g>
</svg>