<?xml version="1.0" encoding="UTF-8"?>
<svg width="32px" height="32px" viewBox="0 0 32 32" version="1.1" xmlns="http://www.w3.org/2000/svg" xmlns:xlink="http://www.w3.org/1999/xlink">
    <!-- Generator: Sketch 61.2 (89653) - https://sketch.com -->
    <title>Icon / Flag / x32 / Switzerland </title>
    <desc>Created with Sketch.</desc>
    <g id="Icon-/-Flag-/-x32-/-Switzerland-" stroke="none" stroke-width="1" fill="none" fill-rule="evenodd">
        <g id="Switzerland" transform="translate(1.000000, 6.000000)" fill-rule="nonzero">
            <rect id="Rounded_Rectangle_7_copy-32" fill="#ED5565" x="0" y="0" width="30" height="21" rx="2.68732394"></rect>
            <path d="M19.1666667,8.83333333 L16.6666667,8.83333333 L16.6666667,6.33333333 C16.6666667,5.87309604 16.2935706,5.5 15.8333333,5.5 L14.1666667,5.5 C13.7064294,5.5 13.3333333,5.87309604 13.3333333,6.33333333 L13.3333333,8.83333333 L10.8333333,8.83333333 C10.373096,8.83333333 10,9.20642937 10,9.66666667 L10,11.3333333 C10,11.7935706 10.373096,12.1666667 10.8333333,12.1666667 L13.3333333,12.1666667 L13.3333333,14.6666667 C13.3333333,15.126904 13.7064294,15.5 14.1666667,15.5 L15.8333333,15.5 C16.2935706,15.5 16.6666667,15.126904 16.6666667,14.6666667 L16.6666667,12.1666667 L19.1666667,12.1666667 C19.626904,12.1666667 20,11.7935706 20,11.3333333 L20,9.66666667 C20,9.20642937 19.626904,8.83333333 19.1666667,8.83333333 Z" id="Shape" fill="#FFFFFF"></path>
        </g>
    </g>
</svg>