<?xml version="1.0" encoding="UTF-8"?>
<svg width="32px" height="32px" viewBox="0 0 32 32" version="1.1" xmlns="http://www.w3.org/2000/svg" xmlns:xlink="http://www.w3.org/1999/xlink">
    <!-- Generator: Sketch 61.2 (89653) - https://sketch.com -->
    <title>Icon / Flag / x32 / Colombia</title>
    <desc>Created with Sketch.</desc>
    <g id="Icon-/-Flag-/-x32-/-Colombia" stroke="none" stroke-width="1" fill="none" fill-rule="evenodd">
        <g id="Colombia" transform="translate(1.000000, 6.000000)" fill-rule="nonzero">
            <path d="M27.27,-3.33180662e-06 L2.72571429,-3.33180662e-06 C1.22034385,-3.33180662e-06 0,1.23802967 0,2.76521654 L0,9.99999667 L30,9.99999667 L30,2.76086872 C29.9988642,2.02748744 29.7106018,1.32460136 29.1986273,0.806837862 C28.6866528,0.289074364 27.9929046,-0.00115392518 27.27,-3.33180662e-06 Z" id="Shape" fill="#F6BB42"></path>
            <rect id="Rectangle-path" fill="#4758A9" x="0" y="9.99999667" width="30" height="5.5"></rect>
            <path d="M0,18.0758283 C-0.00226769298,18.8513158 0.284486343,19.5958111 0.796831821,20.1445962 C1.3091773,20.6933813 2.0048783,21.0012162 2.73001228,20.9999967 L27.2742869,20.9999967 C28.7796567,20.9999967 30,19.6949039 30,18.084995 L30,15.4999967 L0,15.4999967 L0,18.0758283 Z" id="Shape" fill="#ED5565"></path>
        </g>
    </g>
</svg>