<?xml version="1.0" encoding="UTF-8"?>
<svg width="32px" height="32px" viewBox="0 0 32 32" version="1.1" xmlns="http://www.w3.org/2000/svg" xmlns:xlink="http://www.w3.org/1999/xlink">
    <!-- Generator: Sketch 61.2 (89653) - https://sketch.com -->
    <title>Icon / Flag / x32 / Cyprus </title>
    <desc>Created with Sketch.</desc>
    <g id="Icon-/-Flag-/-x32-/-Cyprus-" stroke="none" stroke-width="1" fill="none" fill-rule="evenodd">
        <g id="Cyprus" transform="translate(1.000000, 6.000000)" fill-rule="nonzero">
            <path d="M27.2738963,0 L2.72610373,0 C1.22051821,0 0,1.27254413 0,2.84230687 L0,18.1576931 C0,18.9115198 0.287213673,19.6344717 0.798457295,20.1675076 C1.30970092,20.7005435 2.00309607,21 2.72610373,21 L27.2738963,21 C27.9969039,21 28.6902991,20.7005435 29.2015427,20.1675076 C29.7127863,19.6344717 30,18.9115198 30,18.1576931 L30,2.84230687 C30,1.27254413 28.7794818,0 27.2738963,0 Z" id="Shape" fill="#FFFFFF"></path>
            <path d="M8.3172335,7.94535759 C8.62258652,7.46325036 9.17931088,7.20135932 9.74540252,7.2735266 C9.99439364,7.35710115 10.2484219,7.42484204 10.5059659,7.4763435 C10.9068934,7.50487832 11.2824451,7.27819397 11.4439941,6.91014632 C11.6299096,6.44113224 11.4228673,5.862259 11.6763884,5.43127308 C11.7343317,5.31288708 11.8494453,5.23294714 11.9806138,5.22000548 C12.0666342,5.22789011 12.1493708,5.25692048 12.2214589,5.30451252 C13.3552478,5.87546284 14.6355494,6.089092 15.8932898,5.91718857 C17.1427136,5.74418238 18.366923,5.42217133 19.5397687,4.95803364 C20.8013738,4.56106743 21.9932111,3.96942569 23.0721631,3.20451252 C23.2792053,3.04394914 23.6172335,2.88761111 23.7566701,3.11155477 C23.8020846,3.20041111 23.8111756,3.30344286 23.7820222,3.39887871 C23.59737,3.92055068 23.2083836,4.34462208 22.7045574,4.5735266 C22.1277375,4.91342487 21.5192422,5.19644597 20.887656,5.41859702 C20.4954343,5.51462022 20.1318234,5.70294459 19.8270927,5.9678928 C19.6863228,6.16997766 19.521761,6.35440029 19.3369518,6.51718857 C19.0792053,6.68197731 18.7158251,6.6650759 18.5172335,6.89324491 C18.3553118,7.16837204 18.3553118,7.50966708 18.5172335,7.78479421 C18.6761005,8.0577787 18.7273325,8.38023911 18.6608955,8.68901956 C18.4918814,9.11155477 17.9130082,9.17493505 17.4482194,9.15803364 C16.9834307,9.14113224 16.4003321,9.21718857 16.2566701,9.66085055 C16.2265018,9.83003005 16.2053452,10.0006932 16.1932898,10.1721182 C16.087656,10.6707097 15.4961067,10.9031041 14.9848391,10.9073294 C14.4781606,10.8472934 13.9661655,10.8472934 13.459487,10.9073294 C13.028049,11.0173778 12.6675328,11.3129082 12.47498,11.7143717 C12.3566701,11.9678928 12.2510363,12.305921 11.9721631,12.3354984 C11.6130082,12.377752 11.4777969,11.8876111 11.2369518,11.6171886 C10.9961808,11.3859947 10.6702494,11.2651093 10.3369518,11.2833858 C10.0076437,11.3022296 9.67752752,11.3022296 9.34821942,11.2833858 C8.71802087,11.1650071 8.16712724,10.78598 7.83131801,10.2397238 C7.48756567,9.69143817 7.22431639,9.09663712 7.04962787,8.4735266 C6.98345738,8.32419028 6.98345738,8.15384884 7.04962787,8.00451252 C7.04962787,8.00451252 7.25667012,7.92423083 7.5059659,8.18197731 C7.75526167,8.43972378 8.14399407,8.20310407 8.3172335,7.94535759 Z" id="Shape" fill="#FFAD54"></path>
            <path d="M19.9309859,12.5661972 C19.9375465,12.4804069 19.9375465,12.3942409 19.9309859,12.3084507 C19.9254668,12.249763 19.8856223,12.1999573 19.8295775,12.1816901 C19.798791,12.1767185 19.7674062,12.1767185 19.7366197,12.1816901 C19.6333634,12.189054 19.5347161,12.2273351 19.4535211,12.2915493 C19.3705526,12.3510209 19.2928062,12.4174587 19.2211268,12.4901408 C19.1359698,12.5743373 19.0555638,12.6632071 18.9802817,12.756338 L18.9591549,12.7859155 L18.9338028,12.8323944 L18.9338028,12.7901408 L18.9338028,12.6422535 L18.9338028,12.5915493 C18.9365775,12.5420516 18.9143664,12.4944563 18.8746479,12.4647887 C18.835743,12.4360621 18.7852503,12.4281726 18.7394366,12.443662 C18.5239257,12.5123332 18.373909,12.7078607 18.3633803,12.9338028 C18.3633803,13.0521127 18.3633803,13.1873239 18.3633803,13.2929577 L18.3253521,13.2676056 C18.2803559,13.2458089 18.2315774,13.2328969 18.1816901,13.2295775 L18.1690141,13.2295775 C18.0031331,13.2454444 17.8507266,13.3277439 17.7464789,13.4577465 C17.5934468,13.6374767 17.4745887,13.8436885 17.3957746,14.0661972 C17.3649881,14.0612256 17.3336034,14.0612256 17.3028169,14.0661972 C17.1843944,14.069614 17.0766555,14.1355437 17.0197183,14.2394366 C16.9663185,14.2343406 16.9125548,14.2343406 16.8591549,14.2394366 L16.8211268,14.2394366 C16.4435312,14.2562351 16.1117517,14.4951164 15.9760563,14.8478873 C15.9644915,14.8017905 15.9314776,14.7640604 15.8873239,14.7464789 C15.8523528,14.7326106 15.8150853,14.7254438 15.7774648,14.7253521 C15.6614411,14.7293625 15.555834,14.7933668 15.4985915,14.8943662 L15.4521127,14.8732394 C15.4100201,14.8680245 15.3674447,14.8680245 15.3253521,14.8732394 C15.1478873,14.8732394 14.6915493,14.9577465 14.2816901,15.7183099 C14.2825928,15.7564375 14.2578457,15.7904449 14.2212888,15.8013132 C14.1847318,15.8121815 14.1454255,15.797217 14.1253521,15.7647887 L13.8253521,15.8957746 L13.5169014,15.7647887 C13.4733393,15.7415022 13.4210269,15.7415022 13.3774648,15.7647887 C13.3813358,15.7452604 13.3813358,15.7251621 13.3774648,15.7056338 C12.9549296,14.928169 12.5070423,14.8605634 12.3295775,14.8605634 C12.2693181,14.8554893 12.2089319,14.8687448 12.156338,14.8985915 C12.0969327,14.7956629 11.9878402,14.7314908 11.8690141,14.7295775 C11.8342212,14.7305102 11.7998764,14.7376653 11.7676056,14.7507042 C11.723452,14.7682858 11.6904381,14.8060159 11.6788732,14.8521127 C11.5431779,14.4993417 11.2113984,14.2604605 10.8338028,14.243662 L10.7957746,14.243662 C10.7537996,14.236802 10.7109892,14.236802 10.6690141,14.243662 L10.6267606,14.243662 C10.5687704,14.1361842 10.4573167,14.0683428 10.3352113,14.0661972 C10.3352113,14.0661972 10.2760563,14.0661972 10.2507042,14.0661972 C10.1720645,13.8436083 10.0531888,13.6373661 9.9,13.4577465 C9.79575228,13.3277439 9.64334577,13.2454444 9.47746479,13.2295775 L9.43098592,13.2295775 C9.37663631,13.23345 9.32354873,13.2477981 9.27464789,13.271831 L9.23661972,13.3014085 C9.23661972,13.2042254 9.23661972,13.0732394 9.23661972,12.9422535 C9.22710811,12.7245109 9.08684218,12.5341499 8.88169014,12.4605634 C8.83204306,12.4361392 8.77291487,12.4414716 8.72843856,12.474384 C8.68396225,12.5072965 8.66157824,12.5622832 8.67042254,12.6169014 C8.67042254,12.6169014 8.67042254,12.7056338 8.69577465,12.8028169 L8.69577465,12.8492958 L8.65774648,12.7816901 C8.57864915,12.6839545 8.49400268,12.5908434 8.40422535,12.5028169 C8.33263107,12.4300433 8.25487652,12.3635985 8.17183099,12.3042254 C8.08946903,12.2392173 7.98923037,12.2008907 7.88450704,12.1943662 C7.85510801,12.1897715 7.82517368,12.1897715 7.79577465,12.1943662 C7.73907697,12.2141794 7.69934565,12.265499 7.6943662,12.3253521 C7.68780558,12.4111424 7.68780558,12.4973084 7.6943662,12.5830986 C7.69618648,12.7546002 7.75405906,12.9207985 7.85915493,13.056338 C7.93437701,13.1384269 8.01954097,13.2108163 8.11267606,13.271831 L7.92676056,13.271831 C7.8794877,13.266007 7.83230337,13.2833079 7.8,13.3183099 C7.77057342,13.3518469 7.7609449,13.3983847 7.77464789,13.4408451 C7.78689545,13.5236652 7.80961242,13.6045945 7.84225352,13.6816901 C7.90225428,13.8475188 8.0422522,13.9716079 8.21408451,14.0112676 C8.33130799,14.0319502 8.44999386,14.0432536 8.56901408,14.0450704 C8.567505,14.0562875 8.567505,14.0676562 8.56901408,14.0788732 C8.56170258,14.1465111 8.57188715,14.2148932 8.59859155,14.2774648 C8.60965931,14.3030596 8.62385168,14.3271866 8.64084507,14.3492958 C8.59456458,14.3685164 8.56116634,14.4098666 8.55211268,14.4591549 C8.54970951,14.4858615 8.54970951,14.51273 8.55211268,14.5394366 C8.55983375,14.5907286 8.57857323,14.6397396 8.60704225,14.6830986 C8.71170368,14.8185012 8.86175831,14.9115351 9.02957746,14.9450704 C9.2738763,14.9985483 9.52586577,15.0071388 9.77323944,14.9704225 C9.7690871,15.0111621 9.7690871,15.0522182 9.77323944,15.0929577 C9.78373069,15.1456388 9.80693932,15.1949572 9.84084507,15.2366197 C9.85635262,15.2563249 9.8748938,15.2734399 9.89577465,15.2873239 C9.88744589,15.3352788 9.90324676,15.3842615 9.93802817,15.4183099 C10.1966808,15.6460571 10.5315113,15.768225 10.8760563,15.7605634 L10.8971831,15.7605634 C11.0057796,15.763078 11.1137083,15.7429313 11.2140845,15.7014085 C11.2069132,15.756104 11.2069132,15.8115016 11.2140845,15.8661972 C11.2269958,15.9255901 11.2545986,15.9807958 11.2943662,16.0267606 C11.349691,16.0870072 11.4280711,16.1208183 11.5098592,16.1197183 C11.5750344,16.120658 11.6377107,16.0946702 11.6830986,16.0478873 C11.6941474,16.0835862 11.7183014,16.1137787 11.7507042,16.1323944 C11.9708811,16.2627951 12.2215816,16.332758 12.4774648,16.3352113 C12.7214575,16.3361293 12.9610663,16.270383 13.1704225,16.1450704 C13.19163,16.1312633 13.2090576,16.1123833 13.2211268,16.0901408 C13.2338558,16.1058623 13.2496749,16.1188051 13.2676056,16.128169 L13.0056338,16.3183099 C12.9695599,16.3453359 12.9477808,16.3873384 12.9464789,16.4323944 C12.9454683,16.4782118 12.9657562,16.5219089 13.0014085,16.5507042 L13.1323944,16.6647887 L13.1577465,16.6859155 C13.1529984,16.7251864 13.1641808,16.7647227 13.1887949,16.7956888 C13.213409,16.8266549 13.2494028,16.8464695 13.2887324,16.8507042 L13.3690141,16.8507042 C13.3899065,16.8551545 13.4115019,16.8551545 13.4323944,16.8507042 L13.4873239,16.8126761 L13.5507042,16.7492958 L13.7070423,16.5591549 L13.8,16.4408451 L13.8929577,16.5591549 L14.0535211,16.7535211 L14.1169014,16.8169014 L14.171831,16.8549296 C14.1927479,16.8591407 14.2142944,16.8591407 14.2352113,16.8549296 L14.315493,16.8549296 C14.3548226,16.8506948 14.3908163,16.8308803 14.4154304,16.7999142 C14.4400445,16.7689481 14.451227,16.7294118 14.4464789,16.6901408 L14.471831,16.6690141 L14.6112676,16.5464789 C14.6438282,16.5183862 14.6625476,16.4775116 14.6625476,16.434507 C14.6625476,16.3915025 14.6438282,16.3506279 14.6112676,16.3225352 L14.3535211,16.1323944 C14.3643974,16.1086091 14.3687715,16.082365 14.3661972,16.056338 C14.3782664,16.0785805 14.395694,16.0974605 14.4169014,16.1112676 C14.6263423,16.2363818 14.8658949,16.3021128 15.1098592,16.3014085 C15.3628679,16.2974795 15.6104681,16.2275689 15.828169,16.0985915 C15.8597617,16.0809966 15.8838127,16.052436 15.8957746,16.0183099 C15.9398617,16.0644421 16.0009783,16.0904166 16.0647887,16.0901408 C16.1455925,16.0866459 16.22229,16.0535607 16.2802817,15.9971831 C16.3202021,15.9513205 16.3478255,15.8960736 16.3605634,15.8366197 C16.3676868,15.7819211 16.3676868,15.7265296 16.3605634,15.671831 C16.4622837,15.7138139 16.5716869,15.7339671 16.6816901,15.7309859 C17.0262352,15.7386476 17.3610657,15.6164797 17.6197183,15.3887324 C17.6470507,15.3541852 17.6564503,15.3087538 17.6450704,15.2661972 C17.682702,15.2560655 17.7174342,15.2372522 17.7464789,15.2112676 C17.7801005,15.169427 17.8032749,15.1201813 17.8140845,15.0676056 C17.8181511,15.0268618 17.8181511,14.9858143 17.8140845,14.9450704 C18.0614582,14.9817867 18.3134476,14.9731961 18.5577465,14.9197183 C18.7255656,14.886183 18.8756203,14.7931491 18.9802817,14.6577465 C19.0087507,14.6143875 19.0274902,14.5653765 19.0352113,14.5140845 C19.0352113,14.5140845 19.0352113,14.4633803 19.0352113,14.4549296 C19.0340283,14.3965669 18.9995504,14.3440291 18.9464789,14.3197183 C18.9631808,14.2989287 18.977364,14.2762357 18.9887324,14.2521127 C19.0134913,14.1949348 19.0236549,14.132501 19.0183099,14.0704225 C19.0213161,14.0536548 19.0213161,14.036486 19.0183099,14.0197183 C19.1387298,14.0178944 19.2588192,14.0065918 19.3774648,13.9859155 C19.5492971,13.9462557 19.689295,13.8221667 19.7492958,13.656338 C19.794454,13.5584608 19.8161559,13.4513983 19.8126761,13.343662 C19.792269,13.2819676 19.7339801,13.2408226 19.6690141,13.2422535 L19.4830986,13.2422535 C19.5760528,13.1809974 19.6611885,13.108632 19.7366197,13.0267606 C19.8492845,12.898157 19.9174498,12.7366349 19.9309859,12.5661972 Z" id="Shape" fill="#52C162"></path>
        </g>
    </g>
</svg>