<?xml version="1.0" encoding="UTF-8"?>
<svg width="32px" height="32px" viewBox="0 0 32 32" version="1.1" xmlns="http://www.w3.org/2000/svg" xmlns:xlink="http://www.w3.org/1999/xlink">
    <!-- Generator: Sketch 61.2 (89653) - https://sketch.com -->
    <title>Icon / Flag / x32 / Czech Republic </title>
    <desc>Created with Sketch.</desc>
    <g id="Icon-/-Flag-/-x32-/-Czech-Republic-" stroke="none" stroke-width="1" fill="none" fill-rule="evenodd">
        <g id="Czech-Republic" transform="translate(1.000000, 6.000000)" fill-rule="nonzero">
            <path d="M27.2742857,0 L2.72571429,0 C1.22034385,0 0,1.24576768 0,2.7825 L0,10.5 L30,10.5 L30,2.7825 C30,1.24576768 28.7796561,0 27.2742857,0 Z" id="Shape" fill="#FFFFFF"></path>
            <path d="M0.00428571429,18.0952588 C0.00428571429,19.6995031 1.22462957,21 2.73,21 L27.2742857,21 C27.9971901,21 28.6904862,20.6939656 29.2016568,20.149221 C29.7128274,19.6044764 30,18.8656441 30,18.0952588 L30,10.5 L0,10.5 L0.00428571429,18.0952588 Z" id="Shape" fill="#ED5565"></path>
            <path d="M2.5,0 C1,0 -0.00168504274,1.37122548 -5.08696375e-05,2.197787 L-5.08696375e-05,18.7876902 C0.000512656401,19.6228472 1,21 2.5,21 L12,10.5 L2.5,0 Z" id="Shape" fill="#4657AF"></path>
        </g>
    </g>
</svg>