<?xml version="1.0" encoding="UTF-8"?>
<svg width="32px" height="32px" viewBox="0 0 32 32" version="1.1" xmlns="http://www.w3.org/2000/svg" xmlns:xlink="http://www.w3.org/1999/xlink">
    <!-- Generator: Sketch 61.2 (89653) - https://sketch.com -->
    <title>Icon / Flag / x32 / France </title>
    <desc>Created with Sketch.</desc>
    <g id="Icon-/-Flag-/-x32-/-France-" stroke="none" stroke-width="1" fill="none" fill-rule="evenodd">
        <g id="France" transform="translate(1.000000, 6.000000)" fill-rule="nonzero">
            <path d="M2.72260274,0.00446808511 C1.21895077,0.00446808511 0,1.27674146 0,2.84617021 L0,18.1582979 C0,19.7277266 1.21895077,21 2.72260274,21 L10,21 C10,14 10,7 10,0 L2.72260274,0.00446808511 Z" id="Shape" fill="#4758A9"></path>
            <path d="M10,0 C10,7 10,14 10,21 L20,21 C20,14 20,7 20,0 L10,0 Z" id="Shape" fill="#FFFFFF"></path>
            <path d="M27.2715548,0 L20,0 C20,7 20,14 20,21 L27.2715548,21 C28.7784316,21 30,19.7277266 30,18.1582979 L30,2.84617021 C30.0011356,2.0917301 29.7141784,1.36778365 29.2023729,0.833894366 C28.6905672,0.300005087 27.9959265,0 27.2715548,0 Z" id="Shape" fill="#ED5565"></path>
        </g>
    </g>
</svg>