<?xml version="1.0" encoding="UTF-8"?>
<svg width="32px" height="32px" viewBox="0 0 32 32" version="1.1" xmlns="http://www.w3.org/2000/svg" xmlns:xlink="http://www.w3.org/1999/xlink">
    <!-- Generator: Sketch 61.2 (89653) - https://sketch.com -->
    <title>Icon / Flag / x32 / UK </title>
    <desc>Created with Sketch.</desc>
    <g id="Icon-/-Flag-/-x32-/-UK-" stroke="none" stroke-width="1" fill="none" fill-rule="evenodd">
        <g id="UK" transform="translate(1.000000, 6.000000)" fill-rule="nonzero">
            <rect id="Rounded_Rectangle_7_copy-40" fill="#4658A9" x="0" y="0" width="30" height="21" rx="2.68732394"></rect>
            <path d="M12.9870818,0 L11.6392845,0 L11.6392845,6.39489633 L0.874130507,0.712759 C0.273966,1.21383983 0,1.9 0.0129181848,2.7062201 L8.28055648,6.99330144 L5.26631335,6.99330144 L0,4.26475279 L0,5.05518341 L3.75919179,7.00223285 L0,7.00223285 L0,8.4 L13,8.4 L12.9870818,0 Z" id="Shape" fill="#FFFFFF"></path>
            <path d="M29.0760118,20.30732 C29.5871653,20.01973 30,19.2 29.9828891,18.334196 L21.6755512,13.9978469 L24.6699572,13.9978469 L30,16.7829454 L30,16.0006144 L26.1500494,13.9978469 L30,13.9978469 L30,12.598592 L17,12.598592 L17,20.998592 L18.3389273,20.998592 L18.3389273,14.596889 L29.0760118,20.30732 Z" id="Shape" fill="#FFFFFF"></path>
            <path d="M18.234977,0 L16.9,0 L16.9,8.4 L30,8.4 L30,7.00074508 L26.1242604,7.00074508 L30,4.99797765 L30,2.95497605 C30,2.8521554 30,2.75380522 30,2.65545503 L21.6327087,6.99627461 L18.6182446,6.99627461 L29.643524,1.32325705 C29.5215108,1.12287387 29.376947,0.938285485 29.212886,0.773390101 L18.234977,6.40170303 L18.234977,0 Z" id="Shape" fill="#FFFFFF"></path>
            <path d="M0,12.6 L0,14.0037254 L3.7641791,14.0037254 L0,15.9528473 L0,18.0271421 C0,18.1165514 0,18.2014902 0,18.2908994 L8.27860697,13.9992549 L11.2968491,13.9992549 L0.41,19.727568 C0.53181749,19.9295671 0.615401101,20.0337718 0.78,20.2 L11.6504146,14.598297 L11.6504146,21 L13,21 L13,12.6 L0,12.6 Z" id="Shape" fill="#FFFFFF"></path>
            <polygon id="Shape" fill="#EC5565" points="30 12.5991058 30 8.40089419 16.9628571 8.40089419 16.9628571 0 12.9342857 0 12.9342857 8.40089419 0 8.40089419 0 12.5991058 12.9342857 12.5991058 12.9342857 21 16.9628571 21 16.9628571 12.5991058"></polygon>
            <path d="M8.285915,7.00422503 L-2.27373675e-13,2.647887 C-2.27373675e-13,2.69859123 -2.27373675e-13,3.24596223 -2.27373675e-13,4.29 L5.24084463,6.99999968 L8.285915,7.00422503 Z" id="Shape" fill="#EC5565"></path>
            <path d="M21.639841,7 L30,2.65 C30,2 29.9037427,1.6534988 29.654824,1.3 L18.6,6.99213218 L21.639841,7 Z" id="Shape" fill="#EC5565"></path>
            <path d="M21.7,14 L30.005634,18.402817 C30.0090596,18.3371339 30.0090596,17.7803263 30.005634,16.732394 L24.6577465,14 L21.7,14 Z" id="Shape" fill="#EC5565"></path>
            <path d="M8.28591506,14.021127 L0,18.277465 C0,19 0.178515041,19.3679481 0.42,19.75 L11.2478869,14.021127 L8.28591506,14.021127 Z" id="Shape" fill="#EC5565"></path>
        </g>
    </g>
</svg>