<?xml version="1.0" encoding="UTF-8"?>
<svg width="32px" height="32px" viewBox="0 0 32 32" version="1.1" xmlns="http://www.w3.org/2000/svg" xmlns:xlink="http://www.w3.org/1999/xlink">
    <title>Icon / Flag / x32 / Granade</title>
    <g id="Icon-/-Flag-/-x32-/-Granade" stroke="none" stroke-width="1" fill="none" fill-rule="evenodd">
        <g id="Granade" transform="translate(1.000000, 6.000000)" fill-rule="nonzero">
            <rect id="Rounded_Rectangle_7_copy_3" fill="#ED5565" x="0" y="0" width="30" height="20.14" rx="2.73"></rect>
            <rect id="Rectangle-path" fill="#F6D660" x="2.14" y="2.14" width="25.72" height="15.86" rx="1.31"></rect>
            <path d="M10,1.69 C9.94,1.74 9.91,1.69 9.92,1.64 L9.99,1.38 C10.0041011,1.30263622 9.97769916,1.22343036 9.92,1.17 L9.68,1 C9.62,0.95 9.68,0.91 9.68,0.91 L10,0.91 C10.0732789,0.899609425 10.1348288,0.849600074 10.16,0.78 L10.25,0.49 C10.25,0.42 10.31,0.42 10.33,0.49 L10.43,0.78 C10.4631966,0.850205089 10.5324274,0.896358935 10.61,0.9 L10.89,0.9 C10.96,0.9 10.97,0.9 10.89,0.99 L10.68,1.17 C10.6223095,1.22327599 10.5991633,1.30428765 10.62,1.38 L10.69,1.62 C10.69,1.68 10.69,1.71 10.61,1.68 L10.39,1.54 C10.3219318,1.50070079 10.2380682,1.50070079 10.17,1.54 L10,1.69 Z" id="Shape_2_copy_30" fill="#F6D660"></path>
            <path d="M14.67,1.69 C14.61,1.74 14.57,1.69 14.59,1.64 L14.65,1.38 C14.6686111,1.30431373 14.6457871,1.22442966 14.59,1.17 L14.39,1 C14.34,0.95 14.39,0.91 14.39,0.91 L14.66,0.91 C14.7361526,0.900957421 14.8013207,0.851122999 14.83,0.78 L15,0.49 C15,0.42 15.05,0.42 15.08,0.49 L15.18,0.78 C15.2113226,0.851798474 15.2816773,0.898701617 15.36,0.9 L15.63,0.9 C15.7,0.9 15.72,0.9 15.63,0.99 L15.42,1.17 C15.3713175,1.22842615 15.3495325,1.30467386 15.36,1.38 L15.43,1.62 C15.43,1.68 15.43,1.71 15.36,1.68 L15.13,1.54 C15.0619318,1.50070079 14.9780682,1.50070079 14.91,1.54 L14.67,1.69 Z" id="Shape_2_copy_31" fill="#F6D660"></path>
            <path d="M19.38,1.69 C19.32,1.74 19.29,1.69 19.3,1.64 L19.37,1.38 C19.3841011,1.30263622 19.3576992,1.22343036 19.3,1.17 L19.11,1 C19.05,0.95 19.06,0.91 19.11,0.91 L19.38,0.91 C19.4532789,0.899609425 19.5148288,0.849600074 19.54,0.78 L19.63,0.49 C19.63,0.42 19.69,0.42 19.71,0.49 L19.81,0.78 C19.84275,0.855163266 19.918057,0.902725604 20,0.9 L20.27,0.9 C20.35,0.9 20.36,0.9 20.27,0.99 L20.06,1.17 C20.0023095,1.22327599 19.9791633,1.30428765 20,1.38 L20.07,1.62 C20.07,1.68 20.07,1.71 19.99,1.68 L19.77,1.54 C19.7019318,1.50070079 19.6180682,1.50070079 19.55,1.54 L19.38,1.69 Z" id="Shape_2_copy_32" fill="#F6D660"></path>
            <path d="M10,19.69 C9.94,19.69 9.91,19.69 9.92,19.64 L9.99,19.38 C10.0041011,19.3026362 9.97769916,19.2234304 9.92,19.17 L9.68,19 C9.62,18.95 9.68,18.91 9.68,18.91 L10,18.91 C10.0732789,18.8996094 10.1348288,18.8496001 10.16,18.78 L10.25,18.49 C10.25,18.43 10.31,18.42 10.33,18.49 L10.43,18.78 C10.4631966,18.8502051 10.5324274,18.8963589 10.61,18.9 L10.89,18.9 C10.96,18.9 10.97,18.9 10.89,18.99 L10.68,19.17 C10.6224955,19.2275589 10.5996799,19.3112162 10.62,19.39 L10.69,19.62 C10.69,19.69 10.69,19.71 10.61,19.68 L10.39,19.54 C10.3219318,19.5007008 10.2380682,19.5007008 10.17,19.54 L10,19.69 Z" id="Shape_2_copy_33" fill="#F6D660"></path>
            <path d="M14.67,19.69 C14.61,19.69 14.57,19.69 14.59,19.64 L14.65,19.38 C14.6686111,19.3043137 14.6457871,19.2244297 14.59,19.17 L14.39,19 C14.34,18.95 14.39,18.91 14.39,18.91 L14.66,18.91 C14.7361526,18.9009574 14.8013207,18.851123 14.83,18.78 L14.92,18.49 C14.92,18.43 14.97,18.42 15,18.49 L15.1,18.78 C15.1313226,18.8517985 15.2016773,18.8987016 15.28,18.9 L15.55,18.9 C15.62,18.9 15.64,18.9 15.55,18.99 L15.34,19.17 C15.2907974,19.2320634 15.2691192,19.3115502 15.28,19.39 L15.35,19.62 C15.35,19.69 15.35,19.71 15.28,19.68 L15.05,19.54 C14.9819318,19.5007008 14.8980682,19.5007008 14.83,19.54 L14.67,19.69 Z" id="Shape_2_copy_33-2" fill="#F6D660"></path>
            <path d="M19.38,19.69 C19.32,19.69 19.29,19.69 19.3,19.64 L19.37,19.38 C19.3841011,19.3026362 19.3576992,19.2234304 19.3,19.17 L19.11,19 C19.05,18.95 19.06,18.91 19.11,18.91 L19.38,18.91 C19.4532789,18.8996094 19.5148288,18.8496001 19.54,18.78 L19.63,18.49 C19.63,18.43 19.69,18.42 19.71,18.49 L19.81,18.78 C19.8413226,18.8517985 19.9116773,18.8987016 19.99,18.9 L20.26,18.9 C20.34,18.9 20.35,18.9 20.26,18.99 L20.05,19.17 C19.9924955,19.2275589 19.9696799,19.3112162 19.99,19.39 L20.06,19.62 C20.06,19.69 20.06,19.71 19.98,19.68 L19.76,19.54 C19.6919318,19.5007008 19.6080682,19.5007008 19.54,19.54 L19.38,19.69 Z" id="Shape_2_copy_33-3" fill="#F6D660"></path>
            <path d="M0.54,1.11 C0.189681719,1.56982867 0,2.13192967 0,2.71 L0,17.4 C0.00216235233,17.9777087 0.191642747,18.5391321 0.54,19 L15,10 L0.54,1.11 Z" id="Shape" fill="#52C162"></path>
            <path d="M30.0001337,2.71 C29.9921146,2.13163802 29.7993854,1.57097133 29.45,1.11 L15,10.07 L29.45,19.07 C29.8123522,18.5968012 30.0059625,18.0159704 30.0001337,17.42 L30.0001337,2.71 Z" id="Shape-2" fill="#52C162"></path>
            <circle id="Oval" fill="#ED5565" cx="15" cy="10.07" r="2.79"></circle>
            <path d="M14.22,11.53 C14.08,11.62 14,11.53 14.04,11.4 L14.19,10.79 C14.2211595,10.6072304 14.1614779,10.4207256 14.03,10.29 L13.6,9.9 C13.47,9.78 13.51,9.69 13.67,9.69 L14.3,9.69 C14.4814008,9.67105358 14.6363912,9.55093604 14.7,9.38 L14.88,8.71 C14.88,8.55 15.01,8.54 15.07,8.71 L15.31,9.35 C15.3799794,9.52595912 15.5506389,9.64105507 15.74,9.64 L16.38,9.64 C16.55,9.64 16.58,9.74 16.45,9.85 L15.97,10.28 C15.8356145,10.4045327 15.778355,10.5915804 15.82,10.77 L15.97,11.32 C15.97,11.48 15.97,11.54 15.8,11.45 L15.28,11.13 C15.1216719,11.0409109 14.9283281,11.0409109 14.77,11.13 L14.22,11.53 Z" id="Shape_2_copy_34" fill="#F6D660"></path>
        </g>
    </g>
</svg>