<?xml version="1.0" encoding="UTF-8"?>
<svg width="32px" height="32px" viewBox="0 0 32 32" version="1.1" xmlns="http://www.w3.org/2000/svg" xmlns:xlink="http://www.w3.org/1999/xlink">
    <title>Georgia</title>
    <g id="Georgia" stroke="none" stroke-width="1" fill="none" fill-rule="evenodd">
        <g id="Georgia@2x" transform="translate(1.000000, 6.000000)" fill-rule="nonzero">
            <rect id="Rounded_Rectangle_7_copy-10" fill="#FFFFFF" x="3.94129174e-14" y="-2.70339306e-14" width="30" height="21" rx="2.68732394"></rect>
            <polygon id="Shape" fill="#ED5565" points="30 8.71276596 16.7142857 8.71276596 16.7142857 -2.70339306e-14 13.2857143 -2.70339306e-14 13.2857143 8.71276596 3.94129174e-14 8.71276596 3.94129174e-14 12.287234 13.2857143 12.287234 13.2857143 21 16.7142857 21 16.7142857 12.287234 30 12.287234"></polygon>
            <path d="M8.23076923,3.53846154 L7.46153846,3.53846154 L7.46153846,2.76923077 C7.46153846,2.34439635 7.11714212,2 6.69230769,2 L6.30769231,2 C5.88285788,2 5.53846154,2.34439635 5.53846154,2.76923077 L5.53846154,3.53846154 L4.76923077,3.53846154 C4.34439635,3.53846154 4,3.88285788 4,4.30769231 L4,4.69230769 C4,5.11714212 4.34439635,5.46153846 4.76923077,5.46153846 L5.53846154,5.46153846 L5.53846154,6.23076923 C5.53846154,6.65560365 5.88285788,7 6.30769231,7 L6.69230769,7 C7.11714212,7 7.46153846,6.65560365 7.46153846,6.23076923 L7.46153846,5.46153846 L8.23076923,5.46153846 C8.65560365,5.46153846 9,5.11714212 9,4.69230769 L9,4.30769231 C9,3.88285788 8.65560365,3.53846154 8.23076923,3.53846154 Z" id="Shape" fill="#ED5565"></path>
            <path d="M25.2307692,3.53846154 L24.4615385,3.53846154 L24.4615385,2.76923077 C24.4615385,2.34439635 24.1171421,2 23.6923077,2 L23.3076923,2 C22.8828579,2 22.5384615,2.34439635 22.5384615,2.76923077 L22.5384615,3.53846154 L21.7692308,3.53846154 C21.3443963,3.53846154 21,3.88285788 21,4.30769231 L21,4.69230769 C21,5.11714212 21.3443963,5.46153846 21.7692308,5.46153846 L22.5384615,5.46153846 L22.5384615,6.23076923 C22.5384615,6.65560365 22.8828579,7 23.3076923,7 L23.6923077,7 C24.1171421,7 24.4615385,6.65560365 24.4615385,6.23076923 L24.4615385,5.46153846 L25.2307692,5.46153846 C25.6556037,5.46153846 26,5.11714212 26,4.69230769 L26,4.30769231 C26,3.88285788 25.6556037,3.53846154 25.2307692,3.53846154 Z" id="Shape" fill="#ED5565"></path>
            <path d="M8.23076923,17.4615385 L7.46153846,17.4615385 L7.46153846,18.2307692 C7.46153846,18.6556037 7.11714212,19 6.69230769,19 L6.30769231,19 C5.88285788,19 5.53846154,18.6556037 5.53846154,18.2307692 L5.53846154,17.4615385 L4.76923077,17.4615385 C4.34439635,17.4615385 4,17.1171421 4,16.6923077 L4,16.3076923 C4,15.8828579 4.34439635,15.5384615 4.76923077,15.5384615 L5.53846154,15.5384615 L5.53846154,14.7692308 C5.53846154,14.3443963 5.88285788,14 6.30769231,14 L6.69230769,14 C7.11714212,14 7.46153846,14.3443963 7.46153846,14.7692308 L7.46153846,15.5384615 L8.23076923,15.5384615 C8.65560365,15.5384615 9,15.8828579 9,16.3076923 L9,16.6923077 C9,17.1171421 8.65560365,17.4615385 8.23076923,17.4615385 Z" id="Shape" fill="#ED5565"></path>
            <path d="M25.2307692,17.4615385 L24.4615385,17.4615385 L24.4615385,18.2307692 C24.4615385,18.6556037 24.1171421,19 23.6923077,19 L23.3076923,19 C22.8828579,19 22.5384615,18.6556037 22.5384615,18.2307692 L22.5384615,17.4615385 L21.7692308,17.4615385 C21.3443963,17.4615385 21,17.1171421 21,16.6923077 L21,16.3076923 C21,15.8828579 21.3443963,15.5384615 21.7692308,15.5384615 L22.5384615,15.5384615 L22.5384615,14.7692308 C22.5384615,14.3443963 22.8828579,14 23.3076923,14 L23.6923077,14 C24.1171421,14 24.4615385,14.3443963 24.4615385,14.7692308 L24.4615385,15.5384615 L25.2307692,15.5384615 C25.6556037,15.5384615 26,15.8828579 26,16.3076923 L26,16.6923077 C26,17.1171421 25.6556037,17.4615385 25.2307692,17.4615385 Z" id="Shape" fill="#ED5565"></path>
        </g>
    </g>
</svg>