<?xml version="1.0" encoding="UTF-8"?>
<svg width="32px" height="32px" viewBox="0 0 32 32" version="1.1" xmlns="http://www.w3.org/2000/svg" xmlns:xlink="http://www.w3.org/1999/xlink">
    <!-- Generator: Sketch 61.2 (89653) - https://sketch.com -->
    <title>Icon / Flag / x32 / Greece </title>
    <desc>Created with Sketch.</desc>
    <g id="Icon-/-Flag-/-x32-/-Greece-" stroke="none" stroke-width="1" fill="none" fill-rule="evenodd">
        <g id="Greece" transform="translate(1.000000, 6.000000)" fill-rule="nonzero">
            <rect id="Rectangle-path" fill="#FFFFFF" x="1.13686838e-13" y="16.31" width="30" height="2.33"></rect>
            <rect id="Rectangle-path" fill="#4A89DC" x="1.13686838e-13" y="13.98" width="30" height="2.33"></rect>
            <rect id="Rectangle-path" fill="#FFFFFF" x="1.13686838e-13" y="11.65" width="30" height="2.33"></rect>
            <rect id="Rectangle-path" fill="#4A89DC" x="1.13686838e-13" y="9.32" width="30" height="2.33"></rect>
            <rect id="Rectangle-path" fill="#FFFFFF" x="1.13686838e-13" y="6.99" width="30" height="2.33"></rect>
            <rect id="Rectangle-path" fill="#4A89DC" x="1.13686838e-13" y="4.66" width="30" height="2.33"></rect>
            <rect id="Rectangle-path" fill="#FFFFFF" x="0" y="2.33" width="30" height="2.33"></rect>
            <path d="M2.69092993,20.97 L27.3090701,20.97 C28.6304436,20.9706477 29.7631502,19.9898693 30,18.64 L0,18.64 C0.236849854,19.9898693 1.36955638,20.9706477 2.69092993,20.97 Z" id="Shape" fill="#4A89DC"></path>
            <path d="M27.3129837,-3.64153152e-14 L2.69131556,-3.64153152e-14 C1.36975264,-0.000647708659 0.236883796,0.980130648 0,2.33 L30,2.33 C29.7634074,0.981785965 28.6329252,0.00150793964 27.3129837,-3.64153152e-14 Z" id="Shape" fill="#4A89DC"></path>
            <path d="M2.67943317,0 L11,0 L11,9.32 L0,9.32 L0,2.27021065 C0,1.01640793 1.19962309,0 2.67943317,0 Z" id="Shape" fill="#4A89DC"></path>
            <rect id="Rectangle-path" fill="#FFFFFF" x="0" y="4.66" width="11" height="2.33"></rect>
            <rect id="Rectangle-path" fill="#FFFFFF" x="4.33" y="0" width="2.33" height="12"></rect>
        </g>
    </g>
</svg>