<?xml version="1.0" encoding="UTF-8"?>
<svg width="32px" height="32px" viewBox="0 0 32 32" version="1.1" xmlns="http://www.w3.org/2000/svg" xmlns:xlink="http://www.w3.org/1999/xlink">
    <!-- Generator: Sketch 61.2 (89653) - https://sketch.com -->
    <title>Icon / Flag / x32 / Croatia </title>
    <desc>Created with Sketch.</desc>
    <g id="Icon-/-Flag-/-x32-/-Croatia-" stroke="none" stroke-width="1" fill="none" fill-rule="evenodd">
        <g id="Croatia" transform="translate(1.000000, 6.000000)" fill-rule="nonzero">
            <path d="M0,2.97186895 L0,7 L30,7 L30,2.97186895 C30,1.33055291 28.7259303,0 27.1542857,0 L2.85,0 C2.09452737,-0.00118482329 1.36960731,0.311396922 0.835005073,0.868858666 C0.300402844,1.42632041 0,2.18290512 0,2.97186895 Z" id="Shape" fill="#ED5565"></path>
            <polygon id="Shape" fill="#FFFFFF" points="0 14 30 14 30 7 0 7"></polygon>
            <path d="M0,18.028133 C0,19.6694498 1.27406968,21 2.84571429,21 L27.1542857,21 C28.7259303,21 30,19.6694498 30,18.028133 L30,14 L0,14 L0,18.028133 Z" id="Shape" fill="#4758A9"></path>
            <g id="escudo" transform="translate(10.500000, 4.000000)">
                <path d="M4.82100683,11.4834454 L4.23368289,11.4834454 C2.31408932,11.4857851 0.754754776,9.93401098 0.747767395,8.0144287 L0.747767395,3.36654138 L8.30692232,3.36654138 L8.30692232,8.0144287 C8.29993494,9.93401098 6.7406004,11.4857851 4.82100683,11.4834454 Z M1.59283782,4.22851321 L1.59283782,8.03133011 C1.59982093,9.48419229 2.78080583,10.6576189 4.23368289,10.6552773 L4.82100683,10.6552773 C6.27388389,10.6576189 7.45486879,9.48419229 7.4618519,8.03133011 L7.4618519,4.22851321 L1.59283782,4.22851321 Z" id="Shape" fill="#FFFFFF"></path>
                <path d="M6.54072514,10.5327386 C6.89599871,10.2905129 7.19678289,9.97677624 7.42382373,9.6116118 L6.54072514,9.6116118 L6.54072514,10.5327386 Z" id="Shape" fill="#ED5565"></path>
                <path d="M6.54072514,9.6116118 L7.42382373,9.6116118 C7.69612203,9.17518739 7.85179701,8.67615446 7.87593641,8.16231603 L6.54072514,8.16231603 L6.54072514,9.6116118 Z" id="Shape" fill="#FFFFFF"></path>
                <path d="M6.54072514,8.16231603 L7.87593641,8.16231603 C7.87593641,8.11583715 7.87593641,8.06935828 7.87593641,8.01865405 L7.87593641,6.71302025 L6.53227444,6.71302025 L6.54072514,8.16231603 Z" id="Shape" fill="#ED5565"></path>
                <rect id="Rectangle-path" fill="#FFFFFF" x="6.54072514" y="5.25949912" width="1.34366197" height="1.44929577"></rect>
                <rect id="Rectangle-path" fill="#ED5565" x="6.54072514" y="3.805978" width="1.34366197" height="1.44929577"></rect>
                <path d="M5.19706317,9.6116118 L5.19706317,11.0228794 C5.67851407,10.9643099 6.13910141,10.7919517 6.54072514,10.5200625 L6.54072514,9.59893574 L5.19706317,9.6116118 Z" id="Shape" fill="#FFFFFF"></path>
                <rect id="Rectangle-path" fill="#ED5565" x="5.19706317" y="8.16231603" width="1.34366197" height="1.44929577"></rect>
                <rect id="Rectangle-path" fill="#FFFFFF" x="5.19706317" y="6.7087949" width="1.34366197" height="1.44929577"></rect>
                <rect id="Rectangle-path" fill="#ED5565" x="5.19706317" y="5.25949912" width="1.34366197" height="1.44929577"></rect>
                <rect id="Rectangle-path" fill="#FFFFFF" x="5.19706317" y="3.805978" width="1.34366197" height="1.44929577"></rect>
                <path d="M3.8534012,9.6116118 L3.8534012,11.0228794 C3.97951376,11.0392041 4.1065194,11.0476711 4.23368289,11.0482315 L4.82100683,11.0482315 C4.94817032,11.0476711 5.07517596,11.0392041 5.20128852,11.0228794 L5.20128852,9.59893574 L3.8534012,9.6116118 Z" id="Shape" fill="#ED5565"></path>
                <rect id="Rectangle-path" fill="#FFFFFF" x="3.8534012" y="8.16231603" width="1.34366197" height="1.44929577"></rect>
                <rect id="Rectangle-path" fill="#ED5565" x="3.8534012" y="6.7087949" width="1.34366197" height="1.44929577"></rect>
                <rect id="Rectangle-path" fill="#FFFFFF" x="3.8534012" y="5.25949912" width="1.34366197" height="1.44929577"></rect>
                <rect id="Rectangle-path" fill="#ED5565" x="3.8534012" y="3.805978" width="1.34366197" height="1.44929577"></rect>
                <path d="M2.51396458,9.6116118 L2.51396458,10.5327386 C2.91551496,10.7995172 3.37450258,10.9674748 3.8534012,11.0228794 L3.8534012,9.59893574 L2.51396458,9.6116118 Z" id="Shape" fill="#FFFFFF"></path>
                <rect id="Rectangle-path" fill="#ED5565" x="2.51396458" y="8.16231603" width="1.34366197" height="1.44929577"></rect>
                <rect id="Rectangle-path" fill="#FFFFFF" x="2.51396458" y="6.7087949" width="1.34366197" height="1.44929577"></rect>
                <rect id="Rectangle-path" fill="#ED5565" x="2.51396458" y="5.25949912" width="1.34366197" height="1.44929577"></rect>
                <rect id="Rectangle-path" fill="#FFFFFF" x="2.51396458" y="3.805978" width="1.34366197" height="1.44929577"></rect>
                <path d="M1.63086599,9.6116118 C1.85790683,9.97677624 2.15869101,10.2905129 2.51396458,10.5327386 L2.51396458,9.6116118 L1.63086599,9.6116118 Z" id="Shape" fill="#ED5565"></path>
                <path d="M2.51396458,8.16231603 L1.17875331,8.16231603 C1.20289271,8.67615446 1.35856769,9.17518739 1.63086599,9.6116118 L2.51396458,9.6116118 L2.51396458,8.16231603 Z" id="Shape" fill="#FFFFFF"></path>
                <path d="M2.51396458,6.7087949 L1.17030261,6.7087949 L1.17030261,8.0144287 C1.17030261,8.06090757 1.17030261,8.1116118 1.17030261,8.15809067 L2.50551387,8.15809067 L2.51396458,6.7087949 Z" id="Shape" fill="#ED5565"></path>
                <rect id="Rectangle-path" fill="#FFFFFF" x="1.17030261" y="5.25949912" width="1.34366197" height="1.44929577"></rect>
                <rect id="Rectangle-path" fill="#ED5565" x="1.17030261" y="3.805978" width="1.34366197" height="1.44929577"></rect>
                <path d="M4.51255613,2.57217518 C5.59329861,2.57255035 6.6700638,2.70306738 7.71959838,2.96090757 C7.84685872,2.9921955 7.97873572,2.93065291 8.03649979,2.81302025 L8.93649979,0.979217434 C8.97350783,0.903770349 8.97508456,0.815781194 8.9408034,0.739056617 C8.90652218,0.662332039 8.83992662,0.604802856 8.759035,0.582034335 C5.95971189,-0.194011445 3.00202009,-0.194011445 0.202696973,0.582034335 C0.122568283,0.605768687 0.0570201417,0.663693532 0.0236092262,0.740294096 C-0.00980164701,0.816894617 -0.00766108363,0.904343307 0.0294575361,0.979217434 L0.929457536,2.81302025 C0.987221607,2.93065291 1.11909861,2.9921955 1.24635894,2.96090757 C2.3150934,2.69822491 3.41202206,2.56767193 4.51255613,2.57217518 Z" id="Shape" fill="#4758A9"></path>
            </g>
        </g>
    </g>
</svg>