<?xml version="1.0" encoding="UTF-8"?>
<svg width="32px" height="32px" viewBox="0 0 32 32" version="1.1" xmlns="http://www.w3.org/2000/svg" xmlns:xlink="http://www.w3.org/1999/xlink">
    <!-- Generator: Sketch 61.2 (89653) - https://sketch.com -->
    <title>Icon / Flag / x32 / Hungary </title>
    <desc>Created with Sketch.</desc>
    <g id="Icon-/-Flag-/-x32-/-Hungary-" stroke="none" stroke-width="1" fill="none" fill-rule="evenodd">
        <g id="Hungary" transform="translate(1.000000, 6.000000)" fill-rule="nonzero">
            <path d="M0,2.97186895 L0,7 L30,7 L30,2.97186895 C30,1.33055291 28.7259303,0 27.1542857,0 L2.85,0 C2.09452737,-0.00118482329 1.36960731,0.311396923 0.835005073,0.868858666 C0.300402844,1.42632041 0,2.18290512 0,2.97186895 Z" id="Shape" fill="#ED5565"></path>
            <polygon id="Shape" fill="#FFFFFF" points="0 14 30 14 30 7 0 7"></polygon>
            <path d="M0,18.028133 C0,19.6694498 1.27406968,21 2.84571429,21 L27.1542857,21 C28.7259303,21 30,19.6694498 30,18.028133 L30,14 L0,14 L0,18.028133 Z" id="Shape" fill="#57A863"></path>
        </g>
    </g>
</svg>