<?xml version="1.0" encoding="UTF-8"?>
<svg width="32px" height="32px" viewBox="0 0 32 32" version="1.1" xmlns="http://www.w3.org/2000/svg" xmlns:xlink="http://www.w3.org/1999/xlink">
    <!-- Generator: Sketch 61.2 (89653) - https://sketch.com -->
    <title>Icon / Flag / x32 / Italy </title>
    <desc>Created with Sketch.</desc>
    <g id="Icon-/-Flag-/-x32-/-Italy-" stroke="none" stroke-width="1" fill="none" fill-rule="evenodd">
        <g id="Italy" transform="translate(1.000000, 6.000000)" fill-rule="nonzero">
            <path d="M2.72260274,0.00446808511 C1.21895077,0.00446808511 -2.58681965e-14,1.27674146 -2.58681965e-14,2.84617021 L-2.58681965e-14,18.1582979 C-2.58681965e-14,19.7277266 1.21895077,21 2.72260274,21 L10,21 C10,14 10,7 10,-6.10622664e-15 L2.72260274,0.00446808511 Z" id="Shape" fill="#57A863"></path>
            <path d="M10,1.52100554e-14 C10,7 10,14 10,21 L20,21 C20,14 20,7 20,1.52100554e-14 L10,1.52100554e-14 Z" id="Shape" fill="#FFFFFF"></path>
            <path d="M27.2680412,1.52100554e-14 L20,1.52100554e-14 C20,7 20,14 20,21 L27.2680412,21 C28.7768604,21 30,19.7277266 30,18.1582979 L30,2.84170213 C30,1.27227338 28.7768604,1.52100554e-14 27.2680412,1.52100554e-14 Z" id="Shape" fill="#ED5565"></path>
        </g>
    </g>
</svg>