<?xml version="1.0" encoding="UTF-8"?>
<svg width="32px" height="32px" viewBox="0 0 32 32" version="1.1" xmlns="http://www.w3.org/2000/svg" xmlns:xlink="http://www.w3.org/1999/xlink">
    <!-- Generator: Sketch 61.2 (89653) - https://sketch.com -->
    <title>Icon / Flag / x32 / Liechtenstein </title>
    <desc>Created with Sketch.</desc>
    <g id="Icon-/-Flag-/-x32-/-Liechtenstein-" stroke="none" stroke-width="1" fill="none" fill-rule="evenodd">
        <g id="Liechtenstein" transform="translate(1.000000, 6.000000)" fill-rule="nonzero">
            <path d="M27.27,0 L2.72571429,0 C1.22034385,0 0,1.24577072 0,2.78250253 L0,10.5 L30,10.5 L30,2.78250253 C30,2.04377925 29.71224,1.33537589 29.2001421,0.813430146 C28.6880442,0.291484398 27.9936466,-0.0011580704 27.27,0 Z" id="Shape" fill="#4758A9"></path>
            <path d="M0.00428571429,18.0965217 C0.00428571429,19.7000685 1.22462957,21 2.73,21 L27.2742857,21 C28.7796561,21 30,19.7000685 30,18.0965217 L30,10.5 L0,10.5 L0.00428571429,18.0965217 Z" id="Shape" fill="#ED5565"></path>
            <path d="M8.67794775,4.41823273 C8.56855937,4.57606326 8.39258861,4.66963343 8.20515639,4.66963343 C8.01772416,4.66963343 7.8417534,4.57606326 7.73236502,4.41823273 L6.97940099,3.45129175 C6.87023079,3.29160577 6.6931826,3.19671123 6.50442077,3.19671123 C6.31565895,3.19671123 6.13861076,3.29160577 6.02944056,3.45129175 L5.28085423,4.41823273 C5.17146585,4.57606326 4.99549509,4.66963343 4.80806286,4.66963343 C4.62063063,4.66963343 4.44465988,4.57606326 4.3352715,4.41823273 L3.40719955,3.21977067 C3.14453768,2.88383813 2.96942977,2.96101182 3.00445135,3.39227657 L3.34591178,7.21464418 C3.39183049,7.65324207 3.74361469,7.98893266 4.16891898,8 L8.85305567,8 C9.27744953,7.98866881 9.62783258,7.65252726 9.67168516,7.21464418 L9.9956348,3.38773694 C10.0306564,2.93377405 9.85117077,2.8792985 9.5928866,3.21977067 L8.67794775,4.41823273 Z" id="Shape" fill="#F6BB42"></path>
        </g>
    </g>
</svg>