<?xml version="1.0" encoding="UTF-8"?>
<svg width="32px" height="32px" viewBox="0 0 32 32" version="1.1" xmlns="http://www.w3.org/2000/svg" xmlns:xlink="http://www.w3.org/1999/xlink">
    <!-- Generator: Sketch 61.2 (89653) - https://sketch.com -->
    <title>Icon / Flag / x32 / Luxembourg </title>
    <desc>Created with Sketch.</desc>
    <g id="Icon-/-Flag-/-x32-/-Luxembourg-" stroke="none" stroke-width="1" fill="none" fill-rule="evenodd">
        <g id="Luxembourg" transform="translate(1.000000, 6.000000)" fill-rule="nonzero">
            <path d="M0,2.97186701 L0,7 L30,7 L30,2.97186701 C30,2.18367887 29.7001845,1.42777287 29.1665096,0.870439692 C28.6328346,0.313106518 27.9090161,0 27.1542857,0 L2.84571429,0 C2.09098393,0 1.36716537,0.313106518 0.833490416,0.870439692 C0.299815466,1.42777287 0,2.18367887 0,2.97186701 Z" id="Shape" fill="#ED5565"></path>
            <polygon id="Shape" fill="#FFFFFF" points="0 14 30 14 30 7 0 7"></polygon>
            <path d="M0.00428571429,18.028133 C0.00428571429,19.6694498 1.2783554,21 2.85,21 L27.1542857,21 C28.7259303,21 30,19.6694498 30,18.028133 L30,14 L0,14 L0.00428571429,18.028133 Z" id="Shape" fill="#3BAFDA"></path>
        </g>
    </g>
</svg>