<?xml version="1.0" encoding="UTF-8"?>
<svg width="32px" height="32px" viewBox="0 0 32 32" version="1.1" xmlns="http://www.w3.org/2000/svg" xmlns:xlink="http://www.w3.org/1999/xlink">
    <!-- Generator: Sketch 61.2 (89653) - https://sketch.com -->
    <title>Icon / Flag / x32 / Montenegro </title>
    <desc>Created with Sketch.</desc>
    <g id="Icon-/-Flag-/-x32-/-Montenegro-" stroke="none" stroke-width="1" fill="none" fill-rule="evenodd">
        <g id="Montenegro" transform="translate(1.000000, 6.000000)" fill-rule="nonzero">
            <rect id="Rounded_Rectangle_7_copy-29" fill="#FFCE54" x="-1.08885123e-13" y="0" width="30" height="21" rx="2.68732394"></rect>
            <path d="M28,3.02871795 L28,17.9712821 C27.9977026,18.5384352 27.5559519,18.9976119 27.0103226,19 L2.98967742,19 C2.44404813,18.9976119 2.00229742,18.5384352 2,17.9712821 L2,3.02871795 C2.00229742,2.46156482 2.44404813,2.00238805 2.98967742,2 L27.006129,2 C27.5559519,2.00238805 27.9977026,2.46156482 28,3.02871795 Z" id="Shape" fill="#ED5565"></path>
            <polygon id="Shape" fill="#FFCE54" points="17.8963636 8.66930776 17.5936364 6.78857381 18.6777273 6.78857381 17.9986364 5.73769808 17.5854545 5.5 15.9572727 5.5 15.4418182 8.66930776 14.5581818 8.66930776 14.0427273 5.5 12.4145455 5.5 12.0013636 5.73769808 11.3222727 6.78857381 12.4063636 6.78857381 12.1036364 8.66930776 10.5 8.66930776 13.1263636 15.5 16.8654545 15.5 19.5 8.66930776"></polygon>
        </g>
    </g>
</svg>