<?xml version="1.0" encoding="UTF-8"?>
<svg width="32px" height="32px" viewBox="0 0 32 32" version="1.1" xmlns="http://www.w3.org/2000/svg" xmlns:xlink="http://www.w3.org/1999/xlink">
    <!-- Generator: Sketch 61.2 (89653) - https://sketch.com -->
    <title>Icon / Flag / x32 / Macedonia </title>
    <desc>Created with Sketch.</desc>
    <g id="Icon-/-Flag-/-x32-/-Macedonia-" stroke="none" stroke-width="1" fill="none" fill-rule="evenodd">
        <g id="Macedonia" transform="translate(1.000000, 6.000000)" fill-rule="nonzero">
            <rect id="Rounded_Rectangle_7_copy-28" fill="#ED5565" x="0" y="0" width="30" height="21" rx="2.68732394"></rect>
            <g id="Group">
                <polygon id="Shape" fill="#FFCE54" points="17 0 13 0 15.0021716 8.5"></polygon>
                <polygon id="Shape" fill="#FFCE54" points="13 21 17 21 15.0021716 12.5"></polygon>
                <polygon id="Shape" fill="#FFCE54" points="30 12 30 9 15 10.5"></polygon>
                <polygon id="Shape" fill="#FFCE54" points="5.57331958e-14 9 5.57331958e-14 12 15 10.5"></polygon>
                <path d="M27.5728571,21 C29,21 29.9482466,19.6632582 30,18.6912929 L15,11 L0,18.6912929 C0.0517534076,19.6632582 1,21 2.42714286,21 L14.9914286,11.4133685 L27.5728571,21 Z" id="Shape" fill="#FFCE54"></path>
                <path d="M30,2.30870712 C29.948217,1.33674179 29,2.41473508e-14 27.5720412,2.41473508e-14 L15,9.58663149 L2.42795883,2.41473508e-14 C1,2.41473508e-14 0.0517829979,1.33674179 -1.66533454e-14,2.30870712 L15.0085763,10 L30,2.30870712 Z" id="Shape" fill="#FFCE54"></path>
                <path d="M15,15.5 C12.2385762,15.5 10,13.2614238 10,10.5 C10,7.73857623 12.2385762,5.5 15,5.5 C17.7614238,5.5 20,7.73857623 20,10.5 C19.9885377,13.2566619 17.7566619,15.4885377 15,15.5 Z M15,8.43305439 C14.1623062,8.43305439 13.4070972,8.93766895 13.0865256,9.71159707 C12.7659541,10.4855252 12.9431512,11.376355 13.5354901,11.968694 C14.1278291,12.5610329 15.0186589,12.73823 15.792587,12.4176585 C16.5665151,12.0970869 17.0711297,11.3418779 17.0711297,10.5041841 C17.06206,9.36342544 16.140738,8.44024218 15,8.42887029 L15,8.43305439 Z" id="Shape" fill="#ED5565"></path>
                <circle id="Oval" fill="#FFCE54" cx="15" cy="10.5" r="3"></circle>
            </g>
        </g>
    </g>
</svg>