<?xml version="1.0" encoding="UTF-8"?>
<svg width="32px" height="32px" viewBox="0 0 32 32" version="1.1" xmlns="http://www.w3.org/2000/svg" xmlns:xlink="http://www.w3.org/1999/xlink">
    <!-- Generator: Sketch 61.2 (89653) - https://sketch.com -->
    <title>Icon / Flag / x32 / Malta </title>
    <desc>Created with Sketch.</desc>
    <g id="Icon-/-Flag-/-x32-/-Malta-" stroke="none" stroke-width="1" fill="none" fill-rule="evenodd">
        <g id="Malta" transform="translate(1.000000, 6.000000)" fill-rule="nonzero">
            <path d="M0.123241448,18.9893617 C0.148898405,19.0787234 0.178831521,19.1651064 0.213040796,19.2485106 C0.281987862,19.4175174 0.366482365,19.5791272 0.4653342,19.7310638 C0.513797339,19.8055319 0.566536641,19.8785106 0.623552098,19.95 C0.813176698,20.1874901 1.03847255,20.3912083 1.29063296,20.5531915 C1.71842935,20.8399097 2.21493249,20.9947717 2.72314636,21 L15,21 C15,14 15,7 15,0 L2.72314636,0 C1.22113211,0 0.00350898519,1.27227338 0.00350898519,2.84170213 L0.00350898519,18.1538298 C-0.00116966173,18.2505766 -0.00116966173,18.3475085 0.00350898519,18.4442553 C0.0260860125,18.6296445 0.0661928701,18.8122391 0.123241448,18.9893617 Z" id="Shape" fill="#FFFFFF"></path>
            <path d="M19.9928264,20.9508511 L27.2883788,20.9508511 C27.5358329,20.9496569 27.7819846,20.9135825 28.0200861,20.843617 L28.1018651,20.843617 L28.1922525,20.8078723 L28.3515065,20.7453191 L28.4505022,20.6961702 L28.5925395,20.6246809 L28.6140603,20.6246809 C28.6829268,20.5844681 28.7517934,20.5442553 28.8163558,20.4951064 L28.9196557,20.4146809 L29.0272597,20.3297872 L29.0703013,20.2895745 C29.1884848,20.184668 29.2979133,20.0695773 29.3974175,19.9455319 L29.4878049,19.8159574 L29.5523673,19.7265957 L29.6126255,19.6238298 C29.6384505,19.5791489 29.6642755,19.5389362 29.6901004,19.4897872 C29.7723263,19.3329536 29.8400606,19.1683892 29.892396,18.9982979 C29.892396,18.9268085 29.9311334,18.8553191 29.9440459,18.7838298 L29.9440459,18.7257447 C29.9811846,18.537546 30,18.3459368 30,18.1538298 L30,2.78361702 C30,2.59151007 29.9811846,2.3999008 29.9440459,2.21170213 C29.9440459,2.12680851 29.9053085,2.04191489 29.8837877,1.96148936 C29.8314523,1.79139797 29.763718,1.62683359 29.6814921,1.47 C29.6556671,1.42531915 29.6298422,1.3806383 29.6040172,1.33595745 L29.543759,1.23319149 L29.4791966,1.14382979 L29.3888092,1.01425532 L29.3285509,0.947234043 L29.2123386,0.813191489 L29.1047346,0.714893617 L29.0186514,0.63 L28.9626973,0.589787234 C28.8423395,0.490940252 28.7141994,0.402758173 28.579627,0.326170213 L28.4375897,0.254680851 L28.338594,0.205531915 L28.17934,0.142978723 L28.0889527,0.107234043 L28.0071736,0.107234043 C27.7690722,0.037268503 27.5229204,0.00119418332 27.2754663,0 L15,0 C15,7 15,14 15,21 L19.9928264,20.9508511 Z" id="Shape" fill="#ED5565"></path>
            <path d="M7.86842105,4.39473684 L6.60526316,4.39473684 L6.60526316,3.13157895 C6.60526316,2.78276753 6.32249563,2.5 5.97368421,2.5 L5.02631579,2.5 C4.67750437,2.5 4.39473684,2.78276753 4.39473684,3.13157895 L4.39473684,4.39473684 L3.13157895,4.39473684 C2.78276753,4.39473684 2.5,4.67750437 2.5,5.02631579 L2.5,5.97368421 C2.5,6.32249563 2.78276753,6.60526316 3.13157895,6.60526316 L4.39473684,6.60526316 L4.39473684,7.86842105 C4.39473684,8.21723247 4.67750437,8.5 5.02631579,8.5 L5.97368421,8.5 C6.32249563,8.5 6.60526316,8.21723247 6.60526316,7.86842105 L6.60526316,6.60526316 L7.86842105,6.60526316 C8.21723247,6.60526316 8.5,6.32249563 8.5,5.97368421 L8.5,5.02631579 C8.5,4.67750437 8.21723247,4.39473684 7.86842105,4.39473684 Z" id="Shape" fill="#CCD1D9"></path>
        </g>
    </g>
</svg>