<?xml version="1.0" encoding="UTF-8"?>
<svg width="32px" height="32px" viewBox="0 0 32 32" version="1.1" xmlns="http://www.w3.org/2000/svg" xmlns:xlink="http://www.w3.org/1999/xlink">
    <!-- Generator: Sketch 61.2 (89653) - https://sketch.com -->
    <title>Icon / Flag / x32 / Portugal </title>
    <desc>Created with Sketch.</desc>
    <g id="Icon-/-Flag-/-x32-/-Portugal-" stroke="none" stroke-width="1" fill="none" fill-rule="evenodd">
        <g id="Portugal" transform="translate(1.000000, 6.000000)" fill-rule="nonzero">
            <path d="M2.71504803,0.00446808511 C1.21556841,0.00446808511 0,1.27674146 0,2.84617021 L0,18.1582979 C0,19.7277266 1.21556841,21 2.71504803,21 L12,21 L12,0 L2.71504803,0.00446808511 Z" id="Shape" fill="#57A863"></path>
            <path d="M30,18.1538024 L30,2.84169784 C30,1.27227146 28.7764484,0 27.2671253,0 L12,0 L12,21 L27.2542344,21 C27.9820131,21.0035389 28.6811003,20.7051096 29.1965293,20.170833 C29.7119583,19.6365564 30.001149,18.9105697 30,18.1538024 Z" id="Shape" fill="#ED5565"></path>
            <g id="escudo" transform="translate(7.000000, 5.500000)">
                <circle id="Oval" fill="#FFCE54" cx="4.82957746" cy="4.82957746" r="4.82957746"></circle>
                <path d="M7.33098592,2.39577465 L2.32394366,2.39577465 L2.32394366,5.5056338 C2.30404952,6.78461345 3.22810137,7.88338855 4.4915493,8.08309859 C5.20705094,8.17787759 5.92872486,7.96004751 6.47229913,7.48522889 C7.01587335,7.01041031 7.32873059,6.32456518 7.33098592,5.6028169 L7.33098592,2.4 L7.33098592,2.39577465 Z" id="Shape" fill="#ED5565"></path>
                <path d="M6.26197183,3.46901408 L6.26197183,5.58169014 C6.26197183,6.3727797 5.62066703,7.01408451 4.82957746,7.01408451 C4.0384879,7.01408451 3.3971831,6.3727797 3.3971831,5.58169014 L3.3971831,3.46901408 L6.26197183,3.46901408" id="Shape" fill="#FFFFFF"></path>
                <circle id="Oval" fill="#4758A9" cx="4.82957746" cy="4.36056338" r="1"></circle>
                <circle id="Oval" fill="#4758A9" cx="4.82957746" cy="6.13943662" r="1"></circle>
                <circle id="Oval" fill="#4758A9" cx="4.82957746" cy="5.25211268" r="1"></circle>
                <circle id="Oval" fill="#4758A9" cx="3.94225352" cy="5.24788732" r="1"></circle>
                <circle id="Oval" fill="#4758A9" cx="5.71690141" cy="5.25211268" r="1"></circle>
            </g>
        </g>
    </g>
</svg>