<?xml version="1.0" encoding="UTF-8"?>
<svg width="32px" height="32px" viewBox="0 0 32 32" version="1.1" xmlns="http://www.w3.org/2000/svg" xmlns:xlink="http://www.w3.org/1999/xlink">
    <!-- Generator: Sketch 61.2 (89653) - https://sketch.com -->
    <title>Icon / Flag / x32 / Serbia </title>
    <desc>Created with Sketch.</desc>
    <g id="Icon-/-Flag-/-x32-/-Serbia-" stroke="none" stroke-width="1" fill="none" fill-rule="evenodd">
        <g id="Serbia" transform="translate(1.000000, 6.000000)" fill-rule="nonzero">
            <path d="M0,2.96750101 L0,6.995634 L30,6.995634 L30,2.96750101 C30,1.32618418 28.7259303,-0.004366 27.1542857,-0.004366 L2.84571429,-0.004366 C1.27406968,-0.004366 0,1.32618418 0,2.96750101 Z" id="Shape" fill="#ED5565"></path>
            <polygon id="Shape" fill="#4758A9" points="0 13.995634 30 13.995634 30 6.995634 0 6.995634"></polygon>
            <path d="M0,18.023767 C0,19.6650838 1.27406968,20.995634 2.84571429,20.995634 L27.1542857,20.995634 C28.7259303,20.995634 30,19.6650838 30,18.023767 L30,13.995634 L0,13.995634 L0,18.023767 Z" id="Shape" fill="#FFFFFF"></path>
            <polygon id="Shape" fill="#FFCE54" points="11.3930032 8.66798666 11.0904134 6.79220509 12.1740118 6.79220509 11.4952294 5.7417674 11.0863244 5.5 9.45479328 5.5 8.94366197 8.66798666 8.05633803 8.66798666 7.54111767 5.5 5.9136756 5.5 5.50068151 5.7417674 4.82189914 6.79220509 5.90958655 6.79220509 5.60699682 8.66798666 4 8.66798666 6.62517038 15.5 10.3666515 15.5 13 8.66798666"></polygon>
        </g>
    </g>
</svg>