<?xml version="1.0" encoding="UTF-8"?>
<svg width="32px" height="32px" viewBox="0 0 32 32" version="1.1" xmlns="http://www.w3.org/2000/svg" xmlns:xlink="http://www.w3.org/1999/xlink">
    <!-- Generator: Sketch 61.2 (89653) - https://sketch.com -->
    <title>Icon / Flag / x32 / Slovenia</title>
    <desc>Created with Sketch.</desc>
    <g id="Icon-/-Flag-/-x32-/-Slovenia" stroke="none" stroke-width="1" fill="none" fill-rule="evenodd">
        <g id="Slovenia" transform="translate(1.000000, 6.000000)" fill-rule="nonzero">
            <path d="M1.13686838e-13,2.97186701 L1.13686838e-13,7 L30,7 L30,2.97186701 C30,1.33055018 28.7259303,0 27.1542857,0 L2.84571429,0 C1.27406968,0 1.13686838e-13,1.33055018 1.13686838e-13,2.97186701 Z" id="Shape" fill="#FFFFFF"></path>
            <polygon id="Shape" fill="#4758A9" points="0 14 30 14 30 7 0 7"></polygon>
            <path d="M1.13686838e-13,18.028133 C1.13686838e-13,19.6694498 1.27406968,21 2.84571429,21 L27.1542857,21 C28.7259303,21 30,19.6694498 30,18.028133 L30,14 L1.13686838e-13,14 L1.13686838e-13,18.028133 Z" id="Shape" fill="#ED5565"></path>
            <g id="escudo" transform="translate(5.000000, 3.000000)">
                <path d="M8.45070423,3.99680289e-14 L8.45070423,4.3056338 C8.45070423,7.68591549 4.64788732,9.05492958 4.50422535,9.11408451 C4.41453714,9.14512745 4.32026032,9.16084027 4.22535211,9.16056698 C4.1304439,9.16084027 4.03616708,9.14512745 3.94647887,9.11408451 C3.78591549,9.05915493 0.0338028169,7.70704225 -7.81597009e-14,4.31830986 L-7.81597009e-14,3.99680289e-14 L8.45070423,3.99680289e-14 Z M1.69014085,0.845070423 L1.69014085,4.3056338 C1.69014085,6.08873239 3.51549296,7.08169014 4.22535211,7.4028169 C4.93521127,7.08169014 6.76056338,6.08028169 6.76056338,4.3056338 L6.76056338,0.845070423 L1.69014085,0.845070423 Z" id="Shape" fill="#ED5565"></path>
                <path d="M0.845070423,2.48689958e-14 L0.845070423,4.3056338 C0.874647887,7.14084507 4.22535211,8.31549296 4.22535211,8.31549296 C4.22535211,8.31549296 7.6056338,7.14084507 7.6056338,4.3056338 L7.6056338,2.48689958e-14 L0.845070423,2.48689958e-14 Z" id="Shape" fill="#4758A9"></path>
                <path d="M1.1028169,5.57746479 C1.89295775,7.49577465 4.22112676,8.31549296 4.22112676,8.31549296 C4.22112676,8.31549296 6.56197183,7.49577465 7.34366197,5.58591549 L4.22112676,2.46338028 L1.1028169,5.57746479 Z" id="Shape" fill="#FFFFFF"></path>
            </g>
        </g>
    </g>
</svg>