<?xml version="1.0" encoding="UTF-8"?>
<svg width="32px" height="32px" viewBox="0 0 32 32" version="1.1" xmlns="http://www.w3.org/2000/svg" xmlns:xlink="http://www.w3.org/1999/xlink">
    <!-- Generator: Sketch 61.2 (89653) - https://sketch.com -->
    <title>Icon / Flag / x32 / Slovakia</title>
    <desc>Created with Sketch.</desc>
    <g id="Icon-/-Flag-/-x32-/-Slovakia" stroke="none" stroke-width="1" fill="none" fill-rule="evenodd">
        <g id="Slovakia" transform="translate(1.000000, 6.000000)" fill-rule="nonzero">
            <g id="Sierra_leone-3">
                <path d="M-6.05071548e-15,2.97186701 L-6.05071548e-15,7 L30,7 L30,2.97186701 C30,1.33055018 28.7259303,9.93649607e-15 27.1542857,9.93649607e-15 L2.84571429,9.93649607e-15 C1.27406968,9.93649607e-15 -6.05071548e-15,1.33055018 -6.05071548e-15,2.97186701 Z" id="Shape" fill="#FFFFFF"></path>
                <polygon id="Shape" fill="#4758A9" points="-6.05071548e-15 14 30 14 30 7 -6.05071548e-15 7"></polygon>
                <path d="M-6.05071548e-15,18.028133 C-6.05071548e-15,19.6694498 1.2738877,21 2.84530781,21 L27.1546922,21 C28.7261123,21 30,19.6694498 30,18.028133 L30,14 L0.00428510213,14 L-6.05071548e-15,18.028133 Z" id="Shape" fill="#ED5565"></path>
            </g>
            <g id="escudo" transform="translate(5.000000, 5.000000)">
                <path d="M4.22535211,10.0098628 C4.1304439,10.010136 4.03616708,9.99442323 3.94647887,9.96338028 C3.78591549,9.9084507 0.0338028169,8.55633803 3.55271368e-14,5.16760563 L3.55271368e-14,0.845070423 C3.55271368e-14,0.378350915 0.378350915,3.8191672e-14 0.845070423,3.8191672e-14 L7.6056338,3.8191672e-14 C8.07235331,3.8191672e-14 8.45070423,0.378350915 8.45070423,0.845070423 L8.45070423,5.15070423 C8.45070423,8.53098592 4.64788732,9.9 4.50422535,9.95915493 C4.41478525,9.99163648 4.32050155,10.0087789 4.22535211,10.0098628 Z M1.69014085,1.6943662 L1.69014085,5.15492958 C1.69014085,6.93802817 3.51549296,7.93098592 4.22535211,8.25211268 C4.93521127,7.93098592 6.76056338,6.92957746 6.76056338,5.15492958 L6.76056338,1.6943662 L1.69014085,1.6943662 Z" id="Shape" fill="#FFFFFF"></path>
                <path d="M0.845070423,0.845070423 L0.845070423,5.15070423 C0.874647887,7.98591549 4.22535211,9.16056338 4.22535211,9.16056338 C4.22535211,9.16056338 7.6056338,7.98591549 7.6056338,5.15070423 L7.6056338,0.845070423 L0.845070423,0.845070423 Z" id="Shape" fill="#ED5565"></path>
                <rect id="Rectangle-path" fill="#FFFFFF" x="3.6971831" y="0.688732394" width="1.05633803" height="6.6084507"></rect>
                <rect id="Rectangle-path" fill="#FFFFFF" x="2.41267606" y="1.91408451" width="3.62535211" height="1.05633803"></rect>
                <rect id="Rectangle-path" fill="#FFFFFF" x="1.84647887" y="4.02676056" width="4.75352113" height="1.05633803"></rect>
                <path d="M4.22112676,9.16478873 C4.22112676,9.16478873 6.92957746,8.21830986 7.4915493,5.97887324 L0.942253521,5.97887324 C1.53380282,8.21830986 4.22112676,9.16478873 4.22112676,9.16478873 Z" id="Shape" fill="#4758A9"></path>
            </g>
        </g>
    </g>
</svg>