<?xml version="1.0" encoding="UTF-8"?>
<svg width="32px" height="32px" viewBox="0 0 32 32" version="1.1" xmlns="http://www.w3.org/2000/svg" xmlns:xlink="http://www.w3.org/1999/xlink">
    <!-- Generator: Sketch 61.2 (89653) - https://sketch.com -->
    <title>Icon / Flag / x32 / San Marino </title>
    <desc>Created with Sketch.</desc>
    <g id="Icon-/-Flag-/-x32-/-San-Marino-" stroke="none" stroke-width="1" fill="none" fill-rule="evenodd">
        <g id="San-Marino" transform="translate(1.000000, 6.000000)" fill-rule="nonzero">
            <g id="poland-2">
                <path d="M27.27,5.68434189e-14 L2.72571429,5.68434189e-14 C1.22034385,5.68434189e-14 0,1.24577086 0,2.78250264 L0,10.5 L30,10.5 L30,2.76500265 C29.9905656,1.23340148 28.7703723,-0.00243490353 27.27,5.68434189e-14 Z" id="Shape" fill="#FFFFFF"></path>
                <path d="M0.00428571429,18.0952588 C0.00428571429,19.6995031 1.22462957,21 2.73,21 L27.2742857,21 C28.7796561,21 30,19.6995031 30,18.0952588 L30,10.5 L0,10.5 L0.00428571429,18.0952588 Z" id="Shape" fill="#3BAFDA"></path>
            </g>
            <g id="Group" transform="translate(7.800000, 3.000000)">
                <path d="M0.6,7.93943662 C0.534659282,7.93943662 0.481690141,7.99240576 0.481690141,8.05774648 C0.481690141,8.1230872 0.534659282,8.17605634 0.6,8.17605634 C0.665340718,8.17605634 0.718309859,8.1230872 0.718309859,8.05774648 C0.718309859,7.99240576 0.665340718,7.93943662 0.6,7.93943662 Z M1.86760563,9.51549296 C1.80226492,9.51549296 1.74929577,9.5684621 1.74929577,9.63380282 C1.74929577,9.69914354 1.80226492,9.75211268 1.86760563,9.75211268 C1.93294635,9.75211268 1.98591549,9.69914354 1.98591549,9.63380282 C1.98591549,9.5684621 1.93294635,9.51549296 1.86760563,9.51549296 Z M14.7253521,7.29295775 C14.7002114,7.1978749 14.7440072,7.09802032 14.8309859,7.05211268 C14.915493,6.95492958 14.9704225,6.85352113 14.856338,6.75633803 L14.8140845,6.75633803 C14.8943662,6.61267606 14.8521127,6.43943662 14.7507042,6.43098592 C14.5697831,6.42118965 14.3913566,6.47666679 14.2478873,6.58732394 C13.9859155,6.32957746 13.9352113,6.61267606 13.8591549,6.86197183 C13.8040888,6.82615407 13.7358852,6.81685356 13.6732394,6.83661972 C13.6957723,7.06203414 13.6340602,7.28781021 13.5,7.47042254 C13.3943662,7.5084507 13.2633803,7.55070423 13.1408451,7.60140845 C13.1870487,7.55999459 13.2194847,7.50544323 13.2338028,7.44507042 C13.2456339,7.335888 13.3104123,7.23951038 13.4070423,7.18732394 C13.5094796,7.14275966 13.5580927,7.02496635 13.5169014,6.92112676 C13.4855217,6.89538621 13.4708902,6.85444158 13.4788499,6.81464324 C13.4868096,6.77484486 13.5160634,6.7426773 13.5549296,6.73098592 C13.6396781,6.70825306 13.6904825,6.62169735 13.6690141,6.53661972 C13.6181397,6.45777068 13.602803,6.36114963 13.6267606,6.27042254 C13.6605634,6.1943662 13.5126761,6.12253521 13.3859155,6.24507042 C13.275235,6.35552066 13.234599,6.51806459 13.2802817,6.66760563 C13.3056338,6.76478873 13.1915493,6.75211268 13.1239437,6.73521127 C13.1798458,6.67734385 13.2089232,6.5986882 13.2041043,6.51837346 C13.1992855,6.43805869 13.1610118,6.36344413 13.0985915,6.31267606 C12.9676056,6.21549296 12.9464789,6.2915493 12.8450704,6.41830986 C12.7913644,6.47618087 12.7720997,6.55805594 12.7943662,6.63380282 C12.8090144,6.6629258 12.8114539,6.69668531 12.8011451,6.72761176 C12.7908363,6.75853821 12.7686289,6.78408207 12.7394366,6.79859155 C12.7055147,6.81823432 12.6846288,6.8544633 12.6846288,6.89366197 C12.6846288,6.93286065 12.7055147,6.96908962 12.7394366,6.98873239 C12.8197183,7.05633803 12.8112676,7.1028169 12.7394366,7.18732394 C12.6717758,7.2805683 12.6717758,7.40675565 12.7394366,7.5 C12.7901114,7.58671944 12.8052537,7.68968713 12.7816901,7.78732394 C12.7586401,7.97093561 12.6805715,8.14327572 12.5577465,8.28169014 C12.4707453,8.37437852 12.4032166,8.48357387 12.3591549,8.6028169 C12.2258703,8.73411537 12.0698075,8.84006632 11.8985915,8.91549296 C11.9070931,8.85805939 11.9070931,8.79968708 11.8985915,8.74225352 C11.9281628,8.63009273 11.9479552,8.51557956 11.9577465,8.4 C11.9656481,8.37982073 11.977096,8.36121786 11.9915493,8.34507042 C12.1478873,8.1971831 12.0295775,8.00704225 12.1309859,7.92253521 C12.2323944,7.83802817 12.228169,7.74084507 12.1309859,7.74929577 C12.0338028,7.75774648 12.071831,7.74929577 12.071831,7.71549296 C12.0849815,7.67929686 12.1005082,7.64400879 12.1183099,7.60985915 L12.1183099,7.58873239 C12.1423852,7.56313808 12.1610657,7.53296197 12.1732394,7.5 L12.2112676,7.44507042 C12.2491835,7.48811861 12.2779366,7.53843655 12.2957746,7.59295775 C12.2450704,7.69859155 12.2619718,7.80422535 12.3507042,7.78732394 C12.5577465,7.91830986 12.7056338,7.82112676 12.5366197,7.60140845 C12.5661972,7.52957746 12.5366197,7.5 12.3971831,7.5 C12.3402932,7.4562897 12.2964552,7.39783906 12.2704225,7.33098592 C12.3042254,7.14084507 12.4352113,6.94647887 12.4352113,6.84929577 C12.4477382,6.73011199 12.4997998,6.61855128 12.5830986,6.53239437 C12.6908624,6.38476986 12.741861,6.2032751 12.7267606,6.02112676 C12.8192775,5.87880777 12.936639,5.75429011 13.0732394,5.65352113 C13.1577465,5.59014085 13.2211268,5.48028169 13.1450704,5.43380282 C13.1047412,5.41512494 13.0789302,5.37472618 13.0789302,5.33028169 C13.0789302,5.2858372 13.1047412,5.24543844 13.1450704,5.22676056 C13.2115542,5.19432308 13.249218,5.12241942 13.2380282,5.04929577 C13.3605634,4.99859155 13.4535211,5.04929577 13.4535211,5.1084507 C13.4535211,5.16760563 13.4915493,5.21408451 13.5549296,5.1971831 C13.6330535,5.18180772 13.7134254,5.18180772 13.7915493,5.1971831 C13.8971831,5.1971831 13.8760563,5.1971831 13.8676056,5.1084507 C13.8591549,5.01971831 13.8676056,4.99014085 13.9521127,5.07042254 C13.9676208,5.09417565 13.9920308,5.1106931 14.0198473,5.11625641 C14.0476639,5.12181972 14.076549,5.11596127 14.1,5.1 L14.1295775,5.07042254 C14.1481857,4.97477459 14.1062567,4.87749951 14.0239437,4.82535211 C13.9394366,4.77464789 13.9014085,4.72394366 13.9394366,4.67746479 C13.9774648,4.63098592 13.9943662,4.62676056 13.8633803,4.59295775 C13.6084513,4.54361823 13.3467398,4.63570187 13.1788732,4.83380282 L13.1408451,4.7915493 C13.0859155,4.75352113 13.1070423,4.7028169 13.1408451,4.64788732 C13.1746479,4.59295775 13.1408451,4.51690141 12.9887324,4.5971831 C12.8842569,4.63752921 12.8098592,4.73133507 12.7943662,4.84225352 C12.7943662,4.91408451 12.7943662,4.93943662 12.6971831,4.97323944 C12.6035356,5.01721031 12.5622296,5.12798548 12.6042254,5.22253521 C12.634382,5.28552207 12.6921957,5.33083551 12.7605634,5.34507042 C12.8408451,5.34507042 12.8661972,5.46338028 12.7605634,5.42957746 C12.6549296,5.39577465 12.5450704,5.42957746 12.5957746,5.53521127 C12.6060139,5.66176504 12.6060139,5.78893918 12.5957746,5.91549296 C12.5290987,6.01011452 12.4990671,6.12573613 12.5112676,6.24084507 C12.4935859,6.36263446 12.4472451,6.47848665 12.3760563,6.57887324 C12.3760563,6.29577465 12.3464789,5.63661972 12.3422535,5.11267606 C12.3547925,5.06131762 12.3547925,5.00769646 12.3422535,4.95633803 C12.4014085,4.74929577 12.5661972,4.37323944 12.7647887,4.35211268 C12.8379278,4.36330323 12.9103349,4.32794163 12.9464789,4.26338028 C12.9441276,4.23982458 12.9512865,4.21630593 12.9663632,4.19805511 C12.98144,4.1798043 13.0031845,4.16833466 13.0267606,4.16619718 C13.0774648,4.16619718 13.0985915,4.07746479 13.0267606,4.0056338 C13.0036682,3.97373624 12.9942511,3.93394606 13.0005964,3.89508156 C13.0069416,3.85621707 13.028525,3.82148818 13.0605634,3.79859155 L13.0816901,3.79859155 C13.1656127,3.77048814 13.2109694,3.67977469 13.1830986,3.59577465 L13.1830986,3.56197183 C13.1368959,3.50120007 13.0599476,3.4722922 12.9851596,3.48761024 C12.9103716,3.50292824 12.8509845,3.55976028 12.8323944,3.63380282 C12.7901408,3.71830986 12.7647887,3.75211268 12.7014085,3.70985915 C12.652398,3.67958924 12.590271,3.68053238 12.542202,3.71227606 C12.494133,3.74401973 12.4688706,3.80078658 12.4774648,3.85774648 C12.5476276,4.05380201 12.5259061,4.27101617 12.4183099,4.44929577 L12.3929577,4.49577465 C12.3929577,4.42394366 12.4267606,4.36056338 12.4394366,4.32253521 C12.479747,4.21082146 12.4398626,4.08596599 12.3422535,4.01830986 C12.2619718,3.99295775 12.2704225,3.95915493 12.3422535,3.83661972 C12.4394366,3.60422535 12.3422535,3.54507042 12.228169,3.49859155 C12.1350823,3.47423392 12.0623858,3.40153745 12.0380282,3.3084507 C12.0253495,3.26311813 11.9947695,3.22489661 11.9533238,3.20257969 C11.9118781,3.18026277 11.8631354,3.17577211 11.8183099,3.19014085 C11.7680979,3.20356758 11.7278419,3.24107087 11.7108982,3.2902077 C11.6939544,3.33934458 11.7025387,3.39368928 11.7338028,3.43521127 C11.7603826,3.46141546 11.775347,3.49718214 11.775347,3.53450704 C11.775347,3.57183194 11.7603826,3.60759862 11.7338028,3.63380282 C11.6788732,3.6971831 11.7338028,3.82394366 11.8690141,3.79014085 C11.8582071,3.8699253 11.901197,3.94730713 11.9746479,3.98028169 C12.0253521,4.01830986 12.0042254,4.07746479 11.9492958,4.17042254 C11.9471671,4.13374217 11.9302026,4.09950756 11.9023059,4.07559613 C11.8744093,4.05168469 11.8379828,4.04015569 11.8014085,4.04366197 C11.6704225,4.06901408 11.6450704,4.04366197 11.6112676,3.95492958 C11.5444671,3.87497468 11.4257626,3.86366949 11.3450704,3.92957746 C11.243662,4.01408451 11.1,4.27183099 11.3957746,4.24225352 C11.5225352,4.24225352 11.5859155,4.24225352 11.5225352,4.31408451 C11.4780488,4.35966093 11.4666655,4.42812634 11.4940108,4.48564576 C11.5213561,4.54316518 11.5816399,4.57755934 11.6450704,4.57183099 C11.732258,4.57010806 11.8187733,4.58741113 11.8985915,4.62253521 C11.7760563,4.66901408 11.7633803,4.74084507 11.8647887,4.7915493 C12.033608,4.81839059 12.1744549,4.93495352 12.2323944,5.09577465 C12.252588,5.21306392 12.2638878,5.33171172 12.2661972,5.45070423 C12.2661972,5.4971831 12.2239437,5.45070423 12.228169,5.45070423 C12.228169,5.42970186 12.2111432,5.41267606 12.1901408,5.41267606 C12.1225352,5.27323944 12.0295775,5.2056338 11.9746479,5.24788732 C11.9480289,5.3540809 11.9880645,5.46584696 12.0760563,5.53098592 C12.0042254,5.62816901 12.0760563,5.73802817 12.1521127,5.71267606 C12.1905047,5.68233828 12.2447065,5.68233828 12.2830986,5.71267606 C12.3167767,5.90700232 12.3167767,6.10567373 12.2830986,6.3 C12.2584216,6.41062352 12.2702824,6.52626638 12.3169014,6.62957746 C12.3466789,6.74028617 12.3466789,6.85689693 12.3169014,6.96760563 C12.2628265,7.1072667 12.1933856,7.24048006 12.1098592,7.36478873 C12.0478103,7.38980489 11.9968224,7.43629382 11.9661972,7.49577465 C11.9783939,7.38123908 12.0174843,7.27120686 12.0802817,7.17464789 C12.113689,7.14242032 12.1282295,7.09530892 12.1187965,7.04985913 C12.1093635,7.00440938 12.0772759,6.96697546 12.0338028,6.95070423 C11.9323944,6.9084507 11.7042254,7.00140845 11.8267606,7.33943662 C11.8014085,7.26338028 11.7295775,7.28028169 11.6619718,7.39859155 C11.5986457,7.47283804 11.5986457,7.58209154 11.6619718,7.65633803 C11.7266387,7.70530132 11.7415107,7.79639206 11.6957746,7.86338028 C11.6530436,7.94551792 11.6806399,8.04670415 11.7591549,8.09577465 C11.8313164,8.17260723 11.8599098,8.28062658 11.8352113,8.38309859 C11.8225838,8.50672065 11.8225838,8.63130752 11.8352113,8.75492958 C11.7971831,8.90704225 11.7338028,9.05070423 11.7042254,9.17746479 C11.6850507,9.24337863 11.6535032,9.30503966 11.6112676,9.35915493 C11.6330702,9.31310096 11.6418383,9.26195375 11.6366197,9.21126761 C11.627262,9.14100769 11.6454297,9.06985039 11.6873239,9.01267606 C11.7268762,8.9311467 11.7018879,8.83297842 11.628169,8.78028169 C11.5955534,8.76021296 11.5723002,8.72795277 11.5635733,8.69066506 C11.5548464,8.6533773 11.5613681,8.61414854 11.5816901,8.58169014 L11.6112676,8.54788732 C11.6404263,8.51913625 11.6461231,8.47416541 11.6250548,8.43905159 C11.6039866,8.40393782 11.5616255,8.3878017 11.5225352,8.4 L11.4760563,8.4 C11.4760563,8.17183099 11.4380282,7.73661972 11.4295775,7.55492958 C11.4156254,7.35834279 11.4881513,7.1654547 11.628169,7.02676056 C11.6742634,7.00563435 11.7100103,6.96697238 11.7274658,6.91936656 C11.7449213,6.87176075 11.7426392,6.81915482 11.7211268,6.77323944 C11.7041275,6.73516065 11.7030457,6.69186858 11.7181217,6.65298828 C11.7331978,6.61410794 11.7631822,6.58286197 11.8014085,6.56619718 C11.8921655,6.50034545 11.9242402,6.37983448 11.8782258,6.27758007 C11.8322113,6.1753257 11.7207439,6.1194087 11.6112676,6.14366197 C11.7126761,6.02957746 11.5647887,5.78873239 11.6535211,5.72112676 C11.7295564,5.68169121 11.7805381,5.60652887 11.789061,5.52130048 C11.7975838,5.43607204 11.7624952,5.3523027 11.6957746,5.29859155 C11.7422535,5.13380282 11.5943662,5.11690141 11.6366197,4.97746479 C11.6788732,4.83802817 11.5647887,4.79577465 11.4802817,4.91830986 C11.3957746,5.04084507 11.3746479,5.01549296 11.315493,4.94366197 C11.2837558,4.89255621 11.2297058,4.85948421 11.1697551,4.85448832 C11.1098044,4.84949244 11.0510259,4.87316201 11.0112676,4.91830986 C10.9690141,5.26478873 10.9521127,7.58873239 11.2732394,7.62676056 C11.2732394,7.74929577 11.3366197,8.14647887 11.3704225,8.41267606 C11.3467672,8.40281324 11.3252446,8.38846483 11.3070423,8.37042254 C11.2183099,8.2943662 11.184507,8.39577465 11.2267606,8.49295775 C11.2690141,8.59014085 11.1380282,8.56056338 11.2267606,8.66619718 C11.2631133,8.72021468 11.2929007,8.77837103 11.315493,8.83943662 C11.1760563,8.75492958 11.1042254,8.93661972 11.1507042,9.0971831 C11.1750459,9.17933932 11.1836475,9.26535469 11.1760563,9.35070423 L11.1760563,9.32535211 C11.1028118,9.26511038 11.0448903,9.18836446 11.0070423,9.10140845 L11.0070423,9.02957746 C11.0076496,8.97154889 11.0269081,8.91525494 11.0619718,8.86901408 C11.1507042,8.75492958 11.2690141,8.5943662 10.956338,8.30704225 C10.7830216,8.54888979 10.6568731,8.82125569 10.584507,9.10985915 C10.611108,9.28033196 10.7056159,9.43276407 10.8464789,9.53239437 C10.7941695,9.52921813 10.7431308,9.54932425 10.7070423,9.58732394 C10.6790475,9.64457696 10.6183303,9.67830875 10.5549296,9.67183099 L10.5253521,9.67183099 C10.4165324,9.63434675 10.2962019,9.65334625 10.2042254,9.72253521 C10.1225367,9.80423611 10.0717568,9.91177027 10.0605634,10.0267606 C10.068268,10.1129265 10.0373088,10.1980642 9.97605634,10.2591549 C9.91267606,10.3056338 9.83239437,10.415493 9.94647887,10.4915493 C10.0076225,10.5153619 10.0754761,10.5153619 10.1366197,10.4915493 C9.97509249,10.6284977 9.79244451,10.7383719 9.59577465,10.8169014 C9.641427,10.6332381 9.65288548,10.4427409 9.62957746,10.2549296 L9.38873239,10.5380282 C9.43943662,11.0661972 9.11830986,11.1929577 8.77183099,11.4380282 C8.4971831,11.628169 7.86760563,12.1098592 7.45352113,12.4478873 C7.40704225,12.4014085 7.36901408,12.3549296 7.33521127,12.3126761 C7.02310183,11.9784605 6.67281444,11.6820635 6.2915493,11.4295775 C5.93919507,11.2146631 5.56877928,11.030869 5.18450704,10.8802817 C4.94409477,10.7648113 4.75995739,10.5578469 4.67323944,10.3056338 C4.659534,10.1067622 4.52267645,9.93780228 4.33098592,9.88309859 C4.38867106,9.86820435 4.42628231,9.8127401 4.41877534,9.75363803 C4.41126841,9.69453592 4.36098541,9.65023572 4.30140845,9.65023572 C4.24183149,9.65023572 4.19154849,9.69453592 4.18404156,9.75363803 C4.17653459,9.8127401 4.21414585,9.86820435 4.27183099,9.88309859 L4.2,9.88309859 C4.1414438,9.62891641 4.150182,9.36385813 4.22535211,9.11408451 C4.32208711,8.77226273 4.28428897,8.40637669 4.11971831,8.0915493 C4.07413606,8.30778465 3.98966725,8.51394579 3.87042254,8.7 C3.76396344,9.10131448 3.83473411,9.52901552 4.06478873,9.87464789 L3.84929577,9.87464789 C3.81126761,9.81126761 3.78169014,9.74788732 3.76056338,9.70985915 C3.73943662,9.67183099 3.60422535,9.58309859 3.49014085,9.47746479 C3.48482307,9.24990161 3.53256224,9.02422568 3.62957746,8.81830986 C3.71830986,8.64507042 3.46478873,8.22253521 3.50704225,7.79577465 C3.43937759,7.87905406 3.38389314,7.97152813 3.34225352,8.07042254 C3.34880392,7.96207073 3.34880392,7.85342223 3.34225352,7.74507042 C3.57990089,7.33453073 3.59888763,6.83296504 3.39295775,6.4056338 C3.53727313,6.04196176 3.64760324,5.66570768 3.72253521,5.28169014 L3.68450704,5.31971831 C3.73943662,4.8971831 3.68450704,4.47464789 3.68450704,4.40704225 C3.49922658,4.8040118 3.40262189,5.23657006 3.40140845,5.67464789 C3.36454986,5.74867115 3.3361999,5.82663351 3.31690141,5.90704225 C3.27493487,5.68776765 3.19177635,5.47843754 3.07183099,5.29014085 C2.8056338,6.17746479 3.17323944,6.66760563 3.26197183,7.06056338 C3.26197183,7.13239437 3.24084507,7.2 3.22816901,7.27605634 C3.13098592,7.01408451 2.8943662,6.75633803 2.84366197,6.56197183 C2.68732394,7.15352113 3.08873239,7.87605634 3.26619718,8.30704225 C3.25007058,8.37802639 3.23877706,8.45002259 3.23239437,8.52253521 C3.21995134,8.45600675 3.19713824,8.39184494 3.16478873,8.33239437 C3.02164246,8.11473756 2.92391531,7.87041963 2.87746479,7.61408451 C2.78517744,7.78392989 2.73721944,7.97430858 2.73802817,8.16760563 C2.73802817,8.12535211 2.73802817,8.08732394 2.7084507,8.05352113 C2.7443433,8.0258272 2.76043255,7.9795091 2.74943725,7.935528 C2.738442,7.89154694 2.70244885,7.85824944 2.65774648,7.85070423 C2.65044925,7.59534803 2.68178911,7.34035551 2.75070423,7.0943662 C2.65959756,7.0590308 2.602776,6.96777194 2.61126761,6.87042254 C2.61126761,6.78591549 2.61126761,6.71408451 2.61126761,6.58732394 C2.79631099,6.080892 2.86701473,5.53979193 2.81830986,5.0028169 C2.76910318,5.11324018 2.70819123,5.21806542 2.63661972,5.31549296 C2.5751018,5.05320063 2.70548244,4.78362985 2.94929577,4.66901408 C3.62535211,4.13661972 3.49859155,3.77323944 3.74366197,3.5915493 C3.49099403,3.72188877 3.25775751,3.88686097 3.05070423,4.08169014 C3.31284389,3.76402808 3.49278245,3.38673756 3.57464789,2.98309859 C3.27671789,3.15864161 3.0506561,3.43410765 2.93661972,3.76056338 C2.91851442,3.96491324 2.87595676,4.16635276 2.80985915,4.36056338 L2.75492958,4.44507042 C2.82231372,4.06986439 2.79619137,3.68383415 2.67887324,3.32112676 C2.63628655,3.51770358 2.56208273,3.70606715 2.45915493,3.87887324 C2.36156003,4.22924899 2.39459548,4.60315018 2.55211268,4.93098592 C2.51350885,5.10858562 2.50493949,5.29139886 2.52676056,5.47183099 C2.42974606,5.59318213 2.36961697,5.73983839 2.35352113,5.8943662 C2.29859155,6.25352113 2.57323944,6.35070423 2.52253521,6.62112676 C2.50433823,6.74426569 2.49445669,6.86849058 2.49295775,6.99295775 C2.47888001,7.03864563 2.49596514,7.08819262 2.53521127,7.11549296 C2.58514521,7.16556144 2.59863165,7.24142282 2.56901408,7.3056338 C2.56901408,7.35211268 2.51830986,7.51690141 2.48873239,7.69014085 C2.45000299,7.62137286 2.42691938,7.54490835 2.42112676,7.46619718 C2.35924513,7.57616442 2.31773379,7.69640425 2.29859155,7.82112676 C2.12957746,7.33943662 2.59859155,7.33098592 2.13380282,6.35070423 C2.03811689,6.58869849 1.98657177,6.84212861 1.98169014,7.09859155 C1.95929899,6.90472923 1.90802717,6.7153083 1.82957746,6.53661972 C1.87183099,6.15633803 2.0915493,6.19014085 2.07042254,5.6915493 C2.00852185,5.42558442 2.0216869,5.14765525 2.1084507,4.88873239 C1.98812582,5.01033608 1.89204951,5.15373351 1.82535211,5.31126761 C1.74998966,5.089188 1.70867666,4.85698035 1.7028169,4.62253521 C1.5079563,4.93878275 1.41776548,5.30841731 1.44507042,5.67887324 C1.30361341,5.57187815 1.17960465,5.44359321 1.07746479,5.29859155 C1.17042254,5.91971831 1.28450704,6.32535211 1.46619718,6.45211268 C1.54228361,6.51164645 1.60674135,6.58469856 1.65633803,6.66760563 C1.60059359,6.6782839 1.56028661,6.72704485 1.56028661,6.78380282 C1.56028661,6.84056079 1.60059359,6.88932173 1.65633803,6.9 C1.6914338,6.90175787 1.72549492,6.8878238 1.74929577,6.86197183 C1.77887324,6.92112676 1.80422535,6.98028169 1.82535211,7.04366197 L1.76619718,7.00985915 C1.54504961,6.93693376 1.34690434,6.80726514 1.1915493,6.63380282 C1.20510304,6.95701352 1.4019799,7.24412561 1.69859155,7.37323944 C1.91426958,7.50603685 2.10930308,7.66975111 2.27746479,7.85915493 C2.25823745,8.03864138 2.28894325,8.2199517 2.36619718,8.38309859 C2.16639368,8.23138754 1.9935559,8.04712251 1.85492958,7.83802817 C1.85756692,8.28295099 2.1087341,8.689059 2.5056338,8.89014085 C2.65775066,8.95604489 2.7999589,9.04279192 2.92816901,9.14788732 L2.97042254,9.18169014 C3.00425193,9.34940594 3.10903994,9.49426001 3.25774648,9.57887324 C3.39785721,9.66220124 3.52344777,9.76781146 3.62957746,9.8915493 C3.17746479,9.8915493 2.61549296,9.84084507 2.45915493,9.81971831 C2.34929577,9.67605634 2.24788732,9.53661972 2.17605634,9.43521127 C2.22976825,8.98562007 2.11042901,8.53243314 1.84225352,8.16760563 C1.71329079,8.46845214 1.71329079,8.80901265 1.84225352,9.10985915 C1.79447066,9.07096923 1.74193669,9.03831296 1.68591549,9.01267606 C1.63162272,8.88913631 1.56952546,8.76917573 1.5,8.65352113 C1.40704225,8.23098592 1.59295775,8.0028169 0.878873239,7.24647887 C0.815426197,7.47147203 0.830325296,7.71134806 0.921126761,7.92676056 C0.846235859,7.79356986 0.788050521,7.65165444 0.747887324,7.50422535 C0.625352113,7.00985915 0.211267606,7.05633803 0.0464788732,6.81126761 C0.270422535,7.6056338 0.426760563,7.6943662 0.574647887,7.80422535 C0.737408535,7.93158976 0.888691732,8.07297592 1.02676056,8.22676056 C0.752112676,8.18450704 0.494366197,8.2943662 0.321126761,8.1 C0.511267606,8.6915493 1.28028169,8.54366197 1.56760563,8.97042254 C1.50858363,8.96481423 1.44916285,8.96481423 1.39014085,8.97042254 C1.15486061,8.99316866 0.918378972,8.94143831 0.714084507,8.82253521 C0.878873239,9.34225352 1.75774648,9.16056338 2.10422535,9.56619718 C2.18397427,9.64871873 2.25091399,9.74271917 2.3028169,9.84507042 L2.25211268,9.87042254 L1.89295775,9.84929577 C1.37323944,9.42676056 1.25492958,9.28732394 0.515492958,9.32535211 C0.683631338,9.4810857 0.864548493,9.62242724 1.05633803,9.74788732 C0.730803423,9.7695731 0.423007183,9.90404717 0.185915493,10.128169 C0.408890366,10.1276854 0.631735437,10.1389687 0.853521127,10.1619718 C0.810208014,10.3218334 0.725703676,10.4675306 0.608450704,10.584507 C0.946478873,10.3690141 1.31830986,10.4450704 1.58873239,10.3352113 C1.83503324,10.2480305 2.06604097,10.1225449 2.27323944,9.96338028 L2.30704225,9.96338028 C2.2597342,9.98941546 2.23605752,10.0441792 2.24949811,10.0964786 C2.2629387,10.148778 2.31008561,10.1853405 2.36408451,10.1853405 C2.41808341,10.1853405 2.46523031,10.148778 2.4786709,10.0964786 C2.49211149,10.0441792 2.46843482,9.98941546 2.42112676,9.96338028 L2.51408451,9.96338028 L2.7084507,9.98873239 C2.69934431,10.0371354 2.7201033,10.0862866 2.76114946,10.1135077 C2.80219563,10.1407288 2.85555085,10.1407288 2.89659701,10.1135077 C2.93764318,10.0862866 2.95840217,10.0371354 2.94929577,9.98873239 C3.2028169,9.98873239 3.48591549,10.0183099 3.65915493,10.0098592 L3.74788732,10.0098592 C3.81549296,10.0985915 3.86197183,10.1746479 3.90422535,10.2295775 C4.00197338,10.3427411 4.10638411,10.4499738 4.21690141,10.5507042 C4.056057,10.5777308 3.89183032,10.5777308 3.73098592,10.5507042 L3.66760563,10.5507042 C3.72460458,10.5348576 3.76113625,10.4793436 3.75313956,10.4207257 C3.74514287,10.3621079 3.69507625,10.3184077 3.63591549,10.3184077 C3.57675473,10.3184077 3.52668811,10.3621079 3.51869142,10.4207257 C3.51069473,10.4793436 3.54722641,10.5348576 3.60422535,10.5507042 C3.46171673,10.5678135 3.32054311,10.5946364 3.18169014,10.6309859 C2.75915493,10.5507042 2.46338028,10.2380282 1.88450704,10.4408451 C2.0059088,10.4700276 2.11787839,10.5296478 2.20985915,10.6140845 C1.60985915,10.5676056 1.06901408,10.9690141 0.942253521,10.9690141 C1.13163025,11.0152456 1.3262329,11.0365525 1.52112676,11.0323944 L1.39859155,11.0788732 C0.848595127,11.0409015 0.318565986,11.292305 0,11.7422535 C0.263435873,11.6520848 0.535200887,11.5883898 0.811267606,11.5521127 C0.725602225,11.6784175 0.607331789,11.7791664 0.469014085,11.843662 C0.934718282,11.9964617 1.44048503,11.7718794 1.63943662,11.3239437 C1.60290232,11.5077832 1.50628639,11.6742598 1.36478873,11.7971831 C1.67207159,11.7224662 1.94032952,11.5355899 2.11690141,11.2732394 C2.09968707,11.3316052 2.08558272,11.3908434 2.07464789,11.4507042 C2.22355999,11.3079242 2.41487518,11.2174574 2.61971831,11.1929577 C2.88169014,11.1338028 3.02112676,10.8211268 3.26197183,10.715493 C3.21089096,10.7408252 3.1541119,10.7524722 3.0971831,10.7492958 C3.17402062,10.7100949 3.26101538,10.69535 3.34647887,10.7070423 C3.37235561,10.716769 3.40088383,10.716769 3.42676056,10.7070423 C3.40274189,10.7642001 3.42692235,10.8302055 3.48218015,10.8583211 C3.537438,10.8864368 3.60502842,10.8671253 3.63709192,10.8140607 C3.66915537,10.7609961 3.65481515,10.6921792 3.60422535,10.656338 C3.65282408,10.6356734 3.7077393,10.6356734 3.75633803,10.656338 C3.84203704,10.7021715 3.9426521,10.7113184 4.03521127,10.6816901 C4.1146083,10.6466134 4.20511001,10.6466134 4.28450704,10.6816901 C4.12080055,10.77073 4.00143211,10.9237664 3.95492958,11.1042254 C3.79019637,11.3324085 3.69085339,11.6012189 3.66760563,11.8816901 C3.87721044,11.8114956 4.06305837,11.6841825 4.20422535,11.5140845 C4.28732818,11.3650402 4.31430908,11.1911633 4.28028169,11.0239437 C4.26872514,10.9172133 4.26872514,10.8095472 4.28028169,10.7028169 C4.31403254,10.7234056 4.34173141,10.7525623 4.36056338,10.7873239 C4.39046954,10.8884561 4.48801183,10.9540754 4.59295775,10.943662 C4.68427686,10.9361185 4.77571255,10.9567653 4.85492958,11.0028169 C5.11242777,11.0896451 5.36252911,11.1970333 5.6028169,11.3239437 C6.14066417,11.6515321 6.65335141,12.0187462 7.13661972,12.4225352 L7.2971831,12.5830986 L7.17464789,12.6887324 C7.0639279,12.7638244 6.97384699,12.8655287 6.91267606,12.984507 C6.86277537,13.1076487 6.76961396,13.2083231 6.65070423,13.2676056 C6.52549551,13.324333 6.42708038,13.4272904 6.37605634,13.5549296 C6.25513521,13.6420572 6.14330256,13.7411495 6.04225352,13.8507042 C5.92413456,13.9971534 5.9408179,14.2103292 6.08028169,14.3366197 C6.1434777,14.2672541 6.19102999,14.1851184 6.21971831,14.0957746 C6.30246465,13.952573 6.41482766,13.8286855 6.54929577,13.7323944 C6.63825515,13.694687 6.70515224,13.6184555 6.73098592,13.5253521 C6.78277935,13.4171224 6.86313169,13.3250825 6.96338028,13.2591549 C7.09097696,13.1878391 7.19628985,13.0825263 7.26760563,12.9549296 C7.31702104,12.8766164 7.37360197,12.8030612 7.43661972,12.7352113 C7.53200472,12.8331944 7.61308576,12.9441474 7.67746479,13.0647887 C7.77029125,13.2276921 7.8936723,13.3711584 8.04084507,13.4873239 C8.18148068,13.6174818 8.30119813,13.7685538 8.39577465,13.9352113 C8.46272058,14.0722023 8.54493228,14.2011897 8.64084507,14.3197183 C8.66957489,14.3494332 8.70227962,14.3750282 8.73802817,14.3957746 C8.81719263,14.1609303 8.77271485,13.9020062 8.61971831,13.7070423 C8.48435899,13.6145145 8.37985796,13.4835203 8.31971831,13.3309859 C8.26754861,13.1906902 8.16516182,13.0747522 8.03239437,13.0056338 C7.86558613,12.878436 7.71007838,12.7370654 7.56760563,12.5830986 C7.62227104,12.5289893 7.68012059,12.4781946 7.74084507,12.4309859 C7.94788732,12.2704225 9.0084507,11.556338 9.33380282,11.2774648 C9.44938762,11.1603452 9.57683294,11.0555568 9.71408451,10.9647887 C9.80236158,10.977501 9.89200462,10.977501 9.98028169,10.9647887 C10.0899557,10.9796835 10.1714294,11.0738308 10.1704225,11.184507 C10.1704225,11.2901408 10.2422535,11.3028169 10.3521127,11.2816901 C10.3850772,11.2689551 10.4222264,11.2735475 10.4510971,11.2939269 C10.4799679,11.3143063 10.4967355,11.3477727 10.4957746,11.3830986 C10.5272806,11.4955765 10.6326592,11.5710977 10.7492958,11.5647887 L11.3492958,11.2985915 C11.3362379,11.2115713 11.3464425,11.1226453 11.3788732,11.0408451 C11.4169014,10.9901408 11.3323944,10.9225352 11.2225352,10.8971831 C11.1201989,10.8684267 11.010565,10.9033102 10.943662,10.9859155 C10.9152572,11.0188343 10.8723687,11.0355127 10.8291869,11.0304325 C10.786005,11.0253523 10.7481584,10.9991756 10.728169,10.9605634 C10.6785947,10.8711899 10.5852768,10.8148773 10.4830986,10.8126761 C10.4275715,10.8419746 10.3611609,10.8419746 10.3056338,10.8126761 C10.2161234,10.7856765 10.1193579,10.7979642 10.0394366,10.8464789 C9.98711463,10.8700546 9.9315777,10.8857188 9.87464789,10.8929577 C9.95482259,10.8516556 10.0276318,10.7974056 10.0901408,10.7323944 C10.2176973,10.6549606 10.3634827,10.6126829 10.5126761,10.6098592 C10.5471399,10.6594377 10.6044475,10.6880915 10.6647887,10.6859155 C10.8144676,10.7415992 10.9756816,10.7590277 11.1338028,10.7366197 L11.2098592,10.7028169 C11.4285596,10.7208764 11.6427417,10.7751359 11.843662,10.8633803 C11.980296,10.9496557 12.135032,11.0031625 12.2957746,11.0197183 C12.443662,11.0197183 12.4140845,11.0915493 12.3971831,11.1591549 C12.284232,11.2687646 12.2307895,11.4259484 12.2535211,11.5816901 C12.2912367,11.643879 12.3089366,11.7161533 12.3042254,11.7887324 C12.291866,11.8154351 12.2995098,11.8471324 12.3226816,11.8652668 C12.3458534,11.8834012 12.3784586,11.8832032 12.4014085,11.8647887 C12.4521127,11.8225352 12.4859155,11.8647887 12.4690141,11.9323944 C12.4631311,11.9700546 12.4798074,12.007677 12.5116619,12.02861 C12.5435165,12.049543 12.5846674,12.0499213 12.6169014,12.0295775 C12.7056338,11.9788732 12.756338,12.0295775 12.7732394,12.0887324 C12.7901408,12.1478873 13.0521127,12.1478873 13.0267606,12.0464789 C13.0014085,11.9450704 12.9971831,11.8816901 13.0690141,11.856338 C13.12257,11.8162282 13.1474219,11.7483 13.1323944,11.6830986 C13.1545413,11.6890143 13.177853,11.6890143 13.2,11.6830986 C13.2498768,11.647948 13.2676329,11.5822506 13.2422535,11.5267606 C13.2798286,11.5696899 13.3331684,11.5955979 13.3901408,11.5985915 C13.3438112,11.7036973 13.3348644,11.8214972 13.3647887,11.9323944 C13.4323944,12.0633803 13.4788732,12.0295775 13.5464789,11.9577465 C13.6140845,11.8859155 13.6943662,11.9577465 13.6225352,12.0549296 C13.5718869,12.1394541 13.5959832,12.2488142 13.6774648,12.3042254 C13.744453,12.3499614 13.8355437,12.3350894 13.884507,12.2704225 C13.940732,12.2312948 13.9557013,12.1545774 13.9183099,12.0971831 C13.8947104,12.0198923 13.9237436,11.9362083 13.9901408,11.8901408 C14.0577465,11.8140845 14.0915493,11.6408451 13.9901408,11.615493 C13.9011813,11.5973902 13.8242571,11.5420048 13.7788732,11.4633803 C13.8792402,11.5120196 14.0000475,11.4704921 14.0492958,11.3704225 C14.1380282,11.2690141 14.0070423,11.1549296 13.8591549,11.1042254 C13.7112676,11.0535211 13.7112676,10.9647887 13.7450704,10.9478873 C13.7788732,10.9309859 13.7450704,10.8633803 13.6056338,10.8338028 C13.2960275,10.8104194 12.9846904,10.8389825 12.684507,10.9183099 L12.5746479,10.9183099 C12.4137364,10.9252711 12.2530068,10.9008746 12.1014085,10.8464789 L12.1309859,10.8464789 C12.2619718,10.8464789 12.4014085,10.7704225 12.4943662,10.7788732 C12.557646,10.7915097 12.6215869,10.7604033 12.6507042,10.7028169 C12.6971831,10.6521127 12.7225352,10.6183099 12.7901408,10.643662 C12.8152838,10.6616662 12.8479868,10.6652815 12.8764553,10.6532039 C12.9049238,10.6411264 12.9250508,10.6150984 12.9295775,10.584507 L12.9633803,10.5338028 C13.0118506,10.5746935 13.0700748,10.60235 13.1323944,10.6140845 C13.1904045,10.6263905 13.2390639,10.665632 13.2633803,10.7197183 C13.3112274,10.767537 13.3887726,10.767537 13.4366197,10.7197183 L13.4619718,10.6901408 C13.884507,10.6394366 13.7028169,10.4070423 13.4323944,10.4112676 C13.3774648,10.3183099 13.271831,10.4112676 13.2338028,10.4535211 C13.2062291,10.4899761 13.156978,10.5022889 13.115493,10.4830986 L13.0478873,10.4492958 L13.1535211,10.3774648 C13.2253521,10.3352113 13.2338028,10.2633803 13.1535211,10.2295775 C13.0732394,10.1957746 13.1239437,10.1239437 13.2211268,10.056338 C13.3183099,9.98873239 13.3183099,9.88309859 13.1957746,9.78169014 C13.1305833,9.73264737 13.0457748,9.71797187 12.9678945,9.74225713 C12.8900142,9.76654238 12.8285785,9.82682087 12.8028169,9.90422535 C12.7478873,10.0394366 12.7098592,10.0478873 12.6338028,10.0140845 C12.6645619,9.93941328 12.701301,9.86734808 12.743662,9.79859155 C12.8112676,9.68450704 12.7098592,9.61690141 12.5704225,9.62535211 C12.4770083,9.61834842 12.3880078,9.66614497 12.3422535,9.74788732 C12.3165356,9.80258869 12.266341,9.84180321 12.2070423,9.85352113 C12.1169464,9.883311 12.0546934,9.96575417 12.0507042,10.0605634 C11.9716811,10.2336543 11.8547048,10.3867345 11.7084507,10.5084507 C11.6614825,10.5647436 11.5978686,10.6046873 11.5267606,10.6225352 L11.3492958,10.5802817 C11.3780979,10.5533507 11.3895026,10.5126197 11.3788732,10.4746479 C11.3540569,10.3914338 11.3786261,10.3013466 11.4422535,10.2422535 C11.4876763,10.1653621 11.4876763,10.0698492 11.4422535,9.99295775 C11.4186448,9.94622269 11.4015832,9.89645966 11.3915493,9.84507042 C11.5478873,9.72253521 11.7126761,9.66338028 11.784507,9.59577465 C11.8733697,9.52719106 11.9858703,9.49678551 12.0971831,9.51126761 C12.305294,9.51102376 12.5115704,9.47234696 12.7056338,9.3971831 C12.8820281,9.39844048 13.048932,9.47725627 13.1619718,9.61267606 C13.2076223,9.72746223 13.3173533,9.80394139 13.4408451,9.80704225 C13.5102762,9.74801341 13.612259,9.74801341 13.6816901,9.80704225 C13.7427665,9.87698877 13.8429431,9.89771497 13.9267606,9.85774648 C13.9809849,9.8139229 14.0584517,9.8139229 14.1126761,9.85774648 C14.1971831,9.89577465 14.3957746,9.91690141 14.3028169,9.62112676 L14.3915493,9.56619718 C14.5478873,9.45633803 14.5521127,9.3971831 14.4549296,9.28732394 C14.3961573,9.19783183 14.2901205,9.15144072 14.184507,9.16901408 C14.1292079,9.18431459 14.0707921,9.18431459 14.015493,9.16901408 C14.3450704,8.92394366 14.2014085,8.85633803 13.943662,8.74647887 C13.6859155,8.63661972 13.584507,8.74647887 13.5760563,8.81830986 C13.5676056,8.89014085 13.5295775,8.9028169 13.428169,8.85633803 C13.3439103,8.81842851 13.2446613,8.85151154 13.2,8.93239437 C13.2,8.98309859 13.1619718,8.99577465 13.0816901,8.99577465 C12.9681004,9.0278618 12.8731103,9.10599887 12.8197183,9.21126761 C12.7896662,9.22122038 12.7612048,9.23545107 12.7352113,9.25352113 C12.2873239,9.47746479 11.9323944,9.30422535 11.784507,9.38873239 C11.8592523,9.25441792 11.9201295,9.11284297 11.9661972,8.96619718 C12.0679136,8.95514662 12.1659809,8.9219768 12.2535211,8.86901408 C12.2717635,8.87879882 12.2852293,8.89559658 12.2908108,8.91553073 C12.2963924,8.93546485 12.2936074,8.95681285 12.2830986,8.97464789 C12.2492958,9.01690141 12.2830986,9.15633803 12.3887324,9.12253521 C12.5366197,9.23661972 12.7732394,9.24084507 12.5873239,8.95774648 C12.5935515,8.93079782 12.5885014,8.90247477 12.5733436,8.87933924 C12.5581858,8.85620366 12.5342358,8.84026331 12.5070423,8.83521127 L12.4647887,8.83521127 C12.4155783,8.84719542 12.3636115,8.83459741 12.3253521,8.80140845 C12.4107901,8.74250717 12.482791,8.66618615 12.5366197,8.57746479 C12.5714373,8.50618779 12.6256163,8.44615158 12.6929577,8.40422535 C12.8397862,8.24208575 12.927621,8.03515297 12.9422535,7.81690141 L13.0225352,7.77042254 C13.2217107,7.61341606 13.4907463,7.57776076 13.7239437,7.67746479 C13.8950233,7.83407937 14.1296758,7.90134642 14.3577465,7.85915493 C14.4678268,7.77678004 14.606253,7.7417932 14.7422535,7.76197183 C14.8286826,7.79449576 14.9262202,7.76711675 14.9830986,7.6943662 C14.9981181,7.62451394 15.052683,7.56994906 15.1225352,7.55492958 C15.2323944,7.52535211 15.2323944,7.26760563 14.8225352,7.29295775 L14.7253521,7.29295775 Z M2.42957746,10.7366197 C2.39140154,10.7481409 2.35457121,10.7637229 2.31971831,10.7830986 L2.42535211,10.728169 L2.45070423,10.728169 L2.42957746,10.7366197 Z M1.63943662,11.0788732 C1.6643561,11.0338476 1.69729103,10.9937529 1.73661972,10.9605634 L1.80422535,10.9605634 C1.74472255,10.9963321 1.69065194,11.0404423 1.64366197,11.0915493 L1.63943662,11.0788732 Z M4.44929577,10.656338 C4.25227166,10.549336 4.10177535,10.3732553 4.02676056,10.1619718 C3.9306998,10.1192164 3.84972528,10.0485477 3.7943662,9.95915493 C3.97837872,9.9192338 4.16801738,9.99643183 4.27183099,10.1535211 C4.32441182,10.3408401 4.40261569,10.519998 4.50422535,10.6859155 L4.44929577,10.656338 Z M10.9732394,9.6971831 C10.9892742,9.73489496 11.0122013,9.76928569 11.0408451,9.79859155 C11.006384,9.77521885 10.9833731,9.73840128 10.9774648,9.6971831 L10.9732394,9.6971831 Z M11.028169,9.41830986 C11.028169,9.41830986 11.028169,9.41830986 11.028169,9.41830986 C10.9878873,9.45955377 10.962596,9.51311185 10.956338,9.57042254 C10.9680164,9.5093471 10.9957234,9.45247483 11.0366197,9.4056338 L11.028169,9.41830986 Z M2.37887324,9.47323944 C2.31353252,9.47323944 2.26056338,9.52620858 2.26056338,9.5915493 C2.26056338,9.65689001 2.31353252,9.70985915 2.37887324,9.70985915 C2.44421396,9.70985915 2.4971831,9.65689001 2.4971831,9.5915493 C2.4971831,9.52620858 2.44421396,9.47323944 2.37887324,9.47323944 Z M3.48591549,9.14788732 C3.42057477,9.14788732 3.36760563,9.20085646 3.36760563,9.26619718 C3.36760563,9.3315379 3.42057477,9.38450704 3.48591549,9.38450704 C3.55125621,9.38450704 3.60422535,9.3315379 3.60422535,9.26619718 C3.60422535,9.20085646 3.55125621,9.14788732 3.48591549,9.14788732 Z" id="Shape" fill="#57A863"></path>
                <path d="M8.97042265,4.39859155 C8.9071079,4.38006494 8.84190848,4.36872592 8.77605645,4.36478873 C8.89859166,4.41549296 8.93661983,4.28873239 8.89014096,4.22112676 C8.84366209,4.15352113 8.89014096,4.12816901 8.92394378,4.04788732 C8.94680606,3.97478814 8.9794998,3.9051363 9.02112687,3.84084507 L9.05070434,3.84084507 C9.10985927,3.86619718 9.18169025,3.76478873 9.10563392,3.6971831 C9.22335417,3.52146575 9.36564518,3.36352272 9.52816913,3.22816901 C9.49170544,3.22338815 9.45477366,3.22338815 9.41830997,3.22816901 L9.46056349,3.15633803 C9.48258113,3.16316848 9.50615149,3.16316848 9.52816913,3.15633803 C9.59351682,3.15606283 9.6493161,3.10909162 9.66073186,3.04474817 C9.67214762,2.98040476 9.63591261,2.91710489 9.574648,2.8943662 C9.574648,2.83521127 9.60845082,2.77605634 9.62112687,2.71690141 C9.7028028,2.71690141 9.7690142,2.65069001 9.7690142,2.56901408 C9.7690142,2.48733815 9.7028028,2.42112676 9.62112687,2.42112676 C9.60401851,2.33418452 9.56305389,2.25371827 9.50281702,2.18873239 C9.5236033,2.15103431 9.52308252,2.10519355 9.50144521,2.06797737 C9.47980794,2.03076123 9.44022818,2.00762915 9.39718321,2.00704225 C9.36354417,2.00652562 9.33127604,2.02035482 9.30845082,2.04507042 C9.25406631,2.01676834 9.19755687,1.99275182 9.13943673,1.97323944 C9.15368876,1.94245428 9.1550064,1.90724096 9.14309483,1.87547679 C9.13118327,1.84371262 9.10703661,1.81804846 9.07605645,1.80422535 L9.02957758,1.80422535 C8.96351961,1.80418606 8.90932021,1.85651649 8.90704237,1.92253521 L8.71690152,1.88450704 C8.74252507,1.85170192 8.74740683,1.80723241 8.72951031,1.76964972 C8.71161383,1.73206707 8.67401331,1.7078272 8.63239448,1.70704225 C8.5966971,1.70691777 8.56335168,1.72483099 8.54374735,1.75466366 C8.52414299,1.78449634 8.5209321,1.82221225 8.53521138,1.85492958 L8.40845082,1.83380282 C8.41606575,1.78143262 8.38037787,1.73259655 8.32816913,1.72394366 C8.28276578,1.72318796 8.24346138,1.75534606 8.23521138,1.8 L8.10422547,1.77042254 C8.09059237,1.74098615 8.06058333,1.72264728 8.02816913,1.72394366 C8.01295135,1.71981389 7.99690803,1.71981389 7.98169025,1.72394366 L7.92253533,1.72394366 C7.9535882,1.71746197 7.98173394,1.70116707 8.00281702,1.67746479 C8.07042265,1.58450704 8.00281702,1.53380282 7.88873251,1.58028169 C7.774648,1.62676056 7.74507054,1.51690141 7.71549307,1.38169014 C7.71394406,1.25442308 7.63540731,1.14079549 7.51690152,1.0943662 L7.474648,1.05211268 C7.5372332,1.00271593 7.57568238,0.928893448 7.5802818,0.849295775 C7.59161492,0.73129767 7.52229962,0.620393218 7.41126772,0.578873239 L7.41126772,0.443661972 L7.61408462,0.443661972 L7.61408462,0.215492958 L7.41126772,0.215492958 L7.41126772,0 L7.20845082,0 L7.20845082,0.21971831 L7.00563392,0.21971831 L7.00563392,0.447887324 L7.20845082,0.447887324 L7.20845082,0.583098592 C7.09741892,0.62461857 7.02810362,0.735523023 7.03943673,0.853521127 C7.04403616,0.9331188 7.08248534,1.00694128 7.14507054,1.05633803 L7.10281702,1.09859155 C6.98431123,1.14502084 6.90577448,1.25864844 6.90422547,1.38591549 C6.874648,1.52112676 6.81971842,1.62676056 6.73098603,1.58450704 C6.64225364,1.54225352 6.54929589,1.58450704 6.61690152,1.68169014 C6.63734382,1.70616549 6.66577896,1.72262797 6.69718321,1.72816901 L6.63802828,1.72816901 C6.62281051,1.72403924 6.60676718,1.72403924 6.59154941,1.72816901 C6.55913521,1.72687263 6.52912617,1.74521151 6.51549307,1.77464789 L6.38450716,1.80422535 C6.37625716,1.75957141 6.33695276,1.72741331 6.29154941,1.72816901 C6.23953359,1.7304327 6.19854244,1.77328707 6.19859166,1.82535211 L6.0718311,1.84647887 C6.08289265,1.82018193 6.08284731,1.79052887 6.0717054,1.76426586 C6.06056352,1.73800285 6.03927252,1.71736314 6.01267617,1.70704225 L5.974648,1.70704225 C5.93302917,1.7078272 5.89542865,1.73206707 5.87753217,1.76964972 C5.85963565,1.80723241 5.86451741,1.85170192 5.89014096,1.88450704 L5.69577476,1.92253521 C5.69581541,1.85880963 5.64537518,1.80650125 5.58169025,1.80422535 C5.54005993,1.8062809 5.50210055,1.82867075 5.48016155,1.86411068 C5.45822255,1.89955061 5.45510796,1.94351104 5.4718311,1.98169014 C5.41387186,2.00162396 5.35739327,2.02562738 5.30281702,2.05352113 C5.28032437,2.02833887 5.24783221,2.01441368 5.21408462,2.01549296 C5.17128303,2.01696123 5.1321168,2.03994241 5.10995745,2.07659062 C5.08779806,2.11323887 5.08564203,2.15859828 5.10422547,2.1971831 C5.04552294,2.26322768 5.00478273,2.34325306 4.98591561,2.42957746 C4.90423968,2.42957746 4.83802828,2.49578886 4.83802828,2.57746479 C4.83802828,2.65914072 4.90423968,2.72535211 4.98591561,2.72535211 C4.99680861,2.78561721 5.01234793,2.84494918 5.03239448,2.9028169 C4.97112987,2.92555559 4.93489486,2.98885546 4.94631062,3.05319887 C4.95772638,3.11754232 5.01352566,3.16451354 5.07887335,3.16478873 C5.10099303,3.17090894 5.12435931,3.17090894 5.14647899,3.16478873 L5.18873251,3.23661972 C5.15226882,3.23183886 5.11533704,3.23183886 5.07887335,3.23661972 C5.24084606,3.37254541 5.38306207,3.5304052 5.50140856,3.7056338 C5.42535223,3.77323944 5.50140856,3.87464789 5.55633814,3.84929577 L5.58591561,3.84929577 C5.62754268,3.913587 5.66023642,3.98323885 5.68309871,4.05633803 C5.68309871,4.13661972 5.70845082,4.18732394 5.71690152,4.22957746 C5.72535223,4.27183099 5.71690152,4.42394366 5.83098603,4.37323944 C5.74086696,4.37276463 5.65117021,4.38557844 5.56478885,4.41126761 C4.02253533,4.88873239 3.68450716,6.76901408 4.56760575,8.51830986 C4.7022474,9.90398945 5.86694948,10.9610067 7.25915504,10.9610067 C8.65136061,10.9610067 9.81606269,9.90398945 9.95070434,8.51830986 C10.8507043,6.75633803 10.5000001,4.87183099 8.97042265,4.39859155 Z M8.10000011,4.54647887 C7.90140856,4.65211268 7.63943673,4.8084507 7.46197194,4.91408451 C7.43712844,4.89415039 7.4083183,4.87974537 7.3774649,4.87183099 C7.3774649,4.74929577 7.35211279,4.76619718 7.27605645,4.76619718 C7.20000011,4.76619718 7.18309871,4.76619718 7.174648,4.87183099 C7.14379461,4.87974537 7.11498447,4.89415039 7.09014096,4.91408451 C6.90422547,4.80422535 6.62535223,4.63943662 6.42253533,4.53380282 C6.71796975,4.57394666 7.01595671,4.59230607 7.31408462,4.58873239 C7.57667268,4.59067504 7.83913397,4.57656423 8.10000011,4.54647887 Z M6.56197194,2.47183099 C6.41682328,2.63265596 6.41682328,2.8772032 6.56197194,3.03802817 C6.47238844,2.8980341 6.34072947,2.79004415 6.18591561,2.72957746 L6.84507054,1.95633803 L6.91267617,1.92676056 C6.92346759,2.14821182 6.99671264,2.36208735 7.12394378,2.54366197 C7.06146383,2.67568572 7.02968361,2.8201413 7.03098603,2.96619718 C6.98124058,2.72569931 6.79952056,2.53415662 6.56197194,2.47183099 Z M6.08873251,3.1943662 C6.0389969,3.13400962 5.98062075,3.08132865 5.91549307,3.03802817 L5.99577476,2.94507042 C6.00806014,3.03530603 6.03977542,3.12180224 6.08873251,3.19859155 L6.08873251,3.1943662 Z M8.53943673,3.1943662 C8.55572369,3.16588872 8.56984794,3.13622776 8.58169025,3.1056338 C8.58347078,3.08736723 8.58347078,3.0689708 8.58169025,3.05070423 C8.58356027,3.02679706 8.58356027,3.00278041 8.58169025,2.97887324 C8.57987576,2.96767868 8.57987576,2.95626499 8.58169025,2.94507042 L8.66197194,3.03802817 C8.59654647,3.08261679 8.53815459,3.13673607 8.48873251,3.19859155 L8.53943673,3.1943662 Z M8.45070434,2.72957746 C8.29589048,2.79004415 8.16423151,2.8980341 8.074648,3.03802817 C8.21979666,2.8772032 8.21979666,2.63265596 8.074648,2.47183099 C7.84268111,2.53550375 7.66524823,2.72270362 7.61408462,2.95774648 C7.61538704,2.81169059 7.58360682,2.66723501 7.52112687,2.53521127 C7.64835802,2.35363665 7.72160306,2.13976111 7.73239448,1.91830986 L7.80000011,1.94788732 L8.45070434,2.72957746 Z" id="Shape" fill="#FFCE54"></path>
            </g>
        </g>
    </g>
</svg>