<?xml version="1.0" encoding="UTF-8"?>
<svg width="32px" height="32px" viewBox="0 0 32 32" version="1.1" xmlns="http://www.w3.org/2000/svg" xmlns:xlink="http://www.w3.org/1999/xlink">
    <!-- Generator: Sketch 61.2 (89653) - https://sketch.com -->
    <title>Icon / Flag / x32 / Ukraine </title>
    <desc>Created with Sketch.</desc>
    <g id="Icon-/-Flag-/-x32-/-Ukraine-" stroke="none" stroke-width="1" fill="none" fill-rule="evenodd">
        <g id="Ukraine" transform="translate(1.000000, 6.000000)" fill-rule="nonzero">
            <path d="M27.27,21 L2.72571429,21 C1.22034385,21 0,19.7542293 0,18.2174975 L0,10.5 L30,10.5 L30,18.2174975 C30,18.9562208 29.71224,19.6646241 29.2001421,20.1865699 C28.6880442,20.7085156 27.9936466,21.0011581 27.27,21 Z" id="Shape" fill="#F6D660"></path>
            <path d="M0,2.90348086 C0,2.13263919 0.287759983,1.3934357 0.799857861,0.848796665 C1.31195574,0.304157629 2.00635336,-0.00120842083 2.73,0 L27.2742857,0 C28.7796561,0 30,1.29993465 30,2.90348086 L30,10.5 L0,10.5 L0,2.90348086 Z" id="Shape" fill="#4A89DC"></path>
        </g>
    </g>
</svg>