<?xml version="1.0" encoding="UTF-8"?>
<svg width="32px" height="32px" viewBox="0 0 32 32" version="1.1" xmlns="http://www.w3.org/2000/svg" xmlns:xlink="http://www.w3.org/1999/xlink">
    <!-- Generator: Sketch 61.2 (89653) - https://sketch.com -->
    <title>Icon / Flag / x32 / USA </title>
    <desc>Created with Sketch.</desc>
    <g id="Icon-/-Flag-/-x32-/-USA-" stroke="none" stroke-width="1" fill="none" fill-rule="evenodd">
        <g id="USA" transform="translate(1.000000, 6.000000)" fill-rule="nonzero">
            <path d="M2.36289382,20.8 L27.6414819,20.8 C28.6488733,20.7184269 29.5420492,20.1125035 30,19.2 L0,19.2 C0.458749087,20.1137789 1.35389718,20.7199157 2.36289382,20.8 Z" id="Shape" fill="#ED5565"></path>
            <path d="M0,17.6 L0,18.1939058 C0.0376102014,18.5447262 0.136476158,18.8856008 0.291803748,19.2 L29.7081963,19.2 C29.8635239,18.8856008 29.9623898,18.5447262 30,18.1939058 L30,17.6 L0,17.6 Z" id="Shape" fill="#FFFFFF"></path>
            <rect id="Rectangle-path" fill="#ED5565" x="0" y="16" width="30" height="1.6"></rect>
            <rect id="Rectangle-path" fill="#FFFFFF" x="0" y="14.4" width="30" height="1.6"></rect>
            <rect id="Rectangle-path" fill="#ED5565" x="0" y="12.8" width="30" height="1.6"></rect>
            <rect id="Rectangle-path" fill="#FFFFFF" x="0" y="11.2" width="30" height="1.6"></rect>
            <rect id="Rectangle-path" fill="#ED5565" x="0" y="9.6" width="30" height="1.6"></rect>
            <rect id="Rectangle-path" fill="#FFFFFF" x="0" y="8" width="30" height="1.6"></rect>
            <rect id="Rectangle-path" fill="#ED5565" x="0" y="6.4" width="30" height="1.6"></rect>
            <rect id="Rectangle-path" fill="#FFFFFF" x="0" y="4.8" width="30" height="1.6"></rect>
            <rect id="Rectangle-path" fill="#ED5565" x="0" y="3.2" width="30" height="1.6"></rect>
            <path d="M30,3.2 L30,2.60773481 C29.9628987,2.25637037 29.8640196,1.91489452 29.7081963,1.6 L0.291803748,1.6 C0.135980439,1.91489452 0.0371013145,2.25637037 0,2.60773481 L0,3.2 L30,3.2 Z" id="Shape" fill="#FFFFFF"></path>
            <path d="M27.7155361,0 L3.28023341,0 C2.30627966,0.0815730801 1.44275036,0.687496523 1,1.6 L30,1.6 C29.5564778,0.686221093 28.6910418,0.0800842704 27.7155361,0 Z" id="Shape" fill="#ED5565"></path>
            <path d="M14,10 L14,-8.8817842e-16 L2.56272618,-8.8817842e-16 C1.22276027,0.100507826 0.14754871,1.07803748 4.50195436e-14,2.32990506 L4.50195436e-14,10 L14,10 Z" id="Shape" fill="#4A89DC"></path>
            <g id="stars" transform="translate(1.000000, 1.000000)" fill="#FFFFFF">
                <polygon id="Shape" points="0.485915493 -1.64868119e-14 0.371830986 0.354929577 -4.4797499e-14 0.354929577 0.3 0.570422535 0.185915493 0.925352113 0.485915493 0.705633803 0.785915493 0.925352113 0.671830986 0.570422535 0.971830986 0.354929577 0.6 0.354929577"></polygon>
                <polygon id="Shape" points="0.485915493 1.7915493 0.371830986 2.14647887 -4.4797499e-14 2.14647887 0.3 2.36619718 0.185915493 2.71690141 0.485915493 2.50140845 0.785915493 2.71690141 0.671830986 2.36619718 0.971830986 2.14647887 0.6 2.14647887"></polygon>
                <polygon id="Shape" points="0.485915493 3.58309859 0.371830986 3.93802817 -4.4797499e-14 3.93802817 0.3 4.15774648 0.185915493 4.51267606 0.485915493 4.29295775 0.785915493 4.51267606 0.671830986 4.15774648 0.971830986 3.93802817 0.6 3.93802817"></polygon>
                <polygon id="Shape" points="0.485915493 5.37887324 0.371830986 5.72957746 -4.4797499e-14 5.72957746 0.3 5.94929577 0.185915493 6.30422535 0.485915493 6.08450704 0.785915493 6.30422535 0.671830986 5.94929577 0.971830986 5.72957746 0.6 5.72957746"></polygon>
                <polygon id="Shape" points="0.6 7.52112676 0.485915493 7.17042254 0.371830986 7.52112676 -4.4797499e-14 7.52112676 0.3 7.74084507 0.185915493 8.09577465 0.485915493 7.87605634 0.785915493 8.09577465 0.671830986 7.74084507 0.971830986 7.52112676"></polygon>
                <polygon id="Shape" points="1.53802817 0.895774648 1.42394366 1.25070423 1.05211268 1.25070423 1.35211268 1.47042254 1.23802817 1.82112676 1.53802817 1.60140845 1.84225352 1.82112676 1.72816901 1.47042254 2.02816901 1.25070423 1.65633803 1.25070423"></polygon>
                <polygon id="Shape" points="1.53802817 2.68732394 1.42394366 3.04225352 1.05211268 3.04225352 1.35211268 3.26197183 1.23802817 3.61267606 1.53802817 3.3971831 1.84225352 3.61267606 1.72816901 3.26197183 2.02816901 3.04225352 1.65633803 3.04225352"></polygon>
                <polygon id="Shape" points="1.53802817 4.48309859 1.42394366 4.83380282 1.05211268 4.83380282 1.35211268 5.05352113 1.23802817 5.4084507 1.53802817 5.18873239 1.84225352 5.4084507 1.72816901 5.05352113 2.02816901 4.83380282 1.65633803 4.83380282"></polygon>
                <polygon id="Shape" points="1.65633803 6.62535211 1.53802817 6.27464789 1.42394366 6.62535211 1.05211268 6.62535211 1.35211268 6.84507042 1.23802817 7.2 1.53802817 6.98028169 1.84225352 7.2 1.72816901 6.84507042 2.02816901 6.62535211"></polygon>
                <polygon id="Shape" points="2.5943662 -1.64868119e-14 2.48028169 0.354929577 2.1084507 0.354929577 2.4084507 0.570422535 2.2943662 0.925352113 2.5943662 0.705633803 2.8943662 0.925352113 2.78028169 0.570422535 3.08028169 0.354929577 2.7084507 0.354929577"></polygon>
                <polygon id="Shape" points="2.5943662 1.7915493 2.48028169 2.14647887 2.1084507 2.14647887 2.4084507 2.36619718 2.2943662 2.71690141 2.5943662 2.50140845 2.8943662 2.71690141 2.78028169 2.36619718 3.08028169 2.14647887 2.7084507 2.14647887"></polygon>
                <polygon id="Shape" points="2.5943662 3.58309859 2.48028169 3.93802817 2.1084507 3.93802817 2.4084507 4.15774648 2.2943662 4.51267606 2.5943662 4.29295775 2.8943662 4.51267606 2.78028169 4.15774648 3.08028169 3.93802817 2.7084507 3.93802817"></polygon>
                <polygon id="Shape" points="2.5943662 5.37887324 2.48028169 5.72957746 2.1084507 5.72957746 2.4084507 5.94929577 2.2943662 6.30422535 2.5943662 6.08450704 2.8943662 6.30422535 2.78028169 5.94929577 3.08028169 5.72957746 2.7084507 5.72957746"></polygon>
                <polygon id="Shape" points="2.7084507 7.52112676 2.5943662 7.17042254 2.48028169 7.52112676 2.1084507 7.52112676 2.4084507 7.74084507 2.2943662 8.09577465 2.5943662 7.87605634 2.8943662 8.09577465 2.78028169 7.74084507 3.08028169 7.52112676"></polygon>
                <polygon id="Shape" points="3.64647887 0.895774648 3.53239437 1.25070423 3.16056338 1.25070423 3.46056338 1.47042254 3.34647887 1.82112676 3.64647887 1.60140845 3.95070423 1.82112676 3.83661972 1.47042254 4.13661972 1.25070423 3.76478873 1.25070423"></polygon>
                <polygon id="Shape" points="3.64647887 2.68732394 3.53239437 3.04225352 3.16056338 3.04225352 3.46056338 3.26197183 3.34647887 3.61267606 3.64647887 3.3971831 3.95070423 3.61267606 3.83661972 3.26197183 4.13661972 3.04225352 3.76478873 3.04225352"></polygon>
                <polygon id="Shape" points="3.64647887 4.48309859 3.53239437 4.83380282 3.16056338 4.83380282 3.46056338 5.05352113 3.34647887 5.4084507 3.64647887 5.18873239 3.95070423 5.4084507 3.83661972 5.05352113 4.13661972 4.83380282 3.76478873 4.83380282"></polygon>
                <polygon id="Shape" points="3.76478873 6.62535211 3.64647887 6.27464789 3.53239437 6.62535211 3.16056338 6.62535211 3.46056338 6.84507042 3.34647887 7.2 3.64647887 6.98028169 3.95070423 7.2 3.83661972 6.84507042 4.13661972 6.62535211"></polygon>
                <polygon id="Shape" points="4.7028169 -1.64868119e-14 4.58873239 0.354929577 4.21690141 0.354929577 4.51690141 0.570422535 4.4028169 0.925352113 4.7028169 0.705633803 5.0028169 0.925352113 4.88873239 0.570422535 5.18873239 0.354929577 4.81690141 0.354929577"></polygon>
                <polygon id="Shape" points="4.7028169 1.7915493 4.58873239 2.14647887 4.21690141 2.14647887 4.51690141 2.36619718 4.4028169 2.71690141 4.7028169 2.50140845 5.0028169 2.71690141 4.88873239 2.36619718 5.18873239 2.14647887 4.81690141 2.14647887"></polygon>
                <polygon id="Shape" points="4.7028169 3.58309859 4.58873239 3.93802817 4.21690141 3.93802817 4.51690141 4.15774648 4.4028169 4.51267606 4.7028169 4.29295775 5.0028169 4.51267606 4.88873239 4.15774648 5.18873239 3.93802817 4.81690141 3.93802817"></polygon>
                <polygon id="Shape" points="4.7028169 5.37887324 4.58873239 5.72957746 4.21690141 5.72957746 4.51690141 5.94929577 4.4028169 6.30422535 4.7028169 6.08450704 5.0028169 6.30422535 4.88873239 5.94929577 5.18873239 5.72957746 4.81690141 5.72957746"></polygon>
                <polygon id="Shape" points="4.81690141 7.52112676 4.7028169 7.17042254 4.58873239 7.52112676 4.21690141 7.52112676 4.51690141 7.74084507 4.4028169 8.09577465 4.7028169 7.87605634 5.0028169 8.09577465 4.88873239 7.74084507 5.18873239 7.52112676"></polygon>
                <polygon id="Shape" points="5.75492958 0.895774648 5.64084507 1.25070423 5.26901408 1.25070423 5.56901408 1.47042254 5.45492958 1.82112676 5.75492958 1.60140845 6.05915493 1.82112676 5.94084507 1.47042254 6.24507042 1.25070423 5.87323944 1.25070423"></polygon>
                <polygon id="Shape" points="5.75492958 2.68732394 5.64084507 3.04225352 5.26901408 3.04225352 5.56901408 3.26197183 5.45492958 3.61267606 5.75492958 3.3971831 6.05915493 3.61267606 5.94084507 3.26197183 6.24507042 3.04225352 5.87323944 3.04225352"></polygon>
                <polygon id="Shape" points="5.75492958 4.48309859 5.64084507 4.83380282 5.26901408 4.83380282 5.56901408 5.05352113 5.45492958 5.4084507 5.75492958 5.18873239 6.05915493 5.4084507 5.94084507 5.05352113 6.24507042 4.83380282 5.87323944 4.83380282"></polygon>
                <polygon id="Shape" points="5.87323944 6.62535211 5.75492958 6.27464789 5.64084507 6.62535211 5.26901408 6.62535211 5.56901408 6.84507042 5.45492958 7.2 5.75492958 6.98028169 6.05915493 7.2 5.94084507 6.84507042 6.24507042 6.62535211"></polygon>
                <polygon id="Shape" points="6.81126761 -1.64868119e-14 6.6971831 0.354929577 6.32535211 0.354929577 6.62535211 0.570422535 6.51126761 0.925352113 6.81126761 0.705633803 7.11126761 0.925352113 6.9971831 0.570422535 7.2971831 0.354929577 6.92535211 0.354929577"></polygon>
                <polygon id="Shape" points="6.81126761 1.7915493 6.6971831 2.14647887 6.32535211 2.14647887 6.62535211 2.36619718 6.51126761 2.71690141 6.81126761 2.50140845 7.11126761 2.71690141 6.9971831 2.36619718 7.2971831 2.14647887 6.92535211 2.14647887"></polygon>
                <polygon id="Shape" points="6.81126761 3.58309859 6.6971831 3.93802817 6.32535211 3.93802817 6.62535211 4.15774648 6.51126761 4.51267606 6.81126761 4.29295775 7.11126761 4.51267606 6.9971831 4.15774648 7.2971831 3.93802817 6.92535211 3.93802817"></polygon>
                <polygon id="Shape" points="6.81126761 5.37887324 6.6971831 5.72957746 6.32535211 5.72957746 6.62535211 5.94929577 6.51126761 6.30422535 6.81126761 6.08450704 7.11126761 6.30422535 6.9971831 5.94929577 7.2971831 5.72957746 6.92535211 5.72957746"></polygon>
                <polygon id="Shape" points="6.92535211 7.52112676 6.81126761 7.17042254 6.6971831 7.52112676 6.32535211 7.52112676 6.62535211 7.74084507 6.51126761 8.09577465 6.81126761 7.87605634 7.11126761 8.09577465 6.9971831 7.74084507 7.2971831 7.52112676"></polygon>
                <polygon id="Shape" points="7.86338028 0.895774648 7.74929577 1.25070423 7.37746479 1.25070423 7.67746479 1.47042254 7.56338028 1.82112676 7.86338028 1.60140845 8.16760563 1.82112676 8.04929577 1.47042254 8.35352113 1.25070423 7.98169014 1.25070423"></polygon>
                <polygon id="Shape" points="7.86338028 2.68732394 7.74929577 3.04225352 7.37746479 3.04225352 7.67746479 3.26197183 7.56338028 3.61267606 7.86338028 3.3971831 8.16760563 3.61267606 8.04929577 3.26197183 8.35352113 3.04225352 7.98169014 3.04225352"></polygon>
                <polygon id="Shape" points="7.86338028 4.48309859 7.74929577 4.83380282 7.37746479 4.83380282 7.67746479 5.05352113 7.56338028 5.4084507 7.86338028 5.18873239 8.16760563 5.4084507 8.04929577 5.05352113 8.35352113 4.83380282 7.98169014 4.83380282"></polygon>
                <polygon id="Shape" points="7.98169014 6.62535211 7.86338028 6.27464789 7.74929577 6.62535211 7.37746479 6.62535211 7.67746479 6.84507042 7.56338028 7.2 7.86338028 6.98028169 8.16760563 7.2 8.04929577 6.84507042 8.35352113 6.62535211"></polygon>
                <polygon id="Shape" points="8.91971831 -1.64868119e-14 8.8056338 0.354929577 8.43380282 0.354929577 8.73380282 0.570422535 8.61971831 0.925352113 8.91971831 0.705633803 9.21971831 0.925352113 9.1056338 0.570422535 9.4056338 0.354929577 9.03380282 0.354929577"></polygon>
                <polygon id="Shape" points="8.91971831 1.7915493 8.8056338 2.14647887 8.43380282 2.14647887 8.73380282 2.36619718 8.61971831 2.71690141 8.91971831 2.50140845 9.21971831 2.71690141 9.1056338 2.36619718 9.4056338 2.14647887 9.03380282 2.14647887"></polygon>
                <polygon id="Shape" points="8.91971831 3.58309859 8.8056338 3.93802817 8.43380282 3.93802817 8.73380282 4.15774648 8.61971831 4.51267606 8.91971831 4.29295775 9.21971831 4.51267606 9.1056338 4.15774648 9.4056338 3.93802817 9.03380282 3.93802817"></polygon>
                <polygon id="Shape" points="8.91971831 5.37887324 8.8056338 5.72957746 8.43380282 5.72957746 8.73380282 5.94929577 8.61971831 6.30422535 8.91971831 6.08450704 9.21971831 6.30422535 9.1056338 5.94929577 9.4056338 5.72957746 9.03380282 5.72957746"></polygon>
                <polygon id="Shape" points="9.03380282 7.52112676 8.91971831 7.17042254 8.8056338 7.52112676 8.43380282 7.52112676 8.73380282 7.74084507 8.61971831 8.09577465 8.91971831 7.87605634 9.21971831 8.09577465 9.1056338 7.74084507 9.4056338 7.52112676"></polygon>
                <polygon id="Shape" points="9.97183099 0.895774648 9.85774648 1.25070423 9.48591549 1.25070423 9.78591549 1.47042254 9.67183099 1.82112676 9.97183099 1.60140845 10.2760563 1.82112676 10.1577465 1.47042254 10.4619718 1.25070423 10.0901408 1.25070423"></polygon>
                <polygon id="Shape" points="9.97183099 2.68732394 9.85774648 3.04225352 9.48591549 3.04225352 9.78591549 3.26197183 9.67183099 3.61267606 9.97183099 3.3971831 10.2760563 3.61267606 10.1577465 3.26197183 10.4619718 3.04225352 10.0901408 3.04225352"></polygon>
                <polygon id="Shape" points="9.97183099 4.48309859 9.85774648 4.83380282 9.48591549 4.83380282 9.78591549 5.05352113 9.67183099 5.4084507 9.97183099 5.18873239 10.2760563 5.4084507 10.1577465 5.05352113 10.4619718 4.83380282 10.0901408 4.83380282"></polygon>
                <polygon id="Shape" points="10.0901408 6.62535211 9.97183099 6.27464789 9.85774648 6.62535211 9.48591549 6.62535211 9.78591549 6.84507042 9.67183099 7.2 9.97183099 6.98028169 10.2760563 7.2 10.1577465 6.84507042 10.4619718 6.62535211"></polygon>
                <polygon id="Shape" points="10.8422535 0.570422535 10.728169 0.925352113 11.028169 0.705633803 11.328169 0.925352113 11.2140845 0.570422535 11.5140845 0.354929577 11.1422535 0.354929577 11.028169 -1.64868119e-14 10.9140845 0.354929577 10.5422535 0.354929577"></polygon>
                <polygon id="Shape" points="11.028169 1.7915493 10.9140845 2.14647887 10.5422535 2.14647887 10.8422535 2.36619718 10.728169 2.71690141 11.028169 2.50140845 11.328169 2.71690141 11.2140845 2.36619718 11.5140845 2.14647887 11.1422535 2.14647887"></polygon>
                <polygon id="Shape" points="11.028169 3.58309859 10.9140845 3.93802817 10.5422535 3.93802817 10.8422535 4.15774648 10.728169 4.51267606 11.028169 4.29295775 11.328169 4.51267606 11.2140845 4.15774648 11.5140845 3.93802817 11.1422535 3.93802817"></polygon>
                <polygon id="Shape" points="11.028169 5.37887324 10.9140845 5.72957746 10.5422535 5.72957746 10.8422535 5.94929577 10.728169 6.30422535 11.028169 6.08450704 11.328169 6.30422535 11.2140845 5.94929577 11.5140845 5.72957746 11.1422535 5.72957746"></polygon>
                <polygon id="Shape" points="11.1422535 7.52112676 11.028169 7.17042254 10.9140845 7.52112676 10.5422535 7.52112676 10.8422535 7.74084507 10.728169 8.09577465 11.028169 7.87605634 11.328169 8.09577465 11.2140845 7.74084507 11.5140845 7.52112676"></polygon>
            </g>
        </g>
    </g>
</svg>