<?xml version="1.0" encoding="UTF-8"?>
<svg width="128px" height="128px" viewBox="0 0 128 128" version="1.1" xmlns="http://www.w3.org/2000/svg" xmlns:xlink="http://www.w3.org/1999/xlink">
    <!-- Generator: Sketch 63.1 (92452) - https://sketch.com -->
    <title>04.benefits.illustration01</title>
    <desc>Created with Sketch.</desc>
    <g id="04.benefits.illustration01" stroke="none" stroke-width="1" fill="none" fill-rule="evenodd">
        <g id="Food-supplay-1" fill-rule="nonzero">
            <circle id="Oval" fill="#FFD681" cx="64" cy="64" r="63.6773109"></circle>
            <g id="Group" transform="translate(19.899160, 16.672269)">
                <g>
                    <rect id="Rectangle" fill="#705650" transform="translate(60.037604, 10.319672) rotate(41.818147) translate(-60.037604, -10.319672) " x="58.3702985" y="-1.94309127" width="3.33461105" height="24.5255264"></rect>
                    <circle id="Oval" fill="#EFA53A" cx="34.7428571" cy="40.2823529" r="34.5815126"></circle>
                    <path d="M62.3327731,9.25042017 C62.3327731,9.25042017 81.6403361,4.84033613 84.6521008,25.8151261 C84.6521008,25.7613445 67.0655462,27.805042 62.3327731,9.25042017 Z" id="Path" fill="#42A799"></path>
                </g>
                <circle id="Oval" fill="#FFC580" cx="53.189916" cy="63.9462185" r="34.5815126"></circle>
                <circle id="Oval" fill="#FFD4A1" cx="53.189916" cy="63.9462185" r="27.589916"></circle>
                <path d="M53.189916,92.1815126 C41.9495798,92.1815126 31.2470588,85.405042 26.8907563,74.3260504 C24.0941176,67.3344538 24.2554622,59.6436975 27.2134454,52.7058824 C30.1714286,45.7680672 35.7109244,40.4436975 42.7563025,37.6470588 C57.2235294,31.892437 73.6806723,39.0453782 79.4352941,53.512605 C85.189916,67.9798319 78.0369748,84.4369748 63.5697479,90.1915966 C60.1815126,91.589916 56.6857143,92.1815126 53.189916,92.1815126 Z M53.1361345,37.0554622 C49.8554622,37.0554622 46.5210084,37.6470588 43.2941176,38.9378151 C36.5714286,41.5731092 31.3546218,46.6823529 28.5042017,53.2436975 C25.6537815,59.8588235 25.5462185,67.1731092 28.1815126,73.8420168 C33.6672269,87.6638655 49.3176471,94.4403361 63.0857143,88.9546218 C76.907563,83.4689076 83.6840336,67.8184874 78.1983193,54.0504202 C74.0033613,43.5092437 63.892437,37.0554622 53.1361345,37.0554622 Z" id="Shape" fill="#705650"></path>
                <path d="M42.6487395,68.194958 L39.2067227,68.194958 L39.2067227,64.9680672 L42.1109244,64.9680672 C42.1109244,64.6991597 42.0571429,64.4302521 42.0571429,64.107563 C42.0571429,63.6235294 42.1109244,63.1932773 42.1647059,62.8705882 L39.2067227,62.8705882 L39.2067227,59.6436975 L42.6487395,59.6436975 C44.3159664,53.6201681 49.210084,49.4789916 56.1478992,49.4789916 C58.5680672,49.4789916 60.5042017,49.9630252 62.3865546,50.8773109 L60.3428571,55.7176471 C59.2672269,55.1798319 58.0840336,54.8571429 56.2554622,54.8571429 C52.8134454,54.8571429 50.2857143,56.5781513 49.210084,59.6436975 L57.5462185,59.6436975 L56.2554622,62.8705882 L48.5647059,62.8705882 C48.4571429,63.2470588 48.4571429,63.6773109 48.4571429,64.107563 C48.4571429,64.4302521 48.4571429,64.6991597 48.5109244,64.9680672 L55.502521,64.9680672 L54.2117647,68.194958 L49.210084,68.194958 C49.9630252,70.8302521 52.2756303,73.0352941 56.4705882,73.0352941 C57.9764706,73.0352941 59.1596639,72.7663866 60.3966387,72.1210084 L62.2789916,76.9613445 C60.3428571,77.9294118 58.2453782,78.4672269 55.8252101,78.4672269 C48.8336134,78.4672269 43.9932773,74.0033613 42.6487395,68.194958 Z" id="Path" fill="#F2A75C"></path>
            </g>
        </g>
    </g>
</svg>