<?xml version="1.0" encoding="UTF-8"?>
<svg width="544px" height="624px" viewBox="0 0 544 624" version="1.1" xmlns="http://www.w3.org/2000/svg" xmlns:xlink="http://www.w3.org/1999/xlink">
    <!-- Generator: Sketch 64 (93537) - https://sketch.com -->
    <title>00.start.illustration</title>
    <desc>Created with Sketch.</desc>
    <g id="00.start.illustration" stroke="none" stroke-width="1" fill="none" fill-rule="evenodd">
        <g id="Landing-intro_v2" transform="translate(0.000000, 9.000000)">
            <path d="M97.3775647,228.709492 C87.2069032,215.252924 76.3581975,199.762224 76.3581975,199.762224 L48.8713327,163.408629 C48.8713327,163.408629 42.9775647,154.541898 38.022627,158.29722 C32.7025887,162.313327 35.2582934,164.973346 35.2582934,164.973346 L28.6864813,150.786577 C28.6864813,150.786577 26.2350911,144.892809 19.663279,147.031256 C19.663279,147.031256 11.2659636,151.047363 17.8899329,162.991371 C17.8899329,162.991371 15.4385427,156.054458 8.65810163,159.131735 C8.65810163,159.131735 2.76433365,161.948226 7.98005753,175.352637 L11.3181208,184.271524 C11.3181208,184.271524 8.50162991,176.500096 4.01610738,177.073826 C4.01610738,177.073826 -2.71217641,177.647555 1.46040268,189.591563 C5.63298178,201.53557 11.0051774,218.382359 36.6665388,259.430105 C36.6665388,259.430105 175.352637,481.254842 306.684564,338.709108 L307.362608,311.639501 L255.779099,270.018025 C255.779099,270.018025 208.681112,318.576414 153.498754,277.163567 C153.498754,277.163567 112.920422,252.180249 101.445829,231.891083" id="Path" fill="#FFDACA" fill-rule="nonzero"></path>
            <path d="M234.707574,284.934995 C244.252349,296.044487 270.696069,324.522339 294.375455,329.685906 L294.949185,305.902205 L251.241419,274.034132 C247.64257,276.954938 242.009588,281.179674 234.707574,284.934995 Z" id="Path" fill="#F4C5B5" fill-rule="nonzero"></path>
            <path d="M274.816491,54.608629 C274.816491,54.608629 295.99233,4.48552253 310.283413,0.886673058 C324.574497,-2.71217641 327.547459,7.45848514 331.407095,10.1706616 C335.266731,12.882838 346.011122,5.84161074 349.922915,4.06826462 C353.834708,2.2949185 363.953212,5.00709492 370.159923,17.0032598 C376.366635,28.9994247 388.623586,60.5545542 388.623586,60.5545542 C388.623586,60.5545542 331.354938,86.8939597 274.816491,54.608629 Z" id="Path" fill="#F2A75C" fill-rule="nonzero"></path>
            <ellipse id="Oval" fill="#F2A75C" fill-rule="nonzero" transform="translate(339.880553, 76.348679) rotate(-89.426360) translate(-339.880553, -76.348679) " cx="339.880553" cy="76.3486792" rx="34.1091326" ry="128.926263"></ellipse>
            <path d="M266.419175,253.797124 C266.419175,253.797124 251.189262,232.934228 259.638734,195.172387 C268.088207,157.410547 273.721189,159.183893 269.183509,134.930777 C264.697987,110.677661 264.541515,63.8926174 288.638159,42.3516779 C312.734803,20.8107383 338.761266,28.7907958 338.761266,28.7907958 C338.761266,28.7907958 380.434899,34.3716203 404.114286,78.9660594 C404.114286,78.9660594 420.387344,106.870182 432.331352,116.3628 C444.223202,125.80326 460.235475,137.747267 470.510451,166.694535 C470.510451,166.694535 474.943816,180.098945 493.824736,192.773154 C512.705657,205.447363 520.5814,252.128092 483.132502,283.161649 C483.18466,283.057335 321.601534,343.872675 266.419175,253.797124 Z" id="Path" fill="#DD674F" fill-rule="nonzero"></path>
            <path d="M286.343241,363.379482 C286.343241,363.379482 438.277277,415.901822 527.779099,370.837967 C527.779099,370.837967 507.333461,196.528476 424.507766,185.210355 L386.172196,180.672675 C386.172196,180.672675 370.577181,200.388111 318.680729,194.233557 L293.019367,216.243912 C293.019367,216.348226 284.413423,328.590604 286.343241,363.379482 Z" id="Path" fill="#F3F3F3" fill-rule="nonzero"></path>
            <path d="M237.837009,272 C237.837009,272 264.854458,305.850048 294.740556,315.916395 L293.019367,216.348226 C293.019367,216.348226 254.266539,251.345733 237.837009,272 Z" id="Path" fill="#F3F3F3" fill-rule="nonzero"></path>
            <path d="M372.663471,84.1817833 L387.78907,183.958581 C356.390412,202.943816 318.680729,194.337872 318.680729,194.337872 C315.186194,178.586385 315.968552,175.039693 292.862895,158.766635 C269.705081,142.441419 273.147459,80.84372 273.147459,80.84372 C273.147459,80.84372 278.102397,64.9879195 290.933078,64.2055609 C303.815916,63.4232023 364.73557,59.5114094 370.368552,71.4554171 C376.001534,83.3994247 372.663471,84.1817833 372.663471,84.1817833 Z" id="Path" fill="#FFDACA" fill-rule="nonzero"></path>
            <path d="M332.971812,101.863087 C332.971812,101.863087 324.678811,92.6834132 315.551294,100.8721" id="Path" stroke="#DD674F" stroke-width="3.36142972" stroke-linecap="round"></path>
            <path d="M295.105657,101.758773 C295.105657,101.758773 286.969128,92.6834132 278.311026,101.602301" id="Path" stroke="#DD674F" stroke-width="3.58643605" stroke-linecap="round"></path>
            <circle id="Oval" fill="#212121" fill-rule="nonzero" cx="323.739981" cy="105.722723" r="2.86864813"></circle>
            <circle id="Oval" fill="#212121" fill-rule="nonzero" cx="285.821668" cy="106.505081" r="2.86864813"></circle>
            <path d="M302.355513,102.123873 C302.355513,102.123873 303.294343,116.206328 300.112752,123.143241 C296.93116,130.080153 298.913135,129.610738 304.076702,128.724065" id="Path" stroke="#212121" stroke-width="1.79321802" stroke-linecap="round"></path>
            <g id="Group" transform="translate(366.665388, 102.228188)">
                <circle id="Oval" fill="#FFDACA" fill-rule="nonzero" cx="16.5338447" cy="16.4816874" r="16.4295302"></circle>
                <path d="M19.3503356,4.1725791 C19.3503356,4.1725791 28.6343241,7.19769895 28.8951103,17.3162033" id="Path" stroke="#212121" stroke-width="1.79321802" stroke-linecap="round"></path>
            </g>
            <path d="M314.143049,178.534228 C319.463087,176.865197 325.409012,173.422819 328.173346,169.928284 C332.867498,164.034516 321.86232,165.181975 321.86232,165.181975 C313.308533,166.433749 306.162991,165.599233 301.260211,164.869032 C308.770853,170.554171 311.378715,174.257335 314.143049,178.534228 Z" id="Path" fill="#F4C5B5" fill-rule="nonzero"></path>
            <path d="M490.17373,549.47651 L496.797699,614.933845 L356.911985,614.412272 L356.911985,606.119271 C355.660211,592.036817 352.895877,599.078044 352.895877,599.078044 L351.122531,614.412272 L223.65024,614.412272 C223.65024,614.412272 282.640077,271.009012 298.652349,211.497603 C298.652349,211.497603 305.119847,201.744199 317.011697,195.641802 C317.011697,195.641802 307.571237,225.371429 308.718696,262.611697 C308.718696,262.611697 354.460594,263.081112 386.85024,259.012848 C386.641611,260.577565 393.004794,210.402301 396.86443,181.246405 L414.441419,183.280537 C414.441419,183.280537 414.545733,319.567402 431.183893,383.199233 C431.183893,383.199233 448.030681,387.058869 473.326942,378.244295 L490.17373,549.47651 Z" id="Path" fill="#5C9996" fill-rule="nonzero"></path>
            <line x1="60.085139" y1="208.681112" x2="35.2582934" y2="164.973346" id="Path" stroke="#212121" stroke-width="1.78064813" stroke-linecap="round"></line>
            <line x1="46.9415149" y1="215.357239" x2="17.9420901" y2="162.991371" id="Path" stroke="#212121" stroke-width="1.79321802" stroke-linecap="round"></line>
            <line x1="32.5982742" y1="225.840844" x2="11.3181208" y2="184.271524" id="Path" stroke="#212121" stroke-width="1.78064813" stroke-linecap="round"></line>
            <path d="M304.702589,138.581783 C304.702589,138.581783 313.047747,138.581783 317.168169,131.384084" id="Path" stroke="#212121" stroke-width="1.79321802" stroke-linecap="round"></path>
            <path d="M298.808821,54.7129434 C298.808821,54.7129434 311.535187,103.427804 375.32349,104.418792 L388.675743,84.0774688 C388.675743,84.0774688 385.181208,47.3587728 321.132119,37.4488974 L298.808821,54.7129434 Z" id="Path" fill="#DD674F" fill-rule="nonzero"></path>
            <path d="M270.435283,104.001534 C270.435283,104.001534 300.634324,77.1927133 309.39674,52.8874401 C309.39674,52.8874401 261.04698,36.0928092 270.435283,104.001534 Z" id="Path" fill="#DD674F" fill-rule="nonzero"></path>
            <path d="M404.166443,78.9660594 C404.375072,60.1372963 411.468456,43.1340364 340.273826,42.4038351 C269.079195,41.6736337 211.236817,56.3819751 211.028188,75.2107383 C211.028188,75.2107383 280.397315,53.2525407 341.8907,59.7200384 C403.384084,66.187536 404.166443,78.9660594 404.166443,78.9660594 Z" id="Path" fill="#F2A75C" fill-rule="nonzero"></path>
            <path d="M445.370662,322.175264 C445.370662,322.175264 481.306999,457.366826 479.377181,475.726174 C479.377181,475.726174 480.003068,499.405561 477.499521,514.426846 C477.499521,514.426846 475.569703,526.892426 480.889741,527.101055 C480.889741,527.101055 488.921956,529.708917 493.251007,506.707574 C493.251007,506.707574 494.659252,545.303931 489.965101,564.39348 C489.391371,566.740556 488.974113,571.591179 492.520805,573.729626 C492.520805,573.729626 495.441611,574.668456 497.319271,572.164909 C497.319271,572.164909 495.128667,579.51908 498.988303,581.344583 C498.988303,581.344583 504.51697,584.734803 507.489933,572.842953 C507.489933,572.842953 506.446788,578.423778 511.088782,579.727709 C513.227229,580.353595 516.04372,579.88418 518.442953,574.616299 L520.737872,568.044487 C520.737872,568.044487 517.817066,574.303356 521.311601,576.181016 C521.311601,576.181016 524.54535,577.954362 526.892426,573.990412 C526.892426,573.990412 570.965292,510.827996 515.835091,287.386385" id="Path" fill="#FFDACA" fill-rule="nonzero"></path>
            <path d="M281.07536,45.8462128 C281.07536,45.8462128 351.122531,40.4740173 374.436817,44.5944391 C374.436817,44.5944391 326.712943,-0.208628955 281.07536,45.8462128 Z" id="Path" fill="#F2A75C" fill-rule="nonzero"></path>
            <path d="M441.667498,303.607287 L445.370662,322.175264 C458.409971,321.445062 494.450623,318.889358 520.216299,308.562224 L515.835091,287.334228 L441.667498,303.607287 Z" id="Path" fill="#F4C5B5" fill-rule="nonzero"></path>
            <path d="M441.563183,310.492042 C441.563183,310.492042 500.135762,308.092809 527.205369,291.924065 C527.205369,291.924065 489.234899,189.226462 419.292042,184.636625 C419.292042,184.636625 432.852924,259.690892 441.563183,310.492042 Z" id="Path" fill="#F3F3F3" fill-rule="nonzero"></path>
            <path d="M279.406328,45.7940556 C279.406328,45.7940556 336.518504,37.135954 380.852157,44.7509108" id="Path" stroke="#212121" stroke-width="1.79321802" stroke-linecap="round"></path>
            <line x1="441.563183" y1="310.492042" x2="431.131735" y2="250.928476" id="Path" stroke="#212121" stroke-width="1.79321802" stroke-linecap="round"></line>
            <path d="M360.719463,316.020709 C360.823778,310.9093 359.363375,305.954362 356.44257,301.833941 L355.399425,300.217066 C353.573921,297.400575 352.687248,294.114669 352.791563,290.724449 C352.84372,288.533845 353.313135,286.395398 354.199808,284.361266 L354.982167,282.587919 C355.086481,282.431448 354.877852,282.274976 354.721381,282.327133 L353.000192,283.161649 C350.027229,284.569895 347.315053,286.395398 344.863663,288.638159 C341.838543,287.542857 339.230681,287.229914 337.092234,287.647172 C335.005944,288.06443 333.38907,289.159732 332.398082,290.88092 C331.250623,292.810738 330.989837,295.522915 331.615724,298.235091 C331.824353,299.226079 332.189453,300.164909 332.606711,301.051582 C332.554554,301.155896 332.554554,301.260211 332.554554,301.364525 C332.345925,302.251198 332.189453,302.9814 328.016874,307.779866 C327.860403,307.936337 327.703931,308.144966 327.547459,308.353595 C327.443145,308.510067 327.33883,308.614382 327.182359,308.770853 C326.660786,309.344583 326.243528,309.918313 325.82627,310.492042 L325.82627,310.492042 C323.739981,313.465005 322.592522,316.803068 322.488207,320.141131 C322.383893,324.88744 324.105081,329.372963 327.33883,332.81534 C330.572579,336.257718 335.005944,338.187536 339.752253,338.29185 C342.151486,338.344008 344.446405,337.92675 346.689166,337.092234 L346.689166,337.092234 C347.158581,336.883605 347.36721,336.779291 347.732311,336.570662 L347.732311,336.570662 C355.503739,332.606711 360.510834,324.730968 360.719463,316.020709 Z M333.9628,291.819751 C335.47536,289.211889 338.761266,288.638159 343.351103,290.098562 C342.568744,290.933078 341.838543,291.767593 341.160499,292.654267 C338.813423,295.731544 337.092234,299.173921 335.996932,302.824928 C333.284756,300.008437 332.241611,294.792713 333.9628,291.819751 Z M324.31371,320.767018 C324.418025,317.89837 324.991755,314.038734 328.538447,310.022627 C328.642761,309.866155 328.799233,309.761841 328.903547,309.605369 C329.060019,309.39674 329.216491,309.240268 329.372963,309.083797 L329.372963,309.083797 C332.241611,305.797891 333.336913,304.233174 333.858485,303.190029 C334.3279,303.815916 334.90163,304.389645 335.47536,304.85906 L335.527517,304.806903 C335.058102,306.841035 334.797315,308.927325 334.745158,311.065772 C334.745158,311.378715 334.745158,311.639501 334.745158,311.952445 C334.745158,311.952445 334.745158,311.952445 334.693001,311.952445 C334.536529,311.84813 334.380058,311.795973 334.3279,311.743816 C334.275743,311.691659 334.223586,311.691659 334.223586,311.691659 C334.223586,311.691659 334.275743,311.743816 334.275743,311.795973 C334.380058,311.84813 334.484372,311.952445 334.640844,312.056759 C334.953787,312.265388 335.423202,312.578332 336.101246,312.891275 C336.779291,313.204219 337.613806,313.517162 338.604794,313.725791 C339.126366,313.830105 339.647939,313.882263 340.221668,313.93442 C340.325983,313.93442 340.37814,313.93442 340.430297,313.93442 C340.482454,313.93442 340.586769,313.93442 340.638926,313.93442 C340.795398,313.93442 340.95187,313.93442 341.108341,313.93442 C341.264813,313.93442 341.421285,313.93442 341.577756,313.882263 C341.734228,313.882263 341.8907,313.830105 342.047172,313.830105 C343.351103,313.673634 344.707191,313.256376 346.011122,312.526174 C346.689166,312.161074 347.315053,311.743816 347.94094,311.222244 C348.566826,310.700671 349.088399,310.179099 349.609971,309.553212 C349.609971,309.605369 349.609971,309.605369 349.609971,309.657526 C349.609971,311.170086 349.349185,312.682646 348.775455,314.090892 C348.723298,314.247363 348.618984,314.455992 348.566826,314.612464 L348.30604,315.134036 L348.253883,315.290508 L348.201726,315.342665 L348.149569,315.394823 L347.993097,315.603452 L347.836625,315.812081 C347.784468,315.864238 347.784468,315.864238 347.784468,315.916395 L347.680153,316.020709 L347.36721,316.490125 C347.262895,316.646596 347.158581,316.803068 347.002109,316.907383 C346.949952,316.95954 346.897795,317.063854 346.845638,317.116012 L346.637009,317.32464 L346.42838,317.533269 C346.376222,317.585427 346.324065,317.689741 346.219751,317.741898 C346.063279,317.846213 345.958965,318.002685 345.802493,318.106999 C345.646021,318.211314 345.541707,318.367785 345.385235,318.4721 L345.176606,318.628571 L344.967977,318.785043 C344.811505,318.889358 344.655034,318.993672 344.550719,319.097987 C344.394247,319.202301 344.237776,319.306616 344.081304,319.41093 L343.976989,319.463087 L343.872675,319.515244 L343.611889,319.619559 C343.298945,319.828188 342.933845,319.932502 342.620901,320.088974 C342.46443,320.141131 342.255801,320.193289 342.099329,320.297603 L341.838543,320.401918 L341.577756,320.454075 C341.421285,320.506232 341.264813,320.558389 341.056184,320.610547 C340.899712,320.662704 340.743241,320.662704 340.534612,320.714861 C340.430297,320.714861 340.37814,320.767018 340.273826,320.767018 C340.169511,320.767018 340.117354,320.767018 340.013039,320.819175 C339.856568,320.819175 339.700096,320.871333 339.491467,320.871333 C339.334995,320.871333 339.178523,320.871333 338.969895,320.92349 C338.86558,320.92349 338.813423,320.92349 338.709108,320.92349 L338.656951,320.92349 C338.656951,320.92349 338.656951,320.92349 338.656951,320.92349 L338.656951,320.92349 L338.604794,320.92349 L338.448322,320.92349 C338.239693,320.92349 338.083221,320.92349 337.92675,320.92349 C337.822435,320.92349 337.770278,320.92349 337.665964,320.92349 C337.561649,320.92349 337.509492,320.92349 337.405177,320.92349 C337.092234,320.92349 336.779291,320.819175 336.466347,320.819175 C336.309875,320.767018 336.153404,320.767018 335.996932,320.714861 C335.84046,320.662704 335.683988,320.662704 335.527517,320.610547 C335.371045,320.558389 335.214573,320.506232 335.110259,320.506232 C335.058102,320.454075 334.953787,320.454075 334.90163,320.454075 C334.797315,320.401918 334.745158,320.401918 334.693001,320.34976 C333.597699,319.932502 332.658869,319.41093 331.87651,318.8372 C331.094151,318.263471 330.468265,317.637584 329.998849,317.116012 C329.529434,316.542282 329.216491,316.125024 329.007862,315.812081 C328.799233,315.499137 328.694919,315.290508 328.694919,315.290508 C328.694919,315.290508 328.799233,315.499137 328.955705,315.812081 C329.007862,316.020709 329.164334,316.177181 329.268648,316.437967 C329.372963,316.698754 329.581592,316.95954 329.738063,317.272483 C330.155321,317.89837 330.676894,318.576414 331.459252,319.306616 C332.189453,320.036817 333.180441,320.714861 334.3279,321.288591 C334.380058,321.340748 334.484372,321.340748 334.536529,321.392905 C334.588686,321.445062 334.693001,321.445062 334.745158,321.49722 C334.90163,321.549377 335.058102,321.601534 335.214573,321.705849 C335.371045,321.758006 335.527517,321.810163 335.683988,321.86232 C335.84046,321.914477 335.996932,321.966635 336.153404,322.018792 C337.92675,327.286673 341.056184,331.928667 345.228763,335.579674 C343.40326,336.205561 341.473442,336.518504 339.543624,336.466347 C331.250623,336.257718 324.418025,329.268648 324.31371,320.767018 Z M347.36721,334.745158 C343.351103,331.459252 340.325983,327.182359 338.500479,322.331735 C338.552637,322.331735 338.552637,322.331735 338.604794,322.331735 L338.761266,322.331735 L338.813423,322.331735 L338.813423,322.331735 C338.813423,322.331735 338.813423,322.331735 338.86558,322.331735 L338.917737,322.331735 C339.022052,322.331735 339.126366,322.331735 339.230681,322.331735 C339.43931,322.331735 339.595781,322.331735 339.80441,322.331735 C340.013039,322.331735 340.169511,322.279578 340.37814,322.279578 C340.482454,322.279578 340.586769,322.279578 340.691083,322.279578 C340.795398,322.279578 340.899712,322.227421 341.004027,322.227421 C341.212656,322.227421 341.421285,322.175264 341.577756,322.175264 C341.786385,322.123106 341.942857,322.070949 342.151486,322.070949 C342.255801,322.070949 342.360115,322.018792 342.46443,322.018792 C342.568744,322.018792 342.673058,321.966635 342.777373,321.914477 C342.986002,321.86232 343.142474,321.810163 343.351103,321.705849 C344.133461,321.445062 344.91582,321.079962 345.593864,320.610547 C346.324065,320.141131 347.002109,319.619559 347.627996,319.045829 C347.732311,318.993672 347.784468,318.889358 347.836625,318.8372 L348.045254,318.628571 L348.253883,318.367785 C348.358198,318.315628 348.410355,318.211314 348.462512,318.106999 C348.618984,317.950527 348.723298,317.794056 348.87977,317.585427 L349.244871,317.063854 L349.349185,316.95954 C349.401342,316.907383 349.401342,316.855225 349.4535,316.803068 L349.609971,316.490125 L349.766443,316.177181 L349.8186,316.125024 L349.870757,316.072867 L349.922915,315.916395 L350.235858,315.342665 C350.340173,315.134036 350.39233,314.925407 350.496644,314.716779 C350.809588,313.882263 351.070374,313.047747 351.226846,312.161074 C351.279003,311.743816 351.383317,311.274401 351.383317,310.857143 L351.383317,310.492042 L351.383317,310.179099 C351.383317,309.918313 351.383317,309.761841 351.383317,309.501055 C351.383317,308.614382 351.226846,307.779866 351.070374,306.94535 L351.070374,306.893193 L351.070374,306.893193 C351.070374,306.841035 351.122531,306.997507 351.018217,306.736721 C350.861745,306.319463 350.39233,306.110834 350.027229,306.162991 C349.557814,306.267306 349.297028,306.841035 349.401342,306.632407 L349.349185,306.736721 C349.297028,306.841035 349.244871,306.893193 349.244871,306.997507 C349.140556,307.153979 349.088399,307.310451 348.984084,307.466922 C348.775455,307.779866 348.618984,308.092809 348.358198,308.353595 C348.149569,308.614382 347.94094,308.927325 347.680153,309.188111 C347.471524,309.448897 347.210738,309.709684 346.949952,309.918313 C346.42838,310.387728 345.906807,310.804986 345.333078,311.170086 C344.185618,311.900288 343.038159,312.369703 341.8907,312.630489 C341.734228,312.682646 341.629914,312.682646 341.473442,312.734803 C341.31697,312.734803 341.212656,312.786961 341.056184,312.786961 C340.899712,312.786961 340.795398,312.839118 340.638926,312.839118 C340.482454,312.839118 340.37814,312.891275 340.221668,312.891275 C339.647939,312.943432 339.178523,312.943432 338.656951,312.891275 C337.822435,312.839118 337.144391,312.682646 336.518504,312.526174 L336.518504,312.317546 C336.518504,312.161074 336.518504,312.056759 336.518504,311.952445 C336.518504,311.639501 336.518504,311.326558 336.518504,311.013615 C336.674976,304.702589 338.761266,298.756663 342.568744,293.749569 C344.91582,290.672291 347.888782,288.06443 351.174688,286.134612 C351.33116,286.030297 351.487632,286.186769 351.435475,286.343241 C351.070374,287.751486 350.861745,289.159732 350.809588,290.672291 C350.75743,293.071524 351.174688,295.470757 351.957047,297.713519 C352.009204,297.86999 351.852733,298.026462 351.696261,297.922148 L350.444487,297.139789 C350.288015,297.035475 350.027229,297.244104 350.183701,297.452733 L353.313135,300.999425 C356.964142,305.119847 358.89396,310.492042 358.737488,315.968552 C358.737488,323.896453 354.304123,331.041994 347.36721,334.745158 Z M350.913902,307.571237 L350.966059,307.51908 C350.966059,307.414765 350.966059,307.466922 350.913902,307.571237 Z" id="Shape" fill="#79BBB1" fill-rule="nonzero"></path>
            <g id="Group" transform="translate(1.564717, 140.824545)" fill-rule="nonzero">
                <path d="M39.7959732,96.2822627 C39.7959732,96.2822627 11.9440077,94.2481304 9.17967402,59.9808245 C8.65810163,53.3568552 9.28398849,50.3838926 4.74630872,33.8500479 C2.66001918,26.1829338 -6.25886865,13.5087248 10.483605,2.66001918 C17.0032598,-1.56471716 27.1739214,-2.24276127 39.5873442,13.7173538 C39.5873442,13.7173538 45.5854267,20.758581 50.2795781,24.2009588 C54.9737296,27.6433365 96.1779482,55.7560882 67.7000959,87.6241611 C63.0059444,92.9441994 52.2615532,97.8991371 39.7959732,96.2822627 Z" id="Path" fill="#B2BF8C"></path>
                <circle id="Oval" fill="#56392C" cx="42.4559923" cy="62.4322148" r="21.3844679"></circle>
            </g>
            <path d="M91.8488974,250.563375 C90.2841802,268.03605 75.8366251,254.162224 75.8366251,254.162224 C75.4193672,252.284564 59.9286673,241.331544 65.5094919,221.929051 C70.8816874,203.04813 66.0832215,193.60767 66.0832215,193.60767 C66.0832215,193.60767 61.3369128,182.393864 69.0040268,179.62953 C76.6711409,176.865197 92.8398849,213.740364 92.8398849,213.740364 L107.235283,241.070757" id="Path" fill="#FFDACA" fill-rule="nonzero"></path>
            <path d="M81.3652924,256.144199 C81.3652924,256.144199 63.9447747,251.397891 64.4141898,232.464813 C64.4141898,232.464813 65.1965484,223.963183 67.7522531,210.871716 C68.5867689,206.594823 68.5867689,205.186577 66.0832215,193.60767" id="Path" stroke="#212121" stroke-width="1.79321802" stroke-linecap="round"></path>
            <path d="M497.319271,572.164909 C497.319271,572.164909 505.351486,554.744391 505.351486,526.579482" id="Path" stroke="#212121" stroke-width="1.79321802" stroke-linecap="round"></path>
            <path d="M507.489933,572.842953 C507.489933,572.842953 516.460978,555.996165 518.234324,526.579482" id="Path" stroke="#212121" stroke-width="1.79321802" stroke-linecap="round"></path>
            <path d="M520.059827,571.173921 C520.059827,571.173921 527.883413,556.256951 529.656759,526.579482" id="Path" stroke="#212121" stroke-width="1.79321802" stroke-linecap="round"></path>
        </g>
    </g>
</svg>