<?xml version="1.0" encoding="utf-8"?>
<!-- Generator: Adobe Illustrator 27.3.0, SVG Export Plug-In . SVG Version: 6.00 Build 0)  -->
<svg version="1.1" id="Capa_1" xmlns="http://www.w3.org/2000/svg" xmlns:xlink="http://www.w3.org/1999/xlink" x="0px" y="0px"
	 viewBox="0 0 500 500" style="enable-background:new 0 0 500 500;" xml:space="preserve">
<style type="text/css">
	.st0{fill:#5C997A;}
	.st1{fill:#FFDC70;}
	.st2{fill:#E26F4F;}
	.st3{fill:#343434;}
	.st4{fill:#222222;}
</style>
<g>
	<circle class="st2" cx="250" cy="250" r="167.11"/>
</g>
<g>
	<g>
		<path class="st3" d="M316.37,256.39c-17.29,0-31.36-16.83-31.36-37.53c0-1.38,1.12-2.5,2.5-2.5s2.5,1.12,2.5,2.5
			c0,17.94,11.82,32.53,26.36,32.53s26.36-14.59,26.36-32.53c0-1.38,1.12-2.5,2.5-2.5s2.5,1.12,2.5,2.5
			C347.73,239.56,333.66,256.39,316.37,256.39z"/>
	</g>
</g>
<g>
	<g>
		<path class="st3" d="M183.63,256.39c-17.29,0-31.36-16.83-31.36-37.53c0-1.38,1.12-2.5,2.5-2.5s2.5,1.12,2.5,2.5
			c0,17.94,11.82,32.53,26.36,32.53s26.36-14.59,26.36-32.53c0-1.38,1.12-2.5,2.5-2.5s2.5,1.12,2.5,2.5
			C214.99,239.56,200.92,256.39,183.63,256.39z"/>
	</g>
</g>
<g>
	<g>
		<path class="st3" d="M288.71,293.51c-0.56,0-1.13-0.19-1.6-0.58c-33.71-28.01-66.65-9.77-66.97-9.58
			c-1.2,0.68-2.73,0.27-3.41-0.93c-0.68-1.2-0.27-2.73,0.93-3.41c0.36-0.2,36.3-20.12,72.65,10.08c1.06,0.88,1.21,2.46,0.33,3.52
			C290.14,293.2,289.43,293.51,288.71,293.51z"/>
	</g>
</g>
</svg>
