<svg width="350" height="350" viewBox="0 0 350 350" fill="none" xmlns="http://www.w3.org/2000/svg">
<path d="M172.317 29.6917C172.317 29.6917 53.8999 62.5917 34.4749 129.15C3.73328 234.442 89.8916 298.842 160.417 297.792C219.392 296.917 348.483 238.292 309.517 105.525C309.517 105.525 267.225 5.36669 172.317 29.6917Z" fill="#FAF3E8"/>
<path d="M147.179 198.521L133.903 302.623L302.527 324.126L315.802 220.024L147.179 198.521Z" fill="white"/>
<path d="M139.123 197.519L125.848 301.622L141.24 303.584L154.515 199.482L139.123 197.519Z" fill="#EAA42C"/>
<path d="M300.44 217.976L287.164 322.078L302.557 324.041L315.832 219.939L300.44 217.976Z" fill="#EAA42C"/>
<path d="M145.892 208.6L224.408 261.333L307.008 225.4" stroke="#EAA42C" stroke-width="4.4" stroke-miterlimit="10"/>
<path d="M173.95 157.092C173.95 157.092 192.325 159.25 192.325 174.942" stroke="#333333" stroke-width="1.65" stroke-miterlimit="10" stroke-linecap="round"/>
<path d="M173.133 157.092C173.133 157.092 186.317 162.225 186.317 177.975" stroke="#333333" stroke-width="1.65" stroke-miterlimit="10" stroke-linecap="round"/>
<path d="M173.133 157.092C173.133 157.092 178.558 163.158 177.742 180.425" stroke="#333333" stroke-width="1.65" stroke-miterlimit="10" stroke-linecap="round"/>
<path d="M204.867 149.683C204.867 149.683 223.242 151.842 223.242 167.533" stroke="#333333" stroke-width="1.65" stroke-miterlimit="10" stroke-linecap="round"/>
<path d="M204.05 149.683C204.05 149.683 217.233 154.817 217.233 170.567" stroke="#333333" stroke-width="1.65" stroke-miterlimit="10" stroke-linecap="round"/>
<path d="M204.05 149.683C204.05 149.683 209.475 155.75 208.658 173.017" stroke="#333333" stroke-width="1.65" stroke-miterlimit="10" stroke-linecap="round"/>
<path d="M93.7417 99.1669L262.092 58.4502C262.092 58.4502 255.792 142.217 182.175 156.509C108.558 170.8 93.7417 99.1669 93.7417 99.1669Z" fill="#FFDC6F"/>
<path d="M37.7417 71.5751L58.275 54.6001L92.3417 96.8334L37.7417 71.5751Z" fill="#FFDC6F"/>
<path d="M238.817 64.0502L256.025 86.3918C256.025 86.3918 262.325 63.2335 262.15 58.3918C262.15 58.4502 238.817 64.1085 238.817 64.0502Z" fill="#EAA42C"/>
<path d="M177.917 92.1084C177.917 92.1084 169.458 176.925 67.2 204.633C67.2 204.633 52.5 207.667 46.9584 196.642C46.9584 196.642 41.9417 185.15 55.5917 180.833C55.5917 180.833 44.1 183.517 37.6834 175.35C37.6834 175.35 31.325 166.192 41.475 159.833C41.475 159.833 28.1167 161.583 28.1167 147.933C28.1167 109.958 177.917 92.1084 177.917 92.1084Z" fill="#FFDC6F"/>
<path d="M184.042 96.3083C184.042 96.3083 157.033 177.567 79.1583 200.958" stroke="#333333" stroke-width="2" stroke-miterlimit="10" stroke-linecap="round"/>
<path d="M207.025 78.75L199.558 102.083C199.558 102.083 194.25 113.517 203.292 113.925C212.333 114.333 210.992 98.4667 207.025 78.75Z" fill="#D9E8E8"/>
<path d="M197.692 79.3333L194.658 88.7249C194.658 88.7249 192.5 93.3333 196.175 93.5083C199.85 93.6833 199.267 87.3249 197.692 79.3333Z" fill="#D9E8E8"/>
<path d="M214.9 85.925H234.267L219.275 96.3084" stroke="#333333" stroke-width="1.65" stroke-miterlimit="10" stroke-linecap="round"/>
<path d="M265.242 160.825C268.275 153.767 274.983 152.833 280.117 155.108C285.367 157.383 289.158 162.867 286.125 169.925C283.092 176.983 276.5 177.917 271.25 175.642C266.058 173.367 262.15 167.883 265.242 160.825ZM290.325 103.133L310.858 112L289.683 153.883L274.225 147.175L290.325 103.133Z" fill="#EAA42C"/>
</svg>
