<?xml version="1.0" encoding="utf-8"?>
<!-- Generator: Adobe Illustrator 27.3.0, SVG Export Plug-In . SVG Version: 6.00 Build 0)  -->
<svg version="1.1" id="Capa_1" xmlns="http://www.w3.org/2000/svg" xmlns:xlink="http://www.w3.org/1999/xlink" x="0px" y="0px"
	 viewBox="0 0 500 500" style="enable-background:new 0 0 500 500;" xml:space="preserve">
<style type="text/css">
	.st0{fill:#5C997A;}
	.st1{fill:#FFDC70;}
	.st2{fill:#E26F4F;}
	.st3{fill:#343434;}
	.st4{fill:#222222;}
</style>
<g>
	<circle class="st0" cx="250" cy="250" r="167.11"/>
</g>
<g>
	<g>
		<path class="st3" d="M215.26,247.79c-1.38,0-2.5-1.12-2.5-2.5c0-17.94-11.82-32.53-26.36-32.53s-26.36,14.59-26.36,32.53
			c0,1.38-1.12,2.5-2.5,2.5s-2.5-1.12-2.5-2.5c0-20.69,14.07-37.53,31.36-37.53c17.29,0,31.36,16.83,31.36,37.53
			C217.76,246.67,216.64,247.79,215.26,247.79z"/>
	</g>
</g>
<g>
	<g>
		<path class="st3" d="M251.31,300.53c-18.69,0-33.89-13.4-33.89-29.88c0-1.1,0.9-2,2-2h63.79c1.1,0,2,0.9,2,2
			C285.2,287.13,270,300.53,251.31,300.53z M221.5,272.65c1.18,13.34,14.1,23.88,29.81,23.88s28.62-10.54,29.81-23.88H221.5z"/>
	</g>
</g>
<g>
	<g>
		<path class="st3" d="M342.45,247.79c-1.38,0-2.5-1.12-2.5-2.5c0-17.94-11.82-32.53-26.36-32.53s-26.36,14.59-26.36,32.53
			c0,1.38-1.12,2.5-2.5,2.5s-2.5-1.12-2.5-2.5c0-20.69,14.07-37.53,31.36-37.53c17.29,0,31.36,16.83,31.36,37.53
			C344.95,246.67,343.83,247.79,342.45,247.79z"/>
	</g>
</g>
</svg>
