<?xml version="1.0" encoding="utf-8"?>
<!-- Generator: Adobe Illustrator 27.3.0, SVG Export Plug-In . SVG Version: 6.00 Build 0)  -->
<svg version="1.1" id="Capa_1" xmlns="http://www.w3.org/2000/svg" xmlns:xlink="http://www.w3.org/1999/xlink" x="0px" y="0px"
	 viewBox="0 0 500 500" style="enable-background:new 0 0 500 500;" xml:space="preserve">
<style type="text/css">
	.st0{fill:#5C997A;}
	.st1{fill:#FFDC70;}
	.st2{fill:#E26F4F;}
	.st3{fill:#343434;}
	.st4{fill:#222222;}
</style>
<g>
	<circle class="st1" cx="250.67" cy="250" r="167.11"/>
</g>
<g>
	<g>
		<ellipse class="st4" cx="201.61" cy="232.02" rx="11.71" ry="12.27"/>
	</g>
</g>
<g>
	<g>
		<ellipse class="st4" cx="297.14" cy="232.02" rx="11.71" ry="12.27"/>
	</g>
</g>
<g>
	<path class="st3" d="M251.32,293.91c-0.76,0-1.53-0.01-2.32-0.03c-19.98-0.56-30.96-7.3-31.42-7.59c-0.94-0.59-1.22-1.82-0.63-2.76
		c0.58-0.93,1.82-1.22,2.75-0.63l0,0c0.1,0.06,10.61,6.46,29.41,6.98c20.09,0.54,30.99-6.85,31.1-6.93
		c0.91-0.63,2.15-0.41,2.78,0.49c0.63,0.9,0.42,2.15-0.48,2.78C282.05,286.55,271.36,293.91,251.32,293.91z"/>
</g>
</svg>
