<svg width="350" height="350" viewBox="0 0 350 350" fill="none" xmlns="http://www.w3.org/2000/svg">
<path d="M171.873 52.0624C171.873 52.0624 53.4743 84.9915 34.0434 151.521C3.2901 256.812 89.4543 321.212 160.008 320.18C219.001 319.317 348.098 260.697 309.079 127.913C309.079 127.913 266.805 27.714 171.873 52.0624Z" fill="#D9E8E8"/>
<path d="M281.437 160.651L113.888 189.351L131.608 292.798L299.157 264.098L281.437 160.651Z" fill="white"/>
<path d="M121.184 188.102L105.862 190.727L123.581 294.173L138.904 291.549L121.184 188.102Z" fill="#EAA42C"/>
<path d="M281.457 160.545L266.135 163.169L283.854 266.616L299.177 263.991L281.457 160.545Z" fill="#EAA42C"/>
<path d="M115.57 199.413L206.08 226.893L274.558 168.414" stroke="#EAA42C" stroke-width="4.4" stroke-miterlimit="10"/>
<path d="M173.524 179.445C173.524 179.445 191.917 181.58 191.917 197.324" stroke="#333333" stroke-width="1.65" stroke-miterlimit="10" stroke-linecap="round"/>
<path d="M172.725 179.445C172.725 179.445 185.937 184.596 185.937 200.334" stroke="#333333" stroke-width="1.65" stroke-miterlimit="10" stroke-linecap="round"/>
<path d="M172.725 179.445C172.725 179.445 178.138 185.518 177.357 202.808" stroke="#333333" stroke-width="1.65" stroke-miterlimit="10" stroke-linecap="round"/>
<path d="M204.435 172.083C204.435 172.083 222.828 174.218 222.828 189.962" stroke="#333333" stroke-width="1.65" stroke-miterlimit="10" stroke-linecap="round"/>
<path d="M203.636 172.083C203.636 172.083 216.848 177.234 216.848 192.972" stroke="#333333" stroke-width="1.65" stroke-miterlimit="10" stroke-linecap="round"/>
<path d="M203.636 172.083C203.636 172.083 209.049 178.156 208.268 195.446" stroke="#333333" stroke-width="1.65" stroke-miterlimit="10" stroke-linecap="round"/>
<path d="M94.8441 63.8807C94.9783 63.0349 104.195 60.1591 104.195 60.1591C104.195 60.1591 95.9816 57.9016 95.6316 57.3766C95.2816 56.8516 92.2308 46.1882 92.2308 46.1882L88.3808 57.5166L78.8491 60.6957L88.9 63.1399L92.2308 75.8099C92.2308 75.8099 94.3891 66.7624 94.8441 63.8749V63.8807Z" fill="#FFDC6F"/>
<path d="M93.3392 121.543L261.695 80.8149C261.695 80.8149 255.413 164.552 181.802 178.856C108.191 193.159 93.3392 121.537 93.3392 121.537V121.543Z" fill="#FFDC6F"/>
<path d="M37.3159 93.975L57.8609 76.9475L91.9159 119.222L37.3159 93.975Z" fill="#FFDC6F"/>
<path d="M214.935 115.302C214.935 109.818 219.38 105.373 224.863 105.373C230.347 105.373 234.792 109.818 234.792 115.302" stroke="#333333" stroke-width="2" stroke-miterlimit="10" stroke-linecap="round"/>
<path d="M238.391 86.4558L255.582 108.809C255.582 108.809 261.899 85.6566 261.695 80.8208L238.391 86.4558Z" fill="#EAA42C"/>
<path d="M177.52 114.462C177.52 114.462 169.033 199.296 66.7859 226.998C66.7859 226.998 52.0859 230.026 46.5267 218.989C46.5267 218.989 41.4984 207.48 55.1776 203.192C55.1776 203.192 43.7151 205.905 37.2634 197.733C37.2634 197.733 30.8817 188.557 41.0551 182.239C41.0551 182.239 27.6851 184.001 27.6851 170.31C27.6851 132.306 177.514 114.462 177.514 114.462H177.52Z" fill="#FFDC6F"/>
<path d="M183.639 118.708C183.639 118.708 156.608 199.99 78.7734 223.352" stroke="#333333" stroke-width="2" stroke-miterlimit="10" stroke-linecap="round"/>
<path d="M267.697 305.112C270.768 305.112 273.257 302.624 273.257 299.553C273.257 296.483 270.768 293.994 267.697 293.994C264.627 293.994 262.138 296.483 262.138 299.553C262.138 302.624 264.627 305.112 267.697 305.112Z" fill="#FFDC6F"/>
</svg>
