<?xml version="1.0" encoding="UTF-8"?>
<svg width="81px" height="80px" viewBox="0 0 81 80" version="1.1" xmlns="http://www.w3.org/2000/svg" xmlns:xlink="http://www.w3.org/1999/xlink">
    <!-- Generator: Sketch 63.1 (92452) - https://sketch.com -->
    <title>05.channels.illustration01</title>
    <desc>Created with Sketch.</desc>
    <g id="05.channels.illustration01" stroke="none" stroke-width="1" fill="none" fill-rule="evenodd" transform="translate(0.000000, 0.000000)">
        <g id="Venta-directa-1">
            <circle id="Oval" fill="#79BBB1" fill-rule="nonzero" cx="40" cy="40" r="39.7983193"></circle>
            <path d="M19.1596639,73.8823529 C20.4705882,74.6890756 21.8487395,75.4285714 23.2605042,76.1008403 L24.7058824,66.2857143 L20.3697479,65.6470588 L19.1596639,73.8823529 Z" id="Path" fill="#616A74" fill-rule="nonzero"></path>
            <circle id="Oval" cx="40" cy="40" r="39.7983193"></circle>
            <g id="Group" transform="translate(19.159664, 5.714286)" fill-rule="nonzero">
                <path d="M28.9411765,0.0336134454 C28.9411765,0.0336134454 38.0840336,5.88235294 32.7731092,15.9327731 C32.7731092,15.9327731 23.1596639,9.34453782 28.9411765,0.0336134454 Z" id="Path" fill="#3D7773"></path>
                <path d="M34.4201681,17.2773109 L33.4789916,18.2521008 C25.9159664,14.0168067 14.9915966,16.302521 7.42857143,24.2352941 C-0.134453782,32.2016807 -1.88235294,43.1932773 2.68907563,50.5546218 L2.21848739,51.0588235 C0.907563025,52.4369748 0.974789916,54.5882353 2.31932773,55.8991597 C3.66386555,57.210084 5.8487395,57.1428571 7.15966387,55.7983193 L7.52941176,55.394958 C15.1260504,60.1344538 26.4201681,57.9831933 34.2184874,49.7815126 C42.0168067,41.6134454 43.6302521,30.1848739 38.5210084,22.8571429 L39.3277311,21.9831933 C40.6386555,20.605042 40.5714286,18.4537815 39.2268908,17.1428571 C37.8823529,15.8655462 35.7310924,15.8991597 34.4201681,17.2773109 Z" id="Path" fill="#FFD580"></path>
            </g>
            <circle id="Oval" fill="#CED2D6" fill-rule="nonzero" cx="25.210084" cy="50.4201681" r="16.7394958"></circle>
            <g id="Group" transform="translate(11.092437, 36.302521)" fill-rule="nonzero">
                <circle id="Oval" fill="#FFD580" cx="14.1176471" cy="14.1176471" r="13.9495798"></circle>
                <path d="M14.1176471,0.201680672 C21.7815126,0.201680672 28.0336134,6.42016807 28.0336134,14.1176471 C28.0336134,21.8151261 21.7815126,28 14.1176471,28 C6.45378151,28 0.201680672,21.7815126 0.201680672,14.1176471 C0.201680672,6.45378151 6.45378151,0.201680672 14.1176471,0.201680672 M14.1176471,0.134453782 C6.38655462,0.134453782 0.134453782,6.38655462 0.134453782,14.1176471 C0.134453782,21.8487395 6.38655462,28.1008403 14.1176471,28.1008403 C21.8487395,28.1008403 28.1008403,21.8487395 28.1008403,14.1176471 C28.1008403,6.38655462 21.8151261,0.134453782 14.1176471,0.134453782 L14.1176471,0.134453782 Z" id="Shape" fill="#212121"></path>
            </g>
            <path d="M25.210084,64.907563 C17.210084,64.907563 10.7226891,58.4201681 10.7226891,50.4201681 C10.7226891,42.4201681 17.210084,35.9327731 25.210084,35.9327731 C33.210084,35.9327731 39.697479,42.4201681 39.697479,50.4201681 C39.697479,58.4201681 33.1764706,64.907563 25.210084,64.907563 Z M25.210084,36.9411765 C17.7815126,36.9411765 11.7310924,42.9915966 11.7310924,50.4201681 C11.7310924,57.8487395 17.7815126,63.8991597 25.210084,63.8991597 C32.6386555,63.8991597 38.6890756,57.8487395 38.6890756,50.4201681 C38.6890756,42.9915966 32.6386555,36.9411765 25.210084,36.9411765 Z" id="Shape" fill="#616A74" fill-rule="nonzero"></path>
        </g>
    </g>
</svg>