<?xml version="1.0" encoding="UTF-8"?>
<svg width="80px" height="80px" viewBox="0 0 80 80" version="1.1" xmlns="http://www.w3.org/2000/svg" xmlns:xlink="http://www.w3.org/1999/xlink">
    <!-- Generator: Sketch 63.1 (92452) - https://sketch.com -->
    <title>05.channels.illustration03</title>
    <desc>Created with Sketch.</desc>
    <g id="05.channels.illustration03" stroke="none" stroke-width="1" fill="none" fill-rule="evenodd">
        <g id="Venta-directa-3" fill-rule="nonzero">
            <circle id="Oval" fill="#79BBB1" cx="40" cy="40" r="39.7983193"></circle>
            <g id="Group" transform="translate(19.831933, 5.714286)">
                <path d="M29.0420168,0.0336134454 C29.0420168,0.0336134454 38.1848739,5.88235294 32.8739496,15.9327731 C32.8739496,15.9327731 23.2605042,9.34453782 29.0420168,0.0336134454 Z" id="Path" fill="#3D7773"></path>
                <path d="M34.487395,17.2773109 L33.5462185,18.2521008 C25.9831933,14.0168067 15.0588235,16.302521 7.49579832,24.2352941 C-0.0672268908,32.2016807 -1.81512605,43.1932773 2.75630252,50.5546218 L2.28571429,51.0588235 C0.974789916,52.4369748 1.04201681,54.5882353 2.38655462,55.8991597 C3.76470588,57.210084 5.91596639,57.1428571 7.22689076,55.7983193 L7.59663866,55.394958 C15.1932773,60.1344538 26.487395,57.9831933 34.2857143,49.7815126 C42.0840336,41.6134454 43.697479,30.1848739 38.5882353,22.8571429 L39.394958,21.9831933 C40.7058824,20.605042 40.6386555,18.4537815 39.2941176,17.1428571 C37.9831933,15.8655462 35.7983193,15.8991597 34.487395,17.2773109 Z" id="Path" fill="#FFD580"></path>
            </g>
            <path d="M39.4621849,52.7058824 L33.0420168,68.5042017 C32.907563,68.8739496 33.2436975,69.210084 33.6134454,69.0756303 L38.8571429,67.1932773 C39.092437,67.1260504 39.3277311,67.2268908 39.394958,67.4285714 L41.6134454,72.5378151 C41.7815126,72.907563 42.2857143,72.8739496 42.4201681,72.5378151 L49.1764706,56.6722689" id="Path" fill="#2E988D"></path>
            <path d="M49.0084034,54.8907563 L54.4201681,71.0588235 C54.5546218,71.4285714 55.0252101,71.4621849 55.2268908,71.1260504 L57.9495798,66.2857143 C58.0504202,66.0840336 58.3193277,66.0168067 58.5210084,66.1176471 L63.5294118,68.5378151 C63.8655462,68.7058824 64.2689076,68.3697479 64.1344538,68 L58.9243697,51.5630252" id="Path" fill="#2E988D"></path>
            <circle id="Oval" fill="#CED2D6" cx="48.4033613" cy="43.2268908" r="14.6218487"></circle>
            <circle id="Oval" fill="#EFA53A" cx="48.4033613" cy="43.2268908" r="10.3193277"></circle>
        </g>
    </g>
</svg>