<?xml version="1.0" encoding="UTF-8"?>
<svg width="81px" height="80px" viewBox="0 0 81 80" version="1.1" xmlns="http://www.w3.org/2000/svg" xmlns:xlink="http://www.w3.org/1999/xlink">
    <!-- Generator: Sketch 63.1 (92452) - https://sketch.com -->
    <title>05.channels.illustration02</title>
    <desc>Created with Sketch.</desc>
    <g id="05.channels.illustration02" stroke="none" stroke-width="1" fill="none" fill-rule="evenodd" transform="translate(0.000000, 0.000000)">
        <g id="Venta-directa-2" fill-rule="nonzero">
            <path d="M79.7983193,40 C79.7983193,61.9831933 61.9495798,78.8571429 40,79.7983193 C20.302521,80.6386555 0.907563025,62.2184874 0.201680672,40 C-0.470588235,18.0504202 18.0168067,0.201680672 40,0.201680672 C61.9831933,0.201680672 79.7983193,18.0168067 79.7983193,40 Z" id="Path" fill="#79BBB1"></path>
            <g id="Group" transform="translate(24.537815, 9.411765)">
                <path d="M29.0420168,0 C29.0420168,0 38.1848739,5.8487395 32.8739496,15.8991597 C32.8739496,15.8991597 23.2605042,9.31092437 29.0420168,0 Z" id="Path" fill="#3D7773"></path>
                <path d="M34.5210084,17.2436975 L33.5798319,18.2184874 C26.0168067,13.9831933 15.092437,16.2689076 7.52941176,24.2016807 C-0.0336134454,32.1680672 -1.78151261,43.1596639 2.78991597,50.5210084 L2.31932773,51.0252101 C1.00840336,52.4033613 1.07563025,54.5546218 2.42016807,55.8655462 C3.76470588,57.1764706 5.94957983,57.1092437 7.2605042,55.7647059 L7.6302521,55.3613445 C15.2268908,60.1008403 26.5210084,57.9495798 34.3193277,49.7478992 C42.1176471,41.5798319 43.7310924,30.1512605 38.6218487,22.8235294 L39.4285714,21.9495798 C40.7394958,20.5714286 40.6722689,18.4201681 39.3277311,17.1092437 C37.9831933,15.7983193 35.7983193,15.8991597 34.5210084,17.2436975 Z" id="Path" fill="#FFD580"></path>
            </g>
            <path d="M79.5966387,43.7647059 C76.0336134,43.4957983 60.5042017,42.3193277 54.9243697,41.6470588 C52.9411765,41.4117647 47.9327731,41.0756303 47.3277311,44.2689076 C46.8571429,46.6890756 47.0588235,48.5378151 54.9243697,50.2521008 C56.605042,50.6218487 65.0756303,53.2436975 57.8487395,56.605042 C50.6218487,59.9663866 29.1092437,45.7142857 29.1092437,45.7142857 C29.1092437,45.7142857 22.789916,41.1764706 21.512605,44.907563 C21.512605,44.907563 20.5714286,46.7563025 22.7226891,48.9747899 L19.0588235,46.2857143 C19.0588235,46.2857143 16.4033613,43.8991597 14.3529412,45.9159664 C12.6722689,47.5294118 14.4537815,49.9159664 16.4705882,51.5630252 C15.2941176,50.8235294 13.6470588,50.0504202 12.7731092,50.789916 C11.3277311,52.0336134 11.6302521,54.4201681 14.8571429,56.1680672 C14.8571429,56.1680672 12.1008403,55.5630252 11.9327731,58.0504202 C11.9327731,58.0504202 11.2605042,60.302521 18.7563025,65.3445378 C18.7563025,65.3445378 31.4285714,74.5546218 48.0336134,78.9915966 C64.9411765,75.5294118 77.9495798,61.3109244 79.5966387,43.7647059 Z" id="Path" fill="#FFCAB2"></path>
            <path d="M37.5462185,70.3193277 C37.4789916,70.3193277 37.4453782,70.3193277 37.3781513,70.2857143 C28.5378151,66.7563025 15.5294118,57.512605 15.394958,57.4453782 C15.1932773,57.3109244 15.1596639,57.0420168 15.2941176,56.8739496 C15.4285714,56.6722689 15.697479,56.6386555 15.8655462,56.7731092 C16,56.8739496 28.9411765,66.0504202 37.6806723,69.5462185 C37.8823529,69.6470588 38.0168067,69.8823529 37.9159664,70.0840336 C37.8823529,70.2184874 37.7142857,70.3193277 37.5462185,70.3193277 Z" id="Path" fill="#212121"></path>
            <path d="M40,65.5798319 C39.9663866,65.5798319 39.8991597,65.5798319 39.8655462,65.5462185 C30.5882353,61.9831933 16.907563,52.5042017 16.7731092,52.4033613 C16.5714286,52.2689076 16.5378151,52 16.6722689,51.8319328 C16.8067227,51.6302521 17.0756303,51.5966387 17.2436975,51.7310924 C17.3781513,51.8319328 30.9915966,61.2436975 40.1680672,64.7731092 C40.3697479,64.8403361 40.5042017,65.1092437 40.4033613,65.3109244 C40.3361345,65.4789916 40.1680672,65.5798319 40,65.5798319 Z" id="Path" fill="#212121"></path>
            <path d="M42.4201681,60.907563 C42.3529412,60.907563 42.3193277,60.907563 42.2521008,60.8739496 C33.1092437,57.1764706 22.0504202,48.8067227 21.9495798,48.7394958 C21.7815126,48.605042 21.7142857,48.3361345 21.8823529,48.1344538 C22.0168067,47.9327731 22.2857143,47.8991597 22.487395,48.0672269 C22.5882353,48.1344538 33.5462185,56.4369748 42.5882353,60.1008403 C42.789916,60.2016807 42.8907563,60.4369748 42.8235294,60.6386555 C42.7226891,60.8067227 42.5882353,60.907563 42.4201681,60.907563 Z" id="Path" fill="#212121"></path>
        </g>
    </g>
</svg>