<svg width="16" height="16" viewBox="0 0 16 16" fill="none" xmlns="http://www.w3.org/2000/svg">
    <path fill-rule="evenodd" clip-rule="evenodd" d="M13.4141 2.58579C13.7892 2.96086 13.9999 3.46957 13.9999 4C13.9984 4.27959 13.9383 4.55575 13.8234 4.81067C13.7086 5.0656 13.5416 5.29361 13.3332 5.48V12C13.3332 12.5304 13.1225 13.0391 12.7474 13.4142C12.3724 13.7893 11.8636 14 11.3332 14H4.66654C4.13611 14 3.6274 13.7893 3.25233 13.4142C2.87726 13.0391 2.66654 12.5304 2.66654 12V5.48C2.36855 5.20916 2.15926 4.85468 2.06604 4.46293C1.97283 4.07119 2.00004 3.66043 2.14411 3.2844C2.28818 2.90838 2.5424 2.5846 2.87351 2.35543C3.20463 2.12626 3.5972 2.00238 3.99988 2H11.9999C12.5303 2 13.039 2.21071 13.4141 2.58579ZM11.9999 3.33333H3.99988C3.82307 3.33333 3.6535 3.40357 3.52847 3.5286C3.40345 3.65362 3.33321 3.82319 3.33321 4C3.33321 4.17681 3.40345 4.34638 3.52847 4.4714C3.6535 4.59643 3.82307 4.66667 3.99988 4.66667H11.9999C12.1767 4.66667 12.3463 4.59643 12.4713 4.4714C12.5963 4.34638 12.6665 4.17681 12.6665 4C12.6665 3.82319 12.5963 3.65362 12.4713 3.5286C12.3463 3.40357 12.1767 3.33333 11.9999 3.33333ZM11.8046 12.4714C11.9296 12.3464 11.9999 12.1768 11.9999 12V6H3.99988V12C3.99988 12.1768 4.07012 12.3464 4.19514 12.4714C4.32016 12.5964 4.48973 12.6667 4.66654 12.6667H11.3332C11.51 12.6667 11.6796 12.5964 11.8046 12.4714ZM6.58 8H9.42C9.74033 8 10 8.25967 10 8.58V8.75333C10 9.07366 9.74033 9.33333 9.42 9.33333H6.58C6.25968 9.33333 6 9.07366 6 8.75333V8.58C6 8.25967 6.25968 8 6.58 8Z" fill="#879796"/>
</svg>
