<?xml version="1.0" encoding="utf-8"?>
<!-- Generator: Adobe Illustrator 25.4.2, SVG Export Plug-In . SVG Version: 6.00 Build 0)  -->
<svg version="1.1" id="Capa_1" xmlns="http://www.w3.org/2000/svg" xmlns:xlink="http://www.w3.org/1999/xlink" x="0px" y="0px"
	 viewBox="0 0 40 40" style="enable-background:new 0 0 40 40;" xml:space="preserve">
<style type="text/css">
	.st0{fill:#FAF3E8;}
	.st1{fill:#AF754E;}
	.st2{clip-path:url(#SVGID_00000123439660345817845160000017698064809339932095_);fill:#5D9E9B;}
	.st3{clip-path:url(#SVGID_00000123439660345817845160000017698064809339932095_);}
	.st4{fill:#D89E68;}
	.st5{fill:#EABA8B;}
	
		.st6{clip-path:url(#SVGID_00000123439660345817845160000017698064809339932095_);fill:none;stroke:#EABA8B;stroke-width:0.1707;stroke-miterlimit:10;}
	.st7{clip-path:url(#SVGID_00000123439660345817845160000017698064809339932095_);fill:#FAF3E8;}
	.st8{clip-path:url(#SVGID_00000132767427183626184820000012692085020771697315_);fill:#FAF3E8;}
	.st9{clip-path:url(#SVGID_00000132767427183626184820000012692085020771697315_);}
	.st10{fill:#FBCDAD;}
	.st11{fill:none;stroke:#343434;stroke-width:0.4961;stroke-linecap:round;stroke-miterlimit:10;}
	.st12{fill:#5D9E9B;}
	.st13{clip-path:url(#SVGID_00000132767427183626184820000012692085020771697315_);fill:#FBCDAD;}
	.st14{fill:none;stroke:#000000;stroke-width:0.25;stroke-miterlimit:10;}
	.st15{fill:#FFB685;}
	.st16{clip-path:url(#SVGID_00000163779202556655655520000004338593186119619968_);fill:#FAF3E8;}
	.st17{clip-path:url(#SVGID_00000163779202556655655520000004338593186119619968_);}
	.st18{fill:#EAA42C;}
	.st19{fill:none;stroke:#E8880A;stroke-width:0.3625;stroke-miterlimit:10;}
	.st20{fill:none;stroke:#E8880A;stroke-width:0.3366;stroke-miterlimit:10;}
	.st21{fill:#E8880A;}
	.st22{clip-path:url(#SVGID_00000163779202556655655520000004338593186119619968_);fill:#5D9E9B;}
	
		.st23{clip-path:url(#SVGID_00000163779202556655655520000004338593186119619968_);fill:none;stroke:#E8880A;stroke-width:0.3625;stroke-miterlimit:10;}
	.st24{fill:#7E4F30;}
	.st25{fill:#DD9965;}
	.st26{clip-path:url(#SVGID_00000038389489142967334190000017409257979937409175_);fill:#FAF3E8;}
	.st27{clip-path:url(#SVGID_00000038389489142967334190000017409257979937409175_);}
	.st28{fill:none;stroke:#7F5031;stroke-width:0.2724;stroke-miterlimit:10;}
	.st29{clip-path:url(#SVGID_00000038389489142967334190000017409257979937409175_);fill:#5D9E9B;}
	.st30{clip-path:url(#SVGID_00000168808153076965878850000002488159750220114833_);fill:#FAF3E8;}
	.st31{clip-path:url(#SVGID_00000168808153076965878850000002488159750220114833_);}
	.st32{fill:none;stroke:#7F5031;stroke-width:2.433243e-02;stroke-miterlimit:10;}
	.st33{clip-path:url(#SVGID_00000168808153076965878850000002488159750220114833_);fill:#5D9E9B;}
	.st34{clip-path:url(#SVGID_00000067219293740094435970000013509389787951169182_);fill:#FAF3E8;}
	.st35{clip-path:url(#SVGID_00000067219293740094435970000013509389787951169182_);}
	.st36{clip-path:url(#SVGID_00000067219293740094435970000013509389787951169182_);fill:#5D9E9B;}
	.st37{clip-path:url(#SVGID_00000172435902462398985160000005334489982686400906_);fill:#FAF3E8;}
	.st38{clip-path:url(#SVGID_00000172435902462398985160000005334489982686400906_);}
	.st39{fill:none;stroke:#7F5031;stroke-width:2.584586e-02;stroke-miterlimit:10;}
	.st40{clip-path:url(#SVGID_00000172435902462398985160000005334489982686400906_);fill:#5D9E9B;}
</style>
<circle class="st0" cx="20" cy="20" r="20"/>
<path class="st1" d="M35.3,21.6L8.5,13.8l-8.4,4.1C0,18.6,0,19.3,0,20c0,11,9,20,20,20c5.8,0,11-2.5,14.6-6.4L35.3,21.6z"/>
<g>
	<defs>
		<rect id="SVGID_00000146470945507879783890000001622645085003123625_" x="-50.1" y="-60.3" width="44.1" height="42.8"/>
	</defs>
	<clipPath id="SVGID_00000115513769934791723190000013752273318219427980_">
		<use xlink:href="#SVGID_00000146470945507879783890000001622645085003123625_"  style="overflow:visible;"/>
	</clipPath>
	<g style="clip-path:url(#SVGID_00000115513769934791723190000013752273318219427980_);">
		<g>
			<path class="st10" d="M18.5-14.2C6.1-1.6-10-22.3-10-22.3c-4.1-4.2-8.4-9-13-15.2c0-0.1-0.3-0.4-0.4-0.5
				c-1.8-2.8-6.3-11.7-6.3-11.7c-0.4-0.9-1.7-1.1-2.6-0.7c-0.9,0.4-1.5,1.8-1,2.7l2.2,3.6l-2.4-3.9c-0.5-1-1.9-1.2-2.8-0.6
				c-0.9,0.7-1.4,1.6-0.9,2.5l0.8,1.6c-0.9-1.3-1.8-1.9-3.2-1.1c-1.1,0.6-1.1,2.1-0.6,3l3.2,6.3l-3.2-6.3c-0.4-0.7-1.5-0.8-2.4-0.2
				c-0.7,0.4-1.2,1.5-0.8,2.2l2.9,6.5c4.4,9.6,7.8,19.1,13.4,25.8c0,0,32.2,48.3,69.1,5.9"/>
		</g>
	</g>
</g>
<path class="st24" d="M33.7,26.3c0,0.7-0.6,1.3-1.3,1.3c-0.7,0-1.2-0.6-1.2-1.2c0-0.7,0.6-1.3,1.3-1.3
	C33.1,25.1,33.7,25.7,33.7,26.3"/>
<path class="st24" d="M24.5,28.9c0,0.7-0.6,1.3-1.3,1.3c-0.7,0-1.2-0.6-1.2-1.2c0-0.7,0.6-1.3,1.3-1.3
	C23.9,27.6,24.5,28.2,24.5,28.9"/>
<g>
	<polygon class="st25" points="0.7,17.6 21.1,23.4 25.7,21.8 4.2,15.9 	"/>
</g>
<path class="st12" d="M23.5,5.4c0,0,2.7-0.2,2.7,3.5c0-3.7,2.7-3.5,2.7-3.5S32,5,31.9,9.1c-0.1,4.3-5.7,6.3-5.7,6.3s-5.7-2-5.7-6.3
	C20.3,5,23.5,5.4,23.5,5.4z"/>
<path class="st24" d="M35.3,21.6L35.3,21.6l-0.2-0.1l-15.6,4.8l-19.4-5c0,0.1,0,0.2,0,0.3l19.2,5L19.2,40c0.1,0,0.2,0,0.3,0
	l0.1-13.4l15.7-4.9L35.3,21.6z"/>
</svg>
