<?xml version="1.0" encoding="utf-8"?>
<!-- Generator: Adobe Illustrator 22.1.0, SVG Export Plug-In . SVG Version: 6.00 Build 0)  -->
<svg version="1.1" id="Capa_1" xmlns="http://www.w3.org/2000/svg" xmlns:xlink="http://www.w3.org/1999/xlink" x="0px" y="0px"
	 viewBox="0 0 122.6 52.4" style="enable-background:new 0 0 122.6 52.4;" xml:space="preserve">
<style type="text/css">
	.st0{fill:#64B2AE;}
</style>
<g id="Flecha_x5F_2_x5F_Home">
	<path class="st0" d="M1.7,36.5c0.5-0.3,1-0.5,1.5-0.8C4,35.5,4.7,35.3,5.4,35c0.9-0.4,1.6-0.9,2.5-1.4c1-0.5,1.9-1,2.9-1.4
		c1.6-0.7,5.7-2.4,7.2-3c6.2-2.7,2.1-1.1,8.8-3.3c1.7-0.6,3.3-1.3,5-1.7c1.8-0.4,3.7-0.6,5.5-0.9c9.1-1.5,2.7-0.7,12.2-1.7
		c13.2,0.2,26.2,2.9,39,6.2c5.5,1.5,11,3,16.2,5.2c4.2,1.8,8,4.1,12.2,5.9c1.9,0.8,0.6,3.8-1.3,3l0,0c-1.4-0.2-2.9-0.2-4.2-0.5
		c-1.5-0.3-2.9-0.9-4.3-1.3c-3.2-0.9-6.4-2-9.7-2.9c-1.8-0.5-3.6-0.8-5.4-1.3c-1.9-0.5-3.7-1.2-5.6-1.9c-16.8-2.8,4.6,1-12.2-2.8
		c-2.1-0.5-4.3-0.7-6.4-1.1c-6.2-1.1-12.4-2-18.8-1.9c-5.5,0.3-11,0.8-16.4,2.1c-4.6,1.2-8.9,3.1-13.3,4.8c-3.8,1.6-3.4,1.5-7.2,2.7
		c-1,0.3-2.1,0.5-3,1c-0.9,0.4-1.5,1.1-2.4,1.5c-1.1,0.5-2.3,0.7-3.3,1.3C0.2,42.6-1.5,37.6,1.7,36.5z"/>
	<path class="st0" d="M90,46.1c0.5-0.1,1-0.1,1.5-0.2c0.7-0.2,1.2-0.6,1.9-0.9c0.7-0.3,1.4-0.4,2.1-0.7c0.8-0.3,1.5-0.7,2.3-1
		c1.6-0.5,3.2-0.9,4.7-1.4c1.9-0.6,4.6-2.2,6.6-2.4c0.7-0.1,1.3,0.3,2,0.2c0.6-0.1,1-0.7,1.6-1c0.5-0.2,1-0.3,1.5-0.5
		c3.2-0.4-0.6,0.3,2.2-1c0.3-0.1,0.6,0,0.9,0c0.9-0.1,1.9-1.4-1,1c0.1,0.1,0.1,0.4,0.2,0.4c0.5-0.2-0.7-0.9-0.8-1.4
		c-0.2-0.6,0-1.4-0.2-2c-0.3-0.8-0.9-1.5-1.3-2.3c-0.5-1-1.1-2-1.6-3c-2.5-5.6-5.5-11-7.8-16.6c-3.5-8.4-3-5.7-3.6-8.2
		c-0.4-1.4-1.2-2.8-1.1-4.5c0.1-1.3,1.4-0.7,1.6-0.2l0,0c1,0.9,1.9,1.7,2.9,2.6c5.3,7.5,9.7,15.5,13.9,23.6c3.6,7.4-0.3-0.8,2.5,5.8
		c0.3,0.7,0.8,1.4,1,2.1c0.6,1.8,0.6,3.9,0.6,5.8c-0.7,0.9-1.4,1.8-2.2,2.6c-1,0.9-4.3,0.9-5.4,1.9c-1.9,0.3-3.1,1.2-5,1.6
		c-2.2,0.5-4.5,0.5-6.4,1.9c-4.4,1.2-8.6,3-13,4C86.6,52.7,86,46.4,90,46.1z"/>
</g>
</svg>
