<?xml version="1.0" encoding="utf-8"?>
<!-- Generator: Adobe Illustrator 22.1.0, SVG Export Plug-In . SVG Version: 6.00 Build 0)  -->
<svg version="1.1" id="Capa_1" xmlns="http://www.w3.org/2000/svg" xmlns:xlink="http://www.w3.org/1999/xlink" x="0px" y="0px"
	 viewBox="0 0 150.5 136.9" style="enable-background:new 0 0 150.5 136.9;" xml:space="preserve">
<style type="text/css">
	.st0{fill:#64B2AE;}
	.st1{fill:#FFFFFF;}
</style>
<g id="_x32_">
	<path class="st0" d="M0,83c0.3-14.8,2.2-29.3,7.9-43C12.1,29.8,19.4,21.7,28,15c2.9-2.3,6.4-3.9,9.8-5.1c7.7-2.6,15.5-4.7,23.5-6.1
		c2.1-0.4,3.8-0.4,4.8,1.9c0.7,1.8,2.1,1.5,3.4,0.9c3.2-1.5,6.7-2.3,10-3.4C86,1.2,92.6-0.2,99.4,0c9.3,0.2,18.1,2.4,26.5,6.4
		c6.7,3.1,12.1,8,15.7,14.1c9.3,15.9,11.8,32.9,5.2,50.6c-2.6,6.9-6.2,13.3-10.9,19.2c-7.4,9.4-15.5,18.1-24.9,25.6
		c-4.2,3.4-9.1,5.6-13.8,8.2c-8.6,4.7-17.7,8-27.2,10.5c-10.9,2.9-22,2.9-33,0.3c-20.5-4.8-37.1-23.6-37-46.5C0,86.6,0,84.8,0,83z
		 M52.1,129.2c3.5-0.2,9.2-0.7,14.8-2.1c13-3.1,24.9-8.6,36.1-15.6c13.9-8.8,24.6-20.9,33.3-34.7c8.4-13.3,11-27.7,6.3-42.9
		c-2.7-8.6-7.4-15.9-15.6-20.4c-8.7-4.8-18.2-7-28-7c-9.5-0.1-19,0.8-27.8,4.8c-1.9,0.9-3.5-0.8-5.2,0.3c-1.6,1-3.5,1.5-5.3,2.2
		c-0.5,0.2-1.2,0.3-1.5-0.2c-0.7-1.2-1.7-0.6-2.5-0.4C51,14,45.4,15.5,40.1,17.7c-8.4,3.6-14.9,9.8-20.4,16.9
		c-4.8,6.2-7.2,13.4-9.1,21C7.3,68.8,5.2,82.2,6.7,95.9c1.3,12.9,8.6,21.7,19.4,27.8C33.4,127.8,41.5,129.3,52.1,129.2z"/>
	<path class="st0" d="M88.5,4.9l15-1l20,5l15,12l8,21l-1,14l-4,18l-9,11c0,0-25,20-32,25c-15.5,11.1-72,29-91-18
		c-21.8-53.9,32-78,32-78l18-4l12-1L88.5,4.9z"/>
	<path class="st1" d="M90.1,93.2c1.1,0.3,2.3,0.2,3.4,0c1.5-0.3,2.8-1.3,3-3s-0.6-2.8-2.2-3.6c-2.9-1.4-6.3-0.4-9.2-1.9
		c-1.5-0.8-3.3-0.8-4.6-0.3c-2.5,0.9-5,0.8-7.5,1.1c-4.3,0.5-8.7,0.7-13.4,1c4-5.6,7.4-10.8,10.8-16.1c3.3-5.2,6.9-10.1,10.5-15.1
		c4.3-6,7.6-12.1,5.4-20.1c-0.9-3.5-2.4-6.3-5.7-7.9c-2.3-1.1-4.6-1.7-7.1-2.1c-5.6-0.9-10.2,0.3-14,4.8c-1.3,1.5-2.1,3.2-3.2,4.7
		c-2.9,4.3-4.7,9.2-6.6,13.9c-1,2.4,0.3,4.4,3.1,5.3c2.5,0.8,4.1-0.1,4.5-2.8c0.8-4.7,2.6-8.8,4.8-12.9c1.8-3.3,4-6.2,7.8-7.2
		c4.2-1.1,8.8,1,9.6,4.8c0.4,1.7,0.3,3.6,0,5.4c-0.8,5.5-4,9.7-7.2,13.8c-5.8,7.4-10.7,15.4-15.9,23.2c-2.4,3.6-4.6,7.2-8.7,9.1
		c-1.7,0.8-2,2.7-0.7,4.1c1.5,1.7,3.4,2.6,5.7,2.1c4.5-1.1,9.1-1.4,13.7-1.8C74.3,91.3,82.2,91,90.1,93.2z"/>
</g>
</svg>
