<?xml version="1.0" encoding="utf-8"?>
<!-- Generator: Adobe Illustrator 22.1.0, SVG Export Plug-In . SVG Version: 6.00 Build 0)  -->
<svg version="1.1" id="Capa_1" xmlns="http://www.w3.org/2000/svg" xmlns:xlink="http://www.w3.org/1999/xlink" x="0px" y="0px"
	 viewBox="0 0 157.4 128.7" style="enable-background:new 0 0 157.4 128.7;" xml:space="preserve">
<style type="text/css">
	.st0{fill:#64B2AE;}
	.st1{fill:#FFFFFF;}
</style>
<g id="_x31_">
	<path class="st0" d="M70.3,5.1c10,5,22.8,7,32,11c39,17,49.7,49.8,36,73c-13,22-37,35-37,35l-37-3l-49-40l-14-30l11-26l19-15l29-5
		C60.3,5.1,70.3,5.1,70.3,5.1z"/>
	<path class="st0" d="M137.6,104.6c-11,9.1-22.9,17-36.6,21.5c-10.2,3.4-20.7,3.2-31.2,1.1c-3.6-0.7-6.9-2.2-10-4
		c-6.8-3.9-13.3-8.4-19.4-13.3c-1.6-1.3-2.7-2.5-1.6-4.7c0.8-1.7-0.2-2.5-1.5-3.1c-3.2-1.4-6-3.4-8.9-5.2
		c-5.6-3.3-10.7-7.3-14.9-12.5c-5.7-7-9.7-14.8-12.2-23.5c-1.9-6.9-1.8-14,0.4-20.5c5.8-17,16.7-29.6,33.8-36
		c6.7-2.5,13.7-3.9,21-4.2c11.6-0.5,23.1-0.1,34.6,2c5.2,0.9,9.9,3.1,14.7,4.9c8.9,3.3,17.2,7.9,25,13.2c9.1,6.2,16.1,14.3,21.2,24
		c9.5,18.2,6.2,42.3-10.6,56.8C140.2,102.3,138.9,103.4,137.6,104.6z M138.4,37c-2.4-2.5-6.3-6.3-10.9-9.6
		c-10.5-7.5-22.1-12.8-34.4-16.5c-15.3-4.6-31-4.8-46.6-2.4C31.3,10.8,19.1,18,10.9,31.1c-4.6,7.4-7,15.5-5.1,24.4
		c2,9.4,6.4,17.7,12.6,25c6,7,12.6,13.4,21.2,17.3c1.9,0.9,1.6,3,3.6,3.6c1.8,0.5,3.3,1.6,5,2.5c0.5,0.3,1,0.7,0.8,1.2
		c-0.5,1.3,0.6,1.6,1.3,2.1c4.2,3.7,8.9,6.8,13.9,9.3c8,3.9,16.6,4.7,25.3,4.3c7.6-0.4,14.4-3.3,21.2-6.7
		c11.8-6,22.9-12.9,32.1-22.7c8.6-9.2,10.4-20.1,8-31.9C149.2,51.6,145.2,44.7,138.4,37z"/>
	<path class="st1" d="M70.9,58.4c1.5-2.7,3.3-5.3,5.1-8.3c0.1,1,0.2,1.8,0.1,2.4c-1.1,6.3-1,12.7-1.3,19c-0.2,5.1-1,10.2-0.6,15.3
		c0,0.6-0.1,1.1-0.4,1.6c-2.5,4.1-0.3,6.8,2.2,8.8c1.4,1.1,3.2,0.8,4.6,0.1c1.5-0.8,2.7-1.7,3-3.9c0.2-2.2-1.1-3.8-1.1-5.8
		c0.1-3.4,0-6.7,0-10.1c0-2.4,0.9-4.8,0.4-7.2c-0.4-1.7-0.2-3.4-0.1-5.1c0.3-5.7,0.9-11.5,1.1-17.2c0.1-5.1,0.5-10.1,2-15
		c0.8-2.7-0.8-5.3-3.5-6c-3.1-0.8-5.1,0.3-6,3.3c-0.4,1.3-0.3,2.6-0.8,3.9c-2.3,5-4.7,10-7.5,14.7c-0.8,1.4-1.8,2.7-3.3,3.8
		c-1.2,0.9-2.8,2.5-2.1,4.6c0.6,1.7,2,2.5,3.7,2.7C68.2,60.2,69.8,60.4,70.9,58.4z"/>
</g>
</svg>
