<?xml version="1.0" encoding="utf-8"?>
<!-- Generator: Adobe Illustrator 26.5.2, SVG Export Plug-In . SVG Version: 6.00 Build 0)  -->
<svg version="1.1" id="Capa_1" xmlns="http://www.w3.org/2000/svg" xmlns:xlink="http://www.w3.org/1999/xlink" x="0px" y="0px"
	 viewBox="0 0 1080 1080" style="enable-background:new 0 0 1080 1080;" xml:space="preserve">
<style type="text/css">
	.st0{fill:#D89E68;}
	.st1{fill:#45775D;}
	.st2{fill:#5B997A;}
	.st3{fill:none;stroke:#5B997A;stroke-width:0.4252;stroke-linecap:round;stroke-linejoin:round;stroke-miterlimit:10;}
	.st4{fill:none;stroke:#5B997A;stroke-width:0.4458;stroke-linecap:round;stroke-linejoin:round;stroke-miterlimit:10;}
	.st5{fill:#EABA8B;}
	.st6{fill:#E9A32C;}
	.st7{fill:#FDF8EE;}
	.st8{fill:none;stroke:#5B997A;stroke-width:0.404;stroke-linecap:round;stroke-linejoin:round;stroke-miterlimit:10;}
	.st9{fill:none;stroke:#5B997A;stroke-width:0.4236;stroke-linecap:round;stroke-linejoin:round;stroke-miterlimit:10;}
	.st10{fill:#FAF3E8;}
	.st11{fill:#FCCDAC;}
	.st12{fill:#FFFFFF;}
	.st13{fill:#5D9D9A;}
	.st14{fill:#467C75;}
	.st15{fill:#222222;}
	.st16{fill:#F1A74A;}
	.st17{fill:#333333;}
	.st18{fill:none;}
	.st19{fill:#D38013;}
	.st20{fill:#6D5235;}
	.st21{fill:#365B56;}
	.st22{fill:#97623E;}
	.st23{fill:#AF754E;}
	.st24{fill:#F9E6D2;}
	.st25{fill:#CDC0D5;}
	.st26{fill:#3C6850;}
	.st27{fill:#4B7760;}
	.st28{fill:#FFEAB0;}
	.st29{fill:#EAA42C;}
	.st30{fill:#D48112;}
	.st31{fill:#6E5336;}
	.st32{fill:#385C57;}
	.st33{fill:#BB8A69;}
	.st34{clip-path:url(#SVGID_00000166648505848758472170000007690669312209767818_);}
	.st35{fill:none;stroke:#5B997A;stroke-width:3.1441;stroke-miterlimit:10;}
	.st36{fill:none;stroke:#385C57;stroke-width:2.9048;stroke-miterlimit:10;}
	.st37{clip-path:url(#SVGID_00000076576946985492549810000017930382824755427477_);}
	.st38{fill:none;stroke:#5B997A;stroke-width:0.8275;stroke-miterlimit:10;}
	.st39{fill:none;stroke:#385C57;stroke-width:0.7646;stroke-miterlimit:10;}
	.st40{clip-path:url(#SVGID_00000149354386326047555840000002281618633703563436_);}
	.st41{fill:none;stroke:#5B997A;stroke-width:0.8274;stroke-miterlimit:10;}
	.st42{fill:none;stroke:#385C57;stroke-width:0.7645;stroke-miterlimit:10;}
	.st43{fill:none;stroke:#333333;stroke-width:0.9031;stroke-linecap:round;stroke-miterlimit:10;}
	.st44{filter:url(#Adobe_OpacityMaskFilter);}
	.st45{mask:url(#SVGID_00000054956422164722102540000006657279922275388332_);fill:#C0DAD8;}
	.st46{fill:#EFA53A;}
	.st47{fill:#C0DAD8;}
	.st48{fill:none;stroke:#B3BDBC;stroke-width:1.5735;stroke-linecap:round;stroke-miterlimit:10;}
	.st49{fill:#B3BDBC;}
	.st50{fill:#9DAAA9;}
	.st51{filter:url(#Adobe_OpacityMaskFilter_00000087370943891324639780000005161540277917451186_);}
	.st52{mask:url(#SVGID_00000001654664912983186190000009837632753592843184_);}
	.st53{clip-path:url(#SVGID_00000115485813107905388050000017252884961203471037_);}
	.st54{fill:none;stroke:#5B997A;stroke-width:3.0116;stroke-miterlimit:10;}
	.st55{fill:none;stroke:#385C57;stroke-width:2.7824;stroke-miterlimit:10;}
	.st56{fill:none;stroke:#333333;stroke-width:3.2869;stroke-linecap:round;stroke-miterlimit:10;}
	.st57{filter:url(#Adobe_OpacityMaskFilter_00000101784476491551068380000016381953863039134615_);}
	.st58{mask:url(#SVGID_00000042702682979424203820000004996066124560534164_);fill:#C0DAD8;}
	.st59{fill:none;stroke:#B3BDBC;stroke-width:5.7271;stroke-linecap:round;stroke-miterlimit:10;}
</style>
<g>
	<g>
		<path class="st17" d="M814.6,1060.4c0.1,0,0.1-0.1,0-0.1C814.6,1060.3,814.6,1060.4,814.6,1060.4L814.6,1060.4z"/>
	</g>
</g>
<g>
	<g>
		<g>
			<path class="st25" d="M637.1,741c88.6-38,67.5-98.2,69.2-166.5c1.5-60.8,5.1-77.4,0.9-120.3C687,249.8,529.8,274.3,462.2,303.5
				S298.1,415.4,404,585.1c0,0,91.5,153.1,185.4,164.8C601.3,751.4,614.2,750.8,637.1,741z"/>
		</g>
	</g>
	<g>
		<path class="st26" d="M738.8,535.8c0,0,0.4-113.2-84.2-187.2s-152.5-56.6-169.1-53.9c0,0,2.1,69.8,69.6,151.8
			S738.8,535.8,738.8,535.8z"/>
	</g>
	<g>
		<path class="st18" d="M738.8,535.8c0,0,0.4-113.2-84.2-187.2s-152.5-56.6-169.1-53.9c0,0,2.1,69.8,69.6,151.8
			S738.8,535.8,738.8,535.8z"/>
	</g>
	<path class="st2" d="M485.6,294.8L730.9,535c2.3,0.3,4.1,0.5,5.5,0.6L489.7,294.1C488.1,294.4,486.7,294.6,485.6,294.8z"/>
	<path class="st2" d="M627.9,503.8l13.6-59.9l-3.3-0.8l-13.4,59.1C625.8,502.7,626.9,503.3,627.9,503.8z"/>
	<path class="st2" d="M649.8,513.8l11.6-51.3l-3.3-0.8l-11.5,50.7C647.7,512.9,648.8,513.4,649.8,513.8z"/>
	<g>
		<g>
			<path class="st27" d="M113.3,413.6C93.2,377.2,90,361.2,68.2,306.8c-24.5-61.1-65-105.2-2.2-173.7
				c73.3-79.9,94.1-10.7,156.5,10.2c55.5,18.7,71.7,20.9,109.2,38.9c178.5,85.6,104.5,219.9,55.7,271.5S209,586.9,113.3,413.6z"/>
		</g>
		<g>
			<path class="st28" d="M135.4,386.6c-20.1-34.7-35.7-56.8-58.1-108.3c-25.2-57.9-57.9-91.9-3.9-147.2
				c52.2-57.1,82.3-30.4,141.5-8.6c52.8,19.4,81.3,37.7,117.1,55.8c170.5,86.3,105.9,209.1,62,255.6S231.3,551.9,135.4,386.6z"/>
		</g>
		<g>
			<circle class="st29" cx="279" cy="316.1" r="84.1"/>
		</g>
	</g>
	<g>
		<g>
			<g>
				
					<ellipse transform="matrix(1.077153e-02 -0.9999 0.9999 1.077153e-02 207.2769 1391.897)" class="st6" cx="807.1" cy="591.2" rx="132.7" ry="139.5"/>
			</g>
		</g>
		<g>
			<g>
				
					<ellipse transform="matrix(1.077153e-02 -0.9999 0.9999 1.077153e-02 231.0388 1240.9048)" class="st30" cx="742.7" cy="503.7" rx="4.6" ry="4.8"/>
			</g>
		</g>
		<g>
			<g>
				
					<ellipse transform="matrix(1.077153e-02 -0.9999 0.9999 1.077153e-02 181.2663 1229.9325)" class="st30" cx="712.3" cy="523.4" rx="4.6" ry="4.8"/>
			</g>
		</g>
		<g>
			<g>
				
					<ellipse transform="matrix(1.077153e-02 -0.9999 0.9999 1.077153e-02 199.5226 1269.1094)" class="st30" cx="741.2" cy="533.7" rx="4.6" ry="4.8"/>
			</g>
		</g>
		<g>
			<g>
				
					<ellipse transform="matrix(1.077153e-02 -0.9999 0.9999 1.077153e-02 251.9901 1285.8649)" class="st30" cx="775.9" cy="515.6" rx="4.6" ry="4.8"/>
			</g>
		</g>
		<g>
			<g>
				
					<ellipse transform="matrix(1.077153e-02 -0.9999 0.9999 1.077153e-02 218.6147 1310.0798)" class="st30" cx="771.4" cy="544.5" rx="4.6" ry="4.8"/>
			</g>
		</g>
		<g>
			<g>
				
					<ellipse transform="matrix(1.077153e-02 -0.9999 0.9999 1.077153e-02 130.178 1244.7921)" class="st30" cx="694.2" cy="556.6" rx="4.6" ry="4.8"/>
			</g>
		</g>
		<g>
			<g>
				
					<ellipse transform="matrix(1.077153e-02 -0.9999 0.9999 1.077153e-02 151.2549 1290.0219)" class="st30" cx="727.6" cy="568.6" rx="4.6" ry="4.8"/>
			</g>
		</g>
		<g>
			<g>
				
					<ellipse transform="matrix(1.077153e-02 -0.9999 0.9999 1.077153e-02 95.2679 1281.7421)" class="st30" cx="695.4" cy="592.7" rx="4.6" ry="4.8"/>
			</g>
		</g>
		<g>
			<g>
				<path class="st31" d="M844.6,477.9c-0.6-0.6-1.1-1.2-1.4-1.8c-0.4-0.8-0.4-1.6-0.1-2.2c1.1-2.7,6.1-2.5,10.4-1
					c3.5,1.2,6.2,3.2,7.1,5.1c0.4,0.8,0.4,1.6,0.1,2.2c-1.1,2.7-6.1,2.5-10.4,1C847.9,480.4,845.9,479.2,844.6,477.9z M858,477.5
					c-1-1-2.7-2.1-5-2.9c-4.4-1.6-7.7-1.1-8.1,0c-0.1,0.2-0.1,0.5,0.1,0.8c0.5,1.2,2.6,3,6,4.2c4.4,1.6,7.7,1.1,8.1,0l0,0
					c0.1-0.2,0.1-0.5-0.1-0.8C858.8,478.3,858.4,477.9,858,477.5z"/>
			</g>
		</g>
	</g>
	<g>
		
			<rect x="828.3" y="440.3" transform="matrix(0.3832 -0.9237 0.9237 0.3832 126.3045 1072.7904)" class="st32" width="76.2" height="3.1"/>
	</g>
	<g>
		<path class="st26" d="M878.7,406.7c0,0,101.4,12.9,101.7,128.1C980.4,534.7,873.3,538.4,878.7,406.7z"/>
	</g>
	<g>
		<path class="st18" d="M878.7,406.7c0,0,101.4,12.9,101.7,128.1C980.4,534.7,873.3,538.4,878.7,406.7z"/>
	</g>
	<g>
		
			<rect x="611.5" y="585.3" transform="matrix(-1 -3.907509e-11 3.907509e-11 -1 1581.052 1591.5992)" class="st23" width="358" height="421"/>
	</g>
	<g>
		<polygon class="st33" points="607,585.3 682.8,696.5 1080,696.5 981.4,585.3 		"/>
	</g>
	<g>
		<polygon class="st23" points="114.7,585.3 0,698.6 112.2,704.6 		"/>
	</g>
	<g>
		<path class="st18" d="M878.7,406.7c0,0,101.4,12.9,101.7,128.1C980.4,534.7,873.3,538.4,878.7,406.7z"/>
	</g>
	<g>
		<polygon class="st33" points="104.6,1000.5 611.5,1006.3 611.5,585.3 114.7,585.3 		"/>
	</g>
	<g>
		<path class="st6" d="M891.2,97.5c0,0-43-10.8-57.1,45.4c14.9-59.4-29-66.6-29-66.6s-48.5-19.6-63.7,47
			c-15.8,69.6,63.4,131.2,63.4,131.2s102.9-16.9,121.1-86C943.3,102.5,891.2,97.5,891.2,97.5z"/>
	</g>
	<g>
		<circle class="st6" cx="705.9" cy="780" r="33.6"/>
	</g>
	<g>
		<circle class="st6" cx="892.6" cy="780" r="33.6"/>
	</g>
</g>
</svg>
