<?xml version="1.0" encoding="utf-8"?>
<!-- Generator: Adobe Illustrator 26.5.2, SVG Export Plug-In . SVG Version: 6.00 Build 0)  -->
<svg version="1.1" id="Capa_1" xmlns="http://www.w3.org/2000/svg" xmlns:xlink="http://www.w3.org/1999/xlink" x="0px" y="0px"
	 viewBox="0 0 1080 1080" style="enable-background:new 0 0 1080 1080;" xml:space="preserve">
<style type="text/css">
	.st0{fill:#D89E68;}
	.st1{fill:#45775D;}
	.st2{fill:#5B997A;}
	.st3{fill:none;stroke:#5B997A;stroke-width:0.4252;stroke-linecap:round;stroke-linejoin:round;stroke-miterlimit:10;}
	.st4{fill:none;stroke:#5B997A;stroke-width:0.4458;stroke-linecap:round;stroke-linejoin:round;stroke-miterlimit:10;}
	.st5{fill:#EABA8B;}
	.st6{fill:#E9A32C;}
	.st7{fill:#FDF8EE;}
	.st8{fill:none;stroke:#5B997A;stroke-width:0.404;stroke-linecap:round;stroke-linejoin:round;stroke-miterlimit:10;}
	.st9{fill:none;stroke:#5B997A;stroke-width:0.4236;stroke-linecap:round;stroke-linejoin:round;stroke-miterlimit:10;}
	.st10{fill:#FAF3E8;}
	.st11{fill:#FCCDAC;}
	.st12{fill:#FFFFFF;}
	.st13{fill:#5D9D9A;}
	.st14{fill:#467C75;}
	.st15{fill:#222222;}
	.st16{fill:#F1A74A;}
	.st17{fill:#333333;}
	.st18{fill:none;}
	.st19{fill:#D38013;}
	.st20{fill:#6D5235;}
	.st21{fill:#365B56;}
	.st22{fill:#97623E;}
	.st23{fill:#AF754E;}
	.st24{fill:#F9E6D2;}
	.st25{fill:#CDC0D5;}
	.st26{fill:#3C6850;}
	.st27{fill:#4B7760;}
	.st28{fill:#FFEAB0;}
	.st29{fill:#EAA42C;}
	.st30{fill:#D48112;}
	.st31{fill:#6E5336;}
	.st32{fill:#385C57;}
	.st33{fill:#BB8A69;}
	.st34{clip-path:url(#SVGID_00000030458185268245449360000009781126743953180067_);}
	.st35{fill:none;stroke:#5B997A;stroke-width:3.1441;stroke-miterlimit:10;}
	.st36{fill:none;stroke:#385C57;stroke-width:2.9048;stroke-miterlimit:10;}
	.st37{clip-path:url(#SVGID_00000010297511494290105470000014415555016731116928_);}
	.st38{fill:none;stroke:#5B997A;stroke-width:0.8275;stroke-miterlimit:10;}
	.st39{fill:none;stroke:#385C57;stroke-width:0.7646;stroke-miterlimit:10;}
	.st40{clip-path:url(#SVGID_00000054248559180470526490000005989143272325494182_);}
	.st41{fill:none;stroke:#5B997A;stroke-width:0.8274;stroke-miterlimit:10;}
	.st42{fill:none;stroke:#385C57;stroke-width:0.7645;stroke-miterlimit:10;}
	.st43{fill:none;stroke:#333333;stroke-width:0.9031;stroke-linecap:round;stroke-miterlimit:10;}
	.st44{filter:url(#Adobe_OpacityMaskFilter);}
	.st45{mask:url(#SVGID_00000091737791398657354240000000417099383904886949_);fill:#C0DAD8;}
	.st46{fill:#EFA53A;}
	.st47{fill:#C0DAD8;}
	.st48{fill:none;stroke:#B3BDBC;stroke-width:1.5735;stroke-linecap:round;stroke-miterlimit:10;}
	.st49{fill:#B3BDBC;}
	.st50{fill:#9DAAA9;}
	.st51{filter:url(#Adobe_OpacityMaskFilter_00000170998478607825689340000004589419484436997789_);}
	.st52{mask:url(#SVGID_00000091015028169980752520000003599208822670258111_);}
	.st53{clip-path:url(#SVGID_00000160183664066829448910000017393928959918692770_);}
	.st54{fill:none;stroke:#5B997A;stroke-width:3.0116;stroke-miterlimit:10;}
	.st55{fill:none;stroke:#385C57;stroke-width:2.7824;stroke-miterlimit:10;}
	.st56{fill:none;stroke:#333333;stroke-width:3.2869;stroke-linecap:round;stroke-miterlimit:10;}
	.st57{filter:url(#Adobe_OpacityMaskFilter_00000057842358506229433050000017208001367366325656_);}
	.st58{mask:url(#SVGID_00000160880142714709142870000017806879628174512778_);fill:#C0DAD8;}
	.st59{fill:none;stroke:#B3BDBC;stroke-width:5.7271;stroke-linecap:round;stroke-miterlimit:10;}
</style>
<g>
	<g>
		<g>
			<g>
				<path class="st25" d="M616.3,557.4c82.2-35.3,62.6-91,64.2-154.4c1.4-56.4,4.7-71.8,0.8-111.6
					C662.6,101.7,516.7,124.5,454,151.6s-152.2,103.8-54,261.2c0,0,84.9,142,172,152.9C583,567.1,595,566.5,616.3,557.4z"/>
			</g>
		</g>
		<g>
			<path class="st26" d="M710.6,367.1c0,0,0.4-105-78.1-173.6s-141.4-52.5-156.9-50c0,0,2,64.7,64.5,140.8
				C602.8,360.4,710.6,367.1,710.6,367.1z"/>
		</g>
		<g>
			<path class="st18" d="M710.6,367.1c0,0,0.4-105-78.1-173.6s-141.4-52.5-156.9-50c0,0,2,64.7,64.5,140.8
				C602.8,360.4,710.6,367.1,710.6,367.1z"/>
		</g>
		<path class="st2" d="M475.7,143.5l227.6,222.8c2.1,0.3,3.8,0.4,5.1,0.5L479.5,142.8C478.1,143.1,476.8,143.3,475.7,143.5z"/>
		<path class="st2" d="M607.7,337.4l12.6-55.6l-3.1-0.7l-12.4,54.8C605.8,336.4,606.8,336.9,607.7,337.4z"/>
		<path class="st2" d="M628.1,346.7l10.8-47.6l-3.1-0.7l-10.7,47.1C626.1,345.9,627.1,346.3,628.1,346.7z"/>
	</g>
	<g>
		<g>
			<path class="st27" d="M173.7,491.4c-18.8-34.1-21.8-49.1-42.2-99.9c-22.9-57.2-60.8-98.4-2-162.5c68.6-74.7,88.1-10,146.4,9.6
				c51.9,17.5,67.1,19.6,102.2,36.4c167,80.1,97.7,205.7,52.1,254S263.2,653.6,173.7,491.4z"/>
		</g>
		<g>
			<path class="st28" d="M194.4,466.1C175.5,433.6,161,413,140,364.8c-23.6-54.2-54.2-85.9-3.6-137.8c48.8-53.4,77-28.4,132.4-8
				c49.4,18.2,76.1,35.3,109.6,52.3c159.5,80.8,99,195.7,58,239.1S284.1,620.8,194.4,466.1z"/>
		</g>
		<g>
			<circle class="st29" cx="328.7" cy="400.2" r="78.7"/>
		</g>
	</g>
	<g>
		<g>
			<g>
				
					<ellipse transform="matrix(1.077153e-02 -0.9999 0.9999 1.077153e-02 341.403 1178.5807)" class="st6" cx="766.4" cy="416.7" rx="120.7" ry="126.8"/>
			</g>
		</g>
		<g>
			<g>
				
					<ellipse transform="matrix(1.077153e-02 -0.9999 0.9999 1.077153e-02 363.0082 1041.293)" class="st30" cx="707.8" cy="337.2" rx="4.2" ry="4.3"/>
			</g>
		</g>
		<g>
			<g>
				
					<ellipse transform="matrix(1.077153e-02 -0.9999 0.9999 1.077153e-02 317.7532 1031.3165)" class="st30" cx="680.1" cy="355.1" rx="4.2" ry="4.3"/>
			</g>
		</g>
		<g>
			<g>
				
					<ellipse transform="matrix(1.077153e-02 -0.9999 0.9999 1.077153e-02 334.3524 1066.9376)" class="st30" cx="706.4" cy="364.5" rx="4.2" ry="4.3"/>
			</g>
		</g>
		<g>
			<g>
				
					<ellipse transform="matrix(1.077153e-02 -0.9999 0.9999 1.077153e-02 382.0579 1082.1724)" class="st30" cx="738" cy="348" rx="4.2" ry="4.3"/>
			</g>
		</g>
		<g>
			<g>
				
					<ellipse transform="matrix(1.077153e-02 -0.9999 0.9999 1.077153e-02 351.7117 1104.1895)" class="st30" cx="733.9" cy="374.3" rx="4.2" ry="4.3"/>
			</g>
		</g>
		<g>
			<g>
				
					<ellipse transform="matrix(1.077153e-02 -0.9999 0.9999 1.077153e-02 271.3018 1044.8275)" class="st30" cx="663.7" cy="385.3" rx="4.2" ry="4.3"/>
			</g>
		</g>
		<g>
			<g>
				
					<ellipse transform="matrix(1.077153e-02 -0.9999 0.9999 1.077153e-02 290.4656 1085.952)" class="st30" cx="694.1" cy="396.2" rx="4.2" ry="4.3"/>
			</g>
		</g>
		<g>
			<g>
				
					<ellipse transform="matrix(1.077153e-02 -0.9999 0.9999 1.077153e-02 239.5603 1078.4237)" class="st30" cx="664.8" cy="418.1" rx="4.2" ry="4.3"/>
			</g>
		</g>
		<g>
			<g>
				<path class="st31" d="M800.5,313.8c-0.6-0.5-1-1.1-1.2-1.7c-0.3-0.7-0.4-1.4-0.1-2c1-2.5,5.6-2.3,9.5-0.9
					c3.2,1.1,5.6,2.9,6.4,4.7c0.3,0.7,0.4,1.4,0.1,2c-1,2.5-5.6,2.3-9.5,0.9C803.5,316,801.7,314.9,800.5,313.8z M812.6,313.3
					c-0.9-0.9-2.5-1.9-4.6-2.6c-4-1.4-7-1-7.4,0c-0.1,0.2,0,0.5,0.1,0.8c0.5,1.1,2.4,2.7,5.5,3.8c4,1.4,7,1,7.4,0l0,0
					c0.1-0.2,0-0.5-0.1-0.8C813.3,314.1,813,313.7,812.6,313.3z"/>
			</g>
		</g>
	</g>
	<g>
		
			<rect x="785.6" y="279.5" transform="matrix(0.3832 -0.9237 0.9237 0.3832 246.4353 930.9183)" class="st32" width="69.2" height="2.9"/>
	</g>
	<g>
		<path class="st26" d="M831.4,249c0,0,92.2,11.8,92.5,116.5C923.9,365.4,826.5,368.7,831.4,249z"/>
	</g>
	<g>
		<path class="st18" d="M831.4,249c0,0,92.2,11.8,92.5,116.5C923.9,365.4,826.5,368.7,831.4,249z"/>
	</g>
	<g>
		<g>
			<path class="st17" d="M794.1,895.6c0.1,0,0.1-0.1,0-0.1C794,895.5,794,895.6,794.1,895.6L794.1,895.6z"/>
		</g>
	</g>
	<g>
		<path class="st17" d="M875.2,946.4c-12.4,0-24.1-4.7-33-13.3c-9.2-8.8-14.4-20.7-14.7-33.5c-0.5-26.3,20.4-48.2,46.7-48.7
			c12.8-0.3,24.8,4.5,34,13.3c9.2,8.8,14.4,20.7,14.7,33.5c0.3,12.8-4.5,24.8-13.3,34c-8.8,9.2-20.7,14.4-33.5,14.7
			C875.8,946.4,875.5,946.4,875.2,946.4z M874.2,852.6l0,1.7c-24.5,0.5-43.9,20.8-43.4,45.3c0.2,11.9,5.1,22.9,13.6,31.1
			c8.3,8,19.2,12.3,30.7,12.3c0.3,0,0.6,0,1,0c11.9-0.2,22.9-5.1,31.1-13.6c8.2-8.6,12.6-19.8,12.3-31.6
			c-0.5-24.1-20.3-43.4-44.4-43.4c-0.3,0-0.6,0-0.9,0L874.2,852.6z"/>
	</g>
	<g>
		
			<rect x="588.5" y="411.4" transform="matrix(-1 -4.502100e-11 4.502100e-11 -1 1502.5645 1263.9391)" class="st23" width="325.5" height="441.2"/>
	</g>
	<g>
		<polyline class="st10" points="978.8,568.2 1008.1,723.7 1008.1,913 715.9,913 737.9,726.1 719.1,565.4 978.8,568.2 		"/>
	</g>
	<g>
		<path class="st12" d="M721.5,568.9l0.6,335c0,5.1,4.1,9.1,9.1,9.1"/>
	</g>
	<g id="XMLID_00000030445411085076925490000013394479563156754359_">
		<polygon class="st10" points="655.8,913 727.9,913 742.5,727.3 724.3,565.5 657.7,568.5 		"/>
	</g>
	<g>
		<g>
			<path class="st17" d="M728,787.6c0.4,0,0.4-0.7,0-0.7C727.6,786.9,727.6,787.6,728,787.6L728,787.6z"/>
		</g>
	</g>
	<defs>
		<filter id="Adobe_OpacityMaskFilter" filterUnits="userSpaceOnUse" x="742.4" y="594.2" width="243.5" height="129.5">
			
				<feColorMatrix  type="matrix" values="-1 0 0 0 1  0 -1 0 0 1  0 0 -1 0 1  0 0 0 1 0" color-interpolation-filters="sRGB" result="source"/>
			<feFlood  style="flood-color:white;flood-opacity:1" result="back"/>
			<feBlend  in="source" in2="back" mode="normal"/>
		</filter>
	</defs>
	
		<mask maskUnits="userSpaceOnUse" x="742.4" y="594.2" width="243.5" height="129.5" id="SVGID_00000129181624725539279800000001588984139365379252_">
	</mask>
	<g style="mask:url(#SVGID_00000129181624725539279800000001588984139365379252_);">
		<polygon class="st47" points="758,723.7 985.9,723.7 963.2,594.2 742.4,594.2 		"/>
	</g>
	<g>
		<circle class="st46" cx="762.1" cy="839.9" r="19.6"/>
	</g>
	<g>
		<polygon class="st47" points="730.7,723.7 715.9,594.2 667.8,594.2 665.6,723.7 		"/>
	</g>
	<g>
		<path class="st49" d="M717.8,740.1c-2.8,0-9-0.5-13.8-4.7c-3.7-3.2-5.6-7.8-5.9-13.7c-0.2-4.2-1.5-7.4-3.9-9.4
			c-4.5-3.8-11.7-2.8-11.8-2.8c-1.6,0.2-3.1-0.9-3.3-2.5c-0.2-1.6,0.9-3.1,2.5-3.3c0.4-0.1,9.8-1.4,16.4,4.1c3.8,3.1,5.8,7.8,6,13.7
			c0.2,4.2,1.5,7.4,3.9,9.5c4.2,3.7,10.7,3.2,10.7,3.2c1.6-0.1,3.1,1,3.2,2.7c0.1,1.6-1,3.1-2.7,3.2
			C719.1,740,718.6,740.1,717.8,740.1z"/>
	</g>
	<g>
		<path class="st49" d="M677.2,740.6h2.5c6.4,0,11.6-5.2,11.6-11.6v-40.9c0-6.4-5.2-11.6-11.6-11.6h-2.5c-6.4,0-11.6,5.2-11.6,11.6
			V729C665.6,735.4,670.8,740.6,677.2,740.6z"/>
	</g>
	<g>
		
			<rect x="727.9" y="868.4" transform="matrix(-1 -4.490953e-11 4.490953e-11 -1 1736.0175 1781.3903)" class="st49" width="280.2" height="44.7"/>
	</g>
	<g>
		
			<rect x="655.8" y="868.4" transform="matrix(-1 -4.458179e-11 4.458179e-11 -1 1384.3577 1781.3903)" class="st50" width="72.8" height="44.7"/>
	</g>
	<g>
		<polygon class="st18" points="758,723.7 985.9,723.7 963.2,594.2 742.4,594.2 		"/>
	</g>
	<g>
		<circle class="st46" cx="979.3" cy="839.9" r="19.6"/>
	</g>
	<g>
		<line class="st18" x1="499.4" y1="606" x2="1080" y2="606"/>
	</g>
	<g>
		<polygon class="st33" points="584.4,411.4 653.3,512.5 1014.5,512.5 924.9,411.4 		"/>
	</g>
	<g>
		<polygon class="st23" points="136.8,411.4 0,512.6 130.9,518 		"/>
	</g>
	<g>
		<defs>
			<path id="SVGID_00000112602807468603950630000015773023722722634118_" d="M831.4,249c0,0,92.2,11.8,92.5,116.5
				C923.9,365.4,826.5,368.7,831.4,249z"/>
		</defs>
		<clipPath id="SVGID_00000136373779494559031440000014315309834525666446_">
			<use xlink:href="#SVGID_00000112602807468603950630000015773023722722634118_"  style="overflow:visible;"/>
		</clipPath>
	</g>
	<g>
		<polygon class="st33" points="107.2,897.7 588.5,897.7 588.5,411.4 136.8,411.4 		"/>
	</g>
	<g>
		
			<rect x="100.7" y="852.6" transform="matrix(-1 -4.490243e-11 4.490243e-11 -1 756.7184 1751.304)" class="st49" width="555.3" height="46.2"/>
	</g>
	<g>
		<path class="st17" d="M533.5,946.4c-12.4,0-24.1-4.7-33-13.3c-9.2-8.8-14.4-20.7-14.7-33.5c-0.3-12.8,4.5-24.8,13.3-34
			c8.8-9.2,20.7-14.4,33.5-14.7l0,1.7l0-1.7c26.3-0.5,48.2,20.4,48.7,46.7c0.3,12.8-4.5,24.8-13.3,34c-8.8,9.2-20.7,14.4-33.5,14.7
			C534.2,946.4,533.8,946.4,533.5,946.4z M533.5,854.2c-0.3,0-0.6,0-0.9,0c-24.5,0.5-43.9,20.8-43.4,45.3
			c0.2,11.9,5.1,22.9,13.6,31.1c8.6,8.2,19.8,12.6,31.6,12.3c11.9-0.2,22.9-5.1,31.1-13.6c8.2-8.6,12.6-19.8,12.3-31.6
			C577.4,873.5,557.6,854.2,533.5,854.2z"/>
	</g>
	<g>
		<path class="st17" d="M279,946.4c-12.4,0-24.1-4.7-33-13.3c-9.2-8.8-14.4-20.7-14.7-33.5c-0.5-26.3,20.4-48.2,46.7-48.7
			c12.7-0.3,24.8,4.5,34,13.3c9.2,8.8,14.4,20.7,14.7,33.5c0.3,12.8-4.5,24.8-13.3,34c-8.8,9.2-20.7,14.4-33.5,14.7
			C279.7,946.4,279.3,946.4,279,946.4z M278.1,852.6l0,1.7c-24.5,0.5-43.9,20.8-43.4,45.3c0.2,11.9,5.1,22.9,13.6,31.1
			c8.6,8.2,19.8,12.6,31.6,12.3c11.8-0.2,22.9-5.1,31.1-13.6c8.2-8.6,12.6-19.8,12.3-31.6c-0.5-24.1-20.3-43.4-44.4-43.4
			c-0.3,0-0.6,0-0.9,0L278.1,852.6z"/>
	</g>
	<g>
		<path class="st17" d="M164.3,946.4c-12.4,0-24.1-4.7-33-13.3c-9.2-8.8-14.4-20.7-14.7-33.5c-0.5-26.3,20.4-48.2,46.7-48.7
			c12.7-0.3,24.8,4.5,34,13.3c9.2,8.8,14.4,20.7,14.7,33.5c0.3,12.8-4.5,24.8-13.3,34c-8.8,9.2-20.7,14.4-33.5,14.7
			C165,946.4,164.6,946.4,164.3,946.4z M163.4,852.6l0,1.7c-24.5,0.5-43.9,20.8-43.4,45.3c0.2,11.9,5.1,22.9,13.6,31.1
			c8.3,8,19.2,12.3,30.7,12.3c0.3,0,0.6,0,0.9,0c11.8-0.2,22.9-5.1,31.1-13.6c8.2-8.6,12.6-19.8,12.3-31.6
			c-0.5-24.1-20.3-43.4-44.4-43.4c-0.3,0-0.6,0-0.9,0L163.4,852.6z"/>
	</g>
	<g>
		<path class="st17" d="M648.2,946.4c-12.4,0-24.1-4.7-33-13.3c-9.2-8.8-14.4-20.7-14.7-33.5c-0.3-12.8,4.5-24.8,13.3-34
			c8.8-9.2,20.7-14.4,33.5-14.7l0,1.7l0-1.7c12.8-0.3,24.8,4.5,34,13.3c9.2,8.8,14.4,20.7,14.7,33.5c0.3,12.8-4.5,24.8-13.3,34
			c-8.8,9.2-20.7,14.4-33.5,14.7C648.9,946.4,648.5,946.4,648.2,946.4z M648.2,854.2c-0.3,0-0.6,0-0.9,0
			c-11.9,0.2-22.9,5.1-31.1,13.6c-8.2,8.6-12.6,19.8-12.3,31.6c0.2,11.9,5.1,22.9,13.6,31.1c8.6,8.2,19.8,12.6,31.6,12.3
			c11.8-0.2,22.9-5.1,31.1-13.6c8.2-8.6,12.6-19.8,12.3-31.6c-0.2-11.9-5.1-22.9-13.6-31.1C670.6,858.6,659.7,854.2,648.2,854.2z"/>
	</g>
</g>
</svg>
