<?xml version="1.0" encoding="utf-8"?>
<!-- Generator: Adobe Illustrator 24.1.2, SVG Export Plug-In . SVG Version: 6.00 Build 0)  -->
<svg version="1.1" id="bird" xmlns="http://www.w3.org/2000/svg" xmlns:xlink="http://www.w3.org/1999/xlink" x="0px" y="0px"
	 viewBox="0 0 200 200" style="enable-background:new 0 0 200 200;" xml:space="preserve">
<style type="text/css">
	.st0{fill:#FAF3E8;}
	.st1{fill:#FFDAC6;}
	.st2{fill:#EAA42C;}
	.st3{fill:#5D9E9B;}
	.st4{fill:none;stroke:#468480;stroke-width:0.8926;stroke-linecap:round;stroke-linejoin:round;stroke-miterlimit:10;}
	.st5{fill:none;stroke:#333333;stroke-width:0.6187;stroke-linecap:round;stroke-miterlimit:10;}
	.st6{fill:none;stroke:#333333;stroke-width:0.5602;stroke-linecap:round;stroke-miterlimit:10;}
	.st7{fill:none;stroke:#333333;stroke-width:0.6972;stroke-linecap:round;stroke-miterlimit:10;}
	.st8{fill:#333333;}
	.st9{fill:none;stroke:#333333;stroke-width:2.0915;stroke-linecap:round;stroke-miterlimit:10;}
	.st10{fill:#FFDC6F;}
</style>
<g>
	<path class="st0" d="M139.1,183.6c-17.3-68.3-32.7-116.5-32.7-116.5c-31.6-8.3-51.9,0-51.9,0c-6.7,57.7-19.4,98.1-23.9,115.6"/>
	<path class="st1" d="M84.8,25.5c-5.6,28.2-11.1,39.6-11.1,39.6c11.4,10,22.9,6.4,22.9,6.4c2.1-8.4,5.3-8.3,8-8.8
		c13.1-2.6,13.3-33.8,13.3-33.8s-0.1-7.5-15.7-8.4C102.2,20.4,85.9,19.8,84.8,25.5z"/>
	<g>
		<g>
			<rect x="106.4" y="167.9" class="st2" width="23.4" height="20"/>
			<g>
				<g>
					<path class="st3" d="M160.8,114.7c-1.4,4.5-3.6,7.4-7.5,9c16.5-1.6,17.4,17.3,17.4,17.3c1.2,18.2-18.8,18-18.8,18
						c0.7,4.2,3.2,12.8-4.4,17.3c-12.5,7.4-20-2.2-20-2.2c-4.4,13.8-20.9,10.8-20.9,10.8c-16.2-2.1-15.8-16.3-15.8-16.3
						c-18.3,9-26.7-13.4-26.7-13.4c-5.9-20.1,7.4-24.3,7.4-24.3c-9.9-3.2-11.4-20.3-4.6-29.9c0,0,8.2-12.8,25.9-7.1
						c0,0-2.8-13.7,9.1-17.1c7.3-2.1,27-3.3,25.9,16.2c0,0,9.3-11.2,25.2-0.9C165.4,100,160.8,114.7,160.8,114.7z"/>
				</g>
			</g>
			<path class="st3" d="M145.9,176.2c-0.9,11.5,9.1,11.5,9.1,11.5S157.3,178,145.9,176.2z"/>
			<circle class="st2" cx="107" cy="153.2" r="9.8"/>
			<circle class="st2" cx="133" cy="121.3" r="9.8"/>
			<circle class="st2" cx="94.3" cy="116.7" r="9.8"/>
			<path class="st4" d="M150.7,108.7c0,0,2.2-2,0.7-4c-1.5-2-3.4-1.5-3.4-1.5s0.9-3-2.1-4.3c-2.8-1.2-4.7,0.9-4.7,0.9"/>
			<path class="st4" d="M72.5,143.5c0,0-1.8,2.6,0.7,5.4c0,0,2.3,2.2,5.2,0.4"/>
		</g>
		<path class="st3" d="M52.2,100.9c5,10.3,13.7,5.4,13.7,5.4S62.9,96.8,52.2,100.9z"/>
		<g>
			<path class="st1" d="M57.7,111.9c-39,57.5,16.5,63.3,16.5,63.3s7-4.5,12.6-9.4c3.3-2.8,4.3-3.2,5.7-1.9c1.1,1,0.3,3-1.3,5
				c-3.7,4.5-3.6,7.9,0.2,7.5c0,0,12.3-1.8,16.4-3.3c0,0,3.4-1.4,4.2,1.3c0.9,2.9-1.7,3.3-1.7,3.3s2.8-0.8,3.7,1.5
				c0,0,0.9,2.7-2.6,3.6l-0.8,0.3c2.8-0.7,3.2,1.7,3.2,1.7c0.6,3-2.6,3.6-2.6,3.6c2.2,3.3-2,4.6-2,4.6s-51.5,22-88-12.1
				c-9.5-8.8-20-25.6-9.7-54.3c13.1-36.3,16.5-36.2,16.5-36.2L57.7,111.9z"/>
			<path class="st5" d="M110.8,177.5c0,0-6.5,2.2-14.5,3.8"/>
			<path class="st6" d="M111.4,182.9c0,0-5.8,1.7-14.1,3.3"/>
			<path class="st6" d="M110.9,188.5c0,0-4.3,1.5-12.3,3.4"/>
		</g>
		<g>
			<path class="st1" d="M176.7,104.3c17,15.5,22.8,41.7,6.4,60c-13,14.6-31.1,19.4-31.1,19.4s-4,1.9-4.6-2c0,0-2.7,1.8-4.3-0.8
				c0,0-1.3-2.1,1.1-3.4l-0.8,0.3c-3.2,1.7-4.4-0.9-4.4-0.9c-0.9-2.3,1.7-3.6,1.7-3.6s-2.2,1.5-3.5-1.2c-1.2-2.6,2.2-3.8,2.2-3.8
				c4-1.7,14.2-8.8,14.2-8.8c3.1-2.2,0.8-4.9-5-5.6c-2.6-0.3-4.5-1.3-4.4-2.8c0.1-1.9,1.2-2.4,5.5-2.5c7.5-0.3,12.2,0.1,15.6-1.8
				c3-1.7,6.1-6.9,3.5-13.4"/>
			<path class="st5" d="M140.3,173.5c0,0,6.3-2.8,13.2-7.1"/>
			<path class="st6" d="M143.6,177.8c0,0,5.4-2.7,12.5-7.2"/>
			<path class="st6" d="M147.7,181.6c0,0,4.2-1.8,11.3-5.9"/>
		</g>
		<path class="st7" d="M106.3,37.6l0.1,8.3c0,0,0.2,1.9-2.7,1"/>
		<circle class="st8" cx="93.4" cy="42.1" r="0.5"/>
		<circle class="st8" cx="91.6" cy="43.6" r="0.5"/>
		<circle class="st8" cx="94.8" cy="43.8" r="0.5"/>
		<circle class="st8" cx="92.9" cy="45.3" r="0.5"/>
		<circle class="st8" cx="113.7" cy="43.5" r="0.5"/>
		<circle class="st8" cx="111.9" cy="45" r="0.5"/>
		<circle class="st8" cx="115.1" cy="45.3" r="0.5"/>
		<circle class="st8" cx="113.2" cy="46.7" r="0.5"/>
		<path class="st9" d="M116.1,38.1c0,0-3.1-3.2-7-0.3"/>
		<path class="st9" d="M101.6,37.3c0,0-3.1-3.2-7-0.3"/>
		<path class="st7" d="M109.7,41.5"/>
		<path class="st7" d="M114.6,41.7"/>
		<path class="st7" d="M109.7,41.5c0,0,0.5-2.2,2.7-2.2c2.3,0,2.3,2.5,2.3,2.5"/>
		<path class="st7" d="M95.2,41c0,0,0.5-2.2,2.7-2.2c2.3,0,2.3,2.5,2.3,2.5"/>
		<path class="st7" d="M105,50.4c0,0-0.9,1.6-3.4,0.9c0,0-1.6-0.5-1.6-2.2"/>
		<path class="st1" d="M154.3,162.8"/>
		<path class="st4" d="M70.6,125.1"/>
		<path class="st8" d="M77.3,55.5c2.8-9.8,5.1-17.5,8.5-25.1c0.7-1.5,1.4-3,2.7-4.1c1.1-1,2.4-1.5,3.8-2.1c3.5-1.5,7.2-2.9,11-2.9
			c3.2,0,6.6,1.3,8.4,4c1.8,2.6,1.1,6.7,4.2,8.6c2.5,1.5,6,0.1,7.7-2c1.1-1.3,1.5-2.9,1.4-4.5c0-0.5-0.9-4.2-1.8-4
			c3.2-0.7,5.3-4.5,4.2-7.6c-1.1-3.1-5.1-4.8-8-3.4c1-4.8-2.2-10.2-7-11.5s-10.3,1.5-12,6.1c0,0-0.4-10.1-14.9-5.9
			c-7.5,2.2-8.4,6.3-8.1,10.3c-3.9-0.6-8,2-9.3,5.7c-1.3,3.7,0.4,8.2,3.8,10.2c-2.8,0-4.4,1.2-5.9,3.5s-1.9,7.1,0.4,8.5
			c-2.4,1.8-3.2,5.2-2.2,8.1c0.9,2.8,3.3,5,6,6.3"/>
		<path class="st8" d="M115.1,22.1c-0.5,1.9-1.1,3.8-1.9,5.5c-1.2,2.6-3.6,5.3-6.4,4.7c-2.1-0.5-3.3-2.6-4.3-4.6
			c0.1,2.2-2.4,4-4.6,3.6S94,29.1,93.3,27c0.2,1.8,0.5,3.7,0.1,5.5c-0.4,1.8-1.4,3.5-3.1,4.2s-4-0.1-4.5-1.9
			c-0.1,1.8-0.3,3.7-1.1,5.4c-0.8,1.7-2.5,3.1-4.3,3c-1.8-0.1-3.3-1.4-5.1-1.6c0.9-8.2,5.2-16.1,11.6-21.4s14.8-8,23.1-7.4
			c0.9,0.1,1.8,0.2,2.6,0.6c0.6,0.4,1.1,0.9,1.5,1.5C115.4,17,115.7,19.7,115.1,22.1z"/>
		<g>
			
				<ellipse transform="matrix(8.528113e-02 -0.9964 0.9964 8.528113e-02 31.1072 115.2992)" class="st1" cx="78.3" cy="40.7" rx="5.2" ry="5.4"/>
			<path class="st7" d="M78.3,36.8c0,0-4.2,0.5-3.9,4.5"/>
		</g>
		<path class="st0" d="M178.9,102.9l-55,25.8l-5.4-17.5l-18.3-45.7C100.2,65.6,148.9,67.1,178.9,102.9z"/>
		<path class="st1" d="M165.4,146.8c0,0,1.7-10.2-19.5-29.1l30.7-13.7"/>
		<g>
			<rect x="106.4" y="167.9" class="st2" width="23.4" height="20"/>
			<g>
				<g>
					<path class="st3" d="M160.8,114.7c-1.4,4.5-3.6,7.4-7.5,9c16.5-1.6,17.4,17.3,17.4,17.3c1.2,18.2-18.8,18-18.8,18
						c0.7,4.2,3.2,12.8-4.4,17.3c-12.5,7.4-20-2.2-20-2.2c-4.4,13.8-20.9,10.8-20.9,10.8c-16.2-2.1-15.8-16.3-15.8-16.3
						c-18.3,9-26.7-13.4-26.7-13.4c-5.9-20.1,7.4-24.3,7.4-24.3c-9.9-3.2-11.4-20.3-4.6-29.9c0,0,8.2-12.8,25.9-7.1
						c0,0-2.8-13.7,9.1-17.1c7.3-2.1,27-3.3,25.9,16.2c0,0,9.3-11.2,25.2-0.9C165.4,100,160.8,114.7,160.8,114.7z"/>
				</g>
			</g>
			<path class="st3" d="M145.9,176.2c-0.9,11.5,9.1,11.5,9.1,11.5S157.3,178,145.9,176.2z"/>
			<circle class="st2" cx="107" cy="153.2" r="9.8"/>
			<circle class="st2" cx="133" cy="121.3" r="9.8"/>
			<circle class="st2" cx="94.3" cy="116.7" r="9.8"/>
			<path class="st4" d="M150.7,108.7c0,0,2.2-2,0.7-4c-1.5-2-3.4-1.5-3.4-1.5s0.9-3-2.1-4.3c-2.8-1.2-4.7,0.9-4.7,0.9"/>
			<path class="st4" d="M72.5,143.5c0,0-1.8,2.6,0.7,5.4c0,0,2.3,2.2,5.2,0.4"/>
		</g>
		<path class="st3" d="M52.2,100.9c5,10.3,13.7,5.4,13.7,5.4S62.9,96.8,52.2,100.9z"/>
		<g>
			<path class="st1" d="M58.9,112.1C31,170,85.1,174.9,85.1,174.9s6.8-4.8,12.1-10c3.1-3,4.2-3.5,5.6-2.2c1.1,0.9,0.5,3-1.1,5.1
				c-3.5,4.6-3.2,8.1,0.6,7.5c0,0,12.2-2.4,16.2-4.1c0,0,3.3-1.6,4.3,1.1c1.1,2.8-1.5,3.3-1.5,3.3s2.8-0.9,3.8,1.3
				c0,0,1.1,2.7-2.4,3.8l-0.8,0.4c2.7-0.8,3.3,1.6,3.3,1.6c0.7,3-2.4,3.7-2.4,3.7c2.3,3.2-1.8,4.7-1.8,4.7s-50.4,24.6-88.5-7.6
				c-9.9-8.3-30-30.6-20.5-59.5c9.5-28.9,18.4-33.7,18.4-33.7L58.9,112.1z"/>
			<path class="st5" d="M121.8,175.4c0,0-6.4,2.5-14.3,4.5"/>
			<path class="st6" d="M122.6,180.7c0,0-5.7,2-13.9,4.1"/>
			<path class="st6" d="M122.5,186.3c0,0-4.2,1.7-12.1,4"/>
		</g>
		<path class="st0" d="M66.4,64.2c-38.7,3.5-58,49.7-58,49.7c9,16.3,45.1,20.5,45.1,20.5l7-23.9l-10.3-6.9l5.3-8.4"/>
		<g>
			<path class="st1" d="M176.6,104c15.3,17.1,13.1,50.8-6.6,65.5c-15.6,11.7-32.9,16.2-32.9,16.2s-4.2,1.5-4.4-2.5
				c0,0-2.9,1.5-4.2-1.2c0,0-1.1-2.2,1.5-3.3l-0.9,0.3c-3.3,1.4-4.3-1.3-4.3-1.3c-0.6-2.3,2.1-3.4,2.1-3.4s-2.3,1.3-3.3-1.6
				c-0.9-2.7,2.6-3.6,2.6-3.6c4.1-1.3,15-7.3,15-7.3c3.3-1.9,1.2-4.8-4.4-6.1c-2.6-0.6-4.4-1.8-4.1-3.2c0.3-1.9,1.4-2.2,5.7-2
				c7.4,0.5,12.1,1.4,15.7-0.2c3.2-1.4,15-13.6,8-25.1"/>
			<path class="st5" d="M126.5,174.4c0,0,6.5-2.2,13.8-5.8"/>
			<path class="st6" d="M129.3,179.1c0,0,5.7-2.2,13.2-5.9"/>
			<path class="st6" d="M133,183.2c0,0,4.3-1.4,11.8-4.8"/>
		</g>
		<g>
			<path class="st10" d="M129.2,75.3l35.6-8.6c0,0-1.3,17.7-16.9,20.8S129.2,75.3,129.2,75.3z"/>
			<polygon class="st10" points="116.9,68.8 121.3,65.2 128.5,74.2 			"/>
			<circle class="st8" cx="157.8" cy="73.3" r="1.4"/>
			<path class="st2" d="M159.9,67.9l3.6,4.7c0,0,1.3-4.9,1.3-5.9L159.9,67.9z"/>
		</g>
	</g>
</g>
</svg>
