<?xml version="1.0" encoding="UTF-8"?>
<svg width="320px" height="32px" viewBox="0 0 320 32" version="1.1" xmlns="http://www.w3.org/2000/svg" xmlns:xlink="http://www.w3.org/1999/xlink">
    <title>Ground 3</title>
    <g id="Ground-3" stroke="none" stroke-width="1" fill="none" fill-rule="evenodd">
        <path d="M320,9.20234535 C297.308648,8.47568511 276.176192,16.516797 248.188519,11.5810222 C234.511129,12.3478272 229.646063,14.6076919 220.685176,11.5810222 C211.724288,8.55435257 207.244954,16.1457624 199.958459,13.6462458 C196.376947,10.433045 195.058307,10.2396204 193.790521,9.79032378 C180.537725,5.09825591 179.879071,10.1710905 170.674353,9.69462522 C169.157629,6.94369718 164.355186,6.68539217 160.065721,7.12536224 C151.059087,8.23157269 142.531676,5.90277261 134.212343,5.10149993 C119.546529,3.68832419 108.291679,10.2238058 96.7778975,8.5592186 C90.7092234,7.89297821 68.3860605,4.29171171 51.5324322,0.685984676 C37.8994561,-2.23038833 23.8882981,5.0958229 23.8882981,5.0958229 C11.7418451,2.05942119 7.96380236,7.85404999 0,9.20234535 L0,32 L320,32 L320,9.20234535 Z" id="Fill-1" fill="#FAF3E8"></path>
        <path d="M277.954424,18.1726865 C277.954424,18.6108954 277.59551,18.9662256 277.152561,18.9662256 C276.709932,18.9662256 276.351018,18.6108954 276.351018,18.1726865 C276.351018,17.7344776 276.709932,17.3791474 277.152561,17.3791474 C277.59551,17.3791474 277.954424,17.7344776 277.954424,18.1726865" id="Fill-1" fill="#EDDBC4" transform="translate(277.152721, 18.172687) scale(-1, 1) translate(-277.152721, -18.172687) "></path>
        <path d="M187.275693,15.3791474 C187.275693,15.8173563 186.916779,16.1726865 186.474151,16.1726865 C186.031523,16.1726865 185.672609,15.8173563 185.672609,15.3791474 C185.672609,14.9409385 186.031523,14.5852907 186.474151,14.5852907 C186.916779,14.5852907 187.275693,14.9409385 187.275693,15.3791474" id="Fill-4" fill="#EDDBC4" transform="translate(186.474151, 15.378989) scale(-1, 1) translate(-186.474151, -15.378989) "></path>
        <path d="M262.645716,17.4745162 C262.645716,17.4745162 261.718763,17.5250054 261.763025,18.5535261 C261.806967,19.5820468 263.263792,19.844337 264.014336,19.2762532 C264.764559,18.7078519 264.215764,17.2658906 262.645716,17.4745162" id="Fill-7" fill="#EDDBC4" transform="translate(263.053901, 18.512203) scale(-1, 1) translate(-263.053901, -18.512203) "></path>
        <path d="M207.225378,24.0977893 C207.225378,24.0977893 206.82605,24.1193822 206.845295,24.5623542 C206.864219,25.0050086 207.491596,25.1180538 207.814266,24.8732284 C208.137577,24.6287206 207.901188,24.0079247 207.225378,24.0977893" id="Fill-9" fill="#EDDBC4" transform="translate(207.401000, 24.544485) scale(-1, 1) translate(-207.401000, -24.544485) "></path>
        <path d="M246.926182,21.380672 C246.926182,21.380672 246.60672,20.5493453 247.968604,20.3213496 C248.274274,20.2702253 249.063628,20.2695902 249.063628,21.1666482 C249.063628,22.0633887 247.135308,22.2586774 246.926182,21.380672" id="Fill-11" fill="#EDDBC4" transform="translate(247.978617, 21.125726) scale(-1, 1) translate(-247.978617, -21.125726) "></path>
        <path d="M228.146327,18.5120868 C228.146327,18.5120868 227.210713,18.7080106 227.398028,19.5704565 C227.585022,20.4322673 228.7118,20.2058594 228.917077,19.8105188 C229.048262,19.5577548 229.190673,18.3891978 228.146327,18.5120868" id="Fill-13" fill="#EDDBC4" transform="translate(228.190465, 19.332498) scale(-1, 1) translate(-228.190465, -19.332498) "></path>
        <path d="M304.138941,18.0045427 C304.138941,18.0045427 303.203327,18.2004665 303.390322,19.0625948 C303.577637,19.9247231 304.704094,19.6983152 304.909371,19.3026571 C305.040556,19.0502107 305.182967,17.8813361 304.138941,18.0045427" id="Fill-15" fill="#EDDBC4" transform="translate(304.182805, 18.824893) scale(-1, 1) translate(-304.182805, -18.824893) "></path>
        <path d="M164.248874,18.5102451 C164.248874,18.5102451 163.511481,18.6645708 163.659024,19.3441121 C163.806566,20.0236534 164.694389,19.8451944 164.856366,19.5333675 C164.959325,19.3342683 165.071586,18.4133946 164.248874,18.5102451" id="Fill-18" fill="#EDDBC4" transform="translate(164.283501, 19.156823) scale(-1, 1) translate(-164.283501, -19.156823) "></path>
        <path d="M182.486391,20.3137604 C183.062129,19.5881754 183.219294,19.2255417 183.952197,19.3290606 C184.6851,19.432897 184.458333,20.5442963 184.109362,21.0307717 C183.858218,21.3807037 183.057959,21.9608542 182.486391,21.5058155 C182.486391,21.5058155 181.910653,21.0393453 182.486391,20.3137604 Z" id="Fill-20" fill="#EDDBC4" transform="translate(183.333703, 20.492365) scale(-1, 1) translate(-183.333703, -20.492365) "></path>
        <path d="M147.665989,17.882749 C148.315177,18.7728211 149.214226,18.8718944 150.063239,18.2784072 C150.912251,17.6849199 149.235074,15.791413 148.165389,16.453807 C148.165389,16.453807 147.01648,16.9926769 147.665989,17.882749 Z" id="Fill-22" fill="#EDDBC4" transform="translate(148.881072, 17.483780) scale(-1, 1) translate(-148.881072, -17.483780) "></path>
        <path d="M119.315134,16.1726865 C119.315134,16.6108954 118.95622,16.9662256 118.513591,16.9662256 C118.070963,16.9662256 117.711728,16.6108954 117.711728,16.1726865 C117.711728,15.7344776 118.070963,15.3791474 118.513591,15.3791474 C118.95622,15.3791474 119.315134,15.7344776 119.315134,16.1726865" id="Fill-24" fill="#EDDBC4" transform="translate(118.513431, 16.172687) scale(-1, 1) translate(-118.513431, -16.172687) "></path>
        <path d="M39.6362427,15.3791474 C39.6362427,15.8173563 39.2773287,16.1726865 38.8347003,16.1726865 C38.3917511,16.1726865 38.0331579,15.8173563 38.0331579,15.3791474 C38.0331579,14.9409385 38.3917511,14.5852907 38.8347003,14.5852907 C39.2773287,14.5852907 39.6362427,14.9409385 39.6362427,15.3791474" id="Fill-26" fill="#EDDBC4" transform="translate(38.834700, 15.378989) scale(-1, 1) translate(-38.834700, -15.378989) "></path>
        <path d="M100.252476,19.0622295 C100.252476,19.0622295 99.3252013,19.1127188 99.3694641,20.1412394 C99.4137269,21.1697601 100.870552,21.4320504 101.620775,20.8639665 C102.371319,20.2955652 101.822203,18.8536039 100.252476,19.0622295" id="Fill-29" fill="#EDDBC4" transform="translate(100.660415, 20.099916) scale(-1, 1) translate(-100.660415, -20.099916) "></path>
        <path d="M66.3218042,23.4627039 C66.3218042,23.4627039 65.9227972,23.4842968 65.9414004,23.9272688 C65.9606451,24.3699233 66.5877021,24.4829685 66.9110133,24.2381431 C67.2340037,23.9936353 66.9972937,23.3728394 66.3218042,23.4627039" id="Fill-31" fill="#EDDBC4" transform="translate(66.497313, 23.909400) scale(-1, 1) translate(-66.497313, -23.909400) "></path>
        <path d="M298.884932,16.0771907 C298.884932,16.0771907 298.56547,15.245864 299.927354,15.0178684 C300.233024,14.966744 301.022378,14.966109 301.022378,15.863167 C301.022378,16.7599075 299.094058,16.9551962 298.884932,16.0771907" id="Fill-33" fill="#EDDBC4" transform="translate(299.937367, 15.822244) scale(-1, 1) translate(-299.937367, -15.822244) "></path>
        <path d="M80.5072089,23.2752267 C80.5072089,23.2752267 79.5715951,23.4711506 79.7585896,24.3335964 C79.9459048,25.1954072 81.0726828,24.9689993 81.277639,24.5736587 C81.4091446,24.3208947 81.5515554,23.1523377 80.5072089,23.2752267" id="Fill-35" fill="#EDDBC4" transform="translate(80.551181, 24.095638) scale(-1, 1) translate(-80.551181, -24.095638) "></path>
        <path d="M53.1818312,15.6063174 C53.1818312,15.6063174 52.2458966,15.8022412 52.4332118,16.6643696 C52.6202063,17.5264979 53.7469843,17.30009 53.9522612,16.9044318 C54.083446,16.6519854 54.2258569,15.4831109 53.1818312,15.6063174" id="Fill-46" fill="#EDDBC4" transform="translate(53.225659, 16.426668) scale(-1, 1) translate(-53.225659, -16.426668) "></path>
        <path d="M16.6093678,18.5102451 C16.6093678,18.5102451 15.8719745,18.6645708 16.0195173,19.3441121 C16.1670601,20.0236534 17.0552036,19.8451944 17.2168592,19.5333675 C17.3201392,19.3342683 17.4324,18.4133946 16.6093678,18.5102451" id="Fill-49" fill="#EDDBC4" transform="translate(16.644103, 19.156823) scale(-1, 1) translate(-16.644103, -19.156823) "></path>
        <path d="M36.1301802,18.6479316 C36.1301802,18.6479316 35.5541218,18.1814614 36.1301802,17.4558764 C36.7059179,16.7302914 36.8630831,16.3676577 37.595986,16.4711766 C38.3288888,16.5750131 38.1018012,17.6864124 37.7531511,18.1728877 C37.5016869,18.5228198 36.7017482,19.1029702 36.1301802,18.6479316" id="Fill-51" fill="#EDDBC4" transform="translate(36.977363, 17.634481) scale(-1, 1) translate(-36.977363, -17.634481) "></path>
    </g>
</svg>