<?xml version="1.0" encoding="UTF-8"?>
<svg width="320px" height="32px" viewBox="0 0 320 32" version="1.1" xmlns="http://www.w3.org/2000/svg" xmlns:xlink="http://www.w3.org/1999/xlink">
    <title>Ground 1</title>
    <g id="Ground-1" stroke="none" stroke-width="1" fill="none" fill-rule="evenodd">
        <g id="ground-1">
            <path d="M0,5.47769626 C14.1922222,4.90216177 1.75933333,7.23836725 16.9711111,4.47347891 C25.43,2.93605337 27.6031111,7.47322661 44.5982222,7.12687357 C53.9275556,6.93666329 54.6682222,10.6035665 63.2224444,9.76555726 C70.9022222,9.01297494 79.3862222,11.2281375 86.6775556,8.06140738 C90.2613333,3.99033964 97.7657778,9.12008114 99.0346667,8.55125691 C112.296667,2.60621791 140.267111,8.89709378 149.207556,6.9849256 C152.991333,6.17582218 158.507778,6.61895793 162.799778,7.17591014 C171.812667,8.5778399 199.492,5.20231721 208.363778,5.47769626 C214.220667,5.65938966 222.448889,8.54403047 227.030889,7.70524702 C233.103333,6.86078565 240.040444,5.17831509 268.682444,0.283949141 C278.302889,-1.35980833 284.777333,4.68330382 294.711333,4.3686955 C294.711333,4.3686955 302.964,3.85458577 304.496222,3.19414058 C311.078889,0.356729735 312.030889,3.76993316 320,5.47769626 L320,32 L0,32 L0,5.47769626 Z" id="Fill-1" fill="#FAF3E8"></path>
            <path d="M50.6489816,14.1726865 C50.6489816,14.6108954 50.2900677,14.9662256 49.8471185,14.9662256 C49.4044901,14.9662256 49.0455762,14.6108954 49.0455762,14.1726865 C49.0455762,13.7344776 49.4044901,13.3791474 49.8471185,13.3791474 C50.2900677,13.3791474 50.6489816,13.7344776 50.6489816,14.1726865" id="Fill-1" fill="#EDDBC4"></path>
            <path d="M130.327391,13.3791474 C130.327391,13.8173563 129.968477,14.1726865 129.525849,14.1726865 C129.083221,14.1726865 128.724307,13.8173563 128.724307,13.3791474 C128.724307,12.9409385 129.083221,12.5852907 129.525849,12.5852907 C129.968477,12.5852907 130.327391,12.9409385 130.327391,13.3791474" id="Fill-4" fill="#EDDBC4"></path>
            <path d="M52.5379145,15.4745162 C52.5379145,15.4745162 51.6109608,15.5250054 51.6552236,16.5535261 C51.6991657,17.5820468 53.1559906,17.844337 53.9065344,17.2762532 C54.6567576,16.7078519 54.1079624,15.2658906 52.5379145,15.4745162" id="Fill-7" fill="#EDDBC4"></path>
            <path d="M108.423378,22.0977893 C108.423378,22.0977893 108.02405,22.1193822 108.043295,22.5623542 C108.062219,23.0050086 108.689597,23.1180538 109.012267,22.8732284 C109.335578,22.6287206 109.099188,22.0079247 108.423378,22.0977893" id="Fill-9" fill="#EDDBC4"></path>
            <path d="M66.9689485,19.380672 C66.9689485,19.380672 66.6494862,18.5493453 68.0113705,18.3213496 C68.3170407,18.2702253 69.1063947,18.2695902 69.1063947,19.1666482 C69.1063947,20.0633887 67.1780744,20.2586774 66.9689485,19.380672" id="Fill-11" fill="#EDDBC4"></path>
            <path d="M87.7653962,16.5120868 C87.7653962,16.5120868 86.8297824,16.7080106 87.0170976,17.5704565 C87.204092,18.4322673 88.3308701,18.2058594 88.536147,17.8105188 C88.6673318,17.5577548 88.8097427,16.3891978 87.7653962,16.5120868" id="Fill-13" fill="#EDDBC4"></path>
            <path d="M12.773331,19.0045427 C12.773331,19.0045427 11.8377171,19.2004665 12.0247116,20.0625948 C12.2120268,20.9247231 13.3384841,20.6983152 13.5437611,20.3026571 C13.6749459,20.0502107 13.8173568,18.8813361 12.773331,19.0045427" id="Fill-15" fill="#EDDBC4"></path>
            <path d="M151.681872,16.5102451 C151.681872,16.5102451 150.944478,16.6645708 151.092021,17.3441121 C151.239564,18.0236534 152.127387,17.8451944 152.289363,17.5333675 C152.392322,17.3342683 152.504583,16.4133946 151.681872,16.5102451" id="Fill-18" fill="#EDDBC4"></path>
            <path d="M131.818985,18.3137604 C132.394723,17.5881754 132.551888,17.2255417 133.284791,17.3290606 C134.017694,17.432897 133.790927,18.5442963 133.441956,19.0307717 C133.190812,19.3807037 132.390553,19.9608542 131.818985,19.5058155 C131.818985,19.5058155 131.243247,19.0393453 131.818985,18.3137604 Z" id="Fill-20" fill="#EDDBC4"></path>
            <path d="M165.903844,15.882749 C166.553032,16.7728211 167.452081,16.8718944 168.301094,16.2784072 C169.150106,15.6849199 167.47293,13.791413 166.403244,14.453807 C166.403244,14.453807 165.254335,14.9926769 165.903844,15.882749 Z" id="Fill-22" fill="#EDDBC4"></path>
            <path d="M198.288272,14.1726865 C198.288272,14.6108954 197.929358,14.9662256 197.48673,14.9662256 C197.044101,14.9662256 196.684866,14.6108954 196.684866,14.1726865 C196.684866,13.7344776 197.044101,13.3791474 197.48673,13.3791474 C197.929358,13.3791474 198.288272,13.7344776 198.288272,14.1726865" id="Fill-24" fill="#EDDBC4"></path>
            <path d="M277.966842,13.3791474 C277.966842,13.8173563 277.607928,14.1726865 277.1653,14.1726865 C276.722351,14.1726865 276.363757,13.8173563 276.363757,13.3791474 C276.363757,12.9409385 276.722351,12.5852907 277.1653,12.5852907 C277.607928,12.5852907 277.966842,12.9409385 277.966842,13.3791474" id="Fill-26" fill="#EDDBC4"></path>
            <path d="M214.931646,17.0622295 C214.931646,17.0622295 214.004372,17.1127188 214.048635,18.1412394 C214.092897,19.1697601 215.549722,19.4320504 216.299945,18.8639665 C217.050489,18.2955652 216.501373,16.8536039 214.931646,17.0622295" id="Fill-29" fill="#EDDBC4"></path>
            <path d="M249.327179,21.4627039 C249.327179,21.4627039 248.928172,21.4842968 248.946775,21.9272688 C248.96602,22.3699233 249.593077,22.4829685 249.916388,22.2381431 C250.239378,21.9936353 250.002668,21.3728394 249.327179,21.4627039" id="Fill-31" fill="#EDDBC4"></path>
            <path d="M26.0101984,12.0771907 C26.0101984,12.0771907 25.6907361,11.245864 27.0526204,11.0178684 C27.3582906,10.966744 28.1476446,10.966109 28.1476446,11.863167 C28.1476446,12.7599075 26.2193243,12.9551962 26.0101984,12.0771907" id="Fill-33" fill="#EDDBC4"></path>
            <path d="M235.404847,21.2752267 C235.404847,21.2752267 234.469233,21.4711506 234.656227,22.3335964 C234.843543,23.1954072 235.970321,22.9689993 236.175277,22.5736587 C236.306782,22.3208947 236.449193,21.1523377 235.404847,21.2752267" id="Fill-35" fill="#EDDBC4"></path>
            <path d="M262.730513,13.6063174 C262.730513,13.6063174 261.794578,13.8022412 261.981894,14.6643696 C262.168888,15.5264979 263.295666,15.30009 263.500943,14.9044318 C263.632128,14.6519854 263.774539,13.4831109 262.730513,13.6063174" id="Fill-46" fill="#EDDBC4"></path>
            <path d="M299.321162,16.5102451 C299.321162,16.5102451 298.583769,16.6645708 298.731312,17.3441121 C298.878854,18.0236534 299.766998,17.8451944 299.928653,17.5333675 C300.031933,17.3342683 300.144194,16.4133946 299.321162,16.5102451" id="Fill-49" fill="#EDDBC4"></path>
            <path d="M278.175455,16.6479316 C278.175455,16.6479316 277.599396,16.1814614 278.175455,15.4558764 C278.751192,14.7302914 278.908358,14.3676577 279.641261,14.4711766 C280.374163,14.5750131 280.147076,15.6864124 279.798426,16.1728877 C279.546961,16.5228198 278.747023,17.1029702 278.175455,16.6479316" id="Fill-51" fill="#EDDBC4"></path>
        </g>
    </g>
</svg>