<?xml version="1.0" encoding="UTF-8"?>
<svg width="320px" height="32px" viewBox="0 0 320 32" version="1.1" xmlns="http://www.w3.org/2000/svg" xmlns:xlink="http://www.w3.org/1999/xlink">
    <title>Ground 2</title>
    <g id="Ground-2" stroke="none" stroke-width="1" fill="none" fill-rule="evenodd">
        <g id="ground-2">
            <path d="M0,4.03431651 C9.22955556,3.69487883 19.5011111,-2.04122658 27.3064444,0.775637979 C31.1291111,2.15539363 43.288,2.46510125 45.2144444,3.04448626 C52.4002222,5.20565086 59.2422222,3.40686524 68.1842222,3.60186634 C79.8553333,3.85656165 80.4586667,7.11141787 89.2226667,5.64972898 C96.7686667,4.39123452 109.157333,9.14921443 116.448667,6.27686936 C121.717111,3.4829461 121.351778,5.10452184 122.620667,4.58857656 C135.882667,-0.80403476 173.721111,14.8040121 182.716222,6.47795693 C185.550444,3.85445479 212.453333,5.15532044 223.975556,3.24229649 C230.048,2.47633781 241.725111,6.30730171 268.131333,3.24229649 C277.841333,2.1151293 296.116444,6.81247861 296.116444,6.81247861 C306.229333,6.57346767 312.030889,2.48531021 320,4.03431651 L320,32 L0,32 L0,4.03431651 Z" id="Fill-1" fill="#CEE4E2"></path>
            <path d="M266.954424,14.1726865 C266.954424,14.6108954 266.59551,14.9662256 266.152561,14.9662256 C265.709932,14.9662256 265.351018,14.6108954 265.351018,14.1726865 C265.351018,13.7344776 265.709932,13.3791474 266.152561,13.3791474 C266.59551,13.3791474 266.954424,13.7344776 266.954424,14.1726865" id="Fill-1" fill="#B2D3D0" transform="translate(266.152721, 14.172687) scale(-1, 1) translate(-266.152721, -14.172687) "></path>
            <path d="M187.275693,13.3791474 C187.275693,13.8173563 186.916779,14.1726865 186.474151,14.1726865 C186.031523,14.1726865 185.672609,13.8173563 185.672609,13.3791474 C185.672609,12.9409385 186.031523,12.5852907 186.474151,12.5852907 C186.916779,12.5852907 187.275693,12.9409385 187.275693,13.3791474" id="Fill-4" fill="#B2D3D0" transform="translate(186.474151, 13.378989) scale(-1, 1) translate(-186.474151, -13.378989) "></path>
            <path d="M262.645716,15.4745162 C262.645716,15.4745162 261.718763,15.5250054 261.763025,16.5535261 C261.806967,17.5820468 263.263792,17.844337 264.014336,17.2762532 C264.764559,16.7078519 264.215764,15.2658906 262.645716,15.4745162" id="Fill-7" fill="#B2D3D0" transform="translate(263.053901, 16.512203) scale(-1, 1) translate(-263.053901, -16.512203) "></path>
            <path d="M207.225378,22.0977893 C207.225378,22.0977893 206.82605,22.1193822 206.845295,22.5623542 C206.864219,23.0050086 207.491596,23.1180538 207.814266,22.8732284 C208.137577,22.6287206 207.901188,22.0079247 207.225378,22.0977893" id="Fill-9" fill="#B2D3D0" transform="translate(207.401000, 22.544485) scale(-1, 1) translate(-207.401000, -22.544485) "></path>
            <path d="M246.926182,19.380672 C246.926182,19.380672 246.60672,18.5493453 247.968604,18.3213496 C248.274274,18.2702253 249.063628,18.2695902 249.063628,19.1666482 C249.063628,20.0633887 247.135308,20.2586774 246.926182,19.380672" id="Fill-11" fill="#B2D3D0" transform="translate(247.978617, 19.125726) scale(-1, 1) translate(-247.978617, -19.125726) "></path>
            <path d="M228.146327,16.5120868 C228.146327,16.5120868 227.210713,16.7080106 227.398028,17.5704565 C227.585022,18.4322673 228.7118,18.2058594 228.917077,17.8105188 C229.048262,17.5577548 229.190673,16.3891978 228.146327,16.5120868" id="Fill-13" fill="#B2D3D0" transform="translate(228.190465, 17.332498) scale(-1, 1) translate(-228.190465, -17.332498) "></path>
            <path d="M303.138941,19.0045427 C303.138941,19.0045427 302.203327,19.2004665 302.390322,20.0625948 C302.577637,20.9247231 303.704094,20.6983152 303.909371,20.3026571 C304.040556,20.0502107 304.182967,18.8813361 303.138941,19.0045427" id="Fill-15" fill="#B2D3D0" transform="translate(303.182805, 19.824893) scale(-1, 1) translate(-303.182805, -19.824893) "></path>
            <path d="M164.248874,16.5102451 C164.248874,16.5102451 163.511481,16.6645708 163.659024,17.3441121 C163.806566,18.0236534 164.694389,17.8451944 164.856366,17.5333675 C164.959325,17.3342683 165.071586,16.4133946 164.248874,16.5102451" id="Fill-18" fill="#B2D3D0" transform="translate(164.283501, 17.156823) scale(-1, 1) translate(-164.283501, -17.156823) "></path>
            <path d="M182.486391,18.3137604 C183.062129,17.5881754 183.219294,17.2255417 183.952197,17.3290606 C184.6851,17.432897 184.458333,18.5442963 184.109362,19.0307717 C183.858218,19.3807037 183.057959,19.9608542 182.486391,19.5058155 C182.486391,19.5058155 181.910653,19.0393453 182.486391,18.3137604 Z" id="Fill-20" fill="#B2D3D0" transform="translate(183.333703, 18.492365) scale(-1, 1) translate(-183.333703, -18.492365) "></path>
            <path d="M147.665989,15.882749 C148.315177,16.7728211 149.214226,16.8718944 150.063239,16.2784072 C150.912251,15.6849199 149.235074,13.791413 148.165389,14.453807 C148.165389,14.453807 147.01648,14.9926769 147.665989,15.882749 Z" id="Fill-22" fill="#B2D3D0" transform="translate(148.881072, 15.483780) scale(-1, 1) translate(-148.881072, -15.483780) "></path>
            <path d="M119.315134,14.1726865 C119.315134,14.6108954 118.95622,14.9662256 118.513591,14.9662256 C118.070963,14.9662256 117.711728,14.6108954 117.711728,14.1726865 C117.711728,13.7344776 118.070963,13.3791474 118.513591,13.3791474 C118.95622,13.3791474 119.315134,13.7344776 119.315134,14.1726865" id="Fill-24" fill="#B2D3D0" transform="translate(118.513431, 14.172687) scale(-1, 1) translate(-118.513431, -14.172687) "></path>
            <path d="M39.6362427,13.3791474 C39.6362427,13.8173563 39.2773287,14.1726865 38.8347003,14.1726865 C38.3917511,14.1726865 38.0331579,13.8173563 38.0331579,13.3791474 C38.0331579,12.9409385 38.3917511,12.5852907 38.8347003,12.5852907 C39.2773287,12.5852907 39.6362427,12.9409385 39.6362427,13.3791474" id="Fill-26" fill="#B2D3D0" transform="translate(38.834700, 13.378989) scale(-1, 1) translate(-38.834700, -13.378989) "></path>
            <path d="M100.252476,17.0622295 C100.252476,17.0622295 99.3252013,17.1127188 99.3694641,18.1412394 C99.4137269,19.1697601 100.870552,19.4320504 101.620775,18.8639665 C102.371319,18.2955652 101.822203,16.8536039 100.252476,17.0622295" id="Fill-29" fill="#B2D3D0" transform="translate(100.660415, 18.099916) scale(-1, 1) translate(-100.660415, -18.099916) "></path>
            <path d="M66.3218042,21.4627039 C66.3218042,21.4627039 65.9227972,21.4842968 65.9414004,21.9272688 C65.9606451,22.3699233 66.5877021,22.4829685 66.9110133,22.2381431 C67.2340037,21.9936353 66.9972937,21.3728394 66.3218042,21.4627039" id="Fill-31" fill="#B2D3D0" transform="translate(66.497313, 21.909400) scale(-1, 1) translate(-66.497313, -21.909400) "></path>
            <path d="M287.884932,12.0771907 C287.884932,12.0771907 287.56547,11.245864 288.927354,11.0178684 C289.233024,10.966744 290.022378,10.966109 290.022378,11.863167 C290.022378,12.7599075 288.094058,12.9551962 287.884932,12.0771907" id="Fill-33" fill="#B2D3D0" transform="translate(288.937367, 11.822244) scale(-1, 1) translate(-288.937367, -11.822244) "></path>
            <path d="M80.5072089,21.2752267 C80.5072089,21.2752267 79.5715951,21.4711506 79.7585896,22.3335964 C79.9459048,23.1954072 81.0726828,22.9689993 81.277639,22.5736587 C81.4091446,22.3208947 81.5515554,21.1523377 80.5072089,21.2752267" id="Fill-35" fill="#B2D3D0" transform="translate(80.551181, 22.095638) scale(-1, 1) translate(-80.551181, -22.095638) "></path>
            <path d="M53.1818312,13.6063174 C53.1818312,13.6063174 52.2458966,13.8022412 52.4332118,14.6643696 C52.6202063,15.5264979 53.7469843,15.30009 53.9522612,14.9044318 C54.083446,14.6519854 54.2258569,13.4831109 53.1818312,13.6063174" id="Fill-46" fill="#B2D3D0" transform="translate(53.225659, 14.426668) scale(-1, 1) translate(-53.225659, -14.426668) "></path>
            <path d="M16.6093678,16.5102451 C16.6093678,16.5102451 15.8719745,16.6645708 16.0195173,17.3441121 C16.1670601,18.0236534 17.0552036,17.8451944 17.2168592,17.5333675 C17.3201392,17.3342683 17.4324,16.4133946 16.6093678,16.5102451" id="Fill-49" fill="#B2D3D0" transform="translate(16.644103, 17.156823) scale(-1, 1) translate(-16.644103, -17.156823) "></path>
            <path d="M36.1301802,16.6479316 C36.1301802,16.6479316 35.5541218,16.1814614 36.1301802,15.4558764 C36.7059179,14.7302914 36.8630831,14.3676577 37.595986,14.4711766 C38.3288888,14.5750131 38.1018012,15.6864124 37.7531511,16.1728877 C37.5016869,16.5228198 36.7017482,17.1029702 36.1301802,16.6479316" id="Fill-51" fill="#B2D3D0" transform="translate(36.977363, 15.634481) scale(-1, 1) translate(-36.977363, -15.634481) "></path>
        </g>
    </g>
</svg>