<svg width="32" height="24" viewBox="0 0 32 24" fill="none" xmlns="http://www.w3.org/2000/svg">
<path d="M1 4.83035V8.66666H30.9998V4.83035C30.9998 3.26719 29.7257 2 28.1541 2H3.84569C3.09097 2 2.36715 2.2982 1.83348 2.82899C1.29981 3.35978 1 4.07969 1 4.83035Z" fill="#ED5565"/>
<path d="M1 15.3334H30.9998V8.66669H1V15.3334Z" fill="white"/>
<path d="M1 19.1696C1 20.7328 2.27406 22 3.84569 22H28.1541C29.7257 22 30.9998 20.7328 30.9998 19.1696V15.3333H1V19.1696Z" fill="#ED5565"/>
<path fill-rule="evenodd" clip-rule="evenodd" d="M28.12 3H3.88C2.84171 3 2 3.84171 2 4.88V19.12C2 20.1583 2.8417 21 3.88 21H28.12C29.1583 21 30 20.1583 30 19.12V4.88C30 3.8417 29.1583 3 28.12 3ZM3.88 2C2.28942 2 1 3.28942 1 4.88V19.12C1 20.7106 2.28942 22 3.88 22H28.12C29.7106 22 31 20.7106 31 19.12V4.88C31 3.28942 29.7106 2 28.12 2H3.88Z" fill="black" fill-opacity="0.12"/>
</svg>
