<svg width="32" height="24" viewBox="0 0 32 24" fill="none" xmlns="http://www.w3.org/2000/svg">
<path d="M3.7226 2.00425C2.21895 2.00425 1 3.21569 1 4.71006V19.2899C1 20.7843 2.21895 21.9957 3.7226 21.9957H11C11 15.3305 11 8.66525 11 2L3.7226 2.00425Z" fill="#ED5565"/>
<path d="M11.0043 2.00427C11.0043 8.66952 11.0043 15.3348 11.0043 22H21.0043C21.0043 15.3348 21.0043 8.66952 21.0043 2.00427H11.0043Z" fill="white"/>
<path d="M28.268 2.00427H21C21 8.66952 21 15.3348 21 22H28.268C29.7769 22 31 20.7886 31 19.2942V4.71008C31 3.2157 29.7769 2.00427 28.268 2.00427Z" fill="#ED5565"/>
<path d="M16.2679 8.20162C16.2377 8.08293 16.1323 8 16.0116 8C15.8908 8 15.7854 8.08293 15.7552 8.20162L15.5451 8.62831C15.4511 8.83426 15.3264 9.02424 15.1753 9.19154C14.9902 9.18276 14.81 9.12859 14.65 9.03367C14.5071 8.95686 14.4315 9.14034 14.4861 9.46036L14.6794 10.51C14.7331 10.7545 14.7331 11.008 14.6794 11.2525C14.629 11.3591 14.2928 11.0903 14.0911 10.8556L13.9062 10.6423C13.7045 10.4119 13.507 10.3436 13.486 10.4887C13.4558 10.6061 13.415 10.7203 13.3641 10.83C13.1255 10.853 12.8848 10.8313 12.6539 10.766H12.5951C12.4745 10.7013 12.3264 10.724 12.2299 10.8219C12.1335 10.9199 12.1111 11.0703 12.1749 11.1927V11.261C12.2547 11.5554 12.343 11.8797 12.3766 11.9778C12.3201 12.1362 12.1991 12.2622 12.0446 12.3235C11.9311 12.3789 12.0446 12.5837 12.2673 12.7843L13.4019 13.7358C13.5735 13.8669 13.7364 14.0095 13.8894 14.1625C13.9059 14.3267 13.8872 14.4927 13.8348 14.6489C13.7886 14.8111 13.9987 14.9135 14.3054 14.8793L15.1753 14.7769C15.3867 14.7452 15.6005 14.7324 15.8141 14.7385C15.8793 14.9494 15.8994 15.172 15.8729 15.3914L15.8309 16.4453C15.7781 16.6428 15.8324 16.854 15.9738 17C16.1181 16.8557 16.1771 16.6451 16.1292 16.4453L16.104 15.3956C16.0894 15.1888 16.1007 14.9809 16.1376 14.7769C16.3573 14.7374 16.582 14.7374 16.8016 14.7769L17.6715 14.8793C17.9783 14.9177 18.1926 14.8111 18.1421 14.6489C18.1005 14.5173 18.0737 14.3813 18.0623 14.2436C18.2085 14.0261 18.3888 13.8344 18.596 13.6761L19.7306 12.7246C19.966 12.5283 20.0668 12.3192 19.9533 12.2637C19.8523 12.2177 19.7598 12.1542 19.6802 12.076C19.6894 11.7779 19.7375 11.4823 19.8231 11.197V11.1287C19.8868 11.0062 19.8645 10.8559 19.768 10.7579C19.6715 10.66 19.5235 10.6373 19.4028 10.702H19.344C19.1337 10.7563 18.918 10.7863 18.7011 10.7916C18.6087 10.688 18.5449 10.5614 18.5162 10.4247C18.4741 10.2753 18.2766 10.3479 18.0959 10.5783L17.911 10.7916C17.7506 10.9897 17.5606 11.1611 17.3479 11.2994C17.2387 11.3463 17.2765 10.7447 17.3479 10.446L17.5412 9.39636C17.5958 9.09767 17.5412 8.9142 17.3773 8.96966C17.2414 9.04152 17.1011 9.10423 16.9571 9.15741C16.7395 9.01223 16.5697 8.80416 16.4696 8.56004L16.2679 8.20162Z" fill="#ED5565"/>
<path fill-rule="evenodd" clip-rule="evenodd" d="M28.12 3H3.88C2.84171 3 2 3.84171 2 4.88V19.12C2 20.1583 2.8417 21 3.88 21H28.12C29.1583 21 30 20.1583 30 19.12V4.88C30 3.8417 29.1583 3 28.12 3ZM3.88 2C2.28942 2 1 3.28942 1 4.88V19.12C1 20.7106 2.28942 22 3.88 22H28.12C29.7106 22 31 20.7106 31 19.12V4.88C31 3.28942 29.7106 2 28.12 2H3.88Z" fill="black" fill-opacity="0.12"/>
</svg>
