<svg width="32" height="24" viewBox="0 0 32 24" fill="none" xmlns="http://www.w3.org/2000/svg">
<path d="M28.2743 2H3.72571C2.22034 2 1 3.21169 1 4.70638V19.2936C1 20.7883 2.22034 22 3.72571 22H28.2743C29.7797 22 31 20.7883 31 19.2936V4.70638C31 3.21169 29.7797 2 28.2743 2Z" fill="#ED5565"/>
<path d="M20.1667 10.3333H17.6667V7.83333C17.6667 7.3731 17.2936 7 16.8333 7H15.1667C14.7064 7 14.3333 7.3731 14.3333 7.83333V10.3333H11.8333C11.3731 10.3333 11 10.7064 11 11.1667V12.8333C11 13.2936 11.3731 13.6667 11.8333 13.6667H14.3333V16.1667C14.3333 16.6269 14.7064 17 15.1667 17H16.8333C17.2936 17 17.6667 16.6269 17.6667 16.1667V13.6667H20.1667C20.6269 13.6667 21 13.2936 21 12.8333V11.1667C21 10.7064 20.6269 10.3333 20.1667 10.3333Z" fill="white"/>
<path fill-rule="evenodd" clip-rule="evenodd" d="M28.12 3H3.88C2.84171 3 2 3.84171 2 4.88V19.12C2 20.1583 2.8417 21 3.88 21H28.12C29.1583 21 30 20.1583 30 19.12V4.88C30 3.8417 29.1583 3 28.12 3ZM3.88 2C2.28942 2 1 3.28942 1 4.88V19.12C1 20.7106 2.28942 22 3.88 22H28.12C29.7106 22 31 20.7106 31 19.12V4.88C31 3.28942 29.7106 2 28.12 2H3.88Z" fill="black" fill-opacity="0.12"/>
</svg>
