<svg width="32" height="24" viewBox="0 0 32 24" fill="none" xmlns="http://www.w3.org/2000/svg">
<path d="M28.27 2H3.72571C2.22034 2 1 3.11423 1 4.4887V11H31V4.48479C30.9989 3.82474 30.7106 3.19215 30.1986 2.72616C29.6867 2.26017 28.9929 1.99897 28.27 2Z" fill="#F6BB42"/>
<path d="M31 11H1V16.5H31V11Z" fill="#4758A9"/>
<path d="M1.00001 19.0758C0.997746 19.8513 1.2845 20.5958 1.79685 21.1446C2.30919 21.6934 3.00489 22.0012 3.73003 22H28.2743C29.7797 22 31 20.6949 31 19.085V16.5H1.00001V19.0758Z" fill="#ED5565"/>
<path fill-rule="evenodd" clip-rule="evenodd" d="M28.12 3H3.88C2.84171 3 2 3.84171 2 4.88V19.12C2 20.1583 2.8417 21 3.88 21H28.12C29.1583 21 30 20.1583 30 19.12V4.88C30 3.8417 29.1583 3 28.12 3ZM3.88 2C2.28942 2 1 3.28942 1 4.88V19.12C1 20.7106 2.28942 22 3.88 22H28.12C29.7106 22 31 20.7106 31 19.12V4.88C31 3.28942 29.7106 2 28.12 2H3.88Z" fill="black" fill-opacity="0.12"/>
</svg>
