<svg width="32" height="24" viewBox="0 0 32 24" fill="none" xmlns="http://www.w3.org/2000/svg">
<path d="M28.2739 2H3.7261C2.22052 2 1 3.21195 1 4.70696V19.293C1 20.011 1.28721 20.6995 1.79846 21.2071C2.3097 21.7148 3.0031 22 3.7261 22H28.2739C28.9969 22 29.6903 21.7148 30.2015 21.2071C30.7128 20.6995 31 20.011 31 19.293V4.70696C31 3.21195 29.7795 2 28.2739 2Z" fill="white"/>
<path d="M9.31723 9.94536C9.62259 9.46325 10.1793 9.20136 10.7454 9.27353C10.9944 9.3571 11.2484 9.42484 11.506 9.47634C11.9069 9.50488 12.2824 9.27819 12.444 8.91015C12.6299 8.44113 12.4229 7.86226 12.6764 7.43127C12.7343 7.31289 12.8494 7.23295 12.9806 7.22001C13.0666 7.22789 13.1494 7.25692 13.2215 7.30451C14.3552 7.87546 15.6355 8.08909 16.8933 7.91719C18.1427 7.74418 19.3669 7.42217 20.5398 6.95803C21.8014 6.56107 22.9932 5.96943 24.0722 5.20451C24.2792 5.04395 24.6172 4.88761 24.7567 5.11155C24.8021 5.20041 24.8112 5.30344 24.782 5.39888C24.5974 5.92055 24.2084 6.34462 23.7046 6.57353C23.1277 6.91342 22.5192 7.19645 21.8877 7.4186C21.4954 7.51462 21.1318 7.70294 20.8271 7.96789C20.6863 8.16998 20.5218 8.3544 20.337 8.51719C20.0792 8.68198 19.7158 8.66508 19.5172 8.89324C19.3553 9.16837 19.3553 9.50967 19.5172 9.78479C19.6761 10.0578 19.7273 10.3802 19.6609 10.689C19.4919 11.1116 18.913 11.1749 18.4482 11.158C17.9834 11.1411 17.4003 11.2172 17.2567 11.6609C17.2265 11.83 17.2053 12.0007 17.1933 12.1721C17.0877 12.6707 16.4961 12.9031 15.9848 12.9073C15.4782 12.8473 14.9662 12.8473 14.4595 12.9073C14.028 13.0174 13.6675 13.3129 13.475 13.7144C13.3567 13.9679 13.251 14.3059 12.9722 14.3355C12.613 14.3778 12.4778 13.8876 12.237 13.6172C11.9962 13.386 11.6702 13.2651 11.337 13.2834C11.0076 13.3022 10.6775 13.3022 10.3482 13.2834C9.71802 13.165 9.16713 12.786 8.83132 12.2397C8.48757 11.6914 8.22432 11.0966 8.04963 10.4735C7.98346 10.3242 7.98346 10.1538 8.04963 10.0045C8.04963 10.0045 8.25667 9.92423 8.50597 10.182C8.75526 10.4397 9.14399 10.2031 9.31723 9.94536Z" fill="#FFAD54"/>
<path d="M20.931 14.5662C20.9376 14.4804 20.9376 14.3943 20.931 14.3085C20.9255 14.2498 20.8856 14.2 20.8296 14.1817C20.7988 14.1767 20.7674 14.1767 20.7366 14.1817C20.6334 14.1891 20.5347 14.2274 20.4535 14.2916C20.3706 14.351 20.2928 14.4175 20.2211 14.4902C20.136 14.5744 20.0556 14.6632 19.9803 14.7564L19.9592 14.7859L19.9338 14.8324V14.7902V14.6423V14.5916C19.9366 14.5421 19.9144 14.4945 19.8747 14.4648C19.8357 14.4361 19.7853 14.4282 19.7394 14.4437C19.5239 14.5123 19.3739 14.7079 19.3634 14.9338C19.3634 15.0521 19.3634 15.1873 19.3634 15.293L19.3254 15.2676C19.2804 15.2458 19.2316 15.2329 19.1817 15.2296H19.169C19.0031 15.2455 18.8507 15.3278 18.7465 15.4578C18.5935 15.6375 18.4746 15.8437 18.3958 16.0662C18.365 16.0612 18.3336 16.0612 18.3028 16.0662C18.1844 16.0696 18.0767 16.1356 18.0197 16.2395C17.9663 16.2344 17.9126 16.2344 17.8592 16.2395H17.8211C17.4435 16.2563 17.1118 16.4951 16.9761 16.8479C16.9645 16.8018 16.9315 16.7641 16.8873 16.7465C16.8524 16.7326 16.8151 16.7255 16.7775 16.7254C16.6614 16.7294 16.5558 16.7934 16.4986 16.8944L16.4521 16.8733C16.41 16.868 16.3675 16.868 16.3254 16.8733C16.1479 16.8733 15.6916 16.9578 15.2817 17.7183C15.2826 17.7565 15.2579 17.7905 15.2213 17.8013C15.1847 17.8122 15.1454 17.7972 15.1254 17.7648L14.8254 17.8958L14.5169 17.7648C14.4733 17.7415 14.421 17.7415 14.3775 17.7648C14.3813 17.7453 14.3813 17.7252 14.3775 17.7057C13.9549 16.9282 13.5071 16.8606 13.3296 16.8606C13.2693 16.8555 13.2089 16.8688 13.1563 16.8986C13.0969 16.7957 12.9878 16.7315 12.869 16.7296C12.8342 16.7305 12.7999 16.7377 12.7676 16.7507C12.7235 16.7683 12.6904 16.806 12.6789 16.8521C12.5432 16.4994 12.2114 16.2605 11.8338 16.2437H11.7958C11.7538 16.2368 11.711 16.2368 11.669 16.2437H11.6268C11.5688 16.1362 11.4573 16.0684 11.3352 16.0662C11.3352 16.0662 11.2761 16.0662 11.2507 16.0662C11.1721 15.8436 11.0532 15.6374 10.9 15.4578C10.7958 15.3278 10.6434 15.2455 10.4775 15.2296H10.431C10.3766 15.2335 10.3236 15.2478 10.2747 15.2718L10.2366 15.3014C10.2366 15.2042 10.2366 15.0733 10.2366 14.9423C10.2271 14.7245 10.0868 14.5342 9.8817 14.4606C9.83205 14.4362 9.77292 14.4415 9.72845 14.4744C9.68397 14.5073 9.66159 14.5623 9.67043 14.6169C9.67043 14.6169 9.67043 14.7057 9.69578 14.8028V14.8493L9.65775 14.7817C9.57866 14.684 9.49401 14.5909 9.40423 14.5028C9.33264 14.4301 9.25488 14.3636 9.17184 14.3042C9.08948 14.2392 8.98924 14.2009 8.88451 14.1944C8.85512 14.1898 8.82518 14.1898 8.79578 14.1944C8.73908 14.2142 8.69935 14.2655 8.69437 14.3254C8.68781 14.4112 8.68781 14.4973 8.69437 14.5831C8.69619 14.7546 8.75407 14.9208 8.85916 15.0564C8.93438 15.1384 9.01955 15.2108 9.11268 15.2718H8.92677C8.8795 15.266 8.83231 15.2833 8.80001 15.3183C8.77058 15.3519 8.76095 15.3984 8.77466 15.4409C8.7869 15.5237 8.80962 15.6046 8.84226 15.6817C8.90226 15.8475 9.04226 15.9716 9.21409 16.0113C9.33132 16.032 9.45 16.0433 9.56902 16.0451C9.56751 16.0563 9.56751 16.0677 9.56902 16.0789C9.56171 16.1465 9.5719 16.2149 9.5986 16.2775C9.60967 16.3031 9.62386 16.3272 9.64085 16.3493C9.59457 16.3685 9.56117 16.4099 9.55212 16.4592C9.54972 16.4859 9.54972 16.5127 9.55212 16.5395C9.55984 16.5907 9.57858 16.6398 9.60705 16.6831C9.71171 16.8185 9.86177 16.9116 10.0296 16.9451C10.2739 16.9986 10.5259 17.0072 10.7732 16.9704C10.7691 17.0112 10.7691 17.0522 10.7732 17.093C10.7837 17.1457 10.8069 17.195 10.8409 17.2366C10.8564 17.2563 10.8749 17.2735 10.8958 17.2873C10.8875 17.3353 10.9033 17.3843 10.938 17.4183C11.1967 17.6461 11.5315 17.7682 11.8761 17.7606H11.8972C12.0058 17.7631 12.1137 17.7429 12.2141 17.7014C12.2069 17.7561 12.2069 17.8115 12.2141 17.8662C12.227 17.9256 12.2546 17.9808 12.2944 18.0268C12.3497 18.087 12.4281 18.1208 12.5099 18.1197C12.575 18.1207 12.6377 18.0947 12.6831 18.0479C12.6942 18.0836 12.7183 18.1138 12.7507 18.1324C12.9709 18.2628 13.2216 18.3328 13.4775 18.3352C13.7215 18.3361 13.9611 18.2704 14.1704 18.1451C14.1916 18.1313 14.2091 18.1124 14.2211 18.0902C14.2339 18.1059 14.2497 18.1188 14.2676 18.1282L14.0056 18.3183C13.9696 18.3454 13.9478 18.3874 13.9465 18.4324C13.9455 18.4782 13.9658 18.5219 14.0014 18.5507L14.1324 18.6648L14.1578 18.6859C14.153 18.7252 14.1642 18.7647 14.1888 18.7957C14.2134 18.8267 14.2494 18.8465 14.2887 18.8507H14.369C14.3899 18.8552 14.4115 18.8552 14.4324 18.8507L14.4873 18.8127L14.5507 18.7493L14.7071 18.5592L14.8 18.4409L14.893 18.5592L15.0535 18.7535L15.1169 18.8169L15.1718 18.8549C15.1928 18.8592 15.2143 18.8592 15.2352 18.8549H15.3155C15.3548 18.8507 15.3908 18.8309 15.4154 18.7999C15.4401 18.769 15.4512 18.7294 15.4465 18.6902L15.4718 18.669L15.6113 18.5465C15.6438 18.5184 15.6626 18.4775 15.6626 18.4345C15.6626 18.3915 15.6438 18.3506 15.6113 18.3226L15.3535 18.1324C15.3644 18.1086 15.3688 18.0824 15.3662 18.0564C15.3783 18.0786 15.3957 18.0975 15.4169 18.1113C15.6263 18.2364 15.8659 18.3021 16.1099 18.3014C16.3629 18.2975 16.6105 18.2276 16.8282 18.0986C16.8598 18.081 16.8838 18.0525 16.8958 18.0183C16.9399 18.0645 17.001 18.0904 17.0648 18.0902C17.1456 18.0867 17.2223 18.0536 17.2803 17.9972C17.3202 17.9513 17.3478 17.8961 17.3606 17.8366C17.3677 17.7819 17.3677 17.7265 17.3606 17.6718C17.4623 17.7138 17.5717 17.734 17.6817 17.731C18.0262 17.7387 18.3611 17.6165 18.6197 17.3887C18.6471 17.3542 18.6565 17.3088 18.6451 17.2662C18.6827 17.2561 18.7174 17.2373 18.7465 17.2113C18.7801 17.1694 18.8033 17.1202 18.8141 17.0676C18.8182 17.0269 18.8182 16.9858 18.8141 16.9451C19.0615 16.9818 19.3135 16.9732 19.5578 16.9197C19.7256 16.8862 19.8756 16.7932 19.9803 16.6578C20.0088 16.6144 20.0275 16.5654 20.0352 16.5141C20.0352 16.5141 20.0352 16.4634 20.0352 16.4549C20.034 16.3966 19.9996 16.344 19.9465 16.3197C19.9632 16.2989 19.9774 16.2763 19.9887 16.2521C20.0135 16.195 20.0237 16.1325 20.0183 16.0704C20.0213 16.0537 20.0213 16.0365 20.0183 16.0197C20.1387 16.0179 20.2588 16.0066 20.3775 15.9859C20.5493 15.9463 20.6893 15.8222 20.7493 15.6564C20.7945 15.5585 20.8162 15.4514 20.8127 15.3437C20.7923 15.282 20.734 15.2408 20.669 15.2423H20.4831C20.5761 15.181 20.6612 15.1086 20.7366 15.0268C20.8493 14.8982 20.9175 14.7367 20.931 14.5662Z" fill="#52C162"/>
<path fill-rule="evenodd" clip-rule="evenodd" d="M28.12 3H3.88C2.84171 3 2 3.84171 2 4.88V19.12C2 20.1583 2.8417 21 3.88 21H28.12C29.1583 21 30 20.1583 30 19.12V4.88C30 3.8417 29.1583 3 28.12 3ZM3.88 2C2.28942 2 1 3.28942 1 4.88V19.12C1 20.7106 2.28942 22 3.88 22H28.12C29.7106 22 31 20.7106 31 19.12V4.88C31 3.28942 29.7106 2 28.12 2H3.88Z" fill="black" fill-opacity="0.12"/>
</svg>
