<svg width="32" height="24" viewBox="0 0 32 24" fill="none" xmlns="http://www.w3.org/2000/svg">
<path d="M1 4.83035V8.66667H31V4.83035C31 3.26719 29.7259 2 28.1543 2H3.85C3.09453 1.99887 2.36961 2.29657 1.835 2.82748C1.3004 3.3584 0.999999 4.07896 1 4.83035Z" fill="#434A54"/>
<path d="M1 15.3334H31V8.66669H1V15.3334Z" fill="#ED5565"/>
<path d="M1 19.1696C1 20.7328 2.27407 22 3.84571 22H28.1543C29.7259 22 31 20.7328 31 19.1696V15.3333H1V19.1696Z" fill="#F6BB42"/>
<path fill-rule="evenodd" clip-rule="evenodd" d="M28.12 3H3.88C2.84171 3 2 3.84171 2 4.88V19.12C2 20.1583 2.8417 21 3.88 21H28.12C29.1583 21 30 20.1583 30 19.12V4.88C30 3.8417 29.1583 3 28.12 3ZM3.88 2C2.28942 2 1 3.28942 1 4.88V19.12C1 20.7106 2.28942 22 3.88 22H28.12C29.7106 22 31 20.7106 31 19.12V4.88C31 3.28942 29.7106 2 28.12 2H3.88Z" fill="black" fill-opacity="0.12"/>
</svg>
