<svg width="32" height="24" viewBox="0 0 32 24" fill="none" xmlns="http://www.w3.org/2000/svg">
<path d="M31 6.16669H1V17.8334H31V6.16669Z" fill="#FFCE54"/>
<path d="M28.27 2H3.72571C3.00281 2 2.30951 2.2792 1.79834 2.77617C1.28717 3.27314 1 3.94718 1 4.65V6.16667H31V4.65C31 3.94646 30.7122 3.27179 30.2001 2.7747C29.688 2.2776 28.9936 1.9989 28.27 2Z" fill="#ED5565"/>
<path d="M1.00429 19.35C1.00429 20.0528 1.29146 20.7268 1.80263 21.2238C2.3138 21.7208 3.0071 22 3.73 22H28.2743C28.9972 22 29.6905 21.7208 30.2017 21.2238C30.7128 20.7268 31 20.0528 31 19.35V17.8333H1L1.00429 19.35Z" fill="#ED5565"/>
<path d="M6.04004 13.3416V14.5191C6.04004 15.1989 6.62526 15.75 7.34716 15.75H8.08786V13.358L6.04004 13.3416Z" fill="#F6D660"/>
<path d="M6.69434 13.3416V15.5654C6.76373 15.603 6.83665 15.6346 6.91219 15.6597V13.3416H6.69434Z" fill="#ED5565"/>
<path d="M6.22314 13.3416V15.1264C6.28246 15.2242 6.35576 15.314 6.441 15.393V13.3416H6.22314Z" fill="#ED5565"/>
<path d="M7.16797 13.3416V15.7172C7.226 15.7208 7.28422 15.7208 7.34225 15.7172H7.38582V13.3252L7.16797 13.3416Z" fill="#ED5565"/>
<path d="M8.07487 13.3416H7.63916V15.7336H8.07487V13.3416Z" fill="#ED5565"/>
<path d="M8.0835 11.1671H6.04004V13.3375H8.0835V11.1671Z" fill="#ED5565"/>
<path d="M10.127 14.5192V13.3539H8.0835V15.75H8.8242C9.5444 15.7477 10.127 15.1973 10.127 14.5192Z" fill="#ED5565"/>
<path d="M10.127 11.1671H8.0835V13.3375H10.127V11.1671Z" fill="white"/>
<path d="M8.08415 13.9652C8.44991 13.9652 8.74642 13.686 8.74642 13.3416C8.74642 12.9972 8.44991 12.718 8.08415 12.718C7.71838 12.718 7.42188 12.9972 7.42188 13.3416C7.42188 13.686 7.71838 13.9652 8.08415 13.9652Z" fill="#4A89DC" stroke="#ED5565" stroke-width="0.498848"/>
<path d="M5.3687 11.4584C5.3687 11.2975 5.2302 11.1671 5.05935 11.1671C4.8885 11.1671 4.75 11.2975 4.75 11.4584V14.8597C4.75 15.0206 4.8885 15.151 5.05935 15.151C5.2302 15.151 5.3687 15.0206 5.3687 14.8597V11.4584Z" fill="white"/>
<path d="M11.417 11.4584C11.417 11.2975 11.2785 11.1671 11.1077 11.1671C10.9368 11.1671 10.7983 11.2975 10.7983 11.4584V14.8597C10.7983 15.0206 10.9368 15.151 11.1077 15.151C11.2785 15.151 11.417 15.0206 11.417 14.8597V11.4584Z" fill="white"/>
<path d="M10.0567 9.75573C10.0567 9.75573 10.0567 9.73521 10.0567 9.7229C10.0567 9.39468 9.18525 9.12799 8.06549 9.12799C6.94573 9.12799 6.07431 9.39468 6.07431 9.7229C6.07289 9.73655 6.07289 9.75029 6.07431 9.76393L6.51002 10.2358L6.66687 10.1947C6.73076 10.1902 6.79375 10.1777 6.85423 10.1578C6.93923 10.1225 7.02655 10.0924 7.11565 10.0675L7.40322 10.1127L7.60364 9.98549L7.83892 10.0716L8.06113 9.94035L8.27027 10.0757L8.52298 9.96907C8.5969 10.0224 8.674 10.0717 8.75391 10.1168L8.97176 10.0183L9.12426 10.1701L9.34647 10.0922L9.52075 10.2727L10.0567 9.75573Z" fill="#ED5565"/>
<path d="M9.21614 10.1701L9.05929 10.0183C9.05929 10.0183 8.85015 10.1168 8.83272 10.1168C8.74999 10.0718 8.66999 10.0225 8.59308 9.96909L8.3273 10.0758L8.10509 9.94037L7.86981 10.0717L7.62146 9.9855L7.41232 10.1127L7.10732 10.0676C7.01396 10.0924 6.92229 10.1225 6.83283 10.1578C6.76934 10.1777 6.70348 10.1901 6.63676 10.1947L6.47119 10.2358L6.59755 10.3424L6.77183 10.6296H9.38607L9.56035 10.3424L9.64749 10.2727L9.46449 10.0922L9.21614 10.1701Z" fill="white"/>
<path d="M8.0792 11.0358C8.73132 11.0358 9.25996 10.8521 9.25996 10.6256C9.25996 10.399 8.73132 10.2153 8.0792 10.2153C7.42708 10.2153 6.89844 10.399 6.89844 10.6256C6.89844 10.8521 7.42708 11.0358 8.0792 11.0358Z" stroke="white" stroke-width="0.997695" stroke-linecap="round" stroke-linejoin="round"/>
<path d="M6.6333 10.3383C6.82065 10.2152 7.23022 10.1537 8.0842 10.1537" stroke="white" stroke-width="0.508825" stroke-linecap="round" stroke-linejoin="round"/>
<path d="M8.0791 10.1537C8.95051 10.1537 9.34265 10.2152 9.53 10.3383" stroke="white" stroke-width="0.508825" stroke-linecap="round" stroke-linejoin="round"/>
<path d="M8.0792 11.0358C8.73132 11.0358 9.25996 10.8521 9.25996 10.6256C9.25996 10.399 8.73132 10.2153 8.0792 10.2153C7.42708 10.2153 6.89844 10.399 6.89844 10.6256C6.89844 10.8521 7.42708 11.0358 8.0792 11.0358Z" stroke="white" stroke-width="0.498848" stroke-linecap="round" stroke-linejoin="round"/>
<path d="M8.0792 11.0358C8.73132 11.0358 9.25996 10.8521 9.25996 10.6256C9.25996 10.399 8.73132 10.2153 8.0792 10.2153C7.42708 10.2153 6.89844 10.399 6.89844 10.6256C6.89844 10.8521 7.42708 11.0358 8.0792 11.0358Z" fill="#ED5565"/>
<path d="M7.12949 9.42344C7.04182 9.34166 6.99904 9.22642 7.01351 9.11102C7.02798 8.99562 7.09808 8.89293 7.20356 8.83262C7.43852 8.71628 7.72195 8.72884 7.94426 8.86545L8.07933 8.9475L8.2144 8.86545" stroke="white" stroke-width="0.498848" stroke-linecap="round" stroke-linejoin="round"/>
<path d="M6.1666 9.72293C6.0776 9.63513 6.03206 9.51605 6.04119 9.39498C6.05031 9.2739 6.11325 9.16207 6.21453 9.08699C6.44996 8.94768 6.73914 8.91458 7.00316 8.99673" stroke="white" stroke-width="0.498848" stroke-linecap="round" stroke-linejoin="round"/>
<path d="M9.0334 9.42374C9.12111 9.34192 9.16391 9.22663 9.14944 9.11118C9.13496 8.99573 9.06483 8.89299 8.9593 8.83266C8.72424 8.71627 8.44068 8.72883 8.21826 8.8655" stroke="white" stroke-width="0.498848" stroke-linecap="round" stroke-linejoin="round"/>
<path d="M9.99183 9.72293C10.0808 9.63513 10.1264 9.51605 10.1172 9.39498C10.1081 9.2739 10.0452 9.16207 9.9439 9.08699C9.70847 8.94768 9.41929 8.91458 9.15527 8.99673" stroke="white" stroke-width="0.498848" stroke-linecap="round" stroke-linejoin="round"/>
<path d="M8.0791 9.33762V8.9516" stroke="white" stroke-width="0.498848" stroke-linecap="round" stroke-linejoin="round"/>
<path d="M9.73861 10.1209C9.61662 10.3138 9.30291 10.2522 9.4554 10.0019C9.4554 10.0019 9.35955 10.203 9.16784 10.1702C9.0502 10.1702 8.9892 10.0471 9.0197 9.89937C9.00812 10.0276 8.89038 10.1239 8.75392 10.1168C8.53606 10.1168 8.55785 9.84193 8.55785 9.84193C8.55785 9.84193 8.55785 10.084 8.31821 10.0758C8.25349 10.0737 8.19232 10.0474 8.14819 10.0027C8.10405 9.9581 8.08058 9.89878 8.08293 9.83783C8.08771 9.90015 8.06532 9.96162 8.02093 10.0081C7.97654 10.0545 7.91397 10.0819 7.84765 10.084C7.61237 10.084 7.60801 9.85014 7.60801 9.85014C7.60801 9.85014 7.60801 10.1086 7.41194 10.125C7.27548 10.1321 7.15773 10.0358 7.14616 9.90758C7.1723 10.0553 7.11566 10.1579 6.99802 10.1784C6.80631 10.2112 6.71045 10.0101 6.71045 10.0101C6.84988 10.2645 6.54924 10.322 6.42725 10.1291" stroke="white" stroke-width="0.299309" stroke-linecap="round" stroke-linejoin="round"/>
<path d="M8.07897 9.07094C8.31971 9.07094 8.51487 8.88717 8.51487 8.66047C8.51487 8.43377 8.31971 8.25 8.07897 8.25C7.83823 8.25 7.64307 8.43377 7.64307 8.66047C7.64307 8.88717 7.83823 9.07094 8.07897 9.07094Z" fill="#4A89DC"/>
<path fill-rule="evenodd" clip-rule="evenodd" d="M28.12 3H3.88C2.84171 3 2 3.84171 2 4.88V19.12C2 20.1583 2.8417 21 3.88 21H28.12C29.1583 21 30 20.1583 30 19.12V4.88C30 3.8417 29.1583 3 28.12 3ZM3.88 2C2.28942 2 1 3.28942 1 4.88V19.12C1 20.7106 2.28942 22 3.88 22H28.12C29.7106 22 31 20.7106 31 19.12V4.88C31 3.28942 29.7106 2 28.12 2H3.88Z" fill="black" fill-opacity="0.12"/>
</svg>
