<svg width="32" height="24" viewBox="0 0 32 24" fill="none" xmlns="http://www.w3.org/2000/svg">
<path d="M28.2742 2H3.7257C2.22034 2 1 3.21169 1 4.70638V19.2936C1 20.7883 2.22034 22 3.7257 22H28.2742C29.7796 22 30.9999 20.7883 30.9999 19.2936V4.70638C30.9999 3.21169 29.7796 2 28.2742 2Z" fill="white"/>
<path d="M11 2H7.66663V22H11V2Z" fill="#4758A9"/>
<path d="M1 13.6666V10.3333H30.9999V13.6666H1Z" fill="#4758A9"/>
<path fill-rule="evenodd" clip-rule="evenodd" d="M28.12 3H3.88C2.84171 3 2 3.84171 2 4.88V19.12C2 20.1583 2.8417 21 3.88 21H28.12C29.1583 21 30 20.1583 30 19.12V4.88C30 3.8417 29.1583 3 28.12 3ZM3.88 2C2.28942 2 1 3.28942 1 4.88V19.12C1 20.7106 2.28942 22 3.88 22H28.12C29.7106 22 31 20.7106 31 19.12V4.88C31 3.28942 29.7106 2 28.12 2H3.88Z" fill="black" fill-opacity="0.12"/>
</svg>
