<svg width="32" height="24" viewBox="0 0 32 24" fill="none" xmlns="http://www.w3.org/2000/svg">
<path d="M28.2743 2H3.72571C2.22034 2 1 3.21169 1 4.70638V19.2936C1 20.7883 2.22034 22 3.72571 22H28.2743C29.7797 22 31 20.7883 31 19.2936V4.70638C31 3.21169 29.7797 2 28.2743 2Z" fill="#4758A9"/>
<path d="M14.3201 2H12.9377V8.34414L1.89654 2.80631C1.38355 3.30341 1.06941 3.97148 1.01325 4.68474L9.49288 8.9378H6.40135L1 6.23091V7.01506L4.85558 8.94666H1V10.3333H14.3333L14.3201 2Z" fill="white"/>
<path d="M30.0522 21.215C30.5764 20.7313 30.9073 20.0703 30.9823 19.3568L22.4619 15.0548H25.5331L30.9998 17.8178V17.0417L27.0512 15.0548H30.9998V13.6667H17.6665V22H19.0398V15.6491L30.0522 21.215Z" fill="white"/>
<path d="M19.0253 2H17.6665V10.3333H30.9998V8.94518H27.0551L30.9998 6.95831V4.93152C30.9998 4.82952 30.9998 4.73195 30.9998 4.63438L22.4835 8.94075H19.4154L30.5352 3.31275C30.411 3.11396 30.2639 2.93084 30.0969 2.76725L19.0253 8.3509V2Z" fill="white"/>
<path d="M1 13.6667V15.0593H4.8607L1 16.9929V19.0508C1 19.1395 1 19.2237 1 19.3124L9.49088 15.0548H12.5865L1.45108 20.6385C1.57602 20.8389 1.72449 21.0235 1.89331 21.1884L12.9491 15.6491V22H14.3333V13.6667H1Z" fill="white"/>
<path d="M31 13.9991V10.0009H17.9629V2H13.9343V10.0009H1V13.9991H13.9343V22H17.9629V13.9991H31Z" fill="#EC5565"/>
<path d="M9.5 8.95L1 4.5C1 4.58594 1 4.67665 1 4.76259V6.3L6.5 9L9.5 8.95Z" fill="#EC5565"/>
<path d="M22.5 9L31.0002 4.62687C30.9545 4.13511 30.7939 3.66242 30.5323 3.25L19.5 9H22.5Z" fill="#EC5565"/>
<path d="M21.8335 14.9167L30.9959 19.5C31.0016 19.39 31.0016 19.2797 30.9959 19.1696V17.8574L25.1361 14.9167H21.8335Z" fill="#EC5565"/>
<path d="M9.54636 14.9167L1 19.3611C1.03797 19.8548 1.19073 20.3314 1.44512 20.75L12.6667 14.9167H9.54636Z" fill="#EC5565"/>
<path fill-rule="evenodd" clip-rule="evenodd" d="M28.12 3H3.88C2.84171 3 2 3.84171 2 4.88V19.12C2 20.1583 2.8417 21 3.88 21H28.12C29.1583 21 30 20.1583 30 19.12V4.88C30 3.8417 29.1583 3 28.12 3ZM3.88 2C2.28942 2 1 3.28942 1 4.88V19.12C1 20.7106 2.28942 22 3.88 22H28.12C29.7106 22 31 20.7106 31 19.12V4.88C31 3.28942 29.7106 2 28.12 2H3.88Z" fill="black" fill-opacity="0.12"/>
</svg>
