<svg width="32" height="24" viewBox="0 0 32 24" fill="none" xmlns="http://www.w3.org/2000/svg">
<path d="M28.3127 2H3.68732C2.20316 2 1 3.14586 1 4.55936V19.4406C1 20.8541 2.20316 22 3.68732 22H28.3127C29.7968 22 31 20.8541 31 19.4406V4.55936C31 3.14586 29.7968 2 28.3127 2Z" fill="white"/>
<path d="M31 10.2979H17.7143V2H14.2857V10.2979H1V13.7021H14.2857V22H17.7143V13.7021H31V10.2979Z" fill="#ED5565"/>
<path d="M9.23077 5.53846H8.46154V4.76923C8.46154 4.3444 8.11714 4 7.69231 4H7.30769C6.88286 4 6.53846 4.3444 6.53846 4.76923V5.53846H5.76923C5.3444 5.53846 5 5.88286 5 6.30769V6.69231C5 7.11714 5.3444 7.46154 5.76923 7.46154H6.53846V8.23077C6.53846 8.6556 6.88286 9 7.30769 9H7.69231C8.11714 9 8.46154 8.6556 8.46154 8.23077V7.46154H9.23077C9.6556 7.46154 10 7.11714 10 6.69231V6.30769C10 5.88286 9.6556 5.53846 9.23077 5.53846Z" fill="#ED5565"/>
<path d="M26.2308 5.53846H25.4615V4.76923C25.4615 4.3444 25.1171 4 24.6923 4H24.3077C23.8829 4 23.5385 4.3444 23.5385 4.76923V5.53846H22.7692C22.3444 5.53846 22 5.88286 22 6.30769V6.69231C22 7.11714 22.3444 7.46154 22.7692 7.46154H23.5385V8.23077C23.5385 8.6556 23.8829 9 24.3077 9H24.6923C25.1171 9 25.4615 8.6556 25.4615 8.23077V7.46154H26.2308C26.6556 7.46154 27 7.11714 27 6.69231V6.30769C27 5.88286 26.6556 5.53846 26.2308 5.53846Z" fill="#ED5565"/>
<path d="M9.23077 18.9615H8.46154V19.7308C8.46154 20.1556 8.11714 20.5 7.69231 20.5H7.30769C6.88286 20.5 6.53846 20.1556 6.53846 19.7308V18.9615H5.76923C5.3444 18.9615 5 18.6171 5 18.1923V17.8077C5 17.3829 5.3444 17.0385 5.76923 17.0385H6.53846V16.2692C6.53846 15.8444 6.88286 15.5 7.30769 15.5H7.69231C8.11714 15.5 8.46154 15.8444 8.46154 16.2692V17.0385H9.23077C9.6556 17.0385 10 17.3829 10 17.8077V18.1923C10 18.6171 9.6556 18.9615 9.23077 18.9615Z" fill="#ED5565"/>
<path d="M26.2308 18.9615H25.4615V19.7308C25.4615 20.1556 25.1171 20.5 24.6923 20.5H24.3077C23.8829 20.5 23.5385 20.1556 23.5385 19.7308V18.9615H22.7692C22.3444 18.9615 22 18.6171 22 18.1923V17.8077C22 17.3829 22.3444 17.0385 22.7692 17.0385H23.5385V16.2692C23.5385 15.8444 23.8829 15.5 24.3077 15.5H24.6923C25.1171 15.5 25.4615 15.8444 25.4615 16.2692V17.0385H26.2308C26.6556 17.0385 27 17.3829 27 17.8077V18.1923C27 18.6171 26.6556 18.9615 26.2308 18.9615Z" fill="#ED5565"/>
<path fill-rule="evenodd" clip-rule="evenodd" d="M28.12 3H3.88C2.84171 3 2 3.84171 2 4.88V19.12C2 20.1583 2.8417 21 3.88 21H28.12C29.1583 21 30 20.1583 30 19.12V4.88C30 3.8417 29.1583 3 28.12 3ZM3.88 2C2.28942 2 1 3.28942 1 4.88V19.12C1 20.7106 2.28942 22 3.88 22H28.12C29.7106 22 31 20.7106 31 19.12V4.88C31 3.28942 29.7106 2 28.12 2H3.88Z" fill="black" fill-opacity="0.12"/>
</svg>
