<svg width="32" height="24" viewBox="0 0 32 24" fill="none" xmlns="http://www.w3.org/2000/svg">
<path d="M31 17.5555H1V19.7778H31V17.5555Z" fill="white"/>
<path d="M31 15.3333H1V17.5555H31V15.3333Z" fill="#4A89DC"/>
<path d="M31 13.1111H1V15.3334H31V13.1111Z" fill="white"/>
<path d="M31 10.8889H1V13.1111H31V10.8889Z" fill="#4A89DC"/>
<path d="M31 8.66669H1V10.8889H31V8.66669Z" fill="white"/>
<path d="M31 6.4444H1V8.66662H31V6.4444Z" fill="#4A89DC"/>
<path d="M31 4.22223H1V6.44445H31V4.22223Z" fill="white"/>
<path d="M3.69093 22H28.3091C29.6304 22.0006 30.7631 21.0652 31 19.7778H1C1.23685 21.0652 2.36956 22.0006 3.69093 22Z" fill="#4A89DC"/>
<path d="M28.313 2H3.69132C2.36975 1.99938 1.23688 2.93479 1 4.22222H31C30.7634 2.93637 29.6329 2.00144 28.313 2Z" fill="#4A89DC"/>
<path d="M3.67943 2H12V10.8889H1V4.1652C1 2.96939 2.19962 2 3.67943 2Z" fill="#4A89DC"/>
<path d="M12 6.4444H1V8.66662H12V6.4444Z" fill="white"/>
<path d="M7.65996 2H5.32996V13.4449H7.65996V2Z" fill="white"/>
<path fill-rule="evenodd" clip-rule="evenodd" d="M28.12 3H3.88C2.84171 3 2 3.84171 2 4.88V19.12C2 20.1583 2.8417 21 3.88 21H28.12C29.1583 21 30 20.1583 30 19.12V4.88C30 3.8417 29.1583 3 28.12 3ZM3.88 2C2.28942 2 1 3.28942 1 4.88V19.12C1 20.7106 2.28942 22 3.88 22H28.12C29.7106 22 31 20.7106 31 19.12V4.88C31 3.28942 29.7106 2 28.12 2H3.88Z" fill="black" fill-opacity="0.12"/>
</svg>
