<svg width="32" height="24" viewBox="0 0 32 24" fill="none" xmlns="http://www.w3.org/2000/svg">
<path d="M1 4.83035V8.66667H31V4.83035C31 3.26719 29.7259 2 28.1543 2H3.85C3.09453 1.99887 2.36961 2.29657 1.835 2.82748C1.3004 3.3584 0.999999 4.07896 1 4.83035Z" fill="#ED5565"/>
<path d="M1 15.3334H31V8.66669H1V15.3334Z" fill="white"/>
<path d="M1 19.1696C1 20.7328 2.27407 22 3.84571 22H28.1543C29.7259 22 31 20.7328 31 19.1696V15.3333H1V19.1696Z" fill="#4758A9"/>
<path d="M16.5493 17.7838H15.9536C14.0065 17.7861 12.4249 16.2231 12.4178 14.2895V9.60767H20.085V14.2895C20.0779 16.2231 18.4963 17.7861 16.5493 17.7838ZM13.275 10.4759V14.3065C13.2821 15.77 14.4799 16.9519 15.9536 16.9496H16.5493C18.0229 16.9519 19.2208 15.77 19.2278 14.3065V10.4759H13.275Z" fill="white"/>
<path d="M18.2939 16.8266C18.6545 16.5825 18.9597 16.2663 19.1901 15.8983H18.2939V16.8266Z" fill="#ED5565"/>
<path d="M18.2939 15.8983H19.1897C19.4658 15.4587 19.6237 14.956 19.6482 14.4384H18.2939V15.8983Z" fill="white"/>
<path d="M18.294 14.4384H19.6483C19.6483 14.3916 19.6483 14.3448 19.6483 14.2937V12.9785H18.2854L18.294 14.4384Z" fill="#ED5565"/>
<path d="M19.6568 11.5144H18.2939V12.9743H19.6568V11.5144Z" fill="white"/>
<path d="M19.6568 10.0503H18.2939V11.5102H19.6568V10.0503Z" fill="#ED5565"/>
<path d="M16.9312 15.8983V17.3198C17.4195 17.2608 17.8867 17.0872 18.2941 16.8133V15.8855L16.9312 15.8983Z" fill="white"/>
<path d="M18.2941 14.4384H16.9312V15.8983H18.2941V14.4384Z" fill="#ED5565"/>
<path d="M18.2941 12.9743H16.9312V14.4342H18.2941V12.9743Z" fill="white"/>
<path d="M18.2941 11.5144H16.9312V12.9743H18.2941V11.5144Z" fill="#ED5565"/>
<path d="M18.2941 10.0503H16.9312V11.5102H18.2941V10.0503Z" fill="white"/>
<path d="M15.5681 15.8983V17.3198C15.696 17.3363 15.8248 17.3448 15.9538 17.3454H16.5495C16.6785 17.3448 16.8073 17.3363 16.9353 17.3198V15.8855L15.5681 15.8983Z" fill="#ED5565"/>
<path d="M16.931 14.4384H15.5681V15.8983H16.931V14.4384Z" fill="white"/>
<path d="M16.931 12.9743H15.5681V14.4342H16.931V12.9743Z" fill="#ED5565"/>
<path d="M16.931 11.5144H15.5681V12.9743H16.931V11.5144Z" fill="white"/>
<path d="M16.931 10.0503H15.5681V11.5102H16.931V10.0503Z" fill="#ED5565"/>
<path d="M14.2095 15.8983V16.8261C14.6168 17.0948 15.0823 17.264 15.568 17.3198V15.8855L14.2095 15.8983Z" fill="white"/>
<path d="M15.5723 14.4384H14.2095V15.8983H15.5723V14.4384Z" fill="#ED5565"/>
<path d="M15.5723 12.9743H14.2095V14.4342H15.5723V12.9743Z" fill="white"/>
<path d="M15.5723 11.5144H14.2095V12.9743H15.5723V11.5144Z" fill="#ED5565"/>
<path d="M15.5723 10.0503H14.2095V11.5102H15.5723V10.0503Z" fill="white"/>
<path d="M13.3138 15.8983C13.5442 16.2663 13.8494 16.5825 14.21 16.8266V15.8983H13.3138Z" fill="#ED5565"/>
<path d="M14.2091 14.4384H12.8549C12.8793 14.956 13.0372 15.4587 13.3134 15.8983H14.2091V14.4384Z" fill="white"/>
<path d="M14.2096 12.9743H12.8467V14.2895C12.8467 14.3363 12.8467 14.3874 12.8467 14.4342H14.201L14.2096 12.9743Z" fill="#ED5565"/>
<path d="M14.2096 11.5144H12.8467V12.9743H14.2096V11.5144Z" fill="white"/>
<path d="M14.2096 10.0503H12.8467V11.5102H14.2096V10.0503Z" fill="#ED5565"/>
<path d="M16.237 8.80749C17.3332 8.80787 18.4253 8.93934 19.4898 9.19906C19.6189 9.23058 19.7527 9.16859 19.8113 9.0501L20.7241 7.20291C20.7617 7.12692 20.7633 7.03829 20.7285 6.961C20.6937 6.88372 20.6262 6.82577 20.5441 6.80283C17.7048 6.02113 14.7049 6.02113 11.8656 6.80283C11.7843 6.82674 11.7178 6.88509 11.6839 6.96225C11.65 7.03941 11.6522 7.12749 11.6899 7.20291L12.6027 9.0501C12.6613 9.16859 12.7951 9.23058 12.9241 9.19906C14.0081 8.93446 15.1207 8.80296 16.237 8.80749Z" fill="#4758A9"/>
<path fill-rule="evenodd" clip-rule="evenodd" d="M28.12 3H3.88C2.84171 3 2 3.84171 2 4.88V19.12C2 20.1583 2.8417 21 3.88 21H28.12C29.1583 21 30 20.1583 30 19.12V4.88C30 3.8417 29.1583 3 28.12 3ZM3.88 2C2.28942 2 1 3.28942 1 4.88V19.12C1 20.7106 2.28942 22 3.88 22H28.12C29.7106 22 31 20.7106 31 19.12V4.88C31 3.28942 29.7106 2 28.12 2H3.88Z" fill="black" fill-opacity="0.12"/>
</svg>
