<svg width="32" height="24" viewBox="0 0 32 24" fill="none" xmlns="http://www.w3.org/2000/svg">
<path d="M3.72261 2.00425C2.21896 2.00425 1 3.2157 1 4.7101V19.2902C1 20.7846 2.21896 21.9961 3.72261 21.9961H11C11 15.3307 11 8.66535 11 2L3.72261 2.00425Z" fill="#57A863"/>
<path d="M11.0042 2.00397C11.0042 8.66932 11.0042 15.3347 11.0042 22H21.0042C21.0042 15.3347 21.0042 8.66932 21.0042 2.00397H11.0042Z" fill="white"/>
<path d="M28.2716 2.00397H21C21 8.66932 21 15.3347 21 22H28.2716C29.7785 22 31 20.7886 31 19.2942V4.70982C31 3.21542 29.7785 2.00397 28.2716 2.00397Z" fill="#FC6E51"/>
<path fill-rule="evenodd" clip-rule="evenodd" d="M28.12 3H3.88C2.84171 3 2 3.84171 2 4.88V19.12C2 20.1583 2.8417 21 3.88 21H28.12C29.1583 21 30 20.1583 30 19.12V4.88C30 3.8417 29.1583 3 28.12 3ZM3.88 2C2.28942 2 1 3.28942 1 4.88V19.12C1 20.7106 2.28942 22 3.88 22H28.12C29.7106 22 31 20.7106 31 19.12V4.88C31 3.28942 29.7106 2 28.12 2H3.88Z" fill="black" fill-opacity="0.12"/>
</svg>
