<svg width="32" height="24" viewBox="0 0 32 24" fill="none" xmlns="http://www.w3.org/2000/svg">
<path d="M28.27 2H3.72571C2.22034 2 1 3.18645 1 4.65V12H31V4.65C31 3.94646 30.7122 3.27179 30.2001 2.7747C29.688 2.2776 28.9936 1.9989 28.27 2Z" fill="#4758A9"/>
<path d="M1.00429 19.2348C1.00429 20.762 2.22463 22 3.73 22H28.2743C29.7797 22 31 20.762 31 19.2348V12H1L1.00429 19.2348Z" fill="#ED5565"/>
<path d="M10.4168 5.91823C10.2996 6.07606 10.111 6.16963 9.91021 6.16963C9.70939 6.16963 9.52084 6.07606 9.40364 5.91823L8.5969 4.95129C8.47993 4.79161 8.29023 4.69671 8.08799 4.69671C7.88574 4.69671 7.69605 4.79161 7.57908 4.95129L6.77702 5.91823C6.65982 6.07606 6.47128 6.16963 6.27046 6.16963C6.06964 6.16963 5.8811 6.07606 5.7639 5.91823L4.76954 4.71977C4.48811 4.38384 4.3005 4.46101 4.33802 4.89228L4.70387 8.71464C4.75307 9.15324 5.12998 9.48893 5.58567 9.5H10.6044C11.0591 9.48867 11.4345 9.15253 11.4815 8.71464L11.8286 4.88774C11.8661 4.43377 11.6738 4.3793 11.3971 4.71977L10.4168 5.91823Z" fill="#F6BB42"/>
<path fill-rule="evenodd" clip-rule="evenodd" d="M28.12 3H3.88C2.84171 3 2 3.84171 2 4.88V19.12C2 20.1583 2.8417 21 3.88 21H28.12C29.1583 21 30 20.1583 30 19.12V4.88C30 3.8417 29.1583 3 28.12 3ZM3.88 2C2.28942 2 1 3.28942 1 4.88V19.12C1 20.7106 2.28942 22 3.88 22H28.12C29.7106 22 31 20.7106 31 19.12V4.88C31 3.28942 29.7106 2 28.12 2H3.88Z" fill="black" fill-opacity="0.12"/>
</svg>
