<svg width="32" height="24" viewBox="0 0 32 24" fill="none" xmlns="http://www.w3.org/2000/svg">
<path d="M1 4.83035V8.66667H30.9999V4.83035C30.9999 4.0797 30.7001 3.35979 30.1664 2.82899C29.6327 2.2982 28.9089 2 28.1542 2H3.84999C3.09452 1.99887 2.3696 2.29657 1.835 2.82748C1.3004 3.3584 0.999999 4.07896 1 4.83035Z" fill="#F6BB42"/>
<path d="M1 15.3318H30.9999V8.66669H1V15.3318Z" fill="#57A863"/>
<path d="M1 19.1696C1 20.7328 2.27406 22 3.8457 22H28.1542C29.7258 22 30.9999 20.7328 30.9999 19.1696V15.3333H1V19.1696Z" fill="#ED5565"/>
<path fill-rule="evenodd" clip-rule="evenodd" d="M28.12 3H3.88C2.84171 3 2 3.84171 2 4.88V19.12C2 20.1583 2.8417 21 3.88 21H28.12C29.1583 21 30 20.1583 30 19.12V4.88C30 3.8417 29.1583 3 28.12 3ZM3.88 2C2.28942 2 1 3.28942 1 4.88V19.12C1 20.7106 2.28942 22 3.88 22H28.12C29.7106 22 31 20.7106 31 19.12V4.88C31 3.28942 29.7106 2 28.12 2H3.88Z" fill="black" fill-opacity="0.12"/>
</svg>
