<svg width="32" height="24" viewBox="0 0 32 24" fill="none" xmlns="http://www.w3.org/2000/svg">
<path d="M1 4.83035V8.66667H30.9959V4.83035C30.9959 4.07969 30.6961 3.35978 30.1625 2.82899C29.6289 2.2982 28.9052 2 28.1506 2H3.84532C3.0907 2 2.36698 2.2982 1.83338 2.82899C1.29977 3.35978 1 4.07969 1 4.83035Z" fill="#ED5565"/>
<path d="M1 15.3319H30.9959V8.66669H1V15.3319Z" fill="white"/>
<path d="M1.00429 19.1696C1.00429 20.7328 2.27818 22 3.84961 22H28.1506C29.722 22 30.9959 20.7328 30.9959 19.1696V15.3333H1L1.00429 19.1696Z" fill="#3BAFDA"/>
<path fill-rule="evenodd" clip-rule="evenodd" d="M28.12 3H3.88C2.84171 3 2 3.84171 2 4.88V19.12C2 20.1583 2.8417 21 3.88 21H28.12C29.1583 21 30 20.1583 30 19.12V4.88C30 3.8417 29.1583 3 28.12 3ZM3.88 2C2.28942 2 1 3.28942 1 4.88V19.12C1 20.7106 2.28942 22 3.88 22H28.12C29.7106 22 31 20.7106 31 19.12V4.88C31 3.28942 29.7106 2 28.12 2H3.88Z" fill="black" fill-opacity="0.12"/>
</svg>
