<svg width="32" height="24" viewBox="0 0 32 24" fill="none" xmlns="http://www.w3.org/2000/svg">
<path d="M28.2739 2H3.7261C2.22052 2 1 3.21195 1 4.70696V19.293C1 20.7881 2.22052 22 3.7261 22H28.2739C29.7795 22 31 20.7881 31 19.293V4.70696C31 3.21195 29.7795 2 28.2739 2Z" fill="#B42B39"/>
<path d="M30.9999 9.91669H1V14.0834H30.9999V9.91669Z" fill="white"/>
<path fill-rule="evenodd" clip-rule="evenodd" d="M28.12 3H3.88C2.84171 3 2 3.84171 2 4.88V19.12C2 20.1583 2.8417 21 3.88 21H28.12C29.1583 21 30 20.1583 30 19.12V4.88C30 3.8417 29.1583 3 28.12 3ZM3.88 2C2.28942 2 1 3.28942 1 4.88V19.12C1 20.7106 2.28942 22 3.88 22H28.12C29.7106 22 31 20.7106 31 19.12V4.88C31 3.28942 29.7106 2 28.12 2H3.88Z" fill="black" fill-opacity="0.12"/>
</svg>
