<svg width="32" height="24" viewBox="0 0 32 24" fill="none" xmlns="http://www.w3.org/2000/svg">
<path d="M28.2743 2H3.73C3.00635 1.9989 2.31196 2.2776 1.79986 2.7747C1.28776 3.27179 0.999999 3.94646 1 4.65V12H31V4.65C31 3.94718 30.7128 3.27314 30.2016 2.77617C29.6905 2.2792 28.9972 2 28.2743 2Z" fill="#ED5565"/>
<path d="M1 19.2348C0.999999 19.9689 1.28776 20.6729 1.79986 21.1916C2.31196 21.7103 3.00635 22.0011 3.73 22H28.2743C29.7796 22 31 20.762 31 19.2348V12H1V19.2348Z" fill="white"/>
<path fill-rule="evenodd" clip-rule="evenodd" d="M28.12 3H3.88C2.84171 3 2 3.84171 2 4.88V19.12C2 20.1583 2.8417 21 3.88 21H28.12C29.1583 21 30 20.1583 30 19.12V4.88C30 3.8417 29.1583 3 28.12 3ZM3.88 2C2.28942 2 1 3.28942 1 4.88V19.12C1 20.7106 2.28942 22 3.88 22H28.12C29.7106 22 31 20.7106 31 19.12V4.88C31 3.28942 29.7106 2 28.12 2H3.88Z" fill="black" fill-opacity="0.12"/>
</svg>
