<svg width="32" height="24" viewBox="0 0 32 24" fill="none" xmlns="http://www.w3.org/2000/svg">
<path d="M1.12324 20.0851C1.1489 20.1702 1.17883 20.2525 1.21304 20.3319C1.28199 20.4929 1.36648 20.6468 1.46533 20.7915C1.5138 20.8624 1.56654 20.9319 1.62355 21C1.81318 21.2262 2.03847 21.4202 2.29063 21.5745C2.71843 21.8475 3.21493 21.995 3.72315 22H16C16 15.3333 16 8.66667 16 2H3.72315C2.22113 2 1.00351 3.21169 1.00351 4.70638V19.2894C0.99883 19.3815 0.99883 19.4738 1.00351 19.566C1.02609 19.7425 1.06619 19.9164 1.12324 20.0851Z" fill="white"/>
<path d="M20.9928 21.9532H28.2884C28.5358 21.9521 28.782 21.9177 29.0201 21.8511H29.1019L29.1923 21.817L29.3515 21.7574L29.4505 21.7106L29.5925 21.6426H29.6141C29.6829 21.6043 29.7518 21.566 29.8164 21.5191L29.9197 21.4426L30.0273 21.3617L30.0703 21.3234C30.1885 21.2235 30.2979 21.1139 30.3974 20.9957L30.4878 20.8723L30.5524 20.7872L30.6126 20.6894C30.6384 20.6468 30.6643 20.6085 30.6901 20.5617C30.7723 20.4123 30.8401 20.2556 30.8924 20.0936C30.8924 20.0255 30.9311 19.9574 30.944 19.8894V19.834C30.9812 19.6548 31 19.4723 31 19.2894V4.65106C31 4.4681 30.9812 4.28562 30.944 4.10638C30.944 4.02553 30.9053 3.94468 30.8838 3.86809C30.8315 3.70609 30.7637 3.54937 30.6815 3.4C30.6557 3.35745 30.6298 3.31489 30.604 3.27234L30.5438 3.17447L30.4792 3.08936L30.3888 2.96596L30.3286 2.90213L30.2123 2.77447L30.1047 2.68085L30.0187 2.6L29.9627 2.5617C29.8423 2.46756 29.7142 2.38358 29.5796 2.31064L29.4376 2.24255L29.3386 2.19574L29.1793 2.13617L29.089 2.10213H29.0072C28.7691 2.03549 28.5229 2.00114 28.2755 2H16C16 8.66667 16 15.3333 16 22L20.9928 21.9532Z" fill="#ED5565"/>
<path d="M8.86842 6.39474H7.60526V5.13158C7.60526 4.78277 7.3225 4.5 6.97368 4.5H6.02632C5.6775 4.5 5.39474 4.78277 5.39474 5.13158V6.39474H4.13158C3.78277 6.39474 3.5 6.6775 3.5 7.02632V7.97368C3.5 8.3225 3.78277 8.60526 4.13158 8.60526H5.39474V9.86842C5.39474 10.2172 5.6775 10.5 6.02632 10.5H6.97368C7.3225 10.5 7.60526 10.2172 7.60526 9.86842V8.60526H8.86842C9.21723 8.60526 9.5 8.3225 9.5 7.97368V7.02632C9.5 6.6775 9.21723 6.39474 8.86842 6.39474Z" fill="#CCD1D9"/>
<path fill-rule="evenodd" clip-rule="evenodd" d="M28.12 3H3.88C2.84171 3 2 3.84171 2 4.88V19.12C2 20.1583 2.8417 21 3.88 21H28.12C29.1583 21 30 20.1583 30 19.12V4.88C30 3.8417 29.1583 3 28.12 3ZM3.88 2C2.28942 2 1 3.28942 1 4.88V19.12C1 20.7106 2.28942 22 3.88 22H28.12C29.7106 22 31 20.7106 31 19.12V4.88C31 3.28942 29.7106 2 28.12 2H3.88Z" fill="black" fill-opacity="0.12"/>
</svg>
