<svg width="32" height="24" viewBox="0 0 32 24" fill="none" xmlns="http://www.w3.org/2000/svg">
<path d="M28.3127 2H3.68732C2.20316 2 1 3.14586 1 4.55936V19.4406C1 20.8541 2.20316 22 3.68732 22H28.3127C29.7968 22 31 20.8541 31 19.4406V4.55936C31 3.14586 29.7968 2 28.3127 2Z" fill="#ED5565"/>
<path d="M12 2H7V22H12V2Z" fill="white"/>
<path d="M1 14.5V9.5H31V14.5H1Z" fill="white"/>
<path d="M11 2H8V22H11V2Z" fill="#4758A9"/>
<path d="M1 13.5V10.5H31V13.5H1Z" fill="#4758A9"/>
<path fill-rule="evenodd" clip-rule="evenodd" d="M28.12 3H3.88C2.84171 3 2 3.84171 2 4.88V19.12C2 20.1583 2.8417 21 3.88 21H28.12C29.1583 21 30 20.1583 30 19.12V4.88C30 3.8417 29.1583 3 28.12 3ZM3.88 2C2.28942 2 1 3.28942 1 4.88V19.12C1 20.7106 2.28942 22 3.88 22H28.12C29.7106 22 31 20.7106 31 19.12V4.88C31 3.28942 29.7106 2 28.12 2H3.88Z" fill="black" fill-opacity="0.12"/>
</svg>
