<svg width="32" height="24" viewBox="0 0 32 24" fill="none" xmlns="http://www.w3.org/2000/svg">
<path d="M27.3514 2H4.64865C2.63356 2 1 3.75193 1 5.91304V18.087C1 20.2481 2.63356 22 4.64865 22H27.3514C29.3664 22 31 20.2481 31 18.087V5.91304C31 3.75193 29.3664 2 27.3514 2Z" fill="white"/>
<path fill-rule="evenodd" clip-rule="evenodd" d="M27.2 3H4.8C3.2536 3 2 4.2536 2 5.8V18.2C2 19.7464 3.2536 21 4.8 21H27.2C28.7464 21 30 19.7464 30 18.2V5.8C30 4.2536 28.7464 3 27.2 3ZM4.8 2C2.70132 2 1 3.70132 1 5.8V18.2C1 20.2987 2.70132 22 4.8 22H27.2C29.2987 22 31 20.2987 31 18.2V5.8C31 3.70132 29.2987 2 27.2 2H4.8Z" fill="black" fill-opacity="0.12"/>
<path d="M16 20C20.4183 20 24 16.4183 24 12C24 7.58172 20.4183 4 16 4C11.5817 4 8 7.58172 8 12C8 16.4183 11.5817 20 16 20Z" fill="#C9D0D0"/>
<path d="M19.4906 16.2602C18.5585 17.2088 18.4817 16.2602 18.4817 16.2602C18.4817 16.2602 18.3227 14.8675 18.2843 14.4891C18.2459 14.1108 17.1931 14.5056 17.0177 13.0744C16.8422 11.6433 17.6318 11.6378 18.0924 11.5008C18.0924 11.5008 20.834 10.9086 20.5214 13.9572C20.516 13.9737 20.3131 15.4322 19.4906 16.2602Z" fill="#042522"/>
<path fill-rule="evenodd" clip-rule="evenodd" d="M23.6785 9.82817C23.0497 7.59022 21.4718 5.74947 19.4066 4.76764C19.1281 5.12443 18.5906 5.87654 18.3062 6.69408C17.9114 7.82911 17.7963 8.70642 18.5639 9.38634C18.5721 9.39357 18.5816 9.40182 18.5922 9.41102C18.7667 9.56228 19.2352 9.96839 18.8217 10.2527C18.5901 10.4119 18.4533 10.3877 18.3378 10.3673C18.2345 10.3491 18.1483 10.3339 18.0266 10.4556C17.8018 10.6859 18.043 11.1245 18.2569 11.2232C18.3953 11.2841 18.51 11.1941 18.6425 11.0899C18.7725 10.9879 18.9196 10.8723 19.1232 10.8723C19.1232 10.8723 19.2932 10.8723 19.2877 10.8833C20.3678 11.034 20.4307 10.7014 20.4885 10.3958C20.4938 10.3678 20.499 10.3401 20.505 10.313C20.6477 9.69952 20.9553 10.0636 21.1096 10.2461C21.1332 10.274 21.1532 10.2977 21.1685 10.313C21.6071 10.7681 22.6983 11.4206 23.3234 10.5159C23.4872 10.2787 23.594 10.0462 23.6785 9.82817Z" fill="#042522"/>
<path fill-rule="evenodd" clip-rule="evenodd" d="M8.71289 8.69017C8.71674 8.70544 8.72067 8.72105 8.72469 8.73698C8.80431 9.05271 8.9168 9.49878 9.04556 10.0971C9.04556 10.0971 9.14425 10.5084 9.42938 10.8374C9.53838 10.9656 9.6632 11.0563 9.78113 11.1421C9.96575 11.2763 10.1335 11.3982 10.197 11.6324C10.2683 11.8901 10.5644 12.2301 10.7399 12.411C10.4383 12.411 10.2409 12.422 10.2409 12.422C10.2409 12.422 9.4897 12.7346 9.57743 13.6722C9.66516 14.6098 10.0216 14.725 10.4164 14.8072C10.4164 14.8072 10.9976 14.9607 11.0798 16.2109C11.1621 17.4611 11.5623 17.9436 11.5623 17.9436C11.6446 18.0971 12.3848 18.3823 12.5658 17.5598C12.5658 17.5598 13.1305 15.7997 13.2512 15.2349C13.3773 14.6701 13.2621 14.1437 13.2621 14.1437C13.2199 14.0169 13.1926 13.8617 13.1636 13.6973C13.0688 13.158 12.9566 12.5205 12.2423 12.4659C12.2013 12.463 12.1599 12.4599 12.1183 12.4567C11.9262 12.4423 11.7287 12.4275 11.5349 12.4275L11.5343 12.4271C11.46 12.3871 10.8492 12.0583 10.7508 11.4625C10.6521 10.8209 11.3485 9.91619 11.3485 9.91619C11.4138 9.78561 11.5664 9.68416 11.7468 9.56429C12.036 9.37207 12.3965 9.1325 12.5822 8.64957C12.8703 7.90046 12.8181 7.59677 12.7603 7.26037C12.7576 7.24466 12.7549 7.22887 12.7522 7.21297C12.7083 6.93332 12.8674 6.67561 13.5747 6.46177C14.5063 6.17754 13.8565 4.44322 13.8029 4.30469C11.5336 4.95091 9.67576 6.5739 8.71289 8.69017Z" fill="#042522"/>
<path d="M21.7566 14.3333C21.7566 14.6095 21.9805 14.8333 22.2566 14.8333H24.7364C25.0125 14.8333 25.2364 14.6095 25.2364 14.3333C25.2364 13.9545 25.329 13.6551 25.4955 13.4124C25.714 13.1146 26.0553 12.7523 26.5342 12.3238L26.536 12.3222C26.9467 11.9512 27.2854 11.62 27.5479 11.3299L27.548 11.33L27.5555 11.3212C27.8409 10.9909 28.0744 10.6012 28.2605 10.1591C28.4753 9.68055 28.5753 9.14149 28.5753 8.5537C28.5753 7.29343 28.0674 6.27479 27.0617 5.55279C26.0905 4.83311 24.8167 4.5 23.2915 4.5C22.0377 4.5 20.9216 4.71789 19.9572 5.17113C18.9969 5.60942 18.207 6.24923 17.5959 7.08766C17.5151 7.19859 17.4834 7.33789 17.5083 7.47289C17.5332 7.60788 17.6125 7.7267 17.7277 7.80147L19.6217 9.03159C19.846 9.17732 20.1454 9.1206 20.3009 8.90289C20.9087 8.05199 21.806 7.60879 23.0767 7.60879C23.7452 7.60879 24.2194 7.76098 24.5498 8.01364C24.8715 8.2596 25.0174 8.55668 25.0174 8.94421C25.0174 9.22654 24.9354 9.47274 24.766 9.69861L24.766 9.6986L24.7639 9.70141C24.5724 9.96046 24.2566 10.292 23.7989 10.6988L23.7979 10.6997C23.1685 11.2622 22.6697 11.799 22.3146 12.3103L22.3129 12.3128C21.9296 12.8717 21.7566 13.5569 21.7566 14.3333ZM22.0125 18.916C22.0176 18.9214 22.0228 18.9266 22.0282 18.9318C22.4303 19.3164 22.9359 19.5 23.5063 19.5C24.0679 19.5 24.564 19.3133 24.9533 18.924C25.348 18.5293 25.5488 18.037 25.5488 17.477C25.5488 16.9185 25.3487 16.4295 24.9493 16.0456C24.5606 15.6589 24.066 15.4735 23.5063 15.4735C22.9359 15.4735 22.4303 15.6571 22.0282 16.0417L22.0281 16.0417L22.0202 16.0495C21.634 16.4358 21.4442 16.9237 21.4442 17.477C21.4442 18.0301 21.6335 18.5199 22.0125 18.916Z" fill="#E26F50" stroke="white" stroke-linejoin="round"/>
</svg>
