<svg width="32" height="24" viewBox="0 0 32 24" fill="none" xmlns="http://www.w3.org/2000/svg">
<path d="M28.2743 2H3.72571C2.22034 2 1 3.18645 1 4.65V12H31V4.65C31 3.18645 29.7797 2 28.2743 2Z" fill="#4758A9"/>
<path d="M1.00429 19.2336C1.00429 20.7614 2.22463 22 3.73 22H28.2743C28.9972 22 29.6905 21.7085 30.2017 21.1897C30.7128 20.6709 31 19.9673 31 19.2336V12H1L1.00429 19.2336Z" fill="#ED5565"/>
<path d="M3.50005 2C2.00005 2 0.998368 3.30593 1 4.09313V19.893C1.00057 20.6884 2.00005 22 3.50005 22L13.0001 12L3.50005 2Z" fill="white"/>
<path d="M6 14C7.10457 14 8 13.1046 8 12C8 10.8954 7.10457 10 6 10C4.89543 10 4 10.8954 4 12C4 13.1046 4.89543 14 6 14Z" fill="#F6D660"/>
<path fill-rule="evenodd" clip-rule="evenodd" d="M28.12 3H3.88C2.84171 3 2 3.84171 2 4.88V19.12C2 20.1583 2.8417 21 3.88 21H28.12C29.1583 21 30 20.1583 30 19.12V4.88C30 3.8417 29.1583 3 28.12 3ZM3.88 2C2.28942 2 1 3.28942 1 4.88V19.12C1 20.7106 2.28942 22 3.88 22H28.12C29.7106 22 31 20.7106 31 19.12V4.88C31 3.28942 29.7106 2 28.12 2H3.88Z" fill="black" fill-opacity="0.12"/>
</svg>
