<svg width="32" height="24" viewBox="0 0 32 24" fill="none" xmlns="http://www.w3.org/2000/svg">
<path d="M28.27 2H3.72571C2.22034 2 1 3.18645 1 4.65V12H31V4.65C31 3.94646 30.7122 3.27179 30.2001 2.7747C29.688 2.2776 28.9936 1.9989 28.27 2Z" fill="white"/>
<path d="M1.00429 19.2336C1.00429 20.7614 2.22463 22 3.73 22H28.2743C29.7797 22 31 20.7614 31 19.2336V12H1L1.00429 19.2336Z" fill="#ED5565"/>
<path fill-rule="evenodd" clip-rule="evenodd" d="M28.12 3H3.88C2.84171 3 2 3.84171 2 4.88V19.12C2 20.1583 2.8417 21 3.88 21H28.12C29.1583 21 30 20.1583 30 19.12V4.88C30 3.8417 29.1583 3 28.12 3ZM3.88 2C2.28942 2 1 3.28942 1 4.88V19.12C1 20.7106 2.28942 22 3.88 22H28.12C29.7106 22 31 20.7106 31 19.12V4.88C31 3.28942 29.7106 2 28.12 2H3.88Z" fill="black" fill-opacity="0.12"/>
</svg>
