<svg width="32" height="24" viewBox="0 0 32 24" fill="none" xmlns="http://www.w3.org/2000/svg">
<path d="M3.63963 2.00425C2.1818 2.00425 1 3.21571 1 4.71011V19.2902C1 20.7846 2.1818 21.9961 3.63963 21.9961H12.6667V2L3.63963 2.00425Z" fill="#57A863"/>
<path d="M30.9998 19.286V4.70585C30.9998 3.21145 29.7536 2 28.2164 2H12.6665V21.9961L28.2032 21.9961C28.9445 21.9995 29.6565 21.7153 30.1815 21.2066C30.7065 20.6979 31.001 20.0066 30.9998 19.286Z" fill="#ED5565"/>
<path d="M12.6665 17C15.4279 17 17.6665 14.7614 17.6665 12C17.6665 9.23858 15.4279 7 12.6665 7C9.90508 7 7.6665 9.23858 7.6665 12C7.6665 14.7614 9.90508 17 12.6665 17Z" fill="#FFCE54"/>
<path d="M15.1655 9.5H10.1658V12.6775C10.146 13.9844 11.0687 15.1071 12.3303 15.3111C13.0447 15.408 13.7653 15.1854 14.3081 14.7002C14.8509 14.2151 15.1633 13.5143 15.1655 12.7768V9.50432V9.5Z" fill="#ED5565"/>
<path d="M14.1248 10.75V12.7369C14.1248 13.4809 13.4717 14.084 12.6661 14.084C11.8606 14.084 11.2075 13.4809 11.2075 12.7369V10.75H14.1248Z" fill="white"/>
<path d="M12.6663 12.0002C12.8964 12.0002 13.083 11.8136 13.083 11.5834C13.083 11.3533 12.8964 11.1667 12.6663 11.1667C12.4361 11.1667 12.2495 11.3533 12.2495 11.5834C12.2495 11.8136 12.4361 12.0002 12.6663 12.0002Z" fill="#4758A9"/>
<path d="M12.6663 13.6668C12.8964 13.6668 13.083 13.4802 13.083 13.2501C13.083 13.0199 12.8964 12.8333 12.6663 12.8333C12.4361 12.8333 12.2495 13.0199 12.2495 13.2501C12.2495 13.4802 12.4361 13.6668 12.6663 13.6668Z" fill="#4758A9"/>
<path d="M12.6663 12.8335C12.8964 12.8335 13.083 12.6469 13.083 12.4167C13.083 12.1866 12.8964 12 12.6663 12C12.4361 12 12.2495 12.1866 12.2495 12.4167C12.2495 12.6469 12.4361 12.8335 12.6663 12.8335Z" fill="#4758A9"/>
<path d="M11.8337 12.8345C12.0639 12.8345 12.2505 12.6479 12.2505 12.4177C12.2505 12.1876 12.0639 12.001 11.8337 12.001C11.6036 12.001 11.417 12.1876 11.417 12.4177C11.417 12.6479 11.6036 12.8345 11.8337 12.8345Z" fill="#4758A9"/>
<path d="M13.4998 12.8335C13.7299 12.8335 13.9165 12.6469 13.9165 12.4167C13.9165 12.1866 13.7299 12 13.4998 12C13.2696 12 13.083 12.1866 13.083 12.4167C13.083 12.6469 13.2696 12.8335 13.4998 12.8335Z" fill="#4758A9"/>
<path fill-rule="evenodd" clip-rule="evenodd" d="M28.12 3H3.88C2.84171 3 2 3.84171 2 4.88V19.12C2 20.1583 2.8417 21 3.88 21H28.12C29.1583 21 30 20.1583 30 19.12V4.88C30 3.8417 29.1583 3 28.12 3ZM3.88 2C2.28942 2 1 3.28942 1 4.88V19.12C1 20.7106 2.28942 22 3.88 22H28.12C29.7106 22 31 20.7106 31 19.12V4.88C31 3.28942 29.7106 2 28.12 2H3.88Z" fill="black" fill-opacity="0.12"/>
</svg>
