<svg width="32" height="24" viewBox="0 0 32 24" fill="none" xmlns="http://www.w3.org/2000/svg">
<path d="M3.7226 2.00426C2.21895 2.00426 1 3.21594 1 4.71064V19.2936C1 20.7883 2.21895 22 3.7226 22H11C11 15.3333 11 8.66667 11 2L3.7226 2.00426Z" fill="#4A89DC"/>
<path d="M11 2C11 8.66667 11 15.3333 11 22H21C21 15.3333 21 8.66667 21 2H11Z" fill="#FFCE54"/>
<path d="M28.2716 2H21C21 8.66667 21 15.3333 21 22H28.2716C29.7784 22 31 20.7883 31 19.2936V4.71064C31.0011 3.99212 30.7142 3.30265 30.2024 2.79419C29.6906 2.28572 28.9959 2 28.2716 2Z" fill="#ED5565"/>
<path fill-rule="evenodd" clip-rule="evenodd" d="M28.12 3H3.88C2.84171 3 2 3.84171 2 4.88V19.12C2 20.1583 2.8417 21 3.88 21H28.12C29.1583 21 30 20.1583 30 19.12V4.88C30 3.8417 29.1583 3 28.12 3ZM3.88 2C2.28942 2 1 3.28942 1 4.88V19.12C1 20.7106 2.28942 22 3.88 22H28.12C29.7106 22 31 20.7106 31 19.12V4.88C31 3.28942 29.7106 2 28.12 2H3.88Z" fill="black" fill-opacity="0.12"/>
</svg>
