<svg width="32" height="24" viewBox="0 0 32 24" fill="none" xmlns="http://www.w3.org/2000/svg">
<path d="M1 4.82737V8.66561H31V4.82737C31 3.26343 29.7259 1.99561 28.1543 1.99561H3.84571C2.27407 1.99561 1 3.26343 1 4.82737Z" fill="#ED5565"/>
<path d="M1 15.34H31V8.66998H1V15.34Z" fill="#4758A9"/>
<path d="M1 19.1683C1 20.7322 2.27407 22 3.84571 22H28.1543C29.7259 22 31 20.7322 31 19.1683V15.33H1V19.1683Z" fill="white"/>
<path d="M12.393 10.168L12.0904 8.2922H13.174L12.4952 7.24177L12.0863 7H10.4548L9.94366 10.168H9.05634L8.54112 7H6.91368L6.50068 7.24177L5.8219 8.2922H6.90959L6.607 10.168H5L7.62517 17H11.3667L14 10.168H12.393Z" fill="#FFCE54"/>
<path fill-rule="evenodd" clip-rule="evenodd" d="M28.12 3H3.88C2.84171 3 2 3.84171 2 4.88V19.12C2 20.1583 2.8417 21 3.88 21H28.12C29.1583 21 30 20.1583 30 19.12V4.88C30 3.8417 29.1583 3 28.12 3ZM3.88 2C2.28942 2 1 3.28942 1 4.88V19.12C1 20.7106 2.28942 22 3.88 22H28.12C29.7106 22 31 20.7106 31 19.12V4.88C31 3.28942 29.7106 2 28.12 2H3.88Z" fill="black" fill-opacity="0.12"/>
</svg>
