<svg width="32" height="24" viewBox="0 0 32 24" fill="none" xmlns="http://www.w3.org/2000/svg">
<path d="M1 4.83035V8.66667H30.9998V4.83035C30.9998 3.26719 29.7258 2 28.1541 2H3.8457C2.27406 2 1 3.26719 1 4.83035Z" fill="white"/>
<path d="M1 15.3334H30.9998V8.66669H1V15.3334Z" fill="#4758A9"/>
<path d="M1 19.1696C1 20.7328 2.27406 22 3.8457 22H28.1541C29.7258 22 30.9998 20.7328 30.9998 19.1696V15.3333H1V19.1696Z" fill="#ED5565"/>
<path d="M15.3087 4.15576V8.4928C15.3087 11.8977 11.4516 13.2767 11.3058 13.3363C11.2149 13.3676 11.1193 13.3834 11.023 13.3831C10.9267 13.3834 10.8311 13.3676 10.7401 13.3363C10.5773 13.281 6.77159 11.919 6.7373 8.50557V4.15576H15.3087ZM8.45158 5.007V8.4928C8.45158 10.2889 10.303 11.2891 11.023 11.6126C11.743 11.2891 13.5944 10.2804 13.5944 8.4928V5.007H8.45158Z" fill="#ED5565"/>
<path d="M7.59424 4.15576V8.4928C7.62424 11.3487 11.0228 12.5319 11.0228 12.5319C11.0228 12.5319 14.4513 11.3487 14.4513 8.4928V4.15576H7.59424Z" fill="#4758A9"/>
<path d="M7.85547 9.77395C8.65689 11.7063 11.0183 12.5319 11.0183 12.5319C11.0183 12.5319 13.3926 11.7063 14.1854 9.78246L11.0183 6.63715L7.85547 9.77395Z" fill="white"/>
<path fill-rule="evenodd" clip-rule="evenodd" d="M28.12 3H3.88C2.84171 3 2 3.84171 2 4.88V19.12C2 20.1583 2.8417 21 3.88 21H28.12C29.1583 21 30 20.1583 30 19.12V4.88C30 3.8417 29.1583 3 28.12 3ZM3.88 2C2.28942 2 1 3.28942 1 4.88V19.12C1 20.7106 2.28942 22 3.88 22H28.12C29.7106 22 31 20.7106 31 19.12V4.88C31 3.28942 29.7106 2 28.12 2H3.88Z" fill="black" fill-opacity="0.12"/>
</svg>
