<svg width="32" height="24" viewBox="0 0 32 24" fill="none" xmlns="http://www.w3.org/2000/svg">
<path d="M1 4.83035V8.66667H31V4.83035C31 3.26719 29.7259 2 28.1543 2H3.84571C2.27407 2 1 3.26719 1 4.83035Z" fill="white"/>
<path d="M1 15.3334H31V8.66669H1V15.3334Z" fill="#4758A9"/>
<path d="M1 19.1696C1 20.7328 2.27388 22 3.8453 22H28.1546C29.726 22 30.9999 20.7328 30.9999 19.1696V15.3333H1.00429L1 19.1696Z" fill="#ED5565"/>
<path d="M11.1821 17.1581C11.0858 17.1583 10.9902 17.1425 10.8992 17.1112C10.7364 17.0559 6.93125 15.6939 6.89697 12.2805V7.92637C6.89697 7.45625 7.28067 7.07513 7.75399 7.07513H14.6101C15.0834 7.07513 15.4671 7.45625 15.4671 7.92637V12.2634C15.4671 15.6684 11.6106 17.0474 11.4649 17.107C11.3742 17.1397 11.2786 17.157 11.1821 17.1581ZM8.61101 8.78187V12.2677C8.61101 14.0638 10.4622 15.064 11.1821 15.3875C11.902 15.064 13.7531 14.0553 13.7531 12.2677V8.78187H8.61101Z" fill="white"/>
<path d="M7.75439 7.92639V12.2635C7.78439 15.1194 11.1825 16.3026 11.1825 16.3026C11.1825 16.3026 14.6105 15.1194 14.6105 12.2635V7.92639H7.75439Z" fill="#ED5565"/>
<path d="M11.7178 7.76892H10.6465V14.4256H11.7178V7.76892Z" fill="white"/>
<path d="M13.0204 9.00317H9.34375V10.0672H13.0204V9.00317Z" fill="white"/>
<path d="M13.5907 11.1313H8.77002V12.1953H13.5907V11.1313Z" fill="white"/>
<path d="M11.1778 16.3068C11.1778 16.3068 13.9245 15.3534 14.4944 13.0977H7.85254C8.45245 15.3534 11.1778 16.3068 11.1778 16.3068Z" fill="#4758A9"/>
<path fill-rule="evenodd" clip-rule="evenodd" d="M28.12 3H3.88C2.84171 3 2 3.84171 2 4.88V19.12C2 20.1583 2.8417 21 3.88 21H28.12C29.1583 21 30 20.1583 30 19.12V4.88C30 3.8417 29.1583 3 28.12 3ZM3.88 2C2.28942 2 1 3.28942 1 4.88V19.12C1 20.7106 2.28942 22 3.88 22H28.12C29.7106 22 31 20.7106 31 19.12V4.88C31 3.28942 29.7106 2 28.12 2H3.88Z" fill="black" fill-opacity="0.12"/>
</svg>
