<svg width="32" height="24" viewBox="0 0 32 24" fill="none" xmlns="http://www.w3.org/2000/svg">
<path d="M28.27 2H3.72571C2.22034 2 1 3.18645 1 4.65001V12H31V4.63334C30.9906 3.17467 29.7704 1.99768 28.27 2Z" fill="white"/>
<path d="M1.00429 19.2336C1.00429 20.7614 2.22463 22 3.73 22H28.2743C29.7797 22 31 20.7614 31 19.2336V12H1L1.00429 19.2336Z" fill="#3BAFDA"/>
<path d="M9.3998 12.4185C9.33446 12.4185 9.28149 12.4689 9.28149 12.5312C9.28149 12.5934 9.33446 12.6439 9.3998 12.6439C9.46515 12.6439 9.51811 12.5934 9.51811 12.5312C9.51811 12.4689 9.46515 12.4185 9.3998 12.4185ZM10.6674 13.9195C10.6021 13.9195 10.5491 13.97 10.5491 14.0322C10.5491 14.0944 10.6021 14.1449 10.6674 14.1449C10.7328 14.1449 10.7857 14.0944 10.7857 14.0322C10.7857 13.97 10.7328 13.9195 10.6674 13.9195ZM23.5252 11.8028C23.5 11.7123 23.5438 11.6172 23.6308 11.5734C23.7153 11.4809 23.7702 11.3843 23.6561 11.2917H23.6139C23.6942 11.1549 23.6519 10.9899 23.5505 10.9819C23.3696 10.9726 23.1912 11.0254 23.0477 11.1308C22.7857 10.8853 22.735 11.1549 22.659 11.3923C22.6039 11.3582 22.5357 11.3494 22.473 11.3682C22.4956 11.5829 22.4339 11.7979 22.2998 11.9718C22.1942 12.008 22.0632 12.0483 21.9406 12.0966C21.9869 12.0571 22.0193 12.0052 22.0336 11.9477C22.0454 11.8437 22.1102 11.7519 22.2068 11.7022C22.3093 11.6598 22.3579 11.5476 22.3167 11.4487C22.2853 11.4242 22.2707 11.3852 22.2787 11.3473C22.2866 11.3094 22.3159 11.2787 22.3547 11.2676C22.4395 11.2459 22.4903 11.1635 22.4688 11.0825C22.4179 11.0074 22.4026 10.9154 22.4266 10.829C22.4604 10.7565 22.3125 10.6881 22.1857 10.8048C22.075 10.91 22.0344 11.0648 22.0801 11.2072C22.1054 11.2998 21.9914 11.2877 21.9237 11.2716C21.9797 11.2165 22.0087 11.1416 22.0039 11.0651C21.9991 10.9886 21.9608 10.9176 21.8984 10.8692C21.7674 10.7767 21.7463 10.8491 21.6449 10.9698C21.5912 11.0249 21.5719 11.1029 21.5942 11.175C21.6088 11.2028 21.6113 11.2349 21.601 11.2644C21.5906 11.2938 21.5684 11.3182 21.5392 11.332C21.5053 11.3507 21.4844 11.3852 21.4844 11.4225C21.4844 11.4599 21.5053 11.4944 21.5392 11.5131C21.6195 11.5775 21.6111 11.6217 21.5392 11.7022C21.4716 11.791 21.4716 11.9112 21.5392 12C21.5899 12.0826 21.6051 12.1806 21.5815 12.2736C21.5584 12.4485 21.4804 12.6126 21.3576 12.7445C21.2706 12.8327 21.203 12.9367 21.159 13.0503C21.0257 13.1753 20.8696 13.2762 20.6984 13.3481C20.7069 13.2934 20.7069 13.2378 20.6984 13.1831C20.728 13.0763 20.7478 12.9672 20.7576 12.8571C20.7655 12.8379 20.7769 12.8202 20.7914 12.8048C20.9477 12.664 20.8294 12.4829 20.9308 12.4024C21.0322 12.3219 21.028 12.2294 20.9308 12.2374C20.8336 12.2455 20.8716 12.2374 20.8716 12.2052C20.8848 12.1708 20.9003 12.1371 20.9181 12.1046V12.0845C20.9422 12.0601 20.9609 12.0314 20.973 12L21.0111 11.9477C21.049 11.9887 21.0777 12.0366 21.0956 12.0885C21.0449 12.1891 21.0618 12.2897 21.1505 12.2736C21.3576 12.3984 21.5054 12.3058 21.3364 12.0966C21.366 12.0282 21.3364 12 21.197 12C21.1401 11.9584 21.0963 11.9027 21.0702 11.839C21.104 11.6579 21.235 11.4728 21.235 11.3803C21.2475 11.2668 21.2996 11.1605 21.3829 11.0785C21.4907 10.9379 21.5417 10.765 21.5266 10.5915C21.6191 10.456 21.7364 10.3374 21.873 10.2414C21.9576 10.1811 22.0209 10.0765 21.9449 10.0322C21.9045 10.0144 21.8787 9.97592 21.8787 9.93359C21.8787 9.89126 21.9045 9.85279 21.9449 9.835C22.0114 9.80411 22.049 9.73563 22.0378 9.66599C22.1604 9.6177 22.2533 9.66599 22.2533 9.72233C22.2533 9.77866 22.2914 9.82293 22.3547 9.80683C22.4329 9.79219 22.5132 9.79219 22.5914 9.80683C22.697 9.80683 22.6759 9.80683 22.6674 9.72233C22.659 9.63782 22.6674 9.60965 22.7519 9.68611C22.7674 9.70873 22.7918 9.72446 22.8197 9.72976C22.8475 9.73506 22.8764 9.72948 22.8998 9.71428L22.9294 9.68611C22.948 9.59502 22.9061 9.50237 22.8237 9.45271C22.7392 9.40442 22.7012 9.35613 22.7392 9.31186C22.7773 9.2676 22.7942 9.26357 22.6632 9.23138C22.4083 9.18439 22.1465 9.27209 21.9787 9.46076L21.9406 9.42051C21.8857 9.3843 21.9068 9.33601 21.9406 9.28369C21.9745 9.23138 21.9406 9.15895 21.7885 9.2354C21.6841 9.27383 21.6097 9.36317 21.5942 9.4688C21.5942 9.53721 21.5942 9.56136 21.497 9.59355C21.4033 9.63543 21.362 9.74093 21.404 9.83098C21.4342 9.89096 21.492 9.93412 21.5604 9.94768C21.6406 9.94768 21.666 10.0604 21.5604 10.0282C21.4547 9.99597 21.3449 10.0282 21.3956 10.1288C21.4058 10.2493 21.4058 10.3704 21.3956 10.4909C21.3289 10.5811 21.2989 10.6912 21.3111 10.8008C21.2934 10.9168 21.2471 11.0271 21.1759 11.1227C21.1759 10.8531 21.1463 10.2253 21.1421 9.72635C21.1546 9.67744 21.1546 9.62637 21.1421 9.57746C21.2012 9.38027 21.366 9.02212 21.5646 9.002C21.6377 9.01266 21.7101 8.97898 21.7463 8.9175C21.7439 8.89506 21.7511 8.87266 21.7662 8.85528C21.7812 8.8379 21.803 8.82698 21.8266 8.82494C21.8773 8.82494 21.8984 8.74043 21.8266 8.67202C21.8035 8.64165 21.7941 8.60375 21.8004 8.56674C21.8067 8.52972 21.8283 8.49665 21.8604 8.47484H21.8815C21.9654 8.44808 22.0108 8.36168 21.9829 8.28168V8.24949C21.9367 8.19161 21.8598 8.16408 21.785 8.17867C21.7102 8.19326 21.6508 8.24738 21.6322 8.3179C21.5899 8.39838 21.5646 8.43058 21.5012 8.39033C21.4522 8.36151 21.3901 8.3624 21.342 8.39264C21.2939 8.42287 21.2687 8.47693 21.2773 8.53118C21.3474 8.7179 21.3257 8.92477 21.2181 9.09456L21.1928 9.13882C21.1928 9.07041 21.2266 9.01005 21.2392 8.97383C21.2796 8.86744 21.2397 8.74853 21.1421 8.6841C21.0618 8.65995 21.0702 8.62776 21.1421 8.51106C21.2392 8.28973 21.1421 8.23339 21.028 8.18913C20.9349 8.16593 20.8622 8.09669 20.8378 8.00804C20.8252 7.96487 20.7946 7.92846 20.7531 7.90721C20.7117 7.88596 20.6629 7.88168 20.6181 7.89536C20.5679 7.90815 20.5276 7.94387 20.5107 7.99067C20.4938 8.03746 20.5023 8.08922 20.5336 8.12876C20.5602 8.15372 20.5752 8.18778 20.5752 8.22333C20.5752 8.25888 20.5602 8.29294 20.5336 8.3179C20.4787 8.37826 20.5336 8.49899 20.6688 8.46679C20.658 8.54278 20.701 8.61647 20.7745 8.64788C20.8252 8.6841 20.804 8.74043 20.7491 8.82897C20.747 8.79403 20.73 8.76143 20.7021 8.73865C20.6742 8.71588 20.6378 8.7049 20.6012 8.70824C20.4702 8.73239 20.4449 8.70824 20.4111 8.62373C20.3443 8.54759 20.2256 8.53682 20.1449 8.59959C20.0435 8.68007 19.8998 8.92555 20.1956 8.89738C20.3223 8.89738 20.3857 8.89738 20.3223 8.96579C20.2779 9.00919 20.2665 9.0744 20.2938 9.12918C20.3212 9.18396 20.3814 9.21671 20.4449 9.21126C20.5321 9.20962 20.6186 9.2261 20.6984 9.25955C20.5759 9.30381 20.5632 9.37223 20.6646 9.42051C20.8334 9.44608 20.9743 9.55709 21.0322 9.71025C21.0524 9.82196 21.0637 9.93495 21.066 10.0483C21.066 10.0925 21.0237 10.0483 21.028 10.0483C21.028 10.0283 21.0109 10.0121 20.9899 10.0121C20.9223 9.87927 20.8294 9.81488 20.7745 9.85512C20.7478 9.95626 20.7879 10.0627 20.8759 10.1247C20.804 10.2173 20.8759 10.3219 20.9519 10.2978C20.9903 10.2689 21.0445 10.2689 21.0829 10.2978C21.1166 10.4829 21.1166 10.6721 21.0829 10.8571C21.0582 10.9625 21.0701 11.0726 21.1167 11.171C21.1465 11.2765 21.1465 11.3875 21.1167 11.4929C21.0626 11.626 20.9932 11.7528 20.9097 11.8712C20.8476 11.895 20.7966 11.9393 20.766 11.996C20.7782 11.8869 20.8173 11.7821 20.8801 11.6901C20.9135 11.6594 20.928 11.6146 20.9186 11.5713C20.9092 11.528 20.8771 11.4923 20.8336 11.4769C20.7322 11.4366 20.504 11.5251 20.6266 11.8471C20.6012 11.7746 20.5294 11.7907 20.4618 11.9034C20.3985 11.9741 20.3985 12.0782 20.4618 12.1489C20.5264 12.1955 20.5413 12.2823 20.4956 12.3461C20.4528 12.4243 20.4804 12.5207 20.559 12.5674C20.6311 12.6406 20.6597 12.7434 20.635 12.841C20.6224 12.9588 20.6224 13.0774 20.635 13.1952C20.597 13.34 20.5336 13.4769 20.504 13.5976C20.4849 13.6604 20.4533 13.7191 20.4111 13.7706C20.4329 13.7268 20.4416 13.678 20.4364 13.6298C20.4271 13.5629 20.4452 13.4951 20.4871 13.4406C20.5267 13.363 20.5017 13.2695 20.428 13.2193C20.3954 13.2002 20.3721 13.1695 20.3634 13.134C20.3547 13.0984 20.3612 13.0611 20.3815 13.0302L20.4111 12.998C20.4402 12.9706 20.4459 12.9278 20.4249 12.8943C20.4038 12.8609 20.3614 12.8455 20.3223 12.8571H20.2759C20.2759 12.6398 20.2378 12.2253 20.2294 12.0523C20.2154 11.8651 20.288 11.6814 20.428 11.5493C20.4741 11.5292 20.5098 11.4923 20.5273 11.447C20.5447 11.4017 20.5424 11.3516 20.5209 11.3078C20.5039 11.2716 20.5029 11.2303 20.5179 11.1933C20.533 11.1563 20.563 11.1265 20.6012 11.1107C20.692 11.0479 20.724 10.9332 20.678 10.8358C20.632 10.7384 20.5205 10.6851 20.4111 10.7082C20.5125 10.5996 20.3646 10.3702 20.4533 10.3058C20.5294 10.2683 20.5803 10.1967 20.5889 10.1155C20.5974 10.0343 20.5623 9.95457 20.4956 9.90341C20.5421 9.74647 20.3942 9.73037 20.4364 9.59758C20.4787 9.46478 20.3646 9.42454 20.2801 9.54124C20.1956 9.65794 20.1745 9.63379 20.1153 9.56538C20.0836 9.51671 20.0295 9.48521 19.9696 9.48046C19.9096 9.4757 19.8508 9.49824 19.8111 9.54124C19.7688 9.87122 19.7519 12.0845 20.073 12.1207C20.073 12.2374 20.1364 12.6157 20.1702 12.8692C20.1466 12.8598 20.125 12.8461 20.1068 12.829C20.0181 12.7565 19.9843 12.8531 20.0266 12.9457C20.0688 13.0382 19.9378 13.0101 20.0266 13.1107C20.0629 13.1621 20.0927 13.2175 20.1153 13.2756C19.9759 13.1952 19.904 13.3682 19.9505 13.5211C19.9749 13.5994 19.9835 13.6813 19.9759 13.7626V13.7384C19.9026 13.681 19.8447 13.608 19.8068 13.5251V13.4567C19.8075 13.4015 19.8267 13.3479 19.8618 13.3038C19.9505 13.1952 20.0688 13.0422 19.7561 12.7686C19.5828 12.9989 19.4567 13.2583 19.3843 13.5332C19.4109 13.6955 19.5054 13.8407 19.6463 13.9356C19.594 13.9326 19.5429 13.9517 19.5068 13.9879C19.4789 14.0424 19.4181 14.0746 19.3547 14.0684H19.3252C19.2163 14.0327 19.096 14.0508 19.004 14.1167C18.9223 14.1945 18.8716 14.2969 18.8604 14.4064C18.8681 14.4885 18.8371 14.5696 18.7759 14.6278C18.7125 14.672 18.6322 14.7767 18.7463 14.8491C18.8074 14.8718 18.8753 14.8718 18.9364 14.8491C18.7749 14.9795 18.5922 15.0842 18.3956 15.1589C18.4412 14.984 18.4527 14.8026 18.4294 14.6237L18.1885 14.8934C18.2392 15.3964 17.9181 15.5171 17.5716 15.7505C17.297 15.9316 16.6674 16.3903 16.2533 16.7123C16.2068 16.668 16.1688 16.6237 16.135 16.5835C15.8229 16.2652 15.4726 15.9829 15.0914 15.7424C14.739 15.5378 14.3686 15.3627 13.9843 15.2193C13.7439 15.1093 13.5598 14.9122 13.473 14.672C13.4593 14.4826 13.3225 14.3217 13.1308 14.2696C13.1885 14.2554 13.2261 14.2026 13.2186 14.1463C13.2111 14.09 13.1608 14.0478 13.1012 14.0478C13.0416 14.0478 12.9914 14.09 12.9838 14.1463C12.9763 14.2026 13.014 14.2554 13.0716 14.2696H12.9998C12.9412 14.0275 12.95 13.7751 13.0252 13.5372C13.1219 13.2117 13.0841 12.8632 12.9195 12.5634C12.8739 12.7693 12.7895 12.9657 12.6702 13.1428C12.5638 13.5251 12.6345 13.9324 12.8646 14.2616H12.6491C12.6111 14.2012 12.5815 14.1408 12.5604 14.1046C12.5392 14.0684 12.404 13.9839 12.2899 13.8833C12.2846 13.6666 12.3324 13.4516 12.4294 13.2555C12.5181 13.0905 12.2646 12.6881 12.3068 12.2817C12.2392 12.361 12.1837 12.4491 12.1421 12.5433C12.1486 12.4401 12.1486 12.3366 12.1421 12.2334C12.3797 11.8424 12.3987 11.3647 12.1928 10.9577C12.3371 10.6114 12.4474 10.253 12.5223 9.88732L12.4843 9.92353C12.5392 9.52112 12.4843 9.1187 12.4843 9.05432C12.299 9.43238 12.2024 9.84434 12.2012 10.2616C12.1644 10.3321 12.136 10.4063 12.1167 10.4829C12.0747 10.2741 11.9916 10.0747 11.8716 9.89536C11.6054 10.7404 11.973 11.2072 12.0618 11.5815C12.0618 11.6499 12.0406 11.7143 12.028 11.7867C11.9308 11.5372 11.6942 11.2917 11.6435 11.1066C11.4871 11.67 11.8885 12.3581 12.066 12.7686C12.0499 12.8362 12.0386 12.9048 12.0322 12.9738C12.0198 12.9105 11.9969 12.8494 11.9646 12.7927C11.8214 12.5855 11.7237 12.3528 11.6773 12.1086C11.585 12.2704 11.537 12.4517 11.5378 12.6358C11.5378 12.5956 11.5378 12.5593 11.5083 12.5272C11.5441 12.5008 11.5602 12.4567 11.5492 12.4148C11.5382 12.3729 11.5023 12.3412 11.4576 12.334C11.4503 12.0908 11.4816 11.8479 11.5505 11.6137C11.4594 11.58 11.4026 11.4931 11.4111 11.4004C11.4111 11.3199 11.4111 11.2515 11.4111 11.1308C11.5961 10.6485 11.6668 10.1331 11.6181 9.62172C11.5689 9.72689 11.508 9.82672 11.4364 9.91951C11.3749 9.66971 11.5053 9.41297 11.7491 9.30381C12.4252 8.79677 12.2984 8.4507 12.5435 8.27766C12.2908 8.40179 12.0576 8.55891 11.8505 8.74446C12.1126 8.44192 12.2926 8.0826 12.3745 7.69818C12.0765 7.86536 11.8505 8.12771 11.7364 8.43862C11.7183 8.63324 11.6758 8.82509 11.6097 9.01005L11.5547 9.09054C11.6221 8.7332 11.596 8.36555 11.4787 8.02011C11.4361 8.20733 11.3619 8.38672 11.259 8.5513C11.1614 8.88499 11.1944 9.24109 11.3519 9.55331C11.3133 9.72245 11.3047 9.89656 11.3266 10.0684C11.2296 10.184 11.1694 10.3236 11.1533 10.4708C11.0984 10.8129 11.373 10.9054 11.3223 11.163C11.3041 11.2802 11.2943 11.3986 11.2928 11.5171C11.2787 11.5606 11.2958 11.6078 11.335 11.6338C11.3849 11.6815 11.3984 11.7537 11.3688 11.8149C11.3688 11.8591 11.3181 12.0161 11.2885 12.1811C11.2498 12.1156 11.2267 12.0428 11.2209 11.9678C11.159 12.0725 11.1175 12.187 11.0984 12.3058C10.9294 11.8471 11.3984 11.839 10.9336 10.9054C10.8379 11.1321 10.7864 11.3734 10.7815 11.6177C10.7591 11.4331 10.7078 11.2527 10.6294 11.0825C10.6716 10.7203 10.8914 10.7525 10.8702 10.2777C10.8083 10.0244 10.8215 9.75966 10.9083 9.51307C10.7879 9.62888 10.6919 9.76545 10.6252 9.91548C10.5498 9.70398 10.5085 9.48283 10.5026 9.25955C10.3078 9.56074 10.2176 9.91277 10.2449 10.2656C10.1034 10.1637 9.97941 10.0415 9.87727 9.90341C9.97023 10.495 10.0843 10.8813 10.266 11.002C10.3421 11.0587 10.4065 11.1283 10.4561 11.2072C10.4004 11.2174 10.3601 11.2638 10.3601 11.3179C10.3601 11.372 10.4004 11.4184 10.4561 11.4286C10.4912 11.4302 10.5253 11.417 10.5491 11.3923C10.5787 11.4487 10.604 11.505 10.6252 11.5654L10.566 11.5332C10.3449 11.4637 10.1467 11.3402 9.99135 11.175C10.0049 11.4829 10.2018 11.7563 10.4984 11.8793C10.7141 12.0057 10.9091 12.1617 11.0773 12.342C11.058 12.513 11.0887 12.6857 11.166 12.841C10.9662 12.6966 10.7934 12.5211 10.6547 12.3219C10.6574 12.7457 10.9085 13.1324 11.3054 13.3239C11.4576 13.3867 11.5998 13.4693 11.728 13.5694L11.7702 13.6016C11.8041 13.7613 11.9088 13.8993 12.0576 13.9799C12.1977 14.0592 12.3233 14.1598 12.4294 14.2777C11.9773 14.2777 11.4153 14.2294 11.259 14.2092C11.1491 14.0724 11.0477 13.9396 10.9759 13.843C11.0296 13.4149 10.9102 12.9833 10.6421 12.6358C10.5131 12.9223 10.5131 13.2467 10.6421 13.5332C10.5943 13.4962 10.5417 13.4651 10.4857 13.4406C10.4314 13.323 10.3693 13.2087 10.2998 13.0986C10.2068 12.6962 10.3928 12.4789 9.67868 11.7585C9.61523 11.9728 9.63013 12.2013 9.72093 12.4064C9.64604 12.2796 9.58786 12.1444 9.54769 12.004C9.42516 11.5332 9.01107 11.5775 8.84628 11.3441C9.07023 12.1006 9.22657 12.1851 9.37445 12.2897C9.53721 12.411 9.6885 12.5457 9.82657 12.6921C9.55192 12.6519 9.29417 12.7565 9.12093 12.5714C9.31107 13.1348 10.0801 12.994 10.3674 13.4004C10.3084 13.3951 10.249 13.3951 10.1899 13.4004C9.95467 13.4221 9.71818 13.3728 9.51389 13.2595C9.67868 13.7545 10.5576 13.5815 10.904 13.9678C10.9838 14.0464 11.0507 14.1359 11.1026 14.2334L11.0519 14.2575L10.6928 14.2374C10.173 13.835 10.0547 13.7022 9.3153 13.7384C9.48344 13.8867 9.66435 14.0213 9.85614 14.1408C9.53061 14.1615 9.22281 14.2896 8.98572 14.503C9.2087 14.5025 9.43154 14.5133 9.65333 14.5352C9.61001 14.6875 9.52551 14.8262 9.40826 14.9376C9.74628 14.7324 10.1181 14.8048 10.3885 14.7002C10.6348 14.6172 10.8658 14.4977 11.073 14.3461H11.1068C11.0595 14.3709 11.0359 14.423 11.0493 14.4728C11.0627 14.5226 11.1099 14.5575 11.1639 14.5575C11.2179 14.5575 11.265 14.5226 11.2785 14.4728C11.2919 14.423 11.2682 14.3709 11.2209 14.3461H11.3139L11.5083 14.3702C11.4991 14.4163 11.5199 14.4631 11.561 14.489C11.602 14.515 11.6554 14.515 11.6964 14.489C11.7374 14.4631 11.7582 14.4163 11.7491 14.3702C12.0026 14.3702 12.2857 14.3984 12.459 14.3903H12.5477C12.6153 14.4748 12.6618 14.5473 12.704 14.5996C12.8018 14.7074 12.9062 14.8095 13.0167 14.9054C12.8559 14.9312 12.6916 14.9312 12.5308 14.9054H12.4674C12.5244 14.8903 12.5609 14.8375 12.5529 14.7816C12.5449 14.7258 12.4949 14.6842 12.4357 14.6842C12.3766 14.6842 12.3265 14.7258 12.3185 14.7816C12.3105 14.8375 12.347 14.8903 12.404 14.9054C12.2615 14.9217 12.1203 14.9473 11.9815 14.9819C11.559 14.9054 11.2632 14.6076 10.6843 14.8008C10.8057 14.8286 10.9177 14.8854 11.0097 14.9658C10.4097 14.9215 9.86882 15.3038 9.74206 15.3038C9.93143 15.3478 10.126 15.3681 10.3209 15.3642L10.1984 15.4084C9.6484 15.3723 9.11837 15.6117 8.7998 16.0402C9.06324 15.9544 9.33501 15.8937 9.61107 15.8591C9.52541 15.9794 9.40714 16.0754 9.26882 16.1368C9.73452 16.2823 10.2403 16.0684 10.4392 15.6418C10.4027 15.8169 10.3061 15.9755 10.1646 16.0925C10.4719 16.0214 10.7401 15.8434 10.9167 15.5936C10.8995 15.6491 10.8854 15.7056 10.8745 15.7626C11.0234 15.6266 11.2147 15.5404 11.4195 15.5171C11.6815 15.4608 11.8209 15.163 12.0618 15.0624C12.0107 15.0865 11.9539 15.0976 11.897 15.0946C11.9738 15.0572 12.0608 15.0432 12.1463 15.0543C12.1722 15.0636 12.2007 15.0636 12.2266 15.0543C12.2025 15.1088 12.2267 15.1716 12.282 15.1984C12.3372 15.2252 12.4048 15.2068 12.4369 15.1562C12.469 15.1057 12.4546 15.0402 12.404 15.006C12.4526 14.9863 12.5075 14.9863 12.5561 15.006C12.6418 15.0497 12.7425 15.0584 12.835 15.0302C12.9144 14.9968 13.0049 14.9968 13.0843 15.0302C12.9206 15.115 12.8012 15.2607 12.7547 15.4326C12.59 15.6499 12.4907 15.9059 12.4674 16.173C12.677 16.1062 12.8629 15.9849 13.004 15.8229C13.0871 15.681 13.1141 15.5154 13.0801 15.3561C13.0685 15.2545 13.0685 15.1519 13.0801 15.0503C13.1138 15.0699 13.1415 15.0977 13.1604 15.1308C13.1903 15.2271 13.2878 15.2896 13.3928 15.2797C13.4841 15.2725 13.5755 15.2921 13.6547 15.336C13.9122 15.4187 14.1623 15.521 14.4026 15.6418C14.9405 15.9538 15.4532 16.3036 15.9364 16.6881L16.097 16.841L15.9745 16.9416C15.8637 17.0132 15.7737 17.11 15.7125 17.2233C15.6626 17.3406 15.5694 17.4365 15.4505 17.4929C15.3253 17.547 15.2269 17.645 15.1759 17.7666C15.0549 17.8496 14.9431 17.9439 14.8421 18.0483C14.7239 18.1878 14.7406 18.3908 14.8801 18.5111C14.9433 18.445 14.9908 18.3668 15.0195 18.2817C15.1023 18.1453 15.2146 18.0273 15.3491 17.9356C15.4381 17.8997 15.505 17.8271 15.5308 17.7384C15.5826 17.6353 15.6629 17.5477 15.7632 17.4849C15.8908 17.417 15.9961 17.3167 16.0674 17.1952C16.1168 17.1206 16.1734 17.0505 16.2364 16.9859C16.3318 17.0792 16.4129 17.1849 16.4773 17.2998C16.5701 17.4549 16.6935 17.5916 16.8407 17.7022C16.9813 17.8262 17.101 17.97 17.1956 18.1288C17.2625 18.2592 17.3447 18.3821 17.4406 18.495C17.4694 18.5233 17.5021 18.5476 17.5378 18.5674C17.617 18.3437 17.5725 18.0971 17.4195 17.9115C17.2842 17.8233 17.1797 17.6986 17.1195 17.5533C17.0674 17.4197 16.965 17.3093 16.8322 17.2435C16.6654 17.1223 16.5099 16.9877 16.3674 16.841C16.4221 16.7895 16.4799 16.7411 16.5407 16.6962C16.7477 16.5433 17.8083 15.8632 18.1336 15.5976C18.2492 15.486 18.3766 15.3862 18.5139 15.2998C18.6022 15.3119 18.6918 15.3119 18.7801 15.2998C18.8898 15.314 18.9712 15.4036 18.9702 15.509C18.9702 15.6096 19.0421 15.6217 19.1519 15.6016C19.1849 15.5895 19.222 15.5938 19.2509 15.6133C19.2798 15.6327 19.2965 15.6645 19.2956 15.6982C19.3271 15.8053 19.4325 15.8772 19.5491 15.8712L20.1491 15.6177C20.136 15.5348 20.1462 15.4501 20.1787 15.3722C20.2167 15.3239 20.1322 15.2595 20.0223 15.2354C19.92 15.208 19.8104 15.2412 19.7435 15.3199C19.7151 15.3513 19.6722 15.3671 19.629 15.3623C19.5858 15.3575 19.548 15.3325 19.528 15.2958C19.4784 15.2106 19.3851 15.157 19.2829 15.1549C19.2274 15.1828 19.161 15.1828 19.1054 15.1549C19.0159 15.1292 18.9192 15.1409 18.8392 15.1871C18.7869 15.2096 18.7314 15.2245 18.6745 15.2314C18.7546 15.192 18.8274 15.1404 18.8899 15.0785C19.0175 15.0047 19.1633 14.9645 19.3125 14.9618C19.3469 15.009 19.4043 15.0363 19.4646 15.0342C19.6143 15.0872 19.7755 15.1038 19.9336 15.0825L20.0097 15.0503C20.2284 15.0675 20.4425 15.1192 20.6435 15.2032C20.7801 15.2854 20.9348 15.3363 21.0956 15.3521C21.2435 15.3521 21.2139 15.4205 21.197 15.4849C21.084 15.5893 21.0306 15.739 21.0533 15.8873C21.091 15.9465 21.1087 16.0154 21.104 16.0845C21.0917 16.1099 21.0993 16.1401 21.1225 16.1574C21.1457 16.1747 21.1783 16.1745 21.2012 16.1569C21.2519 16.1167 21.2857 16.1569 21.2688 16.2213C21.2629 16.2572 21.2796 16.293 21.3115 16.313C21.3433 16.3329 21.3845 16.3333 21.4167 16.3139C21.5054 16.2656 21.5561 16.3139 21.573 16.3702C21.5899 16.4265 21.8519 16.4265 21.8266 16.33C21.8012 16.2334 21.797 16.173 21.8688 16.1489C21.9224 16.1107 21.9472 16.046 21.9322 15.9839C21.9543 15.9895 21.9777 15.9895 21.9998 15.9839C22.0497 15.9504 22.0674 15.8878 22.0421 15.835C22.0796 15.8759 22.133 15.9006 22.1899 15.9034C22.1436 16.0035 22.1347 16.1157 22.1646 16.2213C22.2322 16.3461 22.2787 16.3139 22.3463 16.2455C22.4139 16.1771 22.4942 16.2455 22.4223 16.338C22.3717 16.4185 22.3958 16.5227 22.4773 16.5754C22.5443 16.619 22.6353 16.6048 22.6843 16.5433C22.7405 16.506 22.7555 16.4329 22.7181 16.3783C22.6945 16.3047 22.7235 16.225 22.7899 16.1811C22.8576 16.1086 22.8914 15.9437 22.7899 15.9195C22.701 15.9023 22.6241 15.8495 22.5787 15.7746C22.679 15.821 22.7999 15.7814 22.8491 15.6861C22.9378 15.5895 22.8068 15.4809 22.659 15.4326C22.5111 15.3843 22.5111 15.2998 22.5449 15.2837C22.5787 15.2676 22.5449 15.2032 22.4054 15.175C22.0958 15.1528 21.7845 15.18 21.4843 15.2555H21.3745C21.2135 15.2622 21.0528 15.2389 20.9012 15.1871H20.9308C21.0618 15.1871 21.2012 15.1147 21.2942 15.1227C21.3575 15.1348 21.4214 15.1051 21.4505 15.0503C21.497 15.002 21.5223 14.9698 21.5899 14.994C21.6151 15.0111 21.6478 15.0145 21.6763 15.003C21.7047 14.9915 21.7249 14.9668 21.7294 14.9376L21.7632 14.8893C21.8117 14.9283 21.8699 14.9546 21.9322 14.9658C21.9902 14.9775 22.0389 15.0149 22.0632 15.0664C22.111 15.1119 22.1886 15.1119 22.2364 15.0664L22.2618 15.0382C22.6843 14.9899 22.5026 14.7686 22.2322 14.7726C22.1773 14.6841 22.0716 14.7726 22.0336 14.8129C22.006 14.8476 21.9568 14.8593 21.9153 14.841L21.8477 14.8088L21.9533 14.7404C22.0252 14.7002 22.0336 14.6318 21.9533 14.5996C21.873 14.5674 21.9237 14.499 22.0209 14.4346C22.1181 14.3702 22.1181 14.2696 21.9956 14.173C21.9304 14.1263 21.8456 14.1123 21.7677 14.1355C21.6898 14.1586 21.6284 14.216 21.6026 14.2897C21.5477 14.4185 21.5097 14.4265 21.4336 14.3944C21.4644 14.3232 21.5011 14.2546 21.5435 14.1891C21.6111 14.0805 21.5097 14.0161 21.3702 14.0241C21.2768 14.0175 21.1878 14.063 21.1421 14.1408C21.1163 14.1929 21.0661 14.2303 21.0068 14.2414C20.9168 14.2698 20.8545 14.3483 20.8505 14.4386C20.7715 14.6035 20.6545 14.7493 20.5083 14.8652C20.4613 14.9188 20.3977 14.9568 20.3266 14.9738L20.1491 14.9336C20.1779 14.9079 20.1893 14.8692 20.1787 14.833C20.1539 14.7537 20.1784 14.6679 20.2421 14.6117C20.2875 14.5384 20.2875 14.4475 20.2421 14.3742C20.2184 14.3297 20.2014 14.2823 20.1914 14.2334C20.3477 14.1167 20.5125 14.0604 20.5843 13.996C20.6732 13.9306 20.7857 13.9017 20.897 13.9155C21.1051 13.9153 21.3114 13.8784 21.5054 13.8068C21.6818 13.808 21.8487 13.8831 21.9618 14.0121C22.0074 14.1214 22.1172 14.1942 22.2407 14.1972C22.3101 14.141 22.4121 14.141 22.4815 14.1972C22.5426 14.2638 22.6427 14.2835 22.7266 14.2455C22.7808 14.2037 22.8583 14.2037 22.9125 14.2455C22.997 14.2817 23.1956 14.3018 23.1026 14.0201L23.1914 13.9678C23.3477 13.8632 23.3519 13.8068 23.2547 13.7022C23.196 13.617 23.0899 13.5728 22.9843 13.5895C22.929 13.6041 22.8706 13.6041 22.8153 13.5895C23.1449 13.3561 23.0012 13.2917 22.7435 13.1871C22.4857 13.0825 22.3843 13.1871 22.3759 13.2555C22.3674 13.3239 22.3294 13.336 22.228 13.2917C22.1437 13.2556 22.0445 13.2871 21.9998 13.3642C21.9998 13.4125 21.9618 13.4245 21.8815 13.4245C21.7679 13.4551 21.6729 13.5295 21.6195 13.6298C21.5895 13.6392 21.561 13.6528 21.535 13.67C21.0871 13.8833 20.7322 13.7183 20.5843 13.7988C20.6591 13.6709 20.7199 13.536 20.766 13.3964C20.8677 13.3858 20.9658 13.3543 21.0533 13.3038C21.0716 13.3131 21.085 13.3291 21.0906 13.3481C21.0962 13.3671 21.0934 13.3874 21.0829 13.4044C21.0491 13.4447 21.0829 13.5775 21.1885 13.5453C21.3364 13.6539 21.573 13.6579 21.3871 13.3883C21.3934 13.3627 21.3883 13.3357 21.3731 13.3136C21.358 13.2916 21.334 13.2764 21.3068 13.2716H21.2646C21.2154 13.283 21.1634 13.271 21.1252 13.2394C21.2106 13.1833 21.2826 13.1106 21.3364 13.0261C21.3712 12.9583 21.4254 12.9011 21.4928 12.8612C21.6396 12.7067 21.7274 12.5097 21.7421 12.3018L21.8223 12.2575C22.0215 12.108 22.2906 12.074 22.5237 12.169C22.6948 12.3182 22.9295 12.3822 23.1576 12.342C23.2676 12.2636 23.4061 12.2303 23.5421 12.2495C23.6285 12.2805 23.726 12.2544 23.7829 12.1851C23.7979 12.1186 23.8525 12.0666 23.9223 12.0523C24.0322 12.0241 24.0322 11.7787 23.6223 11.8028H23.5252ZM11.2294 15.0825C11.1912 15.0935 11.1544 15.1083 11.1195 15.1268L11.2252 15.0744H11.2505L11.2294 15.0825ZM10.4392 15.4084C10.4642 15.3656 10.4971 15.3274 10.5364 15.2958H10.604C10.5445 15.3298 10.4905 15.3718 10.4435 15.4205L10.4392 15.4084ZM13.2491 15.006C13.0521 14.9041 12.9016 14.7364 12.8266 14.5352C12.7305 14.4945 12.6495 14.4272 12.5942 14.342C12.7782 14.304 12.9678 14.3775 13.0716 14.5272C13.1242 14.7056 13.2024 14.8762 13.304 15.0342L13.2491 15.006ZM19.773 14.0925C19.7891 14.1285 19.812 14.1612 19.8407 14.1891C19.8062 14.1669 19.7832 14.1318 19.7773 14.0925H19.773ZM19.828 13.827C19.7877 13.8662 19.7624 13.9172 19.7561 13.9718C19.7678 13.9137 19.7955 13.8595 19.8364 13.8149L19.828 13.827ZM11.1787 13.8793C11.1133 13.8793 11.0604 13.9297 11.0604 13.9919C11.0604 14.0542 11.1133 14.1046 11.1787 14.1046C11.244 14.1046 11.297 14.0542 11.297 13.9919C11.297 13.9297 11.244 13.8793 11.1787 13.8793ZM12.2857 13.5694C12.2204 13.5694 12.1674 13.6199 12.1674 13.6821C12.1674 13.7443 12.2204 13.7948 12.2857 13.7948C12.3511 13.7948 12.404 13.7443 12.404 13.6821C12.404 13.6199 12.3511 13.5694 12.2857 13.5694Z" fill="#57A863"/>
<path d="M17.7703 9.04625C17.707 9.02861 17.6418 9.01781 17.5759 9.01406C17.6985 9.06235 17.7365 8.94162 17.69 8.87724C17.6435 8.81285 17.69 8.78871 17.7238 8.71225C17.7467 8.64263 17.7794 8.57629 17.821 8.51506H17.8506C17.9097 8.53921 17.9816 8.44263 17.9055 8.37824C18.0232 8.21089 18.1655 8.06047 18.328 7.93156C18.2916 7.92701 18.2546 7.92701 18.2182 7.93156L18.2604 7.86315C18.2825 7.86966 18.306 7.86966 18.328 7.86315C18.3934 7.86289 18.4492 7.81816 18.4606 7.75688C18.472 7.6956 18.4358 7.63531 18.3745 7.61366C18.3745 7.55732 18.4083 7.50098 18.421 7.44464C18.5027 7.44464 18.5689 7.38158 18.5689 7.3038C18.5689 7.22601 18.5027 7.16295 18.421 7.16295C18.4039 7.08015 18.3629 7.00351 18.3027 6.94162C18.3235 6.90572 18.323 6.86206 18.3013 6.82662C18.2797 6.79117 18.2401 6.76914 18.1971 6.76859C18.1634 6.76809 18.1311 6.78126 18.1083 6.8048C18.0539 6.77785 17.9974 6.75498 17.9393 6.73639C17.9536 6.70707 17.9549 6.67354 17.943 6.64328C17.9311 6.61303 17.9069 6.58859 17.8759 6.57543H17.8295C17.7634 6.57539 17.7092 6.62523 17.7069 6.6881L17.5168 6.65189C17.5424 6.62064 17.5473 6.57829 17.5294 6.5425C17.5115 6.5067 17.4739 6.48362 17.4323 6.48287C17.3966 6.48275 17.3632 6.49981 17.3436 6.52822C17.324 6.55664 17.3208 6.59256 17.3351 6.62372L17.2083 6.6036C17.2159 6.55372 17.1803 6.50721 17.128 6.49897C17.0826 6.49825 17.0433 6.52887 17.0351 6.5714L16.9041 6.54323C16.8905 6.5152 16.8605 6.49773 16.828 6.49897C16.8128 6.49503 16.7968 6.49503 16.7816 6.49897H16.7224C16.7535 6.49279 16.7816 6.47728 16.8027 6.4547C16.8703 6.36617 16.8027 6.31788 16.6886 6.36215C16.5745 6.40641 16.5449 6.30178 16.5154 6.17301C16.5138 6.05181 16.4353 5.94359 16.3168 5.89937L16.2745 5.85913C16.3371 5.81208 16.3756 5.74178 16.3802 5.66597C16.3915 5.55359 16.3222 5.44797 16.2111 5.40842V5.27965H16.414V5.06235H16.2111V4.85712H16.0083V5.06637H15.8055V5.28368H16.0083V5.41245C15.8973 5.45199 15.828 5.55761 15.8393 5.66999C15.8439 5.7458 15.8824 5.81611 15.9449 5.86315L15.9027 5.90339C15.7842 5.94761 15.7056 6.05583 15.7041 6.17704C15.6745 6.30581 15.6196 6.40641 15.5309 6.36617C15.4421 6.32593 15.3492 6.36617 15.4168 6.45873C15.4372 6.48204 15.4657 6.49771 15.4971 6.50299H15.4379C15.4227 6.49906 15.4066 6.49906 15.3914 6.50299C15.359 6.50176 15.329 6.51922 15.3154 6.54726L15.1844 6.57543C15.1761 6.5329 15.1368 6.50227 15.0914 6.50299C15.0394 6.50515 14.9984 6.54596 14.9985 6.59555L14.8717 6.61567C14.8828 6.59062 14.8827 6.56238 14.8716 6.53737C14.8604 6.51236 14.8391 6.4927 14.8125 6.48287H14.7745C14.7329 6.48362 14.6953 6.5067 14.6774 6.5425C14.6595 6.57829 14.6644 6.62064 14.69 6.65189L14.4956 6.6881C14.4957 6.62741 14.4452 6.57759 14.3816 6.57543C14.3399 6.57738 14.302 6.59871 14.28 6.63246C14.2581 6.66621 14.255 6.70808 14.2717 6.74444C14.2137 6.76342 14.1573 6.78629 14.1027 6.81285C14.0802 6.78887 14.0477 6.77561 14.014 6.77663C13.9712 6.77803 13.932 6.79992 13.9098 6.83482C13.8877 6.86972 13.8855 6.91292 13.9041 6.94967C13.8454 7.01257 13.8047 7.08879 13.7858 7.171C13.7041 7.171 13.6379 7.23406 13.6379 7.31184C13.6379 7.38963 13.7041 7.45269 13.7858 7.45269C13.7967 7.51008 13.8122 7.56659 13.8323 7.6217C13.771 7.64336 13.7348 7.70365 13.7462 7.76492C13.7576 7.8262 13.8134 7.87094 13.8787 7.8712C13.9009 7.87703 13.9242 7.87703 13.9464 7.8712L13.9886 7.93961C13.9521 7.93506 13.9152 7.93506 13.8787 7.93961C14.0407 8.06906 14.1829 8.21941 14.3013 8.38629C14.2252 8.45068 14.3013 8.54726 14.3562 8.52311H14.3858C14.4274 8.58434 14.4601 8.65068 14.483 8.7203C14.483 8.79675 14.5083 8.84504 14.5168 8.88528C14.5252 8.92553 14.5168 9.0704 14.6309 9.02211C14.5407 9.02165 14.451 9.03386 14.3647 9.05832C12.8224 9.51305 12.4844 11.3038 13.3675 12.9698C13.5021 14.2895 14.6668 15.2962 16.059 15.2962C17.4512 15.2962 18.6159 14.2895 18.7506 12.9698C19.6506 11.2917 19.2999 9.49695 17.7703 9.04625ZM16.8999 9.1871C16.7013 9.2877 16.4393 9.43659 16.2618 9.5372C16.237 9.51821 16.2082 9.50449 16.1773 9.49695C16.1773 9.38025 16.152 9.39635 16.0759 9.39635C15.9999 9.39635 15.983 9.39635 15.9745 9.49695C15.9437 9.50449 15.9149 9.51821 15.89 9.5372C15.7041 9.43257 15.4252 9.27563 15.2224 9.17502C15.5178 9.21326 15.8158 9.23074 16.114 9.22734C16.3765 9.22919 16.639 9.21575 16.8999 9.1871ZM15.3618 7.21124C15.2167 7.36441 15.2167 7.59731 15.3618 7.75048C15.2723 7.61715 15.1406 7.5143 14.9858 7.45671L15.6449 6.7203L15.7125 6.69213C15.7233 6.90303 15.7966 7.10672 15.9238 7.27965C15.8613 7.40539 15.8296 7.54297 15.8309 7.68207C15.7811 7.45302 15.5994 7.2706 15.3618 7.21124ZM14.8886 7.89937C14.8389 7.84189 14.7805 7.79171 14.7154 7.75048L14.7956 7.66195C14.8079 7.74788 14.8396 7.83026 14.8886 7.90339V7.89937ZM17.3393 7.89937C17.3556 7.87225 17.3697 7.844 17.3816 7.81486C17.3833 7.79747 17.3833 7.77995 17.3816 7.76255C17.3834 7.73978 17.3834 7.71691 17.3816 7.69414C17.3797 7.68348 17.3797 7.67261 17.3816 7.66195L17.4618 7.75048C17.3964 7.79294 17.338 7.84448 17.2886 7.90339L17.3393 7.89937ZM17.2506 7.45671C17.0958 7.5143 16.9641 7.61715 16.8745 7.75048C17.0197 7.59731 17.0197 7.36441 16.8745 7.21124C16.6426 7.27188 16.4651 7.45017 16.414 7.67402C16.4153 7.53492 16.3835 7.39734 16.321 7.2716C16.4482 7.09868 16.5215 6.89498 16.5323 6.68408L16.5999 6.71225L17.2506 7.45671Z" fill="#FFCE54"/>
<path fill-rule="evenodd" clip-rule="evenodd" d="M28.12 3H3.88C2.84171 3 2 3.84171 2 4.88V19.12C2 20.1583 2.8417 21 3.88 21H28.12C29.1583 21 30 20.1583 30 19.12V4.88C30 3.8417 29.1583 3 28.12 3ZM3.88 2C2.28942 2 1 3.28942 1 4.88V19.12C1 20.7106 2.28942 22 3.88 22H28.12C29.7106 22 31 20.7106 31 19.12V4.88C31 3.28942 29.7106 2 28.12 2H3.88Z" fill="black" fill-opacity="0.12"/>
</svg>
