<svg width="32" height="24" viewBox="0 0 32 24" fill="none" xmlns="http://www.w3.org/2000/svg">
<path d="M28.27 22H3.72571C2.22034 22 1 20.8135 1 19.35V12H31V19.35C31 20.0535 30.7122 20.7282 30.2001 21.2253C29.688 21.7224 28.9936 22.0011 28.27 22Z" fill="#F6D660"/>
<path d="M1 4.76522C1 4.03109 1.28776 3.32709 1.79986 2.80838C2.31196 2.28968 3.00635 1.99885 3.73 2H28.2743C29.7797 2 31 3.23804 31 4.76522V12H1V4.76522Z" fill="#4A89DC"/>
<path fill-rule="evenodd" clip-rule="evenodd" d="M28.12 3H3.88C2.84171 3 2 3.84171 2 4.88V19.12C2 20.1583 2.8417 21 3.88 21H28.12C29.1583 21 30 20.1583 30 19.12V4.88C30 3.8417 29.1583 3 28.12 3ZM3.88 2C2.28942 2 1 3.28942 1 4.88V19.12C1 20.7106 2.28942 22 3.88 22H28.12C29.7106 22 31 20.7106 31 19.12V4.88C31 3.28942 29.7106 2 28.12 2H3.88Z" fill="black" fill-opacity="0.12"/>
</svg>
