<svg width="32" height="24" viewBox="0 0 32 24" fill="none" xmlns="http://www.w3.org/2000/svg">
<path d="M3.36289 22H28.6415C29.6489 21.9216 30.542 21.339 31 20.4615H1C1.45875 21.3402 2.3539 21.923 3.36289 22Z" fill="#ED5565"/>
<path d="M1 18.923V19.4941C1 20 1 20 1.00006 20.4615H31C31 20 31 20 31 19.4941V18.923H1Z" fill="white"/>
<path d="M31 17.3846H1V18.9231H31V17.3846Z" fill="#ED5565"/>
<path d="M31 15.8462H1V17.3847H31V15.8462Z" fill="white"/>
<path d="M31 14.3077H1V15.8461H31V14.3077Z" fill="#ED5565"/>
<path d="M31 12.7692H1V14.3077H31V12.7692Z" fill="white"/>
<path d="M31 11.2308H1V12.7692H31V11.2308Z" fill="#ED5565"/>
<path d="M31 9.69232H1V11.2308H31V9.69232Z" fill="white"/>
<path d="M31 8.15387H1V9.69233H31V8.15387Z" fill="#ED5565"/>
<path d="M31 6.61536H1V8.15382H31V6.61536Z" fill="white"/>
<path d="M31 5.0769H1V6.61537H31V5.0769Z" fill="#ED5565"/>
<path d="M31 5.07691V4.50743C31 4 31 4 31 3.5L1.2918 3.53845C1.13598 3.84124 1.0371 4.16958 1 4.50743V5.07691H31Z" fill="white"/>
<path d="M28.7155 2H4.28023C3.30628 2.07844 2.44275 2.66105 2 3.53846H31C30.5565 2.65983 29.691 2.077 28.7155 2Z" fill="#ED5565"/>
<path d="M15 11.28V2H3.56273C2.22276 2.09664 1.14755 3.03657 1 4.24029V11.28H15Z" fill="#4A89DC"/>
<path d="M2.48592 2.96155L2.37183 3.30283H2L2.3 3.51003L2.18592 3.85131L2.48592 3.64004L2.78592 3.85131L2.67183 3.51003L2.97183 3.30283H2.6L2.48592 2.96155Z" fill="white"/>
<path d="M2.48592 4.6842L2.37183 5.02548H2L2.3 5.23675L2.18592 5.57397L2.48592 5.36676L2.78592 5.57397L2.67183 5.23675L2.97183 5.02548H2.6L2.48592 4.6842Z" fill="white"/>
<path d="M2.48592 6.4068L2.37183 6.74808H2L2.3 6.95935L2.18592 7.30062L2.48592 7.08936L2.78592 7.30062L2.67183 6.95935L2.97183 6.74808H2.6L2.48592 6.4068Z" fill="white"/>
<path d="M2.48592 8.13348L2.37183 8.4707H2L2.3 8.68197L2.18592 9.02325L2.48592 8.81198L2.78592 9.02325L2.67183 8.68197L2.97183 8.4707H2.6L2.48592 8.13348Z" fill="white"/>
<path d="M2.6 10.1934L2.48592 9.85614L2.37183 10.1934H2L2.3 10.4046L2.18592 10.7459L2.48592 10.5346L2.78592 10.7459L2.67183 10.4046L2.97183 10.1934H2.6Z" fill="white"/>
<path d="M3.53816 3.82281L3.42408 4.16409H3.05225L3.35225 4.37536L3.23816 4.71258L3.53816 4.50131L3.84239 4.71258L3.7283 4.37536L4.0283 4.16409H3.65647L3.53816 3.82281Z" fill="white"/>
<path d="M3.53816 5.54547L3.42408 5.88675H3.05225L3.35225 6.09802L3.23816 6.43523L3.53816 6.22803L3.84239 6.43523L3.7283 6.09802L4.0283 5.88675H3.65647L3.53816 5.54547Z" fill="white"/>
<path d="M3.53816 7.27222L3.42408 7.60943H3.05225L3.35225 7.8207L3.23816 8.16198L3.53816 7.95071L3.84239 8.16198L3.7283 7.8207L4.0283 7.60943H3.65647L3.53816 7.27222Z" fill="white"/>
<path d="M3.65647 9.33209L3.53816 8.99487L3.42408 9.33209H3.05225L3.35225 9.54336L3.23816 9.88463L3.53816 9.67337L3.84239 9.88463L3.7283 9.54336L4.0283 9.33209H3.65647Z" fill="white"/>
<path d="M4.59431 2.96155L4.48023 3.30283H4.1084L4.4084 3.51003L4.29431 3.85131L4.59431 3.64004L4.89431 3.85131L4.78023 3.51003L5.08023 3.30283H4.7084L4.59431 2.96155Z" fill="white"/>
<path d="M4.59431 4.6842L4.48023 5.02548H4.1084L4.4084 5.23675L4.29431 5.57397L4.59431 5.36676L4.89431 5.57397L4.78023 5.23675L5.08023 5.02548H4.7084L4.59431 4.6842Z" fill="white"/>
<path d="M4.59431 6.4068L4.48023 6.74808H4.1084L4.4084 6.95935L4.29431 7.30062L4.59431 7.08936L4.89431 7.30062L4.78023 6.95935L5.08023 6.74808H4.7084L4.59431 6.4068Z" fill="white"/>
<path d="M4.59431 8.13348L4.48023 8.4707H4.1084L4.4084 8.68197L4.29431 9.02325L4.59431 8.81198L4.89431 9.02325L4.78023 8.68197L5.08023 8.4707H4.7084L4.59431 8.13348Z" fill="white"/>
<path d="M4.7084 10.1934L4.59431 9.85614L4.48023 10.1934H4.1084L4.4084 10.4046L4.29431 10.7459L4.59431 10.5346L4.89431 10.7459L4.78023 10.4046L5.08023 10.1934H4.7084Z" fill="white"/>
<path d="M5.64656 3.82281L5.53248 4.16409H5.16064L5.46064 4.37536L5.34656 4.71258L5.64656 4.50131L5.95079 4.71258L5.8367 4.37536L6.1367 4.16409H5.76487L5.64656 3.82281Z" fill="white"/>
<path d="M5.64656 5.54547L5.53248 5.88675H5.16064L5.46064 6.09802L5.34656 6.43523L5.64656 6.22803L5.95079 6.43523L5.8367 6.09802L6.1367 5.88675H5.76487L5.64656 5.54547Z" fill="white"/>
<path d="M5.64656 7.27222L5.53248 7.60943H5.16064L5.46064 7.8207L5.34656 8.16198L5.64656 7.95071L5.95079 8.16198L5.8367 7.8207L6.1367 7.60943H5.76487L5.64656 7.27222Z" fill="white"/>
<path d="M5.76487 9.33209L5.64656 8.99487L5.53248 9.33209H5.16064L5.46064 9.54336L5.34656 9.88463L5.64656 9.67337L5.95079 9.88463L5.8367 9.54336L6.1367 9.33209H5.76487Z" fill="white"/>
<path d="M6.70271 2.96155L6.58863 3.30283H6.2168L6.5168 3.51003L6.40271 3.85131L6.70271 3.64004L7.00271 3.85131L6.88863 3.51003L7.18863 3.30283H6.8168L6.70271 2.96155Z" fill="white"/>
<path d="M6.70271 4.6842L6.58863 5.02548H6.2168L6.5168 5.23675L6.40271 5.57397L6.70271 5.36676L7.00271 5.57397L6.88863 5.23675L7.18863 5.02548H6.8168L6.70271 4.6842Z" fill="white"/>
<path d="M6.70271 6.4068L6.58863 6.74808H6.2168L6.5168 6.95935L6.40271 7.30062L6.70271 7.08936L7.00271 7.30062L6.88863 6.95935L7.18863 6.74808H6.8168L6.70271 6.4068Z" fill="white"/>
<path d="M6.70271 8.13348L6.58863 8.4707H6.2168L6.5168 8.68197L6.40271 9.02325L6.70271 8.81198L7.00271 9.02325L6.88863 8.68197L7.18863 8.4707H6.8168L6.70271 8.13348Z" fill="white"/>
<path d="M6.8168 10.1934L6.70271 9.85614L6.58863 10.1934H6.2168L6.5168 10.4046L6.40271 10.7459L6.70271 10.5346L7.00271 10.7459L6.88863 10.4046L7.18863 10.1934H6.8168Z" fill="white"/>
<path d="M7.75496 3.82281L7.64087 4.16409H7.26904L7.56904 4.37536L7.45496 4.71258L7.75496 4.50131L8.05918 4.71258L7.94087 4.37536L8.2451 4.16409H7.87327L7.75496 3.82281Z" fill="white"/>
<path d="M7.75496 5.54547L7.64087 5.88675H7.26904L7.56904 6.09802L7.45496 6.43523L7.75496 6.22803L8.05918 6.43523L7.94087 6.09802L8.2451 5.88675H7.87327L7.75496 5.54547Z" fill="white"/>
<path d="M7.75496 7.27222L7.64087 7.60943H7.26904L7.56904 7.8207L7.45496 8.16198L7.75496 7.95071L8.05918 8.16198L7.94087 7.8207L8.2451 7.60943H7.87327L7.75496 7.27222Z" fill="white"/>
<path d="M7.87327 9.33209L7.75496 8.99487L7.64087 9.33209H7.26904L7.56904 9.54336L7.45496 9.88463L7.75496 9.67337L8.05918 9.88463L7.94087 9.54336L8.2451 9.33209H7.87327Z" fill="white"/>
<path d="M8.81111 2.96155L8.69703 3.30283H8.3252L8.6252 3.51003L8.51111 3.85131L8.81111 3.64004L9.11111 3.85131L8.99703 3.51003L9.29703 3.30283H8.9252L8.81111 2.96155Z" fill="white"/>
<path d="M8.81111 4.6842L8.69703 5.02548H8.3252L8.6252 5.23675L8.51111 5.57397L8.81111 5.36676L9.11111 5.57397L8.99703 5.23675L9.29703 5.02548H8.9252L8.81111 4.6842Z" fill="white"/>
<path d="M8.81111 6.4068L8.69703 6.74808H8.3252L8.6252 6.95935L8.51111 7.30062L8.81111 7.08936L9.11111 7.30062L8.99703 6.95935L9.29703 6.74808H8.9252L8.81111 6.4068Z" fill="white"/>
<path d="M8.81111 8.13348L8.69703 8.4707H8.3252L8.6252 8.68197L8.51111 9.02325L8.81111 8.81198L9.11111 9.02325L8.99703 8.68197L9.29703 8.4707H8.9252L8.81111 8.13348Z" fill="white"/>
<path d="M8.9252 10.1934L8.81111 9.85614L8.69703 10.1934H8.3252L8.6252 10.4046L8.51111 10.7459L8.81111 10.5346L9.11111 10.7459L8.99703 10.4046L9.29703 10.1934H8.9252Z" fill="white"/>
<path d="M9.86336 3.82281L9.74927 4.16409H9.37744L9.67744 4.37536L9.56336 4.71258L9.86336 4.50131L10.1676 4.71258L10.0493 4.37536L10.3535 4.16409H9.98167L9.86336 3.82281Z" fill="white"/>
<path d="M9.86336 5.54547L9.74927 5.88675H9.37744L9.67744 6.09802L9.56336 6.43523L9.86336 6.22803L10.1676 6.43523L10.0493 6.09802L10.3535 5.88675H9.98167L9.86336 5.54547Z" fill="white"/>
<path d="M9.86336 7.27222L9.74927 7.60943H9.37744L9.67744 7.8207L9.56336 8.16198L9.86336 7.95071L10.1676 8.16198L10.0493 7.8207L10.3535 7.60943H9.98167L9.86336 7.27222Z" fill="white"/>
<path d="M9.98167 9.33209L9.86336 8.99487L9.74927 9.33209H9.37744L9.67744 9.54336L9.56336 9.88463L9.86336 9.67337L10.1676 9.88463L10.0493 9.54336L10.3535 9.33209H9.98167Z" fill="white"/>
<path d="M10.9195 2.96155L10.8054 3.30283H10.4336L10.7336 3.51003L10.6195 3.85131L10.9195 3.64004L11.2195 3.85131L11.1054 3.51003L11.4054 3.30283H11.0336L10.9195 2.96155Z" fill="white"/>
<path d="M10.9195 4.6842L10.8054 5.02548H10.4336L10.7336 5.23675L10.6195 5.57397L10.9195 5.36676L11.2195 5.57397L11.1054 5.23675L11.4054 5.02548H11.0336L10.9195 4.6842Z" fill="white"/>
<path d="M10.9195 6.4068L10.8054 6.74808H10.4336L10.7336 6.95935L10.6195 7.30062L10.9195 7.08936L11.2195 7.30062L11.1054 6.95935L11.4054 6.74808H11.0336L10.9195 6.4068Z" fill="white"/>
<path d="M10.9195 8.13348L10.8054 8.4707H10.4336L10.7336 8.68197L10.6195 9.02325L10.9195 8.81198L11.2195 9.02325L11.1054 8.68197L11.4054 8.4707H11.0336L10.9195 8.13348Z" fill="white"/>
<path d="M11.0336 10.1934L10.9195 9.85614L10.8054 10.1934H10.4336L10.7336 10.4046L10.6195 10.7459L10.9195 10.5346L11.2195 10.7459L11.1054 10.4046L11.4054 10.1934H11.0336Z" fill="white"/>
<path d="M11.9718 3.82281L11.8577 4.16409H11.4858L11.7858 4.37536L11.6718 4.71258L11.9718 4.50131L12.276 4.71258L12.1577 4.37536L12.4619 4.16409H12.0901L11.9718 3.82281Z" fill="white"/>
<path d="M11.9718 5.54547L11.8577 5.88675H11.4858L11.7858 6.09802L11.6718 6.43523L11.9718 6.22803L12.276 6.43523L12.1577 6.09802L12.4619 5.88675H12.0901L11.9718 5.54547Z" fill="white"/>
<path d="M11.9718 7.27222L11.8577 7.60943H11.4858L11.7858 7.8207L11.6718 8.16198L11.9718 7.95071L12.276 8.16198L12.1577 7.8207L12.4619 7.60943H12.0901L11.9718 7.27222Z" fill="white"/>
<path d="M12.0901 9.33209L11.9718 8.99487L11.8577 9.33209H11.4858L11.7858 9.54336L11.6718 9.88463L11.9718 9.67337L12.276 9.88463L12.1577 9.54336L12.4619 9.33209H12.0901Z" fill="white"/>
<path d="M12.8425 3.51003L12.7284 3.85131L13.0284 3.64004L13.3284 3.85131L13.2143 3.51003L13.5143 3.30283H13.1425L13.0284 2.96155L12.9143 3.30283H12.5425L12.8425 3.51003Z" fill="white"/>
<path d="M13.0284 4.6842L12.9143 5.02548H12.5425L12.8425 5.23675L12.7284 5.57397L13.0284 5.36676L13.3284 5.57397L13.2143 5.23675L13.5143 5.02548H13.1425L13.0284 4.6842Z" fill="white"/>
<path d="M13.0284 6.4068L12.9143 6.74808H12.5425L12.8425 6.95935L12.7284 7.30062L13.0284 7.08936L13.3284 7.30062L13.2143 6.95935L13.5143 6.74808H13.1425L13.0284 6.4068Z" fill="white"/>
<path d="M13.0284 8.13348L12.9143 8.4707H12.5425L12.8425 8.68197L12.7284 9.02325L13.0284 8.81198L13.3284 9.02325L13.2143 8.68197L13.5143 8.4707H13.1425L13.0284 8.13348Z" fill="white"/>
<path d="M13.1425 10.1934L13.0284 9.85614L12.9143 10.1934H12.5425L12.8425 10.4046L12.7284 10.7459L13.0284 10.5346L13.3284 10.7459L13.2143 10.4046L13.5143 10.1934H13.1425Z" fill="white"/>
<path fill-rule="evenodd" clip-rule="evenodd" d="M28.12 3H3.88C2.84171 3 2 3.84171 2 4.88V19.12C2 20.1583 2.8417 21 3.88 21H28.12C29.1583 21 30 20.1583 30 19.12V4.88C30 3.8417 29.1583 3 28.12 3ZM3.88 2C2.28942 2 1 3.28942 1 4.88V19.12C1 20.7106 2.28942 22 3.88 22H28.12C29.7106 22 31 20.7106 31 19.12V4.88C31 3.28942 29.7106 2 28.12 2H3.88Z" fill="black" fill-opacity="0.12"/>
</svg>
