<?xml version="1.0" encoding="UTF-8"?>
<svg width="80px" height="80px" viewBox="0 0 80 80" version="1.1" xmlns="http://www.w3.org/2000/svg" xmlns:xlink="http://www.w3.org/1999/xlink">
    <!-- Generator: Sketch 63.1 (92452) - https://sketch.com -->
    <title>08.future.illustration02</title>
    <desc>Created with Sketch.</desc>
    <defs>
        <circle id="path-1" cx="39.7983193" cy="39.7983193" r="39.7983193"></circle>
    </defs>
    <g id="08.future.illustration02" stroke="none" stroke-width="1" fill="none" fill-rule="evenodd">
        <g id="family">
            <g id="Path" transform="translate(0.201681, 0.201681)">
                <mask id="mask-2" fill="white">
                    <use xlink:href="#path-1"></use>
                </mask>
                <use id="Mask" fill="#CED2D6" fill-rule="nonzero" xlink:href="#path-1"></use>
                <polygon fill="#EFA53A" fill-rule="nonzero" mask="url(#mask-2)" points="59.3613445 37.5462185 55.4285714 37.5462185 55.4285714 33.7142857 59.3613445 33.7142857 59.3613445 29.0420168 62.7563025 29.0420168 62.7563025 33.7142857 66.6890756 33.7142857 66.6890756 37.5462185 62.7563025 37.5462185 62.7563025 42.1848739 59.3613445 42.1848739 59.3613445 37.5462185"></polygon>
                <path d="M30.8907563,23.0252101 C30.8907563,23.0252101 28.1344538,23.1260504 26.5882353,25.2436975 C25.3109244,27.0252101 30.2184874,36.907563 32.3361345,44.4033613 C33.6470588,49.0756303 32.4705882,52.907563 32.4705882,52.907563 L18.5546218,59.1596639 C18.5546218,59.1596639 15.5294118,53.3445378 18.3193277,48.0672269 C20.1008403,44.7394958 21.8487395,42.3193277 20.3361345,39.0252101 C18.6890756,35.394958 20.5714286,32.2689076 21.9831933,30.9915966 C22.6554622,30.3865546 23.2941176,29.0756303 22.9915966,26.6890756 C22.487395,22.9579832 25.0420168,19.9663866 25.7478992,19.2941176 C26.8907563,18.2184874 28.4033613,17.0420168 32.3697479,17.1092437" fill="#F47658" fill-rule="nonzero" mask="url(#mask-2)"></path>
                <path d="M49.4453782,26.789916 C49.6806723,29.210084 50.0840336,30.1848739 50.7563025,30.8571429 C53.2436975,33.3781513 53.4789916,35.5630252 52.8067227,38.7226891 C51.9663866,42.5882353 52.8739496,42.1848739 55.1932773,45.6470588 C57.512605,49.1428571 57.210084,55.4957983 57.210084,55.4957983 L34.3865546,52.907563 C34.3865546,52.907563 44.4705882,27.3613445 41.2436975,24.4369748 C38.8571429,22.3193277 30.8907563,23.0252101 30.8907563,23.0252101 L32.3697479,17.1428571 C32.3697479,17.1428571 39.0252101,14.8235294 42.8571429,19.0252101 C42.8571429,19.0252101 44.3361345,20.7394958 45.2773109,21.1092437 C46.2184874,21.4789916 49.0756303,23.1596639 49.4453782,26.789916 Z" fill="#F27658" fill-rule="nonzero" mask="url(#mask-2)"></path>
                <path d="M44.6722689,53.1764706 L32.1008403,53.3445378 C32.1008403,53.3445378 33.0756303,47.3277311 30.3865546,46.6890756 C27.092437,45.9159664 25.8487395,43.8319328 25.5462185,42.4201681 C24.5378151,37.5462185 26.1848739,23.697479 26.1848739,23.697479 C26.1848739,23.697479 34.0840336,20.3697479 42.1848739,24.2016807 L44.6722689,52.9747899" fill="#FFDFC8" fill-rule="nonzero" mask="url(#mask-2)"></path>
                <circle id="Oval" fill="#2E968B" fill-rule="nonzero" mask="url(#mask-2)" cx="28.4033613" cy="31.2268908" r="1"></circle>
                <circle id="Oval" fill="#2E968B" fill-rule="nonzero" mask="url(#mask-2)" cx="35.7983193" cy="31.2605042" r="1"></circle>
                <path d="M37.6470588,30.1176471 C37.5462185,30.1176471 37.4453782,30.0840336 37.3781513,30.0168067 C35.6638655,28.5378151 34.3529412,29.9159664 34.2857143,29.9831933 C34.1512605,30.1512605 33.8823529,30.1512605 33.7142857,30.0168067 C33.5462185,29.8823529 33.5462185,29.6134454 33.6806723,29.4453782 C34.3193277,28.7394958 36.0336134,27.8319328 37.8823529,29.4117647 C38.0504202,29.5462185 38.0840336,29.8151261 37.9159664,29.9831933 C37.8487395,30.0840336 37.7478992,30.1176471 37.6470588,30.1176471 Z" fill="#F27658" fill-rule="nonzero" mask="url(#mask-2)"></path>
                <path d="M30.2184874,30.3529412 C30.1176471,30.3529412 30.0168067,30.3193277 29.9495798,30.2521008 C28.2352941,28.7731092 26.9243697,30.1512605 26.8571429,30.2184874 C26.7226891,30.3865546 26.4537815,30.3865546 26.2857143,30.2521008 C26.1176471,30.1176471 26.1176471,29.8487395 26.2521008,29.6806723 C26.8907563,28.9747899 28.605042,28.0672269 30.4537815,29.6470588 C30.6218487,29.7815126 30.6554622,30.0504202 30.487395,30.2184874 C30.4537815,30.2857143 30.3193277,30.3529412 30.2184874,30.3529412 Z" fill="#F27658" fill-rule="nonzero" mask="url(#mask-2)"></path>
                <path d="M32.0336134,39.4957983 C31.2268908,39.4957983 30.6890756,38.9915966 30.6554622,38.9915966 C30.5546218,38.8907563 30.5546218,38.7226891 30.6218487,38.6218487 C30.7226891,38.5210084 30.8907563,38.5210084 30.9915966,38.5882353 C30.9915966,38.5882353 31.4957983,39.0252101 32.1680672,38.9579832 C32.7058824,38.8907563 33.210084,38.5546218 33.6806723,37.8823529 C33.7478992,37.7815126 33.9159664,37.7478992 34.0168067,37.8151261 C34.1176471,37.8823529 34.1512605,38.0504202 34.0840336,38.1512605 C33.512605,38.9243697 32.8739496,39.3613445 32.2016807,39.4285714 C32.1680672,39.4957983 32.1008403,39.4957983 32.0336134,39.4957983 Z" fill="#5D4037" fill-rule="nonzero" mask="url(#mask-2)"></path>
                <path d="M30.8907563,20.6722689 C30.8907563,20.6722689 38.9915966,31.2605042 43.5630252,32.4369748 L43.5966387,23.092437 L30.8907563,20.6722689 Z" fill="#F27658" fill-rule="nonzero" mask="url(#mask-2)"></path>
                <path d="M31.2605042,36.605042 C30.8235294,36.605042 30.3529412,36.5042017 30.1176471,36.2016807 C29.9831933,36 29.8823529,35.6638655 30.1848739,35.1260504 C30.8235294,34.0168067 31.2605042,30.9915966 31.2605042,30.9579832 C31.2941176,30.8235294 31.394958,30.7226891 31.5294118,30.7563025 C31.6638655,30.789916 31.7647059,30.8907563 31.7310924,31.0252101 C31.697479,31.1596639 31.2941176,34.1848739 30.5882353,35.3613445 C30.5210084,35.4957983 30.3865546,35.7310924 30.487395,35.8655462 C30.6554622,36.1008403 31.3277311,36.1008403 31.8319328,36 C31.9663866,35.9663866 32.1008403,36.0672269 32.1344538,36.2016807 C32.1680672,36.3361345 32.0672269,36.4705882 31.9327731,36.5042017 C31.7983193,36.5714286 31.5294118,36.605042 31.2605042,36.605042 Z" fill="#5D4037" fill-rule="nonzero" mask="url(#mask-2)"></path>
                <circle id="Oval" fill="#FFDFC8" fill-rule="nonzero" mask="url(#mask-2)" cx="44.302521" cy="36.2689076" r="4.26890756"></circle>
                <path d="M47.4285714,36.7394958 C47.2941176,36.7394958 47.1596639,36.6386555 47.1596639,36.4705882 C47.1596639,34.7226891 45.7478992,33.3109244 44.0336134,33.3109244 C43.8991597,33.3109244 43.7647059,33.210084 43.7647059,33.0420168 C43.7647059,32.8739496 43.8655462,32.7731092 44.0336134,32.7731092 C46.0504202,32.7731092 47.6638655,34.4201681 47.6638655,36.4369748 C47.697479,36.605042 47.5966387,36.7394958 47.4285714,36.7394958 Z" fill="#5D4037" fill-rule="nonzero" mask="url(#mask-2)"></path>
                <path d="M24.5042017,27.8319328 C24.5042017,27.8319328 31.3277311,23.6302521 33.4117647,20.6722689 L25.2436975,22.3865546 L24.5042017,27.8319328 Z" fill="#F27658" fill-rule="nonzero" mask="url(#mask-2)"></path>
                <ellipse id="Oval" fill="#FFDFC8" fill-rule="nonzero" mask="url(#mask-2)" transform="translate(38.385218, 51.258959) rotate(-2.388094) translate(-38.385218, -51.258959) " cx="38.3852178" cy="51.2589589" rx="6.15106651" ry="2.72260321"></ellipse>
                <path d="M10.2184874,73.1428571 C10.2184874,73.1428571 14.6554622,51.6638655 38.3193277,50.8907563 C38.3193277,50.8907563 68.0336134,48.3361345 69.7478992,73.1428571 C69.7478992,73.1428571 64.302521,88 37.6470588,88.2689076 C10.9579832,88.5714286 10.2184874,73.1428571 10.2184874,73.1428571 Z" fill="#2E998E" fill-rule="nonzero" mask="url(#mask-2)"></path>
            </g>
        </g>
    </g>
</svg>