<?xml version="1.0" encoding="UTF-8"?>
<svg width="544px" height="592px" viewBox="0 0 544 592" version="1.1" xmlns="http://www.w3.org/2000/svg" xmlns:xlink="http://www.w3.org/1999/xlink">
    <!-- Generator: Sketch 63.1 (92452) - https://sketch.com -->
    <title>08.future.illustration00</title>
    <desc>Created with Sketch.</desc>
    <defs>
        <rect id="path-1" x="0" y="0" width="544" height="592"></rect>
    </defs>
    <g id="08.future.illustration00" stroke="none" stroke-width="1" fill="none" fill-rule="evenodd">
        <g id="3-years">
            <mask id="mask-2" fill="white">
                <use xlink:href="#path-1"></use>
            </mask>
            <g id="Mask"></g>
            <g mask="url(#mask-2)" fill-rule="nonzero">
                <path d="M253.928058,326.860432 C253.928058,326.860432 403.2,304.805755 308.489209,124.592806 C308.489209,124.592806 298.866187,94.9870504 310.146763,87.5741007 C310.146763,87.5741007 320.276259,81.8647482 324.834532,90.8892086 C324.834532,90.8892086 325.018705,79.1021583 333.858993,75.6028777 C333.858993,75.6028777 345.047482,73.2546763 348.36259,84.3971223 C348.36259,84.3971223 349.882014,73.3007194 358.261871,71.5971223 C358.261871,71.5971223 367.194245,70.676259 369.726619,81.0359712 C369.726619,81.0359712 372.397122,72.4258993 380.546763,71.5510791 C380.546763,71.5510791 390.722302,70.3079137 393.899281,82.1870504 C397.076259,94.0661871 572.684892,353.197122 273.266187,479.723741" id="Path" fill="#FFD3C7"></path>
                <path d="M0.368345324,611.499281 C0.368345324,611.499281 212.857554,685.81295 380.869065,601.139568 C380.869065,601.139568 345.139568,402.693525 283.671942,272.943885 C283.671942,272.943885 200.241727,214.883453 133.847482,243.384173 C133.847482,243.384173 10.9582734,285.743885 0.368345324,611.499281 Z" id="Path" fill="#DD674F"></path>
                <path d="M133.709353,243.384173 C133.709353,243.384173 148.581295,192.184173 150.607194,172.201439 C152.633094,152.218705 149.08777,109.214388 147.522302,94.342446 C145.956835,79.4705036 147.522302,52.857554 162.900719,44.1553957 C178.279137,35.4532374 249.461871,19.5683453 257.657554,19.0618705 C265.853237,18.5553957 275.061871,15.9769784 285.329496,52.857554 C295.551079,89.7381295 304.299281,152.72518 256.644604,205.997122 C256.644604,205.997122 231.044604,232.103597 231.044604,248.494964 C231.044604,248.494964 195.683453,270.503597 133.709353,243.384173 Z" id="Path" fill="#FFD3C7"></path>
                <path d="M243.798561,221.145324 C250.198561,212.535252 256.644604,205.997122 256.644604,205.997122 C257.703597,204.846043 258.670504,203.694964 259.683453,202.497842 L177.542446,191.539568 L152.955396,168.748201 C152.955396,168.748201 144.897842,194.62446 169.669065,209.680576 C186.014388,219.625899 214.97554,240.621583 243.798561,221.145324 Z" id="Path" fill="#F3C6BC"></path>
                <path d="M202.451799,110.825899 C201.945324,110.825899 201.484892,110.68777 201.02446,110.411511 C199.735252,109.628777 199.320863,107.92518 200.103597,106.635971 C200.241727,106.451799 203.05036,101.801439 208.483453,98.3021583 C213.548201,95.0330935 221.882014,92.1323741 232.794245,97.0129496 C234.17554,97.6115108 234.820144,99.2690647 234.17554,100.65036 C233.576978,102.031655 231.919424,102.676259 230.538129,102.031655 C223.585612,98.9467626 217.139568,99.2230216 211.430216,102.906475 C207.148201,105.669065 204.8,109.398561 204.8,109.444604 C204.293525,110.365468 203.418705,110.825899 202.451799,110.825899 Z" id="Path" fill="#5E4F49"></path>
                <path d="M260.65036,101.248921 C260.143885,101.248921 259.591367,101.110791 259.130935,100.788489 C257.88777,99.9597122 257.519424,98.2561151 258.394245,96.9669065 C258.62446,96.6446043 263.735252,89.0935252 272.299281,87.7122302 C277.502158,86.8834532 282.751079,88.4489209 287.861871,92.4086331 C289.058993,93.3294964 289.289209,95.0791367 288.368345,96.276259 C287.447482,97.4733813 285.697842,97.7035971 284.500719,96.7827338 C280.633094,93.7899281 276.857554,92.5928058 273.220144,93.1453237 C267.05036,94.1122302 262.998561,99.9597122 262.952518,100.051799 C262.4,100.834532 261.52518,101.248921 260.65036,101.248921 Z" id="Path" fill="#5E4F49"></path>
                <circle id="Oval" fill="#212121" cx="220.684892" cy="110.319424" r="4.37410072"></circle>
                <circle id="Oval" fill="#212121" cx="275.890647" cy="103.735252" r="4.37410072"></circle>
                <path d="M248.126619,145.680576 C247.620144,145.680576 247.159712,145.358273 247.021583,144.805755 C246.883453,144.207194 247.251799,143.608633 247.85036,143.42446 C249.001439,143.148201 250.060432,142.917986 251.027338,142.68777 C254.158273,141.997122 256.690647,141.444604 257.151079,140.293525 C257.611511,139.234532 256.736691,137.02446 254.572662,133.571223 C248.218705,123.533813 246.100719,99.2230216 246.008633,98.2100719 C245.96259,97.5654676 246.423022,97.0589928 247.021583,96.9669065 C247.620144,96.9208633 248.172662,97.381295 248.264748,97.9798561 C248.264748,98.2100719 250.428777,122.797122 256.506475,132.328058 C259.269065,136.656115 260.051799,139.234532 259.269065,141.122302 C258.348201,143.378417 255.493525,143.976978 251.533813,144.851799 C250.520863,145.082014 249.507914,145.31223 248.402878,145.588489 C248.310791,145.680576 248.218705,145.680576 248.126619,145.680576 Z" id="Path" fill="#212121"></path>
                <path d="M160.322302,125.421583 L180.120863,120.863309 C180.120863,120.863309 180.120863,151.71223 191.033094,157.191367 C201.945324,162.670504 211.522302,163.315108 226.210072,155.48777 C240.897842,147.614388 263.41295,137.392806 291.084892,154.797122 C291.084892,154.797122 279.113669,197.156835 246.008633,214.192806 C212.903597,231.228777 180.443165,213.271942 164.420144,200.195683 C159.723741,196.374101 155.211511,190.802878 155.533813,177.588489 C155.856115,164.328058 160.322302,125.421583 160.322302,125.421583 Z" id="Path" fill="#5E4F49"></path>
                <path d="M253.835971,158.434532 C249.830216,158.434532 244.719424,157.789928 240.115108,155.211511 C239.42446,154.843165 239.194245,153.968345 239.56259,153.277698 C239.930935,152.58705 240.805755,152.356835 241.496403,152.72518 C249.738129,157.283453 260.235971,154.981295 260.328058,154.935252 C261.110791,154.751079 261.847482,155.257554 262.031655,155.994245 C262.215827,156.776978 261.709353,157.513669 260.972662,157.697842 C260.742446,157.789928 257.841727,158.434532 253.835971,158.434532 Z" id="Path" fill="#FFFFFF"></path>
                <g id="Group" transform="translate(269.352518, 81.496403)">
                    <g transform="translate(5.525180, 0.000000)">
                        <ellipse id="Oval" fill="#E89C4B" cx="124.22446" cy="25.323741" rx="13.076259" ry="25.0935252"></ellipse>
                        <polygon id="Path" fill="#E89C4B" points="0.276258993 34.1640288 123.533813 50.4172662 123.533813 0.230215827 1.88776978 5.29496403"></polygon>
                        <ellipse id="Oval" fill="#CED2D6" cx="123.533813" cy="25.323741" rx="10.9582734" ry="21.0877698"></ellipse>
                    </g>
                    <path d="M13.4446043,20.0748201 C13.4446043,27.9942446 10.4978417,34.3942446 6.81438849,34.3942446 C3.13093525,34.3942446 0.184172662,27.9942446 0.184172662,20.0748201 C0.184172662,12.1553957 3.7294964,5.29496403 7.36690647,5.29496403 C11.0503597,5.29496403 13.4446043,12.1553957 13.4446043,20.0748201 Z" id="Path" fill="#E89C4B"></path>
                </g>
                <g id="Group" transform="translate(216.863309, 96.230216)">
                    <g transform="translate(6.446043, 0.000000)">
                        <ellipse id="Oval" fill="#E89C4B" cx="136.610072" cy="25.1395683" rx="14.4115108" ry="25.0935252"></ellipse>
                        <polygon id="Path" fill="#E89C4B" points="0 33.9798561 135.873381 50.2330935 135.873381 0.0460431655 1.74964029 5.11079137"></polygon>
                        <ellipse id="Oval" fill="#CED2D6" cx="135.873381" cy="25.1395683" rx="12.1093525" ry="21.0877698"></ellipse>
                    </g>
                    <path d="M14.8719424,19.8906475 C14.8719424,27.8100719 11.6028777,34.2100719 7.55107914,34.2100719 C3.49928058,34.2100719 0.230215827,27.8100719 0.230215827,19.8906475 C0.230215827,11.971223 4.14388489,5.11079137 8.14964029,5.11079137 C12.247482,5.11079137 14.8719424,11.971223 14.8719424,19.8906475 Z" id="Path" fill="#E89C4B"></path>
                </g>
                <path d="M371.430216,77.9510791 C371.430216,77.9510791 363.188489,90.7971223 371.153957,94.3884892 C371.153957,94.3884892 380.869065,97.657554 385.427338,90.5208633 C389.985612,83.3841727 387.407194,74.9582734 384.230216,74.2215827 C381.007194,73.4848921 373.916547,72.9784173 371.430216,77.9510791 Z" id="Path" fill="#FFD3C7"></path>
                <path d="M350.894964,76.8920863 C350.894964,76.8920863 341.317986,89.2316547 349.974101,93.3294964 C349.974101,93.3294964 360.610072,97.1510791 365.951079,90.2906475 C371.246043,83.4302158 368.713669,74.8201439 365.214388,73.8992806 C361.715108,72.9784173 353.841727,72.057554 350.894964,76.8920863 Z" id="Path" fill="#FFD3C7"></path>
                <path d="M328.14964,80.9438849 C328.14964,80.9438849 320,92.4086331 329.300719,94.9870504 C329.300719,94.9870504 340.535252,97.105036 345.047482,90.7510791 C349.559712,84.3971223 345.876259,77.352518 342.238849,76.9381295 C338.555396,76.4776978 330.497842,76.523741 328.14964,80.9438849 Z" id="Path" fill="#FFD3C7"></path>
                <path d="M311.205755,80.6676259 C311.205755,80.6676259 303.976978,92.1323741 312.218705,94.7107914 C312.218705,94.7107914 322.164029,96.828777 326.169784,90.4748201 C330.129496,84.1208633 326.906475,77.076259 323.683453,76.6618705 C320.414388,76.2014388 313.277698,76.247482 311.205755,80.6676259 Z" id="Path" fill="#FFD3C7"></path>
                <path d="M210.785612,505.507914 C210.785612,505.507914 166.169784,434.141007 199.41295,316.869065 L145.772662,333.030216 L158.11223,497.31223 L210.785612,505.507914 Z" id="Path" fill="#DD674F"></path>
                <ellipse id="Oval" fill="#CC5744" cx="188.823022" cy="410.106475" rx="18.0489209" ry="85.7784173"></ellipse>
                <path d="M178.693525,339.061871 C178.693525,339.061871 324.282014,320.322302 243.2,133.617266 C243.2,133.617266 235.78705,103.366906 247.574101,96.828777 C247.574101,96.828777 258.117986,91.9021583 261.985612,101.202878 C261.985612,101.202878 263.044604,89.4618705 272.115108,86.6071942 C272.115108,86.6071942 283.441727,85.0877698 285.928058,96.4604317 C285.928058,96.4604317 288.276259,85.5021583 296.748201,84.4424805 C296.748201,84.4424805 305.726619,84.1669065 307.476259,94.7107914 C307.476259,94.7107914 310.791367,86.3309353 318.98705,86.0546763 C318.98705,86.0546763 329.254676,85.5482014 331.510791,97.657554 C333.766906,109.766906 488.241727,381.697842 180.305036,485.709353 C180.305036,485.663309 149.225899,418.808633 178.693525,339.061871 Z" id="Path" fill="#FFD3C7"></path>
                <path d="M161.841727,328.471942 C151.297842,328.471942 142.54964,327.044604 136.103597,325.38705 C123.717986,322.256115 116.94964,317.974101 116.673381,317.789928 C116.166906,317.467626 116.028777,316.776978 116.351079,316.270504 C116.673381,315.764029 117.364029,315.625899 117.870504,315.948201 C117.916547,315.994245 124.730935,320.276259 136.794245,323.315108 C147.936691,326.123741 165.939568,328.333813 188.592806,323.269065 C189.191367,323.130935 189.789928,323.499281 189.882014,324.097842 C190.020144,324.696403 189.651799,325.294964 189.053237,325.38705 C179.061871,327.643165 169.899281,328.471942 161.841727,328.471942 Z" id="Path" fill="#212121"></path>
                <path d="M308.258993,414.710791 C307.936691,414.710791 307.614388,414.572662 307.384173,414.296403 C307.015827,413.835971 307.107914,413.145324 307.568345,412.776978 C307.798561,412.592806 332.109353,393.715108 349.882014,352.966906 C360.333813,329.02446 366.503597,302.319424 368.207194,273.542446 C370.371223,237.582734 365.582734,198.353957 353.933813,156.915108 C353.74964,156.316547 354.117986,155.717986 354.670504,155.579856 C355.269065,155.395683 355.867626,155.764029 356.005755,156.316547 C367.700719,198.031655 372.535252,237.536691 370.32518,273.772662 C368.57554,302.779856 362.313669,329.761151 351.769784,353.933813 C333.766906,395.188489 309.08777,414.296403 308.857554,414.480576 C308.719424,414.664748 308.489209,414.710791 308.258993,414.710791 Z" id="Path" fill="#212121"></path>
                <path d="M154.336691,502.97554 C145.542446,502.97554 138.03741,501.82446 132.097842,500.397122 C118.284892,497.082014 110.273381,491.78705 109.905036,491.602878 C109.398561,491.280576 109.260432,490.589928 109.582734,490.083453 C109.905036,489.576978 110.595683,489.438849 111.102158,489.761151 C111.194245,489.807194 119.205755,495.056115 132.696403,498.279137 C145.128058,501.271942 164.880576,503.067626 188.454676,494.825899 C189.007194,494.641727 189.651799,494.917986 189.835971,495.516547 C190.020144,496.069065 189.743885,496.713669 189.145324,496.897842 C176.299281,501.410072 164.466187,502.97554 154.336691,502.97554 Z" id="Path" fill="#212121"></path>
                <path d="M266.91223,128.966906 C266.451799,128.966906 266.03741,128.690647 265.853237,128.230216 C265.669065,127.631655 260.880576,113.128058 260.834532,101.202878 C260.834532,100.604317 261.341007,100.097842 261.939568,100.097842 C261.939568,100.097842 261.939568,100.097842 261.939568,100.097842 C262.538129,100.097842 263.044604,100.604317 263.044604,101.202878 C263.090647,112.759712 267.879137,127.401439 267.92518,127.539568 C268.109353,128.092086 267.78705,128.736691 267.234532,128.920863 C267.142446,128.966906 267.05036,128.966906 266.91223,128.966906 Z" id="Path" fill="#212121"></path>
                <path d="M291.130935,124.730935 C290.670504,124.730935 290.256115,124.454676 290.071942,123.994245 C289.88777,123.395683 285.099281,108.892086 285.053237,96.9669065 C285.053237,96.3683453 285.559712,95.8618705 286.158273,95.8618705 C286.158273,95.8618705 286.158273,95.8618705 286.158273,95.8618705 C286.756835,95.8618705 287.263309,96.3683453 287.263309,96.9669065 C287.309353,108.523741 292.097842,123.165468 292.143885,123.303597 C292.328058,123.856115 292.005755,124.500719 291.453237,124.684892 C291.361151,124.730935 291.223022,124.730935 291.130935,124.730935 Z" id="Path" fill="#212121"></path>
                <path d="M313.231655,124.730935 C312.771223,124.730935 312.356835,124.454676 312.172662,123.994245 C311.988489,123.395683 307.2,108.892086 307.153957,96.9669065 C307.153957,96.3683453 307.660432,95.8618705 308.258993,95.8618705 C308.258993,95.8618705 308.258993,95.8618705 308.258993,95.8618705 C308.857554,95.8618705 309.364029,96.3683453 309.364029,96.9669065 C309.410072,108.523741 314.198561,123.165468 314.244604,123.303597 C314.428777,123.856115 314.106475,124.500719 313.553957,124.684892 C313.461871,124.730935 313.323741,124.730935 313.231655,124.730935 Z" id="Path" fill="#212121"></path>
                <path d="M284.684892,50.6014388 C282.290647,42.2676259 279.942446,36.0978417 277.640288,31.4935252 L194.164029,36.9726619 L176.57554,50.8316547 L177.772662,66.3942446 L187.395683,67.3151079 C187.395683,67.3151079 186.336691,62.1122302 187.395683,57.6 C188.454676,53.0877698 189.191367,52.3971223 193.703597,57.6 C198.215827,62.8028777 207.838849,75.8791367 226.76259,68.742446 C245.686331,61.6057554 244.535252,55.2517986 258.394245,53.9165468 C267.879137,53.0877698 278.054676,52.6733813 284.684892,50.6014388 Z" id="Path" fill="#F3C6BC"></path>
                <path d="M180.443165,146.048921 L183.021583,82.5553957 C183.021583,82.5553957 191.033094,71.781295 185.6,61.0532374 C182.146763,54.2848921 187.119424,47.7467626 192.782734,51.8446043 C198.446043,55.942446 206.595683,68.742446 217.876259,66.7165468 C229.156835,64.6906475 240.391367,54.8834532 251.165468,50.5553957 C261.939568,46.2273381 275.246043,49.818705 283.948201,45.2143885 C292.65036,40.6100719 297.761151,23.2057554 290.071942,9.34676259 C282.382734,-4.46618705 274.18705,1.65755396 259.361151,1.65755396 C244.489209,1.65755396 210.693525,-2.94676259 192.276259,12.4316547 C173.858993,27.8100719 168.794245,27.257554 160,29.8359712 C142.595683,34.9467626 118.008633,48.8057554 122.106475,91.8100719 L126.710791,135.320863 L180.443165,146.048921 Z" id="Path" fill="#5E4F49"></path>
                <g id="Group" transform="translate(110.503597, 120.633094)">
                    <circle id="Oval" fill="#FFD3C7" cx="28.4086331" cy="28.5467626" r="28.3625899"></circle>
                    <path d="M6.81438849,33.105036 C6.2618705,33.105036 5.75539568,32.6906475 5.70935252,32.0920863 C5.70935252,31.9079137 4.28201439,14.5035971 20.6273381,6.86043165 C21.1798561,6.58417266 21.8244604,6.86043165 22.1007194,7.36690647 C22.3769784,7.87338129 22.1007194,8.56402878 21.5942446,8.84028777 C6.67625899,15.8388489 7.87338129,31.2633094 7.91942446,31.9079137 C7.96546763,32.5064748 7.55107914,33.0589928 6.90647482,33.105036 C6.90647482,33.105036 6.86043165,33.105036 6.81438849,33.105036 Z" id="Path" fill="#212121"></path>
                </g>
            </g>
        </g>
    </g>
</svg>