<svg id="Capa_1" data-name="Capa 1" xmlns="http://www.w3.org/2000/svg" xmlns:xlink="http://www.w3.org/1999/xlink" viewBox="0 0 981.05 963.53"><defs><style>.cls-1{fill:#faf3e8;}.cls-2{fill:#fff;}.cls-3{fill:#333;}.cls-4{fill:#eaa42c;}.cls-5{fill:#365b56;}.cls-6{fill:#5d9e9b;}.cls-7{fill:#af754e;}.cls-8{mask:url(#mask);}.cls-9{fill:#c0dad8;}.cls-10{fill:#efa53a;}.cls-11{fill:#b3bdbc;}.cls-12{fill:#e5be8c;}.cls-13{fill:#9daaa9;}.cls-14{fill:#e9a32c;}.cls-15{fill:#d38013;}.cls-16{fill:none;stroke:#5d9e9b;stroke-miterlimit:10;stroke-width:3px;}.cls-17{filter:url(#luminosity-invert-noclip);}</style><filter id="luminosity-invert-noclip" x="164.44" y="-5881.27" width="180.34" height="32766" filterUnits="userSpaceOnUse" color-interpolation-filters="sRGB"><feColorMatrix values="-1 0 0 0 1 0 -1 0 0 1 0 0 -1 0 1 0 0 0 1 0" result="invert"/><feFlood flood-color="#fff" result="bg"/><feBlend in="invert" in2="bg"/></filter><mask id="mask" x="164.44" y="-5881.27" width="180.34" height="32766" maskUnits="userSpaceOnUse"><g class="cls-17"/></mask></defs><path class="cls-1" d="M46.91,557.62S-32.42,196.34,287.27,113.25,900.18,255.36,939.7,565.91,639.6,902.66,501.62,904.33C338.18,906.32,97.32,800.2,46.91,557.62Z"/><rect class="cls-2" x="451.36" y="228.2" width="267.81" height="338.09" transform="translate(133.32 -146.9) rotate(16.12)"/><path class="cls-3" d="M651.42,283.72a1.06,1.06,0,0,1-.35-.05l-60.86-17.59a1.25,1.25,0,1,1,.69-2.4l60.86,17.59a1.25,1.25,0,0,1-.34,2.45Z"/><path class="cls-3" d="M712.66,340a1.41,1.41,0,0,1-.35-.05L508.38,281a1.25,1.25,0,0,1,.7-2.4L713,337.56a1.24,1.24,0,0,1,.86,1.54A1.26,1.26,0,0,1,712.66,340Z"/><path class="cls-3" d="M706.63,360.85a1.1,1.1,0,0,1-.35-.05L502.36,301.86a1.25,1.25,0,1,1,.69-2.4L707,358.4a1.25,1.25,0,0,1-.35,2.45Z"/><path class="cls-3" d="M700.61,381.7a1.34,1.34,0,0,1-.35-.05L496.33,322.71a1.25,1.25,0,0,1,.7-2.41L701,379.25a1.25,1.25,0,0,1-.34,2.45Z"/><ellipse class="cls-4" cx="440.73" cy="507.37" rx="71.86" ry="75.54" transform="translate(-230.41 472.15) rotate(-46.02)"/><ellipse class="cls-4" cx="498.85" cy="498.13" rx="2.48" ry="2.58" transform="translate(-206 511.14) rotate(-46.02)"/><ellipse class="cls-4" cx="503.1" cy="517.29" rx="2.48" ry="2.58" transform="translate(-218.49 520.06) rotate(-46.02)"/><ellipse class="cls-4" cx="488.01" cy="510.28" rx="2.48" ry="2.58" transform="translate(-218.06 507.06) rotate(-46.02)"/><ellipse class="cls-4" cx="481.53" cy="490.09" rx="2.48" ry="2.58" transform="translate(-205.51 496.22) rotate(-46.02)"/><ellipse class="cls-4" cx="472.23" cy="502.96" rx="2.48" ry="2.58" transform="translate(-217.61 493.46) rotate(-46.02)"/><ellipse class="cls-4" cx="497.42" cy="536.97" rx="2.48" ry="2.58" transform="translate(-234.38 521.98) rotate(-46.02)"/><ellipse class="cls-4" cx="479.99" cy="528.88" rx="2.48" ry="2.58" transform="translate(-233.89 506.97) rotate(-46.02)"/><ellipse class="cls-4" cx="483.21" cy="550.43" rx="2.48" ry="2.58" transform="translate(-248.41 515.87) rotate(-46.02)"/><path class="cls-4" d="M465.89,448.55c-2.22-1-4.24-2.9-3.62-4.34a1.52,1.52,0,0,1,.9-.81c1.07-.41,2.86-.14,4.67.7,2.22,1,4.25,2.91,3.63,4.35a1.52,1.52,0,0,1-.91.8,3.44,3.44,0,0,1-1.22.19A8.68,8.68,0,0,1,465.89,448.55Zm-2.37-4.24a.6.6,0,0,0-.36.28h0c-.24.55.87,2,3.14,3.08a5.83,5.83,0,0,0,3.92.67.57.57,0,0,0,.35-.28c.24-.55-.87-2-3.14-3.07a7.65,7.65,0,0,0-3.05-.8A2.5,2.5,0,0,0,463.52,444.31Z"/><path class="cls-5" d="M474.33,426.07C529.57,411.38,555,459.56,555,459.56S501.87,478.12,474.33,426.07Z"/><rect class="cls-5" x="454.05" y="426.4" width="41.24" height="1.7" transform="translate(-99.47 706.91) rotate(-67.96)"/><path class="cls-6" d="M648.82,438.56c9.91-34.34,40.37-42.71,65.73-35.4s46.14,30.49,36.23,64.83-39.84,42.86-65.2,35.55S638.91,472.9,648.82,438.56Zm34.67-84.42c13.72-47.54,42.31-63.33,66.36-75.27,21.85-10.29,39.25-19,44-35.38,4.27-14.79-5.28-31.28-27.46-37.69-19.55-5.64-41.24.12-58.65,12.84l-34-68.75c39.19-24.74,81.5-32.56,129-18.84C871,150.72,907,206.33,891.74,259.15c-11.89,41.21-47.66,56.07-76.54,68.91-27,12.24-45.39,26.39-53.56,60.65l-80.83-23.32C681.88,361.69,682.42,357.84,683.49,354.14Z"/><rect class="cls-4" x="269.65" y="380.33" width="35.93" height="58.31" transform="translate(689.11 708.16) rotate(161.73)"/><path class="cls-6" d="M249.79,202c28.09-31.94,59.32-16.49,59.32-16.49,24.62,10.75,39.95,36.68,26.13,64.12,0,0,30.95-7.37,43,39.13,0,0,9.75,54-36.73,57.84,0,0,17.47,27.38-11.95,50.55,0,0-28.94,25.29-53.91,3.27,0,0,8.07,30.56-33.22,35.22-34.16,3.85-37.18-24-40.71-33.07,0,0-24.15,24.29-49.32-8.51-9.11-11.88-22.29-40.18,6-59.58,0,0-40.21-10.25-31.36-57.33,8-42.66,52.81-35.69,52.81-35.69s-16.44-36,17.92-53.73C231.13,170.56,249.79,202,249.79,202Z"/><path class="cls-3" d="M246.45,886.22h-.76a35.35,35.35,0,0,1,1.47-70.69h0a35.35,35.35,0,0,1-.71,70.7Zm0-68.21a33,33,0,1,0,.69,0Z"/><rect class="cls-7" x="217.66" y="490.09" width="241.04" height="326.67"/><polyline class="cls-2" points="169.71 606.23 148.01 721.35 148.01 861.54 364.37 861.54 348.09 723.09 361.99 604.14 169.71 606.23"/><path class="cls-2" d="M360.25,606.69l-.46,248.07a6.78,6.78,0,0,1-6.77,6.78"/><polygon class="cls-1" points="408.89 861.54 355.48 861.54 344.69 723.98 358.12 604.18 407.44 606.41 408.89 861.54"/><path class="cls-3" d="M355.4,768.63a.25.25,0,0,0,0-.5.25.25,0,0,0,0,.5Z"/><g class="cls-8"><polygon class="cls-9" points="333.17 721.35 164.44 721.35 181.29 625.45 344.78 625.45 333.17 721.35"/></g><circle class="cls-10" cx="330.16" cy="807.42" r="14.53"/><polygon class="cls-7" points="815.05 850.15 458.73 850.15 458.73 490.09 815.05 528.88 815.05 850.15"/><rect class="cls-11" x="408.73" y="816.76" width="411.15" height="34.2"/><polygon class="cls-9" points="353.4 721.35 364.34 625.45 400.02 625.45 401.61 721.35 353.4 721.35"/><path class="cls-12" d="M363,733.48c-.59,0-1,0-1,0a2.18,2.18,0,0,1,.4-4.34c.1,0,4.86.36,8-2.39,1.77-1.57,2.72-3.93,2.83-7,.16-4.4,1.66-7.82,4.46-10.15,4.88-4.06,11.87-3.08,12.17-3a2.18,2.18,0,1,1-.64,4.31s-5.39-.72-8.76,2.1c-1.79,1.5-2.76,3.84-2.87,6.94-.16,4.35-1.62,7.77-4.34,10.16C369.66,733.11,365,733.48,363,733.48Z"/><rect class="cls-12" x="382.62" y="686.41" width="18.98" height="47.47" rx="9.25"/><circle class="cls-10" cx="169.31" cy="807.42" r="14.53"/><rect class="cls-11" x="148.01" y="828.46" width="207.47" height="33.08"/><rect class="cls-13" x="354.99" y="828.46" width="53.9" height="33.08"/><path class="cls-3" d="M499.44,886.22h-.75a35.35,35.35,0,0,1,1.47-70.69h0a35.35,35.35,0,0,1-.72,70.7Zm0-68.21a33,33,0,1,0,.69,0Z"/><path class="cls-3" d="M687.87,886.22h-.75a35.35,35.35,0,1,1,1.47-70.69h0a35.35,35.35,0,0,1-.72,70.7Zm0-68.21a33,33,0,1,0,.7,0Z"/><path class="cls-3" d="M772.8,886.22H772a35.35,35.35,0,0,1,1.47-70.69h0a35.35,35.35,0,0,1-.71,70.7Zm0-68.21a33,33,0,1,0,.69,0Z"/><path class="cls-3" d="M894.44,645l-2.61-.19L497.55,615.88,431.3,490.68a1.25,1.25,0,0,1,2.21-1.17l65.61,124,390.29,28.63L813.16,532a1.25,1.25,0,0,1,2.06-1.42Z"/><path class="cls-3" d="M218.48,585.38H146.73l70.74-96.32a1.25,1.25,0,1,1,2,1.48l-67.82,92.34h66.81a1.25,1.25,0,1,1,0,2.5Z"/><circle class="cls-14" cx="458.73" cy="178.76" r="70.27"/><path class="cls-15" d="M436.7,188.1h-6.82v-6.49h5.81c0-.51-.08-1.1-.08-1.69a18.66,18.66,0,0,1,.17-2.44h-5.9v-6.4h6.82c3.37-12,13.06-20.3,26.88-20.3A26.48,26.48,0,0,1,476,153.56l-4,9.68a17,17,0,0,0-8.18-1.68c-6.9,0-11.87,3.45-14,9.52h16.6l-2.53,6.4H448.5a17.71,17.71,0,0,0-.09,4.13h13.9l-2.52,6.49h-10c1.52,5.22,6.15,9.6,14.49,9.6a16.3,16.3,0,0,0,7.84-1.77l3.71,9.69a27.84,27.84,0,0,1-12.81,2.95C449,208.57,439.4,199.72,436.7,188.1Z"/><path class="cls-3" d="M414.52,886.22h-.76a35.35,35.35,0,1,1,1.48-70.69h0a35.35,35.35,0,0,1-.72,70.7Zm0-68.21a33,33,0,1,0,.69,0Z"/><rect class="cls-16" x="-371.61" y="-3124.9" width="4282.16" height="5728.17"/></svg>