<?xml version="1.0" encoding="utf-8"?>
<!-- Generator: Adobe Illustrator 24.0.1, SVG Export Plug-In . SVG Version: 6.00 Build 0)  -->
<svg version="1.1" id="Capa_1" xmlns="http://www.w3.org/2000/svg" xmlns:xlink="http://www.w3.org/1999/xlink" x="0px" y="0px"
	 viewBox="0 0 640 640" style="enable-background:new 0 0 640 640;" xml:space="preserve">
<style type="text/css">
	.st0{fill:#FAF3E8;}
	.st1{fill:#EAA42C;}
	.st2{fill:#5D9E9B;}
	.st3{fill:#C0DAD8;}
	.st4{fill:#FFDEC7;}
	.st5{clip-path:url(#SVGID_3_);fill:#5D9E9B;}
	.st6{fill:#FFFFFF;}
	.st7{fill:none;stroke:#333333;stroke-width:2.5;stroke-linecap:round;stroke-miterlimit:10;}
	.st8{fill:#365B56;}
	.st9{fill:none;stroke:#365B56;stroke-width:1.7023;stroke-miterlimit:10;}
	.st10{clip-path:url(#SVGID_5_);fill:#5D9E9B;}
	.st11{fill:#FFDC6F;}
	.st12{fill:none;stroke:#333333;stroke-width:1.3658;stroke-linecap:round;stroke-miterlimit:10;}
	.st13{fill:#333333;}
	.st14{fill:none;stroke:#333333;stroke-width:1.4442;stroke-linecap:round;stroke-miterlimit:10;}
	.st15{fill:none;stroke:#333333;stroke-width:2;stroke-linecap:round;stroke-miterlimit:10;}
	.st16{fill:#AF754E;}
	.st17{fill:#97623E;}
	.st18{fill:#222222;}
	.st19{fill:#FCCDAC;}
	.st20{fill:none;stroke:#467C75;stroke-width:4.6233;stroke-miterlimit:10;}
	.st21{fill:#EDB24C;}
	.st22{fill:#F1A74A;}
	.st23{fill:none;stroke:#333333;stroke-width:3.3231;stroke-linecap:round;stroke-miterlimit:10;}
	.st24{fill:none;stroke:#222222;stroke-width:9.9692;stroke-linecap:round;stroke-miterlimit:10;}
	.st25{fill:#5D9D9A;}
	.st26{fill:none;stroke:#333333;stroke-width:3.0088;stroke-linecap:round;stroke-miterlimit:10;}
	.st27{fill:#E9A32C;}
	.st28{fill:#D38013;}
	.st29{fill:#6D5235;}
	.st30{fill:none;stroke:#365B56;stroke-width:1.4072;stroke-miterlimit:10;}
	.st31{fill:none;stroke:#D89027;stroke-width:4.4541;stroke-miterlimit:10;}
	.st32{fill:none;}
	.st33{fill:#B2D3D0;}
	.st34{fill:#468480;}
	.st35{clip-path:url(#SVGID_7_);}
	.st36{clip-path:url(#SVGID_9_);}
	.st37{fill:#A9C9C5;}
	.st38{fill:#3E6D68;}
	.st39{fill:none;stroke:#D89027;stroke-width:3.777;stroke-miterlimit:10;}
	.st40{fill:#346661;}
	.st41{fill:none;stroke:#D89027;stroke-width:3.0705;stroke-miterlimit:10;}
	.st42{fill:none;stroke:#333333;stroke-width:2.8529;stroke-linecap:round;stroke-linejoin:round;stroke-miterlimit:10;}
	.st43{fill:#D89027;}
	.st44{filter:url(#Adobe_OpacityMaskFilter);}
	.st45{mask:url(#SVGID_10_);fill:#C0DAD8;}
	.st46{fill:#EFA53A;}
	.st47{fill:#B3BDBC;}
	.st48{fill:none;stroke:#E5BE8C;stroke-width:4.3561;stroke-linecap:round;stroke-miterlimit:10;}
	.st49{fill:#E5BE8C;}
	.st50{fill:#9DAAA9;}
	.st51{fill:none;stroke:#333333;stroke-width:2.3147;stroke-linecap:round;stroke-miterlimit:10;}
	.st52{fill:none;stroke:#FFFFFF;stroke-width:2;stroke-miterlimit:10;}
	.st53{clip-path:url(#SVGID_14_);fill:#346661;}
	.st54{clip-path:url(#SVGID_14_);fill:#5D9E9B;}
	.st55{fill:none;stroke:#D89027;stroke-width:7;stroke-linecap:round;stroke-miterlimit:10;}
	.st56{clip-path:url(#SVGID_20_);fill:none;stroke:#D89027;stroke-width:4.4541;stroke-miterlimit:10;}
	.st57{clip-path:url(#SVGID_22_);fill:none;stroke:#D89027;stroke-width:4.4541;stroke-miterlimit:10;}
	.st58{fill:none;stroke:#E1A647;stroke-miterlimit:10;}
	.st59{fill:#FFDAC6;}
	.st60{fill:#212121;}
	.st61{fill:none;stroke:#333333;stroke-width:1.676;stroke-linecap:round;stroke-miterlimit:10;}
	.st62{fill:none;stroke:#468480;stroke-width:2.1459;stroke-linecap:round;stroke-linejoin:round;stroke-miterlimit:10;}
	.st63{clip-path:url(#SVGID_24_);}
	.st64{fill:none;stroke:#333333;stroke-width:1.2684;stroke-linecap:round;stroke-miterlimit:10;}
	.st65{fill:none;stroke:#333333;stroke-width:1.1484;stroke-linecap:round;stroke-miterlimit:10;}
	.st66{fill:none;stroke:#333333;stroke-width:1.4293;stroke-linecap:round;stroke-miterlimit:10;}
	.st67{fill:none;stroke:#212121;stroke-width:4.2878;stroke-linecap:round;stroke-miterlimit:10;}
	.st68{fill:none;stroke:#468480;stroke-width:1.83;stroke-linecap:round;stroke-linejoin:round;stroke-miterlimit:10;}
	.st69{fill:none;stroke:#333333;stroke-width:1.3816;stroke-linecap:round;stroke-miterlimit:10;}
	.st70{fill:none;stroke:#468480;stroke-width:2.2019;stroke-linecap:round;stroke-linejoin:round;stroke-miterlimit:10;}
	.st71{clip-path:url(#SVGID_26_);}
	.st72{fill:none;stroke:#333333;stroke-width:1.6231;stroke-linecap:round;stroke-miterlimit:10;}
	.st73{fill:none;stroke:#FFFFFF;stroke-width:1.4293;stroke-linecap:round;stroke-miterlimit:10;}
	.st74{fill:none;stroke:#222222;stroke-width:8.5586;stroke-linecap:round;stroke-miterlimit:10;}
	.st75{fill:none;stroke:#333333;stroke-width:2.8529;stroke-linecap:round;stroke-miterlimit:10;}
	.st76{fill:none;stroke:#333333;stroke-width:2.5831;stroke-linecap:round;stroke-miterlimit:10;}
	.st77{fill:none;stroke:#333333;stroke-width:1.7625;stroke-linecap:round;stroke-miterlimit:10;}
	.st78{fill:none;stroke:#728482;stroke-width:1.7625;stroke-linecap:round;stroke-miterlimit:10;}
	.st79{clip-path:url(#SVGID_28_);}
	.st80{fill:none;stroke:#637572;stroke-width:1.7625;stroke-linecap:round;stroke-miterlimit:10;}
	.st81{fill:none;stroke:#333333;stroke-width:1.5682;stroke-linecap:round;stroke-miterlimit:10;}
	.st82{fill:none;stroke:#365B56;stroke-width:0.9491;stroke-miterlimit:10;}
	.st83{fill:none;stroke:#333333;stroke-width:1.6284;stroke-linecap:round;stroke-miterlimit:10;}
	.st84{fill:none;stroke:#468480;stroke-width:1.541;stroke-linecap:round;stroke-linejoin:round;stroke-miterlimit:10;}
	.st85{fill:none;stroke:#468480;stroke-width:1.4907;stroke-linecap:round;stroke-linejoin:round;stroke-miterlimit:10;}
	.st86{fill:none;stroke:#5D9E9B;stroke-width:3;stroke-miterlimit:10;}
</style>
<g>
	<circle class="st1" cx="126.1" cy="143" r="19.8"/>
</g>
<g>
	<path class="st0" d="M445.7,85.1c0,0,233.5,110.6,145,315.1c-88.5,204.5-275.9,301.6-464.5,191.4S74.5,297,121.2,216.4
		S290.1,9.3,445.7,85.1z"/>
</g>
<g>
	<g>
		<path class="st59" d="M260.5,347.8C98.9,260,90.2,389.9,90.2,389.9s11.8,16.2,24.3,29c7.3,7.4,8.4,10,5.5,13.5
			c-2.2,2.7-7.2,1.2-12.3-2.5c-11.2-8.2-19.6-7.4-17.9,1.6c0,0,6.1,29.3,10.3,38.8c0,0,3.9,7.9-2.4,10.4c-6.7,2.7-8.1-3.6-8.1-3.6
			s2.3,6.7-3,9.2c0,0-6.4,2.6-9.1-5.7l-0.9-2c2.1,6.5-3.7,7.9-3.7,7.9c-7.1,1.8-8.9-5.8-8.9-5.8c-7.6,5.7-11.4-4.2-11.4-4.2
			S-7.7,356,68.8,263.5c19.8-24,58.6-51.8,128.8-31.2c89,26.1,105.1,41.4,105.1,41.4L260.5,347.8z"/>
	</g>
	<g>
		<path class="st13" d="M89.9,478.8c-0.3,0-0.6-0.2-0.7-0.5c-0.1-0.2-6.3-15.5-11.2-34.4c-0.1-0.4,0.1-0.8,0.5-0.9
			c0.4-0.1,0.8,0.1,0.9,0.5c4.9,18.7,11.1,34,11.2,34.2c0.2,0.4,0,0.8-0.4,1C90.1,478.8,90,478.8,89.9,478.8z"/>
	</g>
	<g>
		<path class="st13" d="M77,480.9c-0.3,0-0.5-0.2-0.6-0.4c0-0.1-5-14-10.1-33.3c-0.1-0.4,0.1-0.7,0.5-0.8c0.4-0.1,0.7,0.1,0.8,0.5
			c5.1,19.2,10,33,10,33.2c0.1,0.4-0.1,0.7-0.4,0.9C77.2,480.9,77.1,480.9,77,480.9z"/>
	</g>
	<g>
		<path class="st13" d="M63.7,480.7c-0.3,0-0.5-0.2-0.6-0.4c0-0.1-4.3-10.3-9.9-29c-0.1-0.4,0.1-0.7,0.5-0.8
			c0.4-0.1,0.7,0.1,0.8,0.5c5.5,18.6,9.8,28.8,9.8,28.9c0.1,0.3,0,0.7-0.4,0.9C63.9,480.6,63.8,480.7,63.7,480.7z"/>
	</g>
</g>
<g>
	<path class="st6" d="M228.2,233.6l-4.1,138l61.1-9.3l107.3-21.1C392.5,341.2,331.9,246.5,228.2,233.6z"/>
</g>
<g>
	<path class="st60" d="M259.4,292.1H397c0,0,5.5-23.7-4.3-36.7c-5.9-7.8-18.3-16.4-21.4-32.5c-3.1-16.1-16.7-33.1-35.5-39.3
		c-18.8-6.1-58.3,2-70.6,17.1c-12.3,15.2,0.6,52.2,0.6,52.2S271.1,271,259.4,292.1z"/>
</g>
<g>
	<path class="st6" d="M208.7,598.3c41.5-164.1,78.6-280.2,78.6-280.2c76-20.1,124.7,0,124.7,0c16,138.7,46.6,235.8,57.5,278"/>
</g>
<g>
	<path class="st59" d="M339.2,218.2c13.4,67.9,26.6,95.1,26.6,95.1c-27.5,24.1-55,15.5-55,15.5c-5.1-20.1-12.7-19.9-19.3-21.2
		c-31.4-6.2-32-81.4-32-81.4s0.1-17.9,37.8-20.2C297.3,206,336.4,204.4,339.2,218.2z"/>
</g>
<g>
	<path class="st13" d="M290.8,270.1c-1.3,0-2.4-0.3-3.1-1c-1.4-1.2-1.2-2.9-1.2-3l0.1-20c0-0.5,0.4-0.8,0.8-0.8c0,0,0,0,0,0
		c0.5,0,0.8,0.4,0.8,0.8l-0.1,20.1c0,0.1-0.1,1,0.6,1.6c0.6,0.5,1.9,0.9,4.9,0.1c0.4-0.1,0.9,0.1,1,0.6c0.1,0.4-0.1,0.9-0.6,1
		C292.9,270,291.8,270.1,290.8,270.1z"/>
</g>
<g>
	<circle class="st13" cx="319.5" cy="258.5" r="1.1"/>
</g>
<g>
	<circle class="st13" cx="323.9" cy="262.1" r="1.1"/>
</g>
<g>
	<circle class="st13" cx="316.1" cy="262.6" r="1.1"/>
</g>
<g>
	<circle class="st13" cx="320.7" cy="266.2" r="1.1"/>
</g>
<g>
	<circle class="st13" cx="269.2" cy="260.8" r="1.1"/>
</g>
<g>
	<circle class="st13" cx="273.6" cy="264.4" r="1.1"/>
</g>
<g>
	<circle class="st13" cx="265.8" cy="265" r="1.1"/>
</g>
<g>
	<circle class="st13" cx="270.4" cy="268.5" r="1.1"/>
</g>
<g>
	<path class="st60" d="M263.9,249.8c-0.6,0-1.2-0.2-1.7-0.7c-1-1-1.1-2.5-0.1-3.6c3.1-3.2,11.2-7.6,20-1.1c1.1,0.8,1.4,2.4,0.5,3.5
		c-0.8,1.1-2.4,1.4-3.5,0.5c-7.5-5.5-13.2,0.3-13.4,0.5C265.2,249.6,264.6,249.8,263.9,249.8z"/>
</g>
<g>
	<path class="st60" d="M298.9,248c-0.6,0-1.3-0.2-1.7-0.7c-1-1-1-2.5-0.1-3.5c3.1-3.2,11.2-7.6,20-1.1c1.1,0.8,1.4,2.4,0.5,3.5
		c-0.8,1.1-2.4,1.4-3.5,0.5c-7.3-5.4-12.8-0.1-13.4,0.5C300.2,247.7,299.5,248,298.9,248z"/>
</g>
<g>
	<path class="st13" d="M295.9,280.3c-4.3,0-6-3-6-3.1c-0.2-0.4-0.1-0.9,0.3-1.1c0.4-0.2,0.9-0.1,1.1,0.3c0.1,0.1,1.9,3.3,7.2,1.8
		c0.1,0,3.2-1,3.2-4.5c0-0.5,0.4-0.8,0.8-0.8s0.8,0.4,0.8,0.8c0,3.9-2.9,5.7-4.4,6.2C297.9,280.2,296.8,280.3,295.9,280.3z"/>
</g>
<g>
	<g>
		
			<ellipse transform="matrix(0.9964 -8.528113e-02 8.528113e-02 0.9964 -20.4308 31.1786)" class="st59" cx="354.7" cy="254.7" rx="13" ry="12.5"/>
	</g>
	<g>
		<path class="st13" d="M364,256.8C364,256.8,364,256.8,364,256.8c-0.5,0-0.9-0.5-0.8-0.9c0.8-8.7-8.2-9.8-8.6-9.8
			c-0.5-0.1-0.8-0.5-0.7-0.9c0.1-0.5,0.5-0.8,0.9-0.7c0.1,0,11,1.3,10,11.6C364.8,256.5,364.4,256.8,364,256.8z"/>
	</g>
</g>
<g>
	<path class="st13" d="M315.3,256.8C315.3,256.8,315.3,256.8,315.3,256.8c-0.4,0-0.8-0.3-0.9-0.8c-0.2-2.9-1.1-5-2.6-6.2
		c-1.6-1.3-3.5-1.1-4.2-1c-1.9,0.3-3.3,1.2-4.2,2.4c-1.5,2.2-1,5-1,5.1c0.1,0.4-0.2,0.9-0.7,0.9c-0.4,0.1-0.9-0.2-0.9-0.7
		c0-0.1-0.6-3.5,1.3-6.3c1.1-1.6,2.9-2.7,5.3-3.1c0.9-0.2,3.3-0.4,5.5,1.3c1.9,1.5,3,4,3.2,7.4C316.1,256.4,315.8,256.8,315.3,256.8
		z"/>
</g>
<g>
	<path class="st13" d="M280.2,259.3C280.2,259.3,280.2,259.3,280.2,259.3c-0.5,0-0.8-0.3-0.9-0.8c-0.2-2.9-1-5-2.5-6.2
		c-1.6-1.3-3.5-1.2-4.2-1.1c-6.3,1-5.4,7.2-5.4,7.4c0.1,0.4-0.2,0.9-0.7,0.9c-0.4,0.1-0.9-0.2-0.9-0.7c0-0.1-0.6-3.5,1.4-6.3
		c1.2-1.6,3-2.6,5.3-3c0.9-0.2,3.3-0.3,5.5,1.4c1.9,1.5,2.9,4,3.1,7.4C281,258.9,280.6,259.3,280.2,259.3z"/>
</g>
<g>
	<path class="st60" d="M254.9,239.6l119-4.3c0,0-8.1-59.8-75.1-54.2C298.9,181.1,249.7,183.7,254.9,239.6z"/>
</g>
<g>
	
		<rect x="186.2" y="580.5" transform="matrix(-1 -6.133506e-11 6.133506e-11 -1 440.0086 1218.8766)" class="st1" width="67.6" height="57.8"/>
</g>
<g>
	<g>
		<g>
			<path class="st2" d="M96.5,426.7c4.2,13.1,10.4,21.3,21.8,26c-47.8-4.8-50.4,49.9-50.4,49.9c-3.5,52.7,49.2,47.1,49.2,47.1
				c-2.1,12.1-4.1,41.9,17.7,54.8c36.1,21.4,57.8-6.4,57.8-6.4c12.8,40,60.5,31.4,60.5,31.4c46.9-6,45.7-47,45.7-47
				c52.8,25.9,77.2-38.9,77.2-38.9c17-58.2-21.3-70.3-21.3-70.3c26.5-12.5,33.3-52.4,14.9-83.8c0,0-25.5-39.5-76.7-23.1
				c0,0,7-47-45.5-48.3c-23.5-0.6-52.4,5.1-55.8,45.8c0,0-26.9-32.4-72.9-2.7C83.2,384.3,96.5,426.7,96.5,426.7z"/>
		</g>
	</g>
</g>
<g>
	<path class="st2" d="M125.2,594.7c-2.1,33.2-30.7,29.4-30.7,29.4S91.9,595.3,125.2,594.7z"/>
</g>
<g>
	<circle class="st1" cx="239.1" cy="539.6" r="28.4"/>
</g>
<g>
	<circle class="st1" cx="169.2" cy="457.5" r="28.4"/>
</g>
<g>
	<circle class="st1" cx="288.9" cy="432.6" r="28.4"/>
</g>
<g>
	<path class="st34" d="M124.6,403c-0.4,0-0.8-0.2-1-0.5c-2-2.7-4.5-9.1,0.3-13.6c3.9-3.6,7.8-3.6,10-3.1c0.3-3.1,1.8-8.9,9.5-10.7
		c9.3-2.1,14.3,5.6,14.4,5.7c0.4,0.6,0.2,1.4-0.4,1.8c-0.6,0.4-1.4,0.2-1.8-0.4c-0.2-0.3-4.1-6.3-11.6-4.5c-8.3,1.9-7.5,9.4-7.5,9.8
		c0.1,0.5-0.2,0.9-0.5,1.2c-0.4,0.3-0.9,0.3-1.3,0.1c-0.2-0.1-4.5-2-9,2.2c-4.3,4-0.2,9.9,0,10.2c0.4,0.6,0.3,1.4-0.3,1.8
		C125.1,402.9,124.8,403,124.6,403z"/>
</g>
<g>
	<path class="st34" d="M349.2,547.8c-1.4,0-3-0.2-4.7-0.8c-0.7-0.2-1-1-0.8-1.6s1-1,1.6-0.8c8.3,2.8,12.7-3.9,12.8-4.2
		c4.8-8.4-1.2-13.7-1.4-14c-0.5-0.5-0.6-1.3-0.1-1.8c0.5-0.5,1.3-0.6,1.8-0.1c0.1,0.1,7.7,7,1.9,17.2
		C360.3,541.8,356.4,547.8,349.2,547.8z"/>
</g>
<g>
	<path class="st60" d="M299.3,183.7c0,0,1.4-31.4,32.1-35.1c30.7-3.7,34.4-2.3,57.7-17.1V180c0,0-24.3,8.3-48.2-9.2
		S314,183.7,314,183.7"/>
</g>
<g>
	<g>
		<path class="st59" d="M408.7,428.1c73,150.2-60.9,145-60.9,145S332.7,560,321,546.4c-6.8-7.8-9.2-9.2-13-6.6
			c-2.8,2-1.8,7,1.5,12.4c7.2,11.9,5.8,20.1-3,17.7c0,0-28.7-8.5-37.8-13.5c0,0-7.5-4.6-10.5,1.6c-3.2,6.5,2.9,8.3,2.9,8.3
			s-6.5-2.8-9.4,2.2c0,0-3.1,6.2,5,9.5l1.9,1.1c-6.3-2.6-8.2,3-8.2,3c-2.4,6.9,5,9.4,5,9.4c-6.3,7.1,3.2,11.7,3.2,11.7
			s115.1,70.1,213.6,1.5c25.5-17.8,56.5-54.1,41.8-125.7c-18.6-90.8-26.9-91.7-26.9-91.7L408.7,428.1z"/>
	</g>
	<g>
		<path class="st13" d="M293.1,580.8c-0.1,0-0.2,0-0.2,0c-18.4-6.5-33.2-14-33.3-14.1c-0.4-0.2-0.5-0.6-0.3-1c0.2-0.4,0.6-0.5,1-0.3
			c0.1,0.1,14.9,7.5,33.1,14c0.4,0.1,0.6,0.6,0.5,0.9C293.7,580.6,293.4,580.8,293.1,580.8z"/>
	</g>
	<g>
		<path class="st13" d="M289,592.2c-0.1,0-0.2,0-0.2,0c-18.8-6.7-32.2-12.7-32.3-12.8c-0.3-0.2-0.5-0.6-0.3-0.9
			c0.2-0.3,0.6-0.5,0.9-0.3c0.1,0.1,13.5,6.1,32.2,12.8c0.4,0.1,0.5,0.5,0.4,0.9C289.5,592,289.2,592.2,289,592.2z"/>
	</g>
	<g>
		<path class="st13" d="M283.9,604.9c-0.1,0-0.2,0-0.2,0c-18.2-7.1-28-12.2-28.1-12.3c-0.3-0.2-0.5-0.6-0.3-0.9
			c0.2-0.3,0.6-0.5,0.9-0.3c0.1,0.1,9.9,5.1,28,12.2c0.3,0.1,0.5,0.5,0.4,0.9C284.4,604.7,284.1,604.9,283.9,604.9z"/>
	</g>
</g>
<g>
	<path class="st6" d="M383.6,311.3c93.1,8.5,139.5,119.5,139.5,119.5C501.5,469.9,414.6,480,414.6,480l-16.7-57.5l24.8-16.5
		l-12.7-20.3"/>
</g>
<g>
	<rect x="458.3" y="115.2" class="st3" width="129.5" height="182.3"/>
</g>
<g>
	<path class="st13" d="M126.1,104.4c-0.4,0-0.8-0.4-0.8-0.8V0.8c0-0.4,0.4-0.8,0.8-0.8s0.8,0.4,0.8,0.8v102.8
		C126.9,104.1,126.6,104.4,126.1,104.4z"/>
</g>
<g>
	<defs>
		<rect id="SVGID_23_" x="458.3" y="115.2" width="129.5" height="182.3"/>
	</defs>
	<clipPath id="SVGID_3_">
		<use xlink:href="#SVGID_23_"  style="overflow:visible;"/>
	</clipPath>
	<g style="clip-path:url(#SVGID_3_);">
		<g>
			<path class="st13" d="M523.1,311.8c-0.5,0-1-0.4-1-1V97.5c0-0.5,0.4-1,1-1s1,0.4,1,1v213.3C524,311.4,523.6,311.8,523.1,311.8z"
				/>
		</g>
		<g>
			<path class="st13" d="M629.7,207.3H416.4c-0.5,0-1-0.4-1-1s0.4-1,1-1h213.3c0.5,0,1,0.4,1,1S630.3,207.3,629.7,207.3z"/>
		</g>
	</g>
</g>
<g>
	<path class="st6" d="M494.2,193.2c-0.2,0-0.5-0.1-0.7-0.3l-24.7-30.7c-0.3-0.4-0.2-0.9,0.1-1.2c0.4-0.3,0.9-0.2,1.2,0.1l24.7,30.7
		c0.3,0.4,0.2,0.9-0.1,1.2C494.6,193.2,494.4,193.2,494.2,193.2z"/>
</g>
<g>
	<path class="st6" d="M506.9,189.6c-0.2,0-0.5-0.1-0.7-0.3l-37.4-46.5c-0.3-0.4-0.2-0.9,0.1-1.2c0.4-0.3,0.9-0.2,1.2,0.1l37.4,46.5
		c0.3,0.4,0.2,0.9-0.1,1.2C507.3,189.5,507.1,189.6,506.9,189.6z"/>
</g>
<g>
	<path class="st6" d="M565,288.5c-0.2,0-0.5-0.1-0.7-0.3l-24.7-30.7c-0.3-0.4-0.2-0.9,0.1-1.2c0.4-0.3,0.9-0.2,1.2,0.1l24.7,30.7
		c0.3,0.4,0.2,0.9-0.1,1.2C565.3,288.4,565.1,288.5,565,288.5z"/>
</g>
<g>
	<path class="st6" d="M577.7,275c-0.2,0-0.5-0.1-0.7-0.3l-37.4-46.5c-0.3-0.4-0.2-0.9,0.1-1.2c0.4-0.3,0.9-0.2,1.2,0.1l37.4,46.5
		c0.3,0.4,0.2,0.9-0.1,1.2C578.1,274.9,577.9,275,577.7,275z"/>
</g>
<g>
	<path class="st13" d="M494.2,640H69.8c-0.5,0-0.8-0.4-0.8-0.8s0.4-0.8,0.8-0.8h424.4c0.5,0,0.8,0.4,0.8,0.8S494.7,640,494.2,640z"
		/>
</g>
<g>
	<path class="st47" d="M197.6,123.2c-13.8-4.8-66.1-18.1-71.2-19.4v-0.1c0,0-0.1,0-0.2,0.1c-0.1,0-0.2-0.1-0.2-0.1v0.1
		c-5.2,1.3-57.5,14.7-71.2,19.4c-14.5,5-22.1,25.2-22.1,25.2h93.4h0.4h93.4C219.7,148.4,212.1,128.2,197.6,123.2z"/>
</g>
<g>
	<g>
		<path class="st59" d="M197.6,232.2c-70.2-20.6-108.9,7.3-128.8,31.2c-76.5,92.5-16.2,213-16.2,213s3.9,9.9,11.4,4.2
			c0,0,1.8,7.6,8.9,5.8c0,0,5.8-1.4,3.7-7.9l0.9,2c2.7,8.3,9.1,5.7,9.1,5.7c5.2-2.5,3-9.2,3-9.2s1.4,6.3,8.1,3.6
			c6.4-2.5,2.4-10.4,2.4-10.4c-4.2-9.5-10.3-38.8-10.3-38.8c-1.6-9,6.7-9.8,17.9-1.6c5.1,3.7,10.1,5.2,12.3,2.5
			c2.9-3.5,1.8-6.1-5.5-13.5c-12.6-12.8-24.3-29-24.3-29s0.1-38,37.2-63.5"/>
	</g>
	<g>
		<path class="st13" d="M89.9,478.8c-0.3,0-0.6-0.2-0.7-0.5c-0.1-0.2-6.3-15.5-11.2-34.4c-0.1-0.4,0.1-0.8,0.5-0.9
			c0.4-0.1,0.8,0.1,0.9,0.5c4.9,18.7,11.1,34,11.2,34.2c0.2,0.4,0,0.8-0.4,1C90.1,478.8,90,478.8,89.9,478.8z"/>
	</g>
	<g>
		<path class="st13" d="M77,480.9c-0.3,0-0.5-0.2-0.6-0.4c0-0.1-5-14-10.1-33.3c-0.1-0.4,0.1-0.7,0.5-0.8c0.4-0.1,0.7,0.1,0.8,0.5
			c5.1,19.2,10,33,10,33.2c0.1,0.4-0.1,0.7-0.4,0.9C77.2,480.9,77.1,480.9,77,480.9z"/>
	</g>
	<g>
		<path class="st13" d="M63.7,480.7c-0.3,0-0.5-0.2-0.6-0.4c0-0.1-4.3-10.3-9.9-29c-0.1-0.4,0.1-0.7,0.5-0.8
			c0.4-0.1,0.7,0.1,0.8,0.5c5.5,18.6,9.8,28.8,9.8,28.9c0.1,0.3,0,0.7-0.4,0.9C63.9,480.6,63.8,480.7,63.7,480.7z"/>
	</g>
</g>
<g>
	<rect x="298.9" y="173.6" class="st1" width="19.6" height="8.9"/>
</g>
<g>
	<path class="st2" d="M414.2,386.3c-14.8,29.8-39.7,15.2-39.7,15.2S383.4,374,414.2,386.3z"/>
</g>
<rect x="-375.7" y="-208.4" class="st86" width="4282.2" height="5728.2"/>
</svg>
