<?xml version="1.0" encoding="utf-8"?>
<!-- Generator: Adobe Illustrator 24.0.1, SVG Export Plug-In . SVG Version: 6.00 Build 0)  -->
<svg version="1.1" id="Capa_1" xmlns="http://www.w3.org/2000/svg" xmlns:xlink="http://www.w3.org/1999/xlink" x="0px" y="0px"
	 viewBox="0 0 500 500" style="enable-background:new 0 0 500 500;" xml:space="preserve">
<style type="text/css">
	.st0{fill:#C0DAD8;}
	.st1{fill:#EAA42C;}
	.st2{fill:#FFDEC7;}
	.st3{clip-path:url(#SVGID_3_);fill:#5D9E9B;}
	.st4{fill:#FFFFFF;}
	.st5{fill:#FAF3E8;}
	.st6{fill:none;stroke:#333333;stroke-width:2.5;stroke-linecap:round;stroke-miterlimit:10;}
	.st7{fill:#365B56;}
	.st8{fill:none;stroke:#365B56;stroke-width:1.7023;stroke-miterlimit:10;}
	.st9{clip-path:url(#SVGID_5_);fill:#5D9E9B;}
	.st10{fill:#FFDC6F;}
	.st11{fill:none;stroke:#333333;stroke-width:1.3658;stroke-linecap:round;stroke-miterlimit:10;}
	.st12{fill:#333333;}
	.st13{fill:#5D9E9B;}
	.st14{fill:none;stroke:#333333;stroke-width:1.4442;stroke-linecap:round;stroke-miterlimit:10;}
	.st15{fill:none;stroke:#333333;stroke-width:2;stroke-linecap:round;stroke-miterlimit:10;}
	.st16{fill:#AF754E;}
	.st17{fill:#97623E;}
	.st18{fill:#222222;}
	.st19{fill:#FCCDAC;}
	.st20{fill:none;stroke:#467C75;stroke-width:4.6233;stroke-miterlimit:10;}
	.st21{fill:#EDB24C;}
	.st22{fill:#F1A74A;}
	.st23{fill:none;stroke:#333333;stroke-width:3.3231;stroke-linecap:round;stroke-miterlimit:10;}
	.st24{fill:none;stroke:#222222;stroke-width:9.9692;stroke-linecap:round;stroke-miterlimit:10;}
	.st25{fill:#5D9D9A;}
	.st26{fill:none;stroke:#333333;stroke-width:3.0088;stroke-linecap:round;stroke-miterlimit:10;}
	.st27{fill:#E9A32C;}
	.st28{fill:#D38013;}
	.st29{fill:#6D5235;}
	.st30{fill:none;stroke:#365B56;stroke-width:1.4072;stroke-miterlimit:10;}
	.st31{fill:none;stroke:#D89027;stroke-width:4.4541;stroke-miterlimit:10;}
	.st32{fill:none;}
	.st33{fill:#B2D3D0;}
	.st34{fill:#468480;}
	.st35{clip-path:url(#SVGID_7_);}
	.st36{clip-path:url(#SVGID_9_);}
	.st37{fill:#A9C9C5;}
	.st38{fill:#3E6D68;}
	.st39{fill:none;stroke:#D89027;stroke-width:3.777;stroke-miterlimit:10;}
	.st40{fill:#346661;}
	.st41{fill:none;stroke:#D89027;stroke-width:3.0705;stroke-miterlimit:10;}
	.st42{fill:none;stroke:#333333;stroke-width:2.8529;stroke-linecap:round;stroke-linejoin:round;stroke-miterlimit:10;}
	.st43{fill:#D89027;}
	.st44{filter:url(#Adobe_OpacityMaskFilter);}
	.st45{mask:url(#SVGID_10_);fill:#C0DAD8;}
	.st46{fill:#EFA53A;}
	.st47{fill:#B3BDBC;}
	.st48{fill:none;stroke:#E5BE8C;stroke-width:4.3561;stroke-linecap:round;stroke-miterlimit:10;}
	.st49{fill:#E5BE8C;}
	.st50{fill:#9DAAA9;}
	.st51{fill:none;stroke:#333333;stroke-width:2.3147;stroke-linecap:round;stroke-miterlimit:10;}
	.st52{fill:none;stroke:#FFFFFF;stroke-width:2;stroke-miterlimit:10;}
	.st53{clip-path:url(#SVGID_14_);fill:#346661;}
	.st54{clip-path:url(#SVGID_14_);fill:#5D9E9B;}
	.st55{fill:none;stroke:#D89027;stroke-width:7;stroke-linecap:round;stroke-miterlimit:10;}
	.st56{clip-path:url(#SVGID_20_);fill:none;stroke:#D89027;stroke-width:4.4541;stroke-miterlimit:10;}
	.st57{clip-path:url(#SVGID_22_);fill:none;stroke:#D89027;stroke-width:4.4541;stroke-miterlimit:10;}
	.st58{fill:none;stroke:#E1A647;stroke-miterlimit:10;}
	.st59{fill:#FFDAC6;}
	.st60{fill:#212121;}
	.st61{fill:none;stroke:#333333;stroke-width:1.676;stroke-linecap:round;stroke-miterlimit:10;}
	.st62{fill:none;stroke:#468480;stroke-width:2.1459;stroke-linecap:round;stroke-linejoin:round;stroke-miterlimit:10;}
	.st63{clip-path:url(#SVGID_24_);}
	.st64{fill:none;stroke:#333333;stroke-width:1.2684;stroke-linecap:round;stroke-miterlimit:10;}
	.st65{fill:none;stroke:#333333;stroke-width:1.1484;stroke-linecap:round;stroke-miterlimit:10;}
	.st66{fill:none;stroke:#333333;stroke-width:1.4293;stroke-linecap:round;stroke-miterlimit:10;}
	.st67{fill:none;stroke:#212121;stroke-width:4.2878;stroke-linecap:round;stroke-miterlimit:10;}
	.st68{fill:none;stroke:#468480;stroke-width:1.83;stroke-linecap:round;stroke-linejoin:round;stroke-miterlimit:10;}
	.st69{fill:none;stroke:#333333;stroke-width:1.3816;stroke-linecap:round;stroke-miterlimit:10;}
	.st70{fill:none;stroke:#468480;stroke-width:2.2019;stroke-linecap:round;stroke-linejoin:round;stroke-miterlimit:10;}
	.st71{clip-path:url(#SVGID_26_);}
	.st72{fill:none;stroke:#333333;stroke-width:1.6231;stroke-linecap:round;stroke-miterlimit:10;}
	.st73{fill:none;stroke:#FFFFFF;stroke-width:1.4293;stroke-linecap:round;stroke-miterlimit:10;}
	.st74{fill:none;stroke:#222222;stroke-width:8.5586;stroke-linecap:round;stroke-miterlimit:10;}
	.st75{fill:none;stroke:#333333;stroke-width:2.8529;stroke-linecap:round;stroke-miterlimit:10;}
	.st76{fill:none;stroke:#333333;stroke-width:2.5831;stroke-linecap:round;stroke-miterlimit:10;}
	.st77{fill:#728482;}
	.st78{clip-path:url(#SVGID_28_);}
	.st79{fill:#637572;}
	.st80{fill:none;stroke:#333333;stroke-width:1.7625;stroke-linecap:round;stroke-miterlimit:10;}
	.st81{fill:none;stroke:#728482;stroke-width:1.7625;stroke-linecap:round;stroke-miterlimit:10;}
	.st82{clip-path:url(#SVGID_30_);}
	.st83{fill:none;stroke:#637572;stroke-width:1.7625;stroke-linecap:round;stroke-miterlimit:10;}
	.st84{fill:none;stroke:#333333;stroke-width:1.5682;stroke-linecap:round;stroke-miterlimit:10;}
	.st85{fill:none;stroke:#365B56;stroke-width:0.9491;stroke-miterlimit:10;}
	.st86{fill:none;stroke:#333333;stroke-width:1.6284;stroke-linecap:round;stroke-miterlimit:10;}
	.st87{fill:none;stroke:#468480;stroke-width:1.541;stroke-linecap:round;stroke-linejoin:round;stroke-miterlimit:10;}
	.st88{fill:none;stroke:#468480;stroke-width:1.4907;stroke-linecap:round;stroke-linejoin:round;stroke-miterlimit:10;}
	.st89{fill:none;stroke:#5D9E9B;stroke-width:3;stroke-miterlimit:10;}
</style>
<g>
	<g>
		<path class="st5" d="M118.3,460.6C8.2,375.4-0.9,182.4,139,93.1c0,0,239.9-112.3,326.7,65.2c59.2,121,34.7,239.4-57.6,301.7"/>
	</g>
	<g>
		<path class="st47" d="M406.8,455.3H119.7c-5.3,0-9.5-4.3-9.5-9.5V118c0-5.3,4.3-9.5,9.5-9.5h287.2c5.3,0,9.5,4.3,9.5,9.5v327.7
			C416.4,451,412.1,455.3,406.8,455.3z"/>
	</g>
	<g>
		<path class="st4" d="M395,439.9H107.8c-5.3,0-9.5-4.3-9.5-9.5V102.7c0-5.3,4.3-9.5,9.5-9.5H395c5.3,0,9.5,4.3,9.5,9.5v327.7
			C404.5,435.6,400.2,439.9,395,439.9z"/>
	</g>
	<g>
		<path class="st12" d="M389.2,400.2H116.5c-0.5,0-0.9-0.4-0.9-0.9s0.4-0.9,0.9-0.9h272.7c0.5,0,0.9,0.4,0.9,0.9
			S389.8,400.2,389.2,400.2z"/>
	</g>
	<g>
		<path class="st12" d="M389.2,416.7H116.5c-0.5,0-0.9-0.4-0.9-0.9s0.4-0.9,0.9-0.9h272.7c0.5,0,0.9,0.4,0.9,0.9
			S389.8,416.7,389.2,416.7z"/>
	</g>
	<g>
		<rect x="116" y="114.6" class="st0" width="271.4" height="262.3"/>
	</g>
	<g>
		<g>
			
				<rect x="224" y="306" transform="matrix(-1 -8.211888e-11 8.211888e-11 -1 491.7964 661.9454)" class="st1" width="43.8" height="50"/>
		</g>
		<g>
			<g>
				<g>
					<path class="st13" d="M291.1,163.7c33.4-14.4,52.2,7.6,52.2,7.6c15.3,16.3,17.9,40.7-2.7,56.6c0,0,26.8,4.9,19.5,43.6
						c0,0-11.9,43.5-49.5,30.9c0,0,3.3,30.9-28.1,38.3c0,0-27.2,8.4-42.8-20.2c0,0-10.3,23.8-38.6,15.1c-28-8.6-27.8-31.8-27.3-39.7
						c0,0-29.1,6.7-36.9-26.2c-2.8-11.9-2.8-40.7,26.3-45.7c0,0-27.4-21-3.5-53.1c21.7-29.1,53.1-5.2,53.1-5.2s5.3-32.2,42.9-29.9
						C287.8,137.6,291.1,163.7,291.1,163.7z"/>
				</g>
			</g>
		</g>
		<g>
			<path class="st13" d="M185.1,322.9c1.6,21.4-17.1,21.6-17.1,21.6S163.8,326.3,185.1,322.9z"/>
		</g>
		<g>
			<path class="st34" d="M170.6,201.6c-0.2,0-0.4-0.1-0.6-0.2c-2-1.9-5-6.5-1.9-10.8c2.7-3.6,5.9-4.1,7.7-4
				c-0.3-2.4-0.2-7.5,5.9-10.2c7.1-3.1,12.3,2.2,12.3,2.3c0.3,0.3,0.3,0.9,0,1.2c-0.3,0.3-0.9,0.3-1.2,0c-0.2-0.2-4.4-4.5-10.4-1.9
				c-6.6,2.9-4.7,9.1-4.7,9.3c0.1,0.3,0,0.6-0.2,0.9c-0.2,0.2-0.5,0.3-0.8,0.2c-0.2,0-4.1-1-7.2,3.2c-3,4.1,1.4,8.3,1.6,8.5
				c0.3,0.3,0.4,0.9,0,1.2C171,201.5,170.8,201.6,170.6,201.6z"/>
		</g>
		<g>
			<path class="st34" d="M320.1,285.2c-1.4,0-3.1-0.4-4.8-1.5c-0.4-0.2-0.5-0.8-0.3-1.2c0.2-0.4,0.8-0.5,1.2-0.3
				c4.8,3,8.7-0.6,8.7-0.6c4.3-4.5,1.4-8.8,1.3-9c-0.3-0.4-0.2-0.9,0.2-1.2c0.4-0.3,0.9-0.2,1.2,0.2c0,0.1,3.8,5.6-1.5,11.1
				C326.1,282.9,323.6,285.2,320.1,285.2z"/>
		</g>
		<g>
			<path class="st13" d="M367.1,164.2c-6.9,20.4-24.2,13.2-24.2,13.2S346.2,159,367.1,164.2z"/>
		</g>
	</g>
	<g>
		<g>
			<polygon class="st4" points="139,138.4 139.6,228.5 188.4,228.2 206.9,248.9 223.7,227.9 272.5,227.6 271.8,137.5 			"/>
		</g>
		<g>
			<path class="st1" d="M218.4,157.4c0,0-14.4-2.8-15.7,11.1c-1.5-13.9-15.9-10.9-15.9-10.9c-15.7,3.5-13,21.5-13,21.5
				c0,25.2,29.1,31.7,29.1,31.7s29.6-8,29.3-33.9C232.4,177,234.5,159.1,218.4,157.4z"/>
		</g>
	</g>
	<g>
		<path class="st13" d="M78.3,77.4v142.3H39.9v-85.8c0-4.1,0.2-8.2,0.4-12c-1.3,0.6-2.8,1.3-4.3,2.1l-17.8,9.2L3.9,106.4l46.6-29
			H78.3z"/>
	</g>
</g>
<rect x="-371.6" y="-1045" class="st89" width="4282.2" height="5728.2"/>
</svg>
