<?xml version="1.0" encoding="utf-8"?>
<!-- Generator: Adobe Illustrator 24.0.1, SVG Export Plug-In . SVG Version: 6.00 Build 0)  -->
<svg version="1.1" id="Capa_1" xmlns="http://www.w3.org/2000/svg" xmlns:xlink="http://www.w3.org/1999/xlink" x="0px" y="0px"
	 viewBox="0 0 500 500" style="enable-background:new 0 0 500 500;" xml:space="preserve">
<style type="text/css">
	.st0{fill:#C0DAD8;}
	.st1{fill:#EAA42C;}
	.st2{fill:#FFDEC7;}
	.st3{clip-path:url(#SVGID_3_);fill:#5D9E9B;}
	.st4{fill:#FFFFFF;}
	.st5{fill:#FAF3E8;}
	.st6{fill:none;stroke:#333333;stroke-width:2.5;stroke-linecap:round;stroke-miterlimit:10;}
	.st7{fill:#365B56;}
	.st8{fill:none;stroke:#365B56;stroke-width:1.7023;stroke-miterlimit:10;}
	.st9{clip-path:url(#SVGID_5_);fill:#5D9E9B;}
	.st10{fill:#FFDC6F;}
	.st11{fill:none;stroke:#333333;stroke-width:1.3658;stroke-linecap:round;stroke-miterlimit:10;}
	.st12{fill:#333333;}
	.st13{fill:#5D9E9B;}
	.st14{fill:none;stroke:#333333;stroke-width:1.4442;stroke-linecap:round;stroke-miterlimit:10;}
	.st15{fill:none;stroke:#333333;stroke-width:2;stroke-linecap:round;stroke-miterlimit:10;}
	.st16{fill:#AF754E;}
	.st17{fill:#97623E;}
	.st18{fill:#222222;}
	.st19{fill:#FCCDAC;}
	.st20{fill:none;stroke:#467C75;stroke-width:4.6233;stroke-miterlimit:10;}
	.st21{fill:#EDB24C;}
	.st22{fill:#F1A74A;}
	.st23{fill:none;stroke:#333333;stroke-width:3.3231;stroke-linecap:round;stroke-miterlimit:10;}
	.st24{fill:none;stroke:#222222;stroke-width:9.9692;stroke-linecap:round;stroke-miterlimit:10;}
	.st25{fill:#5D9D9A;}
	.st26{fill:none;stroke:#333333;stroke-width:3.0088;stroke-linecap:round;stroke-miterlimit:10;}
	.st27{fill:#E9A32C;}
	.st28{fill:#D38013;}
	.st29{fill:#6D5235;}
	.st30{fill:none;stroke:#365B56;stroke-width:1.4072;stroke-miterlimit:10;}
	.st31{fill:none;stroke:#D89027;stroke-width:4.4541;stroke-miterlimit:10;}
	.st32{fill:none;}
	.st33{fill:#B2D3D0;}
	.st34{fill:#468480;}
	.st35{clip-path:url(#SVGID_7_);}
	.st36{clip-path:url(#SVGID_9_);}
	.st37{fill:#A9C9C5;}
	.st38{fill:#3E6D68;}
	.st39{fill:none;stroke:#D89027;stroke-width:3.777;stroke-miterlimit:10;}
	.st40{fill:#346661;}
	.st41{fill:none;stroke:#D89027;stroke-width:3.0705;stroke-miterlimit:10;}
	.st42{fill:none;stroke:#333333;stroke-width:2.8529;stroke-linecap:round;stroke-linejoin:round;stroke-miterlimit:10;}
	.st43{fill:#D89027;}
	.st44{filter:url(#Adobe_OpacityMaskFilter);}
	.st45{mask:url(#SVGID_10_);fill:#C0DAD8;}
	.st46{fill:#EFA53A;}
	.st47{fill:#B3BDBC;}
	.st48{fill:none;stroke:#E5BE8C;stroke-width:4.3561;stroke-linecap:round;stroke-miterlimit:10;}
	.st49{fill:#E5BE8C;}
	.st50{fill:#9DAAA9;}
	.st51{fill:none;stroke:#333333;stroke-width:2.3147;stroke-linecap:round;stroke-miterlimit:10;}
	.st52{fill:none;stroke:#FFFFFF;stroke-width:2;stroke-miterlimit:10;}
	.st53{clip-path:url(#SVGID_14_);fill:#346661;}
	.st54{clip-path:url(#SVGID_14_);fill:#5D9E9B;}
	.st55{fill:none;stroke:#D89027;stroke-width:7;stroke-linecap:round;stroke-miterlimit:10;}
	.st56{clip-path:url(#SVGID_20_);fill:none;stroke:#D89027;stroke-width:4.4541;stroke-miterlimit:10;}
	.st57{clip-path:url(#SVGID_22_);fill:none;stroke:#D89027;stroke-width:4.4541;stroke-miterlimit:10;}
	.st58{fill:none;stroke:#E1A647;stroke-miterlimit:10;}
	.st59{fill:#FFDAC6;}
	.st60{fill:#212121;}
	.st61{fill:none;stroke:#333333;stroke-width:1.676;stroke-linecap:round;stroke-miterlimit:10;}
	.st62{fill:none;stroke:#468480;stroke-width:2.1459;stroke-linecap:round;stroke-linejoin:round;stroke-miterlimit:10;}
	.st63{clip-path:url(#SVGID_24_);}
	.st64{fill:none;stroke:#333333;stroke-width:1.2684;stroke-linecap:round;stroke-miterlimit:10;}
	.st65{fill:none;stroke:#333333;stroke-width:1.1484;stroke-linecap:round;stroke-miterlimit:10;}
	.st66{fill:none;stroke:#333333;stroke-width:1.4293;stroke-linecap:round;stroke-miterlimit:10;}
	.st67{fill:none;stroke:#212121;stroke-width:4.2878;stroke-linecap:round;stroke-miterlimit:10;}
	.st68{fill:none;stroke:#468480;stroke-width:1.83;stroke-linecap:round;stroke-linejoin:round;stroke-miterlimit:10;}
	.st69{fill:none;stroke:#333333;stroke-width:1.3816;stroke-linecap:round;stroke-miterlimit:10;}
	.st70{fill:none;stroke:#468480;stroke-width:2.2019;stroke-linecap:round;stroke-linejoin:round;stroke-miterlimit:10;}
	.st71{clip-path:url(#SVGID_26_);}
	.st72{fill:none;stroke:#333333;stroke-width:1.6231;stroke-linecap:round;stroke-miterlimit:10;}
	.st73{fill:none;stroke:#FFFFFF;stroke-width:1.4293;stroke-linecap:round;stroke-miterlimit:10;}
	.st74{fill:none;stroke:#222222;stroke-width:8.5586;stroke-linecap:round;stroke-miterlimit:10;}
	.st75{fill:none;stroke:#333333;stroke-width:2.8529;stroke-linecap:round;stroke-miterlimit:10;}
	.st76{fill:none;stroke:#333333;stroke-width:2.5831;stroke-linecap:round;stroke-miterlimit:10;}
	.st77{fill:#728482;}
	.st78{clip-path:url(#SVGID_28_);}
	.st79{fill:#637572;}
	.st80{fill:none;stroke:#333333;stroke-width:1.7625;stroke-linecap:round;stroke-miterlimit:10;}
	.st81{fill:none;stroke:#728482;stroke-width:1.7625;stroke-linecap:round;stroke-miterlimit:10;}
	.st82{clip-path:url(#SVGID_30_);}
	.st83{fill:none;stroke:#637572;stroke-width:1.7625;stroke-linecap:round;stroke-miterlimit:10;}
	.st84{fill:none;stroke:#333333;stroke-width:1.5682;stroke-linecap:round;stroke-miterlimit:10;}
	.st85{fill:none;stroke:#365B56;stroke-width:0.9491;stroke-miterlimit:10;}
	.st86{fill:none;stroke:#333333;stroke-width:1.6284;stroke-linecap:round;stroke-miterlimit:10;}
	.st87{fill:none;stroke:#468480;stroke-width:1.541;stroke-linecap:round;stroke-linejoin:round;stroke-miterlimit:10;}
	.st88{fill:none;stroke:#468480;stroke-width:1.4907;stroke-linecap:round;stroke-linejoin:round;stroke-miterlimit:10;}
	.st89{fill:none;stroke:#5D9E9B;stroke-width:3;stroke-miterlimit:10;}
</style>
<g>
	<g>
		<path class="st5" d="M85.3,459.1c0,0-146.5-217.2,89.1-371.8c154.2-101.2,387.9,100.9,307,370.4"/>
	</g>
	<g>
		<path class="st12" d="M420.2,273.3L420.2,273.3c-0.5,0-0.9-0.4-0.9-0.9c0-38-7.7-90-44.4-121.8c-22-19-44.2-21.8-44.4-21.8
			c-0.5-0.1-0.8-0.5-0.8-1c0.1-0.5,0.5-0.8,1-0.8c0.2,0,22.9,2.9,45.3,22.2c13.1,11.3,23.6,26,31,43.7c9.3,22,14.1,48.8,14.1,79.5
			C421.1,272.9,420.7,273.3,420.2,273.3z"/>
	</g>
	<g>
		<circle class="st47" cx="417.5" cy="379.1" r="71.2"/>
	</g>
	<g>
		<rect x="389.5" y="229.4" class="st47" width="56.1" height="96.2"/>
	</g>
	<g>
		<g>
			<path class="st10" d="M154.8,185.8c0,0,28.9-8.8,32.2-43.4c0,0,6,39.2,29.2,43.4c0,0-29.4,14.1-30.7,44.8
				C185.5,222.8,182.4,202.7,154.8,185.8z"/>
		</g>
	</g>
	<g>
		<g>
			<g>
				<g>
					<g>
						
							<ellipse transform="matrix(0.3616 -0.9323 0.9323 0.3616 -200.3781 335.1516)" class="st27" cx="144.5" cy="313.9" rx="44.9" ry="47.2"/>
					</g>
				</g>
				<g>
					<g>
						
							<ellipse transform="matrix(0.3616 -0.9323 0.9323 0.3616 -162.3409 351.9126)" class="st28" cx="175.8" cy="294.5" rx="1.5" ry="1.6"/>
					</g>
				</g>
				<g>
					<g>
						
							<ellipse transform="matrix(0.3616 -0.9323 0.9323 0.3616 -167.1477 364.9126)" class="st28" cx="182.9" cy="304.5" rx="1.5" ry="1.6"/>
					</g>
				</g>
				<g>
					<g>
						
							<ellipse transform="matrix(0.3616 -0.9323 0.9323 0.3616 -173.4267 354.9766)" class="st28" cx="172.5" cy="304.1" rx="1.5" ry="1.6"/>
					</g>
				</g>
				<g>
					<g>
						
							<ellipse transform="matrix(0.3616 -0.9323 0.9323 0.3616 -169.5468 340.5098)" class="st28" cx="163.9" cy="294.1" rx="1.5" ry="1.6"/>
					</g>
				</g>
				<g>
					<g>
						
							<ellipse transform="matrix(0.3616 -0.9323 0.9323 0.3616 -179.9932 344.5856)" class="st28" cx="161.6" cy="303.7" rx="1.5" ry="1.6"/>
					</g>
				</g>
				<g>
					<g>
						
							<ellipse transform="matrix(0.3616 -0.9323 0.9323 0.3616 -178.0577 374.416)" class="st28" cx="184.4" cy="317.2" rx="1.5" ry="1.6"/>
					</g>
				</g>
				<g>
					<g>
						
							<ellipse transform="matrix(0.3616 -0.9323 0.9323 0.3616 -185.3068 362.9449)" class="st28" cx="172.4" cy="316.8" rx="1.5" ry="1.6"/>
					</g>
				</g>
				<g>
					<g>
						
							<ellipse transform="matrix(0.3616 -0.9323 0.9323 0.3616 -191.6432 376.9708)" class="st28" cx="179.4" cy="328.4" rx="1.5" ry="1.6"/>
					</g>
				</g>
				<g>
					<g>
						<path class="st29" d="M144.8,273.9c-1.5-0.1-3.2-0.6-3.1-1.6c0-0.2,0.1-0.5,0.3-0.7c0.5-0.5,1.6-0.8,2.9-0.7
							c1.5,0.1,3.1,0.6,3.1,1.6c0,0.2-0.1,0.5-0.3,0.7c-0.2,0.2-0.4,0.3-0.7,0.4C146.4,273.8,145.7,273.9,144.8,273.9z M142.4,272
							c-0.1,0.1-0.1,0.2-0.1,0.2l0,0c0,0.4,1,1,2.6,1c1.2,0,2.1-0.2,2.4-0.6c0.1-0.1,0.1-0.2,0.1-0.2c0-0.4-1-1-2.6-1
							c-0.8,0-1.5,0.1-2,0.3C142.7,271.8,142.5,271.9,142.4,272z"/>
					</g>
				</g>
			</g>
			<g>
				<g>
					<path class="st13" d="M144.2,258.9c28.3-21.8,54.6-0.2,54.6-0.2S172.7,282.2,144.2,258.9z"/>
				</g>
			</g>
		</g>
		<g>
			
				<rect x="144.2" y="246.6" transform="matrix(0.9999 -1.264247e-02 1.264247e-02 0.9999 -3.2691 1.8502)" class="st7" width="1.1" height="25.8"/>
		</g>
	</g>
	<g>
		<g>
			<g>
				<g>
					<g>
						
							<ellipse transform="matrix(0.3616 -0.9323 0.9323 0.3616 -139.9229 423.4421)" class="st27" cx="239.2" cy="313.9" rx="44.9" ry="47.2"/>
					</g>
				</g>
				<g>
					<g>
						
							<ellipse transform="matrix(0.3616 -0.9323 0.9323 0.3616 -101.8857 440.2031)" class="st28" cx="270.5" cy="294.5" rx="1.5" ry="1.6"/>
					</g>
				</g>
				<g>
					<g>
						
							<ellipse transform="matrix(0.3616 -0.9323 0.9323 0.3616 -106.6925 453.203)" class="st28" cx="277.6" cy="304.5" rx="1.5" ry="1.6"/>
					</g>
				</g>
				<g>
					<g>
						
							<ellipse transform="matrix(0.3616 -0.9323 0.9323 0.3616 -112.9715 443.267)" class="st28" cx="267.2" cy="304.1" rx="1.5" ry="1.6"/>
					</g>
				</g>
				<g>
					<g>
						
							<ellipse transform="matrix(0.3616 -0.9323 0.9323 0.3616 -109.0917 428.8003)" class="st28" cx="258.6" cy="294.1" rx="1.5" ry="1.6"/>
					</g>
				</g>
				<g>
					<g>
						
							<ellipse transform="matrix(0.3616 -0.9323 0.9323 0.3616 -119.5381 432.8761)" class="st28" cx="256.3" cy="303.7" rx="1.5" ry="1.6"/>
					</g>
				</g>
				<g>
					<g>
						
							<ellipse transform="matrix(0.3616 -0.9323 0.9323 0.3616 -117.6025 462.7065)" class="st28" cx="279.1" cy="317.2" rx="1.5" ry="1.6"/>
					</g>
				</g>
				<g>
					<g>
						
							<ellipse transform="matrix(0.3616 -0.9323 0.9323 0.3616 -124.8517 451.2354)" class="st28" cx="267.1" cy="316.8" rx="1.5" ry="1.6"/>
					</g>
				</g>
				<g>
					<g>
						
							<ellipse transform="matrix(0.3616 -0.9323 0.9323 0.3616 -131.188 465.2613)" class="st28" cx="274.1" cy="328.4" rx="1.5" ry="1.6"/>
					</g>
				</g>
				<g>
					<g>
						<path class="st29" d="M239.5,273.9c-1.5-0.1-3.2-0.6-3.1-1.6c0-0.2,0.1-0.5,0.3-0.7c0.5-0.5,1.6-0.8,2.9-0.7
							c1.5,0.1,3.1,0.6,3.1,1.6c0,0.2-0.1,0.5-0.3,0.7c-0.2,0.2-0.4,0.3-0.7,0.4C241.1,273.8,240.4,273.9,239.5,273.9z M237.1,272
							c-0.1,0.1-0.1,0.2-0.1,0.2l0,0c0,0.4,1,1,2.6,1c1.2,0,2.1-0.2,2.4-0.6c0.1-0.1,0.1-0.2,0.1-0.2c0-0.4-1-1-2.6-1
							c-0.8,0-1.5,0.1-2,0.3C237.4,271.8,237.2,271.9,237.1,272z"/>
					</g>
				</g>
			</g>
			<g>
				<g>
					<path class="st13" d="M238.9,258.9c28.3-21.8,54.6-0.2,54.6-0.2S267.4,282.2,238.9,258.9z"/>
				</g>
			</g>
		</g>
		<g>
			
				<rect x="238.9" y="246.6" transform="matrix(0.9999 -1.263300e-02 1.263300e-02 0.9999 -3.2591 3.0451)" class="st7" width="1.1" height="25.8"/>
		</g>
	</g>
	<g>
		<g>
			<g>
				<g>
					<g>
						
							<ellipse transform="matrix(0.3616 -0.9323 0.9323 0.3616 -79.9573 516.3038)" class="st27" cx="337" cy="316.5" rx="44.9" ry="47.2"/>
					</g>
				</g>
				<g>
					<g>
						
							<ellipse transform="matrix(0.3616 -0.9323 0.9323 0.3616 -41.9201 533.0648)" class="st28" cx="368.3" cy="297.1" rx="1.5" ry="1.6"/>
					</g>
				</g>
				<g>
					<g>
						
							<ellipse transform="matrix(0.3616 -0.9323 0.9323 0.3616 -46.7269 546.0648)" class="st28" cx="375.4" cy="307.2" rx="1.5" ry="1.6"/>
					</g>
				</g>
				<g>
					<g>
						
							<ellipse transform="matrix(0.3616 -0.9323 0.9323 0.3616 -53.0059 536.1287)" class="st28" cx="365" cy="306.8" rx="1.5" ry="1.6"/>
					</g>
				</g>
				<g>
					<g>
						
							<ellipse transform="matrix(0.3616 -0.9323 0.9323 0.3616 -49.1261 521.662)" class="st28" cx="356.4" cy="296.7" rx="1.5" ry="1.6"/>
					</g>
				</g>
				<g>
					<g>
						
							<ellipse transform="matrix(0.3616 -0.9323 0.9323 0.3616 -59.5725 525.7378)" class="st28" cx="354.1" cy="306.4" rx="1.5" ry="1.6"/>
					</g>
				</g>
				<g>
					<g>
						
							<ellipse transform="matrix(0.3616 -0.9323 0.9323 0.3616 -57.6369 555.5682)" class="st28" cx="376.9" cy="319.9" rx="1.5" ry="1.6"/>
					</g>
				</g>
				<g>
					<g>
						
							<ellipse transform="matrix(0.3616 -0.9323 0.9323 0.3616 -64.8861 544.097)" class="st28" cx="364.9" cy="319.4" rx="1.5" ry="1.6"/>
					</g>
				</g>
				<g>
					<g>
						
							<ellipse transform="matrix(0.3616 -0.9323 0.9323 0.3616 -71.2224 558.123)" class="st28" cx="371.9" cy="331.1" rx="1.5" ry="1.6"/>
					</g>
				</g>
				<g>
					<g>
						<path class="st29" d="M337.3,276.5c-1.5-0.1-3.2-0.6-3.1-1.6c0-0.2,0.1-0.5,0.3-0.7c0.5-0.5,1.6-0.8,2.9-0.7
							c1.5,0.1,3.1,0.6,3.1,1.6c0,0.2-0.1,0.5-0.3,0.7c-0.2,0.2-0.4,0.3-0.7,0.4C338.9,276.5,338.1,276.6,337.3,276.5z M334.9,274.7
							c-0.1,0.1-0.1,0.2-0.1,0.2l0,0c0,0.4,1,1,2.6,1c1.2,0,2.1-0.2,2.4-0.6c0.1-0.1,0.1-0.2,0.1-0.2c0-0.4-1-1-2.6-1
							c-0.8,0-1.5,0.1-2,0.3C335.2,274.5,335,274.6,334.9,274.7z"/>
					</g>
				</g>
			</g>
			<g>
				<g>
					<path class="st13" d="M336.7,261.5c28.3-21.8,54.6-0.2,54.6-0.2S365.2,284.9,336.7,261.5z"/>
				</g>
			</g>
		</g>
		<g>
			
				<rect x="336.7" y="249.3" transform="matrix(0.9999 -1.263300e-02 1.263300e-02 0.9999 -3.2847 4.2807)" class="st7" width="1.1" height="25.8"/>
		</g>
	</g>
	<g>
		<rect x="85.3" y="304.5" class="st16" width="229.6" height="154.6"/>
	</g>
	<g>
		<rect x="313" y="304.5" class="st17" width="81.3" height="154.6"/>
	</g>
	<g>
		<circle class="st27" cx="334" cy="331.1" r="10"/>
	</g>
	<g>
		<circle class="st27" cx="374.5" cy="331.1" r="10"/>
	</g>
	<g>
		<g>
			<path class="st13" d="M388.3,164.1c17.4-31.2,50.1-21.7,50.1-21.7S423.7,174.4,388.3,164.1z"/>
		</g>
	</g>
	<g>
		<g>
			<path class="st10" d="M338.8,219.1c0,0,15.2-4.6,16.9-22.7c0,0,3.1,20.5,15.3,22.7c0,0-15.4,7.4-16.1,23.5
				C354.9,238.4,353.3,227.9,338.8,219.1z"/>
		</g>
	</g>
	<g>
		<circle class="st4" cx="324" cy="127.9" r="20"/>
	</g>
	<g>
		<rect x="399.3" y="444.9" class="st47" width="36.3" height="15.9"/>
	</g>
	<g>
		<path class="st13" d="M2.9,201.9l18.9-23.6c8.2,7.5,17.2,12.4,30,12.4s21-6.2,21-15c0-9.7-9-14.2-20-14.2H33.6v-29H49
			c12.7,0,19.7-6.2,19.7-13.9c0-7.3-6.7-12.7-16.7-12.7c-10.9,0-19.1,4.1-27.3,12.2l-20-19.5c17.2-19.1,33-24.2,52.6-24.2
			c27.9,0,47.9,16.5,47.9,38.6c0,12.7-6.7,24.5-18.5,31.1c16.3,7.5,24.5,20,24.5,35.6c0,24.9-23.4,42.9-56.4,42.9
			C35.1,222.7,18.1,215.4,2.9,201.9z"/>
	</g>
</g>
<rect x="-1487.1" y="-1045" class="st89" width="4282.2" height="5728.2"/>
</svg>
