<?xml version="1.0" encoding="utf-8"?>
<!-- Generator: Adobe Illustrator 24.0.1, SVG Export Plug-In . SVG Version: 6.00 Build 0)  -->
<svg version="1.1" id="Capa_1" xmlns="http://www.w3.org/2000/svg" xmlns:xlink="http://www.w3.org/1999/xlink" x="0px" y="0px"
	 viewBox="0 0 500 500" style="enable-background:new 0 0 500 500;" xml:space="preserve">
<style type="text/css">
	.st0{fill:#C0DAD8;}
	.st1{fill:#EAA42C;}
	.st2{fill:#FFDEC7;}
	.st3{clip-path:url(#SVGID_3_);fill:#5D9E9B;}
	.st4{fill:#FFFFFF;}
	.st5{fill:#FAF3E8;}
	.st6{fill:none;stroke:#333333;stroke-width:2.5;stroke-linecap:round;stroke-miterlimit:10;}
	.st7{fill:#365B56;}
	.st8{fill:none;stroke:#365B56;stroke-width:1.7023;stroke-miterlimit:10;}
	.st9{clip-path:url(#SVGID_5_);fill:#5D9E9B;}
	.st10{fill:#FFDC6F;}
	.st11{fill:none;stroke:#333333;stroke-width:1.3658;stroke-linecap:round;stroke-miterlimit:10;}
	.st12{fill:#333333;}
	.st13{fill:#5D9E9B;}
	.st14{fill:none;stroke:#333333;stroke-width:1.4442;stroke-linecap:round;stroke-miterlimit:10;}
	.st15{fill:none;stroke:#333333;stroke-width:2;stroke-linecap:round;stroke-miterlimit:10;}
	.st16{fill:#AF754E;}
	.st17{fill:#97623E;}
	.st18{fill:#222222;}
	.st19{fill:#FCCDAC;}
	.st20{fill:none;stroke:#467C75;stroke-width:4.6233;stroke-miterlimit:10;}
	.st21{fill:#EDB24C;}
	.st22{fill:#F1A74A;}
	.st23{fill:none;stroke:#333333;stroke-width:3.3231;stroke-linecap:round;stroke-miterlimit:10;}
	.st24{fill:none;stroke:#222222;stroke-width:9.9692;stroke-linecap:round;stroke-miterlimit:10;}
	.st25{fill:#5D9D9A;}
	.st26{fill:none;stroke:#333333;stroke-width:3.0088;stroke-linecap:round;stroke-miterlimit:10;}
	.st27{fill:#E9A32C;}
	.st28{fill:#D38013;}
	.st29{fill:#6D5235;}
	.st30{fill:none;stroke:#365B56;stroke-width:1.4072;stroke-miterlimit:10;}
	.st31{fill:none;stroke:#D89027;stroke-width:4.4541;stroke-miterlimit:10;}
	.st32{fill:none;}
	.st33{fill:#B2D3D0;}
	.st34{fill:#468480;}
	.st35{clip-path:url(#SVGID_7_);}
	.st36{clip-path:url(#SVGID_9_);}
	.st37{fill:#A9C9C5;}
	.st38{fill:#3E6D68;}
	.st39{fill:none;stroke:#D89027;stroke-width:3.777;stroke-miterlimit:10;}
	.st40{fill:#346661;}
	.st41{fill:none;stroke:#D89027;stroke-width:3.0705;stroke-miterlimit:10;}
	.st42{fill:none;stroke:#333333;stroke-width:2.8529;stroke-linecap:round;stroke-linejoin:round;stroke-miterlimit:10;}
	.st43{fill:#D89027;}
	.st44{filter:url(#Adobe_OpacityMaskFilter);}
	.st45{mask:url(#SVGID_10_);fill:#C0DAD8;}
	.st46{fill:#EFA53A;}
	.st47{fill:#B3BDBC;}
	.st48{fill:none;stroke:#E5BE8C;stroke-width:4.3561;stroke-linecap:round;stroke-miterlimit:10;}
	.st49{fill:#E5BE8C;}
	.st50{fill:#9DAAA9;}
	.st51{fill:none;stroke:#333333;stroke-width:2.3147;stroke-linecap:round;stroke-miterlimit:10;}
	.st52{fill:none;stroke:#FFFFFF;stroke-width:2;stroke-miterlimit:10;}
	.st53{clip-path:url(#SVGID_14_);fill:#346661;}
	.st54{clip-path:url(#SVGID_14_);fill:#5D9E9B;}
	.st55{fill:none;stroke:#D89027;stroke-width:7;stroke-linecap:round;stroke-miterlimit:10;}
	.st56{clip-path:url(#SVGID_20_);fill:none;stroke:#D89027;stroke-width:4.4541;stroke-miterlimit:10;}
	.st57{clip-path:url(#SVGID_22_);fill:none;stroke:#D89027;stroke-width:4.4541;stroke-miterlimit:10;}
	.st58{fill:none;stroke:#E1A647;stroke-miterlimit:10;}
	.st59{fill:#FFDAC6;}
	.st60{fill:#212121;}
	.st61{fill:none;stroke:#333333;stroke-width:1.676;stroke-linecap:round;stroke-miterlimit:10;}
	.st62{fill:none;stroke:#468480;stroke-width:2.1459;stroke-linecap:round;stroke-linejoin:round;stroke-miterlimit:10;}
	.st63{clip-path:url(#SVGID_24_);}
	.st64{fill:none;stroke:#333333;stroke-width:1.2684;stroke-linecap:round;stroke-miterlimit:10;}
	.st65{fill:none;stroke:#333333;stroke-width:1.1484;stroke-linecap:round;stroke-miterlimit:10;}
	.st66{fill:none;stroke:#333333;stroke-width:1.4293;stroke-linecap:round;stroke-miterlimit:10;}
	.st67{fill:none;stroke:#212121;stroke-width:4.2878;stroke-linecap:round;stroke-miterlimit:10;}
	.st68{fill:none;stroke:#468480;stroke-width:1.83;stroke-linecap:round;stroke-linejoin:round;stroke-miterlimit:10;}
	.st69{fill:none;stroke:#333333;stroke-width:1.3816;stroke-linecap:round;stroke-miterlimit:10;}
	.st70{fill:none;stroke:#468480;stroke-width:2.2019;stroke-linecap:round;stroke-linejoin:round;stroke-miterlimit:10;}
	.st71{clip-path:url(#SVGID_26_);}
	.st72{fill:none;stroke:#333333;stroke-width:1.6231;stroke-linecap:round;stroke-miterlimit:10;}
	.st73{fill:none;stroke:#FFFFFF;stroke-width:1.4293;stroke-linecap:round;stroke-miterlimit:10;}
	.st74{fill:none;stroke:#222222;stroke-width:8.5586;stroke-linecap:round;stroke-miterlimit:10;}
	.st75{fill:none;stroke:#333333;stroke-width:2.8529;stroke-linecap:round;stroke-miterlimit:10;}
	.st76{fill:none;stroke:#333333;stroke-width:2.5831;stroke-linecap:round;stroke-miterlimit:10;}
	.st77{fill:#728482;}
	.st78{clip-path:url(#SVGID_28_);}
	.st79{fill:#637572;}
	.st80{fill:none;stroke:#333333;stroke-width:1.7625;stroke-linecap:round;stroke-miterlimit:10;}
	.st81{fill:none;stroke:#728482;stroke-width:1.7625;stroke-linecap:round;stroke-miterlimit:10;}
	.st82{clip-path:url(#SVGID_30_);}
	.st83{fill:none;stroke:#637572;stroke-width:1.7625;stroke-linecap:round;stroke-miterlimit:10;}
	.st84{fill:none;stroke:#333333;stroke-width:1.5682;stroke-linecap:round;stroke-miterlimit:10;}
	.st85{fill:none;stroke:#365B56;stroke-width:0.9491;stroke-miterlimit:10;}
	.st86{fill:none;stroke:#333333;stroke-width:1.6284;stroke-linecap:round;stroke-miterlimit:10;}
	.st87{fill:none;stroke:#468480;stroke-width:1.541;stroke-linecap:round;stroke-linejoin:round;stroke-miterlimit:10;}
	.st88{fill:none;stroke:#468480;stroke-width:1.4907;stroke-linecap:round;stroke-linejoin:round;stroke-miterlimit:10;}
	.st89{fill:none;stroke:#5D9E9B;stroke-width:3;stroke-miterlimit:10;}
</style>
<g>
	<g>
		<path class="st5" d="M91.4,456.2c-107.8-83.4-100-271.4,37-358.9c0,0,218.2-110.9,303.2,62.9c58,118.5,33.9,234.4-56.5,295.5"/>
	</g>
	<g>
		<g>
			<g>
				
					<rect x="219.9" y="388" transform="matrix(-1 -8.363012e-11 8.363012e-11 -1 497.3443 843.0508)" class="st1" width="57.5" height="67"/>
			</g>
			<g>
				<g>
					<g>
						<path class="st13" d="M308,201.1c43.9-18.9,68.6,9.9,68.6,9.9c20.1,21.4,23.6,53.5-3.6,74.3c0,0,35.2,6.4,25.6,57.3
							c0,0-15.6,57.2-65.1,40.5c0,0,4.3,40.6-36.9,50.4c0,0-35.8,11-56.2-26.6c0,0-13.5,31.3-50.8,19.9
							c-36.9-11.2-36.6-41.7-35.9-52.2c0,0-38.2,8.7-48.5-34.5c-3.7-15.6-3.7-53.5,34.5-60c0,0-35.7-27.4-4.6-69.8
							c28.7-39.1,69.8-6.8,69.8-6.8s7-42.3,56.3-39.2C303.8,166.9,308,201.1,308,201.1z"/>
					</g>
				</g>
			</g>
			<g>
				<path class="st13" d="M407.9,201.8c-9.1,26.8-31.7,17.3-31.7,17.3S380.5,194.9,407.9,201.8z"/>
			</g>
		</g>
		<g>
			<path class="st13" d="M148.9,199.9c-31.1-4.4-25.5-31.1-25.5-31.1S150.7,168.5,148.9,199.9z"/>
		</g>
	</g>
	<g>
		<circle class="st1" cx="180.3" cy="246" r="23.4"/>
	</g>
	<g>
		<circle class="st10" cx="170.7" cy="101.5" r="35.9"/>
	</g>
	<g>
		<path class="st0" d="M189.7,264.3c0,0-56.7,37.7-59.1,190.8l80.1-0.3c0,0-50.4-115-25.3-173.7"/>
	</g>
	<g>
		<circle class="st1" cx="252.1" cy="360.3" r="23.4"/>
	</g>
	<g>
		<circle class="st1" cx="290.1" cy="252.5" r="23.4"/>
	</g>
	<g>
		<path class="st12" d="M429.8,237.1c-37.6,0-68.3-30.6-68.3-68.3s30.6-68.3,68.3-68.3c37.6,0,68.3,30.6,68.3,68.3
			S467.5,237.1,429.8,237.1z M429.8,102.5c-36.6,0-66.3,29.8-66.3,66.3s29.8,66.3,66.3,66.3c36.6,0,66.3-29.8,66.3-66.3
			S466.4,102.5,429.8,102.5z"/>
	</g>
	<g>
		
			<rect x="284" y="125" transform="matrix(0.7812 -0.6243 0.6243 0.7812 -59.663 275.0583)" class="st47" width="157.1" height="195.2"/>
	</g>
	<g>
		<polyline class="st47" points="188.2,251.1 217.7,275.9 185.4,292 		"/>
	</g>
	<g>
		<polyline class="st47" points="208.8,270.2 341.7,297 362.5,348.1 205.5,281.1 		"/>
	</g>
	<g>
		<path class="st77" d="M362.1,348.9c-0.3,0-0.6-0.1-0.8-0.4l-43.7-55.9c-0.3-0.4-0.3-1,0.2-1.4c0.4-0.3,1-0.3,1.4,0.2l43.7,55.9
			c0.3,0.4,0.3,1-0.2,1.4C362.5,348.8,362.3,348.9,362.1,348.9z"/>
	</g>
	<g>
		<path class="st13" d="M342.6,454.7c-31.1-4.4-25.5-31.1-25.5-31.1S344.4,423.3,342.6,454.7z"/>
	</g>
	<g>
		<defs>
			
				<rect id="SVGID_27_" x="284" y="125" transform="matrix(0.7812 -0.6243 0.6243 0.7812 -59.663 275.0583)" width="157.1" height="195.2"/>
		</defs>
		<clipPath id="SVGID_3_">
			<use xlink:href="#SVGID_27_"  style="overflow:visible;"/>
		</clipPath>
		<g style="clip-path:url(#SVGID_3_);">
			<g>
				<path class="st79" d="M252.1,215c-0.3,0-0.6-0.1-0.8-0.4c-0.3-0.4-0.3-1,0.2-1.4l127.6-99c0.4-0.3,1-0.2,1.4,0.2
					c0.3,0.4,0.3,1-0.2,1.4l-127.6,99C252.5,215,252.3,215,252.1,215z"/>
			</g>
			<g>
				<path class="st79" d="M258.1,223.2c-0.3,0-0.6-0.1-0.8-0.4c-0.3-0.4-0.3-1,0.2-1.4l126.4-98c0.4-0.3,1-0.2,1.4,0.2
					c0.3,0.4,0.3,1-0.2,1.4l-126.4,98C258.5,223.2,258.3,223.2,258.1,223.2z"/>
			</g>
		</g>
	</g>
	<g>
		<path class="st4" d="M120.7,456.2c0,0-0.9-22,13.6-22.2c0,0,16.2-1.7,16.8,22.2"/>
	</g>
	<g>
		<path class="st4" d="M151.5,456.2c0,0-0.9-22,13.6-22.2c0,0,16.2-1.7,16.8,22.2"/>
	</g>
	<g>
		<path class="st4" d="M181.9,456.2c0,0-0.9-22,13.6-22.2c0,0,16.2-1.7,16.8,22.2"/>
	</g>
	<g>
		<path class="st13" d="M104.9,189v31.3H8.2v-17l46.2-60.1c7.4-9.5,9.7-14.9,9.7-20.4c0-6.3-4.8-10.7-11.8-10.7
			c-8,0-15.1,5-22.3,14.3L6.3,108.7c11.8-20,28.2-30.5,50.7-30.5c28,0,45.2,18.9,45.2,40.4c0,14.3-5.3,24.8-19.3,42.2l-16.4,21
			c-1.9,2.3-4.2,5-6.5,7.6c4.4-0.4,8-0.4,11.8-0.4H104.9z"/>
	</g>
</g>
<rect x="-926.9" y="-1045" class="st89" width="4282.2" height="5728.2"/>
</svg>
