<?xml version="1.0" encoding="utf-8"?>
<!-- Generator: Adobe Illustrator 24.0.1, SVG Export Plug-In . SVG Version: 6.00 Build 0)  -->
<svg version="1.1" id="Capa_1" xmlns="http://www.w3.org/2000/svg" xmlns:xlink="http://www.w3.org/1999/xlink" x="0px" y="0px"
	 viewBox="0 0 703 1126" style="enable-background:new 0 0 703 1126;" xml:space="preserve">
<style type="text/css">
	.st0{fill:#C0DAD8;}
	.st1{fill:#5D9E9B;}
	.st2{fill:#EAA42C;}
	.st3{fill:#FFDEC7;}
	.st4{fill:#FFFFFF;}
	.st5{fill:#FAF3E8;}
	.st6{fill:none;stroke:#333333;stroke-width:2.5;stroke-linecap:round;stroke-miterlimit:10;}
	.st7{fill:#365B56;}
	.st8{fill:none;stroke:#365B56;stroke-width:1.7023;stroke-miterlimit:10;}
	.st9{fill:none;}
	.st10{fill:#FFDC6F;}
	.st11{fill:none;stroke:#333333;stroke-width:1.3658;stroke-linecap:round;stroke-miterlimit:10;}
	.st12{fill:#333333;}
	.st13{fill:none;stroke:#333333;stroke-width:1.4442;stroke-linecap:round;stroke-miterlimit:10;}
	.st14{fill:#AF754E;}
	.st15{fill:#97623E;}
	.st16{fill:#222222;}
	.st17{fill:#FCCDAC;}
	.st18{fill:#467C75;}
	.st19{fill:#EDB24C;}
	.st20{fill:#F1A74A;}
	.st21{fill:#5D9D9A;}
	.st22{fill:#E9A32C;}
	.st23{fill:#D38013;}
	.st24{fill:#6D5235;}
	.st25{fill:#D89027;}
	.st26{fill:#B2D3D0;}
	.st27{fill:#468480;}
	.st28{clip-path:url(#SVGID_3_);}
	.st29{clip-path:url(#SVGID_5_);}
	.st30{fill:#A9C9C5;}
	.st31{fill:#3E6D68;}
	.st32{fill:none;stroke:#D89027;stroke-width:3.777;stroke-miterlimit:10;}
	.st33{fill:#346661;}
	.st34{fill:none;stroke:#D89027;stroke-width:3.0705;stroke-miterlimit:10;}
	.st35{fill:none;stroke:#467C75;stroke-width:4.6233;stroke-miterlimit:10;}
	.st36{fill:none;stroke:#333333;stroke-width:3.3231;stroke-linecap:round;stroke-miterlimit:10;}
	.st37{fill:none;stroke:#222222;stroke-width:9.9692;stroke-linecap:round;stroke-miterlimit:10;}
	.st38{fill:none;stroke:#333333;stroke-width:3.0088;stroke-linecap:round;stroke-miterlimit:10;}
	.st39{fill:none;stroke:#365B56;stroke-width:1.4072;stroke-miterlimit:10;}
	.st40{filter:url(#Adobe_OpacityMaskFilter);}
	.st41{mask:url(#SVGID_6_);fill:#C0DAD8;}
	.st42{fill:#EFA53A;}
	.st43{fill:#B3BDBC;}
	.st44{fill:none;stroke:#E5BE8C;stroke-width:4.3561;stroke-linecap:round;stroke-miterlimit:10;}
	.st45{fill:#E5BE8C;}
	.st46{fill:#9DAAA9;}
	.st47{clip-path:url(#SVGID_14_);}
	.st48{clip-path:url(#SVGID_16_);}
	.st49{fill:none;stroke:#E1A647;stroke-miterlimit:10;}
	.st50{fill:#FFDAC6;}
	.st51{fill:#212121;}
	.st52{fill:none;stroke:#333333;stroke-width:1.676;stroke-linecap:round;stroke-miterlimit:10;}
	.st53{fill:none;stroke:#468480;stroke-width:2.1459;stroke-linecap:round;stroke-linejoin:round;stroke-miterlimit:10;}
	.st54{clip-path:url(#SVGID_18_);}
	.st55{fill:none;stroke:#333333;stroke-width:1.2684;stroke-linecap:round;stroke-miterlimit:10;}
	.st56{fill:none;stroke:#333333;stroke-width:1.1484;stroke-linecap:round;stroke-miterlimit:10;}
	.st57{fill:none;stroke:#333333;stroke-width:1.4293;stroke-linecap:round;stroke-miterlimit:10;}
	.st58{fill:none;stroke:#212121;stroke-width:4.2878;stroke-linecap:round;stroke-miterlimit:10;}
	.st59{fill:none;stroke:#468480;stroke-width:1.83;stroke-linecap:round;stroke-linejoin:round;stroke-miterlimit:10;}
	.st60{fill:none;stroke:#333333;stroke-width:1.3816;stroke-linecap:round;stroke-miterlimit:10;}
	.st61{fill:none;stroke:#468480;stroke-width:2.2019;stroke-linecap:round;stroke-linejoin:round;stroke-miterlimit:10;}
	.st62{clip-path:url(#SVGID_20_);}
	.st63{fill:none;stroke:#333333;stroke-width:1.6231;stroke-linecap:round;stroke-miterlimit:10;}
	.st64{fill:none;stroke:#FFFFFF;stroke-width:1.4293;stroke-linecap:round;stroke-miterlimit:10;}
	.st65{clip-path:url(#SVGID_22_);fill:#5D9E9B;}
	.st66{fill:none;stroke:#333333;stroke-width:2;stroke-linecap:round;stroke-miterlimit:10;}
	.st67{fill:none;stroke:#D89027;stroke-width:4.4541;stroke-miterlimit:10;}
	.st68{fill:none;stroke:#333333;stroke-width:2.3147;stroke-linecap:round;stroke-miterlimit:10;}
	.st69{clip-path:url(#SVGID_24_);fill:none;stroke:#D89027;stroke-width:4.4541;stroke-miterlimit:10;}
	.st70{clip-path:url(#SVGID_26_);}
	.st71{clip-path:url(#SVGID_28_);fill:#5D9E9B;}
	.st72{fill:none;stroke:#333333;stroke-width:2.8529;stroke-linecap:round;stroke-linejoin:round;stroke-miterlimit:10;}
	.st73{fill:none;stroke:#FFFFFF;stroke-width:2;stroke-miterlimit:10;}
	.st74{clip-path:url(#SVGID_30_);fill:#346661;}
	.st75{clip-path:url(#SVGID_30_);fill:#5D9E9B;}
	.st76{fill:none;stroke:#D89027;stroke-width:7;stroke-linecap:round;stroke-miterlimit:10;}
	.st77{clip-path:url(#SVGID_32_);fill:none;stroke:#D89027;stroke-width:4.4541;stroke-miterlimit:10;}
	.st78{fill:none;stroke:#222222;stroke-width:8.5586;stroke-linecap:round;stroke-miterlimit:10;}
	.st79{fill:none;stroke:#333333;stroke-width:2.8529;stroke-linecap:round;stroke-miterlimit:10;}
	.st80{fill:none;stroke:#333333;stroke-width:2.5831;stroke-linecap:round;stroke-miterlimit:10;}
	.st81{fill:#728482;}
	.st82{clip-path:url(#SVGID_34_);}
	.st83{fill:#637572;}
	.st84{fill:none;stroke:#333333;stroke-width:1.7625;stroke-linecap:round;stroke-miterlimit:10;}
	.st85{fill:none;stroke:#728482;stroke-width:1.7625;stroke-linecap:round;stroke-miterlimit:10;}
	.st86{clip-path:url(#SVGID_36_);}
	.st87{fill:none;stroke:#637572;stroke-width:1.7625;stroke-linecap:round;stroke-miterlimit:10;}
	.st88{fill:none;stroke:#333333;stroke-width:1.5682;stroke-linecap:round;stroke-miterlimit:10;}
	.st89{fill:none;stroke:#365B56;stroke-width:0.9491;stroke-miterlimit:10;}
	.st90{fill:none;stroke:#333333;stroke-width:1.6284;stroke-linecap:round;stroke-miterlimit:10;}
	.st91{fill:none;stroke:#468480;stroke-width:1.541;stroke-linecap:round;stroke-linejoin:round;stroke-miterlimit:10;}
	.st92{fill:none;stroke:#468480;stroke-width:1.4907;stroke-linecap:round;stroke-linejoin:round;stroke-miterlimit:10;}
	.st93{fill:none;stroke:#5D9E9B;stroke-width:3;stroke-miterlimit:10;}
</style>
<g>
	<rect x="-0.2" y="-1.9" class="st0" width="703.5" height="1129.7"/>
</g>
<g>
	<path class="st16" d="M512.9,575h-14.4V419.3h17.2C515.7,419.3,514.1,540,512.9,575z"/>
</g>
<g>
	<path class="st17" d="M728.8,904.6c-187.7-10.2-142.1-174.9-142.1-174.9l-119.6-53.3c0,0-112.8,356.7,252.6,332.3"/>
</g>
<g>
	<g>
		<path class="st4" d="M290.3,582.3C431.6,562,498,609.3,498,609.3c37.1,239.8,75.8,434.1,75.8,434.1s-135.9,52.5-390.2,41.1
			C183.5,1084.5,205.6,825.1,290.3,582.3"/>
	</g>
</g>
<g>
	<path class="st1" d="M245.2,955.1c8.9-57.6,25.1-235.8,25.1-235.8l228.9-4.1c0,0,26.2,185.7,30.1,237c3.9,51.3,39.4,38,39.4,38
		l27.4,139.6H136.9l30.2-159.4c0,0,59.9,23.4,69.5,8.4C242.8,969,244.2,961.3,245.2,955.1z"/>
</g>
<g>
	<path class="st4" d="M491.9,605.6c0,0,89.2,51.6,125.5,190l-101.9,14.1L491.9,605.6z"/>
</g>
<g>
	<path class="st18" d="M389.7,893c-19.4,0-35.4-6.1-47.8-18.3c-10.3-10.1-23.5-30.2-27.7-68.4c-2.5-22.7-0.7-40.8-0.6-41.5l0.2-2.1
		l151.2-1.3l0.3,1.9c8.3,49.9,2.6,86.3-17,108.2c-18.9,21.2-43.9,20.8-46.6,20.7C397.6,892.8,393.6,893,389.7,893z M318.1,767.3
		c-0.9,12.1-3.7,73.9,27.1,104.1c13.8,13.6,32.8,19.1,56.3,16.2l0.2,0l0.2,0c0.2,0,25.1,1,43.2-19.3c18.3-20.6,23.8-55,16.2-102.3
		L318.1,767.3z"/>
</g>
<g>
	<polyline class="st16" points="442.6,556 452.8,412.4 515.7,419.3 	"/>
</g>
<g>
	
		<ellipse transform="matrix(0.9969 -7.881987e-02 7.881987e-02 0.9969 -27.6382 32.466)" class="st19" cx="397.4" cy="366.3" rx="96.9" ry="81.7"/>
</g>
<g>
	
		<ellipse transform="matrix(0.9765 -0.2154 0.2154 0.9765 -74.9875 94.9667)" class="st2" cx="398.3" cy="391.6" rx="181.6" ry="57.6"/>
</g>
<g>
	<path class="st17" d="M340.1,391.5c-9.2,144.6-18,203.6-18,203.6c63.7,42.6,107.3,18.4,107.3,18.4c5.1-43.2,20.2-41.3,33.7-45.6
		c63.6-20.1,44.8-181.5,44.8-181.5s-5.2-37.2-84-31.7C423.8,354.7,342.1,362.2,340.1,391.5z"/>
</g>
<g>
	<path class="st16" d="M339.8,346.8c0,0,180.2-52.7,175.8,77.2l-175.8,6.6V346.8"/>
</g>
<g>
	<path class="st20" d="M498.1,483.8l-11.9,0c-3.2,0-5.9-2.6-5.9-5.9l0,0c0-3.2,2.6-5.9,5.9-5.9l11.9,0c3.2,0,5.9,2.6,5.9,5.9v0
		C504,481.1,501.3,483.8,498.1,483.8z"/>
</g>
<g>
	<path class="st20" d="M410.3,483.7l-11.9,0c-3.2,0-5.9-2.6-5.9-5.9l0,0c0-3.2,2.6-5.9,5.9-5.9l11.9,0c3.2,0,5.9,2.6,5.9,5.9v0
		C416.2,481.1,413.6,483.7,410.3,483.7z"/>
</g>
<g>
	<path class="st2" d="M292,382.6c-1.6-23.2,47.4-45.5,109.5-49.7s113.6,11.2,115.2,34.4l-13.6,4.3c0,0-33.1-24.5-98.9-18.5
		c0,0-83.8,3-98.9,29.8L292,382.6z"/>
</g>
<g>
	<path class="st12" d="M449,493.4c-0.6,0-1.1,0-1.7-0.1c-0.9-0.1-1.6-0.9-1.5-1.8c0.1-0.9,0.9-1.6,1.8-1.5c3.6,0.3,6.1-0.4,7.5-1.9
		c1.7-2,1.2-4.9,1.2-5l-5.3-35.9c-0.1-0.9,0.5-1.8,1.4-1.9c0.9-0.1,1.8,0.5,1.9,1.4l5.3,35.7c0.1,0.6,0.8,4.7-1.9,7.7
		C455.7,492.4,452.9,493.4,449,493.4z"/>
</g>
<g>
	<path class="st16" d="M404.4,446.7c-1.6,0-3.1-0.7-4.1-2.1c-1.6-2.2-1.1-5.4,1.1-7c14.8-10.6,28.1-4.9,33.1-0.4c2,1.8,2.2,5,0.4,7
		c-1.8,2-5,2.2-7,0.4c-0.9-0.8-9-7.2-20.6,1.1C406.4,446.4,405.4,446.7,404.4,446.7z"/>
</g>
<g>
	<path class="st16" d="M472.4,446.7c-1.6,0-3.1-0.7-4.1-2.1c-1.6-2.2-1.1-5.4,1.1-7c14.8-10.6,28.1-4.9,33.1-0.4c2,1.8,2.2,5,0.4,7
		c-1.8,2-5,2.2-7,0.4c-0.9-0.8-9.1-7.2-20.6,1.1C474.4,446.4,473.4,446.7,472.4,446.7z"/>
</g>
<g>
	<path class="st21" d="M488.7,600.7c0,0-27-12.2-36.2-13.9l8.7,140.8h39.1L488.7,600.7z"/>
</g>
<g>
	<path class="st12" d="M443.6,513.2c-1.2,0-2.6-0.2-4.1-0.5c-3.2-0.8-10.5-3.8-8.4-14.3c0.2-0.8,1-1.3,1.8-1.2
		c0.8,0.2,1.3,1,1.2,1.8c-1.5,7.2,2.5,9.8,6.2,10.7c8.6,2.2,11-4.4,11.1-4.6c0.3-0.8,1.1-1.2,1.9-0.9c0.8,0.3,1.2,1.1,0.9,1.9
		C454.2,506.1,451.7,513.2,443.6,513.2z"/>
</g>
<g>
	<path class="st12" d="M405,466.2c-0.8,0-1.5-0.7-1.5-1.5c0-6.3,1.7-11,5-14.1c3.8-3.4,8.2-3.4,10-3.2c4.4,0.5,7.8,2.1,10.2,5
		c3.9,4.8,3.3,11.2,3.3,11.5c-0.1,0.8-0.8,1.4-1.7,1.3c-0.8-0.1-1.4-0.8-1.3-1.7c0.1-0.5,1.1-12-10.7-13.2c-1.3-0.1-4.8-0.2-7.6,2.4
		c-2.7,2.4-4,6.4-4,11.8C406.5,465.5,405.9,466.2,405,466.2C405,466.2,405,466.2,405,466.2z"/>
</g>
<g>
	<path class="st12" d="M473.1,466.2c-0.8,0-1.5-0.7-1.5-1.5c0-6.3,1.7-11,5-14.1c3.8-3.4,8.2-3.4,10-3.2c4.4,0.5,7.8,2.1,10.2,5
		c3.9,4.8,3.3,11.2,3.3,11.5c-0.1,0.8-0.8,1.4-1.7,1.3c-0.8-0.1-1.4-0.8-1.3-1.7l0,0c0-0.5,1.1-12-10.7-13.2
		c-1.3-0.1-4.8-0.2-7.6,2.4c-2.7,2.4-4,6.4-4,11.8C474.6,465.5,473.9,466.2,473.1,466.2C473.1,466.2,473.1,466.2,473.1,466.2z"/>
</g>
<g>
	<line class="st17" x1="495.6" y1="1043.1" x2="495.7" y2="1043.9"/>
</g>
<g>
	<g>
		<g>
			<g>
				<g>
					
						<ellipse transform="matrix(0.3616 -0.9323 0.9323 0.3616 -390.1452 1231.3398)" class="st22" cx="704.1" cy="900.6" rx="59.4" ry="62.4"/>
				</g>
			</g>
			<g>
				<g>
					<path class="st24" d="M704.4,847.7c-2-0.1-4.2-0.9-4.2-2.2c0-0.3,0.2-0.6,0.4-0.9c0.7-0.7,2.1-1,3.8-1c2,0.1,4.2,0.9,4.2,2.2
						c0,0.3-0.2,0.6-0.4,0.9c-0.2,0.2-0.5,0.4-0.9,0.5C706.6,847.6,705.5,847.7,704.4,847.7z M701.2,845.2c-0.1,0.1-0.2,0.2-0.2,0.3
						l0,0c0,0.5,1.3,1.3,3.4,1.3c1.6,0.1,2.8-0.3,3.2-0.7c0.1-0.1,0.2-0.2,0.2-0.3c0-0.5-1.3-1.3-3.4-1.3c-1.1,0-2,0.1-2.6,0.4
						C701.6,844.9,701.4,845.1,701.2,845.2z"/>
				</g>
			</g>
		</g>
	</g>
</g>
<g>
	<g>
		<g>
			<g>
				<g>
					
						<ellipse transform="matrix(0.3616 -0.9323 0.9323 0.3616 -453.1903 1139.2671)" class="st22" cx="605.3" cy="900.6" rx="59.4" ry="62.4"/>
				</g>
			</g>
			<g>
				<g>
					
						<ellipse transform="matrix(0.3616 -0.9323 0.9323 0.3616 -402.8913 1161.4312)" class="st23" cx="646.6" cy="874.9" rx="2" ry="2.1"/>
				</g>
			</g>
			<g>
				<g>
					
						<ellipse transform="matrix(0.3616 -0.9323 0.9323 0.3616 -409.2476 1178.6218)" class="st23" cx="656" cy="888.1" rx="2" ry="2.1"/>
				</g>
			</g>
			<g>
				<g>
					
						<ellipse transform="matrix(0.3616 -0.9323 0.9323 0.3616 -417.5508 1165.4828)" class="st23" cx="642.3" cy="887.6" rx="2" ry="2.1"/>
				</g>
			</g>
			<g>
				<g>
					
						<ellipse transform="matrix(0.3616 -0.9323 0.9323 0.3616 -412.4202 1146.3525)" class="st23" cx="630.9" cy="874.3" rx="2" ry="2.1"/>
				</g>
			</g>
			<g>
				<g>
					
						<ellipse transform="matrix(0.3616 -0.9323 0.9323 0.3616 -426.2341 1151.7422)" class="st23" cx="627.9" cy="887.1" rx="2" ry="2.1"/>
				</g>
			</g>
			<g>
				<g>
					
						<ellipse transform="matrix(0.3616 -0.9323 0.9323 0.3616 -423.6746 1191.1888)" class="st23" cx="658" cy="905" rx="2" ry="2.1"/>
				</g>
			</g>
			<g>
				<g>
					
						<ellipse transform="matrix(0.3616 -0.9323 0.9323 0.3616 -433.2606 1176.0199)" class="st23" cx="642.1" cy="904.4" rx="2" ry="2.1"/>
				</g>
			</g>
			<g>
				<g>
					
						<ellipse transform="matrix(0.3616 -0.9323 0.9323 0.3616 -441.6395 1194.5671)" class="st23" cx="651.5" cy="919.8" rx="2" ry="2.1"/>
				</g>
			</g>
			<g>
				<g>
					<path class="st24" d="M605.7,847.7c-2-0.1-4.2-0.9-4.2-2.2c0-0.3,0.2-0.6,0.4-0.9c0.7-0.7,2.1-1,3.8-1c2,0.1,4.2,0.9,4.2,2.2
						c0,0.3-0.2,0.6-0.4,0.9c-0.2,0.2-0.5,0.4-0.9,0.5C607.8,847.6,606.8,847.7,605.7,847.7z M602.5,845.2c-0.1,0.1-0.2,0.2-0.2,0.3
						l0,0c0,0.5,1.3,1.3,3.4,1.3c1.6,0.1,2.8-0.3,3.2-0.7c0.1-0.1,0.2-0.2,0.2-0.3c0-0.5-1.3-1.3-3.4-1.3c-1.1,0-2,0.1-2.6,0.4
						C602.8,844.9,602.6,845.1,602.5,845.2z"/>
				</g>
			</g>
		</g>
		<g>
			<g>
				<path class="st7" d="M604.9,827.8c37.4-28.9,72.2-0.3,72.2-0.3S642.5,858.7,604.9,827.8z"/>
			</g>
		</g>
	</g>
	<g>
		
			<rect x="604.8" y="811.6" transform="matrix(0.9999 -1.263650e-02 1.263650e-02 0.9999 -10.4226 7.7179)" class="st7" width="1.4" height="34.1"/>
	</g>
</g>
<g>
	<g>
		<g>
			<g>
				<g>
					
						<ellipse transform="matrix(0.3616 -0.9323 0.9323 0.3616 -503.8476 1065.2856)" class="st22" cx="526" cy="900.6" rx="59.4" ry="62.4"/>
				</g>
			</g>
			<g>
				<g>
					
						<ellipse transform="matrix(0.3616 -0.9323 0.9323 0.3616 -453.5486 1087.4497)" class="st23" cx="567.3" cy="874.9" rx="2" ry="2.1"/>
				</g>
			</g>
			<g>
				<g>
					
						<ellipse transform="matrix(0.3616 -0.9323 0.9323 0.3616 -459.9049 1104.6404)" class="st23" cx="576.7" cy="888.1" rx="2" ry="2.1"/>
				</g>
			</g>
			<g>
				<g>
					
						<ellipse transform="matrix(0.3616 -0.9323 0.9323 0.3616 -468.2081 1091.5013)" class="st23" cx="562.9" cy="887.6" rx="2" ry="2.1"/>
				</g>
			</g>
			<g>
				<g>
					
						<ellipse transform="matrix(0.3616 -0.9323 0.9323 0.3616 -463.0775 1072.3711)" class="st23" cx="551.5" cy="874.3" rx="2" ry="2.1"/>
				</g>
			</g>
			<g>
				<g>
					
						<ellipse transform="matrix(0.3616 -0.9323 0.9323 0.3616 -476.8914 1077.7607)" class="st23" cx="548.6" cy="887.1" rx="2" ry="2.1"/>
				</g>
			</g>
			<g>
				<g>
					
						<ellipse transform="matrix(0.3616 -0.9323 0.9323 0.3616 -474.3319 1117.2074)" class="st23" cx="578.6" cy="905" rx="2" ry="2.1"/>
				</g>
			</g>
			<g>
				<g>
					
						<ellipse transform="matrix(0.3616 -0.9323 0.9323 0.3616 -483.9179 1102.0385)" class="st23" cx="562.8" cy="904.4" rx="2" ry="2.1"/>
				</g>
			</g>
			<g>
				<g>
					
						<ellipse transform="matrix(0.3616 -0.9323 0.9323 0.3616 -492.2968 1120.5857)" class="st23" cx="572.1" cy="919.8" rx="2" ry="2.1"/>
				</g>
			</g>
			<g>
				<g>
					<path class="st24" d="M526.3,847.7c-2-0.1-4.2-0.9-4.2-2.2c0-0.3,0.2-0.6,0.4-0.9c0.7-0.7,2.1-1,3.8-1c2,0.1,4.2,0.9,4.2,2.2
						c0,0.3-0.2,0.6-0.4,0.9c-0.2,0.2-0.5,0.4-0.9,0.5C528.5,847.6,527.4,847.7,526.3,847.7z M523.1,845.2c-0.1,0.1-0.2,0.2-0.2,0.3
						l0,0c0,0.5,1.3,1.3,3.4,1.3c1.6,0.1,2.8-0.3,3.2-0.7c0.1-0.1,0.2-0.2,0.2-0.3c0-0.5-1.3-1.3-3.4-1.3c-1.1,0-2,0.1-2.6,0.4
						C523.5,844.9,523.3,845.1,523.1,845.2z"/>
				</g>
			</g>
		</g>
		<g>
			<g>
				<path class="st7" d="M525.5,827.8c37.4-28.9,72.2-0.3,72.2-0.3S563.2,858.7,525.5,827.8z"/>
			</g>
		</g>
	</g>
	<g>
		
			<rect x="525.5" y="811.6" transform="matrix(0.9999 -1.263650e-02 1.263650e-02 0.9999 -10.4289 6.7152)" class="st7" width="1.4" height="34.1"/>
	</g>
</g>
<g>
	
		<rect x="453.3" y="886.9" transform="matrix(-1 -4.489488e-11 4.489488e-11 -1 1065.3842 2015.925)" class="st15" width="158.8" height="242"/>
</g>
<g>
	
		<rect x="611.9" y="886.9" transform="matrix(-1 -4.490198e-11 4.490198e-11 -1 1487.8225 2015.925)" class="st14" width="264" height="242"/>
</g>
<g>
	<path class="st16" d="M327.5,549.1c0,0-36.5-20.3-38.9-68c-2.4-47.7,10.7-106.5,59.8-120.7"/>
</g>
<g>
	<g>
		<ellipse class="st17" cx="334.7" cy="483.6" rx="27.3" ry="26.1"/>
	</g>
</g>
<g>
	<g>
		<ellipse class="st16" cx="276.9" cy="520.9" rx="30.5" ry="29.2"/>
	</g>
</g>
<g>
	<path class="st16" d="M348.3,575h-15.1l5.1-155.7h17.2C355.5,419.3,349.5,540,348.3,575z"/>
</g>
<g>
	<g>
		<path class="st17" d="M461.9,998.5c0,0-247.9-26.3-235.5-171.3l-126.5-7.6c0,0-26.5,197.1,187,245.4c0,0,72.1,23.7,166.4,25.8"/>
	</g>
	<g>
		<path class="st17" d="M497.1,1014.5c0.6-6.2-3.2-11.6-8.4-12.1l-60.5-8.8l-1.6,25.8l59,5.9
			C490.8,1025.8,496.6,1020.6,497.1,1014.5z"/>
	</g>
	<g>
		<path class="st17" d="M497.9,1037.7c0.5-6.3-3.6-11.7-9.1-12.2l-59.9-5l-1.6,22.7l59.9,5C492.6,1048.7,497.5,1044,497.9,1037.7z"
			/>
	</g>
	<g>
		<path class="st17" d="M496.3,1060.4c0.4-6.2-3.5-11.5-8.7-11.9l-57.1-4.5l-1.8,26.2l57.3,0.7
			C491.3,1071.3,495.9,1066.6,496.3,1060.4z"/>
	</g>
	<g>
		<path class="st17" d="M485.7,1081.2c0-5.6-4.2-10.2-9.4-10.2l-56.9-0.3l34.1,20.6l22.7,0C481.4,1091.3,485.7,1086.8,485.7,1081.2z
			"/>
	</g>
	<g>
		<path class="st12" d="M486.2,1026.1c0,0-0.1,0-0.1,0l-47.1-3.9c-0.7-0.1-1.2-0.7-1.1-1.3c0.1-0.7,0.7-1.2,1.3-1.1l47.1,3.9
			c0.7,0.1,1.2,0.7,1.1,1.3C487.3,1025.6,486.8,1026.1,486.2,1026.1z"/>
	</g>
	<g>
		<path class="st12" d="M487.2,1049.4c0,0-0.1,0-0.1,0l-50.6-4.2c-0.7-0.1-1.2-0.7-1.1-1.3c0.1-0.7,0.7-1.2,1.3-1.1l50.6,4.2
			c0.7,0.1,1.2,0.7,1.1,1.3C488.4,1048.9,487.8,1049.4,487.2,1049.4z"/>
	</g>
	<g>
		<path class="st12" d="M477.7,1072.5C477.7,1072.5,477.7,1072.5,477.7,1072.5l-46-3.2c-0.7,0-1.2-0.6-1.2-1.3
			c0-0.7,0.6-1.2,1.3-1.2l45.9,3.2c0.7,0,1.2,0.6,1.2,1.3C478.9,1072,478.4,1072.5,477.7,1072.5z"/>
	</g>
	<g>
		<path class="st17" d="M450.9,980.3c0.3-5.2-3.3-9.6-8.1-10l-89.9,4.2l28.7,24l60-9.5C446.4,989.3,450.6,985.4,450.9,980.3z"/>
	</g>
</g>
<g>
	<path class="st4" d="M279.8,582.3c0,0-156.8,27.2-191.5,240c0,0,66.2,4.9,155.9,3.4L279.8,582.3z"/>
</g>
<g>
	<path class="st21" d="M269.8,586.1c0,0,24.6-7.4,36.7-7.4l0.9,141.7l-37.1-1.2L269.8,586.1z"/>
</g>
<g>
	<path class="st12" d="M314.2,486.4c-0.8,0-1.5-0.7-1.5-1.5c0-18.1,18.3-22.7,18.5-22.7c0.8-0.2,1.6,0.3,1.8,1.1
		c0.2,0.8-0.3,1.6-1.1,1.8l0,0c-0.7,0.2-16.2,4-16.2,19.8C315.7,485.8,315.1,486.4,314.2,486.4z"/>
</g>
<g>
	<circle class="st10" cx="101.8" cy="108.8" r="50.2"/>
</g>
<g>
	<g>
		<path class="st4" d="M122,252.9h151.8c0,0,7.1-34.3-52.6-23.1c-25.7,5.1-13.2-37.4-58.7-36.3c-13.7,0.5-27.5,2.8-44.7,30.2
			c-17,27.7-51.9-13.2-54.7,29.5h59V252.9z"/>
	</g>
</g>
<g>
	<g>
		<g>
			<g>
				<g>
					
						<ellipse transform="matrix(0.3616 -0.9323 0.9323 0.3616 -390.1452 1231.3398)" class="st22" cx="704.1" cy="900.6" rx="59.4" ry="62.4"/>
				</g>
			</g>
			<g>
				<g>
					<path class="st24" d="M704.4,847.7c-2-0.1-4.2-0.9-4.2-2.2c0-0.3,0.2-0.6,0.4-0.9c0.7-0.7,2.1-1,3.8-1c2,0.1,4.2,0.9,4.2,2.2
						c0,0.3-0.2,0.6-0.4,0.9c-0.2,0.2-0.5,0.4-0.9,0.5C706.6,847.6,705.5,847.7,704.4,847.7z M701.2,845.2c-0.1,0.1-0.2,0.2-0.2,0.3
						l0,0c0,0.5,1.3,1.3,3.4,1.3c1.6,0.1,2.8-0.3,3.2-0.7c0.1-0.1,0.2-0.2,0.2-0.3c0-0.5-1.3-1.3-3.4-1.3c-1.1,0-2,0.1-2.6,0.4
						C701.6,844.9,701.4,845.1,701.2,845.2z"/>
				</g>
			</g>
		</g>
	</g>
</g>
<g>
	
		<rect x="611.9" y="886.9" transform="matrix(-1 -4.490198e-11 4.490198e-11 -1 1487.8225 2015.925)" class="st14" width="264" height="242"/>
</g>
<rect x="-371.6" y="-1755.9" class="st93" width="4282.2" height="5728.2"/>
</svg>
