<?xml version="1.0" encoding="utf-8"?>
<!-- Generator: Adobe Illustrator 25.2.3, SVG Export Plug-In . SVG Version: 6.00 Build 0)  -->
<svg version="1.1" id="Capa_1" xmlns="http://www.w3.org/2000/svg" xmlns:xlink="http://www.w3.org/1999/xlink" x="0px" y="0px"
	 viewBox="0 0 703 1126" style="enable-background:new 0 0 703 1126;" xml:space="preserve">
<style type="text/css">
	.st0{fill:#C0DAD8;}
	.st1{clip-path:url(#SVGID_3_);fill:#5D9E9B;}
	.st2{clip-path:url(#SVGID_5_);fill:#346661;}
	.st3{clip-path:url(#SVGID_5_);fill:#5D9E9B;}
	.st4{fill:#EAA42C;}
	.st5{clip-path:url(#SVGID_7_);fill:#5D9E9B;}
	.st6{fill:#FFFFFF;}
	.st7{fill:#5D9E9B;}
	.st8{fill:#FFDEC7;}
	.st9{fill:#FAF3E8;}
	.st10{fill:#333333;}
	.st11{fill:#365B56;}
	.st12{fill:none;}
	.st13{fill:#FFDC6F;}
	.st14{fill:none;stroke:#333333;stroke-width:1.3658;stroke-linecap:round;stroke-miterlimit:10;}
	.st15{fill:none;stroke:#333333;stroke-width:1.4442;stroke-linecap:round;stroke-miterlimit:10;}
	.st16{fill:#AF754E;}
	.st17{fill:#97623E;}
	.st18{fill:#222222;}
	.st19{fill:#FCCDAC;}
	.st20{fill:#467C75;}
	.st21{fill:#EDB24C;}
	.st22{fill:#F1A74A;}
	.st23{fill:#5D9D9A;}
	.st24{fill:#E9A32C;}
	.st25{fill:#D38013;}
	.st26{fill:#6D5235;}
	.st27{fill:#D89027;}
	.st28{fill:#B2D3D0;}
	.st29{fill:#468480;}
	.st30{clip-path:url(#SVGID_9_);}
	.st31{clip-path:url(#SVGID_11_);}
	.st32{fill:#A9C9C5;}
	.st33{fill:#3E6D68;}
	.st34{fill:none;stroke:#D89027;stroke-width:3.777;stroke-miterlimit:10;}
	.st35{fill:#346661;}
	.st36{fill:none;stroke:#D89027;stroke-width:3.0705;stroke-miterlimit:10;}
	.st37{fill:none;stroke:#467C75;stroke-width:4.6233;stroke-miterlimit:10;}
	.st38{fill:none;stroke:#333333;stroke-width:3.3231;stroke-linecap:round;stroke-miterlimit:10;}
	.st39{fill:none;stroke:#222222;stroke-width:9.9692;stroke-linecap:round;stroke-miterlimit:10;}
	.st40{fill:none;stroke:#333333;stroke-width:3.0088;stroke-linecap:round;stroke-miterlimit:10;}
	.st41{fill:none;stroke:#365B56;stroke-width:1.4072;stroke-miterlimit:10;}
	.st42{fill:none;stroke:#333333;stroke-width:2.5;stroke-linecap:round;stroke-miterlimit:10;}
	.st43{filter:url(#Adobe_OpacityMaskFilter);}
	.st44{mask:url(#SVGID_12_);}
	.st45{fill:#EFA53A;}
	.st46{fill:#B3BDBC;}
	.st47{fill:#E5BE8C;}
	.st48{fill:#9DAAA9;}
	.st49{fill:none;stroke:#365B56;stroke-width:1.7023;stroke-miterlimit:10;}
	.st50{filter:url(#Adobe_OpacityMaskFilter_1_);}
	.st51{mask:url(#SVGID_15_);fill:#C0DAD8;}
	.st52{fill:none;stroke:#E5BE8C;stroke-width:4.3561;stroke-linecap:round;stroke-miterlimit:10;}
	.st53{clip-path:url(#SVGID_23_);}
	.st54{clip-path:url(#SVGID_25_);}
	.st55{fill:none;stroke:#E1A647;stroke-miterlimit:10;}
	.st56{fill:#FFDAC6;}
	.st57{fill:#212121;}
	.st58{fill:none;stroke:#333333;stroke-width:1.676;stroke-linecap:round;stroke-miterlimit:10;}
	.st59{fill:none;stroke:#468480;stroke-width:2.1459;stroke-linecap:round;stroke-linejoin:round;stroke-miterlimit:10;}
	.st60{clip-path:url(#SVGID_27_);}
	.st61{fill:none;stroke:#333333;stroke-width:1.2684;stroke-linecap:round;stroke-miterlimit:10;}
	.st62{fill:none;stroke:#333333;stroke-width:1.1484;stroke-linecap:round;stroke-miterlimit:10;}
	.st63{fill:none;stroke:#333333;stroke-width:1.4293;stroke-linecap:round;stroke-miterlimit:10;}
	.st64{fill:none;stroke:#212121;stroke-width:4.2878;stroke-linecap:round;stroke-miterlimit:10;}
	.st65{fill:none;stroke:#468480;stroke-width:1.83;stroke-linecap:round;stroke-linejoin:round;stroke-miterlimit:10;}
	.st66{fill:none;stroke:#333333;stroke-width:1.3816;stroke-linecap:round;stroke-miterlimit:10;}
	.st67{fill:none;stroke:#468480;stroke-width:2.2019;stroke-linecap:round;stroke-linejoin:round;stroke-miterlimit:10;}
	.st68{clip-path:url(#SVGID_29_);}
	.st69{fill:none;stroke:#333333;stroke-width:1.6231;stroke-linecap:round;stroke-miterlimit:10;}
	.st70{fill:none;stroke:#FFFFFF;stroke-width:1.4293;stroke-linecap:round;stroke-miterlimit:10;}
	.st71{fill:none;stroke:#D89027;stroke-width:4.4541;stroke-miterlimit:10;}
	.st72{fill:none;stroke:#333333;stroke-width:2.3147;stroke-linecap:round;stroke-miterlimit:10;}
	.st73{clip-path:url(#SVGID_31_);fill:none;stroke:#D89027;stroke-width:4.4541;stroke-miterlimit:10;}
	.st74{clip-path:url(#SVGID_33_);}
	.st75{fill:none;stroke:#333333;stroke-width:2.8529;stroke-linecap:round;stroke-linejoin:round;stroke-miterlimit:10;}
	.st76{fill:none;stroke:#FFFFFF;stroke-width:2;stroke-miterlimit:10;}
	.st77{fill:none;stroke:#D89027;stroke-width:7;stroke-linecap:round;stroke-miterlimit:10;}
	.st78{clip-path:url(#SVGID_35_);fill:none;stroke:#D89027;stroke-width:4.4541;stroke-miterlimit:10;}
	.st79{fill:none;stroke:#222222;stroke-width:8.5586;stroke-linecap:round;stroke-miterlimit:10;}
	.st80{fill:none;stroke:#333333;stroke-width:2.8529;stroke-linecap:round;stroke-miterlimit:10;}
	.st81{fill:none;stroke:#333333;stroke-width:2.5831;stroke-linecap:round;stroke-miterlimit:10;}
	.st82{fill:#728482;}
	.st83{clip-path:url(#SVGID_37_);}
	.st84{fill:#637572;}
	.st85{fill:none;stroke:#333333;stroke-width:1.7625;stroke-linecap:round;stroke-miterlimit:10;}
	.st86{fill:none;stroke:#728482;stroke-width:1.7625;stroke-linecap:round;stroke-miterlimit:10;}
	.st87{clip-path:url(#SVGID_39_);}
	.st88{fill:none;stroke:#637572;stroke-width:1.7625;stroke-linecap:round;stroke-miterlimit:10;}
	.st89{fill:none;stroke:#333333;stroke-width:1.5682;stroke-linecap:round;stroke-miterlimit:10;}
	.st90{fill:none;stroke:#365B56;stroke-width:0.9491;stroke-miterlimit:10;}
	.st91{fill:none;stroke:#333333;stroke-width:1.6284;stroke-linecap:round;stroke-miterlimit:10;}
	.st92{fill:none;stroke:#468480;stroke-width:1.541;stroke-linecap:round;stroke-linejoin:round;stroke-miterlimit:10;}
	.st93{fill:none;stroke:#468480;stroke-width:1.4907;stroke-linecap:round;stroke-linejoin:round;stroke-miterlimit:10;}
	.st94{fill:none;stroke:#5D9E9B;stroke-width:3;stroke-miterlimit:10;}
</style>
<rect x="-0.2" y="-1.9" class="st0" width="703.5" height="1129.7"/>
<g>
	<defs>
		<rect id="SVGID_2_" x="736.4" y="-1.9" width="703.5" height="1129.7"/>
	</defs>
	<clipPath id="SVGID_3_">
		<use xlink:href="#SVGID_2_"  style="overflow:visible;"/>
	</clipPath>
	<path class="st1" d="M167.4,1131.6c0,0,193.8-106.5,439.4-101.7s551.5-67.2,703.5-96.6c128.1-24.8,336-45.6,336-45.6v243.9H167.4z"
		/>
</g>
<path class="st4" d="M625.3,604.6c0,0,247,42,273.9,523.9c0,0-111.9-1.1-195.4-2.5L625.3,604.6z"/>
<g>
	<defs>
		<rect id="SVGID_6_" x="-0.2" y="-1.9" width="703.5" height="1129.7"/>
	</defs>
	<clipPath id="SVGID_5_">
		<use xlink:href="#SVGID_6_"  style="overflow:visible;"/>
	</clipPath>
	<path class="st3" d="M167.4,1131.6c0,0,193.8-106.5,439.4-101.7s551.5-67.2,703.5-96.6c128.1-24.8,336-45.6,336-45.6v243.9H167.4z"
		/>
</g>
<g>
	<path class="st6" d="M612,606.6c-131.7-19-193.5,25.1-193.5,25.1c-34.6,223.5-62.1,478.5-62.1,478.5s129,26.5,366.1,15.8
		C722.3,1126,691,832.9,612,606.6"/>
</g>
<path class="st4" d="M587.2,1130.4V594.1c0,0,78.2,18.5,101,41.3c22.8,22.8,56.3,495,56.3,495H587.2z"/>
<path class="st4" d="M411.2,628L356.3,968c-74.8,107.3-238.4,61.1-238.4,61.1L133.7,879c106.8-6.9,159.4-42.9,192.5-107.6
	C343.2,738.4,352.6,655.8,411.2,628"/>
<path class="st8" d="M116.9,823.9c0,0,27,27.7,51.6,59c0,0,16.1,121.9-62,127.8l-78.9-82"/>
<path class="st4" d="M495.9,1126.5V594.1c0,0-73.2,19.8-96,42.5c-22.8,22.8-61.3,489.8-61.3,489.8H495.9z"/>
<line class="st42" x1="63" y1="728.3" x2="69.8" y2="788.3"/>
<line class="st42" x1="168.7" y1="757.6" x2="130.8" y2="804.6"/>
<line class="st42" x1="126.2" y1="705.3" x2="102.9" y2="791.6"/>
<g>
	<g>
		<g>
			<g>
				
					<ellipse transform="matrix(0.3616 -0.9323 0.9323 0.3616 -798.0004 635.6962)" class="st24" cx="65.2" cy="900.6" rx="59.4" ry="62.4"/>
			</g>
			<g>
				
					<ellipse transform="matrix(0.3616 -0.9323 0.9323 0.3616 -747.7014 657.8602)" class="st25" cx="106.5" cy="874.9" rx="2" ry="2.1"/>
			</g>
			<g>
				
					<ellipse transform="matrix(0.3616 -0.9323 0.9323 0.3616 -754.0577 675.0509)" class="st25" cx="115.9" cy="888.1" rx="2" ry="2.1"/>
			</g>
			<g>
				
					<ellipse transform="matrix(0.3616 -0.9323 0.9323 0.3616 -762.3608 661.9119)" class="st25" cx="102.2" cy="887.6" rx="2" ry="2.1"/>
			</g>
			<g>
				
					<ellipse transform="matrix(0.3616 -0.9323 0.9323 0.3616 -757.2303 642.7817)" class="st25" cx="90.8" cy="874.3" rx="2" ry="2.1"/>
			</g>
			<g>
				
					<ellipse transform="matrix(0.3616 -0.9323 0.9323 0.3616 -771.0442 648.1714)" class="st25" cx="87.8" cy="887.1" rx="2" ry="2.1"/>
			</g>
			<g>
				
					<ellipse transform="matrix(0.3616 -0.9323 0.9323 0.3616 -768.4847 687.618)" class="st25" cx="117.9" cy="905" rx="2" ry="2.1"/>
			</g>
			<g>
				
					<ellipse transform="matrix(0.3616 -0.9323 0.9323 0.3616 -778.0707 672.449)" class="st25" cx="102" cy="904.4" rx="2" ry="2.1"/>
			</g>
			<g>
				
					<ellipse transform="matrix(0.3616 -0.9323 0.9323 0.3616 -786.4496 690.9963)" class="st25" cx="111.4" cy="919.8" rx="2" ry="2.1"/>
			</g>
			<g>
				<path class="st26" d="M65.5,847.7c-2-0.1-4.2-0.9-4.2-2.2c0-0.3,0.2-0.6,0.4-0.9c0.7-0.7,2.1-1,3.8-1c2,0.1,4.2,0.9,4.2,2.2
					c0,0.3-0.2,0.6-0.4,0.9c-0.2,0.2-0.5,0.4-0.9,0.5C67.7,847.6,66.7,847.7,65.5,847.7z M62.4,845.2c-0.1,0.1-0.2,0.2-0.2,0.3l0,0
					c0,0.5,1.3,1.3,3.4,1.3c1.6,0.1,2.8-0.3,3.2-0.7c0.1-0.1,0.2-0.2,0.2-0.3c0-0.5-1.3-1.3-3.4-1.3c-1.1,0-2,0.1-2.6,0.4
					C62.7,844.9,62.5,845.1,62.4,845.2z"/>
			</g>
		</g>
	</g>
</g>
<path class="st71" d="M384.7,802.1h90.6c0,0,13.2,109.2-50,109.1C396.3,911.1,370.9,904.9,384.7,802.1z"/>
<path class="st71" d="M601.4,803.9l90.6-3.5c0,0,17.4,108.6-45.7,110.9C617.2,912.4,591.6,907.1,601.4,803.9z"/>
<path class="st71" d="M454.6,1128.5v-87.4h-51.1c-11.6,42.3-47.2,69.1-47.2,69.1v18.3"/>
<path class="st71" d="M613.6,1128.5v-87.4h51.1c11.6,42.3,47.2,69.1,47.2,69.1v18.3"/>
<path class="st8" d="M69.1,824.3c0,0-14.6-19-30.1-3.5s-22.4,35.8-22.4,35.8s-12.9,16.9,3.5,20.9c12.6,3.1,13.6-7.5,21.9-17.4"/>
<path class="st8" d="M35.4,824.5c0,0-11.3-18.7-24.8-2.7S-7,849.5-7,849.5s-9.1,13.7,0,19.9c11,7.4,16.5-2.7,23.6-12.9"/>
<path class="st8" d="M96.7,824.3c0,0-14.6-19-30.1-3.5s-26.4,33-26.4,33S29,867,42.4,874.9c10,6,18.9-5,27.2-14.8"/>
<path class="st8" d="M121.2,827.5c0,0-14.6-19-30.1-3.5s-26.4,33-26.4,33s-7.9,9.8,0.8,17.6c8.7,7.7,20.3-1.4,28.6-11.2"/>
<line class="st71" x1="356.3" y1="968" x2="386" y2="646.5"/>
<line class="st72" x1="61.5" y1="867.4" x2="86.3" y2="827.7"/>
<line class="st72" x1="35.4" y1="867.9" x2="63" y2="827.2"/>
<line class="st72" x1="10.1" y1="867" x2="34.6" y2="827.2"/>
<g>
	<defs>
		<path id="SVGID_30_" d="M495.9,1126.5V594.1c0,0-73.2,19.8-96,42.5c-22.8,22.8-61.3,489.8-61.3,489.8H495.9z"/>
	</defs>
	<clipPath id="SVGID_7_">
		<use xlink:href="#SVGID_30_"  style="overflow:visible;"/>
	</clipPath>
	<path style="clip-path:url(#SVGID_7_);fill:none;stroke:#D89027;stroke-width:4.4541;stroke-miterlimit:10;" d="M497.6,765.9
		c0,0-39.7-110.5-74.6-123.4c0,0,38.7-34.4,72.9-48.3"/>
</g>
<polygon class="st9" points="662.8,1009.6 817.1,1009.6 826.5,1127.8 672.4,1126.5 "/>
<g>
	<defs>
		<path id="SVGID_34_" d="M587.2,1130.4V594.1c0,0,78.2,18.5,101,41.3c22.8,22.8,56.3,491.1,56.3,491.1L587.2,1130.4z"/>
	</defs>
	<clipPath id="SVGID_9_">
		<use xlink:href="#SVGID_34_"  style="overflow:visible;"/>
	</clipPath>
	<path style="clip-path:url(#SVGID_9_);fill:none;stroke:#D89027;stroke-width:4.4541;stroke-miterlimit:10;" d="M585.2,769.1
		c0,0,39.3-106.7,74.2-119.6c0,0-34.2-45-72.2-55.4"/>
</g>
<path class="st57" d="M442.4,467c-8.4,7.6-23.6,2.7-28-7.7c-4.4-10.5,0.9-23.2,10.1-29.8c-18.4,2.2-34.8-16.8-33.5-35.3
	c1.3-18.5,16.7-33.9,34.4-39.3c-9.5-8.9-5.9-25,1.5-35.7c5.8-8.4,13.8-15.6,23.6-18.5c15-4.5,32.7,2.9,40,16.8
	c7.1-23.4,33.8-38.1,58-34c24.1,4.1,43.8,24.6,49.8,48.3c5.1-10.2,18.1-14.5,29.3-12.4s20.6,9.7,28.2,18.2
	c9.4,10.6,16.7,23.7,17.7,37.8c0.9,14.1-5.7,29.3-18.3,35.8c21.3,7.4,37,28.8,37.5,51.4c0.1,6.2-0.8,12.5-3.8,18
	c-3,5.3-7.7,9.4-12.7,12.8c-10.1,6.8-21.8,11.2-33.8,12.8c11.4,13.8,11.7,35,2.1,50.1c-9.6,15.1-27.8,23.7-45.7,23.5
	c-17.9-0.3-35.1-8.9-47.6-21.7"/>
<path class="st79" d="M510,441.6c0,0,9.8-8.8,23,0.7"/>
<path class="st8" d="M584,423.4c3.2,139.1,3.2,206.5,3.2,206.5c-54.7,36.6-87.8,1.5-87.8,1.5c-4.4-37.1-8.4-41.4-20-45
	c-54.6-17.3-33.4-164.6-33.4-164.6s-3.3-32.7,64.4-27.9C510.3,393.7,582.3,398.2,584,423.4z"/>
<path class="st80" d="M490,460.4l-4.5,30.7c0,0-1.8,8.4,8.9,7.6"/>
<g>
	<g>
		<ellipse class="st8" cx="593.4" cy="494.3" rx="23.4" ry="22.4"/>
	</g>
	<path class="st81" d="M596.1,477.2c0,0,14.9,3.5,14.9,18.2"/>
</g>
<path class="st79" d="M452.3,443.8c0,0,9.8-8.8,23,0.7"/>
<path class="st79" d="M518.5,441.6c0,0,9.8-8.8,23,0.7"/>
<circle class="st80" cx="449.6" cy="460.4" r="34.6"/>
<path class="st80" d="M484,463.4c0,0-0.1-2.6,6-3s7.7,2.9,7.7,2.9"/>
<path class="st80" d="M501.9,517.1c0,6.9-4.7,12.5-10.6,12.5c-5.8,0-10.6-5.6-10.6-12.5"/>
<path class="st57" d="M462.9,431.2c11.1-5.1,18.2-17.5,17.8-29.7c-0.7,9.4,1.6,19.4,8.1,26.1c6.6,6.7,18,8.9,25.6,3.4
	c8.9-6.5,9-19.4,8.4-30.3c1.9,20.6,22.1,35.6,42.5,38.8c8.7,1.4,18.3,0.9,25.4-4.4c7.1-5.3,10.2-14.3,12.9-22.7
	c2.2-6.8,4.4-14.1,2.5-21c-1.3-4.7-4.5-8.6-7.7-12.2c-25.5-27.8-64.8-41.4-102-37.6c-28.8,2.9-79.2,23.1-75.1,59.3
	C423.5,421.6,440.3,441.7,462.9,431.2z"/>
<line class="st80" x1="593.4" y1="466.3" x2="566.7" y2="460.4"/>
<path class="st22" d="M449.2,487.2l11.5,0c3.1,0,5.7-2.6,5.7-5.7v0c0-3.1-2.6-5.7-5.7-5.7l-11.5,0c-3.1,0-5.7,2.6-5.7,5.7v0
	C443.5,484.7,446.1,487.2,449.2,487.2z"/>
<path class="st22" d="M542.5,487.2l11.5,0c3.1,0,5.7-2.6,5.7-5.7v0c0-3.1-2.6-5.7-5.7-5.7l-11.5,0c-3.1,0-5.7,2.6-5.7,5.7l0,0
	C536.8,484.7,539.3,487.2,542.5,487.2z"/>
<circle class="st80" cx="532.2" cy="460.4" r="34.6"/>
<path class="st40" d="M474.6,470.3c0,0,1.4-13.5-12.1-14.9c-5.1-0.5-13.4,2.3-13.3,15.8"/>
<path class="st40" d="M542.6,470.3c0,0,1.4-13.5-12.1-14.9c-5.1-0.5-13.4,2.3-13.3,15.8"/>
<g>
	<g>
		<g>
			<g>
				
					<ellipse transform="matrix(0.3616 -0.9323 0.9323 0.3616 -860.4302 544.5219)" class="st24" cx="-32.6" cy="900.6" rx="59.4" ry="62.4"/>
			</g>
			<g>
				
					<ellipse transform="matrix(0.3616 -0.9323 0.9323 0.3616 -810.1312 566.6859)" class="st25" cx="8.7" cy="874.9" rx="2" ry="2.1"/>
			</g>
			<g>
				
					<ellipse transform="matrix(0.3616 -0.9323 0.9323 0.3616 -816.4875 583.8766)" class="st25" cx="18.1" cy="888.1" rx="2" ry="2.1"/>
			</g>
			<g>
				
					<ellipse transform="matrix(0.3616 -0.9323 0.9323 0.3616 -824.7907 570.7375)" class="st25" cx="4.4" cy="887.6" rx="2" ry="2.1"/>
			</g>
			<g>
				
					<ellipse transform="matrix(0.3616 -0.9323 0.9323 0.3616 -830.9146 596.4436)" class="st25" cx="20.1" cy="905" rx="2" ry="2.1"/>
			</g>
			<g>
				
					<ellipse transform="matrix(0.3616 -0.9323 0.9323 0.3616 -840.5005 581.2746)" class="st25" cx="4.2" cy="904.4" rx="2" ry="2.1"/>
			</g>
			<g>
				
					<ellipse transform="matrix(0.3616 -0.9323 0.9323 0.3616 -848.8795 599.8219)" class="st25" cx="13.6" cy="919.8" rx="2" ry="2.1"/>
			</g>
		</g>
		<g>
			<path class="st11" d="M-33,827.8c37.4-28.9,72.2-0.3,72.2-0.3S4.6,858.7-33,827.8z"/>
		</g>
	</g>
</g>
<rect x="-124.8" y="886.9" transform="matrix(-1 -4.492285e-11 4.492285e-11 -1 14.4883 2015.925)" class="st16" width="264" height="242"/>
<path class="st8" d="M141.7,985.5c0,0-37-18.5-58.3-34.1c0,0-23.7-12.2-17.5-25.4c6.9-14.7,28.8-3.5,28.8-3.5s45,21,48.6-11.2"/>
<path class="st9" d="M665.9,612c0,0,19.9,253.1,39.1,413.4l31-8.8c0,0-44.7-302.4-47.5-391.2"/>
<path class="st8" d="M669.2,900.4l76.9-6.2c0,0,18.7-1.6,21.3,13c0,0,3.2,10.2-9.3,12.6c0,0,15.1-3.6,17.8,11.9
	c0,0,2.5,15.2-15.5,17.1c0,0,14-7.5,20.5,9.1c0,0,4,17.5-17,17.3c0,0,11.9-3.5,14.2,12.6c0,0,3.1,16-18.4,17.1l-74.4,0.8
	c0,0-17.4,0.9-19.4-11.3c0,0-2-13,7.8-14.5c0,0-21.7,4.8-21.3-13.5c0,0,0.6-12.8,10.3-13.8c0,0-9.4-0.1-11.4-11.9
	c-1.9-11.8,10.2-15,10.2-15s-8.6-2.4-8-11.9S662.1,901.2,669.2,900.4z"/>
<line class="st72" x1="661.5" y1="925.7" x2="758" y2="919.8"/>
<line class="st72" x1="662.9" y1="952.1" x2="759.7" y2="946.9"/>
<line class="st72" x1="672.3" y1="979.9" x2="758" y2="977"/>
</svg>
