<?xml version="1.0" encoding="utf-8"?>
<!-- Generator: Adobe Illustrator 24.0.1, SVG Export Plug-In . SVG Version: 6.00 Build 0)  -->
<svg version="1.1" id="Capa_1" xmlns="http://www.w3.org/2000/svg" xmlns:xlink="http://www.w3.org/1999/xlink" x="0px" y="0px"
	 viewBox="0 0 703 1126" style="enable-background:new 0 0 703 1126;" xml:space="preserve">
<style type="text/css">
	.st0{fill:#C0DAD8;}
	.st1{fill:#5D9E9B;}
	.st2{fill:#EAA42C;}
	.st3{fill:#FFDEC7;}
	.st4{fill:#FFFFFF;}
	.st5{fill:#FAF3E8;}
	.st6{fill:none;stroke:#333333;stroke-width:2.5;stroke-linecap:round;stroke-miterlimit:10;}
	.st7{fill:#365B56;}
	.st8{fill:none;stroke:#365B56;stroke-width:1.7023;stroke-miterlimit:10;}
	.st9{fill:none;}
	.st10{fill:#FFDC6F;}
	.st11{fill:none;stroke:#333333;stroke-width:1.3658;stroke-linecap:round;stroke-miterlimit:10;}
	.st12{fill:#333333;}
	.st13{fill:none;stroke:#333333;stroke-width:1.4442;stroke-linecap:round;stroke-miterlimit:10;}
	.st14{fill:#AF754E;}
	.st15{fill:#97623E;}
	.st16{fill:#222222;}
	.st17{fill:#FCCDAC;}
	.st18{fill:#467C75;}
	.st19{fill:#EDB24C;}
	.st20{fill:#F1A74A;}
	.st21{fill:#5D9D9A;}
	.st22{fill:#E9A32C;}
	.st23{fill:#D38013;}
	.st24{fill:#6D5235;}
	.st25{fill:#D89027;}
	.st26{fill:#B2D3D0;}
	.st27{fill:#468480;}
	.st28{clip-path:url(#SVGID_3_);}
	.st29{clip-path:url(#SVGID_5_);}
	.st30{fill:#A9C9C5;}
	.st31{fill:#3E6D68;}
	.st32{fill:none;stroke:#D89027;stroke-width:3.777;stroke-miterlimit:10;}
	.st33{fill:#346661;}
	.st34{fill:none;stroke:#D89027;stroke-width:3.0705;stroke-miterlimit:10;}
	.st35{fill:none;stroke:#467C75;stroke-width:4.6233;stroke-miterlimit:10;}
	.st36{fill:none;stroke:#333333;stroke-width:3.3231;stroke-linecap:round;stroke-miterlimit:10;}
	.st37{fill:none;stroke:#222222;stroke-width:9.9692;stroke-linecap:round;stroke-miterlimit:10;}
	.st38{fill:none;stroke:#333333;stroke-width:3.0088;stroke-linecap:round;stroke-miterlimit:10;}
	.st39{fill:none;stroke:#365B56;stroke-width:1.4072;stroke-miterlimit:10;}
	.st40{filter:url(#Adobe_OpacityMaskFilter);}
	.st41{mask:url(#SVGID_6_);fill:#C0DAD8;}
	.st42{fill:#EFA53A;}
	.st43{fill:#B3BDBC;}
	.st44{fill:none;stroke:#E5BE8C;stroke-width:4.3561;stroke-linecap:round;stroke-miterlimit:10;}
	.st45{fill:#E5BE8C;}
	.st46{fill:#9DAAA9;}
	.st47{clip-path:url(#SVGID_14_);}
	.st48{clip-path:url(#SVGID_16_);}
	.st49{fill:none;stroke:#E1A647;stroke-miterlimit:10;}
	.st50{fill:#FFDAC6;}
	.st51{fill:#212121;}
	.st52{fill:none;stroke:#333333;stroke-width:1.676;stroke-linecap:round;stroke-miterlimit:10;}
	.st53{fill:none;stroke:#468480;stroke-width:2.1459;stroke-linecap:round;stroke-linejoin:round;stroke-miterlimit:10;}
	.st54{clip-path:url(#SVGID_18_);}
	.st55{fill:none;stroke:#333333;stroke-width:1.2684;stroke-linecap:round;stroke-miterlimit:10;}
	.st56{fill:none;stroke:#333333;stroke-width:1.1484;stroke-linecap:round;stroke-miterlimit:10;}
	.st57{fill:none;stroke:#333333;stroke-width:1.4293;stroke-linecap:round;stroke-miterlimit:10;}
	.st58{fill:none;stroke:#212121;stroke-width:4.2878;stroke-linecap:round;stroke-miterlimit:10;}
	.st59{fill:none;stroke:#468480;stroke-width:1.83;stroke-linecap:round;stroke-linejoin:round;stroke-miterlimit:10;}
	.st60{fill:none;stroke:#333333;stroke-width:1.3816;stroke-linecap:round;stroke-miterlimit:10;}
	.st61{fill:none;stroke:#468480;stroke-width:2.2019;stroke-linecap:round;stroke-linejoin:round;stroke-miterlimit:10;}
	.st62{clip-path:url(#SVGID_20_);}
	.st63{fill:none;stroke:#333333;stroke-width:1.6231;stroke-linecap:round;stroke-miterlimit:10;}
	.st64{fill:none;stroke:#FFFFFF;stroke-width:1.4293;stroke-linecap:round;stroke-miterlimit:10;}
	.st65{clip-path:url(#SVGID_22_);fill:#5D9E9B;}
	.st66{fill:none;stroke:#333333;stroke-width:2;stroke-linecap:round;stroke-miterlimit:10;}
	.st67{fill:none;stroke:#D89027;stroke-width:4.4541;stroke-miterlimit:10;}
	.st68{fill:none;stroke:#333333;stroke-width:2.3147;stroke-linecap:round;stroke-miterlimit:10;}
	.st69{clip-path:url(#SVGID_24_);fill:none;stroke:#D89027;stroke-width:4.4541;stroke-miterlimit:10;}
	.st70{clip-path:url(#SVGID_26_);}
	.st71{clip-path:url(#SVGID_28_);fill:#5D9E9B;}
	.st72{fill:none;stroke:#333333;stroke-width:2.8529;stroke-linecap:round;stroke-linejoin:round;stroke-miterlimit:10;}
	.st73{fill:none;stroke:#FFFFFF;stroke-width:2;stroke-miterlimit:10;}
	.st74{clip-path:url(#SVGID_30_);fill:#346661;}
	.st75{clip-path:url(#SVGID_30_);fill:#5D9E9B;}
	.st76{fill:none;stroke:#D89027;stroke-width:7;stroke-linecap:round;stroke-miterlimit:10;}
	.st77{clip-path:url(#SVGID_32_);fill:none;stroke:#D89027;stroke-width:4.4541;stroke-miterlimit:10;}
	.st78{fill:none;stroke:#222222;stroke-width:8.5586;stroke-linecap:round;stroke-miterlimit:10;}
	.st79{fill:none;stroke:#333333;stroke-width:2.8529;stroke-linecap:round;stroke-miterlimit:10;}
	.st80{fill:none;stroke:#333333;stroke-width:2.5831;stroke-linecap:round;stroke-miterlimit:10;}
	.st81{fill:#728482;}
	.st82{clip-path:url(#SVGID_34_);}
	.st83{fill:#637572;}
	.st84{fill:none;stroke:#333333;stroke-width:1.7625;stroke-linecap:round;stroke-miterlimit:10;}
	.st85{fill:none;stroke:#728482;stroke-width:1.7625;stroke-linecap:round;stroke-miterlimit:10;}
	.st86{clip-path:url(#SVGID_36_);}
	.st87{fill:none;stroke:#637572;stroke-width:1.7625;stroke-linecap:round;stroke-miterlimit:10;}
	.st88{fill:none;stroke:#333333;stroke-width:1.5682;stroke-linecap:round;stroke-miterlimit:10;}
	.st89{fill:none;stroke:#365B56;stroke-width:0.9491;stroke-miterlimit:10;}
	.st90{fill:none;stroke:#333333;stroke-width:1.6284;stroke-linecap:round;stroke-miterlimit:10;}
	.st91{fill:none;stroke:#468480;stroke-width:1.541;stroke-linecap:round;stroke-linejoin:round;stroke-miterlimit:10;}
	.st92{fill:none;stroke:#468480;stroke-width:1.4907;stroke-linecap:round;stroke-linejoin:round;stroke-miterlimit:10;}
	.st93{fill:none;stroke:#5D9E9B;stroke-width:3;stroke-miterlimit:10;}
</style>
<g>
	<path class="st2" d="M625.3,604.6c0,0,247,42,273.9,523.9c0,0-122.9-1.1-206.4-2.5L625.3,604.6z"/>
</g>
<g>
	<path class="st2" d="M587.2,1126.5V594.1c0,0,78.2,18.5,101,41.3c22.8,22.8,56.3,491.1,56.3,491.1H587.2z"/>
</g>
<g>
	<rect x="-0.2" y="-1.9" class="st0" width="703.5" height="1129.7"/>
</g>
<g>
	<path class="st2" d="M411.2,628L356.3,968c-74.8,107.3-238.4,61.1-238.4,61.1L133.7,879c106.8-6.9,159.4-42.9,192.5-107.6
		C343.2,738.4,352.6,655.8,411.2,628"/>
</g>
<g>
	<path class="st3" d="M116.9,823.9c0,0,27,27.7,51.6,59c0,0,16.1,121.9-62,127.8l-78.9-82"/>
</g>
<g>
	<path class="st1" d="M703.2,1127.9v-99.6c-32.8,1.6-65.1,2.3-96.4,1.7c-218.1-4.3-395.3,79.2-432.3,98H703.2z"/>
</g>
<g>
	<g>
		<path class="st4" d="M612,606.6c-131.7-19-193.5,25.1-193.5,25.1c-34.6,223.5-62.1,478.5-62.1,478.5s129,26.5,366.1,15.8
			C722.3,1126,691,832.9,612,606.6"/>
	</g>
</g>
<g>
	<path class="st2" d="M495.9,1126.5V594.1c0,0-73.2,19.8-96,42.5c-22.8,22.8-61.3,489.8-61.3,489.8H495.9z"/>
</g>
<g>
	<path class="st12" d="M69.8,789.3c-0.5,0-0.9-0.4-1-0.9l-6.9-60c-0.1-0.5,0.3-1,0.9-1.1c0.5-0.1,1,0.3,1.1,0.9l6.9,60
		c0.1,0.5-0.3,1-0.9,1.1C69.9,789.3,69.9,789.3,69.8,789.3z"/>
</g>
<g>
	<path class="st12" d="M130.8,805.6c-0.2,0-0.4-0.1-0.6-0.2c-0.4-0.3-0.5-1-0.1-1.4l37.9-47c0.3-0.4,1-0.5,1.4-0.2
		c0.4,0.3,0.5,1,0.1,1.4l-37.9,47C131.4,805.4,131.1,805.6,130.8,805.6z"/>
</g>
<g>
	<path class="st12" d="M102.9,792.6c-0.1,0-0.2,0-0.3,0c-0.5-0.1-0.8-0.7-0.7-1.2l23.4-86.3c0.1-0.5,0.7-0.8,1.2-0.7
		c0.5,0.1,0.8,0.7,0.7,1.2l-23.4,86.3C103.7,792.3,103.3,792.6,102.9,792.6z"/>
</g>
<g>
	<g>
		<g>
			<g>
				<g>
					
						<ellipse transform="matrix(0.3616 -0.9323 0.9323 0.3616 -798.0004 635.6962)" class="st22" cx="65.2" cy="900.6" rx="59.4" ry="62.4"/>
				</g>
			</g>
			<g>
				<g>
					
						<ellipse transform="matrix(0.3616 -0.9323 0.9323 0.3616 -747.7014 657.8602)" class="st23" cx="106.5" cy="874.9" rx="2" ry="2.1"/>
				</g>
			</g>
			<g>
				<g>
					
						<ellipse transform="matrix(0.3616 -0.9323 0.9323 0.3616 -754.0577 675.0509)" class="st23" cx="115.9" cy="888.1" rx="2" ry="2.1"/>
				</g>
			</g>
			<g>
				<g>
					
						<ellipse transform="matrix(0.3616 -0.9323 0.9323 0.3616 -762.3608 661.9119)" class="st23" cx="102.2" cy="887.6" rx="2" ry="2.1"/>
				</g>
			</g>
			<g>
				<g>
					
						<ellipse transform="matrix(0.3616 -0.9323 0.9323 0.3616 -757.2303 642.7817)" class="st23" cx="90.8" cy="874.3" rx="2" ry="2.1"/>
				</g>
			</g>
			<g>
				<g>
					
						<ellipse transform="matrix(0.3616 -0.9323 0.9323 0.3616 -771.0442 648.1714)" class="st23" cx="87.8" cy="887.1" rx="2" ry="2.1"/>
				</g>
			</g>
			<g>
				<g>
					
						<ellipse transform="matrix(0.3616 -0.9323 0.9323 0.3616 -768.4847 687.618)" class="st23" cx="117.9" cy="905" rx="2" ry="2.1"/>
				</g>
			</g>
			<g>
				<g>
					
						<ellipse transform="matrix(0.3616 -0.9323 0.9323 0.3616 -778.0707 672.449)" class="st23" cx="102" cy="904.4" rx="2" ry="2.1"/>
				</g>
			</g>
			<g>
				<g>
					
						<ellipse transform="matrix(0.3616 -0.9323 0.9323 0.3616 -786.4496 690.9963)" class="st23" cx="111.4" cy="919.8" rx="2" ry="2.1"/>
				</g>
			</g>
			<g>
				<g>
					<path class="st24" d="M65.5,847.7c-2-0.1-4.2-0.9-4.2-2.2c0-0.3,0.2-0.6,0.4-0.9c0.7-0.7,2.1-1,3.8-1c2,0.1,4.2,0.9,4.2,2.2
						c0,0.3-0.2,0.6-0.4,0.9c-0.2,0.2-0.5,0.4-0.9,0.5C67.7,847.6,66.7,847.7,65.5,847.7z M62.4,845.2c-0.1,0.1-0.2,0.2-0.2,0.3l0,0
						c0,0.5,1.3,1.3,3.4,1.3c1.6,0.1,2.8-0.3,3.2-0.7c0.1-0.1,0.2-0.2,0.2-0.3c0-0.5-1.3-1.3-3.4-1.3c-1.1,0-2,0.1-2.6,0.4
						C62.7,844.9,62.5,845.1,62.4,845.2z"/>
				</g>
			</g>
		</g>
	</g>
</g>
<g>
	<g>
		<g>
			<g>
				<g>
					
						<ellipse transform="matrix(0.3616 -0.9323 0.9323 0.3616 -860.4302 544.5219)" class="st22" cx="-32.6" cy="900.6" rx="59.4" ry="62.4"/>
				</g>
			</g>
			<g>
				<g>
					
						<ellipse transform="matrix(0.3616 -0.9323 0.9323 0.3616 -810.1312 566.6859)" class="st23" cx="8.7" cy="874.9" rx="2" ry="2.1"/>
				</g>
			</g>
			<g>
				<g>
					
						<ellipse transform="matrix(0.3616 -0.9323 0.9323 0.3616 -816.4875 583.8766)" class="st23" cx="18.1" cy="888.1" rx="2" ry="2.1"/>
				</g>
			</g>
			<g>
				<g>
					
						<ellipse transform="matrix(0.3616 -0.9323 0.9323 0.3616 -824.7907 570.7375)" class="st23" cx="4.4" cy="887.6" rx="2" ry="2.1"/>
				</g>
			</g>
			<g>
				<g>
					
						<ellipse transform="matrix(0.3616 -0.9323 0.9323 0.3616 -830.9146 596.4436)" class="st23" cx="20.1" cy="905" rx="2" ry="2.1"/>
				</g>
			</g>
			<g>
				<g>
					
						<ellipse transform="matrix(0.3616 -0.9323 0.9323 0.3616 -840.5005 581.2746)" class="st23" cx="4.2" cy="904.4" rx="2" ry="2.1"/>
				</g>
			</g>
			<g>
				<g>
					
						<ellipse transform="matrix(0.3616 -0.9323 0.9323 0.3616 -848.8795 599.8219)" class="st23" cx="13.6" cy="919.8" rx="2" ry="2.1"/>
				</g>
			</g>
		</g>
		<g>
			<g>
				<path class="st7" d="M-33,827.8c37.4-28.9,72.2-0.3,72.2-0.3S4.6,858.7-33,827.8z"/>
			</g>
		</g>
	</g>
</g>
<g>
	
		<rect x="-124.8" y="886.9" transform="matrix(-1 -4.490198e-11 4.490198e-11 -1 14.4883 2015.925)" class="st14" width="264" height="242"/>
</g>
<g>
	<path class="st2" d="M625.3,604.6c0,0,247,42,273.9,523.9c0,0-122.9-1.1-206.4-2.5L625.3,604.6z"/>
</g>
<g>
	<path class="st2" d="M587.2,1126.5V594.1c0,0,78.2,18.5,101,41.3c22.8,22.8,56.3,491.1,56.3,491.1H587.2z"/>
</g>
<g>
	<path class="st25" d="M425.5,913.4C425.4,913.4,425.4,913.4,425.5,913.4c-11.9,0-25.2-0.9-34.4-11.5c-13-14.9-15.7-46.7-8.5-100.1
		l0.3-1.9h94.6l0.2,2c0,0.2,2,16.9,0.7,37c-1.7,27.2-8.3,47.4-19.4,60C450.3,908.5,439.1,913.4,425.5,913.4z M386.7,804.3
		c-6.6,50.2-4.1,81.2,7.7,94.7c7.2,8.3,17.2,9.9,31,9.9c0,0,0.1,0,0.1,0c12.3,0,22.4-4.4,30.1-13.1c22.6-25.5,18.8-80.5,17.8-91.5
		H386.7z"/>
</g>
<g>
	<path class="st25" d="M639.2,913.4C639.2,913.4,639.2,913.4,639.2,913.4c-11.9,0-25.2-0.9-34.4-11.5c-13-14.9-15.7-46.7-8.5-100.1
		l0.3-1.9h94.6l0.2,2c0,0.2,2,16.9,0.7,37c-1.7,27.2-8.3,47.4-19.4,60C664.1,908.5,652.8,913.4,639.2,913.4z M600.5,804.3
		c-6.6,50.2-4.1,81.2,7.7,94.7c7.2,8.3,17.2,9.9,31,9.9c0,0,0.1,0,0.1,0c12.3,0,22.4-4.4,30.1-13.1c22.6-25.5,18.8-80.5,17.8-91.5
		H600.5z"/>
</g>
<g>
	<path class="st25" d="M456.8,1128.5h-4.5v-85.2h-47.2c-11.2,38.4-41,63.5-46.7,67.9v17.3H354V1109l0.9-0.7
		c0.4-0.3,35.2-26.9,46.4-67.9l0.4-1.6h55.1V1128.5z"/>
</g>
<g>
	<path class="st25" d="M695.2,1128.5h-4.5v-17.3c-5.7-4.5-35.5-29.6-46.7-67.9h-47.2v85.2h-4.5v-89.7h55.1l0.4,1.6
		c11.2,41,46.1,67.6,46.4,67.9l0.9,0.7L695.2,1128.5z"/>
</g>
<g>
	<path class="st5" d="M665.9,612c0,0,19.9,253.1,39.1,413.4l31-8.8c0,0-46.3-315.7-49.1-404.5"/>
</g>
<g>
	<path class="st3" d="M69.1,824.3c0,0-14.6-19-30.1-3.5s-22.4,35.8-22.4,35.8s-12.9,16.9,3.5,20.9c12.6,3.1,13.6-7.5,21.9-17.4"/>
</g>
<g>
	<path class="st3" d="M35.4,824.5c0,0-11.3-18.7-24.8-2.7S-7,849.5-7,849.5s-9.1,13.7,0,19.9c11,7.4,16.5-2.7,23.6-12.9"/>
</g>
<g>
	<path class="st3" d="M96.7,824.3c0,0-14.6-19-30.1-3.5s-26.4,33-26.4,33S29,867,42.4,874.9c10,6,18.9-5,27.2-14.8"/>
</g>
<g>
	<path class="st3" d="M121.2,827.5c0,0-14.6-19-30.1-3.5s-26.4,33-26.4,33s-7.9,9.8,0.8,17.6c8.7,7.7,20.3-1.4,28.6-11.2"/>
</g>
<g>
	<g>
		<g>
			<g>
				<g>
					
						<ellipse transform="matrix(0.3616 -0.9323 0.9323 0.3616 -860.4302 544.5219)" class="st22" cx="-32.6" cy="900.6" rx="59.4" ry="62.4"/>
				</g>
			</g>
			<g>
				<g>
					
						<ellipse transform="matrix(0.3616 -0.9323 0.9323 0.3616 -810.1312 566.6859)" class="st23" cx="8.7" cy="874.9" rx="2" ry="2.1"/>
				</g>
			</g>
			<g>
				<g>
					
						<ellipse transform="matrix(0.3616 -0.9323 0.9323 0.3616 -816.4875 583.8766)" class="st23" cx="18.1" cy="888.1" rx="2" ry="2.1"/>
				</g>
			</g>
			<g>
				<g>
					
						<ellipse transform="matrix(0.3616 -0.9323 0.9323 0.3616 -824.7907 570.7375)" class="st23" cx="4.4" cy="887.6" rx="2" ry="2.1"/>
				</g>
			</g>
			<g>
				<g>
					
						<ellipse transform="matrix(0.3616 -0.9323 0.9323 0.3616 -830.9146 596.4436)" class="st23" cx="20.1" cy="905" rx="2" ry="2.1"/>
				</g>
			</g>
			<g>
				<g>
					
						<ellipse transform="matrix(0.3616 -0.9323 0.9323 0.3616 -840.5005 581.2746)" class="st23" cx="4.2" cy="904.4" rx="2" ry="2.1"/>
				</g>
			</g>
			<g>
				<g>
					
						<ellipse transform="matrix(0.3616 -0.9323 0.9323 0.3616 -848.8795 599.8219)" class="st23" cx="13.6" cy="919.8" rx="2" ry="2.1"/>
				</g>
			</g>
		</g>
		<g>
			<g>
				<path class="st7" d="M-33,827.8c37.4-28.9,72.2-0.3,72.2-0.3S4.6,858.7-33,827.8z"/>
			</g>
		</g>
	</g>
</g>
<g>
	
		<rect x="-124.8" y="886.9" transform="matrix(-1 -4.490198e-11 4.490198e-11 -1 14.4883 2015.925)" class="st14" width="264" height="242"/>
</g>
<g>
	
		<rect x="209.7" y="805" transform="matrix(9.208750e-02 -0.9958 0.9958 9.208750e-02 -466.8924 1102.4761)" class="st25" width="322.9" height="4.5"/>
</g>
<g>
	<path class="st12" d="M61.5,868.6c-0.2,0-0.4-0.1-0.6-0.2c-0.5-0.3-0.7-1.1-0.4-1.6l24.8-39.7c0.3-0.5,1.1-0.7,1.6-0.4
		c0.5,0.3,0.7,1.1,0.4,1.6L62.5,868C62.3,868.4,61.9,868.6,61.5,868.6z"/>
</g>
<g>
	<path class="st12" d="M35.4,869.1c-0.2,0-0.4-0.1-0.6-0.2c-0.5-0.4-0.7-1.1-0.3-1.6L62,826.6c0.4-0.5,1.1-0.7,1.6-0.3
		c0.5,0.4,0.7,1.1,0.3,1.6l-27.6,40.7C36.1,868.9,35.8,869.1,35.4,869.1z"/>
</g>
<g>
	<path class="st12" d="M10.1,868.1c-0.2,0-0.4-0.1-0.6-0.2c-0.5-0.3-0.7-1-0.4-1.6l24.5-39.8c0.3-0.5,1-0.7,1.6-0.4
		c0.5,0.3,0.7,1,0.4,1.6l-24.5,39.8C10.9,867.9,10.5,868.1,10.1,868.1z"/>
</g>
<g>
	<path class="st3" d="M669.2,900.4l76.9-6.2c0,0,19,2,21.3,13c0,0,1.3,12.7-11.2,15.1c0,0,17-6.1,19.6,9.5c0,0,2.5,15.2-15.5,17.1
		c0,0,13.1-10.1,19.7,6.5c0,0,7.6,15.9-16.2,19.9c0,0,14.7-3.6,17.1,12.4c0,0,4.6,15.1-19.2,21.9l-76.5-3.9c0,0-17.4,0.9-19.4-11.3
		c0,0-2-10.2,7.8-11.6c0,0-21.7,1.9-21.3-16.4c0,0,0.6-12.8,10.3-13.8c0,0-9.4-0.1-11.4-11.9c-1.9-11.8,10.2-15,10.2-15
		s-8.6-2.4-8-11.9S662.1,901.2,669.2,900.4z"/>
</g>
<g>
	<path class="st3" d="M141.7,985.5c0,0-37-18.5-58.3-34.1c0,0-23.7-12.2-17.5-25.4c6.9-14.7,28.8-3.5,28.8-3.5s45,21,48.6-11.2"/>
</g>
<g>
	<path class="st12" d="M665.9,928.1c-0.6,0-1.1-0.5-1.2-1.1c0-0.6,0.4-1.2,1.1-1.2l92.2-7.2c0.6,0,1.2,0.4,1.2,1.1
		c0,0.6-0.4,1.2-1.1,1.2L665.9,928.1C665.9,928.1,665.9,928.1,665.9,928.1z"/>
</g>
<g>
	<path class="st12" d="M662.9,953.3c-0.6,0-1.1-0.5-1.2-1.1c0-0.6,0.5-1.2,1.1-1.2l96.8-5.2c0.6,0,1.2,0.5,1.2,1.1s-0.5,1.2-1.1,1.2
		L662.9,953.3C663,953.3,662.9,953.3,662.9,953.3z"/>
</g>
<g>
	<path class="st12" d="M673.6,983.9c-0.6,0-1.1-0.5-1.2-1.1c0-0.6,0.4-1.2,1.1-1.2l84.4-5.7c0.6,0,1.2,0.4,1.2,1.1
		c0,0.6-0.4,1.2-1.1,1.2L673.6,983.9C673.7,983.9,673.7,983.9,673.6,983.9z"/>
</g>
<g>
	<defs>
		<path id="SVGID_13_" d="M495.9,1126.5V594.1c0,0-73.2,19.8-96,42.5c-22.8,22.8-61.3,489.8-61.3,489.8H495.9z"/>
	</defs>
	<clipPath id="SVGID_3_">
		<use xlink:href="#SVGID_13_"  style="overflow:visible;"/>
	</clipPath>
	<g class="st28">
		<path class="st25" d="M495.5,766.6c-0.1-0.3-10.1-27.9-24.1-56.7c-18.4-37.7-35.4-60.3-49.1-65.4l-3.5-1.3l2.8-2.5
			c0.4-0.3,39.4-34.8,73.5-48.7l1.7,4.1c-28.4,11.6-60.4,37.8-69.6,45.7c14.2,7.5,30.5,29.7,48.3,66.2c14.2,29,24.2,56.8,24.3,57.1
			L495.5,766.6z"/>
	</g>
</g>
<g>
	<defs>
		<path id="SVGID_15_" d="M587.2,1126.5V594.1c0,0,78.2,18.5,101,41.3c22.8,22.8,56.3,491.1,56.3,491.1H587.2z"/>
	</defs>
	<clipPath id="SVGID_5_">
		<use xlink:href="#SVGID_15_"  style="overflow:visible;"/>
	</clipPath>
	<g class="st29">
		<path class="st25" d="M587.3,769.9l-4.2-1.5c1.6-4.3,38.1-102.5,72.8-119.7c-7.4-9.1-37.2-43.6-69.2-52.4l1.2-4.3
			c16.1,4.4,33.4,15.3,51.3,32.2c13.3,12.5,21.7,23.6,22.1,24.1l1.8,2.4l-2.8,1C626.6,664,587.7,768.8,587.3,769.9z"/>
	</g>
</g>
<g>
	<path class="st51" d="M442.4,467c-8.4,7.6-23.6,2.7-28-7.7c-4.4-10.5,0.9-23.2,10.1-29.8c-18.4,2.2-34.8-16.8-33.5-35.3
		c1.3-18.5,16.7-33.9,34.4-39.3c-9.5-8.9-5.9-25,1.5-35.7c5.8-8.4,13.8-15.6,23.6-18.5c15-4.5,32.7,2.9,40,16.8
		c7.1-23.4,33.8-38.1,58-34c24.1,4.1,43.8,24.6,49.8,48.3c5.1-10.2,18.1-14.5,29.3-12.4s20.6,9.7,28.2,18.2
		c9.4,10.6,16.7,23.7,17.7,37.8c0.9,14.1-5.7,29.3-18.3,35.8c21.3,7.4,37,28.8,37.5,51.4c0.1,6.2-0.8,12.5-3.8,18
		c-3,5.3-7.7,9.4-12.7,12.8c-10.1,6.8-21.8,11.2-33.8,12.8c11.4,13.8,11.7,35,2.1,50.1c-9.6,15.1-27.8,23.7-45.7,23.5
		c-17.9-0.3-35.1-8.9-47.6-21.7"/>
</g>
<g>
	<path class="st16" d="M533,446.6c-0.9,0-1.7-0.3-2.5-0.8c-10.3-7.4-17.4-1.2-17.7-1c-1.8,1.6-4.5,1.4-6-0.3c-1.6-1.8-1.4-4.5,0.3-6
		c4.3-3.9,15.7-8.7,28.4,0.4c1.9,1.4,2.4,4.1,1,6C535.7,445.9,534.4,446.6,533,446.6z"/>
</g>
<g>
	<path class="st3" d="M584,423.4c3.2,139.1,3.2,206.5,3.2,206.5c-54.7,36.6-87.8,1.5-87.8,1.5c-4.4-37.1-8.4-41.4-20-45
		c-54.6-17.3-33.4-164.6-33.4-164.6s-3.3-32.7,64.4-27.9C510.3,393.7,582.3,398.2,584,423.4z"/>
</g>
<g>
	<path class="st12" d="M493,500.2c-3.3,0-5.7-0.9-7.3-2.7c-2.4-2.8-1.7-6.5-1.6-6.7l4.5-30.6c0.1-0.8,0.8-1.3,1.6-1.2
		c0.8,0.1,1.3,0.8,1.2,1.6l-4.5,30.7c0,0.1-0.5,2.6,1,4.3c1.2,1.3,3.3,1.9,6.4,1.7c0.8,0,1.5,0.5,1.5,1.3c0.1,0.8-0.5,1.5-1.3,1.5
		C494,500.2,493.5,500.2,493,500.2z"/>
</g>
<g>
	<g>
		<g>
			<ellipse class="st3" cx="593.4" cy="494.3" rx="23.4" ry="22.4"/>
		</g>
	</g>
	<g>
		<path class="st12" d="M611,496.7c-0.7,0-1.3-0.6-1.3-1.3c0-13.6-13.7-16.9-13.9-17c-0.7-0.2-1.1-0.9-1-1.6c0.2-0.7,0.9-1.1,1.6-1
			c0.2,0,15.9,3.9,15.9,19.5C612.2,496.2,611.7,496.7,611,496.7z"/>
	</g>
</g>
<g>
	<path class="st16" d="M475.4,448.8c-0.9,0-1.7-0.3-2.5-0.8c-10-7.1-17-1.6-17.7-0.9c-1.8,1.5-4.5,1.4-6-0.4c-1.6-1.8-1.4-4.4,0.3-6
		c4.3-3.9,15.7-8.7,28.4,0.4c1.9,1.4,2.4,4.1,1,6C478,448.1,476.7,448.8,475.4,448.8z"/>
</g>
<g>
	<path class="st16" d="M541.5,446.6c-0.9,0-1.7-0.3-2.5-0.8c-10.3-7.4-17.4-1.2-17.7-1c-1.8,1.6-4.5,1.4-6-0.3
		c-1.6-1.8-1.4-4.5,0.3-6c4.3-3.9,15.7-8.7,28.4,0.4c1.9,1.4,2.4,4.1,1,6C544.2,445.9,542.8,446.6,541.5,446.6z"/>
</g>
<g>
	<path class="st12" d="M449.6,496.4c-19.9,0-36-16.2-36-36s16.2-36,36-36s36,16.2,36,36S469.4,496.4,449.6,496.4z M449.6,427.2
		c-18.3,0-33.2,14.9-33.2,33.2s14.9,33.2,33.2,33.2c18.3,0,33.2-14.9,33.2-33.2S467.8,427.2,449.6,427.2z"/>
</g>
<g>
	<path class="st12" d="M484,464.8c-0.8,0-1.4-0.6-1.4-1.4c0-0.4,0.1-4,7.3-4.5c6.9-0.4,9,3.5,9.1,3.7c0.4,0.7,0.1,1.6-0.6,1.9
		c-0.7,0.4-1.6,0.1-1.9-0.6c0-0.1-1.4-2.4-6.4-2.1c-3.5,0.2-4.5,1.2-4.6,1.6C485.4,464.2,484.8,464.8,484,464.8
		C484,464.8,484,464.8,484,464.8z M485.4,463.5L485.4,463.5L485.4,463.5z M485.4,463.4C485.4,463.4,485.4,463.4,485.4,463.4
		C485.4,463.4,485.4,463.4,485.4,463.4z M485.4,463.4C485.4,463.4,485.4,463.4,485.4,463.4C485.4,463.4,485.4,463.4,485.4,463.4z"/>
</g>
<g>
	<path class="st12" d="M491.3,531.1c-6.6,0-12-6.2-12-13.9c0-0.8,0.6-1.4,1.4-1.4s1.4,0.6,1.4,1.4c0,6.1,4.1,11.1,9.1,11.1
		s9.1-5,9.1-11.1c0-0.8,0.6-1.4,1.4-1.4s1.4,0.6,1.4,1.4C503.3,524.8,498,531.1,491.3,531.1z"/>
</g>
<g>
	<path class="st51" d="M462.9,431.2c11.1-5.1,18.2-17.5,17.8-29.7c-0.7,9.4,1.6,19.4,8.1,26.1c6.6,6.7,18,8.9,25.6,3.4
		c8.9-6.5,9-19.4,8.4-30.3c1.9,20.6,22.1,35.6,42.5,38.8c8.7,1.4,18.3,0.9,25.4-4.4c7.1-5.3,10.2-14.3,12.9-22.7
		c2.2-6.8,4.4-14.1,2.5-21c-1.3-4.7-4.5-8.6-7.7-12.2c-25.5-27.8-64.8-41.4-102-37.6c-28.8,2.9-79.2,23.1-75.1,59.3
		C423.5,421.6,440.3,441.7,462.9,431.2z"/>
</g>
<g>
	<path class="st12" d="M593.4,467.7c-0.1,0-0.2,0-0.3,0l-26.6-5.9c-0.8-0.2-1.3-0.9-1.1-1.7s0.9-1.3,1.7-1.1l26.6,5.9
		c0.8,0.2,1.3,0.9,1.1,1.7C594.6,467.2,594,467.7,593.4,467.7z"/>
</g>
<g>
	<path class="st20" d="M449.2,487.2l11.5,0c3.1,0,5.7-2.6,5.7-5.7v0c0-3.1-2.6-5.7-5.7-5.7l-11.5,0c-3.1,0-5.7,2.6-5.7,5.7v0
		C443.5,484.7,446.1,487.2,449.2,487.2z"/>
</g>
<g>
	<path class="st20" d="M542.5,487.2l11.5,0c3.1,0,5.7-2.6,5.7-5.7v0c0-3.1-2.6-5.7-5.7-5.7l-11.5,0c-3.1,0-5.7,2.6-5.7,5.7l0,0
		C536.8,484.7,539.3,487.2,542.5,487.2z"/>
</g>
<g>
	<path class="st12" d="M532.2,496.4c-19.9,0-36-16.2-36-36s16.2-36,36-36s36,16.2,36,36S552,496.4,532.2,496.4z M532.2,427.2
		c-18.3,0-33.2,14.9-33.2,33.2s14.9,33.2,33.2,33.2s33.2-14.9,33.2-33.2S550.4,427.2,532.2,427.2z"/>
</g>
<g>
	<path class="st12" d="M449.1,472.7c-0.8,0-1.5-0.7-1.5-1.5c0-6.3,1.7-11,5-14.1c3.8-3.4,8.2-3.4,10-3.2c4.4,0.5,7.8,2.1,10.2,5
		c3.9,4.8,3.3,11.2,3.3,11.5c-0.1,0.8-0.8,1.4-1.7,1.3c-0.8-0.1-1.4-0.8-1.3-1.7l0,0c0-0.5,1.1-12-10.7-13.2
		c-1.3-0.1-4.8-0.2-7.6,2.4c-2.7,2.4-4,6.4-4,11.8C450.7,472.1,450,472.7,449.1,472.7C449.2,472.7,449.2,472.7,449.1,472.7z"/>
</g>
<g>
	<path class="st12" d="M517.2,472.7c-0.8,0-1.5-0.7-1.5-1.5c0-6.3,1.7-11,5-14.1c3.8-3.4,8.2-3.4,10-3.2c4.4,0.5,7.8,2.1,10.2,5
		c3.9,4.8,3.3,11.2,3.3,11.5c-0.1,0.8-0.8,1.4-1.7,1.3c-0.8-0.1-1.4-0.8-1.3-1.7l0,0c0-0.5,1.1-12-10.7-13.2
		c-1.3-0.1-4.8-0.2-7.6,2.4c-2.7,2.4-4,6.4-4,11.8C518.7,472.1,518,472.7,517.2,472.7C517.2,472.7,517.2,472.7,517.2,472.7z"/>
</g>
<g>
	<path class="st3" d="M669.2,900.4l76.9-6.2c0,0,19,2,21.3,13c0,0,1.3,12.7-11.2,15.1c0,0,17-6.1,19.6,9.5c0,0,2.5,15.2-15.5,17.1
		c0,0,13.1-10.1,19.7,6.5c0,0,7.6,15.9-16.2,19.9c0,0,14.7-3.6,17.1,12.4c0,0,4.6,15.1-19.2,21.9l-76.5-3.9c0,0-17.4,0.9-19.4-11.3
		c0,0-2-10.2,7.8-11.6c0,0-21.7,1.9-21.3-16.4c0,0,0.6-12.8,10.3-13.8c0,0-9.4-0.1-11.4-11.9c-1.9-11.8,10.2-15,10.2-15
		s-8.6-2.4-8-11.9S662.1,901.2,669.2,900.4z"/>
</g>
<g>
	<path class="st12" d="M665.9,928.1c-0.6,0-1.1-0.5-1.2-1.1c0-0.6,0.4-1.2,1.1-1.2l92.2-7.2c0.6,0,1.2,0.4,1.2,1.1
		c0,0.6-0.4,1.2-1.1,1.2L665.9,928.1C665.9,928.1,665.9,928.1,665.9,928.1z"/>
</g>
<g>
	<path class="st12" d="M662.9,953.3c-0.6,0-1.1-0.5-1.2-1.1c0-0.6,0.5-1.2,1.1-1.2l96.8-5.2c0.6,0,1.2,0.5,1.2,1.1s-0.5,1.2-1.1,1.2
		L662.9,953.3C663,953.3,662.9,953.3,662.9,953.3z"/>
</g>
<g>
	<path class="st12" d="M673.6,983.9c-0.6,0-1.1-0.5-1.2-1.1c0-0.6,0.4-1.2,1.1-1.2l84.4-5.7c0.6,0,1.2,0.4,1.2,1.1
		c0,0.6-0.4,1.2-1.1,1.2L673.6,983.9C673.7,983.9,673.7,983.9,673.6,983.9z"/>
</g>
<g>
	<defs>
		<path id="SVGID_25_" d="M587.2,1126.5V594.1c0,0,78.2,18.5,101,41.3c22.8,22.8,56.3,491.1,56.3,491.1H587.2z"/>
	</defs>
	<clipPath id="SVGID_6_">
		<use xlink:href="#SVGID_25_"  style="overflow:visible;"/>
	</clipPath>
	<g style="clip-path:url(#SVGID_6_);">
		<path class="st25" d="M587.3,769.9l-4.2-1.5c1.6-4.3,38.1-102.5,72.8-119.7c-7.4-9.1-37.2-43.6-69.2-52.4l1.2-4.3
			c16.1,4.4,33.4,15.3,51.3,32.2c13.3,12.5,21.7,23.6,22.1,24.1l1.8,2.4l-2.8,1C626.6,664,587.7,768.8,587.3,769.9z"/>
	</g>
</g>
<rect x="-1108.3" y="-1755.9" class="st93" width="4282.2" height="5728.2"/>
</svg>
