<?xml version="1.0" encoding="utf-8"?>
<!-- Generator: Adobe Illustrator 24.0.1, SVG Export Plug-In . SVG Version: 6.00 Build 0)  -->
<svg version="1.1" id="Capa_1" xmlns="http://www.w3.org/2000/svg" xmlns:xlink="http://www.w3.org/1999/xlink" x="0px" y="0px"
	 viewBox="0 0 703 1126" style="enable-background:new 0 0 703 1126;" xml:space="preserve">
<style type="text/css">
	.st0{fill:#C0DAD8;}
	.st1{fill:#5D9E9B;}
	.st2{fill:#EAA42C;}
	.st3{fill:#FFDEC7;}
	.st4{fill:#FFFFFF;}
	.st5{fill:#FAF3E8;}
	.st6{fill:none;stroke:#333333;stroke-width:2.5;stroke-linecap:round;stroke-miterlimit:10;}
	.st7{fill:#365B56;}
	.st8{fill:none;stroke:#365B56;stroke-width:1.7023;stroke-miterlimit:10;}
	.st9{fill:none;}
	.st10{fill:#FFDC6F;}
	.st11{fill:none;stroke:#333333;stroke-width:1.3658;stroke-linecap:round;stroke-miterlimit:10;}
	.st12{fill:#333333;}
	.st13{fill:none;stroke:#333333;stroke-width:1.4442;stroke-linecap:round;stroke-miterlimit:10;}
	.st14{fill:#AF754E;}
	.st15{fill:#97623E;}
	.st16{fill:#222222;}
	.st17{fill:#FCCDAC;}
	.st18{fill:#467C75;}
	.st19{fill:#EDB24C;}
	.st20{fill:#F1A74A;}
	.st21{fill:#5D9D9A;}
	.st22{fill:#E9A32C;}
	.st23{fill:#D38013;}
	.st24{fill:#6D5235;}
	.st25{fill:#D89027;}
	.st26{fill:#B2D3D0;}
	.st27{fill:#468480;}
	.st28{clip-path:url(#SVGID_3_);}
	.st29{clip-path:url(#SVGID_5_);}
	.st30{fill:#A9C9C5;}
	.st31{fill:#3E6D68;}
	.st32{fill:none;stroke:#D89027;stroke-width:3.777;stroke-miterlimit:10;}
	.st33{fill:#346661;}
	.st34{fill:none;stroke:#D89027;stroke-width:3.0705;stroke-miterlimit:10;}
	.st35{fill:none;stroke:#467C75;stroke-width:4.6233;stroke-miterlimit:10;}
	.st36{fill:none;stroke:#333333;stroke-width:3.3231;stroke-linecap:round;stroke-miterlimit:10;}
	.st37{fill:none;stroke:#222222;stroke-width:9.9692;stroke-linecap:round;stroke-miterlimit:10;}
	.st38{fill:none;stroke:#333333;stroke-width:3.0088;stroke-linecap:round;stroke-miterlimit:10;}
	.st39{fill:none;stroke:#365B56;stroke-width:1.4072;stroke-miterlimit:10;}
	.st40{filter:url(#Adobe_OpacityMaskFilter);}
	.st41{mask:url(#SVGID_6_);fill:#C0DAD8;}
	.st42{fill:#EFA53A;}
	.st43{fill:#B3BDBC;}
	.st44{fill:none;stroke:#E5BE8C;stroke-width:4.3561;stroke-linecap:round;stroke-miterlimit:10;}
	.st45{fill:#E5BE8C;}
	.st46{fill:#9DAAA9;}
	.st47{clip-path:url(#SVGID_14_);}
	.st48{clip-path:url(#SVGID_16_);}
	.st49{fill:none;stroke:#E1A647;stroke-miterlimit:10;}
	.st50{fill:#FFDAC6;}
	.st51{fill:#212121;}
	.st52{fill:none;stroke:#333333;stroke-width:1.676;stroke-linecap:round;stroke-miterlimit:10;}
	.st53{fill:none;stroke:#468480;stroke-width:2.1459;stroke-linecap:round;stroke-linejoin:round;stroke-miterlimit:10;}
	.st54{clip-path:url(#SVGID_18_);}
	.st55{fill:none;stroke:#333333;stroke-width:1.2684;stroke-linecap:round;stroke-miterlimit:10;}
	.st56{fill:none;stroke:#333333;stroke-width:1.1484;stroke-linecap:round;stroke-miterlimit:10;}
	.st57{fill:none;stroke:#333333;stroke-width:1.4293;stroke-linecap:round;stroke-miterlimit:10;}
	.st58{fill:none;stroke:#212121;stroke-width:4.2878;stroke-linecap:round;stroke-miterlimit:10;}
	.st59{fill:none;stroke:#468480;stroke-width:1.83;stroke-linecap:round;stroke-linejoin:round;stroke-miterlimit:10;}
	.st60{fill:none;stroke:#333333;stroke-width:1.3816;stroke-linecap:round;stroke-miterlimit:10;}
	.st61{fill:none;stroke:#468480;stroke-width:2.2019;stroke-linecap:round;stroke-linejoin:round;stroke-miterlimit:10;}
	.st62{clip-path:url(#SVGID_20_);}
	.st63{fill:none;stroke:#333333;stroke-width:1.6231;stroke-linecap:round;stroke-miterlimit:10;}
	.st64{fill:none;stroke:#FFFFFF;stroke-width:1.4293;stroke-linecap:round;stroke-miterlimit:10;}
	.st65{clip-path:url(#SVGID_22_);fill:#5D9E9B;}
	.st66{fill:none;stroke:#333333;stroke-width:2;stroke-linecap:round;stroke-miterlimit:10;}
	.st67{fill:none;stroke:#D89027;stroke-width:4.4541;stroke-miterlimit:10;}
	.st68{fill:none;stroke:#333333;stroke-width:2.3147;stroke-linecap:round;stroke-miterlimit:10;}
	.st69{clip-path:url(#SVGID_24_);fill:none;stroke:#D89027;stroke-width:4.4541;stroke-miterlimit:10;}
	.st70{clip-path:url(#SVGID_26_);}
	.st71{clip-path:url(#SVGID_28_);fill:#5D9E9B;}
	.st72{fill:none;stroke:#333333;stroke-width:2.8529;stroke-linecap:round;stroke-linejoin:round;stroke-miterlimit:10;}
	.st73{fill:none;stroke:#FFFFFF;stroke-width:2;stroke-miterlimit:10;}
	.st74{clip-path:url(#SVGID_30_);fill:#346661;}
	.st75{clip-path:url(#SVGID_30_);fill:#5D9E9B;}
	.st76{fill:none;stroke:#D89027;stroke-width:7;stroke-linecap:round;stroke-miterlimit:10;}
	.st77{clip-path:url(#SVGID_32_);fill:none;stroke:#D89027;stroke-width:4.4541;stroke-miterlimit:10;}
	.st78{fill:none;stroke:#222222;stroke-width:8.5586;stroke-linecap:round;stroke-miterlimit:10;}
	.st79{fill:none;stroke:#333333;stroke-width:2.8529;stroke-linecap:round;stroke-miterlimit:10;}
	.st80{fill:none;stroke:#333333;stroke-width:2.5831;stroke-linecap:round;stroke-miterlimit:10;}
	.st81{fill:#728482;}
	.st82{clip-path:url(#SVGID_34_);}
	.st83{fill:#637572;}
	.st84{fill:none;stroke:#333333;stroke-width:1.7625;stroke-linecap:round;stroke-miterlimit:10;}
	.st85{fill:none;stroke:#728482;stroke-width:1.7625;stroke-linecap:round;stroke-miterlimit:10;}
	.st86{clip-path:url(#SVGID_36_);}
	.st87{fill:none;stroke:#637572;stroke-width:1.7625;stroke-linecap:round;stroke-miterlimit:10;}
	.st88{fill:none;stroke:#333333;stroke-width:1.5682;stroke-linecap:round;stroke-miterlimit:10;}
	.st89{fill:none;stroke:#365B56;stroke-width:0.9491;stroke-miterlimit:10;}
	.st90{fill:none;stroke:#333333;stroke-width:1.6284;stroke-linecap:round;stroke-miterlimit:10;}
	.st91{fill:none;stroke:#468480;stroke-width:1.541;stroke-linecap:round;stroke-linejoin:round;stroke-miterlimit:10;}
	.st92{fill:none;stroke:#468480;stroke-width:1.4907;stroke-linecap:round;stroke-linejoin:round;stroke-miterlimit:10;}
	.st93{fill:none;stroke:#5D9E9B;stroke-width:3;stroke-miterlimit:10;}
</style>
<g>
	<rect x="-1" y="-1.9" class="st0" width="703.5" height="1129.7"/>
</g>
<g>
	<g>
		<path class="st1" d="M702.5,524.9c-5.4-8.8-11.8-17.2-21.4-20.5c-20.4-7-41.1,15.3-41.2,36.9c-0.1,33.2,28,49.2,24.6,82.7
			c-3,29.6-9.4,223.6,3.8,250.3c7.4,15.1,19.8,28.5,34.2,35.3V524.9z"/>
	</g>
	<g>
		<path class="st1" d="M683.7,472.2c0.8,18.7,9.5,36,18.7,52.4v-94.5C690,439.2,683.1,456.3,683.7,472.2z"/>
	</g>
</g>
<g>
	<path class="st1" d="M572.9,933.3c-126.2,24.4-358.2,78.1-573.9,93v101.6h703.5V912.4C657.3,918.7,611.5,925.8,572.9,933.3z"/>
</g>
<g>
	<path class="st2" d="M-112.2,604.6c0,0,247,42,273.9,523.9c0,0-122.9-1.1-206.4-2.5L-112.2,604.6z"/>
</g>
<g>
	<path class="st2" d="M-150.2,1126.5V594.1c0,0,78.2,18.5,101,41.3c22.8,22.8,56.3,491.1,56.3,491.1H-150.2z"/>
</g>
<g>
	<rect x="-1" y="-1.9" class="st9" width="703.5" height="1129.7"/>
</g>
<g>
	<path class="st2" d="M-112.2,604.6c0,0,247,42,273.9,523.9c0,0-122.9-1.1-206.4-2.5L-112.2,604.6z"/>
</g>
<g>
	<path class="st2" d="M-150.2,1126.5V594.1c0,0,78.2,18.5,101,41.3c22.8,22.8,56.3,491.1,56.3,491.1H-150.2z"/>
</g>
<g>
	<polygon class="st5" points="-34.3,1009.6 81.9,1009.6 89,1127.8 -27.1,1126.5 	"/>
</g>
<g>
	<g>
		<path class="st4" d="M476.3,306.8h184c0,0,8.6-41.6-63.8-28c-31.1,6.2-16-45.3-71.2-44.1c-16.6,0.6-33.3,3.4-54.2,36.7
			c-20.6,33.6-62.9-16-66.3,35.7h71.5V306.8z"/>
	</g>
</g>
<g>
	<path class="st12" d="M618.4,227C618.4,227,618.4,227,618.4,227c-0.7,0-1.3-0.5-1.4-1.2c-2.1-10.9-9.2-18.4-20.9-22.1
		c-8.9-2.8-17.3-2.4-17.4-2.4c-0.8,0.1-1.5-0.6-1.5-1.3c0-0.8,0.5-1.5,1.3-1.5c0.3,0,32-1.7,40.1,22.5c3.8-8,14.6-24.8,39.1-22.6
		c0.8,0.1,1.4,0.8,1.3,1.5c-0.1,0.8-0.8,1.4-1.5,1.3c-29.5-2.7-37.4,23.6-37.7,24.7C619.6,226.6,619,227,618.4,227z"/>
</g>
<g>
	<rect x="317.8" y="947.3" class="st25" width="21.8" height="53.1"/>
</g>
<g>
	<circle class="st7" cx="328.7" cy="878.4" r="92.9"/>
</g>
<g>
	<g>
		<path class="st10" d="M292.5,430l-192.1-46.5c0,0,7.2,95.6,91.2,111.9C275.5,511.7,292.5,430,292.5,430z"/>
	</g>
	<g>
		<polygon class="st10" points="358.6,395.1 335.2,375.6 296.3,423.9 		"/>
	</g>
	<g>
		<circle class="st12" cx="138.5" cy="419" r="7.7"/>
	</g>
	<g>
		<path class="st2" d="M126.9,389.9l-19.6,25.5c0,0-7.2-26.4-7-31.9L126.9,389.9z"/>
	</g>
</g>
<g>
	<path class="st10" d="M196.4,421.9c0,0,9.7,96.8,126.4,128.4c0,0,16.8,3.5,23.1-9.1c0,0,5.7-13.1-9.9-18c0,0,13.1,3.1,20.4-6.2
		c0,0,7.3-10.5-4.3-17.7c0,0,11.6,1.6,15.3-13.6C371.1,470.4,196.4,421.9,196.4,421.9z"/>
</g>
<g>
	<path class="st12" d="M309.1,547.3c-0.1,0-0.2,0-0.3,0c-46.2-13.9-76.5-45.8-93.8-70.1c-18.7-26.4-26.6-49.8-26.7-50
		c-0.2-0.6,0.1-1.3,0.7-1.5c0.6-0.2,1.3,0.1,1.5,0.7c0.1,0.2,7.9,23.4,26.4,49.5c17.1,24,47,55.5,92.5,69.2c0.6,0.2,1,0.8,0.8,1.4
		C310.1,547,309.6,547.3,309.1,547.3z"/>
</g>
<g>
	<circle class="st4" cx="110.6" cy="292.3" r="12.9"/>
</g>
<g>
	<circle class="st4" cx="163.6" cy="272.4" r="12.9"/>
</g>
<g>
	<circle class="st4" cx="262.2" cy="184.3" r="12.9"/>
</g>
<g>
	<polygon class="st4" points="123.4,290.7 121.4,290.7 121.4,235.1 176.3,222 176.3,271.5 174.3,271.5 174.3,224.6 123.4,236.7 	"/>
</g>
<g>
	<rect x="272.9" y="136.5" class="st4" width="2" height="46.3"/>
</g>
<g>
	<path class="st33" d="M593.8,946.9L593.8,946.9c-50.2,0-90.9-40.7-90.9-90.9V562.8c0-50.2,40.7-90.9,90.9-90.9h0
		c50.2,0,90.9,40.7,90.9,90.9V856C684.8,906.2,644.1,946.9,593.8,946.9z"/>
</g>
<g>
	<path class="st25" d="M593.8,996.7c-1.9,0-3.5-1.6-3.5-3.5V735.1c0-1.9,1.6-3.5,3.5-3.5s3.5,1.6,3.5,3.5v258.1
		C597.3,995.2,595.8,996.7,593.8,996.7z"/>
</g>
<g>
	<path class="st25" d="M593.8,822.2c-1.2,0-2.3-0.6-3-1.7l-51.3-83.6c-1-1.6-0.5-3.8,1.2-4.8c1.6-1,3.8-0.5,4.8,1.2l51.3,83.6
		c1,1.6,0.5,3.8-1.2,4.8C595.1,822,594.5,822.2,593.8,822.2z"/>
</g>
<g>
	<path class="st3" d="M-68.2,900.4l76.9-6.2c0,0,19,2,21.3,13c0,0,1.3,12.7-11.2,15.1c0,0,17-6.1,19.6,9.5c0,0,2.5,15.2-15.5,17.1
		c0,0,13.1-10.1,19.7,6.5c0,0,7.6,15.9-16.2,19.9c0,0,14.7-3.6,17.1,12.4c0,0,4.6,15.1-19.2,21.9l-76.5-3.9c0,0-17.4,0.9-19.4-11.3
		c0,0-2-10.2,7.8-11.6c0,0-21.7,1.9-21.3-16.4c0,0,0.6-12.8,10.3-13.8c0,0-9.4-0.1-11.4-11.9c-1.9-11.8,10.2-15,10.2-15
		s-8.6-2.4-8-11.9S-75.3,901.2-68.2,900.4z"/>
</g>
<g>
	<path class="st1" d="M453.1,574.1l0-0.1C453.1,573.9,453.1,574,453.1,574.1c-0.1-0.1-0.1-0.1-0.1-0.1L453.1,574.1
		c-3.4,5.1-131.2,205.2-85.6,303.5c0,0,23.4,50.1,83.2,57.8l0,0.5c0.8-0.1,1.6-0.2,2.4-0.2c0.8,0.1,1.6,0.2,2.4,0.2l0-0.5
		c59.9-7.7,83.2-57.8,83.2-57.8C584.2,779.3,456.4,579.2,453.1,574.1z"/>
</g>
<g>
	<path class="st12" d="M453.1,1001.1c-0.8,0-1.4-0.6-1.4-1.4v-333c0-0.8,0.6-1.4,1.4-1.4s1.4,0.6,1.4,1.4v333
		C454.5,1000.4,453.9,1001.1,453.1,1001.1z"/>
</g>
<g>
	<path class="st12" d="M-71.6,928.1c-0.6,0-1.1-0.5-1.2-1.1c0-0.6,0.4-1.2,1.1-1.2l92.2-7.2c0.6,0,1.2,0.4,1.2,1.1
		c0,0.6-0.4,1.2-1.1,1.2L-71.6,928.1C-71.5,928.1-71.5,928.1-71.6,928.1z"/>
</g>
<g>
	<path class="st12" d="M-74.5,953.3c-0.6,0-1.1-0.5-1.2-1.1c0-0.6,0.5-1.2,1.1-1.2l96.8-5.2c0.6,0,1.2,0.5,1.2,1.1s-0.5,1.2-1.1,1.2
		L-74.5,953.3C-74.5,953.3-74.5,953.3-74.5,953.3z"/>
</g>
<g>
	<path class="st12" d="M-63.8,983.9c-0.6,0-1.1-0.5-1.2-1.1c0-0.6,0.4-1.2,1.1-1.2l84.4-5.7c0.6,0,1.2,0.4,1.2,1.1
		c0,0.6-0.4,1.2-1.1,1.2L-63.8,983.9C-63.7,983.9-63.8,983.9-63.8,983.9z"/>
</g>
<g>
	<defs>
		<path id="SVGID_15_" d="M-150.2,1126.5V594.1c0,0,78.2,18.5,101,41.3c22.8,22.8,56.3,491.1,56.3,491.1H-150.2z"/>
	</defs>
	<clipPath id="SVGID_3_">
		<use xlink:href="#SVGID_15_"  style="overflow:visible;"/>
	</clipPath>
</g>
<g>
	<path class="st3" d="M5.2,894.5c0,0,47.1-5.8,61.3,52.4c15.3,63-50.5,63.1-50.5,63.1"/>
</g>
<g>
	<polygon class="st5" points="-34.3,1009.6 81.9,1009.6 89,1127.8 -27.1,1126.5 	"/>
</g>
<g>
	<path class="st3" d="M-68.2,900.4l76.9-6.2c0,0,19,2,21.3,13c0,0,1.3,12.7-11.2,15.1c0,0,17-6.1,19.6,9.5c0,0,2.5,15.2-15.5,17.1
		c0,0,13.1-10.1,19.7,6.5c0,0,7.6,15.9-16.2,19.9c0,0,14.7-3.6,17.1,12.4c0,0,4.6,15.1-19.2,21.9l-76.5-3.9c0,0-17.4,0.9-19.4-11.3
		c0,0-2-10.2,7.8-11.6c0,0-21.7,1.9-21.3-16.4c0,0,0.6-12.8,10.3-13.8c0,0-9.4-0.1-11.4-11.9c-1.9-11.8,10.2-15,10.2-15
		s-8.6-2.4-8-11.9S-75.3,901.2-68.2,900.4z"/>
</g>
<g>
	<path class="st12" d="M-71.6,928.1c-0.6,0-1.1-0.5-1.2-1.1c0-0.6,0.4-1.2,1.1-1.2l92.2-7.2c0.6,0,1.2,0.4,1.2,1.1
		c0,0.6-0.4,1.2-1.1,1.2L-71.6,928.1C-71.5,928.1-71.5,928.1-71.6,928.1z"/>
</g>
<g>
	<path class="st12" d="M-74.5,953.3c-0.6,0-1.1-0.5-1.2-1.1c0-0.6,0.5-1.2,1.1-1.2l96.8-5.2c0.6,0,1.2,0.5,1.2,1.1s-0.5,1.2-1.1,1.2
		L-74.5,953.3C-74.5,953.3-74.5,953.3-74.5,953.3z"/>
</g>
<g>
	<path class="st12" d="M-63.8,983.9c-0.6,0-1.1-0.5-1.2-1.1c0-0.6,0.4-1.2,1.1-1.2l84.4-5.7c0.6,0,1.2,0.4,1.2,1.1
		c0,0.6-0.4,1.2-1.1,1.2L-63.8,983.9C-63.7,983.9-63.8,983.9-63.8,983.9z"/>
</g>
<g>
	<defs>
		<path id="SVGID_25_" d="M-150.2,1126.5V594.1c0,0,78.2,18.5,101,41.3c22.8,22.8,56.3,491.1,56.3,491.1H-150.2z"/>
	</defs>
	<clipPath id="SVGID_5_">
		<use xlink:href="#SVGID_25_"  style="overflow:visible;"/>
	</clipPath>
</g>
<rect x="-1845.7" y="-1755.9" class="st93" width="4282.2" height="5728.2"/>
<g>
	<path class="st33" d="M702.5,987.9c-17.8-1.6-36.4,3.3-50.7,14.1c-24.4,18.3-36.3,50.3-34.1,80.7c-1-8.3-4.1-16.3-8.8-23.2
		c-1.7-2.4-3.6-4.7-6.2-6.1c-7.2-3.9-16.5,1.4-20,8.8c-3.5,7.4-2.7,16-1.8,24.1c-5.5-10.8-12.1-21.1-19.7-30.6
		c-4-5-8.6-9.9-14.7-11.7c-12.4-3.5-24.8,8.6-26.2,21.4c-1.1,10.2,2.8,20,8,29c-2.3-3.4-5-6.6-8.3-9c-5.5-4-13.3-5.5-18.9-1.8
		c-6.1,4-7.5,12.2-7.2,19.5c0.3,6.8,2.1,16.1,5,24.8h203.6V987.9z"/>
</g>
</svg>
