<?xml version="1.0" encoding="utf-8"?>
<!-- Generator: Adobe Illustrator 25.2.3, SVG Export Plug-In . SVG Version: 6.00 Build 0)  -->
<svg version="1.1" id="Capa_1" xmlns="http://www.w3.org/2000/svg" xmlns:xlink="http://www.w3.org/1999/xlink" x="0px" y="0px"
	 viewBox="0 0 703 1126" style="enable-background:new 0 0 703 1126;" xml:space="preserve">
<style type="text/css">
	.st0{fill:#C0DAD8;}
	.st1{clip-path:url(#SVGID_3_);fill:#5D9E9B;}
	.st2{clip-path:url(#SVGID_5_);fill:#346661;}
	.st3{clip-path:url(#SVGID_5_);fill:#5D9E9B;}
	.st4{fill:#EAA42C;}
	.st5{clip-path:url(#SVGID_7_);fill:#5D9E9B;}
	.st6{fill:#FFFFFF;}
	.st7{fill:#5D9E9B;}
	.st8{fill:#FFDEC7;}
	.st9{fill:#FAF3E8;}
	.st10{fill:#333333;}
	.st11{fill:#365B56;}
	.st12{fill:none;}
	.st13{fill:#FFDC6F;}
	.st14{fill:none;stroke:#333333;stroke-width:1.3658;stroke-linecap:round;stroke-miterlimit:10;}
	.st15{fill:none;stroke:#333333;stroke-width:1.4442;stroke-linecap:round;stroke-miterlimit:10;}
	.st16{fill:#AF754E;}
	.st17{fill:#97623E;}
	.st18{fill:#222222;}
	.st19{fill:#FCCDAC;}
	.st20{fill:#467C75;}
	.st21{fill:#EDB24C;}
	.st22{fill:#F1A74A;}
	.st23{fill:#5D9D9A;}
	.st24{fill:#E9A32C;}
	.st25{fill:#D38013;}
	.st26{fill:#6D5235;}
	.st27{fill:#D89027;}
	.st28{fill:#B2D3D0;}
	.st29{fill:#468480;}
	.st30{clip-path:url(#SVGID_9_);}
	.st31{clip-path:url(#SVGID_11_);}
	.st32{fill:#A9C9C5;}
	.st33{fill:#3E6D68;}
	.st34{fill:none;stroke:#D89027;stroke-width:3.777;stroke-miterlimit:10;}
	.st35{fill:#346661;}
	.st36{fill:none;stroke:#D89027;stroke-width:3.0705;stroke-miterlimit:10;}
	.st37{fill:none;stroke:#467C75;stroke-width:4.6233;stroke-miterlimit:10;}
	.st38{fill:none;stroke:#333333;stroke-width:3.3231;stroke-linecap:round;stroke-miterlimit:10;}
	.st39{fill:none;stroke:#222222;stroke-width:9.9692;stroke-linecap:round;stroke-miterlimit:10;}
	.st40{fill:none;stroke:#333333;stroke-width:3.0088;stroke-linecap:round;stroke-miterlimit:10;}
	.st41{fill:none;stroke:#365B56;stroke-width:1.4072;stroke-miterlimit:10;}
	.st42{fill:none;stroke:#333333;stroke-width:2.5;stroke-linecap:round;stroke-miterlimit:10;}
	.st43{filter:url(#Adobe_OpacityMaskFilter);}
	.st44{mask:url(#SVGID_12_);}
	.st45{fill:#EFA53A;}
	.st46{fill:#B3BDBC;}
	.st47{fill:#E5BE8C;}
	.st48{fill:#9DAAA9;}
	.st49{fill:none;stroke:#365B56;stroke-width:1.7023;stroke-miterlimit:10;}
	.st50{filter:url(#Adobe_OpacityMaskFilter_1_);}
	.st51{mask:url(#SVGID_15_);fill:#C0DAD8;}
	.st52{fill:none;stroke:#E5BE8C;stroke-width:4.3561;stroke-linecap:round;stroke-miterlimit:10;}
	.st53{clip-path:url(#SVGID_23_);}
	.st54{clip-path:url(#SVGID_25_);}
	.st55{fill:none;stroke:#E1A647;stroke-miterlimit:10;}
	.st56{fill:#FFDAC6;}
	.st57{fill:#212121;}
	.st58{fill:none;stroke:#333333;stroke-width:1.676;stroke-linecap:round;stroke-miterlimit:10;}
	.st59{fill:none;stroke:#468480;stroke-width:2.1459;stroke-linecap:round;stroke-linejoin:round;stroke-miterlimit:10;}
	.st60{clip-path:url(#SVGID_27_);}
	.st61{fill:none;stroke:#333333;stroke-width:1.2684;stroke-linecap:round;stroke-miterlimit:10;}
	.st62{fill:none;stroke:#333333;stroke-width:1.1484;stroke-linecap:round;stroke-miterlimit:10;}
	.st63{fill:none;stroke:#333333;stroke-width:1.4293;stroke-linecap:round;stroke-miterlimit:10;}
	.st64{fill:none;stroke:#212121;stroke-width:4.2878;stroke-linecap:round;stroke-miterlimit:10;}
	.st65{fill:none;stroke:#468480;stroke-width:1.83;stroke-linecap:round;stroke-linejoin:round;stroke-miterlimit:10;}
	.st66{fill:none;stroke:#333333;stroke-width:1.3816;stroke-linecap:round;stroke-miterlimit:10;}
	.st67{fill:none;stroke:#468480;stroke-width:2.2019;stroke-linecap:round;stroke-linejoin:round;stroke-miterlimit:10;}
	.st68{clip-path:url(#SVGID_29_);}
	.st69{fill:none;stroke:#333333;stroke-width:1.6231;stroke-linecap:round;stroke-miterlimit:10;}
	.st70{fill:none;stroke:#FFFFFF;stroke-width:1.4293;stroke-linecap:round;stroke-miterlimit:10;}
	.st71{fill:none;stroke:#D89027;stroke-width:4.4541;stroke-miterlimit:10;}
	.st72{fill:none;stroke:#333333;stroke-width:2.3147;stroke-linecap:round;stroke-miterlimit:10;}
	.st73{clip-path:url(#SVGID_31_);fill:none;stroke:#D89027;stroke-width:4.4541;stroke-miterlimit:10;}
	.st74{clip-path:url(#SVGID_33_);}
	.st75{fill:none;stroke:#333333;stroke-width:2.8529;stroke-linecap:round;stroke-linejoin:round;stroke-miterlimit:10;}
	.st76{fill:none;stroke:#FFFFFF;stroke-width:2;stroke-miterlimit:10;}
	.st77{fill:none;stroke:#D89027;stroke-width:7;stroke-linecap:round;stroke-miterlimit:10;}
	.st78{clip-path:url(#SVGID_35_);fill:none;stroke:#D89027;stroke-width:4.4541;stroke-miterlimit:10;}
	.st79{fill:none;stroke:#222222;stroke-width:8.5586;stroke-linecap:round;stroke-miterlimit:10;}
	.st80{fill:none;stroke:#333333;stroke-width:2.8529;stroke-linecap:round;stroke-miterlimit:10;}
	.st81{fill:none;stroke:#333333;stroke-width:2.5831;stroke-linecap:round;stroke-miterlimit:10;}
	.st82{fill:#728482;}
	.st83{clip-path:url(#SVGID_37_);}
	.st84{fill:#637572;}
	.st85{fill:none;stroke:#333333;stroke-width:1.7625;stroke-linecap:round;stroke-miterlimit:10;}
	.st86{fill:none;stroke:#728482;stroke-width:1.7625;stroke-linecap:round;stroke-miterlimit:10;}
	.st87{clip-path:url(#SVGID_39_);}
	.st88{fill:none;stroke:#637572;stroke-width:1.7625;stroke-linecap:round;stroke-miterlimit:10;}
	.st89{fill:none;stroke:#333333;stroke-width:1.5682;stroke-linecap:round;stroke-miterlimit:10;}
	.st90{fill:none;stroke:#365B56;stroke-width:0.9491;stroke-miterlimit:10;}
	.st91{fill:none;stroke:#333333;stroke-width:1.6284;stroke-linecap:round;stroke-miterlimit:10;}
	.st92{fill:none;stroke:#468480;stroke-width:1.541;stroke-linecap:round;stroke-linejoin:round;stroke-miterlimit:10;}
	.st93{fill:none;stroke:#468480;stroke-width:1.4907;stroke-linecap:round;stroke-linejoin:round;stroke-miterlimit:10;}
	.st94{fill:none;stroke:#5D9E9B;stroke-width:3;stroke-miterlimit:10;}
</style>
<rect x="-1" y="-1.9" class="st0" width="703.5" height="1129.7"/>
<g>
	<defs>
		<rect id="SVGID_2_" x="-1" y="-1.9" width="703.5" height="1129.7"/>
	</defs>
	<clipPath id="SVGID_3_">
		<use xlink:href="#SVGID_2_"  style="overflow:visible;"/>
	</clipPath>
	<path class="st1" d="M-570,1131.6c0,0,193.8-106.5,439.4-101.7s551.5-67.2,703.5-96.6c128.1-24.8,336-45.6,336-45.6v243.9H-570z"/>
</g>
<g>
	<defs>
		<rect id="SVGID_4_" x="-1" y="-1.9" width="703.5" height="1129.7"/>
	</defs>
	<clipPath id="SVGID_5_">
		<use xlink:href="#SVGID_4_"  style="overflow:visible;"/>
	</clipPath>
	<path class="st2" d="M493.8,1103.1c-0.3-7.2,1.2-15.5,7.2-19.5c5.6-3.7,13.5-2.2,18.9,1.8c5.5,4,9.1,9.9,12.5,15.7
		c-7.2-10.7-13.6-22.9-12.2-35.7c1.4-12.8,13.9-24.9,26.2-21.4c6.1,1.8,10.7,6.7,14.7,11.7c7.6,9.5,14.2,19.7,19.7,30.6
		c-0.9-8.1-1.6-16.7,1.8-24.1c3.5-7.4,12.8-12.6,20-8.8c2.6,1.4,4.5,3.7,6.2,6.1c5.4,7.9,8.6,17.3,9.1,26.8
		c-3.5-31.5,8.4-65.4,33.8-84.4c25.4-19,64.2-19.8,87.8,1.4c3.1,2.8,5.9,6,7.3,9.9c1.2,3.5,1.1,7.3,0.9,11
		c-1.8,44.2-7.3,88.2-16.5,131.4c-19.9-1-39.7-2-59.6-3.1c-20.6-1.1-41.3-2.1-62-1.2c-15.2,0.7-30.3,2.4-45.5,2.7
		c-14.7,0.3-47,2.6-56.3-8.6C499.7,1135.8,494.3,1115.3,493.8,1103.1z"/>
	<path class="st3" d="M639.9,541.3c0.1-21.5,20.8-43.9,41.2-36.9c11.6,4,18.6,15.4,24.7,26c-10.4-18.2-21.1-37.3-22-58.2
		c-0.9-20.9,11.5-44.1,32.1-47.8c14.4-2.6,29.3,4.8,38.9,15.8c9.7,11,15.1,25.1,19.5,39c20.5,64.4,24.9,133.9,12.6,200.4
		c-4.9,26.7-24.2,221.2-49.3,231.5c-27.5,11.3-56.2-10.3-69.4-37c-13.1-26.7-6.7-220.7-3.8-250.3
		C667.9,590.5,639.7,574.5,639.9,541.3z"/>
</g>
<path class="st4" d="M-112.2,604.6c0,0,247,42,273.9,523.9c0,0-111.9-1.1-195.4-2.5L-112.2,604.6z"/>
<g>
	<defs>
		<rect id="SVGID_6_" x="-737.7" y="-1.9" width="703.5" height="1129.7"/>
	</defs>
	<clipPath id="SVGID_7_">
		<use xlink:href="#SVGID_6_"  style="overflow:visible;"/>
	</clipPath>
	<path class="st5" d="M-570,1131.6c0,0,193.8-106.5,439.4-101.7s551.5-67.2,703.5-96.6c128.1-24.8,336-45.6,336-45.6v243.9H-570z"/>
</g>
<path class="st4" d="M-150.2,1130.4V594.1c0,0,78.2,18.5,101,41.3c22.8,22.8,56.3,495,56.3,495H-150.2z"/>
<g>
	<path class="st6" d="M476.3,306.8h184c0,0,8.6-41.6-63.8-28c-31.1,6.2-16-45.3-71.2-44.1c-16.6,0.6-33.3,3.4-54.2,36.7
		c-20.6,33.6-62.9-16-66.3,35.7h71.5V306.8z"/>
</g>
<path class="st75" d="M578.6,200c0,0,34.3-2.1,39.8,25.7c0,0,8.2-28.5,39.2-25.7"/>
<rect x="317.8" y="947.3" class="st27" width="21.8" height="53.1"/>
<circle class="st11" cx="328.7" cy="878.4" r="92.9"/>
<g>
	<path class="st13" d="M292.5,430l-192.1-46.5c0,0,7.2,95.6,91.2,111.9C275.5,511.7,292.5,430,292.5,430z"/>
	<polygon class="st13" points="358.6,395.1 335.2,375.6 296.3,423.9 	"/>
	<circle class="st10" cx="138.5" cy="419" r="7.7"/>
	<path class="st4" d="M126.9,389.9l-19.6,25.5c0,0-7.2-26.4-7-31.9L126.9,389.9z"/>
</g>
<path class="st13" d="M196.4,421.9c0,0,9.7,96.8,126.4,128.4c0,0,16.8,3.5,23.1-9.1c0,0,5.7-13.1-9.9-18c0,0,13.1,3.1,20.4-6.2
	c0,0,7.3-10.5-4.3-17.7c0,0,11.6,1.6,15.3-13.6C371.1,470.4,196.4,421.9,196.4,421.9z"/>
<path class="st72" d="M189.4,426.7c0,0,30.9,92.8,119.7,119.4"/>
<circle class="st6" cx="140.3" cy="341.5" r="12.9"/>
<circle class="st6" cx="193.2" cy="321.6" r="12.9"/>
<circle class="st6" cx="291.8" cy="233.5" r="12.9"/>
<polyline class="st76" points="152,339.9 152,285.1 205,272.5 205,320.7 "/>
<line class="st76" x1="303.6" y1="185.6" x2="303.6" y2="231.9"/>
<path class="st35" d="M593.8,946.9L593.8,946.9c-50.2,0-90.9-40.7-90.9-90.9V562.8c0-50.2,40.7-90.9,90.9-90.9h0
	c50.2,0,90.9,40.7,90.9,90.9V856C684.8,906.2,644.1,946.9,593.8,946.9z"/>
<line class="st77" x1="593.8" y1="735.1" x2="593.8" y2="993.2"/>
<line class="st77" x1="542.5" y1="735.1" x2="593.8" y2="818.7"/>
<path class="st7" d="M453.1,574.1l0-0.1C453.1,573.9,453.1,574,453.1,574.1c-0.1-0.1-0.1-0.1-0.1-0.1L453.1,574.1
	c-3.4,5.1-131.2,205.2-85.6,303.5c0,0,23.4,50.1,83.2,57.8l0,0.5c0.8-0.1,1.6-0.2,2.4-0.2c0.8,0.1,1.6,0.2,2.4,0.2l0-0.5
	c59.9-7.7,83.2-57.8,83.2-57.8C584.2,779.3,456.4,579.2,453.1,574.1z"/>
<line class="st75" x1="453.1" y1="666.6" x2="453.1" y2="999.6"/>
<path class="st8" d="M3.6,894.6c0,0,45.9-8.5,45.9,63.1c0,64.5-54.8,59-54.8,59"/>
<polygon class="st9" points="-74.6,1009.6 79.6,1009.6 89,1127.8 -65,1126.5 "/>
<g>
	<defs>
		<path id="SVGID_34_" d="M-150.2,1130.4V594.1c0,0,78.2,18.5,101,41.3c22.8,22.8,56.3,491.1,56.3,491.1L-150.2,1130.4z"/>
	</defs>
	<clipPath id="SVGID_9_">
		<use xlink:href="#SVGID_34_"  style="overflow:visible;"/>
	</clipPath>
</g>
<path class="st8" d="M-68.2,900.4l76.9-6.2c0,0,18.7-1.6,21.3,13c0,0,3.2,10.2-9.3,12.6c0,0,15.1-3.6,17.8,11.9
	c0,0,2.5,15.2-15.5,17.1c0,0,14-7.5,20.5,9.1c0,0,4,17.5-17,17.3c0,0,11.9-3.5,14.2,12.6c0,0,3.1,16-18.4,17.1l-74.4,0.8
	c0,0-17.4,0.9-19.4-11.3c0,0-2-13,7.8-14.5c0,0-21.7,4.8-21.3-13.5c0,0,0.6-12.8,10.3-13.8c0,0-9.4-0.1-11.4-11.9
	c-1.9-11.8,10.2-15,10.2-15s-8.6-2.4-8-11.9S-75.3,901.2-68.2,900.4z"/>
<line class="st72" x1="-76" y1="925.7" x2="20.6" y2="919.8"/>
<line class="st72" x1="-74.5" y1="952.1" x2="22.3" y2="946.9"/>
<line class="st72" x1="-65.2" y1="979.9" x2="20.6" y2="977"/>
</svg>
