<?xml version="1.0" encoding="utf-8"?>
<!-- Generator: Adobe Illustrator 26.0.1, SVG Export Plug-In . SVG Version: 6.00 Build 0)  -->
<svg version="1.1" id="Capa_1" xmlns="http://www.w3.org/2000/svg" xmlns:xlink="http://www.w3.org/1999/xlink" x="0px" y="0px"
	 viewBox="0 0 80 80" style="enable-background:new 0 0 80 80;" xml:space="preserve">
<style type="text/css">
	.st0{fill:none;stroke:#5D9E9B;stroke-width:1.2159;stroke-miterlimit:10;}
	.st1{fill:#5D9E9B;}
	.st2{fill:none;}
	.st3{fill:#2C6662;}
	.st4{fill:none;stroke:#5D9E9B;stroke-width:0.5;stroke-miterlimit:10;}
	.st5{fill:#EAA42C;}
	.st6{fill:none;stroke:#5D9E9B;stroke-width:0.4582;stroke-miterlimit:10;}
	.st7{fill:none;stroke:#5D9E9B;stroke-width:1.2122;stroke-miterlimit:10;}
	.st8{fill:none;stroke:#5D9E9B;stroke-width:1.2121;stroke-miterlimit:10;}
	.st9{fill:none;stroke:#5D9E9B;stroke-width:1.2962;stroke-miterlimit:10;}
	.st10{fill:none;stroke:#5D9E9B;stroke-width:1.2121;stroke-linecap:round;stroke-miterlimit:10;}
	.st11{fill:#FAF3E8;}
	.st12{fill:none;stroke:#EAA42C;stroke-width:1.5;stroke-linecap:round;stroke-miterlimit:10;}
	.st13{fill:none;stroke:#333333;stroke-width:0.56;stroke-linecap:round;stroke-miterlimit:10;}
	.st14{fill:none;stroke:#5D9E9B;stroke-width:0.4596;stroke-miterlimit:10;}
	.st15{fill:none;stroke:#5D9E9B;stroke-width:1.2158;stroke-miterlimit:10;}
	.st16{fill:none;stroke:#5D9E9B;stroke-width:1.2157;stroke-miterlimit:10;}
	.st17{fill:none;stroke:#5D9E9B;stroke-width:1.5266;stroke-miterlimit:10;}
	.st18{fill:none;stroke:#5D9E9B;stroke-width:1.5266;stroke-linejoin:round;stroke-miterlimit:10;}
	.st19{fill:none;stroke:#5D9E9B;stroke-width:1.5266;stroke-linecap:round;stroke-linejoin:round;stroke-miterlimit:10;}
	.st20{fill:none;stroke:#5D9E9B;stroke-width:1.2575;stroke-miterlimit:10;}
	.st21{fill:none;stroke:#5D9E9B;stroke-width:1.4;stroke-miterlimit:10;}
	.st22{fill:none;stroke:#5D9E9B;stroke-width:1.3;stroke-miterlimit:10;}
	.st23{fill:none;stroke:#5D9E9B;stroke-width:1.2159;stroke-linecap:round;stroke-linejoin:round;stroke-miterlimit:10;}
	.st24{fill:none;stroke:#5D9E9B;stroke-width:1.5;stroke-linecap:round;stroke-miterlimit:10;}
	.st25{fill:none;stroke:#EAA42C;stroke-width:2;stroke-miterlimit:10;}
	.st26{fill:none;stroke:#5D9E9B;stroke-miterlimit:10;}
</style>
<g>
	<g>
		<g>
			<g>
				<path class="st1" d="M17.3,20.4c4.7-3.6,9,0,9,0S22.1,24.3,17.3,20.4z"/>
			</g>
		</g>
		<g>
			<rect x="16.9" y="18.5" class="st1" width="0.5" height="4.3"/>
		</g>
		<g>
			<path class="st5" d="M19.9,22.8c-4-1.6-8.5,0.3-9.9,4.1c-0.2,0.6-0.4,1.2-0.4,1.9h15.3C24.3,26.1,22.6,23.8,19.9,22.8z"/>
		</g>
	</g>
	<g>
		<g>
			<g>
				<path class="st1" d="M32.8,20.4c4.7-3.6,9,0,9,0S37.5,24.3,32.8,20.4z"/>
			</g>
		</g>
		<g>
			<rect x="32.5" y="18.5" class="st1" width="0.5" height="4.3"/>
		</g>
		<g>
			<path class="st5" d="M40.3,28.3c-0.5-2.4-2.3-4.6-4.9-5.6c-4-1.6-8.5,0.3-9.9,4.1c-0.2,0.6-0.4,1.3-0.4,1.9h15.2
				C40.2,28.6,40.2,28.4,40.3,28.3z"/>
		</g>
	</g>
	<g>
		<g>
			<g>
				<path class="st1" d="M47.9,21.3c4.7-3.6,9,0,9,0S52.6,25.1,47.9,21.3z"/>
			</g>
		</g>
		<g>
			<rect x="47.5" y="19.4" class="st1" width="0.5" height="4.2"/>
		</g>
		<g>
			<path class="st5" d="M43.1,28.7L43.1,28.7L43.1,28.7l12.2,0.5v-0.1c-0.6-2.4-2.3-4.5-4.9-5.5c-4-1.6-8.5,0.3-9.9,4.1
				c-0.1,0.2-0.2,0.4-0.2,0.7c0,0.1,0.1,0.3,0.1,0.4L43.1,28.7L43.1,28.7z"/>
		</g>
	</g>
	<g>
		<path class="st5" d="M40.4,28.7c0-0.1,0-0.3-0.1-0.4c0,0.1-0.1,0.3-0.1,0.4H40.4z"/>
	</g>
	<g>
		<g>
			<g>
				<path class="st1" d="M63.1,20.8c4.7-3.6,9,0,9,0S67.8,24.7,63.1,20.8z"/>
			</g>
		</g>
		<g>
			<polygon class="st1" points="62.8,23.2 62.7,19 63.2,19 63.3,23.2 			"/>
		</g>
		<g>
			<path class="st5" d="M70.7,29.8c-0.2-2.8-2.1-5.5-5-6.7c-4-1.6-8.5,0.3-9.9,4.1c-0.2,0.6-0.4,1.2-0.4,1.8v0.1L70.7,29.8z"/>
		</g>
	</g>
	<g>
		<polygon class="st1" points="43.7,79.4 42.5,79.4 42.6,29.8 6.6,29.8 6.6,28.5 43.8,28.5 		"/>
	</g>
	<g>
		<polygon class="st1" points="42.9,80 5.9,73.4 5.9,41.3 7.3,41.3 7.3,72.2 43.2,78.7 		"/>
	</g>
	<g>
		<g>
			<path class="st1" d="M43.1,80.1L42.9,80c-0.9-0.3-0.9-0.8-0.8-2c0.1-1.1,0.3-3.3,0.4-7.9l0.1-41.1c0-0.4,0.4-0.8,0.8-0.8
				l29.9,1.2c0,0,0,0,0,0c0.4,0,0.8,0.4,0.8,0.8h-1.4c0,0.3,0.2,0.6,0.6,0.6L44,29.8l-0.1,40.5c-0.1,4.6-0.3,6.9-0.4,8
				c0,0.1,0,0.2,0,0.3l29.2-9.3V41.5h1.4v28.2h-0.7l0,0.1l0.2,0.6L43.1,80.1z M44,29.2L44,29.2C44,29.2,44,29.2,44,29.2z"/>
		</g>
	</g>
	<g>
		<path class="st1" d="M46.8,43.9l-3.8-13.2l-6.4,12.7L0.1,41.7l6-13.6l37.6,0l30.5,1.3L80,41.6L46.8,43.9z M44,29.5l3.8,13l30-2.1
			l-4.6-9.7L44,29.5z M2.2,40.4L35.7,42l6.4-12.5H7L2.2,40.4z"/>
	</g>
	<g>
		<circle class="st1" cx="13.2" cy="48.1" r="2.1"/>
	</g>
	<g>
		
			<ellipse transform="matrix(1.544829e-03 -1 1 1.544829e-03 -16.3237 83.0349)" class="st1" cx="33.4" cy="49.7" rx="2.1" ry="2.1"/>
	</g>
	<g>
		<rect x="22.8" y="1" transform="matrix(0.8919 -0.4523 0.4523 0.8919 -0.6711 11.383)" class="st1" width="1.3" height="12.2"/>
	</g>
	<g>
		<rect x="49.3" y="6.4" transform="matrix(0.452 -0.892 0.892 0.452 24.059 53.3533)" class="st1" width="12.2" height="1.3"/>
	</g>
	<g>
		
			<rect x="39.3" y="0.7" transform="matrix(1 -8.373580e-03 8.373580e-03 1 -5.606874e-02 0.3347)" class="st1" width="1.3" height="12.2"/>
	</g>
</g>
<rect x="-12.3" y="-15.2" class="st26" width="378.2" height="110.1"/>
</svg>
