<?xml version="1.0" encoding="utf-8"?>
<!-- Generator: Adobe Illustrator 26.0.1, SVG Export Plug-In . SVG Version: 6.00 Build 0)  -->
<svg version="1.1" id="Capa_1" xmlns="http://www.w3.org/2000/svg" xmlns:xlink="http://www.w3.org/1999/xlink" x="0px" y="0px"
	 viewBox="0 0 80 80" style="enable-background:new 0 0 80 80;" xml:space="preserve">
<style type="text/css">
	.st0{fill:none;stroke:#5D9E9B;stroke-width:1.2159;stroke-miterlimit:10;}
	.st1{fill:#5D9E9B;}
	.st2{fill:none;}
	.st3{fill:#2C6662;}
	.st4{fill:none;stroke:#5D9E9B;stroke-width:0.5;stroke-miterlimit:10;}
	.st5{fill:#EAA42C;}
	.st6{fill:none;stroke:#5D9E9B;stroke-width:0.4582;stroke-miterlimit:10;}
	.st7{fill:none;stroke:#5D9E9B;stroke-width:1.2122;stroke-miterlimit:10;}
	.st8{fill:none;stroke:#5D9E9B;stroke-width:1.2121;stroke-miterlimit:10;}
	.st9{fill:none;stroke:#5D9E9B;stroke-width:1.2962;stroke-miterlimit:10;}
	.st10{fill:none;stroke:#5D9E9B;stroke-width:1.2121;stroke-linecap:round;stroke-miterlimit:10;}
	.st11{fill:#FAF3E8;}
	.st12{fill:none;stroke:#EAA42C;stroke-width:1.5;stroke-linecap:round;stroke-miterlimit:10;}
	.st13{fill:none;stroke:#333333;stroke-width:0.56;stroke-linecap:round;stroke-miterlimit:10;}
	.st14{fill:none;stroke:#5D9E9B;stroke-width:0.4596;stroke-miterlimit:10;}
	.st15{fill:none;stroke:#5D9E9B;stroke-width:1.2158;stroke-miterlimit:10;}
	.st16{fill:none;stroke:#5D9E9B;stroke-width:1.2157;stroke-miterlimit:10;}
	.st17{fill:none;stroke:#5D9E9B;stroke-width:1.5266;stroke-miterlimit:10;}
	.st18{fill:none;stroke:#5D9E9B;stroke-width:1.5266;stroke-linejoin:round;stroke-miterlimit:10;}
	.st19{fill:none;stroke:#5D9E9B;stroke-width:1.5266;stroke-linecap:round;stroke-linejoin:round;stroke-miterlimit:10;}
	.st20{fill:none;stroke:#5D9E9B;stroke-width:1.2575;stroke-miterlimit:10;}
	.st21{fill:none;stroke:#5D9E9B;stroke-width:1.4;stroke-miterlimit:10;}
	.st22{fill:none;stroke:#5D9E9B;stroke-width:1.3;stroke-miterlimit:10;}
	.st23{fill:none;stroke:#5D9E9B;stroke-width:1.2159;stroke-linecap:round;stroke-linejoin:round;stroke-miterlimit:10;}
	.st24{fill:none;stroke:#5D9E9B;stroke-width:1.5;stroke-linecap:round;stroke-miterlimit:10;}
	.st25{fill:none;stroke:#EAA42C;stroke-width:2;stroke-miterlimit:10;}
	.st26{fill:none;stroke:#5D9E9B;stroke-miterlimit:10;}
</style>
<g>
	<g>
		<path class="st5" d="M19.8,19.4c0,0,3.3-12.8,7.4-16.2s8-3.7,11.6,0c0,0,1.7,1.3,4.4-0.9C46,0.2,52-0.3,55.4,6.6s4.6,14,4.6,14"/>
	</g>
	<g>
		<path class="st5" d="M39.7,17C22.1,17,7.8,21.7,7.8,27.4c0,2.9,3.7,5.6,9.8,7.5c0.6-0.2,1.1-0.3,1.7-0.3s1.1,0.1,1.6,0.3
			c-0.2-3-0.1-5-0.1-5s-0.2-7.4,20-7c0,0,20.6,0.4,20.1,8.9c-0.1,1-0.2,1.9-0.2,2.9c0.2,0,0.2,0,0.4,0c0.4,0,0.8,0.1,1.2,0.2
			c5.7-1.9,9.3-4.5,9.3-7.3C71.5,21.7,57.3,17,39.7,17z"/>
	</g>
	<g>
		<path class="st1" d="M5.2,79.1L4,78.5c5.3-11,18.3-11.8,22.1-11.7c0,0,0,0,0.1,0c4.4,0,5-2.6,5.1-3.5c0-0.1,0-0.5,0-0.9
			c0-2.2-0.9-4.2-2.6-5.8c-3.2-3-5.5-7.3-7-12.8c-0.7,0.4-1.5,0.5-2.3,0.5c-2.8,0-5.2-2.4-5.2-5.2c0-2.9,2.4-5.2,5.2-5.2
			c0.3,0,0.6,0,0.8,0.1c-0.1-2.5,0-4,0-4.1c0-0.1,0-1.6,1.7-3.3c2.1-2.1,7.2-4.6,19-4.4c0.6,0,14.5,0.3,19.2,5.4
			c1.1,1.2,1.7,2.7,1.6,4.2c-0.1,0.7-0.1,1.3-0.2,1.9l0,0.2c2.7,0.2,4.9,2.5,4.9,5.2c0,2.9-2.4,5.2-5.2,5.2c-0.5,0-1-0.1-1.4-0.2
			c-1.5,5.5-3.8,9.7-6.8,12.7c-1.4,1.3-2.2,3.3-2.2,5.3v1.1c0.1,0.5,1,3.1,4,3.2c0.3,0,0.7,0,1.2,0c5.7,0.1,20.9,0.3,23.5,11.2
			L78,78.1c-2.3-9.8-16.7-10-22.1-10.1c-0.5,0-0.9,0-1.3,0c-3.4-0.1-4.9-2.9-5.3-4.3l0-0.2v-1.2c0-2.4,1-4.7,2.6-6.3
			c2.9-2.9,5.1-7.2,6.6-12.7l0.2-0.8l0.7,0.3c0.5,0.2,1.1,0.3,1.6,0.3c2.1,0,3.8-1.7,3.8-3.8c0-2.1-1.8-3.8-3.8-3.8h-1.2l0.1-1.7
			c0.1-0.6,0.1-1.2,0.2-1.9c0.1-1.2-0.3-2.2-1.2-3.2c-4.3-4.7-18.1-5-18.2-5c-11.3-0.2-16,2-17.9,3.9c-1.3,1.3-1.3,2.4-1.3,2.4
			c0,0.1-0.1,2,0.1,5l0.1,1l-1-0.3c-0.4-0.1-0.9-0.3-1.4-0.3c-2.1,0-3.8,1.7-3.8,3.8c0,2.1,1.8,3.8,3.8,3.8c0.9,0,1.7-0.3,2.3-0.8
			l0.9-0.7l0.3,1.1c1.3,5.7,3.6,10.1,6.8,13c1.9,1.9,3,4.3,3,6.8c0,0.2,0,0.8,0,1c-0.2,2.3-2.1,4.7-6.5,4.7
			C22.5,68.1,10.2,68.8,5.2,79.1z"/>
	</g>
	<g>
		<path class="st1" d="M40.8,41.8h-3.2c-0.2,0-0.3-0.1-0.5-0.2S37,41.3,37,41.1l1-8.2c0-0.3,0.3-0.6,0.7-0.5c0.3,0,0.6,0.3,0.5,0.7
			l-0.9,7.5h2.5c0.3,0,0.6,0.3,0.6,0.6S41.2,41.8,40.8,41.8z"/>
	</g>
	<g>
		<circle class="st1" cx="29" cy="34.5" r="1.4"/>
	</g>
	<g>
		<circle class="st1" cx="48.8" cy="34.5" r="1.4"/>
	</g>
	<g>
		<path class="st1" d="M39.8,47.7C39.8,47.7,39.8,47.7,39.8,47.7c-1.8,0-3-1.6-3.1-1.7c-0.2-0.3-0.2-0.6,0.1-0.9
			c0.3-0.2,0.6-0.2,0.9,0.1c0,0,0.9,1.2,2.1,1.2c0,0,0,0,0,0c0.7,0,1.3-0.4,2-1.2c0.2-0.3,0.6-0.3,0.9-0.1c0.3,0.2,0.3,0.6,0.1,0.9
			C41.8,47.2,40.8,47.7,39.8,47.7z"/>
	</g>
	<g>
		<path class="st1" d="M21.6,35.8c0,0,0.5-7,3.1-8.4c2.9-1.6,4.3-2.1,10.8-2.3c3.1-0.1,4.2-1.6,4.2-1.6s0.3,1.6,3.4,2.1
			c3,0.5,13.4,0.8,14.8,4.2c1.4,3.4,1.5,5.7,1.5,5.7l1.8-0.4c0,0,2.2-6.7-5.4-10.4s-23.5-2.4-29.9-1.1c-6.5,1.2-6.5,11-6.5,11
			L21.6,35.8z"/>
	</g>
</g>
<g>
	<path class="st1" d="M41.7,73.1c-8.9,0-12.4-6-12.5-6.2l1.1-0.6c0.1,0.2,3.3,5.6,11.5,5.6c6.1,0,10.3-5.6,10.4-5.7l1,0.7
		C52.8,67.3,48.4,73.1,41.7,73.1z"/>
</g>
<g>
	<polygon class="st1" points="17.7,67.5 18.5,79.5 25.3,79.4 24.4,66.5 	"/>
</g>
<g>
	<polygon class="st1" points="67.6,67.6 66.7,79.5 60,79.4 60.8,66.5 	"/>
</g>
<rect x="-101.6" y="-15.2" class="st26" width="378.2" height="110.1"/>
</svg>
