<?xml version="1.0" encoding="utf-8"?>
<!-- Generator: Adobe Illustrator 26.0.1, SVG Export Plug-In . SVG Version: 6.00 Build 0)  -->
<svg version="1.1" id="Capa_1" xmlns="http://www.w3.org/2000/svg" xmlns:xlink="http://www.w3.org/1999/xlink" x="0px" y="0px"
	 viewBox="0 0 80 80" style="enable-background:new 0 0 80 80;" xml:space="preserve">
<style type="text/css">
	.st0{fill:none;stroke:#5D9E9B;stroke-width:1.2159;stroke-miterlimit:10;}
	.st1{fill:#5D9E9B;}
	.st2{fill:none;}
	.st3{fill:#2C6662;}
	.st4{fill:none;stroke:#5D9E9B;stroke-width:0.5;stroke-miterlimit:10;}
	.st5{fill:#EAA42C;}
	.st6{fill:none;stroke:#5D9E9B;stroke-width:0.4582;stroke-miterlimit:10;}
	.st7{fill:none;stroke:#5D9E9B;stroke-width:1.2122;stroke-miterlimit:10;}
	.st8{fill:none;stroke:#5D9E9B;stroke-width:1.2121;stroke-miterlimit:10;}
	.st9{fill:none;stroke:#5D9E9B;stroke-width:1.2962;stroke-miterlimit:10;}
	.st10{fill:none;stroke:#5D9E9B;stroke-width:1.2121;stroke-linecap:round;stroke-miterlimit:10;}
	.st11{fill:#FAF3E8;}
	.st12{fill:none;stroke:#EAA42C;stroke-width:1.5;stroke-linecap:round;stroke-miterlimit:10;}
	.st13{fill:none;stroke:#333333;stroke-width:0.56;stroke-linecap:round;stroke-miterlimit:10;}
	.st14{fill:none;stroke:#5D9E9B;stroke-width:0.4596;stroke-miterlimit:10;}
	.st15{fill:none;stroke:#5D9E9B;stroke-width:1.2158;stroke-miterlimit:10;}
	.st16{fill:none;stroke:#5D9E9B;stroke-width:1.2157;stroke-miterlimit:10;}
	.st17{fill:none;stroke:#5D9E9B;stroke-width:1.5266;stroke-miterlimit:10;}
	.st18{fill:none;stroke:#5D9E9B;stroke-width:1.5266;stroke-linejoin:round;stroke-miterlimit:10;}
	.st19{fill:none;stroke:#5D9E9B;stroke-width:1.5266;stroke-linecap:round;stroke-linejoin:round;stroke-miterlimit:10;}
	.st20{fill:none;stroke:#5D9E9B;stroke-width:1.2575;stroke-miterlimit:10;}
	.st21{fill:none;stroke:#5D9E9B;stroke-width:1.4;stroke-miterlimit:10;}
	.st22{fill:none;stroke:#5D9E9B;stroke-width:1.3;stroke-miterlimit:10;}
	.st23{fill:none;stroke:#5D9E9B;stroke-width:1.2159;stroke-linecap:round;stroke-linejoin:round;stroke-miterlimit:10;}
	.st24{fill:none;stroke:#5D9E9B;stroke-width:1.5;stroke-linecap:round;stroke-miterlimit:10;}
	.st25{fill:none;stroke:#EAA42C;stroke-width:2;stroke-miterlimit:10;}
	.st26{fill:none;stroke:#5D9E9B;stroke-miterlimit:10;}
</style>
<g>
	<path class="st1" d="M11.2,24.8L11.2,24.8L11.2,24.8c0.1,0.3,15.4,41.3,54.6,31.3C54.7,17.2,11.5,24.8,11.2,24.8L11.2,24.8
		L11.2,24.8z"/>
</g>
<g>
	<path class="st2" d="M11.2,24.8L11.2,24.8L11.2,24.8c0.1,0.3,15.4,41.3,54.6,31.3C54.7,17.2,11.5,24.8,11.2,24.8L11.2,24.8
		L11.2,24.8z"/>
</g>
<g>
	<path class="st2" d="M11.2,24.8L11.2,24.8L11.2,24.8c0.1,0.3,15.4,41.3,54.6,31.3C54.7,17.2,11.5,24.8,11.2,24.8L11.2,24.8
		L11.2,24.8z"/>
</g>
<g>
	<g>
		<g>
			<path class="st1" d="M0.2,41.1C0,30.4,4.1,20.4,11.5,12.7c7.4-7.6,17.4-11.8,28-12c16-0.2,30.6,9.2,37,23.8l-1.6,0.7
				c-6.2-14-20-23-35.4-22.8C29.4,2.6,19.8,6.7,12.7,13.9c-7.1,7.3-10.9,17-10.8,27.2H0.2z"/>
		</g>
		<g>
			<path class="st1" d="M77,26.3l-13.4-3c-0.5-0.1-0.8-0.6-0.6-1c0.1-0.5,0.6-0.8,1-0.6l11.5,2.6l1.1-10.7c0-0.5,0.5-0.8,0.9-0.8
				c0.5,0,0.8,0.5,0.8,0.9L77,26.3z"/>
		</g>
	</g>
	<g>
		<g>
			<path class="st1" d="M40,79.3c-14.6,0-28.1-7.9-35.1-21l1.5-0.8c7.2,13.5,21.8,21.4,37.1,20C64.4,75.6,79.9,57,78,36l1.7-0.2
				c2,21.9-14.2,41.3-36.1,43.3C42.4,79.3,41.2,79.3,40,79.3z"/>
		</g>
		<g>
			<path class="st1" d="M4.8,70.2L4.8,70.2c-0.5,0-0.9-0.4-0.9-0.9l0.3-12.7l13.6,2c0.5,0.1,0.8,0.5,0.7,1c-0.1,0.5-0.5,0.8-1,0.7
				L5.9,58.6L5.7,69.3C5.7,69.8,5.3,70.2,4.8,70.2z"/>
		</g>
	</g>
</g>
<path class="st3" d="M51.8,57.7l6.4-5.6l-0.8-1L50,57.5C50.6,57.6,51.2,57.6,51.8,57.7z"/>
<path class="st3" d="M45.7,56.9l8.3-7.2l-0.8-1l-9,7.9C44.7,56.7,45.2,56.8,45.7,56.9z"/>
<path class="st3" d="M39.1,54.9c0.4,0.2,0.9,0.4,1.4,0.5l9.3-8.2l-0.8-1L39.1,54.9z"/>
<path class="st3" d="M65.8,56.1L65.8,56.1c-0.1-0.3-0.2-0.6-0.3-0.9L11.9,24.7c-0.4,0.1-0.7,0.1-0.7,0.1l0,0l0,0l0,0l0,0
	c0,0,0.2,0.5,0.5,1.2l53.2,30.3C65.2,56.3,65.5,56.2,65.8,56.1z"/>
<rect x="-191.8" y="-15.2" class="st26" width="378.2" height="110.1"/>
</svg>
