<?xml version="1.0" encoding="utf-8"?>
<!-- Generator: Adobe Illustrator 26.0.1, SVG Export Plug-In . SVG Version: 6.00 Build 0)  -->
<svg version="1.1" id="Capa_1" xmlns="http://www.w3.org/2000/svg" xmlns:xlink="http://www.w3.org/1999/xlink" x="0px" y="0px"
	 viewBox="0 0 80 80" style="enable-background:new 0 0 80 80;" xml:space="preserve">
<style type="text/css">
	.st0{fill:none;stroke:#5D9E9B;stroke-width:1.2159;stroke-miterlimit:10;}
	.st1{fill:#5D9E9B;}
	.st2{fill:none;}
	.st3{fill:#2C6662;}
	.st4{fill:none;stroke:#5D9E9B;stroke-width:0.5;stroke-miterlimit:10;}
	.st5{fill:#EAA42C;}
	.st6{fill:none;stroke:#5D9E9B;stroke-width:0.4582;stroke-miterlimit:10;}
	.st7{fill:none;stroke:#5D9E9B;stroke-width:1.2122;stroke-miterlimit:10;}
	.st8{fill:none;stroke:#5D9E9B;stroke-width:1.2121;stroke-miterlimit:10;}
	.st9{fill:none;stroke:#5D9E9B;stroke-width:1.2962;stroke-miterlimit:10;}
	.st10{fill:none;stroke:#5D9E9B;stroke-width:1.2121;stroke-linecap:round;stroke-miterlimit:10;}
	.st11{fill:#FAF3E8;}
	.st12{fill:none;stroke:#EAA42C;stroke-width:1.5;stroke-linecap:round;stroke-miterlimit:10;}
	.st13{fill:none;stroke:#333333;stroke-width:0.56;stroke-linecap:round;stroke-miterlimit:10;}
	.st14{fill:none;stroke:#5D9E9B;stroke-width:0.4596;stroke-miterlimit:10;}
	.st15{fill:none;stroke:#5D9E9B;stroke-width:1.2158;stroke-miterlimit:10;}
	.st16{fill:none;stroke:#5D9E9B;stroke-width:1.2157;stroke-miterlimit:10;}
	.st17{fill:none;stroke:#5D9E9B;stroke-width:1.5266;stroke-miterlimit:10;}
	.st18{fill:none;stroke:#5D9E9B;stroke-width:1.5266;stroke-linejoin:round;stroke-miterlimit:10;}
	.st19{fill:none;stroke:#5D9E9B;stroke-width:1.5266;stroke-linecap:round;stroke-linejoin:round;stroke-miterlimit:10;}
	.st20{fill:none;stroke:#5D9E9B;stroke-width:1.2575;stroke-miterlimit:10;}
	.st21{fill:none;stroke:#5D9E9B;stroke-width:1.4;stroke-miterlimit:10;}
	.st22{fill:none;stroke:#5D9E9B;stroke-width:1.3;stroke-miterlimit:10;}
	.st23{fill:none;stroke:#5D9E9B;stroke-width:1.2159;stroke-linecap:round;stroke-linejoin:round;stroke-miterlimit:10;}
	.st24{fill:none;stroke:#5D9E9B;stroke-width:1.5;stroke-linecap:round;stroke-miterlimit:10;}
	.st25{fill:none;stroke:#EAA42C;stroke-width:2;stroke-miterlimit:10;}
	.st26{fill:none;stroke:#5D9E9B;stroke-miterlimit:10;}
</style>
<g>
	<g>
		<path class="st1" d="M16.9,71c-8.8,0-16-7.2-16-16V16.3c0-8.8,7.2-16,16-16s16,7.2,16,16V55C32.9,63.9,25.7,71,16.9,71z M16.9,1.8
			c-8,0-14.5,6.5-14.5,14.5V55c0,8,6.5,14.5,14.5,14.5S31.4,63,31.4,55V16.3C31.4,8.3,24.9,1.8,16.9,1.8z"/>
	</g>
	<g>
		<rect x="49.8" y="55.1" class="st5" width="6.6" height="24.5"/>
	</g>
	<g>
		<path class="st1" d="M16.9,79.5c-0.4,0-0.8-0.3-0.8-0.8V11.9c0-0.4,0.3-0.8,0.8-0.8s0.8,0.3,0.8,0.8v66.8
			C17.6,79.2,17.3,79.5,16.9,79.5z"/>
	</g>
	<g>
		<path class="st1" d="M16.6,53.4c-0.2,0-0.4-0.1-0.5-0.2l-7.3-7.9c-0.3-0.3-0.3-0.8,0-1.1c0.3-0.3,0.8-0.3,1.1,0l7.3,7.9
			c0.3,0.3,0.3,0.8,0,1.1C17,53.3,16.8,53.4,16.6,53.4z"/>
	</g>
	<g>
		<path class="st5" d="M51.2,74.8c-6.9-0.3-8.7-7.8-8.7-11.8l2,0c0,0.4,0,9.4,6.8,9.8L51.2,74.8z"/>
	</g>
	<g>
		<circle class="st1" cx="40" cy="53.2" r="14.9"/>
	</g>
	<g>
		<circle class="st1" cx="63.1" cy="35.6" r="14.8"/>
	</g>
	<g>
		<circle class="st1" cx="64.8" cy="53.5" r="14.9"/>
	</g>
	<g>
		<circle class="st1" cx="38.5" cy="33.3" r="13.7"/>
	</g>
	<g>
		<circle class="st1" cx="51.2" cy="24.5" r="11.9"/>
	</g>
</g>
<rect x="-281.7" y="-15.2" class="st26" width="378.2" height="110.1"/>
</svg>
